<svg version="1.0" xmlns="http://www.w3.org/2000/svg"
 width="384.000000pt" height="592.000000pt" viewBox="0 0 128.000000 148.000000"
 preserveAspectRatio="xMidYMid meet">
<metadata>
Created by potrace 1.13, written by Peter Selinger 2001-2015
</metadata>
<g transform="translate(0.000000,148.000000) scale(0.100000,-0.100000)"
fill="#000000" stroke="none">
<path d="M315 1214 l-25 -27 0 -287 c0 -276 1 -288 21 -314 l20 -26 205 0
c269 0 254 -12 254 199 l0 150 36 7 c28 5 42 2 62 -13 32 -24 33 -61 6 -165
-16 -59 -21 -67 -43 -70 -25 -3 -26 -6 -29 -72 -2 -39 2 -74 8 -80 5 -5 10
-27 10 -49 0 -36 2 -38 28 -35 23 3 27 8 30 41 2 23 8 37 17 37 9 0 15 -14 17
-37 3 -33 6 -38 28 -38 20 0 26 5 28 30 1 17 7 39 13 50 5 12 9 50 7 85 l-3
65 -32 3 c-40 4 -42 19 -13 94 24 64 25 99 4 144 -21 44 -60 64 -124 64 l-50
0 0 115 c0 163 12 155 -247 155 l-204 0 -24 -26z m414 -38 c8 -9 11 -95 9
-292 l-3 -279 -184 -3 c-141 -2 -186 1 -193 10 -13 22 -10 552 4 566 18 18
352 17 367 -2z"/>
<path d="M407 1144 c-4 -4 -7 -65 -7 -136 l0 -128 145 0 146 0 -3 133 -3 132
-136 3 c-74 1 -138 -1 -142 -4z m243 -129 l0 -95 -105 0 -105 0 0 95 0 95 105
0 105 0 0 -95z"/>
</g>
</svg>
