<?xml version="1.0" encoding="iso-8859-1"?>
<!-- Generator: Adobe Illustrator 20.0.0, SVG Export Plug-In . SVG Version: 6.00 Build 0)  -->
<svg version="1.1" xmlns="http://www.w3.org/2000/svg" xmlns:xlink="http://www.w3.org/1999/xlink" x="0px" y="0px"
	 viewBox="0 0 828.67 828.67" style="enable-background:new 0 0 828.67 828.67;" xml:space="preserve">
<g id="Beach_Villa">
	<g>
		<path style="fill:#87C9F0;" d="M828.67,414.33c0,78.27-21.7,151.47-59.42,213.91C696.7,748.36,564.9,828.67,414.34,828.67
			c-150.57,0-282.37-80.31-354.91-200.43C21.7,565.8,0,492.6,0,414.33C0,185.5,185.5,0,414.34,0c17.53,0,34.8,1.09,51.75,3.21
			c10.29,1.27,20.46,2.93,30.5,4.96c74.77,15.05,142.26,50.24,196.56,99.67l18.26,17.67c10.93,11.23,21.22,23.08,30.83,35.5
			c2.2,2.84,4.37,5.72,6.5,8.63v0.01c12.92,17.62,24.47,36.29,34.51,55.87c0,0,0.01,0,0.01,0.01c2.35,4.6,4.62,9.23,6.81,13.92
			c2.49,5.35,4.87,10.75,7.13,16.22c1.38,3.3,2.71,6.64,4,9.99v0.01l0.01,0.03c4.01,10.42,7.6,21.04,10.76,31.84
			C822.84,334.58,828.67,373.78,828.67,414.33z"/>
		<g>
			<polygon style="fill:#E57368;" points="264.579,167.743 436.07,103.434 621.39,175.695 			"/>
			<polygon style="fill:#DF896E;" points="259.047,188.488 259.047,162.902 630.379,169.126 630.379,188.488 			"/>
			<path style="fill:#FFD99B;" d="M247.292,513.489l22.819-331.225l340.906,3.457c0,0-29.043,284.204-38.724,327.768H247.292z"/>
			<path style="fill:#ECECEC;" d="M14.635,523.816c10.154,37.148,25.335,72.22,44.795,104.424
				c72.54,120.12,204.34,200.43,354.91,200.43c150.56,0,282.36-80.31,354.91-200.43c16.485-27.288,29.909-56.632,39.8-87.556
				C686.246,537.348,161.668,523.359,14.635,523.816z"/>
			<polygon style="fill:#FFFFFF;" points="340.644,281.839 351.707,195.402 550.858,200.934 547.4,288.063 			"/>
			<g>
				<polygon style="fill:#F9CC8A;" points="77.185,513.489 92.397,315.031 268.728,315.031 250.058,517.638 				"/>
				<polygon style="fill:#E57368;" points="83.408,315.031 205.802,216.147 268.728,280.456 268.728,319.18 				"/>
				<polygon style="fill:#FEFEFE;" points="104.153,517.638 117.983,344.765 250.749,347.877 243.143,521.096 				"/>
			</g>
			<path style="fill:#EDB81D;" d="M340.644,256.945c0,0,59.468,8.989,110.639-53.245c0,0,52.55,61.707,105.105,61.625l3.459-69.923
				l-219.203-3.457V256.945z"/>
			<path style="fill:#EDB81D;" d="M105.881,512.107c0,0,21.836-33.192,15.613-79.176c0,0,46.68-16.596,69.096-75.373
				c0,0,30.837,65.346,50.199,75.373c0,0-19.081,68.112,3.047,74.336l6.915-159.389l-132.767-3.112L105.881,512.107z"/>
			<polygon style="fill:#BBA57C;" points="442.985,280.456 442.985,205.775 458.889,205.775 450.937,280.456 			"/>
			<polygon style="fill:#E57368;" points="264.579,512.797 277.026,363.435 570.911,371.733 559.847,512.797 			"/>
			<polygon style="fill:#FEFEFE;" points="277.026,512.798 287.399,380.031 550.858,386.255 550.858,513.49 			"/>
			<path style="fill:#77C5E4;" d="M158.377,740.168c70.462,55.433,159.347,88.502,255.963,88.502
				c78.478,0,151.852-21.829,214.401-59.733l-68.894-235.845l-316.984-3.355L158.377,740.168z"/>
			<path style="fill:#FDDCB3;" d="M31.546,532.158c-1.383-2.073,0-31.461,0-31.461l766.866,20.053l-6.915,32.846L31.546,532.158z"/>
			<g>
				<path style="fill:#838383;" d="M486.015,580.706l-9.996-0.283c1.026-36.181,0.219-77.844-2.725-89.956
					c-1.594,2.71-2.981,8.199-3.185,13.526l-9.993-0.363c0.008-0.221,0.209-5.459,1.63-10.861
					c2.892-10.988,8.482-13.677,12.664-13.999c1.812-0.135,3.57,0.512,4.956,1.832c2.198,2.094,6.288,5.991,6.96,54.447
					C486.646,558.065,486.021,580.482,486.015,580.706z"/>
			</g>
			<g>
				<path style="fill:#838383;" d="M506.447,575.932c-0.029-0.705-0.647-17.584,5.655-44.898
					c4.707-20.397,2.412-35.269-1.712-40.455c-1.302-1.637-2.392-1.827-3.099-1.827c0,0-0.001,0-0.001,0
					c-1.028,0-1.749,0.293-2.41,0.98c-2.482,2.579-3.068,9.07-2.963,11.81l-9.992,0.384c-0.05-1.294-0.312-12.832,5.75-19.129
					c2.548-2.646,5.873-4.045,9.615-4.045c0.001,0,0.003,0,0.004,0c4.231,0.001,8.008,1.939,10.922,5.603
					c7.133,8.97,8.524,27.718,3.629,48.928c-5.969,25.867-5.414,42.079-5.408,42.239L506.447,575.932z"/>
			</g>
			<g>
				<rect x="476.176" y="556.203" style="fill:#838383;" width="43.542" height="10"/>
			</g>
			<g>
				<rect x="476.176" y="536.149" style="fill:#838383;" width="45.639" height="10"/>
			</g>
			<g>
				<rect x="476.176" y="516.096" style="fill:#838383;" width="49.096" height="10"/>
			</g>
			<polygon style="fill:#F9CC8A;" points="575.751,513.144 597.187,331.627 791.497,335.776 770.752,525.245 			"/>
			<polygon style="fill:#E57368;" points="596.15,330.59 689.848,238.275 804.636,335.084 			"/>
			<polygon style="fill:#FEFEFE;" points="777.059,368.573 611.017,366.201 594.422,517.638 758.647,529.738 			"/>
			<path style="fill:#D9D9D9;" d="M135.778,721.038c8.883,8.074,18.113,15.773,27.675,23.059l90.754-211.939h-21.334
				C232.873,532.158,167.4,659.482,135.778,721.038z"/>
			<path style="fill:#D9D9D9;" d="M595.406,541.149h-35.559l65.051,230.09c11.586-6.851,22.811-14.246,33.637-22.157
				L595.406,541.149z"/>
			<polygon style="fill:#F29E4A;" points="282.558,259.711 282.558,318.488 582.666,331.627 586.124,265.935 			"/>
			<g>
				<g>
					<path style="fill:#0099E6;" d="M254.17,599.291c17.449-2.469,35.025-4.043,52.634-4.731c7.79-0.304,16.466-1.389,24.197-0.224
						c2.301,0.347,4.717,0.815,2.476,2.978c-2.562,2.471-7.157,3.305-10.402,4.425c-8.492,2.931-16.985,5.862-25.477,8.793
						c-6.327,2.184-13.903,3.856-18.724,8.862c-4.001,4.156-4.571,10.684-0.639,15.085c4.08,4.567,10.644,5.042,16.367,5.258
						c20.167,0.761,40.339,1.422,60.508,2.132c6.436,0.227,6.427-9.773,0-10c-17.892-0.631-35.784-1.261-53.677-1.892
						c-3.729-0.131-7.609,0.063-11.302-0.505c-2.559-0.394-6.286-1.311-3.234-3.904c2.798-2.377,7.165-3.257,10.527-4.418
						c4.403-1.52,8.807-3.04,13.21-4.559c7.885-2.721,16.144-5.006,23.777-8.377c5.286-2.335,10.543-6.661,10.191-12.979
						c-0.83-14.919-24.567-11.11-33.93-10.814c-19.81,0.628-39.541,2.448-59.163,5.225
						C245.166,590.547,247.866,600.184,254.17,599.291L254.17,599.291z"/>
				</g>
			</g>
			<g>
				<g>
					<path style="fill:#0099E6;" d="M447.131,614.55c31.801-1.167,63.405,2.809,93.92,11.835c0-3.214,0-6.429,0-9.643
						c-17.211,7.015-34.423,14.029-51.634,21.044c-4.338,1.768-5.128,8.162,0,9.643c19.703,5.69,40.252,7.72,60.681,5.896
						c6.359-0.568,6.419-10.573,0-10c-19.624,1.753-39.091-0.072-58.022-5.538c0,3.214,0,6.429,0,9.643
						c17.211-7.015,34.423-14.029,51.634-21.044c4.36-1.777,5.106-8.133,0-9.643c-31.303-9.259-63.956-13.389-96.579-12.192
						C440.716,604.785,440.685,614.786,447.131,614.55L447.131,614.55z"/>
				</g>
			</g>
			<g>
				<g>
					<path style="fill:#0099E6;" d="M317.821,693.5c9.11,0.44,18.219,0.88,27.329,1.319c4.229,0.204,8.459,0.408,12.688,0.613
						c4.245,0.205,8.844,0.824,13.027-0.257c6.101-1.577,11.256-7.519,9.358-14.076c-1.307-4.517-5.469-6.714-9.614-8.09
						c-2.265-0.752-12.945-3.193-5.118-5.401c3.779-1.066,8.774-0.213,12.643-0.115c4.568,0.116,9.136,0.232,13.704,0.348
						c18.273,0.464,36.545,0.929,54.818,1.393c1.685,0.043,12.434-0.737,12.662,1.627c0.034,0.357-10.79,3.575-11.826,3.915
						c-9.668,3.173-19.337,6.346-29.005,9.519c-4.762,1.563-4.726,8.061,0,9.643c15.967,5.346,32.843,6.098,49.269,2.483
						c6.282-1.383,3.624-11.025-2.658-9.643c-14.725,3.241-29.674,2.298-43.952-2.483c0,3.214,0,6.429,0,9.643
						c9.668-3.173,19.337-6.346,29.005-9.519c6.705-2.201,17.967-3.858,19.039-12.516c1.033-8.344-7.265-11.981-14.159-12.445
						c-10.246-0.689-20.622-0.535-30.889-0.796c-10.441-0.265-20.883-0.531-31.325-0.796c-4.894-0.124-9.789-0.249-14.683-0.373
						c-4.766-0.121-9.823-0.689-14.538,0.287c-7.014,1.452-13.023,8.122-10.501,15.53c1.849,5.429,7.583,7.193,12.529,8.655
						c1.147,0.339,2.643,0.512,3.657,1.143c1.193,0.742,1.822,0.396,0.744,1.629c-1.434,1.642-5.464,0.998-7.307,0.93
						c-2.929-0.109-5.857-0.283-8.784-0.424c-12.038-0.581-24.076-1.162-36.113-1.743C311.388,683.189,311.404,693.19,317.821,693.5
						L317.821,693.5z"/>
				</g>
			</g>
			<path style="fill:#EDB81D;" d="M594.422,513.49c0,0,33.296-40.169,20.848-75.373c0,0,69.57-10.686,77.801-58.085
				c0,0,20.747,58.085,62.241,62.94c0,0-16.317,47.418,4.479,76.769l17.27-151.167l-166.042-2.372L594.422,513.49z"/>
		</g>
	</g>
</g>
<g id="Layer_1">
</g>
</svg>
