<?xml version="1.0" encoding="utf-8"?>
<!-- Generator: Adobe Illustrator 19.2.1, SVG Export Plug-In . SVG Version: 6.00 Build 0)  -->
<!DOCTYPE svg PUBLIC "-//W3C//DTD SVG 1.1//EN" "http://www.w3.org/Graphics/SVG/1.1/DTD/svg11.dtd">
<svg version="1.1" id="Livello_1" xmlns="http://www.w3.org/2000/svg" xmlns:xlink="http://www.w3.org/1999/xlink" x="0px" y="0px"
	 viewBox="0 0 828.7 828.7" style="enable-background:new 0 0 828.7 828.7;" xml:space="preserve">
<style type="text/css">
	.st0{fill:#87C9F0;}
	.st1{fill:#BCB21F;}
	.st2{fill:#AE6756;}
	.st3{fill:#FBD4B9;}
	.st4{fill:url(#SVGID_1_);}
	.st5{fill:#6CA439;}
	.st6{fill:#B6BD00;}
	.st7{fill:#FFED88;}
	.st8{fill:#E23B44;}
	.st9{opacity:0.23;fill:#1D1D1B;enable-background:new    ;}
</style>
<path class="st0" d="M817.3,510.7c-25,104.9-89.9,194.4-178,251.5c-12.8,8.3-26,15.9-39.7,22.7c-54.2,27.2-115.2,42.8-180,43.6
	c-138.1,1.8-261.3-64.2-337.9-167.1C31.4,593.8,1.2,510.3,0,419.6c-1.2-89.2,26-172.2,73.1-240.4c39.5-57.2,93-104.1,155.7-135.5
	C283.1,16.5,344.2,0.9,409,0c150.6-1.9,283.4,76.7,357.5,195.9c6.4,10.3,12.4,20.9,17.9,31.8c27.6,54.5,43.4,116,44.3,181.3
	C829,444,825.1,478.1,817.3,510.7z"/>
<path class="st1" d="M238.9,360.7c0,0,72.5-61.4,129.5,0c62.9,67.7,42.6,111.4,42.6,111.4S403.9,374.7,238.9,360.7z"/>
<path class="st2" d="M817.3,510.7c-25,104.9-89.9,194.4-178,251.5c-12.8,8.3-26,15.9-39.7,22.7c-54.2,27.2-115.2,42.8-180,43.6
	c-138.1,1.8-261.3-64.2-337.9-167.1c35.5-25.9,100.7-59.7,200.1-61.5c0,0,80.7-105.1,284.2-47.4C566,552.5,721.2,468.5,817.3,510.7z
	"/>
<path class="st3" d="M608.9,363.1c0,0-14.8,8.1-28.1,8.1s-88.8,3-88.8,14.8s45.9,7.2,45.9,7.2L583,389c0,0-99.2,11.1-105.8,27.4
	c-6.7,16.3,17,14.1,17,14.1s67.3-11.2,84.4-16.3c0,0-80.7,15.5-74.7,26.6c5.9,11.1,52.1,8,96.9-2.2L608.9,363.1z"/>
<linearGradient id="SVGID_1_" gradientUnits="userSpaceOnUse" x1="523.7694" y1="756.5817" x2="656.6627" y2="756.5817" gradientTransform="matrix(1 0 0 -1 0 1162.0365)">
	<stop  offset="0" style="stop-color:#FFFFFF;stop-opacity:0"/>
	<stop  offset="0.9993" style="stop-color:#000000;stop-opacity:0.1"/>
</linearGradient>
<path class="st4" d="M608.9,363.1c0,0-14.8,8.1-28.1,8.1s-88.8,3-88.8,14.8s45.9,7.2,45.9,7.2L583,389c0,0-99.2,11.1-105.8,27.4
	c-6.7,16.3,17,14.1,17,14.1s67.3-11.2,84.4-16.3c0,0-80.7,15.5-74.7,26.6c5.9,11.1,52.1,8,96.9-2.2L608.9,363.1z"/>
<path class="st1" d="M430.2,592.2l-2.4-91.8c-0.2-6.8,0-13.5,0.7-20.2l1.8-54.4l-13.1,28.8l-2.6,137.7L430.2,592.2L430.2,592.2z"/>
<path class="st1" d="M408,592.2l-3.9-87.8c0.2-6.8,0-13.5-0.7-20.2l-4.6-51.4l10.7,29.3l7.8,134.2L408,592.2z"/>
<path class="st5" d="M420.9,596.2l9.4-0.9c0,0-18.3-126.2-11.3-143.9C419,451.5,394,458.1,420.9,596.2z"/>
<path class="st6" d="M379.1,430.4c-30.6-26.7-99.7-73.5-192-54c0,0,57.4-39.4,130.2-4.6c97.2,46.4,86.7,91.9,86.7,91.9l0,0
	C398.1,451,389.7,439.7,379.1,430.4z"/>
<path class="st5" d="M415.6,454.6c0,0-32.7-187.7-133.8-206.2c0,0,79.2-8.9,104.4,52.5S419.5,421.8,415.6,454.6z"/>
<path class="st6" d="M415.6,454.6c0,0,33.4-137.3-13.9-184.7S318,242.5,318,242.5S399.3,287.3,415.6,454.6z"/>
<path class="st1" d="M417.2,454.6c0,0,53.3-131.4,222-166.2c0,0-92.5-8.9-152.4,55.5S423.1,429.4,417.2,454.6z"/>
<path class="st5" d="M618.5,297c0,0-63.5-53.3-127.3,12.6s-69.7,120.3-74,145C417.2,454.6,477.9,304.4,618.5,297z"/>
<path class="st3" d="M784.3,227.7c-38.9,31.8-93.6,77.8-97,87.3c-5.2,14.8-34,114-48.1,120.6s-107.7,28.1-107.7,28.1
	s-11.5-8.1,4.8-16.3c16.3-8.1,57.7-18.5,57.7-18.5s0.7-68.8,37-117.7c0,0-5.2-74-63.6-67.3c0,0-8.9-8.9,12.6-10.4
	s67.4,1.3,95.2,32.6c0,0,7.7,3,13.6-1.5c3.8-2.9,47.4-41.7,77.6-68.7C772.8,206.2,778.8,216.8,784.3,227.7z"/>
<path class="st7" d="M281.8,137c0,60-48.6,108.6-108.6,108.6c-45,0-83.6-27.4-100.1-66.4c39.5-57.2,93-104.1,155.7-135.5
	C260.6,62.7,281.8,97.4,281.8,137z"/>
<path class="st8" d="M481.2,214.8c-2.8-9.4-13.3-15.7-22.9-13.9c-1.6,5.6,1,11.5,3.1,16.9c5,13,8,26.8,8.8,40.7
	c13.4-10.7,24-24.9,30.5-40.8c1.1-2.7,2.1-5.7,1.7-8.6c-0.4-2.9-2.8-5.7-5.7-5.8c-1.6,0-3.1,0.8-4.5,1.7c-3.7,2.5-7,5.6-9.5,9.3"/>
<path class="st9" d="M430.3,595.4l209,166.8c-12.8,8.3-26,15.9-39.7,22.7L408,592.2L430.3,595.4z"/>
</svg>
