<?xml version="1.0" encoding="iso-8859-1"?>
<!-- Generator: Adobe Illustrator 20.0.0, SVG Export Plug-In . SVG Version: 6.00 Build 0)  -->
<svg version="1.1" xmlns="http://www.w3.org/2000/svg" xmlns:xlink="http://www.w3.org/1999/xlink" x="0px" y="0px"
	 viewBox="0 0 828.668 828.668" style="enable-background:new 0 0 828.668 828.668;" xml:space="preserve">
<g id="Bungalow">
	<g>
		<g>
			<defs>
				<circle id="SVGID_1_" cx="414.334" cy="414.334" r="414.334"/>
			</defs>
			<use xlink:href="#SVGID_1_"  style="overflow:visible;fill:#88C9F0;"/>
			<clipPath id="SVGID_2_">
				<use xlink:href="#SVGID_1_"  style="overflow:visible;"/>
			</clipPath>
		</g>
		<g>
			<path style="fill:#DAC242;" d="M10.405,506.991c42.084,184.222,206.953,321.677,403.929,321.677
				c214.551,0,391.014-163.075,412.201-372.038C634.713,451.594,29.65,505.278,10.405,506.991z"/>
			<path style="fill:#E2D0A6;" d="M713.188,701.308l-110.473-27.285L454.279,698.89l193.677,57.673
				C671.572,740.41,693.431,721.877,713.188,701.308z"/>
			<path style="fill:#BF7330;" d="M748.074,466.664c0,0-23.395-150.822-37.109-183.091h12.101c0,0,28.235,166.99,43.563,184.738
				L748.074,466.664z"/>
			<path style="fill:#ACBF65;" d="M704.511,285.993c-13.611-4.946-32.315,15.689-41.767,24.227
				c-6.045,5.46-21.581,14.237-21.977,23.125c2.983-6.853,8.869-12.6,12.919-19.086c5.299-8.485,8.694-17.136,15.152-25.04
				c6.19-7.576,13.278-14.364,22.077-18.734c5.741-2.852,15.211-4.933,19.159-9.347c-6.102-3.065-8.659-13.094-13.999-18.176
				c-6.881-6.549-14.354-14.019-22.32-19.244c-15.623-10.248-31.583-17.106-49.853-19.344c9.659-14.567,40.252-8.601,52.57-2.498
				c16.085,7.969,32.209,21.344,41.793,36.251c1.476-9.341-6.529-18.824-9.735-27.111c-4.452-11.507-7.622-21.226-13.902-31.871
				c-9.149-15.506-19.145-28.104-36.635-33.523c41.232-18.566,56.359,43.831,65.657,70.744
				c7.811-16.575,21.571-40.231,44.362-36.716c-15.063,9.671-28.931,24.737-33.565,42.527c22.136-6.356,47.193,10.671,57.906,29.828
				c-15.691-8.59-31.007-12.535-48.89-12.84c6.905,2.816,13.002,5.852,18.225,11.377c6.14,6.496,13.185,8.495,18.832,27.049
				c2.599,8.539,6.274,18.694,5.468,27.763c-0.26-16.917-36.067-43.399-53.294-38.194c11.725,6.768,19.485,10.812,25.863,23.569
				c3.629,7.259,3.149,13.865,3.269,21.681c-4.748-12.984-18.44-26.562-31.459-30.627
				C723.918,279.769,706.165,275.627,704.511,285.993"/>
			<path style="fill:#BF7330;" d="M62.366,503.416c0,0,5.647-96.415,37.109-156.516c0,0-21.781,115.764-18.554,160.133
				L62.366,503.416z"/>
			<path style="fill:#ACBF65;" d="M87.374,352.951c-7.025-5.673-30.74-10.966-37.851-4.962c8.09-2.618,13.607-6.718,22.524-7.136
				c7.2-0.337,14.496,0.252,21.659-0.125c1.165-9.822-10.652-29.267-16.319-37.353c-5.323-7.595-15.574-17.755-24.436-20.788
				c27.626-13.874,46.794,14.508,52.996,37.044c-0.193-17.161,15.248-30.778,29.138-38.196
				c-9.128,11.061-16.07,24.353-17.759,38.318c18.714-0.473,30.977,17.466,33.855,33.72c-6.248-8.51-22.89-12.722-33.068-11.656
				c7.176,7.852,20.824,26.073,10.427,37.063c-6.612-6.544-8.858-16.353-17.774-21.717c-6.118-3.681-17.914-8.847-24.199-5.826"/>
			<path style="fill:#ACBF65;" d="M146.177,706.003c7.919-22.241,18.751-48.225,40.174-61.925
				c-11.411,4.896-20.902,7.316-30.202,16.71c-12.257,12.381-21.769,25.605-21.179,43.656c0-23.226-7.361-43.704-14.3-65.759
				c-7.318-23.26-20.27-45.825-45.153-53.482c12.573,3.972,22.448,26.009,28.265,36.332c7.634,13.549,10.444,31.073,14.266,46.175
				c2.665,10.529,4.97,23.507,3.833,34.356c-4.789-12.689-9.577-23.678-17.557-34.886c-6.089-8.551-17.115-27.877-29.571-27.1
				c8.278,6.093,12.709,14.752,17.942,23.837c2.691,4.672,7.695,14.778,10.549,24.084c12.413,14.1,25.765,27.353,39.967,39.653
				c1.065-1.243,2.338-2.444,3.963-3.594c11.865-8.395,28.775-11.345,42.519-14.877c17.204-4.421,39.539-3.693,55.732,4.85
				C221.966,686.951,174.997,686.412,146.177,706.003z"/>
			<path style="fill:#ACBF65;" d="M379.062,795.033c-9.903-8.427-21.186-8.473-33.43-8.946
				c-0.136-11.532,14.456-29.851,25.456-32.174c-15.801-5.627-58.089-1.969-63.34,15.237c4.042-14.252,5.653-34.427,15.302-47.243
				c-11.092,7.185-24.858,13.357-33.922,23.049c-5.483,5.863-14.263,16.018-15.392,24.19c-0.581,4.207,1.078,8.497,0.876,12.771
				c-10.128-17.307-49.37-21.03-63.078-6.195c2.377,1.337,4.77,2.649,7.175,3.939c6.631,0.944,12.577,2.698,19.517,6.457
				c3.413,1.848,9.565,5.304,13.656,9.484c28.893,12.327,59.472,21.462,91.295,26.97c8.29-16.823,42.029-19.798,53.264-6.047
				C390.269,809.535,386.478,801.345,379.062,795.033z"/>
			<g>
				<polygon style="fill:#BF7330;" points="185.794,542.125 190.634,611.906 214.835,616.746 206.365,545.56 				"/>
				<polygon style="fill:#BF7330;" points="267.272,573.991 267.272,639.334 285.826,644.982 285.826,587.246 				"/>
				<polygon style="fill:#BF7330;" points="351.574,619.973 351.574,693.384 374.968,693.384 374.162,616.746 				"/>
				<polygon style="fill:#D9923B;" points="285.826,271.472 280.986,587.705 553.656,561.89 545.589,259.372 				"/>
				<path style="fill:#F4D19F;" d="M168.852,233.557c0,0-21.781,238.788-12.907,300.098l125.041,54.05l4.84-316.232L168.852,233.557
					z"/>
				<polygon style="fill:#BF6363;" points="372.145,51.239 140.617,224.683 280.986,273.086 607.706,259.372 				"/>
				<g>
					<polygon style="fill:#FEFEFE;" points="323.742,314.228 323.742,433.622 426.195,418.294 417.321,301.321 					"/>
					<polygon style="fill:#BDD3DE;" points="339.069,331.976 342.419,410.631 364.078,405.387 357.624,331.976 					"/>
					<polygon style="fill:#BDD3DE;" points="381.825,331.976 381.825,405.387 412.481,405.387 406.027,327.136 					"/>
					
						<line style="fill:none;stroke:#C9E7F2;stroke-width:5;stroke-miterlimit:10;" x1="364.078" y1="308.665" x2="374.162" y2="423.538"/>
				</g>
				<polygon style="fill:#BF7533;" points="550.43,479.605 691.746,579.436 342.419,624.814 280.986,587.705 553.656,561.89 				"/>
				<g>
					<polygon style="fill:#FEFEFE;" points="188.214,273.086 176.92,388.446 235.81,405.387 235.81,293.254 					"/>
					
						<line style="fill:none;stroke:#C9E7F2;stroke-width:8;stroke-miterlimit:10;" x1="180.146" y1="361.018" x2="235.81" y2="378.362"/>
					
						<line style="fill:none;stroke:#C9E7F2;stroke-width:8;stroke-miterlimit:10;" x1="181.76" y1="339.236" x2="235.81" y2="354.564"/>
					
						<line style="fill:none;stroke:#C9E7F2;stroke-width:8;stroke-miterlimit:10;" x1="185.39" y1="308.665" x2="235.81" y2="324.715"/>
					
						<line style="fill:none;stroke:#C9E7F2;stroke-width:8;stroke-miterlimit:10;" x1="186.481" y1="290.782" x2="235.81" y2="308.665"/>
				</g>
				<g>
					<polygon style="fill:#F9AB34;" points="454.279,571.686 460.883,305.354 533.488,301.321 535.758,563.618 					"/>
					<circle style="fill:#590202;" cx="469.354" cy="424.186" r="6.924"/>
				</g>
				<polygon style="fill:#BC4A4A;" points="285.826,271.472 372.145,51.239 607.706,259.372 				"/>
				<g>
					<polygon style="fill:#CE7C45;" points="548.921,384.345 550.43,479.605 566.709,489.328 558.899,481.218 563.336,414.261 
						683.954,489.75 687.426,548.131 694.024,545.56 701.285,476.378 					"/>
					
						<rect x="602.462" y="508.557" transform="matrix(0.9968 -0.0794 0.0794 0.9968 -41.6195 50.0714)" style="fill:#CE6B29;" width="12.101" height="79.148"/>
					
						<rect x="634.72" y="505.986" transform="matrix(0.9968 -0.0794 0.0794 0.9968 -41.3134 52.6257)" style="fill:#CE6B29;" width="12.101" height="79.148"/>
					
						<rect x="666.999" y="503.414" transform="matrix(0.9968 -0.0794 0.0794 0.9968 -41.007 55.1819)" style="fill:#CE6B29;" width="12.101" height="79.148"/>
					<polygon style="fill:#CE6B29;" points="580.277,423.538 577.857,495.986 592.378,495.986 592.378,433.622 					"/>
					<polygon style="fill:#CE6B29;" points="612.546,444.109 612.19,448.386 608.513,492.512 625.103,492.512 625.103,452.983 					
						"/>
					<path style="fill:#D08450;" d="M573.824,486.865l6.454,111.327l121.007-10.487V476.378L573.824,486.865z M686.764,579.638
						l-95.999,8.067l-5.647-78.251l103.249-6.037L686.764,579.638z"/>
				</g>
				<g>
					<polygon style="fill:#CE6B29;" points="374.162,515.907 377.388,607.469 390.699,604.646 389.086,515.907 					"/>
					<polygon style="fill:#CE6B29;" points="406.027,509.453 412.481,601.419 426.195,598.192 420.951,507.033 					"/>
					<polygon style="fill:#CE6B29;" points="310.834,503.416 308.011,594.158 319.305,604.646 321.725,509.453 					"/>
					<polygon style="fill:#CE6B29;" points="291.473,492.512 291.473,578.831 302.84,587.705 303.647,501.633 					"/>
					<path style="fill:#D08450;" d="M446.363,486.865l-103.943,20.168v117.78l117.657-14.924L446.363,486.865z M360.044,604.646
						v-82.285l72.604-12.907l5.647,83.898L360.044,604.646z"/>
					<path style="fill:#CE7C45;" d="M280.986,459.437v128.268l61.433,37.109v-117.78L280.986,459.437z M330.196,604.646
						l-38.722-25.815v-79.865l38.722,18.554V604.646z"/>
				</g>
				<polygon style="fill:#BF7330;" points="644.123,592.659 644.123,657.394 662.302,655.065 658.269,592.659 				"/>
				<g>
					<polygon style="fill:#D08450;" points="447.976,604.646 452.01,697.418 513.32,702.258 508.48,673.216 488.312,674.023 
						485.892,641.755 460.883,643.368 460.883,607.873 					"/>
					<polygon style="fill:#CE6B29;" points="580.021,594.158 581.635,625.027 597.768,623.816 597.97,653.452 611.885,650.739 
						611.885,679.175 513.32,702.258 508.48,673.216 488.312,674.023 485.892,641.755 460.883,643.368 460.883,609.486 					"/>
					<polygon style="fill:#AA5922;" points="462.43,642.965 581.635,625.027 597.768,623.816 485.892,641.755 					"/>
					<polygon style="fill:#AA5922;" points="488.312,674.023 597.97,653.452 611.885,650.739 508.48,673.216 					"/>
				</g>
				<polygon style="opacity:0.2;fill:#590202;" points="285.826,273.273 546.903,308.665 543.677,263.548 				"/>
			</g>
		</g>
	</g>
</g>
<g id="Layer_1">
</g>
</svg>
