<?xml version="1.0" encoding="iso-8859-1"?>
<!-- Generator: Adobe Illustrator 19.2.1, SVG Export Plug-In . SVG Version: 6.00 Build 0)  -->
<svg version="1.1" xmlns="http://www.w3.org/2000/svg" xmlns:xlink="http://www.w3.org/1999/xlink" x="0px" y="0px"
	 viewBox="0 0 965 965" style="enable-background:new 0 0 965 965;" xml:space="preserve">
<g id="Candles__x26__Stones">
	<g>
		<path style="fill:#B8D7F4;" d="M965,485.206c0,6.797-0.13,13.532-0.39,20.206c-0.01,0.153-0.02,0.307-0.02,0.45
			c-0.31,7.595-0.781,15.118-1.421,22.56c-0.17,2.119-0.37,4.227-0.571,6.326c-1.391,14.136-3.373,27.995-5.916,41.557
			c-2.262,12.13-4.985,24.013-8.128,35.662c-0.22,0.809-0.43,1.617-0.661,2.416c-3.343,12.15-7.147,24.034-11.401,35.651
			c-0.44,1.208-0.891,2.426-1.341,3.633c-4.574,12.191-9.639,24.085-15.145,35.651c-0.511,1.075-1.021,2.139-1.542,3.204
			c-5.946,12.253-12.402,24.136-19.339,35.662c-0.571,0.952-1.141,1.894-1.722,2.835c-7.527,12.314-15.595,24.208-24.173,35.662
			c-0.691,0.931-1.391,1.852-2.092,2.784c-3.373,4.432-6.827,8.813-10.35,13.112c-6.326,7.738-12.893,15.262-19.679,22.549
			c-1.131,1.218-2.262,2.426-3.413,3.624c-9.519,10.021-19.459,19.602-29.769,28.732c-2.633,2.344-5.295,4.657-7.988,6.93
			c-0.951,0.809-1.912,1.617-2.873,2.416c-5.005,4.187-10.1,8.26-15.265,12.232c-7.447,5.742-15.065,11.259-22.832,16.561
			c-3.413,2.334-6.847,4.616-10.32,6.858c-1.882,1.218-3.764,2.426-5.665,3.624c-21.551,13.542-44.113,25.467-67.416,35.661
			c-2.492,1.085-4.995,2.16-7.507,3.204c-13.833,5.793-27.927,10.993-42.211,15.558c-1.932,0.624-3.874,1.228-5.816,1.822
			c-27.307,8.393-55.304,14.525-83.621,18.271c-8.959,1.198-17.947,2.139-26.956,2.846c-10.811,0.849-21.661,1.351-32.512,1.484
			c-1.972,0.031-3.944,0.051-5.916,0.051c-13.173,0.01-26.346-0.491-39.498-1.535c-8.829-0.706-17.647-1.658-26.436-2.846
			c-26.175-3.552-52.131-9.274-77.576-17.288c-1.942-0.604-3.884-1.228-5.826-1.873c-14.434-4.75-28.698-10.236-42.732-16.49
			c-2.352-1.044-4.695-2.109-7.037-3.204c-20.11-9.366-39.739-20.308-58.727-32.877c-1.391-0.921-2.773-1.842-4.154-2.784
			c-1.762-1.198-3.513-2.406-5.265-3.624c-15.405-10.768-30.37-22.642-44.794-35.651c-0.881-0.798-1.772-1.607-2.653-2.416
			c-12.092-11.075-23.803-22.959-35.074-35.662c-1.061-1.198-2.122-2.405-3.183-3.624c-7.808-8.987-15.405-18.373-22.772-28.169
			c-1.872-2.487-3.714-4.985-5.525-7.493c-0.671-0.932-1.341-1.853-2.002-2.784c-8.368-11.73-16.096-23.624-23.203-35.662
			c-0.551-0.942-1.111-1.894-1.652-2.835c-6.847-11.761-13.093-23.665-18.758-35.662c-0.511-1.065-1.011-2.129-1.501-3.204
			c-5.475-11.792-10.39-23.686-14.754-35.651c-0.45-1.208-0.891-2.415-1.321-3.633c-4.214-11.822-7.908-23.717-11.091-35.651
			c-0.22-0.809-0.43-1.617-0.641-2.416c-3.093-11.853-5.686-23.747-7.788-35.662c-4.815-27.155-7.117-54.413-7.067-81.508
			c0.03-21.935,1.602-43.758,4.624-65.325c8.799-62.97,29.929-123.782,61.13-178.871c11.451-20.205,24.244-39.633,38.297-58.119
			c1.251-1.658,2.522-3.306,3.804-4.944c0,0,0,0,0-0.01c9.659-12.385,19.859-24.32,30.6-35.764
			c18.188-19.387,37.907-37.351,58.967-53.626c10.3-7.963,20.93-15.528,31.861-22.652c3.613-2.354,7.257-4.668,10.941-6.93
			c3.483-2.129,6.997-4.228,10.54-6.275c16.606-9.622,33.833-18.261,51.64-25.825c13.453-5.722,27.227-10.829,41.3-15.272
			C412.672-0.606,488.797-6.645,568.945,8.043c14.904,2.733,29.549,6.162,43.923,10.277c15.675,4.473,31.02,9.745,45.985,15.753
			c19.209,7.707,37.807,16.643,55.704,26.695c4.284,2.395,8.538,4.872,12.742,7.411c2.482,1.494,4.945,3.009,7.397,4.555
			C873.331,159.697,965,315.323,965,485.206z"/>
		<g>
			<g>
				<path style="fill:#8F5214;" d="M956.682,576.305h-45.714H774.384h-3.483h-2.703h-184.6H475.093h-2.372H472.1h-2.993h-4.144
					H363.094h-77.686h-95.183h-15.795h-1.171h-2.042h-3.243H7.068c2.102,11.914,4.695,23.808,7.788,35.662h155.251h2.873h0.08h2.973
					h51.57h66.765h31.351h130.277h13.643h6.226h109.727H769.39h2.993h0.14h2.843h93.141h80.048L956.682,576.305z"/>
				<path style="fill:#8F5214;" d="M947.893,614.382c-3.343,12.15-7.147,24.034-11.401,35.651H26.587
					c-4.214-11.822-7.908-23.717-11.091-35.651H947.893z"/>
				<path style="fill:#8F5214;" d="M935.151,653.667c-4.574,12.191-9.639,24.085-15.145,35.651H42.662
					c-5.475-11.792-10.39-23.686-14.754-35.651H935.151z"/>
				<path style="fill:#8F5214;" d="M918.465,692.522c-5.946,12.253-12.402,24.136-19.339,35.662H62.922
					c-6.847-11.761-13.093-23.665-18.758-35.662H918.465z"/>
				<path style="fill:#8F5214;" d="M897.404,731.019c-7.527,12.314-15.595,24.208-24.173,35.662H87.776
					c-8.368-11.73-16.096-23.624-23.203-35.662H897.404z"/>
				<path style="fill:#8F5214;" d="M871.139,769.465c-3.373,4.432-6.827,8.813-10.35,13.112
					c-6.326,7.738-12.893,15.262-19.679,22.549H118.076c-7.808-8.987-15.405-18.373-22.772-28.169
					c-1.872-2.487-3.714-4.985-5.525-7.493H871.139z"/>
				<g>
					<g>
						<polygon style="fill:#6A3700;" points="173.262,576.308 173.238,579.088 173.156,589.736 173.061,600.989 172.848,597.206 
							169.551,588.624 169.598,580.055 171.217,576.308 						"/>
					</g>
					<g>
						<polygon style="fill:#6A3700;" points="176.3,605.776 176.028,611.964 173.061,611.964 172.978,611.964 170.106,611.964 
							170.378,605.812 169.929,597.859 166.584,589.192 166.643,579.402 167.978,576.308 174.432,576.308 173.238,579.088 
							172.541,580.695 172.506,588.056 173.156,589.736 175.768,596.553 						"/>
					</g>
				</g>
				<g>
					<g>
						<polygon style="fill:#6A3700;" points="475.864,611.964 473.251,605.099 473.098,597.569 473.901,589.664 474.067,581.626 
							475.095,576.308 472.72,576.308 472.105,576.308 469.103,576.308 468.204,580.961 468.003,589.301 467.188,597.387 
							467.353,605.957 469.635,611.964 						"/>
					</g>
				</g>
				<g>
					<g>
						<polygon style="fill:#6A3700;" points="772.579,613.209 772.378,611.964 771.349,605.558 772.023,601.11 772.52,611.964 
													"/>
					</g>
					<g>
						<polygon style="fill:#6A3700;" points="776.361,582.267 775.806,590.425 775.451,598.294 774.34,605.546 775.368,611.964 
							772.52,611.964 769.387,611.964 768.359,605.558 769.576,597.641 769.896,590.135 770.392,582.944 768.194,576.308 
							770.9,576.308 774.387,576.308 						"/>
					</g>
				</g>
				<g>
					<g>
						<polygon style="fill:#6A3700;" points="599.914,639.063 600.859,648.08 600.528,650.038 594.536,650.038 594.902,647.874 
							594.015,639.353 593.779,630.65 593.909,621.44 594.914,614.381 600.895,614.381 599.795,622.105 599.689,630.602 						"/>
					</g>
				</g>
				<g>
					<g>
						<polygon style="fill:#6A3700;" points="314.144,647.282 314.25,650.038 308.328,650.038 308.222,647.234 308.706,637.878 
							307.855,628.499 308.127,619.361 306.673,614.381 312.832,614.381 314.061,618.576 313.777,628.306 314.628,637.77 						"/>
					</g>
				</g>
				<g>
					<g>
						<polygon style="fill:#6A3700;" points="188.805,689.32 191.677,689.32 191.961,684.377 194.16,675.674 194.254,666.911 
							195.566,658.196 195.318,653.664 192.351,653.664 191.76,653.664 189.396,653.664 189.633,657.906 188.38,666.198 
							188.262,674.876 186.169,683.144 185.768,689.32 188.722,689.32 						"/>
					</g>
				</g>
				<g>
					<g>
						<polygon style="fill:#6A3700;" points="448.642,682.31 447.508,689.32 441.515,689.32 442.732,681.826 442.709,672.737 
							440.51,662.922 441.42,653.664 447.354,653.664 446.491,662.536 448.607,672.048 						"/>
					</g>
				</g>
				<g>
					<polygon style="fill:#6A3700;" points="769.346,661.605 770.032,671.178 769.31,680.593 768.59,689.32 771.474,689.32 
						772.017,653.664 769.133,653.664 					"/>
					<polygon style="fill:#6A3700;" points="775.244,661.363 775.043,653.664 772.088,653.664 772.041,651.851 772.017,653.664 
						771.556,689.32 774.511,689.32 775.197,681.089 775.965,671.19 					"/>
				</g>
				<g>
					<g>
						<polygon style="fill:#6A3700;" points="610.398,728.179 604.488,728.179 604.464,724.565 602.609,715.573 602.148,706.822 
							601.273,697.696 602.018,692.523 607.975,692.523 607.218,697.829 608.034,706.423 608.507,715.005 610.374,723.901 						"/>
					</g>
				</g>
				<g>
					<g>
						<polygon style="fill:#6A3700;" points="309.463,717.18 310.243,726.463 310.196,728.179 304.274,728.179 304.321,726.632 
							303.541,717.289 304.487,698.808 303.387,692.523 309.392,692.523 310.432,698.434 						"/>
					</g>
				</g>
				<g>
					<g>
						<polygon style="fill:#6A3700;" points="460.45,759.617 461.68,766.676 455.687,766.676 454.434,759.521 456.349,750.25 
							453.169,741.028 453.323,731.02 453.323,730.971 459.233,731.068 459.091,740.037 462.483,749.851 						"/>
					</g>
				</g>
				<g>
					<g>
						<polygon style="fill:#6A3700;" points="608.057,800.809 609.322,805.124 603.152,805.124 602.148,801.68 602.183,791.321 
							604.346,782.075 602.644,772.828 602.396,769.468 608.329,769.468 608.53,772.2 610.386,782.22 608.093,792.046 						"/>
					</g>
				</g>
				<g>
					<g>
						<polygon style="fill:#6A3700;" points="325.467,785.108 322.429,793.545 323.954,802.018 323.978,805.124 318.08,805.124 
							318.056,802.332 316.318,793.025 319.581,783.972 319.734,776.14 318.091,769.468 324.19,769.468 325.668,775.451 						"/>
					</g>
				</g>
			</g>
			<g>
				<path style="fill:#8F5214;" d="M837.696,808.75c-9.519,10.021-19.459,19.602-29.769,28.732c-2.633,2.344-5.295,4.657-7.988,6.93
					H156.333c-12.092-11.075-23.803-22.959-35.074-35.662H837.696z"/>
				<path style="fill:#8F5214;" d="M797.067,846.827c-5.005,4.187-10.1,8.26-15.265,12.232
					c-7.447,5.742-15.065,11.259-22.832,16.561c-3.413,2.334-6.847,4.616-10.32,6.858h-544.87
					c-15.405-10.768-30.37-22.642-44.794-35.651H797.067z"/>
				<path style="fill:#8F5214;" d="M742.984,886.102c-21.551,13.542-44.113,25.467-67.416,35.661H271.925
					c-20.11-9.366-39.739-20.308-58.727-32.877c-1.391-0.921-2.773-1.842-4.154-2.784H742.984z"/>
				<path style="fill:#8F5214;" d="M620.034,942.348c-27.307,8.393-55.304,14.525-83.621,18.271H405.095
					c-26.175-3.552-52.131-9.274-77.576-17.288c-1.942-0.604-3.884-1.228-5.826-1.873c-14.434-4.75-28.698-10.236-42.732-16.49
					h389.099c-13.833,5.793-27.927,10.993-42.211,15.558"/>
				<path style="fill:#8F5214;" d="M509.457,963.464c-10.811,0.849-21.661,1.351-32.512,1.484c-1.972,0.031-3.944,0.051-5.916,0.051
					c-13.173,0.01-26.346-0.491-39.498-1.535H509.457z"/>
				<g>
					<g>
						<polygon style="fill:#6A3700;" points="190.992,808.751 190.968,811.531 190.886,822.179 190.791,833.432 190.578,829.649 
							187.28,821.067 187.328,812.497 188.947,808.751 						"/>
					</g>
					<g>
						<polygon style="fill:#6A3700;" points="194.03,838.218 193.758,844.407 190.791,844.407 190.708,844.407 187.836,844.407 
							188.108,838.255 187.659,830.302 184.314,821.635 184.373,811.845 185.708,808.751 192.162,808.751 190.968,811.531 
							190.271,813.138 190.235,820.499 190.886,822.179 193.498,828.996 						"/>
					</g>
				</g>
				<g>
					<g>
						<polygon style="fill:#6A3700;" points="493.593,844.407 490.981,837.542 490.828,830.011 491.631,822.107 491.797,814.069 
							492.825,808.751 490.449,808.751 489.835,808.751 486.832,808.751 485.934,813.404 485.733,821.744 484.918,829.83 
							485.083,838.4 487.364,844.407 						"/>
					</g>
				</g>
				<g>
					<g>
						<polygon style="fill:#6A3700;" points="790.309,845.652 790.108,844.407 789.079,838.001 789.753,833.553 790.25,844.407 
													"/>
					</g>
					<g>
						<polygon style="fill:#6A3700;" points="794.091,814.709 793.535,822.868 793.181,830.737 792.07,837.989 793.098,844.407 
							790.25,844.407 787.117,844.407 786.089,838.001 787.306,830.084 787.626,822.578 788.122,815.386 785.924,808.751 
							788.63,808.751 792.117,808.751 						"/>
					</g>
				</g>
				<g>
					<g>
						<polygon style="fill:#6A3700;" points="617.643,871.506 618.589,880.522 618.258,882.48 612.265,882.48 612.632,880.317 
							611.745,871.796 611.509,863.093 611.639,853.883 612.644,846.824 618.624,846.824 617.525,854.548 617.419,863.045 						"/>
					</g>
				</g>
				<g>
					<g>
						<polygon style="fill:#6A3700;" points="331.873,879.725 331.98,882.48 326.058,882.48 325.952,879.676 326.436,870.321 
							325.585,860.942 325.857,851.804 324.403,846.824 330.561,846.824 331.791,851.018 331.507,860.748 332.358,870.212 						"/>
					</g>
				</g>
				<g>
					<g>
						<path style="fill:#6A3700;" d="M213.198,888.886c-1.391-0.921-2.773-1.842-4.154-2.784h4.004L213.198,888.886z"/>
					</g>
				</g>
				<g>
					<g>
						<polygon style="fill:#6A3700;" points="466.372,914.752 465.237,921.763 459.245,921.763 460.462,914.269 460.439,905.18 
							458.24,895.365 459.15,886.107 465.084,886.107 464.221,894.978 466.337,904.491 						"/>
					</g>
				</g>
				<g>
					<polygon style="fill:#6A3700;" points="789.82,886.102 789.749,886.102 789.769,884.29 					"/>
				</g>
				<g>
					<g>
						<path style="fill:#6A3700;" d="M328.16,930.874l-0.641,12.457c-1.942-0.604-3.884-1.228-5.826-1.873l0.521-10.205
							l-1.101-6.285h6.006L328.16,930.874z"/>
					</g>
				</g>
				<g>
					<g>
						<path style="fill:#6A3700;" d="M476.965,963.515l-0.02,1.433c-1.972,0.031-3.944,0.051-5.916,0.051l0.02-1.535v-0.051
							l2.963,0.051L476.965,963.515z"/>
					</g>
				</g>
			</g>
			<g>
				<path style="fill:#2C342C;" d="M633.358,588.814c-23.253-1.109-37.431,0.813-60.322,5.133
					c-14.665,2.768-31.089,8.269-36.874,22.325c-5.417,13.161,1.436,28.961,12.434,37.761c10.997,8.8,25.163,12.118,38.899,14.691
					c98.362,18.43,201.299,10.526,295.938-22.505c14.125-4.93,29.213-11.389,36.363-24.785c3.044-5.704,4.338-12.672,2.175-18.783
					c-4.291-12.122-19.063-15.693-31.55-17.469c-65.65-9.339-128.972-4.629-197.394-0.628
					C673.334,585.706,660.89,584.075,633.358,588.814z"/>
				<ellipse style="fill:#222221;" cx="744.691" cy="589.307" rx="89.752" ry="9.552"/>
				<path style="fill:#2C342C;" d="M738.936,487.431c-39.831-8.425-80.819-10.109-121.104-4.977
					c-15.918,2.028-33.651,6.472-42.107,21.543c-7.759,13.83-4.563,32.731,4.397,45.64c8.96,12.909,22.563,20.813,36.289,26.649
					c38.656,16.435,81.137,19.375,122.363,15.102c41.227-4.273,81.572-15.504,121.726-26.699
					c19.394-5.407,39.792-11.424,53.959-27.057c5.65-6.235,10.276-15.142,7.986-23.603c-3.194-11.798-16.767-14.796-27.859-15.712
					c-55.634-4.598-111.269-9.196-166.903-13.795L738.936,487.431z"/>
				<path style="fill:#222221;" d="M835.755,501.002c-0.975,7.016-41.549,6.924-90.624-0.205s-88.07-18.595-87.095-25.611
					c0.975-7.016,41.549-6.924,90.624,0.205C797.736,482.519,836.73,493.986,835.755,501.002z"/>
				<path style="fill:#2C342C;" d="M732.877,356.798c-34.716-8.51-71.846-4.466-104.399,11.369
					c-6.362,3.095-12.687,6.736-17.445,12.344c-3.575,4.214-6.112,9.363-8.39,14.565c-4.375,9.989-8.009,20.925-6.88,31.956
					c1.363,13.326,9.627,24.824,19.644,32.362s21.731,11.722,33.265,15.811c13.387,4.746,26.811,9.502,40.609,12.469
					c12.952,2.785,26.14,3.973,39.315,4.75c12.712,0.75,25.452,1.121,38.174,0.637c22.127-0.842,44.101-4.264,66.025-7.682
					c9.605-1.497,19.4-3.058,28.092-7.824c20.513-11.247,30.62-41.333,21.733-64.692c-4.299-11.3-12.188-20.499-20.842-28.148
					c-14.742-13.03-32.191-22.281-50.6-26.83c-26.343-6.509-53.751-3.397-80.592-0.254L732.877,356.798z"/>
				<path style="fill:#222221;" d="M829.766,364.936c-0.557,4.751-36.842,4.206-81.044-1.215s-79.583-13.668-79.026-18.419
					c0.557-4.75,36.842-4.206,81.044,1.216S830.323,360.186,829.766,364.936z"/>
				<path style="fill:#2C342C;" d="M717.013,270.04c-20.212-2.16-40.877,1.065-59.762,9.329c-6.755,2.955-13.53,6.763-17.935,13.157
					c-6.837,9.923-6.332,24.511-0.671,35.305c5.661,10.793,15.637,18.13,26.203,22.477c10.566,4.347,21.841,6.036,32.976,7.973
					c12.84,2.233,25.649,4.835,38.604,5.984c27.494,2.438,55.079-1.705,82.407-5.839c6.561-0.992,13.185-2.002,19.39-4.561
					c10.611-4.375,19.609-13.361,24.631-24.599c2.126-4.757,3.573-10.004,3.368-15.306c-0.491-12.712-10.084-22.641-19.938-29.183
					c-6.977-4.631-14.449-8.346-22.211-11.042c-7.332-2.547-14.899-4.181-22.496-5.459c-29.062-4.889-59.074-4.56-87.518,3.652
					L717.013,270.04z"/>
			</g>
			<g>
				<path style="fill:#E7AC7B;" d="M368.198,591.724c0,40.077-51.848,83.368-115.805,83.368s-115.806-43.29-115.806-83.368
					c0-40.077,51.848-61.765,115.806-61.765S368.198,551.646,368.198,591.724z"/>
				<path style="fill:#D08450;" d="M177.327,563.135c0,0,64.881-44.246,141.833-4.209
					C319.16,558.926,275.403,586.709,177.327,563.135z"/>
				<path style="fill:#FFDA61;" d="M252.015,563.135c0,0-58.091-21.26-7.544-165.526
					C244.471,397.609,302.562,511.105,252.015,563.135z"/>
			</g>
			<g>
				<path style="fill:#FACCA9;" d="M559.024,728.913c0,54.46-70.455,113.287-157.365,113.287s-157.365-58.826-157.365-113.287
					c0-54.46,70.455-83.931,157.365-83.931S559.024,674.452,559.024,728.913z"/>
				<path style="fill:#D08450;" d="M299.653,690.064c0,0,88.166-60.125,192.734-5.719
					C492.387,684.345,432.927,722.099,299.653,690.064z"/>
				<path style="fill:#FFDA61;" d="M401.146,690.064c0,0-78.939-28.89-10.252-224.929
					C390.894,465.135,469.833,619.362,401.146,690.064z"/>
			</g>
			<g>
				<path style="fill:#B6BB44;" d="M581.156,339.07c-19.209,19.458-52.221-0.143-66.745-16.07
					c-17.627-19.336-17.347-46.593-33.302-65.581c-17.147-20.4-48.387-20.523-70.349-33.461
					c-26.446-15.569-36.576-36.818-55.894-59.101c-21.481-24.781-55.414-29.029-83.511-42.54c-4.024-1.935-7.928-4.064-11.661-6.469
					c-7.407-4.77-14.134-10.625-19.749-18.271c-4.965-6.755-8.108-14.289-10.66-22.089c3.613-2.354,7.257-4.668,10.941-6.93
					c2.022,6.5,4.484,12.805,8.048,18.65c22.342,36.614,74.573,34.198,104.372,61.927c5.585,5.2,10.46,10.799,15.005,16.551
					c1.832,2.313,3.604,4.647,5.345,7.001c13.853,18.639,25.865,37.883,48.577,49.91c20.44,10.819,47.987,12.467,62.861,32.171
					c13.783,18.261,13.813,43.471,27.967,62.265C525.773,334.791,560.076,359.285,581.156,339.07z"/>
				<path style="fill:#B6BB44;" d="M336.949,77.319c0,0-46.866,16.613-86.184-15.037c16.606-9.622,33.833-18.261,51.64-25.825
					C314.587,44.872,326.559,57.82,336.949,77.319z"/>
				<path style="fill:#B6BB44;" d="M261.813,113.448c-1.346-1.18-31.38,43.688,23.388,93.802
					C285.2,207.249,333.067,175.87,261.813,113.448z"/>
				<path style="fill:#B6BB44;" d="M365.903,167.576c0,0,46.689-55.39,99.878,0C465.781,167.576,425.594,213.715,365.903,167.576z"
					/>
				<path style="fill:#B6BB44;" d="M465.781,245.931c-0.803-2.908-50.826,15.713-36.051,91.86
					C429.73,337.791,486.466,320.869,465.781,245.931z"/>
				<path style="fill:#B6BB44;" d="M501.241,291.719c0,0,24.231-11.945,41.961,4.977
					C543.202,296.696,532.704,316.821,501.241,291.719z"/>
			</g>
			<path style="fill:none;stroke:#B6BB44;stroke-width:6;stroke-miterlimit:10;" d="M113.321,479.454
				c0.35-2.538,0.701-5.097,1.021-7.667c0.28-2.17,0.541-4.34,0.761-6.52c0.4-3.787,0.701-7.585,0.831-11.372
				c0.32-8.946-0.3-17.821-2.833-26.367c-2.042-6.919-5.295-13.429-8.038-20.083c-1.852-4.494-3.473-9.048-4.354-13.829
				c-1.371-7.544-0.811-15.149,0.5-22.775c2.322-13.491,6.987-27.023,7.377-40.36c0.13-4.504-0.23-8.977-1.331-13.429
				c-0.811-3.275-2.002-6.428-3.323-9.55c-2.893-6.827-6.366-13.46-7.597-20.768c-2.883-17.022,6.757-32.929,12.372-49.5
				c1.942-5.712,3.403-11.515,3.704-17.462c0.06-1.198,0.08-2.395,0.04-3.593c-0.03-1.546-0.13-3.081-0.28-4.627
				c-0.51-5.087-1.582-10.144-2.633-15.21c-0.601-2.927-1.201-5.855-1.682-8.803c0,0,0,0,0-0.01"/>
			<path style="fill:#BF6079;" d="M196.602,136.994c3.644,11.802-4.104,18.895-16.096,13.962
				c-4.234,27.565-25.955,27.596-30.36-0.102c-4.665,1.976-8.698,2.139-11.691,0.911c18.188-19.387,37.907-37.351,58.967-53.626
				c-0.27,2.62-1.191,5.568-2.863,8.762C218.994,111.517,219.715,131.344,196.602,136.994z"/>
			<path style="fill:#BF6079;" d="M149.607,448.334c-0.445-10.695-8.364-13.156-13.974-4.819
				c-9.559-9.389-18.717-3.845-15.247,9.138c-9.739,1.109-11.324,9.411-2.251,14.921c-11.76,10.581-5.95,21.5,8.169,16.961
				c1.788,7.439,8.19,8.627,13.085,1.957c11.007,13.486,22.7,6.387,16.384-9.841c7.998-1.251,9.963-7.601,4.319-12.769
				C170.78,453.299,164.208,442.854,149.607,448.334z"/>
			<path style="fill:#BF6079;" d="M108.707,237.234c-2.012,0.164-4.284,0.061-6.797-0.369c-0.911,9.857-8.789,12.611-16.126,5.159
				c-6.907,11.362-15.425,13.439-20.03,8.577c11.451-20.205,24.244-39.633,38.297-58.119c-0.02,1.014-0.1,2.078-0.24,3.183
				c2.192-0.072,4.114,0.174,5.726,0.675c6.837,2.109,8.348,8.772,2.633,15.211c-0.741,0.829-1.602,1.658-2.593,2.477
				c1.041,0.706,2.002,1.423,2.873,2.15C123.581,225.472,120.798,236.24,108.707,237.234z"/>
			<path style="fill:#BF6079;" d="M159.242,285.55c2.317-15.39-8.302-21.188-18.61-10.911
				c-11.048-16.157-25.647-10.891-24.279,8.637c-14.204-1.229-18.757,10.159-7.331,20.641
				c-19.702,11.703-14.426,28.961,6.973,26.561c0.497,11.131,9.305,14.675,18.131,6.57c11.982,22.422,30.628,15.667,26.095-9.313
				c11.758,0.524,16.314-7.97,9.688-16.974C188.083,298.746,181.589,281.945,159.242,285.55z"/>
			<path style="fill:#BF6079;" d="M102.156,378.273c1.147-10.736-6.384-14.422-13.22-6.98c-8.137-10.85-18.095-6.746-16.565,6.741
				c-9.878-0.409-12.694,7.624-4.464,14.531c-13.302,8.723-9.132,20.517,5.624,18.186c0.676,7.697,6.885,9.878,12.759,3.987
				c8.971,15.162,21.689,9.901,17.804-7.267c8.162-0.004,11.067-6.031,6.207-12.063
				C122.533,386.518,117.532,375.079,102.156,378.273z"/>
			<g>
				<path style="fill:#B6BB44;" d="M727.299,68.179c2.482,1.494,4.945,3.009,7.397,4.555c-8.068,9.724-17.077,18.649-29.939,26.214
					c-5.656,3.337-11.932,5.814-18.428,8.015c-13.093,4.442-27.056,7.718-38.628,14.494c-4.955,2.887-9.469,6.428-13.293,10.963
					c-15.956,18.987-15.675,46.235-33.302,65.571c-14.524,15.927-47.536,35.528-66.745,16.07
					c21.081,20.216,55.384-4.279,68.757-22.038c14.154-18.793,14.184-44.004,27.967-62.254c3.323-4.411,7.287-7.912,11.661-10.819
					c14.334-9.519,33.092-12.611,48.497-20.001c0.911-0.44,1.812-0.891,2.703-1.361C708.28,90.001,718.35,79.551,727.299,68.179z"/>
				<path style="fill:#B6BB44;" d="M658.852,34.073c19.209,7.707,37.807,16.643,55.704,26.695
					c-39.829,10.492-64.823-18.199-64.823-18.199C652.796,39.375,655.839,36.55,658.852,34.073z"/>
				<path style="fill:#B6BB44;" d="M649.736,120.924c0.803-2.908,50.826,15.713,36.051,91.86
					C685.787,212.784,629.051,195.863,649.736,120.924z"/>
				<path style="fill:#B6BB44;" d="M614.276,166.712c0,0-24.231-11.945-41.961,4.977
					C572.316,171.689,582.814,191.814,614.276,166.712z"/>
			</g>
			<path style="fill:#BF6079;" d="M677.666,87.348c1.626-10.797-5.824-14.865-13.057-7.655c-7.751-11.335-17.993-7.641-17.034,6.059
				c-9.965-0.862-13.16,7.128-5.143,14.482c-13.822,8.21-10.121,20.319,4.892,18.635c0.349,7.809,6.528,10.296,12.721,4.61
				c8.406,15.731,21.488,10.992,18.308-6.534c8.249,0.368,11.446-5.591,6.797-11.909C697.901,96.607,693.345,84.82,677.666,87.348z"
				/>
		</g>
	</g>
</g>
<g id="Layer_1">
</g>
</svg>
