<?xml version="1.0" encoding="iso-8859-1"?>
<!-- Generator: Adobe Illustrator 20.0.0, SVG Export Plug-In . SVG Version: 6.00 Build 0)  -->
<svg version="1.1" xmlns="http://www.w3.org/2000/svg" xmlns:xlink="http://www.w3.org/1999/xlink" x="0px" y="0px"
	 viewBox="0 0 828.668 828.668" style="enable-background:new 0 0 828.668 828.668;" xml:space="preserve">
<g id="Caravan">
	<g>
		<circle style="fill:#B7DDF3;" cx="414.334" cy="414.334" r="414.334"/>
		<g>
			<path style="fill:#F0C03E;" d="M0.302,430.296C8.69,651.729,190.849,828.668,414.334,828.668
				c228.83,0,414.334-185.504,414.334-414.334c0-0.988-0.012-1.974-0.019-2.96C477.726,378.711,128.667,414.322,0.302,430.296z"/>
			<path style="opacity:0.14;" d="M562.944,678.944c0,9.47-2.571,33.777-51.738,44.185c-81.025,17.151-143.693,17.47-148-38.762
				c-1.982-25.881,10.056,17.15,92.876,17.375C486.722,701.825,562.944,669.474,562.944,678.944z"/>
			
				<ellipse transform="matrix(0.9938 -0.1115 0.1115 0.9938 -56.7901 55.5785)" style="opacity:0.14;" cx="468.63" cy="535.65" rx="225.835" ry="17.896"/>
			<g>
				<path style="fill:#D9D9D9;" d="M339.641,519.87c0,0-32.083,5.588-39.259-34.412c-7.176-40,0.541-134.594,47.183-180.047
					c0,0,187.231-66.953,297.936-55.453c0,0,47.997,14.03,48.352,103.265c0.354,89.235-15.196,120.237-40.896,124.235
					c-25.7,3.998-22.477-52.957-54.614-48.478c-32.136,4.478-26.136,46.59-31.636,51.034c-5.5,4.444-77.166,41.384-146.583,27.164
					c0,0-27.517-35.934-55.417-27.164C344.206,486.457,339.641,519.87,339.641,519.87z"/>
				<path d="M243.497,332.381c-6.636,8.025-10.963,16.68-14.583,25.649c3.095-4.8,6.243-9.547,9.469-14.268
					c2.518-3.698,5.035-7.92,7.815-11.985C245.254,331.437,244.153,331.568,243.497,332.381z M226.291,359.473
					c-2.648,5.14-5.296,10.28-7.946,15.421c3.356-5.586,6.845-11.146,10.412-16.628C227.812,358.109,226.843,358.45,226.291,359.473
					z"/>
				<path style="fill:#ECECEC;" d="M441.839,511.688c0.963-21.271,3.83-50.852,1.927-72.106c-0.829-9.258-2.393-17.883-1.794-27.255
					c0.637-9.953,2.548-19.675,2.539-29.684c-0.013-13.916-2.531-29.152,5.29-41.674c6.008-9.621,16.462-13.431,27.251-15.039
					c33.231-4.955,35.401,25.837,37.051,51.58c2.592,40.449-5.106,85.966-11.215,125.785l-25.488,5.194
					c-3.111,0.634-6.261,1.068-9.428,1.298L441.839,511.688z"/>
				<path style="fill:#CDE7F8;" d="M495.703,380.426c-0.224-7.132,1.714-20.145-2.863-26.23c-6.117-8.133-26.577-2.842-30.434,5.845
					c-3.71,8.356-1.532,21.192-1.754,30.089c-0.345,13.796-0.689,27.592-1.034,41.388c-0.044,1.74,1.326,2.566,2.677,2.513
					c-0.096,1.377,0.719,2.83,2.499,2.835c15.739,0.045,31.757,4.054,32.178-15.708C497.26,407.644,496.127,393.939,495.703,380.426
					z"/>
				<path style="fill:#706F6F;" d="M320.508,522.677c-0.428-3.301-64.915-6.669-65.827-3.419
					c-5.647,20.12,8.395,44.384,29.791,42.969c9.598-0.634,21.731-5.278,29.377-11.123
					C321.576,545.198,321.684,531.75,320.508,522.677z"/>
				<path style="fill:#706F6F;" d="M622.643,467.502c-7.65-11.86-26.935-15.718-38.559-7.478
					c-14.242,10.095-16.431,32.864-5.328,48.314c8.928,12.424,30.755,18.667,42.389,6.548
					C632.433,503.128,630.935,480.357,622.643,467.502z"/>
				<path style="fill:#6C6F73;" d="M159.21,539.76c-0.648-2.355-0.825-4.605-0.54-7.174c0.371-3.35-4.877-3.324-5.245,0
					c-0.247,2.232-0.178,4.185,0.158,6.144c-8.602-0.707-18.755,4.03-19.706,13.255c-1.216,11.8,12.904,13.272,21.579,13.987
					c9.002,0.742,23.434-1.643,25.302-12.659C182.713,541.776,167.49,539.654,159.21,539.76z M170.228,558.561
					c-1.365,0.509-2.73,1.019-4.095,1.528c-2.617,0.701-5.41,0.851-8.1,0.784c-3.667-0.091-10.369,0-13.404-2.06
					c-1.791-2.489-3.581-4.978-5.372-7.468c1.558-1.796,3.116-3.591,4.674-5.386c3.39-2.553,8.799-2.605,12.557-1.322
					c0.282,0.096,0.569,0.111,0.853,0.091c0.346,0.176,0.742,0.295,1.229,0.282c3.255-0.089,6.47-0.014,9.656,0.809
					c4.359,1.126,4.373,0.886,4.684,6.079C174.398,555.255,173.504,557.476,170.228,558.561z"/>
				<path style="fill:#FFEBB0;" d="M166.692,306.509c-2.672-15.039-6.957-31.587-17.919-42.881
					c-12.856-13.244-30.786-11.496-47.475-8.335c-18.282,3.463-34.376,10.676-47.488,24.086
					c-13.985,14.302-23.475,32.305-32.566,49.921c-0.064,0.124-0.079,0.244-0.104,0.364c-0.559,0.147-1.122,0.271-1.679,0.434
					c-1.616,0.474-0.928,3.006,0.697,2.529c16.732-4.909,34.323-1.874,48.485,8.29c0.356,0.255,0.966,0.238,1.324,0
					c15.356-10.203,37.173-6.531,48.114,8.425c0.528,0.721,1.365,0.848,2.059,0.265c12.056-10.116,31.686-6.21,39.175,7.528
					c0.478,0.877,1.774,0.826,2.265,0C170.74,341.717,169.722,323.561,166.692,306.509z"/>
				<path style="fill:#F5F5F5;" d="M348.271,122.946c-12.108-18.441-40.296-17.514-57.563-7.591
					c-6.916-18.893-28.353-29.67-47.928-25.861c-22.384,4.355-37.267,25.637-40.096,47.256c-0.101-0.121-0.226-0.234-0.397-0.323
					c-14.129-7.386-31.2-5.491-44.486,2.96c-12.596,8.013-21.638,21.836-17.058,37.056c4.359,14.485,18.525,23.144,33.408,21.718
					c14.387-1.379,25.827-11.605,30.144-25.016c9.784,13.306,30.638,8.121,33.289-7.992c9.679,11.325,70.696-5.953,78.141-21.723
					c8.775,4.872,19.525,7.932,28.54,1.87C352.026,140.081,353.284,130.581,348.271,122.946z"/>
				<path style="fill:#F5F5F5;" d="M636.71,101.902c0.868-12.739-12.933-17.942-23.975-18.499
					c-7.153-0.361-16.412,1.029-20.578,6.972c-3.201-17.892-22.256-28.468-40.051-25.859c-24.092,3.533-39.578,23.86-50.919,43.633
					c-13.313-8.27-32.947-5.939-37.214,11.642c-1.773,7.304,0.258,15.205,6.443,19.8c7.094,5.27,16.814,4.408,24.568,1.199
					c3.951-1.635,6.833-4.281,10.386-6.45c6.86-4.188,8.777-1.814,14.557,0.819c2.938,1.338,5.933,2.566,8.979,3.636
					c11.489,4.035,23.933,5.928,36.029,3.899c4.725-0.793,9.344-2.166,13.718-4.121c5.562-2.485,9.239-6.421,14.167-9.614
					c3.845-2.491,11.395,1.972,15.931,2.731c6.075,1.016,12.316,1.152,18.422,0.326c9.344-1.265,20.032-5.658,21.897-16.072
					C650.459,108.18,644.369,100.997,636.71,101.902z"/>
				<path style="fill:#F5F5F5;" d="M491.122,193.454c-0.025-0.751-0.653-1.562-1.628-1.395c-6.503,1.108-13.006,2.217-19.509,3.325
					c-2.046-15.258-13.471-29.596-30.29-27.426c-18.124,2.339-20.526,20.976-20.121,35.954c-16.428-3.317-33.126-4.987-49.897-4.68
					c-9.459,0.173-27.194-0.396-28.846,12.589c-1.445,11.355,14.53,13.579,22.29,14.895c13.254,2.248,26.664,2.287,39.901,0.396
					c-0.875,1.349-1.476,2.921-1.664,4.616c-0.557,5.031,2.885,9.031,7.354,10.835c11.553,4.662,23.209-4.106,26.93-14.841
					c11.4,17.53,38.514,11.645,41.921-8.953c8.401,7.871,22.63,7.55,28.146-3.954C510.851,204.093,502.281,192.866,491.122,193.454z
					"/>
				<path d="M337.334,315.911c-1.023,1.993-2.045,3.986-3.043,5.953c-0.052,3.934-3.514,8.13-7.736,7.868
					c3.907-7.317,8.156-14.477,12.693-21.48C340.087,310.902,339.641,313.892,337.334,315.911z"/>
				<path d="M246.198,331.778c-0.525,0.761-1.023,1.521-1.521,2.281c-0.105-0.787-0.105-1.599,0.027-2.386
					C245.174,331.542,245.7,331.594,246.198,331.778z"/>
				<path d="M255.612,320.606c-0.656,0.551-1.284,1.154-1.862,1.757c0.105-0.289,0.263-0.577,0.42-0.866
					c0.105-0.183,0.21-0.341,0.314-0.524C254.852,320.815,255.219,320.71,255.612,320.606z"/>
				<path style="fill:#ECECEC;" d="M339.248,308.253c-4.537,7.003-8.786,14.163-12.693,21.48c4.222,0.262,7.683-3.934,7.736-7.868
					c0.998-1.967,2.019-3.96,3.043-5.953C339.641,313.892,340.087,310.902,339.248,308.253z"/>
				<path style="fill:#706F6F;" d="M407.917,518.222c-0.28-0.514-0.593-1.014-0.852-1.534c-0.537-1.077-1.188-2.367-1.571-3.684
					c-2.41-5.647-5.884-10.683-10.33-14.339c-11.749-9.73-28.166-8.76-37.162,1.783c-0.708-0.131-1.469,0.026-2.124,0.787
					c-11.749,13.664-11.199,40.388,2.65,52.426c12.667,11.015,37.425,11.303,46.341-4.59c5.01-8.917,5.508-20.562,2.438-31
					C407.5,518.148,407.703,518.196,407.917,518.222z"/>
				<g>
					<path style="fill:#ECECEC;" d="M291.556,459.344C291.825,459.822,291.696,459.009,291.556,459.344L291.556,459.344z"/>
					<path style="fill:#ECECEC;" d="M679.576,456.117c-0.17,0.43-0.34,0.84-0.51,1.25c0.35-0.56,0.69-1.13,1.02-1.71
						c0.01-0.01,0.01-0.01,0.01-0.02c0,0-0.18,0.17-0.51,0.47C679.576,456.117,679.576,456.117,679.576,456.117z"/>
					<path style="fill:#ECECEC;" d="M680.856,269.617c-0.13-0.38-0.27-0.79-0.43-1.25c-0.01-0.03-0.02-0.07-0.04-0.1
						c-22.9-64.64-287.9,22.93-336.73,33.22c-51.52,10.86-69.17-2.22-108.45,37.66c-39.81,40.42-71.28,114.99-30.24,164.23
						c-123.49,19.22-26.45,45.2,12.02,12.57c10.15,9.52,45.53,5.3,55.6,5.79c18.91,0.91,74.98,2.72,74.98,2.72
						s3.44-25.96,21.68-31.38c27.38-8.14,38.25,23.54,38.25,23.54s65.89-7.24,96.39-11.87c9.94-1.51,63.79-11.52,62.56-10.6
						c5.09-3.79,0.56-38.11,21.93-50.88c8.18-2.59,20.12-3.76,29.33,6.19c15.5,16.75,11.5,38.75,11.5,38.75s44.36-3.62,50.88-32.55
						C707.276,409.078,693.976,308.547,680.856,269.617z M274.616,435.307c-12.34,16.26-38.58,13.58-55.81,7.74
						c-2.67-0.9-4.37-1.87-5.4-2.97c-0.74-1.51-1.14-2.94-1.27-4.32c0.21-2.09,1.11-4.61,1.97-7.78c0.85-3.16,2.04-6.27,3.07-9.37
						c2.83-8.59,5.71-17.17,8.63-25.73c2.66-7.78,5.36-15.54,8.1-23.3c0.73-2.09,1.38-4.13,2.03-6.07
						c3.79-7.28,6.78-11.94,10.33-14.88c2.07-1.04,4.59-1.77,7.71-2.15c15.02-1.8,31.65,0.23,47.02,1.07
						c-13.28,27.35-18.97,57.5-25.55,87.03C275.146,434.747,274.856,434.987,274.616,435.307z M678.266,455.072
						c-0.021-0.01-0.027-0.034-0.008-0.082c-3.77,3.44-25.672,25.117-35.302,18.468c-8.22-5.67-19.34-51.46-42.13-45.23
						c-2.75,0.11-6.05,0.45-10.04,1.06c-28.83,4.46-15.5,37.35-26.39,47.53c-18.64,17.43-92.84,38.94-132.46,32.26
						c-14.15-2.39-66.73-74.12-95.63,8.54c-59.14,0-31.99-121.77-20.26-151.74c23.63-60.35,31.5-65.79,95.36-80.09
						c52.91-11.84,187.64-51.26,238.86-29.99c52.23,21.7,48.066,148.108,31.76,192.82
						C680.953,451.561,679.171,452.979,678.266,455.072z"/>
				</g>
				<path style="fill:#ECECEC;" d="M228.914,358.03c-0.051,0.079-0.078,0.157-0.104,0.236c-0.027,0-0.027,0-0.053,0
					C228.783,358.187,228.836,358.109,228.914,358.03z"/>
				<path style="fill:#FF9900;" d="M69.967,340.918c0,0-5.76-60.451,41.573-87.873c0,0,24.535,48.547,8.601,96.563
					C120.141,349.608,100.394,332.879,69.967,340.918z"/>
				<polygon style="fill:#A6916A;" points="93.839,339.201 58.206,461.202 67.206,461.202 98.024,339.707 				"/>
			</g>
			<path style="fill:#CDE7F8;" d="M354.206,353.863c0,0-33.717,77.135-21.108,83.365s74.63,3.229,76.119-4.271
				s-2.011-80.471-17.011-82.735C377.206,347.957,354.206,353.863,354.206,353.863z"/>
			<path style="fill:#CDE7F8;" d="M579.672,327.918c0,0-19.208,83.578-6.779,82.247s76.276-7.008,75.958-16.607
				s-21.913-73.854-31.782-72.701C607.199,322.009,579.672,327.918,579.672,327.918z"/>
			<ellipse style="opacity:0.14;" cx="117.567" cy="460.579" rx="61.361" ry="3.378"/>
			<g>
				<path style="fill:#DB6657;" d="M560.213,667.277l-0.008-0.012c-0.492-1.011-1.062-2.036-1.702-3.073
					c-8.045-13.047-26.536-22.485-49.134-27.926c-7.939-1.909-16.379-3.338-25.064-4.241c-11.344-1.2-23.086-1.526-34.605-0.929
					c-8.812,0.445-17.493,1.421-25.776,2.954c-12.352,2.268-23.815,5.768-33.47,10.532c-8.51,4.205-15.623,9.408-20.692,15.631
					c-1.179,1.447-2.246,2.944-3.191,4.504l-0.01-0.002c-5.169,8.46-6.864,18.58-3.835,30.416
					c2.149,8.422,10.579,14.855,22.844,19.406l0.01,0.002c4.877,1.825,10.367,3.343,16.313,4.575
					c9.875,2.047,20.998,3.29,32.681,3.778c6.582,0.278,13.35,0.305,20.16,0.096c11.885-0.37,23.907-1.456,35.413-3.244
					c8.591-1.327,16.887-3.051,24.608-5.141c14.182-3.833,26.423-8.923,35.026-15.203
					C561.54,690.826,566.476,680.061,560.213,667.277z M506.708,685.058c-6.515,3.084-13.631,5.545-20.455,7.153
					c-5.606,1.326-11.011,2.088-15.753,2.145c-4.183,0.054-8.298,0.181-12.332,0.311c-6.914,0.222-13.607,0.462-20.095,0.342
					l-0.01-0.002c-10.095-0.167-19.663-1.186-28.693-4.394c-4.321-1.524-8.522-3.555-12.596-6.245
					c-0.01-0.002-0.01-0.002-0.01-0.002c-1.256-0.821-2.511-1.712-3.743-2.671c1.125-1.771,2.56-3.458,4.282-5.042
					c3.221-3.006,7.428-5.665,12.352-7.964c7.275-3.418,16.109-6.062,25.656-7.911c6.416-1.254,13.163-2.145,19.966-2.66
					c9.1-0.699,18.305-0.729,27.008-0.097c6.756,0.502,13.206,1.407,19.066,2.726c9.015,2.028,16.626,5.047,21.802,9.088
					c0.938,0.724,1.789,1.484,2.553,2.278c-0.575,0.609-1.179,1.214-1.823,1.811C519.407,678.119,513.367,681.907,506.708,685.058z"
					/>
				<path style="fill:#FDDCB3;" d="M401.892,719.117c-5.946-1.233-11.436-2.75-16.313-4.575l-0.01-0.002
					c-5.559-19.361,11.195-30.173,11.195-30.173s0,0,0.01,0.002c4.075,2.689,8.276,4.72,12.596,6.245
					C403.091,695.983,401.961,717.687,401.892,719.117z"/>
				<path style="fill:#FDDCB3;" d="M454.733,722.991c-6.81,0.21-13.578,0.183-20.16-0.096c-1.945-9.98,1.229-21.463,3.491-27.888
					l0.01,0.002c6.488,0.12,13.182-0.12,20.095-0.342C455.133,700.244,454.716,714.915,454.733,722.991z"/>
				<path style="fill:#FDDCB3;" d="M514.754,714.606l-24.608,5.141c0.369-8.302-2.444-21.421-3.893-27.536
					c6.824-1.608,13.939-4.069,20.455-7.153C511.247,690.347,513.844,707.51,514.754,714.606z"/>
				<path style="fill:#FDDCB3;" d="M549.78,699.403c-6.022-13.573-21.869-23.204-25.895-25.479c-0.61-0.341-0.944-0.522-0.944-0.522
					s-0.171-1.503,0.213-3.567c0.833-4.372,4.251-11.253,17.397-11.349c8.44-0.064,14.966,4.094,19.653,8.78l0.008,0.012
					C566.476,680.061,561.54,690.826,549.78,699.403z"/>
				<path style="fill:#FDDCB3;" d="M409.656,668.689c-4.925,2.299-9.131,4.958-12.352,7.964
					c-9.917-6.929-25.704-10.802-29.766-11.722c-0.254-0.055-0.469-0.103-0.625-0.141c0,0,1.087-1.9,2.849-4.575
					c5.069-6.224,12.182-11.427,20.692-15.631C397.451,648.774,406.379,663.145,409.656,668.689z"/>
				<path style="fill:#FDDCB3;" d="M455.277,658.118c-6.803,0.515-13.551,1.406-19.966,2.66
					c-1.521-6.971-8.483-21.035-11.388-26.726c8.283-1.534,16.964-2.509,25.776-2.954
					C456.998,636.863,456.031,651.894,455.277,658.118z"/>
				<path style="fill:#FDDCB3;" d="M501.352,660.747c1.191-5.943,4.311-19.995,8.017-24.479c-7.939-1.909-16.379-3.338-25.064-4.241
					l-2.019,25.995L501.352,660.747z"/>
			</g>
			<path style="opacity:0.14;" d="M393.021,681.695c0,0,15.185-21.077,59.685-27.488c34.162-4.921,52.75,0.25,71.75,16.75
				c0,0-57.974-20.263-127.552,11.75"/>
		</g>
	</g>
</g>
<g id="Layer_1">
</g>
</svg>
