<?xml version="1.0" encoding="iso-8859-1"?>
<!-- Generator: Adobe Illustrator 20.0.0, SVG Export Plug-In . SVG Version: 6.00 Build 0)  -->
<svg version="1.1" xmlns="http://www.w3.org/2000/svg" xmlns:xlink="http://www.w3.org/1999/xlink" x="0px" y="0px"
	 viewBox="0 0 828.668 828.668" style="enable-background:new 0 0 828.668 828.668;" xml:space="preserve">
<g id="Castle">
	<g>
		<g>
			<defs>
				<circle id="SVGID_1_" cx="414.334" cy="414.334" r="414.334"/>
			</defs>
			<use xlink:href="#SVGID_1_"  style="overflow:visible;fill:#87C9F0;"/>
			<clipPath id="SVGID_2_">
				<use xlink:href="#SVGID_1_"  style="overflow:visible;"/>
			</clipPath>
		</g>
		<g>
			<path style="fill:#DBC79D;" d="M828.668,414.334c0-2.246-0.024-4.486-0.06-6.723c-0.01-0.599-0.022-1.197-0.034-1.795
				c-0.037-1.852-0.086-3.701-0.148-5.547c-0.014-0.417-0.024-0.835-0.04-1.251c-0.083-2.268-0.183-4.531-0.302-6.79
				c-0.018-0.333-0.039-0.665-0.057-0.998c-0.11-2-0.235-3.996-0.373-5.988c-0.028-0.405-0.056-0.811-0.085-1.216
				c-0.336-4.634-0.746-9.248-1.233-13.839c-0.028-0.262-0.057-0.523-0.085-0.785c-0.51-4.723-1.095-9.424-1.762-14.099
				c0,0,0,0,0-0.001l-45.427-128.692l-29.42,26.021l-18.104-16.171L651.2,369.729L392.336,121.047l-103.628,90.575l-95.776-48.931
				l-54.313,73.772c0,0-30.551-23.762-33.946-24.841c-2.232-0.709-63.186,120.849-104.663,204.17c0,0,0,0,0,0
				c0.008,2.346,0.037,4.686,0.084,7.022c0.002,0.099,0.003,0.198,0.006,0.297c0.098,4.734,0.275,9.449,0.531,14.143
				c0.002,0.035,0.004,0.07,0.006,0.105c0.127,2.313,0.273,4.622,0.437,6.925c0.004,0.061,0.008,0.121,0.013,0.182
				c0.336,4.679,0.75,9.336,1.241,13.971c0.006,0.058,0.013,0.117,0.019,0.175c0.243,2.29,0.505,4.574,0.785,6.853
				c0.003,0.022,0.005,0.043,0.008,0.065c0.569,4.615,1.214,9.207,1.933,13.773c0.013,0.08,0.026,0.16,0.038,0.241
				c1.078,6.821,2.323,13.587,3.73,20.294c0.02,0.093,0.039,0.186,0.059,0.279c1.409,6.695,2.98,13.329,4.708,19.9
				c0.025,0.096,0.05,0.191,0.075,0.286c1.732,6.567,3.622,13.069,5.664,19.504c0.03,0.094,0.06,0.188,0.09,0.282
				c2.049,6.439,4.25,12.809,6.601,19.107c0.03,0.08,0.06,0.161,0.09,0.241c2.359,6.309,4.868,12.545,7.521,18.704
				c0.028,0.066,0.057,0.132,0.085,0.198c2.664,6.173,5.473,12.269,8.424,18.283c0.023,0.047,0.046,0.093,0.069,0.14
				c2.964,6.034,6.07,11.986,9.315,17.851c0.013,0.023,0.026,0.046,0.038,0.07c2.17,3.92,4.401,7.801,6.693,11.642
				c72.302,121.178,204.701,202.344,356.062,202.344c20.656,0,40.957-1.519,60.803-4.438l223.66-108.651
				c79.961-75.534,129.866-182.551,129.871-301.227C828.668,414.346,828.668,414.34,828.668,414.334z"/>
			<path style="fill:#A3897B;" d="M414.334,828.668c187.567,0,346.022-124.636,397.07-295.605
				c-15.614,0.011-31.229,0.022-46.843-0.01c-35.495-0.075-68.639,13.833-103.658,13.598c-34.12-0.229-67.472-6.122-101.771-6.099
				c-42.347,0.029-83.575,4.616-125.552,8.994c-71.61,7.47-140.096-7.531-210.102-15.181c-39.011-4.263-85.628,3.891-121.835-13.318
				c-15.532-7.382-30.894-18.076-46.802-24.1c-13.504-5.114-33.15-1.873-47.447-4.288
				C44.009,684.039,212.281,828.668,414.334,828.668z"/>
			<path style="fill:#868686;" d="M714.338,700.114c-22.731-30.942-29.585-75.402-52.783-96.932
				c-188.613-175.056-396.567-46.045-481.347,38.394c-23.153,23.06-36.013,54.568-35.166,87.235
				c0.004,0.141,0.007,0.282,0.011,0.422c72.422,61.989,166.476,99.435,269.28,99.435
				C532.367,828.668,638.872,779.312,714.338,700.114z"/>
			<path style="fill:#9F5242;" d="M284.521,574.872c0,0-103.112,33.77-135.981,157.312c35.943,30.089,77.065,54.194,121.836,70.784
				c2.833-53.863,20.644-185.477,127.4-174.677l30.53-47.51L284.521,574.872z"/>
			<path style="fill:#D9D9D9;" d="M540.932,348.15l3.939-96.499c0,0,73.851-37.418,137.363-3.939c0,0,0.492,65.481,0,66.958
				c-0.492,1.477-11.324,5.908-11.816,8.37c-0.492,2.462-12.308,264.879-8.862,280.141l-59.081,25.109l-8.862-89.113l2.954-126.039
				L540.932,348.15z"/>
			<path style="fill:#898989;" d="M274.084,582.503c-1.477,0.492-31.51,17.724-32.987,17.724s-19.201-162.035-5.908-208.533
				l74.343-15.481L274.084,582.503z"/>
			<path style="fill:#706051;" d="M282.454,384.583l-60.558,14.77c0,0,7.877-14.278,21.171-20.678
				c13.293-6.4,54.65-151.641,54.65-151.641s9.847,129.485,23.632,134.409l8.739,22.155
				C330.088,383.598,304.374,379.236,282.454,384.583z"/>
			<polygon style="fill:#9C9C9B;" points="394.708,592.842 268.669,585.457 280.977,401.815 416.863,406.738 			"/>
			<path style="fill:#C5C5C5;" d="M500.068,414.123l109.792-24.617c0,0-10.831,215.152-7.385,238.785l-82.713,32.987
				L500.068,414.123z"/>
			<path style="fill:#A3897B;" d="M423.604,407.23c1.628,0-154.936-5.416-154.936-5.416s119.146-100.437,150.163-153.118
				l53.665,38.895L423.604,407.23z"/>
			<path style="fill:#AF9285;" d="M484.806,295.962l21.663-44.311c0,0,78.774,125.547,103.391,137.855l-114.223,28.063
				L484.806,295.962z"/>
			<path style="fill:#B1B1B1;" d="M412.548,376.922c0,0-27.575,278.706-38.408,295.448c0,0,48.256,12.803,150.678-7.879
				c0,0-27.575-232.419-17.727-282.645C507.092,381.846,494.289,360.18,412.548,376.922z"/>
			<path style="fill:#7B6A58;" d="M397.776,387.755c0,0,64.014-88.634,78.786-176.284c0,0,19.697,154.618,48.257,180.223
				C524.819,391.694,480.502,364.119,397.776,387.755z"/>
			<polygon style="fill:#8C8C8C;" points="439.139,473.435 439.139,459.647 477.913,459.647 477.913,471.727 			"/>
			<path style="fill:#FEFEFE;" d="M451.819,638.138l-2.339-90.59h14.648c0,0,3.446,90.098,3.446,88.621
				S451.819,638.138,451.819,638.138z"/>
			<g>
				
					<rect x="449.358" y="613.068" transform="matrix(0.9879 -0.1553 0.1553 0.9879 -90.0798 78.8019)" style="fill:#8C8C8C;" width="20.142" height="6"/>
			</g>
			<g>
				
					<rect x="449.193" y="595.504" transform="matrix(0.982 -0.1891 0.1891 0.982 -104.9243 97.4808)" style="fill:#8C8C8C;" width="18.216" height="6"/>
			</g>
			<g>
				<path style="fill:#8C8C8C;" d="M450.762,578.984c0.456-0.276,1.173-1.33,0.85-2.623l-5.82,1.455
					c-0.234-0.937-0.057-1.901,0.501-2.718c0.669-0.981,2.062-3.022,20.568-5.416l0.77,5.95
					C460.668,576.533,452.229,578.095,450.762,578.984z"/>
			</g>
			<g>
				
					<rect x="448.206" y="557.594" transform="matrix(0.9813 -0.1927 0.1927 0.9813 -99.46 98.602)" style="fill:#8C8C8C;" width="17.894" height="6"/>
			</g>
			<polygon style="fill:#FEFEFE;" points="446.403,463.849 455.508,417.569 467.574,417.569 472.497,463.849 			"/>
			<polygon style="fill:#FEFEFE;" points="528.132,499.298 534.532,440.709 547.333,440.709 543.394,496.836 			"/>
			<polygon style="fill:#FEFEFE;" points="566.534,489.943 571.457,438.248 584.751,438.248 584.751,489.943 			"/>
			<polygon style="fill:#FEFEFE;" points="530.101,600.227 535.024,551.486 549.794,547.547 551.764,600.227 			"/>
			<rect x="570.473" y="552.963" style="fill:#FEFEFE;" width="11.324" height="43.818"/>
			<polygon style="fill:#FEFEFE;" points="628.076,278.73 630.538,256.575 640.877,256.575 640.877,282.669 			"/>
			<path style="fill:#BA9B90;" d="M535.517,256.575c0,0,4.923-23.249,40.126-45.104l5.17-44.01l47.265-85.175l17.232,83.205v36.925
				c0,0,33.479,13.293,39.88,44.311C685.188,246.728,608.875,216.203,535.517,256.575z"/>
			<polygon style="fill:#FEFEFE;" points="305.392,587.609 312.487,483.543 364.675,489.943 353.459,590.873 			"/>
			<polygon style="fill:#8C8C8C;" points="305.594,483.543 310.518,466.541 374.14,475.042 370.091,491.913 			"/>
			<polygon style="fill:#7B6A58;" points="317.41,370.573 321.349,327.964 339.867,305.316 342.766,324.025 339.867,370.573 			"/>
			<polygon style="fill:#706051;" points="342.766,303.347 345.926,303.7 382.399,307.778 375.999,334.61 339.867,370.573 
				339.867,305.316 			"/>
			<path style="fill:#FEFEFE;" d="M192.508,738.226c-1.93,8.527-3.511,16.181-4.776,23.036
				c11.464,7.503,23.323,14.451,35.538,20.811c8.019-11.263,14.049-21.243,14.049-21.243s10.763-159.865,116.139-169.958
				l-43.926-3.446C309.533,587.427,227.538,583.482,192.508,738.226z"/>
		</g>
	</g>
</g>
<g id="Layer_1">
</g>
</svg>
