<?xml version="1.0" encoding="utf-8"?>
<!-- Generator: Adobe Illustrator 19.2.1, SVG Export Plug-In . SVG Version: 6.00 Build 0)  -->
<!DOCTYPE svg PUBLIC "-//W3C//DTD SVG 1.1//EN" "http://www.w3.org/Graphics/SVG/1.1/DTD/svg11.dtd">
<svg version="1.1" id="Livello_1" xmlns="http://www.w3.org/2000/svg" xmlns:xlink="http://www.w3.org/1999/xlink" x="0px" y="0px"
	 viewBox="0 0 828.7 828.7" style="enable-background:new 0 0 828.7 828.7;" xml:space="preserve">
<style type="text/css">
	.st0{fill:#D0CC5D;}
	.st1{fill:#B88400;}
	.st2{fill:#D49F0B;}
	.st3{fill:#B55A37;}
	.st4{fill:#77881C;}
	.st5{fill:#B6BD00;}
	.st6{fill:#CFDB00;}
	.st7{fill:#BCB21F;}
	.st8{fill:#D0A877;}
	.st9{fill:#9C8461;}
	.st10{fill:#C29416;}
	.st11{fill:#CFDE00;}
	.st12{fill:#6CA439;}
	.st13{fill:#A4D55D;}
	.st14{fill:#896847;}
	.st15{fill:#7B4727;}
	.st16{fill:#D6C300;}
	.st17{fill:#A67458;}
	.st18{fill:#AF8400;}
</style>
<g>
	<g>
		
			<ellipse transform="matrix(0.9999 -1.290066e-02 1.290066e-02 0.9999 -5.3102 5.3791)" class="st0" cx="414.3" cy="414.3" rx="414.3" ry="414.3"/>
	</g>
</g>
<g>
	<path class="st1" d="M52.1,383.8v42.1l-14.2-16.6l-22.8-26.7l-3.5-4.2l-9-10.6l0,0C4,355,6,342.3,8.6,329.9l0,0
		c0.1-0.7,0.3-1.4,0.4-2.1l0.6,0.8l17,22.1l4.4,5.8l8.9,11.6l0,0L52.1,383.8z"/>
	<polygon class="st2" points="274.9,284.8 52.1,383.8 52.1,425.9 274.9,344.2 	"/>
	<path class="st3" d="M24.7,273.1c1.9-5.3,4-10.6,6.1-15.9l1.5-3.5c2.2-5.3,4.5-10.5,7-15.6l0,0c0.1-0.6,2.3-9.7,4.8-9.8
		c0.5-1,1-2,1.5-3c13.4-26,29.4-50.5,47.8-73c3.7-4.5,7.5-9,11.4-13.3l6.1,5.6l1.3,1.2l29.7,27.4l12.1,11.1l18.1,16.7l22.1,20.4
		l2.9,2.7l31.6,29.1l0,0l33.3,30.7l4.8,4.4l-4.2,1.9l0,0l-30.4,13.5l-13.9,6.2L186.6,324l-7.9,3.5l-0.9,0.4l-14.1,6.3L137,346.1l0,0
		l-8.6,3.9l0,0l0,0l-1.8,0.8l-29,12.9l0,0L83.2,370l-26.9,12l-3.1,1.4l-1.1,0.5l-12-15.6l0,0l-8.9-11.6l-4.4-5.8l-17-22.1l-0.8-1
		c1.5-6.9,3.1-13.8,4.9-20.5c1.2-4.7,2.6-9.3,4-13.9l0,0c1.6-5.2,3.3-10.3,5-15.4L24.7,273.1z"/>
	<path class="st4" d="M57.6,252.8c-4.7,17.7,4,36.4,15.5,50.6c2.7,3.3,5.5,6.5,8.9,9c8.3,6.1,19.1,7.5,29.4,8.7
		c1.1,0.1,2.4,0.2,3.3-0.4c1.1-0.7,1.4-2.2,1.6-3.5c1.8-11.9,3.5-24.8-2.2-35.4c-4.6-8.6-13.3-14.1-22-18.4
		c-9.4-4.6-19.4-8.2-29.6-10.7c-2.1-0.5-4.4-1-6.5-0.2s-3.6,3.3-2.6,5.2L57.6,252.8z"/>
	<path class="st5" d="M74.1,204.5c-1.8-4.5-0.6-9.7,1-14.2c10.6-29.6,37.3-51.7,67.2-61.6c0.4-0.1,0.9-0.3,1.3-0.1
		c0.5,0.2,0.8,0.7,1,1.2c8.2,20.1,1.1,44.7-14.7,59.6S91,210.2,69.4,207.9L74.1,204.5z"/>
	<path class="st6" d="M128.8,302.5c-5.2-21.7-4.9-45.3,4.4-65.5s28.8-36.4,51-38.6c2.2-0.2,4.7-0.2,6.3,1.3c1.4,1.3,1.7,3.4,2,5.3
		c1.3,10.1,2.6,20.3,1,30.4c-2.1,13-8.9,24.7-15.8,36c-5.8,9.5-11.8,19.2-20.5,26.2s-20.6,10.9-31.2,7.3L128.8,302.5z"/>
	<path class="st7" d="M24.1,309.3L24.1,309.3c-0.1,0.3-0.1,0.6-0.2,0.8c-3.4-0.8-6.8-1.7-10-2.9c1.2-4.7,2.6-9.3,4-13.9l0,0
		c1.6-5.2,3.3-10.3,5-15.4C25.5,288.3,26.2,299,24.1,309.3z"/>
	<path class="st7" d="M31.1,311.6l-5.6,0.3l-2,0.1c0.2-0.6,0.3-1.2,0.4-1.8c0.2,0,0.5,0.1,0.7,0.2C26.8,310.8,29,311.2,31.1,311.6z"
		/>
	<path class="st5" d="M194.1,335.3c-22.2-7.9-39.9-27.3-45.6-50.1c14.1-3.5,29.3-4.8,43.1-0.2s25.9,16.2,28.1,30.6
		c0.4,2.9,0.4,6.1-1.1,8.6c-1.4,2.2-3.7,3.6-6.1,4.6c-7.9,3.4-17.1,3.9-25.3,1.2L194.1,335.3z"/>
	<path class="st7" d="M69.5,327c-12.2,12.9-15,31.9-16.1,49.6c-0.5,7.8-0.6,16.3,3.9,22.7c0.9,1.4,2.2,2.7,3.9,2.8
		c1,0.1,1.9-0.2,2.9-0.6c10.6-4.4,16.9-15.7,18.6-27c2.8-18.5-5.3-38.2-20.2-49.3L69.5,327z"/>
	<path class="st7" d="M94.1,309.7c1.4-3.7,5.2-5.9,8.8-7.4c9.9-4,20.8-4.9,31.5-5.3c16.1-0.5,34.1,0.9,45,12.8
		c3.7,4,6.1,10.9,2.1,14.6c-1.2,1.2-2.8,1.8-4.3,2.4c-30.9,11.4-67.4,5.8-93.5-14.3L94.1,309.7z"/>
	<path class="st7" d="M172.7,288.6c0.1-16.4,7.7-31.7,15-46.4c11.8-23.4,24.2-47.6,45.2-63.3c13.1,17.1,13,41.8,3.7,61.2
		s-26.2,34.2-44.7,45.3c-5.3,3.2-11,6.2-17.1,7.2L172.7,288.6z"/>
	<path class="st5" d="M212.8,293.6c-1.8-4.5-0.6-9.7,1-14.2c10.6-29.6,37.3-51.7,67.2-61.6c0.4-0.1,0.9-0.3,1.3-0.1
		c0.5,0.2,0.8,0.7,1,1.2c8.2,20.1,1.1,44.7-14.7,59.6s-38.9,20.8-60.5,18.5L212.8,293.6z"/>
	<path class="st6" d="M38.7,338.2c-0.2,1-0.4,2.1-0.7,3.1c-0.6,2.6-1.6,5-2.7,7.5c-0.9,1.9-1.9,3.8-3,5.7l0,0
		c-0.4,0.7-0.8,1.4-1.2,2.1c-0.6,1-1.2,2-1.8,3c-3.4,5.7-7,11.4-12.2,15.5c-0.2,0.2-0.5,0.4-0.8,0.6c-1.5,1.1-3.1,2-4.7,2.7
		c-3.3,1.5-6.8,2.2-10.2,1.7c0.3-4.1,0.7-8.2,1.2-12.3l0,0C4,355,6,342.3,8.6,329.9l0,0c0.3-0.4,0.7-0.9,1.1-1.3
		c5.1-5.7,11.7-10,19-11.8c1.5-0.4,2.9-0.6,4.4-0.8c1.3-0.1,2.8-0.1,3.8,0.8c0.8,0.8,1,2,1.2,3.2c0.4,3.1,0.8,6.3,1,9.5
		C39.2,332.5,39.1,335.3,38.7,338.2z"/>
	<path class="st7" d="M217.9,401.1c-9.3-1.7-11.3-4-18.7-9.8c-4.6-3.6-8-8.4-11.4-13.2c-12-17-24.4-35-26.5-55.7
		c13.2-2.4,27.8-0.2,37.7,8.9c4.3,4,7.5,9.1,10.2,14.3C218,362.6,222.5,382.5,217.9,401.1L217.9,401.1z"/>
	<path class="st5" d="M273.9,342.7c-22.2-7.9-39.9-27.3-45.6-50.1c14.1-3.5,29.3-4.8,43.1-0.2s25.9,16.2,28.1,30.6
		c0.4,2.9,0.4,6.1-1.1,8.6c-1.4,2.2-3.7,3.6-6.1,4.6c-7.9,3.4-17.1,3.9-25.3,1.2L273.9,342.7z"/>
	<path class="st7" d="M129.7,346.9c-12.2,12.9-15,31.9-16.1,49.6c-0.5,7.8-0.6,16.3,3.9,22.7c0.9,1.4,2.2,2.7,3.9,2.8
		c1,0.1,1.9-0.2,2.9-0.6c10.6-4.4,16.9-15.7,18.6-27c2.8-18.5-5.3-38.2-20.2-49.3L129.7,346.9z"/>
	<path class="st7" d="M38.8,341.1c1.4-3.7,5.2-5.9,8.8-7.4c9.9-4,20.8-4.9,31.5-5.3c16.1-0.5,34.1,0.9,45,12.8
		c3.7,4,6.1,10.9,2.1,14.6c-1.2,1.2-2.8,1.8-4.3,2.4C91.1,369.6,54.5,364,28.5,344L38.8,341.1z"/>
	<path class="st7" d="M128.2,256.7c-9.2-13.6-11.7-30.5-13.9-46.7c-3.6-25.9-7-52.9,1.3-77.7c20.5,6.7,34.4,27.1,37.8,48.3
		s-2.2,43-11.1,62.6c-2.6,5.7-5.5,11.4-10,15.6L128.2,256.7z"/>
	<path class="st4" d="M23,277.9c-1.8,5.1-3.5,10.2-5,15.4l0,0c1.3,5.5,3.4,10.9,6.2,16l0,0c0.2,0.3,0.4,0.7,0.5,1
		c0.3,0.5,0.6,1,0.9,1.6c1,1.7,2,3.4,3.1,5c1.5,2.3,3.2,4.5,4.9,6.5c1.8,2.2,3.6,4.3,5.6,6.2c1,1,2.2,2,3.3,2.8s2.2,1.5,3.3,2.1
		c4.7,2.6,9.9,4.1,15.3,5.1c3.6,0.6,7.2,1.1,10.7,1.5c1.1,0.1,2.4,0.2,3.3-0.4c0.3-0.2,0.5-0.4,0.7-0.6c0.6-0.8,0.8-1.9,0.9-2.9
		c0.4-2.9,0.9-5.8,1.2-8.8c0.8-7,0.9-14.1-1-20.6c-0.6-2.1-1.4-4.1-2.4-6c-2.4-4.6-6.1-8.3-10.2-11.4c-3.6-2.7-7.7-5-11.8-7
		c-8.9-4.3-18.2-7.8-27.8-10.3L23,277.9z"/>
	<path class="st5" d="M107.7,177.4c-2,11-7.3,21.6-15.1,29.8c-0.7,0.8-1.4,1.5-2.2,2.2c-6.1,5.8-13.3,10.2-21.1,13.3
		s-16.2,5-24.7,5.5c-0.2,0-0.3,0-0.5,0c0.5-1,1-2,1.5-3c13.4-26,29.4-50.5,47.8-73c3.1-1.3,6.3-2.5,9.5-3.6c0.4-0.1,0.9-0.3,1.3-0.1
		c0.3,0.1,0.5,0.4,0.7,0.6c0.1,0.2,0.2,0.4,0.3,0.6C108.7,158.5,109.3,168.2,107.7,177.4z"/>
	<path class="st6" d="M69,277.1c-5.2-21.7-4.9-45.3,4.4-65.5s28.8-36.4,51-38.6c2.2-0.2,4.7-0.2,6.3,1.3c1.4,1.3,1.7,3.4,2,5.3
		c1.3,10.1,2.6,20.3,1,30.4c-2.1,13-8.9,24.7-15.8,36c-5.8,9.5-11.8,19.2-20.5,26.2s-20.6,10.9-31.2,7.3L69,277.1z"/>
	<path class="st5" d="M154.5,355.4c-22.2-7.9-39.9-27.3-45.7-50.1c14.1-3.5,29.3-4.8,43.1-0.2c13.8,4.7,25.9,16.2,28.1,30.6
		c0.4,2.9,0.4,6.1-1.1,8.6c-1.4,2.2-3.7,3.6-6.1,4.6c-7.9,3.4-17.1,3.9-25.3,1.2L154.5,355.4z"/>
	<path class="st5" d="M32.2,253.8c2.2-5.3,4.5-10.5,7-15.6c0.2,0.8,0.3,1.7,0.4,2.5l0,0c0.7,5.7,0,11.6-2.4,16.8l-1.2,0.1
		c-1.7,0-3.5-0.1-5.2-0.2L32.2,253.8z"/>
	<path class="st7" d="M29.9,347c-12.2,12.9-15,31.9-16.1,49.6c-0.5,7.8-0.6,16.3,3.9,22.7c0.9,1.4,2.2,2.7,3.9,2.8
		c1,0.1,1.9-0.2,2.9-0.6c10.6-4.4,16.9-15.7,18.6-27c2.8-18.5-5.3-38.2-20.2-49.3L29.9,347z"/>
</g>
<g>
	<path class="st8" d="M467,825.2c-9.5,1.2-19.1,2.1-28.8,2.7c-6.1,0.3-12.3,0.6-18.5,0.6c-0.3,0-0.6,0-0.9,0l-78.9-80.7L144.6,548.4
		l-10.2-51.9l42.6,42.1l32.2,31.8l7.8,7.7l95.6,94.5l15,14.8l85.9,84.9l22.5,22.2L467,825.2z"/>
	<path class="st9" d="M709,705.5c-15.1,15.3-31.5,29.5-48.9,42.3c-0.9,0.7-1.8,1.3-2.7,2c-18.4,13.4-38,25.3-58.6,35.5
		c-12.2,6.1-24.7,11.6-37.6,16.4c-29.8,11.3-61.3,19.3-94,23.5l-31-30.9L413.9,772l-85.4-85L313,671.6l-95.6-95.2l-6.4-6.3
		l-33.4-33.3l-40.5-40.3l39.6-12.2l0,0l94.6-29.2l0,0l28.8-8.9l41.6-12.9l28.7,21.3l45.6,33.8l43.2,32L578,608.5l36.5,27L709,705.5z
		"/>
	<path class="st9" d="M719.2,713.1l-0.9,1.1c0.1-0.6,0.1-1.1,0.1-1.7L719.2,713.1z"/>
	<path class="st7" d="M184.3,557.4c-5.9-3.8-9-11.5-7.4-18.4s7.7-12.4,14.7-13.3c-10.2,1.2-21.1-5.4-23.5-15.3
		c-2.4-9.9,5.5-21.5,15.7-21.6c-7-4.3-14.2-8.7-18.9-15.5c-4.6-6.8-5.9-16.6-0.7-22.9s17.5-5.7,20.1,2.1c-2.6-9.2-3.3-19.4,0.6-28.2
		s13.3-15.5,22.8-14s16.5,13.2,11.7,21.5c6.6-4.3,14.2-7.6,22.1-7.6c7.9,0,16.1,4.1,19.4,11.3c3.3,7.2-0.2,17.2-7.8,19.4
		c11.1-0.7,23.3-1.1,32.4,5.4s11.2,22.9,1.2,27.9c11.6-3.3,25.1,4,28.8,15.4c3.7,11.5-3.2,25.3-14.5,29.3c-1.7-2.1-3.5-4.2-5.2-6.2
		c-3.2,11.8-12.9,21.6-24.6,25s-25.1,0.4-34.2-7.8c-2.8,16.5-20.2,29.1-36.7,26.5c-8.8-1.3-17.8-8.4-16.8-17.2L184.3,557.4z"/>
	<path class="st10" d="M313.4,480c-12.3-4.4-18.7-20.7-12.7-32.3c-3.5-7.8-0.5-18,6.8-22.5s17.7-2.9,23.2,3.6
		c3.9-9.5,9.9-18.8,19-23.6c9.1-4.8,21.8-3.9,28.1,4.2c3.3,4.1,4.5,9.5,4.7,14.8c0.3,10.3-3.6,20.7-10.5,28.3
		c10.5-6.3,22.8-9.3,35-8.7c4.8,0.2,9.7,1.1,13.5,4c8.2,6.1,8.1,18.7,3.8,27.8s-11.9,16.4-17.2,25.1c9.5-7.8,25.1-1,30.4,10.1
		c5.4,11.1,3.6,24.1,1.7,36.3c-0.7,4.5-1.6,9.5-5.3,12.2c-2.8,2.1-6.5,2.5-10,2.7c-12.6,0.9-27.7,0.7-34.7-9.8
		c-8.8,8.6-19.4,15.4-31,19.6c-7.2,2.6-15.2,4.3-22.6,2.1s-13.8-9.2-13-16.9c-7.9,6.1-20.9,4.2-26.7-4s-3.3-21,5.2-26.4
		c-7.3-3.4-15.5-7.8-17.3-15.6c-1.4-6.2,1.9-12.6,6.7-16.7s10.8-6.4,16.7-8.6c-4.7-5.4,1.7-15.5,8.6-13.6L313.4,480z"/>
	<path class="st11" d="M384,660.8c-7.7,3.9-16.6,4.5-25.2,5.1c-3.5,0.2-7.3,0.4-10.7-0.5c0-0.4-0.1-0.8-0.2-1.2
		c-0.7-2.2-4-3.4-5.2-1.5c1.6,1.4,3.4,2.2,5.4,2.7c0.1,1.7-0.8,3.5-1.7,5.1c-7.8,13-23.1,22.4-38,19.4s-25.7-21.3-18.1-34.5
		c-9.4,1.4-19.3-0.2-27.7-4.7c-3-1.6-6.2-4-6.6-7.4c-0.3-2.9,2.8-5.9,5.3-5.2l1.2,0.7c-0.4-0.3-0.8-0.5-1.2-0.7l-3.2-1.8
		c-17.2-9-34.4-21.4-40.4-39.9s3.8-42.6,30.3-42.9c-10.1,0.1-22-13.5-18.4-22.9c3.6-9.5,13.4-15.1,23-18.3
		c10.4-3.4,22.1-4.8,32.3-0.6s18,15.1,16,25.9c7.3-9.4,17.8-16.7,29.6-18.3c11.8-1.6,24.7,3.3,31,13.4c6.3,10.1,4.3,25.1-5.5,31.9
		c5.6-3.9,13.6-2.8,19.1,1.3s8.7,10.5,10.5,17.1c4.3,15.4,1.7,32.7-7.1,46.1c7.4-4.4,17.8,2.6,18.7,11.2
		C398.1,648.9,391.7,656.9,384,660.8z"/>
	<path class="st11" d="M261.3,638c0.4,0.1,0.8,0.3,1.2,0.7L261.3,638z"/>
	<path class="st11" d="M348.1,665.4c-2-0.5-3.8-1.3-5.4-2.7c1.2-1.9,4.5-0.7,5.2,1.5C348,664.6,348.1,665,348.1,665.4z"/>
	<path class="st12" d="M434.5,605.3c-8.9-12.9-18-26.4-20.3-41.9s4.4-33.5,19.1-39c7.7-2.8,17.8-1,21.6,6.3
		c3.2-14.4,17.2-26.4,31.9-24.9s26.4,18.4,20.7,32c1.9-10.4,13.2-17.8,23.7-16.3s19.1,10.7,20.9,21.2s-2.7,21.5-10.5,28.6
		c11.3-9.4,30,0.1,35,14s0.7,29.1-3.6,43.2c9.8-3.4,21.6,0.4,27.6,8.8s5.8,20.8-0.6,28.9c-2.6-8.3-1-17.8,4-24.9
		c1.3-1.8,2.9-3.5,5-4c2-0.5,4.1,0.2,5.9,1.1c12.4,6.4,14.1,25,6.2,36.5c-7.9,11.5-22.2,16.8-36,18.7c-12.6,1.7-26.6,0.7-36.4-7.5
		c1,8.9-4,17.7-11.1,23.2s-16,8-24.8,9.6c-13.2,2.3-27.9,2.1-38.7-5.9c-10.8-8-14.5-26.1-4.2-34.8c-9,6.8-19.6,11.6-30.6,13.9
		c-9.1,1.9-18.9,2-27.4-1.7c-8.6-3.6-15.6-11.6-16.5-20.9c-0.9-9.8,5.3-19.1,13.4-24.5s18-7.6,27.7-9.1c-8.8-3.8-15.2-12.8-16-22.4
		c-0.4-5.3,1-11,5.1-14.4c4-3.4,11-3.5,14.1,0.7L434.5,605.3z"/>
	<path class="st7" d="M335.4,718.3c-16.7-5.4-27.7-24.5-24-41.7c3.8-17.2,21.8-30,39.2-27.9c-7-12.7-8.8-28.6-3-41.9
		c5.9-13.3,20-23,34.4-22c14.5,1,27.6,14.1,27.1,28.6c3.9-13.8,18.6-23.3,33-22.5s27.4,11,32.9,24.3c5.6,13.3,4,29-2.7,41.7
		c15.8-0.9,31.2,11.6,33.5,27.2s-8.8,32.1-24.2,35.8c13.1,3.8,19.8,20.3,15.2,33.1c-4.6,12.8-18,21.1-31.6,22.4
		c-4.7,0.4-9.4,0.1-14.1-0.1c-6.4,18.5-27.9,30.3-47,25.8c-19-4.5-32.9-24.8-30.3-44.2c-16.8,2.9-34.8-7.5-40.7-23.5
		c-1.2-3.2-1.9-6.9-0.2-9.9s6.6-4,8.4-1.2L335.4,718.3z"/>
	<path class="st6" d="M715.7,698.5c-2.2,2.4-4.5,4.7-6.8,7c-15.1,15.3-31.5,29.5-48.9,42.3c-0.9-0.6-1.8-1.3-2.6-2.1
		c0,1.4,0,2.7-0.1,4.1c-18.4,13.4-38,25.3-58.6,35.5c-12.2,6.1-24.7,11.6-37.6,16.4c-0.6-0.4-1.2-0.7-1.9-1.2
		c-9.7-6.5-15.5-19.5-10.8-30.2c-3.5,4.6-11.5,4.4-14.9-0.3c-3.2-4.5-1.1-11.6,3.9-13.9c-13.6-1.3-27.1-6.4-37.5-15l0,0
		c-0.4-0.3-0.8-0.7-1.1-1c-0.4-0.3-0.7-0.7-1.1-1c-2.2-2-4.3-4.3-6.1-6.7c-2.7-3.4-4.9-7.2-6.6-11.2c-0.3-0.7-0.6-1.4-0.8-2.1
		c-0.2-0.4-0.3-0.8-0.4-1.2c-0.3-0.9-0.6-1.8-0.8-2.6c-3.2-11.2-2.6-23.5,3-33.7c2.9-5.4,7.2-10,12.3-13.4c9.9-6.7,22.8-9,33.8-4.3
		c7-13,17.7-23.8,30-31.9c3.7-2.4,7.7-4.6,11.8-6.2c5.7-2.2,11.7-3.3,17.7-2.3c7.6,1.2,14.6,7,17,14c0.9,2.5,1.1,5.2,0.5,8
		c0.9-2.8,2.3-5.4,4-7.8c0.5-0.7,1-1.4,1.6-2.1c7.9-9.6,21.1-15,33.5-12.5c-8.5-6.2-14.3-16.1-15.4-26.6c-0.2-1.7-0.2-3.6,0.5-5.2
		c0.9-1.9,2.8-3,4.7-3.8c10.1-4.3,22.3-2.2,31.3,4.1s15.2,16.1,18.5,26.6c2.7,8.4,2.2,19.5-3.2,25.4c8.9-2.9,20.1,1,24.2,9.6
		c5.1,11-3.2,25.9-15.2,27.3C703.7,681.3,711.8,689,715.7,698.5z"/>
	<path class="st13" d="M561.3,801.8c-29.8,11.3-61.3,19.3-94,23.5H467c-9.5,1.2-19.1,2.1-28.8,2.7c-0.2-1.1-0.3-2.2-0.4-3.3l2.1,0.1
		c-9.8-5.4-20-11-26.5-20.1c-0.6-0.8-1.1-1.7-1.6-2.5c-5.1-8.9-6-20.8,0.6-28.5c0.3-0.4,0.7-0.8,1.1-1.2c0.1-0.1,0.2-0.2,0.4-0.3
		c6.3-5.8,15.8-7.2,24.5-8c-1.9-12.3,0.3-25.6,7.6-35.7c6.6-9.1,17.9-15.2,29.1-14.6l0,0c1.2,0,2.3,0.2,3.5,0.4
		c1.5,0.3,2.9,0.7,4.3,1.2c1.7,0.6,3.3,1.4,4.9,2.3c0.9,0.6,1.9,1.2,2.7,1.9l0,0c6.4,5,10.7,12.6,10.3,20.7
		c15.1-13.6,39.2-16,56.7-5.8c17.5,10.3,27.2,32.5,22.7,52.3c5.6-3.9,12.5-3.9,18.6-1.4C586.7,791.4,574.1,796.9,561.3,801.8z"/>
</g>
<g>
	<path class="st14" d="M828.6,415.9c-0.1,38-5.4,74.8-15.1,109.7L764,490.4l0,0l-23-16.2l-4-2.8l0,0L652.2,411l0,0l-5.7-4.1l-11-7.8
		l-0.6-0.4L600.2,374l-28.4-20.2L549.5,338l-3-2.2c0,0,0.9-0.5,2.7-1.4c4.7-2.4,15.2-7.8,29.5-15.1c16.9-8.7,38.9-20,62.4-32
		c1.1-0.6,2.2-1.2,3.3-1.7c0.1-0.1,0.3-0.1,0.4-0.2c1.9-1,3.8-2,5.7-2.9c2.1-1.1,4.1-2.1,6.2-3.2c1.7-0.9,3.3-1.7,5-2.6l0,0
		c17.4-8.9,35-18,51.3-26.4c24-12.4,45.3-23.4,59.5-30.9c2.1-1.1,4.1-2.1,5.9-3.1c5.7,10.5,11,21.3,15.8,32.3l0,0
		c0.1,0.1,0.1,0.1,0.2,0.2c2.9,3.4,4.7,8,5.1,12.5c4.4,11,8.3,22.2,11.7,33.6c8.5,28.3,14.1,58,16.3,88.6c0.6,8.4,1,16.9,1.1,25.5
		C828.6,411.3,828.6,413.6,828.6,415.9z"/>
	<path class="st12" d="M601.2,342.2c-10.1,6.2-21.2,12.6-33.1,11.5s-22.9-14.1-17.5-24.7c-11,1.2-22.8-1.2-31.3-8.3
		s-13.3-19.1-10-29.7c3.2-10.6,15.3-18.2,25.9-15.1c-2.8-8.8,7.7-18.4,16.2-15c-11.5-7.3-14.9-25.2-6.2-35.8s27.6-10.3,35.4,0.9
		c-3.6-8.5,1.1-19.2,9.5-23s19.1-0.7,24.7,6.5c5.7,7.2,6.3,17.8,2.2,26.1c11.6,0.6,22.5,8.1,27.3,18.7c4.8,10.6,3.1,23.8-4.1,32.8
		c12.2,2.9,20.6,16.8,17.4,29s-17.2,20.3-29.3,17c-0.5,6.3-5,12.2-11,14.3c-6,2.1-13.2,0.4-17.5-4.2L601.2,342.2z"/>
	<path class="st15" d="M813.1,527c-3.6,12.9-7.9,25.5-12.7,37.8c-4.8,12.2-10.1,24.1-16,35.7L541.5,404.2c0-4,5-68.4,5-68.4l3,2.2
		l22,15.8l0,0l28.6,20.5l34.5,24.8l0,0l1.3,0.9l0,0l10.3,7.4l4.6,3.3l86.8,62.3l0,0l2.4,1.7l21.8,15.6l0.1,0.1l0,0L813.1,527z"/>
	<path class="st13" d="M595.2,227c-3.7-6.5-6.7-13.7-6.2-21.1s5.6-14.9,12.9-16.3c-1.2-5.2,2.1-11.1,7.2-12.8
		c5.1-1.7,11.3,1.1,13.4,6.1c-1.6-11.3,7-22.8,18-25.8s23.4,1.7,30.8,10.4c6.2,7.3,8.5,19.5,1.2,25.7c8.6-1.3,17.7-1.2,25.8,2.1
		s14.9,10.4,16.4,19c1.4,8.6-3.8,18.3-12.3,20.4c7.5,6.8,13.5,16.9,11.2,26.8c-2.7,11.8-15.5,18-27.2,21.2c-9.1,2.5-18.5,4-28,4.7
		c-9,0.6-20.8-1.7-22.1-10.7c-10.3,8.5-26.9,9.4-36.6,0.2s-8.8-27.7,2.8-34.3c-3.2-3.1-6.6-6.6-7.2-11s3.3-9.6,7.6-8.4L595.2,227z"
		/>
	<path class="st6" d="M801.2,298.7c-0.2,0.5-0.4,1-0.7,1.5c-2.2,4.5-5.8,8-10,10.5c-3.7,2.2-8,3.7-12.3,4.3
		c-3.7,0.5-7.4,0.6-10.9,1.7c-0.4,0.1-0.8,0.3-1.1,0.4c-3.2,1.3-6,3.4-9,5.1c-10.7,6.5-24.1,9.3-35.9,5.3s-21.3-15.8-20.5-28.2
		c-2.8,3.4-6.3,6.2-10.2,8.3c-7.6,4-16.7,5.4-25.2,3.6c-2.5-0.5-4.9-1.3-7.2-2.3c-1.2-0.5-2.4-1.1-3.5-1.8
		c-6.6-4-12.2-11.3-10.9-18.8c0-0.1,0-0.1,0-0.2c0.2-0.8,0.4-1.6,0.8-2.4c0-0.1,0.1-0.2,0.2-0.3c1.1-2,2.8-3.6,4.8-4.7
		c-3.1-7.2-1.5-15.9,2.7-22.7c0.5-0.8,1-1.5,1.6-2.3c6-7.8,15.2-12.4,24.4-15.7c-11-7.1-7.9-27.3,4.7-30.9
		c-6.2-2.8-9.8-9.2-10.5-15.9c-0.5-5.2,0.6-10.5,3.7-14.7c0.1-0.1,0.2-0.3,0.3-0.4c7.2-9.2,21.4-11.6,32.1-6.5
		c10.8,5.2,17.6,16.8,19.1,28.7c7.8-11.7,27-12,36.8-2c5.4,5.5,8,13.2,7.9,21.1c0,6.3-1.8,12.7-5,18c9.9,0.8,20.1,3.8,26.7,11.2l0,0
		c0.1,0.1,0.1,0.1,0.2,0.2c2.9,3.4,4.7,8,5.1,12.5c0.5,5.5-1.1,10.9-5.3,14.4C801.7,280,804.3,290.5,801.2,298.7z"/>
	<path class="st16" d="M666,305.9c-2.4-13.1,5.9-27.3,18.4-31.9s27.9,1.2,34.5,12.8c8.4-7.3,21.2-9.3,31.2-4.3s16,17,13.7,27.8
		c10-1.3,20.6-2.5,29.8,1.6s15.9,15.5,11.3,24.5c-3.6,6.8-12.1,9.5-19.8,9.3c2.5,11.1,2.6,22.9-1.5,33.5s-13,19.6-24.1,22
		c-8.1,1.8-19.1-3.2-17.7-11.3c-2.4,11.9-15.2,20.6-27.1,18.5s-20.9-14.7-19.1-26.7c-11,4.7-24.2,6.1-34.9,0.7
		c-10.7-5.5-17.5-19.1-12.8-30.1c4.8-11.2,18.1-15.4,29.8-18.4c-5.3-4.3-10.9-9.1-12.6-15.8c-1.7-6.6,2.9-15.2,9.8-14.6L666,305.9z"
		/>
	<path class="st5" d="M605.2,394.5c-9.1-8.2-7.3-25.2,3.2-31.4c-12.6,0.3-24.9-7.7-29.8-19.2c-4.9-11.6-2.1-26,6.8-34.8
		c-12.8-7.6-18.3-26.4-9.8-38.7s30-12.7,37.6,0.1c-1-12.6,12.4-23.5,24.8-21.4c12.4,2.1,21.3,15.3,20.3,27.8
		c12.9-1.6,27,5.6,31.5,17.8s-2.9,27.9-15.6,30.7c10.9,3.3,21.1,11.7,22.8,23s-8.6,23.8-19.7,21.3c7.5,11.9,5,29.5-6.5,37.6
		s-30,3.9-35.7-9c-5.4,10.2-22.1,11.6-29.1,2.3c-1.2-1.6-2.2-3.7-1.7-5.7s3.2-3.3,4.8-2L605.2,394.5z"/>
	<path class="st10" d="M663.5,439.7c-10.7-2.1-19.2-12.3-19.2-23.2s8.4-21.2,19.1-23.3c2.3-13.9,14.7-25.4,28.6-26.9
		c14-1.4,28.4,7.4,33.5,20.5c4.8-9.4,15.3-16.7,25.7-14.6s17.1,16.2,10.2,24.3c9.9,1.4,17.5,11.9,15.7,21.8
		c-1.8,9.8-12.7,17-22.4,14.8c2.9,11,0.9,23.3-5.3,32.8c-2.7,4.2-6.5,8.1-11.4,9.5c-4.8,1.4-10.8-0.4-13-5
		c-8.9,7.2-21.4,9.9-32.5,6.9c-4.9-1.3-9.7-3.8-12.5-8s-3.1-10.3,0.3-14.1c-4.4,3.6-11.5,4.2-15.4,0.1c-3.8-4.1-1.1-12.7,4.6-12.5
		L663.5,439.7z"/>
	<path class="st5" d="M828.6,415.9c-7.6,0.7-15.2,0.8-22.7,0.5c-3.2-0.2-6.8-0.5-9-2.9c-1.9-2-2.5-5.3-5.1-6.4c-2-0.8-4.2,0-6.3,0.8
		c-2.9,1-5.9,1.7-9,2c-5.5,0.5-11.1-0.2-16.1-2.3c-1.2-0.5-2.3-1.1-3.5-1.7c-2.2-1.3-4.3-3-6-5l0,0c-5-5.4-7.7-12.8-6.7-19.9
		c0.5-3.2,1.8-6.4,3.6-9.1c3.8-5.4,9.9-9.2,16.6-9c-7.4-4.5-11.3-14-9.1-22.3c2-7.7,9-13.8,16.8-14.9l-4.5,0.4
		c-0.8-2.8-1.3-5.9-1.4-8.9c-0.1-2.4,0.1-4.9,0.6-7.2c0.8-3.9,2.5-7.5,5.3-10.4c6.5-6.7,20-6.3,23.8,2.2c1.7-1.1,3.4-2.1,5.3-3
		c3.2-1.6,6.5-2.9,10-3.8c8.5,28.3,14.1,58,16.3,88.6c0.6,8.4,1,16.9,1.1,25.5C828.6,411.3,828.6,413.6,828.6,415.9z"/>
	<path class="st7" d="M813.1,527c-3.6,12.9-7.9,25.5-12.7,37.8c-7.5-0.4-14.8-3.3-19.9-8.8c-9.8-10.5-9.1-29.2,2-38.2
		c-9.3,6.3-23.8,5.8-30.4-3.4c-6.2-8.6-0.2-23.3,9.8-24.1l0,0c0.4,0,0.8,0,1.2,0l-1.4-0.1l-8.1-0.5c-6.7-2.8-11.9-8.1-15-14.6
		c-0.3-0.7-0.7-1.5-1-2.2l0,0c-0.2-0.5-0.4-1.1-0.6-1.7l0,0c-3.5-9.9-2.5-21.5,4-29.7c-4.4-7.3-5.7-17.3-0.7-24.2
		c5-6.9,17.5-7.7,21.5-0.2c-0.6-3.1-1.2-6.4-1.5-9.7c-0.2-2.2-0.4-4.3-0.3-6.5c0.1-5.5,1.1-10.7,4-14.9c0.8-1.2,1.8-2.3,2.9-3.4
		c4.5-4.1,10.9-5.3,16.8-4c3.6,0.8,7.1,2.5,9.8,5.1c3.4,3.3,5.6,7.8,6.5,12.5c2-3.5,5.1-6.5,8.6-8.5c5.8-3.2,12.3-4.2,18.8-4.4
		c0.6,8.4,1,16.9,1.1,25.5c0,2.3,0,4.7,0,7c-0.1,38-5.4,74.8-15.1,109.7L813.1,527z"/>
</g>
<g>
	<path class="st9" d="M413.5,235.7L413.5,235.7l-5.9,36.5L198.5,60.5c10-6.1,20.2-11.8,30.8-17.1c9,9.7,22.1,23.5,37.1,39.2
		c3.7,3.9,7.5,7.9,11.4,12c3.5,3.7,7.1,7.4,10.7,11.2c9.9,10.3,20.1,21,30.3,31.5c33.7,35,66.7,69.3,83.4,86.6
		c0.6,0.7,1.2,1.3,1.8,1.9c0.2,0.2,0.3,0.3,0.5,0.5c0.1,0.1,0.1,0.1,0.2,0.2c0.8,0.8,1.6,1.6,2.3,2.4l0.9,0.9
		C411.5,233.6,413.5,235.7,413.5,235.7z"/>
	<polygon class="st9" points="413.5,235.8 587,151.5 581.2,192 407.6,272.2 	"/>
	<path class="st17" d="M587,151.5L565.5,162l-34.9,17l0,0l-117,56.8l0,0l0,0l-5-5.3l-0.7-0.7l-0.9-0.9l-0.5-0.6l-1.7-1.8l-0.2-0.2
		l-0.5-0.5l-1.9-2l0,0l-82.3-86.4l0,0l-31.5-33.1L278.5,94l-12.1-12.7l-23-24.2L230,43.2c1.4-0.7,2.7-1.4,4.1-2
		c8.6-4.2,17.4-8.1,26.4-11.6c8.8-3.5,17.6-6.7,26.7-9.6c0-0.4,0.1-0.7,0.1-1.1l6-0.8l0,0l3.8-0.5l49.4-6.8l37.7-5.2l5.6-0.8
		l5.4-0.7l22,16.9l12.7,9.8l15.5,11.9l34,26.1l23.4,18l15.6,12l13,10l38.1,29.3l2.3,1.8L587,151.5z"/>
	<path class="st5" d="M412.3,123.9c4.1,22.5,17.7,43,36.8,55.5c3.2-2.9,4.4-7.4,4.9-11.7c1.3-11.2-1.5-23.2-8.8-31.8
		s-19.5-13.3-30.4-10.5L412.3,123.9z"/>
	<path class="st5" d="M356.1,80.4c-7.7-3.6-15.4-7.6-20.9-13.9c-11.1-12.8-10.8-31.6-9.9-48.5c0-0.9,0.1-1.9,0.8-2.5
		c0.6-0.6,1.6-0.7,2.5-0.7c9.6-0.2,19,4.3,25.6,11.2s10.7,16,12.6,25.4c1.6,8,1,17.6-5.6,22.3c-1.8,1.3-4.1,2.4-4.3,4.6L356.1,80.4z
		"/>
	<path class="st4" d="M407.9,105.1c-4.3-11.3,3.5-23.3,10.9-32.9c5.7-7.4,11.6-15,19.7-19.9c7.1,10.8,7.3,25.7,0.6,36.7
		s-20,17.7-32.9,16.4L407.9,105.1z"/>
	<path class="st18" d="M474.5,118.6c-9.1-11.3-8.7-28.3-1.7-40.9s19.6-21.5,32.9-27.2c7.4,22.5-4.5,49.6-26.1,59.2
		c-4.5,2-9.6,3.6-12.4,7.6L474.5,118.6z"/>
	<path class="st12" d="M382.5,169.1c-22.1-2-41.5-20.9-44-43c7.1-8.1,21.2-5.6,28.6,2.1c7.5,7.8,10,18.9,12.3,29.4
		c1,4.5,1.9,9,2.9,13.4L382.5,169.1z"/>
	<path class="st6" d="M315.4,87.9l1.4-2.8C316.4,86,315.9,87,315.4,87.9z"/>
	<path class="st6" d="M317.7,82.5c-0.6,0.4-1.2,0.9-1.8,1.3c-4.2-3.2-8.1-6.8-11.5-10.8c-1.4-1.7-2.7-3.4-4-5.2
		c-4.4-6.3-7.8-13.3-10.1-20.6c-2.8-8.8-3.9-18.1-3.2-27.3c0-0.4,0.1-0.7,0.1-1.1c0.1-1.3,0.3-2.5,0.5-3.8c3,0.1,5.9,0.8,8.6,2.1
		l0,0c0.3,0.1,0.5,0.2,0.8,0.4c5.9,2.9,10.8,8.2,13.8,14.2c4.4,8.6,5.8,18.2,6.9,27.7c0.1,0.4,0.1,0.8,0.2,1.2
		C318.9,67.8,319.7,75.5,317.7,82.5z"/>
	<path class="st6" d="M317.7,82.5c0.2-0.2,0.4-0.3,0.6-0.5l-1.5,3.1C317.1,84.2,317.4,83.3,317.7,82.5z"/>
	<path class="st5" d="M497.3,152.5c-6.1-23.2,7.6-50,30.1-58.6c0.6-0.2,1.3-0.4,1.8-0.1s0.6,1,0.7,1.6c1.9,13.4,3.3,27.6-2,40
		s-19.7,22-32.4,17.3L497.3,152.5z"/>
	<path class="st7" d="M404.8,226.5c-1.5,1-2.8-1.6-2.6-3.4c1.3-16.4,10.1-32.1,23.5-41.8c2.7,2.8,3,7.2,2.8,11.1
		c-0.2,8.1-1.3,16.4-5.6,23.2s-12.5,11.7-20.3,10.1L404.8,226.5z"/>
	<path class="st7" d="M286,97.9c11-5.2,24.9-2.4,34.2,5.5s14,20.4,14.1,32.6c-11.2,3.8-24.3,1.3-33.4-6.3s-13.9-20-12.2-31.7
		c0.8,0.8,1.6,1.5,2.3,2.3L286,97.9z"/>
	<path class="st5" d="M308.5,45.1c-4.1,21.8-17.7,41.8-36.9,54c-3.2-2.8-4.4-7.2-4.9-11.4c-1.3-10.9,1.5-22.5,8.8-30.9
		s19.5-13,30.5-10.2L308.5,45.1z"/>
	<path class="st5" d="M417.1,0c0.4,6.8,0.6,13.9,0,20.8c-0.9,9.9-3.6,19.4-10.2,26.8c-4,4.4-9,7.6-14.4,10.4
		c-2.4,1.2-4.8,2.4-7.2,3.5l-0.1-0.2l-0.7-2c-0.3-2.2-2.7-3.3-4.5-4.6c-4.5-3.1-6.2-8.2-6.5-13.7c-0.1-2.9,0.1-5.8,0.7-8.6
		c1.6-7.8,4.8-15.4,9.8-21.7c1-1.3,2.1-2.5,3.2-3.7c0.8-0.8,1.7-1.6,2.6-2.4c1.9-1.6,3.9-3,6.1-4.2L417.1,0z"/>
	<path class="st4" d="M426.4,154.6c4.4-11.3-3.6-23.3-11.2-32.9c-5.9-7.4-12-15-20.3-19.9c-7.3,10.8-7.6,25.7-0.7,36.7
		s20.6,17.7,33.9,16.4L426.4,154.6z"/>
	<path class="st18" d="M337.5,119.8c9.1-11,8.7-27.5,1.7-39.8s-19.6-20.9-32.9-26.5c-7.5,21.8,4.5,48.2,26.2,57.6
		c4.5,2,9.6,3.5,12.5,7.4L337.5,119.8z"/>
	<path class="st12" d="M454.3,205.9c22.8-2,42.8-20.9,45.4-43c-7.3-8.1-21.8-5.6-29.5,2.1c-7.7,7.8-10.3,18.9-12.7,29.4
		c-1,4.5-2,9-3,13.4L454.3,205.9z"/>
	<path class="st6" d="M366.4,124.2c0.8,0.6,1.6,1.2,2.5,1.8c21.5-15.6,33.1-43.1,29.1-68.8c-10.3,0.3-19.2,7.7-23.9,16.6
		s-6.1,19-7.3,28.9c-1.2,9.3-2.2,19.3,2.7,27.4L366.4,124.2z"/>
	<path class="st5" d="M463.9,134.3c6.3-23.2-7.9-50-31-58.6c-0.6-0.2-1.3-0.4-1.9-0.1c-0.5,0.3-0.7,1-0.8,1.6
		c-1.9,13.4-3.4,27.6,2,40c5.5,12.4,20.3,22,33.4,17.3L463.9,134.3z"/>
	<path class="st7" d="M416.4,228.2c1.5,1,2.9-1.6,2.7-3.4c-1.4-16.4-10.5-32.1-24.2-41.8c-2.8,2.8-3.1,7.2-2.9,11.1
		c0.3,8.1,1.4,16.4,5.8,23.2s12.8,11.7,21,10.1L416.4,228.2z"/>
	<path class="st7" d="M572.9,139.3c-11.4-5.2-25.7-2.4-35.2,5.5c-9.5,8-14.4,20.4-14.5,32.6c11.6,3.8,25.1,1.3,34.4-6.3
		c9.4-7.6,14.2-20.1,12.5-31.8c-0.8,0.8-1.6,1.5-2.4,2.3L572.9,139.3z"/>
	<path class="st5" d="M379,117.3c4.1,22.5,17.7,43,36.8,55.5c3.2-2.9,4.4-7.4,4.9-11.7c1.3-11.2-1.5-23.2-8.8-31.8
		s-19.5-13.3-30.4-10.5L379,117.3z"/>
	<path class="st18" d="M275.3,69.6c-2.3,0.2-4.6,0.2-6.9-0.1c-9.2-1-18.2-5.9-24.6-12.8c-0.5-0.5-1-1.1-1.4-1.6
		c-3.5-4.2-6.3-9-8.3-14.1c8.6-4.2,17.4-8.1,26.4-11.6c7.6,7.7,12.8,17.8,14,28.6c0.1,0.8,0.1,1.5,0.2,2.3
		C274.8,63.5,274.7,66.7,275.3,69.6z"/>
	<path class="st18" d="M281.2,68.4l-4,6.3c-1-1.5-1.6-3.3-1.9-5.1C277.3,69.4,279.2,69,281.2,68.4z"/>
	<path class="st5" d="M463.9,145.9c-6.1-23.2,7.6-50,30.1-58.6c0.6-0.2,1.3-0.4,1.8-0.1s0.6,1,0.7,1.6c1.9,13.4,3.3,27.6-2,40
		s-19.7,22-32.4,17.3L463.9,145.9z"/>
	<path class="st5" d="M449.6,27.9c-4.1,21.8-17.7,41.8-36.9,54c-3.2-2.8-4.4-7.2-4.9-11.4c-1.3-10.9,1.5-22.5,8.8-30.9
		s19.5-12.9,30.5-10.2L449.6,27.9z"/>
	<path class="st5" d="M384.2,5.4c0,1.8,0,3.5-0.1,5.3c-0.6,11.2-3,22-10.5,30.3c-2.3,2.5-4.9,4.6-7.7,6.5c-4.3,2.9-9.1,5.2-13.9,7.4
		l-0.7-2.2c-0.3-2.2-2.7-3.3-4.5-4.6c-6.8-4.7-7.4-14.3-5.8-22.3c0.5-2.6,1.2-5.2,2.2-7.8c0.9-2.6,2-5,3.3-7.4
		c1.1-2,2.3-3.9,3.6-5.7l0,0c11.2-1.7,22.5-3,34-3.9C384.2,2.5,384.2,4,384.2,5.4z"/>
	<path class="st18" d="M405,211.5c9.1-11,8.7-27.5,1.7-39.8s-19.6-20.9-32.9-26.5c-7.5,21.8,4.5,48.2,26.2,57.6
		c4.5,2,9.6,3.5,12.5,7.4L405,211.5z"/>
	<path class="st12" d="M421,199.3c22.8-2,42.8-20.9,45.4-43c-7.3-8.1-21.8-5.6-29.5,2.1c-7.7,7.8-10.3,18.9-12.7,29.4
		c-1,4.5-2,9-3,13.4L421,199.3z"/>
</g>
</svg>
