<?xml version="1.0" encoding="iso-8859-1"?>
<!-- Generator: Adobe Illustrator 20.0.0, SVG Export Plug-In . SVG Version: 6.00 Build 0)  -->
<svg version="1.1" xmlns="http://www.w3.org/2000/svg" xmlns:xlink="http://www.w3.org/1999/xlink" x="0px" y="0px"
	 viewBox="0 0 828.669 828.67" style="enable-background:new 0 0 828.669 828.67;" xml:space="preserve">
<g id="Condominium">
	<g>
		<defs>
			
				<ellipse id="SVGID_1_" transform="matrix(0.9999 -0.0129 0.0129 0.9999 -5.2924 5.3609)" cx="414.335" cy="414.335" rx="414.334" ry="414.334"/>
		</defs>
		<use xlink:href="#SVGID_1_"  style="overflow:visible;fill:#87C9F0;"/>
		<clipPath id="SVGID_2_">
			<use xlink:href="#SVGID_1_"  style="overflow:visible;"/>
		</clipPath>
	</g>
	<g>
		<path style="fill:#FFEC96;" d="M572.036,66.937L138.784,168.943v554.813c74.545,66.422,173.174,106.262,280.877,104.878
			c32.646-0.42,64.359-4.61,94.736-12.14L572.036,66.937z"/>
		<path style="fill:#F1D870;" d="M514.321,816.513c70.085-17.36,133.048-52.531,183.89-100.378l26.286-560.354L572.036,66.937
			L514.321,816.513z"/>
		<g>
			<polygon style="fill:#FFFFFF;" points="245.178,175.524 433.834,155.781 415.214,345.735 251.005,366.848 			"/>
			<polygon style="fill:#B7DDF3;" points="268.211,348.825 268.211,195.268 324.699,191.977 319.763,345.534 			"/>
			<polygon style="fill:#B7DDF3;" points="350.474,190.88 410.8,185.396 403.123,334.566 343.893,343.341 			"/>
		</g>
		<g>
			<path style="fill:#FFFFFF;" d="M232.016,643.875V479.349l190.85-10.968c0,0,4.387,264.338,0,264.338
				s-190.85,12.065-190.85,12.065V643.875z"/>
			<polygon style="fill:#B7DDF3;" points="252.856,730.525 245.178,506.77 321.408,502.383 321.408,730.525 			"/>
			<polygon style="fill:#B7DDF3;" points="343.893,725.041 339.506,502.383 400.929,502.383 405.316,725.041 			"/>
		</g>
		<g>
			<polygon style="fill:#FFFFFF;" points="609.197,161.266 595.07,278.627 680.623,290.693 690.495,185.396 			"/>
			<polygon style="fill:#B7DDF3;" points="623.587,185.396 614.813,261.314 666.364,270.401 677.333,197.461 			"/>
		</g>
		<g>
			<polygon style="fill:#FFFFFF;" points="583.004,433.282 572.036,616.454 657.589,595.614 669.655,433.282 			"/>
			<polygon style="fill:#B7DDF3;" points="595.07,459.606 586.295,597.808 609.197,591.227 614.813,459.606 			"/>
			<line style="fill:none;stroke:#D8B45E;stroke-miterlimit:10;" x1="626.878" y1="433.282" x2="620.845" y2="604.565"/>
			<polygon style="fill:#B7DDF3;" points="635.653,459.606 631.265,591.227 646.073,587.937 652.654,459.606 			"/>
		</g>
		<g>
			<polygon style="fill:#E8B601;" points="600.554,348.825 600.554,321.404 641.96,329.082 636.75,348.825 			"/>
			<polygon style="fill:#D8B45E;" points="620.845,343.341 621.257,370.214 658.686,370.214 658.686,343.341 			"/>
		</g>
		<g>
			<polygon style="fill:#D8B45E;" points="433.834,417.926 433.834,440.96 482.095,440.96 482.095,412.442 			"/>
			<polygon style="fill:#F1D870;" points="471.127,433.282 471.127,459.606 513.903,453.025 506.226,426.701 			"/>
		</g>
		<g>
			<polygon style="fill:#D8B45E;" points="164.012,412.442 159.624,459.606 183.755,459.606 179.367,412.442 			"/>
			<polygon style="fill:#F1D870;" points="177.174,468.381 203.498,468.381 195.82,426.701 171.689,426.701 			"/>
		</g>
		<g>
			<polygon style="fill:#D8B45E;" points="241.887,397.086 464.546,368.568 433.834,343.341 203.498,372.956 			"/>
			<polygon style="fill:#E8B601;" points="446.996,225.979 482.095,244.625 464.546,368.568 433.834,343.341 			"/>
			<g>
				<path style="fill:#F3BA50;" d="M444.728,228.26l-12.706,113.297L205.354,370.7l-7.415-113.343L444.728,228.26 M446.996,225.979
					L195.82,255.594l7.678,117.362l230.336-29.615L446.996,225.979L446.996,225.979z"/>
			</g>
			
				<line style="fill:none;stroke:#F3BA50;stroke-width:2;stroke-miterlimit:10;" x1="232.016" y1="256.691" x2="237.622" y2="368.568"/>
			
				<line style="fill:none;stroke:#F3BA50;stroke-width:2;stroke-miterlimit:10;" x1="262.575" y1="247.723" x2="268.211" y2="364.635"/>
			
				<line style="fill:none;stroke:#F3BA50;stroke-width:2;stroke-miterlimit:10;" x1="296.455" y1="247.723" x2="302.213" y2="356.777"/>
			
				<line style="fill:none;stroke:#F3BA50;stroke-width:2;stroke-miterlimit:10;" x1="328.416" y1="239.96" x2="334.022" y2="348.825"/>
			
				<line style="fill:none;stroke:#F3BA50;stroke-width:2;stroke-miterlimit:10;" x1="363.636" y1="239.96" x2="363.636" y2="352.366"/>
			
				<line style="fill:none;stroke:#F3BA50;stroke-width:2;stroke-miterlimit:10;" x1="397.295" y1="231.839" x2="391.179" y2="348.825"/>
		</g>
		<g>
			<polygon style="fill:none;stroke:#F3BA50;stroke-width:2;stroke-miterlimit:10;" points="203.498,744.784 195.82,623.035 
				433.834,613.712 439.318,739.3 			"/>
			<polygon style="fill:#E8B601;" points="464.546,584.646 433.834,614.484 439.318,743.41 471.127,698.371 			"/>
			<polygon style="fill:#E8B601;" points="232.016,606.583 195.82,619.744 232.016,621.617 			"/>
			
				<line style="fill:none;stroke:#F3BA50;stroke-width:2;stroke-miterlimit:10;" x1="224.338" y1="623.035" x2="224.338" y2="744.3"/>
			
				<line style="fill:none;stroke:#F3BA50;stroke-width:2;stroke-miterlimit:10;" x1="262.575" y1="623.035" x2="262.575" y2="743.41"/>
			
				<line style="fill:none;stroke:#F3BA50;stroke-width:2;stroke-miterlimit:10;" x1="296.455" y1="619.093" x2="296.455" y2="744.784"/>
			
				<line style="fill:none;stroke:#F3BA50;stroke-width:2;stroke-miterlimit:10;" x1="331.219" y1="617.732" x2="331.219" y2="739.3"/>
			
				<line style="fill:none;stroke:#F3BA50;stroke-width:2;stroke-miterlimit:10;" x1="363.83" y1="616.454" x2="363.636" y2="739.3"/>
			
				<line style="fill:none;stroke:#F3BA50;stroke-width:2;stroke-miterlimit:10;" x1="397.295" y1="617.732" x2="394.237" y2="743.41"/>
			
				<line style="fill:none;stroke:#D8B45E;stroke-width:4;stroke-miterlimit:10;" x1="203.498" y1="749.172" x2="439.318" y2="743.41"/>
		</g>
	</g>
</g>
<g id="Layer_1">
</g>
</svg>
