<?xml version="1.0" encoding="iso-8859-1"?>
<!-- Generator: Adobe Illustrator 20.0.0, SVG Export Plug-In . SVG Version: 6.00 Build 0)  -->
<svg version="1.1" xmlns="http://www.w3.org/2000/svg" xmlns:xlink="http://www.w3.org/1999/xlink" x="0px" y="0px"
	 viewBox="0 0 834.353 828.67" style="enable-background:new 0 0 834.353 828.67;" xml:space="preserve">
<g id="Container_Home">
	<g>
		<path style="fill:#B7DDF3;" d="M828.67,414.33c0,36.84-4.81,72.55-13.83,106.55c-36.53,137.67-142.16,247.21-277.5,289.22
			c-38.86,12.07-80.17,18.57-123,18.57c-15,0-29.81-0.8-44.39-2.36C171,805.13,14.12,643.12,0.91,441.9
			C0.3,432.79,0,423.59,0,414.33C0,185.5,185.51,0,414.34,0S828.67,185.5,828.67,414.33z"/>
		<g>
			<path style="fill:#B2C554;" d="M709.421,705.177L9.357,326.38C3.23,354.726,0,384.151,0,414.33c0,9.26,0.3,18.46,0.91,27.57
				C14.12,643.12,171,805.13,369.95,826.31c14.58,1.56,29.39,2.36,44.39,2.36c42.83,0,84.14-6.5,123-18.57
				C603.271,789.635,662.145,753.139,709.421,705.177z"/>
			<path style="fill:#F5F5F5;" d="M825.56,465.227C720.161,384.34,275.231,112.31,275.231,112.31L168.98,541.933l420.319,248.077
				l45.571-24.861c87.406-55.062,152.802-141.88,179.97-244.269C819.64,502.785,823.235,484.202,825.56,465.227z"/>
			<path style="fill:#BFBFBF;" d="M182.166,547.811c0,0,83.939-393.743,108.078-425.988l-15.012-9.512L168.98,541.933
				L182.166,547.811z"/>
			<g>
				<g>
					<path style="fill:#E6E6E6;" d="M174.663,542.382c0,0,56.666-201.777,57.746-201.949c1.08-0.172,30.817,2.305,30.817,2.305
						l-76.174,206.128L174.663,542.382"/>
					<polygon style="fill:#E6E6E6;" points="187.052,548.866 262.922,359.945 290.412,359.966 202.165,560.108 					"/>
					<path style="fill:#E6E6E6;" d="M202.308,561.309c0,0,80.262-178.055,81.08-178.12c0.818-0.064,31.068-2.441,31.068-2.441
						l-85.731,193.153l-26.326-11.436"/>
					<path style="fill:#E6E6E6;" d="M228.445,580.09c0,0,83.403-182.039,84.203-182.36c0.8-0.32,26.014-0.266,26.014-0.266
						l-81.382,198.996L228.445,580.09z"/>
					<polygon style="fill:#E6E6E6;" points="259.311,598.203 337.593,412.916 364.704,411.192 282.137,611.348 					"/>
					<path style="fill:#E6E6E6;" d="M284.425,612.99c0,0,75.843-186.807,77.502-186.498s26.422,1.639,26.422,1.639l-84.298,194.937
						L284.425,612.99z"/>
					<path style="fill:#E6E6E6;" d="M307.258,622.897c0,0,77.377-178.577,78.585-179.037s28.066-1.488,28.066-1.488l-79.647,200.021
						L307.258,622.897z"/>
					<polygon style="fill:#E6E6E6;" points="338.338,644.797 411.439,461.932 442.969,460.26 364.029,659.955 					"/>
					<polygon style="fill:#E6E6E6;" points="367.472,662.528 435.956,485.232 466.333,483.621 383.465,672.066 367.56,664.185 					
						"/>
					<polygon style="fill:#E6E6E6;" points="387.495,674.228 460.531,497.138 491.246,499.696 402.995,684.045 					"/>
					<path style="fill:#E6E6E6;" d="M406.912,686.105c0,0,82.722-167.39,83.847-167.083c1.124,0.307,30.185,5,30.185,5
						L425.355,695.94L406.912,686.105z"/>
					<path style="fill:#E6E6E6;" d="M432.231,699.136c0,0,82.537-162.301,85.144-162.062c2.606,0.239,29.927-1.588,29.927-1.588
						l-93.214,177.567L432.231,699.136z"/>
					<polygon style="fill:#E6E6E6;" points="460.105,713.7 544.594,553.83 569.242,552.523 475.562,726.829 					"/>
					<path style="fill:#E6E6E6;" d="M480.254,729.585c0,0,85.348-157.155,86.743-158.471c1.394-1.316,23.809-3.956,23.809-3.956
						L500.58,740.328L480.254,729.585z"/>
					<polygon style="fill:#E6E6E6;" points="504.405,744.289 587.075,588.911 615.453,588.463 528.455,755.503 					"/>
					<path style="fill:#E6E6E6;" d="M534.265,753.076c0,0,76.695-145.889,78.09-145.963c1.395-0.074,27.714-5.035,27.714-5.035
						l-83.144,166.39l-22.547-13.259L534.265,753.076z"/>
					<polygon style="fill:#E6E6E6;" points="559.381,773.845 636.847,623.375 666.164,617.191 577.043,784.649 					"/>
					<polygon style="fill:#E6E6E6;" points="583.038,786.314 659.457,639.362 684.336,634.899 610.815,777.367 					"/>
				</g>
				<polygon style="fill:#E6E6E6;" points="618.472,775.649 702.971,625.057 733.313,619.879 656.975,750.202 				"/>
			</g>
			<path style="fill:#F0E9D6;" d="M826.96,452.072L278.237,86.376l-10.008,25.934L823.92,477.187
				C825.183,468.894,826.197,460.519,826.96,452.072z"/>
			<g>
				<polygon style="fill:#E6E6E6;" points="239.623,321.39 307.054,137.804 283.742,135.173 233.55,317.589 				"/>
				<polygon style="fill:#E6E6E6;" points="252.433,329.92 326.995,148.197 306.762,145.566 242.188,322.545 				"/>
				<path style="fill:#E6E6E6;" d="M256.168,331.96c0,0,68.774-168.598,69.8-168.855c1.026-0.257,32.077-4.876,32.077-4.876
					l-83.401,187.588L256.168,331.96z"/>
				<polygon style="fill:#E6E6E6;" points="276.441,345.817 353.683,175.166 379.601,180.555 299.793,363.011 				"/>
				<path style="fill:#E6E6E6;" d="M301.076,363.011c0,0,77.499-173.987,78.525-173.987c1.026,0,28.228,6.929,28.228,6.929
					l-92.814,179.864l-13.94-11.778"/>
				<polygon style="fill:#E6E6E6;" points="317.542,377.552 405.263,206.217 430.925,209.039 335.078,389.606 				"/>
				<path style="fill:#E6E6E6;" d="M336.559,390.624c0,0,88.207-166.444,88.977-166.444c0.77,0,29.255,0,29.255,0l-94.436,180.659
					l-23.796-13.088"/>
				<path style="fill:#E6E6E6;" d="M360.945,407.387c0,0,89.996-170.889,90.766-171.146c0.77-0.257,24.379,1.502,24.379,1.502
					l-89.212,187.47L360.945,407.387z"/>
				<polygon style="fill:#E6E6E6;" points="389.399,426.946 473.78,252.023 499.281,252.023 410.001,441.107 				"/>
				<path style="fill:#E6E6E6;" d="M413.029,443.189c0,0,80.383-177.437,81.923-177.052c1.54,0.385,24.687,2.951,24.687,2.951
					l-88.713,184.894L413.029,443.189z"/>
				<path style="fill:#E6E6E6;" d="M433.94,453.982c0,0,81.412-169.368,82.567-169.753c1.155-0.385,26.384,0,26.384,0
					l-84.606,190.069L433.94,453.982z"/>
				<polygon style="fill:#E6E6E6;" points="461.986,476.841 539.603,303.09 569.242,303.09 485.316,492.878 				"/>
				<polygon style="fill:#E6E6E6;" points="488.416,495.009 566.163,317.332 596.572,317.332 503.875,505.635 488.416,496.709 				
					"/>
				<polygon style="fill:#E6E6E6;" points="506.603,507.511 592.723,332.345 624.672,336.579 522.254,518.269 				"/>
				<path style="fill:#E6E6E6;" d="M524.215,519.617c0,0,95.453-171.105,96.608-170.72s31.179,6.929,31.179,6.929L542.891,530.967
					L524.215,519.617z"/>
				<path style="fill:#E6E6E6;" d="M547.302,533.662c0,0,94.692-161.285,97.387-160.9c2.694,0.385,31.179-0.001,31.179-0.001
					L569.242,549.059L547.302,533.662z"/>
				<polygon style="fill:#E6E6E6;" points="572.707,549.059 669.709,387.774 695.499,387.774 588.108,563.537 				"/>
				<path style="fill:#E6E6E6;" d="M590.806,565.391c0,0,98.534-161.895,100.074-163.212c1.54-1.317,25.262-2.857,25.262-2.857
					L611.585,577.929L590.806,565.391z"/>
				<polygon style="fill:#E6E6E6;" points="612.714,580.45 711.281,415.489 742.075,416.644 638.145,594.096 				"/>
				<path style="fill:#E6E6E6;" d="M640.069,594.096c0,0,93.153-157.435,94.692-157.435c1.54,0,30.794-3.849,30.794-3.849
					L658.899,612.198l-18.83-15.793V594.096z"/>
				<polygon style="fill:#E6E6E6;" points="662.78,612.198 757.087,453.982 789.806,448.978 681.641,624.89 				"/>
				<polygon style="fill:#E6E6E6;" points="684.336,626.814 780.568,469.379 809.268,465.915 702.812,639.132 				"/>
				<polygon style="fill:#E6E6E6;" points="709.421,637.828 805.653,480.392 834.353,476.928 727.897,650.145 				"/>
			</g>
			<path style="fill:#DDD6C1;" d="M279.006,86.376l547.719,368.306c1.284-13.277,1.945-26.737,1.945-40.352
				c0-90.791-29.205-174.757-78.728-243.026L530.75,35.565L279.006,86.376z"/>
			<polygon style="fill:#FEFEFE;" points="338.286,204.164 295.174,321.182 393.715,369.683 441.446,264.982 			"/>
			<polygon style="fill:#CDE7F8;" points="322.234,334.501 368.31,221.486 406.353,244.293 360.584,354.929 			"/>
			<polygon style="fill:#FEFEFE;" points="529.98,315.023 477.63,411.255 577.711,483.621 644.688,392.008 			"/>
			<polygon style="fill:#CDE7F8;" points="560.733,336.424 516.312,439.225 556.958,468.615 609.458,369.761 			"/>
			<polygon style="fill:#FEFEFE;" points="710.896,436.66 653.927,518.265 740.15,581.393 792.501,500.558 			"/>
			<polygon style="fill:#CDE7F8;" points="734.049,453.982 687.335,541.669 715.13,564.841 765.556,481.073 			"/>
			<polygon style="fill:#FEFEFE;" points="256.681,597.56 310.571,465.915 609.275,649.91 553.924,773.468 			"/>
			<polygon style="fill:#A4C9E8;" points="298.655,623.067 353.673,494.317 560.189,621.669 504.322,742.727 			"/>
			
				<line style="fill:none;stroke:#DDD6C1;stroke-width:12;stroke-miterlimit:10;" x1="233.55" y1="319.817" x2="731.682" y2="662.228"/>
			<g>
				<g>
					<path style="fill:#F8F8F8;" d="M85.844,420.26c-12.826,4.145-26.541,8.92-34.362,19.897c-0.581,0.815-1.148,1.776-0.945,2.756
						c0.177,0.858,0.897,1.483,1.579,2.033c7.35,5.934,15.248,11.187,23.562,15.671c1.592,0.859,3.27,1.709,5.079,1.763
						c1.692,0.051,3.318-0.601,4.869-1.279c11.485-5.022,22.059-12.122,31.054-20.852c0.723-0.702,1.489-1.545,1.433-2.551
						c-0.058-1.037-0.961-1.798-1.797-2.415c-9.51-7.016-20.007-12.691-31.086-16.806"/>
				</g>
				<g>
					<path style="fill:#F8F8F8;" d="M125.019,452.028c-3.081-0.3-5.897,1.603-8.406,3.417c-6.399,4.626-12.797,9.252-19.196,13.878
						c-0.665,0.481-1.364,1.004-1.658,1.77c-0.715,1.86,1.273,3.576,3.01,4.553c14.184,7.978,29.827,13.352,45.919,15.776
						c1.667,0.251,3.53,0.426,4.887-0.573c2.285-1.682,1.533-5.247,0.358-7.831c-3.571-7.854-8.858-14.784-14.123-21.619
						c-2.966-3.85-6.587-8.043-11.444-8.209"/>
				</g>
				<g>
					<path style="fill:#F8F8F8;" d="M9.044,442.537c5.068-0.176,9.949,1.737,14.659,3.617c3.128,1.249,6.31,2.53,8.916,4.664
						c2.31,1.891,4.056,4.363,5.981,6.645c3.625,4.298,7.963,7.995,12.783,10.891c1.234,0.742,2.561,1.492,3.267,2.747
						c1.315,2.34-0.054,5.192-1.007,7.702c-3.606,9.498-0.903,20.332-3.542,30.143c-0.263,0.976-0.643,2.024-1.515,2.536
						c-0.704,0.413-1.572,0.383-2.388,0.346c-10.499-0.475-21.043,0.065-31.438,1.612c-0.6,0.089-1.254,0.172-1.777-0.134
						c-0.444-0.26-0.697-0.745-0.919-1.209c-3.451-7.224-4.823-15.235-6.16-23.129c-1.023-6.044-2.049-12.111-2.217-18.238
						c-0.267-9.706,1.657-19.467,5.588-28.346"/>
				</g>
				<g>
					<path style="fill:#F8F8F8;" d="M66.543,471.725c0.259,14.481-1.165,28.991-4.233,43.145c-0.173,0.8-0.212,1.883,0.554,2.173
						c0.335,0.127,0.708,0.035,1.054-0.057c18.05-4.828,36.363-9.765,52.404-19.346c0.301-0.18,0.62-0.383,0.754-0.707
						c0.316-0.769-0.574-1.46-1.323-1.821c-16.312-7.862-32.623-15.723-48.935-23.585"/>
				</g>
				<g>
					<path style="fill:#F8F8F8;" d="M162.506,500.312c-15.967,2.255-31.852,5.094-47.612,8.511c-0.847,0.184-1.82,0.471-2.14,1.276
						c-0.202,0.509-0.075,1.083,0.073,1.61c0.95,3.377,2.661,6.482,4.358,9.553c4.039,7.311,8.079,14.621,12.118,21.932
						c2.171,3.929,4.357,7.88,7.172,11.377c0.462,0.573,0.99,1.166,1.707,1.332c0.67,0.155,1.36-0.095,2.003-0.339
						c8.635-3.271,17.487-5.972,26.477-8.079c-2.38-2.36-4.051-5.426-4.743-8.706c-0.287-1.361-0.395-2.84,0.219-4.088
						c0.605-1.231,1.804-2.034,2.864-2.905c3.03-2.49,5.277-6.093,5.559-10.005c0.563-7.807-6.335-14.101-8.246-21.692"/>
				</g>
				<g>
					<path style="fill:#F8F8F8;" d="M106.826,518.57c-10.291,2.726-20.828,4.524-31.441,5.364c-3.418,0.27-6.87,0.446-10.184,1.325
						c-1.092,0.29-2.267,0.74-2.786,1.743c-0.712,1.377,0.153,3.011,0.986,4.318c4.256,6.672,8.352,13.503,11.213,20.883
						c2.86,7.379,4.452,15.38,3.537,23.241c14.955-6.46,29.297-14.34,42.769-23.499c0.672-0.457,1.386-0.975,1.62-1.753
						c0.242-0.804-0.095-1.656-0.431-2.425c-4.416-10.137-9.456-20.002-15.082-29.52"/>
				</g>
				<g>
					<path style="fill:#F8F8F8;" d="M17.064,528.989c2.106,0.735,4.351,1.073,6.581,0.989c4.038-0.152,7.888-1.654,11.637-3.164
						c3.34-1.345,6.908-2.911,8.708-6.029c4.232,5.953,6.568,13.01,8.847,19.95c0.189,0.575,0.379,1.162,0.377,1.767
						c-0.003,0.84-0.376,1.628-0.727,2.39c-5.136,11.138-7.343,23.354-10.265,35.267c-0.309,1.258-0.652,2.566-1.506,3.539
						c-0.21,0.239-0.497,0.47-0.811,0.418c-0.286-0.047-0.478-0.31-0.637-0.552c-1.404-2.144-2.653-4.385-3.899-6.624
						c-1.695-3.045-3.391-6.09-5.086-9.135c-1.752-3.146-3.506-6.298-4.932-9.604c-2.558-5.932-4.021-12.281-5.046-18.659
						c-0.403-2.51-0.767-5.106-2.063-7.293c-0.691-1.166-1.658-2.25-1.815-3.596"/>
				</g>
				<g>
					<path style="fill:#F8F8F8;" d="M60.992,574.553c-1.202,3.143-2.283,6.332-3.242,9.557c-0.454,1.527-0.883,3.077-0.981,4.667
						c-0.103,1.658,0.157,3.315,0.415,4.956c0.368,2.338,0.756,4.735,1.93,6.791c1.686,2.953,4.74,4.799,7.52,6.756
						c4.305,3.03,8.222,6.608,11.628,10.621c0.112-2.391-0.499-4.752-1.125-7.062c-1.908-7.046-3.999-14.042-6.267-20.98
						c-1.296-3.964-2.675-7.958-4.974-11.438c-1.112-1.684-2.538-3.304-4.461-3.916"/>
				</g>
				<g>
					<path style="fill:#F8F8F8;" d="M121.789,567.027c-14.291,4.592-27.634,11.66-41.023,18.447
						c0.731,1.478,2.151,2.463,3.423,3.512c1.992,1.643,3.761,3.622,4.822,5.976c1.261,2.796,1.484,6.012,3.009,8.673
						c0.229,0.399,0.512,0.805,0.939,0.976c0.685,0.274,1.435-0.148,2.051-0.555c6.032-3.974,12.064-7.947,18.096-11.921
						c2.219-1.461,4.44-2.925,6.528-4.568c0.868-0.684,1.743-1.437,2.177-2.453c0.352-0.825,0.381-1.746,0.404-2.643
						c0.132-5.019,0.263-10.039,0.395-15.058c0.008-0.302-0.032-0.679-0.315-0.784"/>
				</g>
				<g>
					<path style="fill:#F8F8F8;" d="M167.735,550.521c-4.213,0.609-8.161,2.449-11.78,4.689c-3.6,2.228-6.991,4.926-9.396,8.41
						c-3.597,5.212-4.703,12.068-2.921,18.145s6.415,11.253,12.26,13.689c2.295,0.956,4.736,1.503,7.164,2.037
						c7.317,1.608,14.892,3.142,22.244,1.701c3.071-0.602,6.023-1.712,8.859-3.034c4.924-2.295,9.701-5.399,12.553-10.023
						c2.282-3.7,3.166-8.238,2.441-12.524s-3.055-8.28-6.427-11.023c-2.559-2.081-5.63-3.421-8.696-4.64
						c-6.554-2.606-13.281-4.779-20.121-6.499c-2.356-0.593-4.771-1.135-7.193-0.952"/>
				</g>
				<g>
					<path style="fill:#F8F8F8;" d="M131.697,580.542c-1.282,0.649-2.515,1.421-3.546,2.421c-1.964,1.905-3.088,4.545-3.605,7.231
						c-0.517,2.687-0.472,5.446-0.392,8.181c0.158,5.435,0.455,10.933,2.044,16.133c1.589,5.2,4.609,10.142,9.201,13.055
						c2.276-3.537,3.445-7.757,6.106-11.014c3.606-4.413,9.365-6.387,13.816-9.945c0.324-0.259,0.672-0.599,0.623-1.011
						c-0.058-0.483-0.608-0.717-1.072-0.864c-4.378-1.386-8.539-3.457-12.286-6.113c-1.814-1.286-3.555-2.733-4.818-4.563
						c-1.103-1.598-1.806-3.431-2.498-5.245c-1.038-2.72-2.076-5.439-3.114-8.159"/>
				</g>
				<g>
					<path style="fill:#F8F8F8;" d="M120.032,637.977"/>
				</g>
				<g>
					<path style="fill:#F8F8F8;" d="M120.023,637.974c-0.108-3.312-3.564-5.561-4.438-8.757c-0.507-1.853-0.09-3.819,0.328-5.695
						c0.745-3.342,1.49-6.684,2.234-10.026c0.38-1.703,0.761-3.457,0.479-5.179c-0.44-2.69-2.53-4.947-5.056-5.973
						c-2.526-1.025-5.412-0.923-8.018-0.121c-2.605,0.802-4.962,2.261-7.143,3.897c-5.109,3.835-9.414,8.738-12.556,14.3
						c-0.768,1.36-1.477,2.788-1.715,4.331c-0.363,2.357,0.403,4.725,1.158,6.986c0.582,1.743,1.173,3.505,2.145,5.065
						c0.744,1.193,1.695,2.241,2.64,3.282c3.576,3.935,7.151,7.871,10.727,11.806c0.12,0.132,0.244,0.267,0.406,0.343
						c0.499,0.235,1.046-0.181,1.443-0.563c5.384-5.183,11.328-9.783,17.695-13.696"/>
				</g>
				<g>
					<path style="fill:#F8F8F8;" d="M131.187,646.289c-3.25-0.387-6.593,0.757-9.129,2.826c-2.536,2.068-4.293,5.001-5.231,8.137
						c-0.471,1.576-0.741,3.291-0.225,4.853c0.34,1.027,0.996,1.916,1.665,2.766c7.209,9.15,17.013,15.852,26.808,22.157
						c0.348,0.224,0.722,0.456,1.136,0.461c0.579,0.007,1.06-0.424,1.467-0.835c3.421-3.459,6.221-7.532,8.223-11.965
						c0.072-0.159,0.144-0.328,0.119-0.5c-0.036-0.244-0.253-0.415-0.456-0.553c-1.47-0.997-3.132-1.668-4.699-2.505
						c-4.089-2.185-7.539-5.552-9.823-9.587c-1.063-1.877-1.879-3.895-3.081-5.686c-0.883-1.315-1.972-2.506-2.64-3.943
						c-0.591-1.271-0.83-2.691-1.5-3.923s-1.994-2.295-3.366-2.009"/>
				</g>
				<g>
					<path style="fill:#F8F8F8;" d="M164.833,624.177c-1.921-0.486-3.936,0.07-5.837,0.629c-2.559,0.753-5.19,1.557-7.25,3.252
						c-1.833,1.507-3.075,3.61-4.097,5.752c-1.385,2.902-2.452,6.031-2.449,9.247c0.002,1.65,0.285,3.288,0.663,4.893
						c1.061,4.501,2.93,8.896,6.021,12.336c3.423,3.809,8.203,6.255,13.203,7.359c5,1.104,10.219,0.926,15.264,0.05
						c0.698-0.121,1.421-0.268,1.983-0.699c0.467-0.359,0.776-0.882,1.047-1.404c3.272-6.321,2.368-14.015,4.715-20.734
						c-2.973-0.25-5.969-0.504-8.831-1.347s-5.614-2.33-7.478-4.659c-1.975-2.467-2.799-5.661-3.203-8.795
						c-0.19-1.476-0.316-3.015-1.06-4.304c-0.744-1.289-2.333-2.239-3.727-1.717"/>
				</g>
				<g>
					<path style="fill:#F8F8F8;" d="M174.663,608.696c0.212,4.002,0.424,8.004,0.637,12.006c0.165,3.112,0.335,6.255,1.194,9.251
						s2.48,5.874,5.029,7.667c3.741,2.631,8.67,2.5,13.185,3.229c3.827,0.618,7.509,1.915,11.291,2.767s7.798,1.246,11.49,0.065
						c5.282-1.69,9.148-6.424,11.157-11.593c2.009-5.169,2.431-10.797,2.809-16.33c0.249-3.642,0.484-7.335-0.227-10.916
						c-1.535-7.734-7.802-14.324-15.449-16.245"/>
				</g>
				<g>
					<path style="fill:#F8F8F8;" d="M175.169,608.896c0.208,0.251,0.424,0.496,0.647,0.734c0.7,0.747,1.471,1.425,2.269,2.068
						c1.269,1.022,2.619,1.964,4.117,2.607c2.634,1.13,5.615,1.275,8.442,0.804c2.827-0.471,5.522-1.532,8.118-2.745
						c4.541-2.121,8.936-4.799,12.161-8.635c0.694-0.826,1.332-1.704,1.838-2.657c0.751-1.415,1.197-2.969,1.638-4.509
						c0.485-1.693,0.97-3.385,1.454-5.078c0.251-0.878,0.504-1.802,0.297-2.691"/>
				</g>
				<g>
					<path style="fill:#F8F8F8;" d="M203.436,699.426c-1.603-0.73-3.205-1.461-4.808-2.191c-0.803-0.366-1.622-0.743-2.258-1.354
						c-0.726-0.698-1.153-1.646-1.504-2.589c-1.322-3.554-1.795-7.421-1.368-11.189c0.05-0.439,0.106-0.911-0.102-1.301
						c-0.305-0.573-1.035-0.737-1.677-0.831c-7.109-1.049-14.364-1.104-21.488-0.165c-0.752,0.099-1.521,0.215-2.189,0.576
						c-0.723,0.391-1.275,1.045-1.676,1.762c-1.013,1.808-1.125,3.97-1.124,6.042c0.001,2.015,0.085,4.029,0.254,6.037
						c0.236,2.81,0.645,5.638,1.695,8.255c1.05,2.617,2.795,5.029,5.228,6.454c3.121,1.829,6.955,1.849,10.565,1.607
						c3.52-0.236,7.102-0.694,10.276-2.235c1.879-0.912,3.56-2.179,5.226-3.439c2.143-1.621,4.343-3.31,5.671-5.646"/>
				</g>
				<g>
					<path style="fill:#F8F8F8;" d="M220.557,651.044c-5.362,2.924-10.486,6.285-15.305,10.037
						c-1.381,1.075-2.752,2.198-3.797,3.603c-2.049,2.754-2.653,6.378-2.314,9.794c0.338,3.416,1.539,6.682,2.814,9.868
						c1.414,3.532,3.175,7.29,6.561,9.027c2.081,1.067,4.496,1.21,6.831,1.347c3.366,0.197,6.74,0.425,10.052,1.053
						c2.067,0.392,4.12,0.942,6.223,1.002c2.349,0.067,4.677-0.48,6.906-1.223c5.475-1.824,10.542-4.863,14.73-8.833
						c0.552-0.524,1.137-1.237,0.9-1.961c-0.099-0.303-0.329-0.541-0.55-0.771c-2.581-2.685-4.807-5.711-6.603-8.974
						c-0.67-1.218-1.3-2.494-2.312-3.447c-2.075-1.955-5.217-2.111-7.838-3.233c-2.535-1.085-4.558-3.07-6.516-5.01
						c-3.217-3.188-6.528-6.519-8.09-10.77c-0.262-0.714-0.623-1.577-1.379-1.658"/>
				</g>
				<g>
					<path style="fill:#F8F8F8;" d="M246.349,611.833c0.834,8.14-1.204,16.546-5.675,23.4c-0.442,0.677-0.922,1.382-0.979,2.189
						c-0.045,0.626,0.173,1.237,0.392,1.825c2.023,5.434,4.46,10.714,7.285,15.779c0.947,1.699,1.961,3.402,3.408,4.702
						c1.216,1.092,2.694,1.858,4.222,2.437c6.085,2.304,12.884,1.729,19.243,0.349c2.719-0.59,5.434-1.33,7.895-2.628
						c5.837-3.077,9.645-8.932,12.673-14.795c1.213-2.349,2.349-4.751,3.129-7.277c0.726-2.35,1.119-4.978,0.081-7.208
						c-1.123-2.413-3.655-3.818-6.115-4.834c-4.581-1.893-9.451-2.997-14.084-4.76c-5.133-1.953-9.931-4.695-15.025-6.748
						s-10.672-3.413-16.072-2.412"/>
				</g>
				<g>
					<path style="fill:#F8F8F8;" d="M310.632,646.265c-4.221,10.626-12.433,19.612-22.636,24.771
						c1.675,4.624,3.367,9.282,5.906,13.494c2.539,4.212,6.013,7.999,10.455,10.11c3.614,1.717,7.677,2.247,11.675,2.406
						c8.28,0.33,17.14-1.075,23.335-6.579c1.872-1.663,3.431-3.641,4.975-5.612c1.757-2.243,3.529-4.528,4.612-7.164
						c1.103-2.685,1.441-5.613,1.768-8.498c0.052-0.455,0.1-0.933-0.074-1.357c-0.159-0.387-0.483-0.678-0.793-0.96
						c-2.457-2.235-4.633-4.779-6.46-7.552c-0.367-0.557-0.737-1.14-1.293-1.509c-0.512-0.339-1.132-0.463-1.734-0.584
						c-10.374-2.089-20.469-5.555-29.938-10.279"/>
				</g>
				<g>
					<path style="fill:#F8F8F8;" d="M280.133,681.513c-5.16,0.988-9.608,4.215-14.621,5.787c-2.191,0.687-4.529,1.075-6.461,2.317
						c-2.468,1.585-3.913,4.322-5.169,6.973c-1.346,2.84-2.6,5.724-3.759,8.645c-0.916,2.307-1.778,4.879-0.94,7.216
						c0.543,1.516,1.73,2.697,2.881,3.823c1.981,1.939,3.99,3.9,6.394,5.281c5.695,3.272,12.674,2.851,19.24,3.049
						c1.646,0.05,3.335,0.138,4.895-0.388c1.206-0.407,2.263-1.16,3.262-1.949c2.704-2.137,5.123-4.609,7.532-7.074
						c1.545-1.58,3.09-3.16,4.635-4.74c0.69-0.705,1.436-1.606,1.188-2.56c-0.121-0.465-0.461-0.835-0.788-1.186
						c-7.024-7.546-13.267-15.82-18.594-24.647"/>
				</g>
				<g>
					<path style="fill:#F8F8F8;" d="M238.575,706.384c-8.949-0.5-17.897-0.999-26.846-1.499c-1.474-0.082-3.008-0.155-4.367,0.424
						c-0.825,0.351-1.533,0.922-2.243,1.468c-2.959,2.273-6.164,4.225-9.541,5.811c-0.746,0.35-1.559,0.739-1.912,1.484
						c-0.192,0.405-0.219,0.866-0.244,1.313c-0.273,5.006-0.376,10.548,2.854,14.382c2.261,2.683,5.758,3.981,9.183,4.74
						c6.039,1.337,12.305,1.332,18.466,0.788c0.499-0.044,1.033-0.084,1.469,0.162c0.84,0.474,0.835,1.649,0.936,2.608
						c0.225,2.128,1.515,4.057,3.23,5.336c1.715,1.279,3.821,1.955,5.941,2.238c1.413,0.189,2.891,0.205,4.216-0.32
						c2.237-0.887,3.61-3.108,4.776-5.213c2.456-4.436,4.767-9.413,3.829-14.396c-0.081-0.428-0.189-0.861-0.429-1.224
						c-0.257-0.388-0.645-0.667-1.015-0.95c-5.063-3.876-8.089-10.276-7.872-16.649"/>
				</g>
				<g>
					<path style="fill:#F8F8F8;" d="M259.82,730.041c-1.677,4.715-3.354,9.43-5.032,14.145c-0.916,2.574-1.842,5.342-1.145,7.983
						c0.375,1.421,1.199,2.686,2.139,3.816c1.354,1.629,2.976,3.036,4.78,4.146c3.09,1.902,6.636,2.903,10.145,3.827
						c2.11,0.555,4.243,1.094,6.423,1.197c6.585,0.312,12.686-3.336,17.89-7.384c1.889-1.469,3.744-3.03,5.157-4.962
						c1.349-1.846,2.254-3.973,3.097-6.098c0.739-1.86,1.44-3.735,2.104-5.623c0.181-0.515,0.362-1.059,0.267-1.597
						c-0.103-0.586-0.514-1.062-0.902-1.513c-3.599-4.179-6.585-8.885-8.835-13.92c-5.351,6.317-13.409,10.573-21.683,10.286
						c-4.43-0.153-8.71-1.552-12.92-2.937c-0.522-0.172-1.059-0.352-1.478-0.709c0.02,0.272,0.04,0.544,0.06,0.816"/>
				</g>
				<g>
					<path style="fill:#F8F8F8;" d="M318.526,708.287c-0.79-0.42-1.66,0.398-2.13,1.159c-2.612,4.229-3.236,9.382-3.291,14.352
						c-0.03,2.66,0.103,5.401,1.2,7.824c0.959,2.118,2.59,3.85,4.243,5.487c1.711,1.694,3.51,3.355,5.666,4.426
						c2.48,1.232,5.286,1.61,8.038,1.922c3.78,0.428,7.586,0.761,11.386,0.589c2.627-0.119,5.295-0.496,7.659-1.649
						c5.161-2.516,7.975-8.285,9.026-13.93c0.211-1.135,0.35-2.379-0.224-3.38c-0.308-0.538-0.793-0.949-1.261-1.356
						c-1.906-1.663-3.679-3.471-5.449-5.278c-1.191-1.215-2.397-2.451-3.217-3.942c-0.673-1.225-1.062-2.582-1.446-3.927
						c-0.287-1.003-0.573-2.006-0.86-3.01c-8.497,4.888-19.392,5.34-28.265,1.173c-0.288-0.135-0.804-0.107-0.728,0.201"/>
				</g>
				<g>
					<path style="fill:#F8F8F8;" d="M362.941,671.695c-0.051,4.495-0.145,9.102-1.781,13.288c-1.13,2.892-2.949,5.455-4.398,8.201
						c-1.448,2.746-2.547,5.853-2.048,8.918c0.497,3.055,2.512,5.648,4.744,7.793c5.344,5.137,12.357,8.509,19.706,9.476
						c2.107,0.277,4.284,0.357,6.322-0.243c3.322-0.978,5.869-3.622,8.02-6.335c2.899-3.657,5.388-7.638,7.406-11.845
						c1.405-2.931,2.575-6.426,1.128-9.336c-1.512-3.043-5.192-4.153-8.412-5.238c-10.488-3.537-19.828-9.879-30.205-13.729"/>
				</g>
				<g>
					<path style="fill:#F8F8F8;" d="M418.958,700.4c-1.495,0.1-2.989,0.201-4.484,0.301c-0.176,0.012-0.363,0.028-0.505,0.134
						c-0.183,0.138-0.236,0.385-0.279,0.61c-1.569,8.315-6.21,16.015-12.829,21.286c-0.941,0.75-1.961,1.501-2.447,2.602
						c-0.705,1.597-0.095,3.443,0.579,5.053c1.168,2.79,2.523,5.501,4.054,8.109c1.37,2.334,2.924,4.632,5.09,6.253
						c3.632,2.719,8.435,3.168,12.966,3.378c2.596,0.121,5.222,0.193,7.768-0.322c3.881-0.786,7.39-2.912,10.361-5.531
						c2.971-2.619,5.459-5.73,7.93-8.824c1.613-2.019,3.253-4.087,4.119-6.521c0.596-1.676,0.801-3.47,0.806-5.249
						c0.001-0.394-0.009-0.797-0.137-1.17c-0.362-1.059-1.523-1.579-2.552-2.02c-6.361-2.728-11.989-6.874-17.805-10.627
						c-4.144-2.674-8.409-5.163-12.776-7.455c0.109,0.33,0.217,0.659,0.326,0.989"/>
				</g>
				<g>
					<path style="fill:#F8F8F8;" d="M400.278,748.178c-4.622-0.895-8.87-3.593-11.645-7.395c-2.775-3.803-4.048-8.671-3.491-13.346
						c-6.331,1.489-11.872,6.023-14.585,11.933c-1.151,2.508-1.813,5.226-3.068,7.684c-1.719,3.366-4.55,6.153-7.944,7.817
						c-0.217,0.107-0.449,0.219-0.579,0.423c-0.248,0.389-0.02,0.896,0.207,1.298c3.156,5.566,6.641,11.449,12.391,14.256
						c2.339,1.142,4.927,1.696,7.517,1.96c2.245,0.229,4.529,0.247,6.744-0.187c4.159-0.815,7.967-3.266,10.469-6.686
						c2.502-3.421,3.683-7.774,3.301-11.995c-0.192-2.121-0.726-4.427,0.361-6.259"/>
				</g>
				<g>
					<path style="fill:#F8F8F8;" d="M314.852,745.429c-1.98,4.51-4.001,9.086-7.159,12.866c-3.168,3.793-7.416,6.704-9.921,10.964
						c6.923,3.431,13.846,6.863,20.769,10.294c2.833,1.404,5.668,2.809,8.579,4.046c1.494,0.635,3.02,1.228,4.618,1.511
						c2.034,0.36,4.129,0.205,6.162-0.16c3.14-0.564,6.189-1.632,8.996-3.149c1.216-0.657,2.405-1.414,3.308-2.46
						c0.948-1.099,1.537-2.467,1.925-3.866c1.732-6.242-0.356-12.913-3.24-18.713c-1.074-2.16-2.28-4.324-2.6-6.715
						c-4.207,1.404-8.535,2.445-12.921,3.107c-1.813,0.274-3.663,0.483-5.476,0.212c-2.179-0.326-4.191-1.324-6.161-2.31
						c-2.444-1.222-4.977-2.517-6.624-4.697c-0.087-0.115-0.174-0.266-0.108-0.394c0.067-0.128,0.332-0.031,0.247,0.086"/>
				</g>
				<g>
					<path style="fill:#F8F8F8;" d="M370.269,774.839c-2.374,5.052-7.283,8.833-12.773,9.838c6.095,3.077,11.566,7.867,18.319,8.873
						c3.099,0.462,6.252,0.08,9.384,0.004c3.368-0.083,6.762,0.188,10.094-0.311c2.573-0.385,5.053-1.221,7.518-2.052
						c0.284-0.096,0.608-0.232,0.687-0.522c0.062-0.228-0.057-0.462-0.173-0.669c-1.627-2.913-3.253-5.826-4.88-8.739
						c-0.252-0.452-0.528-0.928-0.985-1.173c-0.795-0.426-1.754,0.01-2.585,0.36c-3.141,1.323-6.703,1.385-10.049,0.736
						c-3.346-0.649-6.519-1.973-9.632-3.36c-1.558-0.695-3.17-1.454-4.225-2.795"/>
				</g>
				<g>
					<path style="fill:#F8F8F8;" d="M429.813,758.12c-6.98,4.327-14.008,8.678-21.648,11.691c-1.17,0.461-2.431,0.952-3.12,2.004
						c-0.875,1.337-0.529,3.1-0.127,4.647c0.393,1.514,0.82,3.044,1.62,4.388c1.484,2.493,4.081,4.086,6.644,5.446
						c4.433,2.354,9.397,4.363,14.351,3.556c2.971-0.484,5.681-1.945,8.295-3.437c3.177-1.813,6.538-3.98,7.719-7.442
						c0.554-1.622,0.562-3.372,0.565-5.086c0.003-1.588,0.005-3.176,0.008-4.764c0.001-0.33-0.001-0.67-0.125-0.976
						c-0.246-0.608-0.899-0.927-1.494-1.202c-3.142-1.451-6.264-3.222-8.365-5.972c-1.113-1.458-2.305-3.371-4.134-3.238"/>
				</g>
				<g>
					<path style="fill:#F8F8F8;" d="M469.25,728.979c-6.055,0.715-11.586,4.863-13.967,10.475c-0.916,2.159-1.386,4.477-2.156,6.692
						c-1.078,3.098-2.766,6.101-2.773,9.381c-0.007,3.385,1.78,6.484,3.563,9.362c1.831,2.957,3.797,5.965,6.688,7.9
						c1.611,1.078,3.449,1.777,5.319,2.286c2.729,0.743,5.574,1.1,8.395,0.906c4.975-0.341,9.783-2.422,13.573-5.664
						c3.789-3.242,6.566-7.61,8.091-12.358c1.199-3.733,1.64-7.663,2.023-11.565c0.037-0.377,0.07-0.774-0.088-1.119
						c-0.235-0.512-0.815-0.755-1.344-0.949c-3.353-1.232-6.749-2.388-9.913-4.046c-6.264-3.282-11.428-8.43-17.806-11.485
						c-0.19,0.205-0.22,0.541-0.069,0.776"/>
				</g>
				<g>
					<path style="fill:#F8F8F8;" d="M527.657,758.281c-2.113-0.247-4.226-0.494-6.339-0.741c-2.477-0.29-5.029-0.603-7.2-1.83
						c-1.384-0.782-2.672-1.949-4.261-2.011c-0.895-0.034-1.764,0.299-2.558,0.713c-3.341,1.743-5.711,4.918-7.481,8.244
						c-1.391,2.614-2.502,5.466-2.523,8.427s1.21,6.053,3.681,7.685c1.908,1.259,4.277,1.522,6.527,1.922
						c3.096,0.55,6.16,1.423,9.305,1.479c2.913,0.052,5.787-0.601,8.628-1.25c1.032-0.236,2.124-0.504,2.866-1.259
						c0.622-0.633,0.907-1.522,1.067-2.394c0.253-1.377,0.247-2.787,0.239-4.188c-0.019-3.567-0.037-7.134-0.056-10.7
						c-0.009-1.649-0.207-3.627-1.673-4.382"/>
				</g>
			</g>
			<g>
				<g>
					<path style="fill:#E6E6E6;" d="M28.023,403.704c-2.02,1.858-4.069,3.75-5.477,6.106c-1.408,2.356-2.11,5.282-1.228,7.881
						c0.637,1.88,2.034,3.416,3.595,4.642c6.746,5.302,17.268,5.022,23.722-0.633c1.414-1.238,2.661-2.734,3.276-4.51
						c1.805-5.211-2.654-10.901-7.934-12.495c-5.279-1.594-10.947-0.265-16.298,1.066"/>
				</g>
				<g>
					<path style="fill:#CFDE00;" d="M137.73,178.615c8.364-1.913,15.733,5.279,23.661,8.561c11.919,4.935,25.469,0.871,38.356,1.474
						c3.99,0.187,8.315,1.02,10.917,4.051c4.176,4.865,1.745,12.399-1.579,17.882c-3.608,5.953-8.063,11.393-13.187,16.104
						c7.885,6.136,12.581,16.165,12.243,26.151c-0.338,9.986-5.701,19.675-13.983,25.263c-1.778,1.2-3.726,2.263-5.009,3.982
						c-1.491,1.998-1.866,4.581-2.493,6.994c-4.045,15.566-21.864,26.064-37.441,22.058c-3.547,7.772-9.067,15.025-16.816,18.622
						c-7.749,3.597-17.94,2.684-23.635-3.684c-5.214-5.83-5.612-14.389-5.735-22.21c-4.349,5.081-8.773,10.229-14.334,13.945
						c-5.561,3.716-12.503,5.882-19.012,4.342c-2.946,8.454-13.042,13.224-21.797,11.356c-8.756-1.868-15.681-9.373-18.236-17.954
						s-1.172-17.988,2.374-26.209c3.548-8.225,9.47-15.71,17.537-19.605c1.199-0.579,2.496-1.122,3.287-2.193
						c1.422-1.928,0.634-4.611,0.021-6.927c-3.12-11.792,0.243-24.84,7.768-34.439c7.525-9.599,18.866-15.845,30.811-18.318
						c1.992-0.412,4.111-0.776,5.652-2.103c1.528-1.316,2.203-3.335,2.971-5.199c6.264-15.196,23.763-24.856,39.959-22.059"/>
				</g>
				<g>
					<g>
						<path style="fill:#896224;" d="M39.713,415.766c0.832-22.201,1.68-44.784,8.733-66.054
							c3.477-10.487,9.064-20.013,13.329-30.168c4.49-10.69,7.506-21.836,9.109-33.316c0.879-6.294-8.755-9.015-9.643-2.658
							c-1.621,11.606-4.608,23.05-9.331,33.795c-4.609,10.485-10.196,20.413-13.656,31.387c-6.81,21.598-7.7,44.557-8.542,67.015
							C29.472,422.201,39.472,422.191,39.713,415.766L39.713,415.766z"/>
					</g>
				</g>
				<g>
					<g>
						<path style="fill:#896224;" d="M59.633,325.707c15.921-8.979,31.806-18.025,47.766-26.933
							c7.339-4.096,14.766-8.03,22.861-10.422c7.747-2.289,15.535-3.768,22.907-7.202c5.829-2.715,0.756-11.337-5.047-8.635
							c-7.581,3.531-16.004,4.547-23.869,7.262c-7.654,2.643-14.847,6.425-21.9,10.361c-15.96,8.908-31.845,17.954-47.766,26.933
							C48.98,320.234,54.015,328.875,59.633,325.707L59.633,325.707z"/>
					</g>
				</g>
				<g>
					<g>
						<path style="fill:#896224;" d="M93.178,307.202c6.053-16.497,12.105-32.994,18.158-49.492
							c2.969-8.093,5.938-16.186,8.908-24.279c1.972-5.374,3.855-12.74-4.119-13.59c-6.391-0.681-6.343,9.324,0,10
							c0.227,0.024,0.453,0.048,0.68,0.072c-1.439-0.825-2.878-1.651-4.317-2.476c-0.004-1.639-0.176-1.772-0.516-0.4
							c-0.343,0.934-0.685,1.868-1.028,2.801c-0.571,1.556-1.142,3.113-1.713,4.669c-1.256,3.424-2.512,6.848-3.769,10.272
							c-2.398,6.537-4.796,13.073-7.195,19.61c-4.911,13.385-9.821,26.769-14.732,40.154
							C81.315,310.595,90.976,313.204,93.178,307.202L93.178,307.202z"/>
					</g>
				</g>
			</g>
			<g>
				<g>
					<path style="fill:#896224;" d="M141.116,282.322c4.596,0.722,9.192,1.445,13.788,2.167c3.148,0.495,4.504-4.323,1.329-4.821
						c-4.596-0.722-9.192-1.445-13.788-2.167C139.298,277.006,137.942,281.823,141.116,282.322L141.116,282.322z"/>
				</g>
			</g>
		</g>
	</g>
</g>
<g id="Layer_1">
</g>
</svg>
