<?xml version="1.0" encoding="iso-8859-1"?>
<!-- Generator: Adobe Illustrator 20.0.0, SVG Export Plug-In . SVG Version: 6.00 Build 0)  -->
<svg version="1.1" xmlns="http://www.w3.org/2000/svg" xmlns:xlink="http://www.w3.org/1999/xlink" x="0px" y="0px"
	 viewBox="0 0 841.916 828.668" style="enable-background:new 0 0 841.916 828.668;" xml:space="preserve">
<g id="Cottage">
	<g>
		<g>
			<defs>
				<circle id="SVGID_1_" cx="414.334" cy="414.334" r="414.334"/>
			</defs>
			<use xlink:href="#SVGID_1_"  style="overflow:visible;fill:#B7DDF3;"/>
			<clipPath id="SVGID_2_">
				<use xlink:href="#SVGID_1_"  style="overflow:visible;"/>
			</clipPath>
		</g>
		<g>
			<path style="fill:#DAC242;" d="M823.91,351.345L0.504,434.865c10.701,219.292,191.884,393.803,413.83,393.803
				c228.83,0,414.334-185.504,414.334-414.334C828.668,392.92,827.043,371.885,823.91,351.345z"/>
			<path style="fill:#FEFEFA;" d="M841.916,454.502c0,0-369.609,117.434-433.104,149.67L83.586,551.979l60.563-131.685l51.302-5.204
				L173.388,523.58l212.396,25.329L594,483.668l-13.822-14.904l65.726-16.202c0,0,12.57,17.636,14.872,15.544
				c2.303-2.091,169.626-48.144,169.626-48.144L841.916,454.502z"/>
			<polygon style="opacity:0.18;fill:#43393A;" points="208.291,486.135 44.747,601.813 287.363,623.948 658.996,449.828 			"/>
			<path style="fill:#F6C65B;" d="M217.906,240.358c0,0-16.118,148.903-3.838,247.915l132.017,6.908l19.189-180.372l-77.91-219.516
				L217.906,240.358z"/>
			<polygon style="fill:#F9E0A4;stroke:#F3E4B2;stroke-miterlimit:10;" points="359.901,314.81 511.106,324.02 501.895,467.55 
				346.085,495.181 			"/>
			<path style="fill:#F6C65B;" d="M502.457,466.203c1.535,0,44.008,10.746,44.008,10.746l-5.118-156.074l-32.238,4.094
				L502.457,466.203z"/>
			<path style="fill:#F9E0A4;stroke:#F3E4B2;stroke-miterlimit:10;" d="M546.976,476.949l110.02-27.121
				c0,0,21.492-152.492,18.422-167.332c0,0-51.172-179.613-59.871-189.848l-78.805,234.879L546.976,476.949z"/>
			<path style="fill:#E65656;" d="M191.843,330.086h-28.656l127.418-258.93c0,0,80.34,194.453,95.18,249.719l-26.182-2.171
				l-72.239-217.868L191.843,330.086z"/>
			<polygon style="fill:#F0907B;" points="291.116,71.156 481.988,108.511 511.106,324.02 385.785,320.875 			"/>
			<path style="fill:#E65656;" d="M482.499,108c0,0,103.409-26.466,133.047-15.352l-78.805,234.879h-27.683L482.499,108z"/>
			<path style="fill:#F5C400;" d="M582.285,462.109c0,0-23.539-128.441,16.375-134.582s23.539,124.348,23.539,124.348
				L582.285,462.109z"/>
			<polygon style="fill:#FDFDFD;" points="596.613,182.199 588.425,263.05 632.945,258.957 634.992,182.199 			"/>
			<polygon style="fill:#CDE7F8;" points="606.23,192.433 603.265,219.554 611.708,219.554 611.708,192.433 			"/>
			<path style="fill:#CDE7F8;" d="M603.265,228.254l-2.807,22.516c0,0,11.506,2.559,11.251,0s0.004-22.516,0.004-22.516H603.265z"/>
			<polygon style="fill:#CDE7F8;" points="622.199,192.433 622.199,217.507 629.363,217.507 629.363,194.48 			"/>
			<rect x="622.199" y="228.254" style="fill:#CDE7F8;" width="7.164" height="23.653"/>
			<polygon style="fill:#E65656;" points="411.635,93.758 415.976,21.007 437.468,16.402 429.112,97.849 			"/>
			<polygon style="fill:#E88879;" points="440.538,16.402 462.031,16.402 459.472,102.882 472.777,122.839 440.103,118.482 
				428.595,98.277 437.468,16.402 			"/>
			<polygon style="fill:#FDFDFD;" points="412.906,53.246 434.906,43.418 461.727,50.435 462.751,31.615 436.445,25.613 
				414.441,35.336 			"/>
			<polygon style="fill:#FDFDFD;" points="268.601,188.851 268.601,272.261 300.328,269.191 300.328,184.246 			"/>
			
				<line style="fill:none;stroke:#CDE7F8;stroke-width:5;stroke-miterlimit:10;" x1="281.179" y1="187.025" x2="284.33" y2="270.739"/>
			
				<line style="fill:none;stroke:#CDE7F8;stroke-width:5;stroke-miterlimit:10;" x1="268.601" y1="251.397" x2="300.328" y2="248.763"/>
			
				<line style="fill:none;stroke:#CDE7F8;stroke-width:5;stroke-miterlimit:10;" x1="268.601" y1="232.497" x2="300.328" y2="228.254"/>
			
				<line style="fill:none;stroke:#CDE7F8;stroke-width:5;stroke-miterlimit:10;" x1="268.601" y1="214.014" x2="300.328" y2="211.826"/>
			<polygon style="fill:#FDFDFD;" points="230.734,338.785 230.734,428.847 262.46,425.777 265.019,341.343 			"/>
			<polygon style="fill:#FDFDFD;" points="284.72,336.738 284.464,424.754 316.191,421.172 316.191,336.738 			"/>
			
				<line style="fill:none;stroke:#CDE7F8;stroke-width:5;stroke-miterlimit:10;" x1="244.55" y1="341.344" x2="247.876" y2="427.312"/>
			
				<line style="fill:none;stroke:#CDE7F8;stroke-width:5;stroke-miterlimit:10;" x1="231.758" y1="404.996" x2="262.971" y2="401.214"/>
			
				<line style="fill:none;stroke:#CDE7F8;stroke-width:5;stroke-miterlimit:10;" x1="230.735" y1="383.816" x2="262.971" y2="378.187"/>
			
				<line style="fill:none;stroke:#CDE7F8;stroke-width:5;stroke-miterlimit:10;" x1="230.734" y1="363.859" x2="264.507" y2="360.789"/>
			<line style="fill:none;stroke:#CDE7F8;stroke-width:5;stroke-miterlimit:10;" x1="286" y1="360.789" x2="315.167" y2="360.789"/>
			
				<line style="fill:none;stroke:#CDE7F8;stroke-width:5;stroke-miterlimit:10;" x1="284.977" y1="383.816" x2="316.19" y2="381.002"/>
			
				<line style="fill:none;stroke:#CDE7F8;stroke-width:5;stroke-miterlimit:10;" x1="284.977" y1="403.105" x2="315.678" y2="398.912"/>
			<polygon style="fill:#E65656;" points="325.913,342.879 325.913,310.64 310.817,323.945 			"/>
			<polygon style="fill:#E65656;" points="226.64,338.785 211.544,324.02 238.921,310.64 			"/>
			<polygon style="fill:#F0907B;" points="310.817,323.945 211.786,324.201 238.921,310.64 325.913,310.64 			"/>
			<polygon style="fill:#FDFDFD;" points="407.788,349.019 403.926,406.843 455.89,406.843 466.124,349.019 			"/>
			<path style="fill:#CDE7F8;" d="M421.093,360.789c0,0-5.629,17.398-4.094,17.143s18.026,0,18.026,0v-17.143H421.093z"/>
			<polygon style="fill:#CDE7F8;" points="419.046,383.816 419.046,398.912 432.863,398.912 435.025,383.816 			"/>
			<polygon style="fill:#CDE7F8;" points="445.656,360.789 442.585,377.931 455.378,378.187 458.449,362.324 			"/>
			<polygon style="fill:#CDE7F8;" points="442.585,385.863 442.585,398.912 450.517,401.008 452.82,385.863 			"/>
			<circle style="fill:#A6774E;" cx="614.267" cy="387.398" r="5.501"/>
			<path style="fill:#CFDE00;" d="M221.011,498.953c-4.871,1.365-12.578,4.506-15.818-1.305c-2.512-4.505,0.825-8.289,3.098-11.513
				c-5.006-3.459-11.905-14.916-1.162-16.451c-1.674-5.911-10.316-11.692-5.312-19c0.795-1.161,4.517-2.746,4.76-3.516
				c0.572-1.813-1.858-4.738-1.939-6.965c-0.151-4.111,5.235-12.983,10.642-10.742c3.531,1.464,5.012,10.76,4.387,13.751
				c6.742-0.51,10.023,8.619,9.53,14.06c-0.503,5.555-6.474,7.418-6.583,11.923c4.339,0.155,7.338-0.367,9.565,3.761
				c1.269,2.353,1.841,6.029-0.882,7.383c3.366-4.457,12.028-3.127,12.858,2.709c7.344-10.53,18.927,13.1,9.173,16.517
				c2.671,8.734-10.384,10.177-13.255,2.089c-1.74,3.813-5.681,6.595-10.105,4.993c-3.863-1.399-3.919-5.21-7.01-7.63
				c-1.49,1.419-2.019,0.417-3.48,0.448"/>
			<path style="fill:#CFDE00;" d="M361.222,509.187c-14.9,1-12.319-21.019-0.553-20.573c-3.626-3.882-8.485-6.749-5.613-13.124
				c1.451-3.219,5.022-4.586,8.135-4.764c0.524-7.622-1.48-17.435,8.994-18.813c4.699-0.618,8.946,2.506,10.133,7.11
				c7.808-2.799,15.021-7.728,17.372,4.069c7.75-5.144,19.78,8.963,12.335,15.813c3.997,0.032,5.469,3.178,7.427,5.679
				c-2.338-5.267,0.417-11.258,6.689-11.296c-3.048-6.079-7.15-10.991-2.53-17.296c-4.888-3.508-7.928-17.182,1.499-15.953
				c0.1-4.391-0.059-8.585,4.171-10.847c4.339-2.32,6.879,0.528,10.363,1.702c2.271,0.766,1.606,0.963,4.246,0.737
				c2.268-0.194,3.723-2.165,6.371-1.76c5.108,0.782,7.159,6.887,7.242,11.701c5.968-0.163,14.91,4.453,11.739,11.851
				c-0.631,1.472-3.501,1.945-3.685,3.576c-0.121,1.07,2.14,2.367,2.652,3.607c1.199,2.904,1.113,6.035,2.025,9.032
				c0.905-6.032,4.352-15.896,11.947-16.719c7.348-0.797,10.322,7.952,10.631,13.73c6.115-0.634,10.366,4.81,12.115,10.287
				c2.338,7.323-10.39,13.476-13.754,7.579c-2.146,3.747-16.516,13.596-16.986,4.234c-1.717,5.14-13.052,11.871-16.586,5.091
				c-5.874,9.39-22.139,8.496-23.188-3.99c-1.638,6.545-6.501,11.85-13.182,8.622c-5.826,11.037-21.938,7.198-29.814-0.015
				c-2.848,10.1-15.837,11.731-23.554,6.302c-1.572,4.452-6.058,1.667-8.687,3.916"/>
			<path style="fill:#D9AE79;" d="M745.425,663.464c39.348-52.21,66.635-114.02,77.715-181.294
				c-49.657,19.248-228.372,84.393-228.372,84.393L745.425,663.464z"/>
			<g>
				<path style="fill:#D9AE79;" d="M62.095,604.172c0,0,0.514,0.024,1.486,0.071l-1.486-6.211V604.172z"/>
				<path style="fill:#D9AE79;" d="M414.334,828.668c2.186,0,4.367-0.023,6.545-0.056l-35.094-182.796
					c-66.001-28.6-320.195-42.994-341.038-44.003l30.317,50.411C150.021,758.927,274.03,828.668,414.334,828.668z"/>
			</g>
			<path style="fill:#CFDB00;" d="M750.64,656.05c0.112-7.695,3.032-17.422-4.599-22.448c-3.559-2.344-14.419-4.241-16.789-0.07
				c-0.104-4.515,0.065-6.856-4.901-8.106c-3.585-0.902-8.609-0.157-11.919,0.875c3.507-6.205,7.834-16.866-2.209-19.843
				c-5.699-1.689-14.614,2.868-15.362,8.919c1.241-10.563-13.851-8.447-16.269-1.022c-0.554-7.197,0.704-13.049-7.293-16.146
				c-4.582-1.775-9.174-1.623-9.723,4.203c1.133-9.361-7.957-17.1-17.832-12.427c0.914-3.085,1.94-7.077-1.43-9.181
				c7.381,0.789,24.666-4,15.877-14.9c8.342,4.368,21.44-5.125,15-14.277c-1.366,4.687,11.539,7.054,15.259,5.383
				c6.663-2.994,8.089-10.698,8.028-17.074c5.138,1.869,8.43,5.339,14.465,4.607c4.595-0.557,10.266-4.135,10.63-9.216
				c2.163,2.704,7.76,7.255,11.592,6.628c3.693-0.605,3.739-3.664,6.715-4.072c6.147-0.843,9.229,3.596,14.403-2.837
				c2.691-3.345,3.893-8.221,4.101-12.487c3.811,0.808,8.1,3.516,12.11,2.014c3.13-1.172,4.953-5.401,6.73-7.782
				c5.336,3.187,23.512,12.431,26.773,2.133c15.579,5.794,23.934-14.592,13.903-25.6c-6.463-7.093-16.359-6.605-21.103,1.884
				c0.118-7.202-6.084-11.794-13.307-9.993c-5.242,1.307-9.583,7.038-12.817,11.044c-0.51-16.261-20.947-2.202-20.115,8.245
				c-7.53-1.088-8.981,8.027-9.237,13.797c-8.389-15.718-15.081,2.826-20.391,10.093c-4.457-8.015-9.204-8.8-16.328-2.943
				c1.289-5.943,1.639-14.576-7.012-12.653c-4.999,1.111-14.571,6.756-14.603,12.656c-7.583-26.951-29.414,17.104-9.709,17.429
				c-5.329-3.295-10.619,1.539-12.518,6.224c-4.81-7.872-11.276-5.715-16.468,0.356c0.083-10.133-8.199-16.755-17.986-12.665
				c-6.792,2.838-8.465,12.639-9.625,18.825c1.485-9.651-10.969-5.54-10.417,2.091c-12.753,2.129-17.343,23.758-1.533,24.707
				c-0.312,5.756-3.039,10.281,3.415,14.568c3.701,2.459,8.541,1.696,10.877-1.802c0.11,4.816,1.305,10.369,6.481,12.253
				c3.587,1.306,10.494-0.147,11.939-3.876c0.6,6.767,1.217,11.064,8.283,14.13c5.928,2.572,14.869,3.603,19.815-1.027
				c2.559,6.765,11.621,6.207,17.471,6.086c-16.202,3.357-1.31,22.596,10.291,21.017c-25.566,0.182,5.113,33.085,9.884,14.347
				c2.281,7.987,14.784,6.509,18.284,0.099c3.153,8.028,18.257,14.291,26.272,9.664c4.432-2.559,5.643-9.997,4.431-14.387"/>
			<path style="fill:#CFDB00;" d="M382.714,766.582c-8.429-0.823-5.612,10.162-1.716,13.821c7.999,7.511,26.347,10.35,34.508,1.608
				c13.448-14.408-0.923-26.303-10.162-36.513c6.597-0.157,8.673-9.521,9.582-14.691c1.645-9.359,1.056-21.15-10.063-24.648
				c13.008-0.975,6.486-25.236-6.687-23.988c8.066-2.823,8.364-7.082,7.477-15.271c-0.531-4.903-1.186-10.395-6.423-11.961
				c9.804-8.612-1.986-27.755-13.356-20.952c0.406-7.315-6.548-13.945-13.337-15.727c-7.389-1.939-12.732,0.716-17.349,6.045
				c0.92-11.817-14.138-11.442-17.005-1.624c-0.76-5.448-1.676-12.269-9.146-10.371c-6.259,1.59-8.19,8.149-9.339,13.471
				c-2.301,0.115-4.712,0.132-7.008,0c-1.096-3.883-3.245-9.505-6.537-11.971c-3.32-2.488-9.261-2.536-9.917,2.679
				c-0.125-4.172,2.222-17.17-6.049-15.634c-5.356,0.995-9.844,11.108-10.939,15.76c-5.632-4.467-6.658-12.363-14.994-13.805
				c-4.609-0.797-18.867,0.079-16.634,7.697c0.641-6.163,3.831-15.243-5.503-17.295c-6.758-1.486-11.813,5.675-14.082,11.15
				c-4.113-4.523-11.479-14.528-18.355-13.378c-4.368,0.731-11.141,5.573-12.758,9.662c0.002-11.948-3.808-20.838-16.25-21.873
				c-7.338-0.61-17.836,5.312-18.507,13.716c-1.096-11.336-12.709-13.301-22.456-12.218c-9.655,1.073-14.468,8.035-14.478,17.185
				c-11.102-18.557-25.021,3.505-28.388,16.048c-2.61,9.725,9.129,32.361,21.745,23.284c0.24,3.809-0.291,6.441,1.657,9.601
				c2.563,4.157,7.733,6.742,12.5,6.359c9.466-0.761,13.509-8.191,14.135-16.729c4.856,1.881,10.874,2.996,14.135-2.373
				c4.541-7.477-1.321-15.048-5.861-20.524c4.4,0.123,8.34,2.111,13.12,1.159c-0.189,6.929-3.27,10.704,5.322,12.953
				c12.417,3.25,10.992-8.049,7.459-16.031c3.135,2.235,9.495,2.431,11.321-1.583c2.799,9.231,8.002,20.649,17.626,24.331
				c8.141,3.114,26.589,5.327,27.42-6.757c-0.774,6.528,10.565,10.098,14.419,5.486c3.82,4.014,12.818,12.332,18.318,5.363
				c4.994,5.32,11.436,9.815,19.184,10.572c7.366,0.721,9.021-3.282,12.87-8.404c6.592,8.771,14.306,11.42,25.048,12.788
				c5.291,0.674,16.491,1.419,15.612-7.063c4.665,5.066,13.998,12.693,21.339,7.202c0.064,6.135,2.506,15.392,9.221,17.305
				c-0.654,8.326-7.098,17.819-2.126,26.853c2.236,4.064,8.438,7.467,12.487,8.756c-6.828,1.413-8.383,4.477-8.754,10.965
				c-0.261,4.57,1.21,10.476,5.619,12.707c-3.764-5.845-10.934,6.436-11.706,9.292c-1.755,6.496-0.383,12.839,3.691,18.038
				c2.463,3.143,10.147,11.863,14.675,9.53"/>
		</g>
	</g>
</g>
<g id="Layer_1">
</g>
</svg>
