<?xml version="1.0" encoding="iso-8859-1"?>
<!-- Generator: Adobe Illustrator 19.2.1, SVG Export Plug-In . SVG Version: 6.00 Build 0)  -->
<svg version="1.1" xmlns="http://www.w3.org/2000/svg" xmlns:xlink="http://www.w3.org/1999/xlink" x="0px" y="0px"
	 viewBox="0 0 965 965" style="enable-background:new 0 0 965 965;" xml:space="preserve">
<g id="Eco_Village">
	<g>
		<path style="fill:#A1CAF1;" d="M965,485.213c0,10.083-0.29,20.042-0.871,29.869c-1.411,24.116-4.524,47.454-9.199,69.963v0.123
			c-4.464,21.557-10.35,42.366-17.527,62.367c-22.182,61.805-56.715,115.994-99.776,161.288
			c-36.726,38.651-79.677,70.823-126.472,95.727c-20.28,10.799-41.28,20.226-62.81,28.221l-7.427,2.692
			c-16.256,5.753-32.792,10.697-49.538,14.812c-16.856,4.135-33.923,7.421-51.119,9.826c-21.901,3.081-44.012,4.729-66.154,4.883
			c-18.608,0.154-37.236-0.758-55.784-2.753c-109.776-11.782-216.668-61.467-299.438-156.18
			c-8.098-9.264-15.955-18.947-23.573-29.08c-3.053-4.064-6.036-8.148-8.929-12.252c-10.51-14.883-19.989-30.022-28.467-45.376
			c-9.559-17.268-17.867-34.792-24.964-52.5c-6.877-17.156-12.632-34.485-17.297-51.917c-0.511-1.853-0.991-3.706-1.461-5.558
			c-3.263-12.795-5.946-25.641-8.058-38.497c-2.352-14.289-4.014-28.599-5.005-42.899c-0.43-6.009-0.731-12.017-0.911-18.015
			c-1.091-35.396,1.862-70.588,8.478-104.98c10.82-56.329,31.45-110.507,60.268-159.916c3.874-6.674,7.918-13.266,12.112-19.756
			c44.363-68.867,105.031-127.202,177.14-167.245c17.016-9.458,34.683-17.893,52.921-25.212c0-0.01,0.01,0,0.01,0
			c18.758-7.544,38.077-13.9,57.986-18.937c0.04-0.01,0.07-0.01,0.1-0.01c0.01-0.01,0.02-0.01,0.03,0c0.01-0.01,0.02-0.01,0.03,0
			c0.01-0.01,0.02-0.01,0.03,0c0.01-0.01,0.02-0.01,0.03,0c26.916-6.807,54.813-11.229,83.53-13.01
			c37.436-2.324,76.253-0.143,116.062,7.155c32.762,6.009,64.322,15.415,94.351,27.842h0.01c7.027,2.897,13.973,5.968,20.83,9.192
			c38.937,18.322,75.022,41.773,107.453,69.39c5.485,4.657,10.871,9.448,16.146,14.361c0.48,0.43,0.951,0.87,1.421,1.32
			c10.3,9.642,20.179,19.725,29.609,30.207c16.035,17.81,30.78,36.768,44.082,56.707c1.852,2.764,3.663,5.548,5.445,8.353
			c1.842,2.866,3.643,5.752,5.415,8.66c3.093,5.067,6.096,10.184,8.999,15.364c2.443,4.34,4.815,8.721,7.127,13.133
			c3.303,6.315,6.476,12.713,9.499,19.182c18.258,38.938,31.48,80.454,38.857,123.558v0.03C962.678,431.465,965,458.15,965,485.213z
			"/>
		<g>
			<g>
				<rect x="553.719" y="120.905" style="fill:#9A3C06;" width="29.028" height="200.868"/>
			</g>
			<g>
				<rect x="143.343" y="232.386" style="fill:#9A3C06;" width="29.028" height="274.433"/>
			</g>
			<g>
				<path style="fill:#AD8519;" d="M189.794,332.135c0,8.086-0.881,15.958-2.542,23.533v0.01
					c-2.833,12.897-7.948,24.904-14.884,35.57c-7.657,11.792-17.537,21.925-29.028,29.797c-10.83,7.411-23.082,12.815-36.255,15.671
					c-7.047,1.535-14.354,2.344-21.851,2.344c-2.412,0-4.805-0.082-7.177-0.256c-27.346-1.883-51.8-14.535-69.357-33.83
					c10.82-56.329,31.45-110.507,60.268-159.916c3.874-6.674,7.918-13.266,12.112-19.756c1.371-0.061,2.763-0.092,4.154-0.092
					c21.501,0,41.49,6.633,58.106,18.015c7.487,5.128,14.284,11.208,20.229,18.097c3.193,3.675,6.136,7.585,8.799,11.699
					c1.962,3.009,3.774,6.121,5.425,9.345c3.523,6.827,6.346,14.105,8.358,21.71c1.001,3.747,1.802,7.575,2.392,11.474
					c0.13,0.829,0.25,1.669,0.35,2.508C189.484,322.666,189.794,327.365,189.794,332.135z"/>
				<path style="fill:#B6BB44;" d="M964.129,515.082c-1.411,24.116-4.524,47.454-9.199,69.963v0.123
					c-4.464,21.557-10.35,42.366-17.527,62.367c-22.182,61.805-56.715,115.994-99.776,161.288
					c-36.726,38.651-79.677,70.823-126.472,95.727c-20.28,10.799-41.28,20.226-62.81,28.221l-7.427,2.692
					c-16.256,5.753-32.792,10.697-49.538,14.812l-51.119,9.826c-21.901,3.081-44.012,4.729-66.154,4.883
					c-18.608,0.154-37.236-0.758-55.784-2.753c-109.776-11.782-216.668-61.467-299.438-156.18l-32.501-41.333
					c-10.51-14.883-19.989-30.022-28.467-45.376c-9.559-17.268-17.867-34.792-24.964-52.5
					c-6.877-17.156-12.632-34.485-17.297-51.917c-0.511-1.853-0.991-3.706-1.461-5.558c-3.263-12.795-5.946-25.641-8.058-38.497
					c-2.352-14.289-4.014-28.599-5.005-42.899c-0.43-6.009-0.731-12.017-0.911-18.015l77.835,0.419l29.028,0.154l65.283,0.348
					l39.408,0.205l64.963,0.348l273.683,1.453l6.917,0.041l256.106,1.361l16.636,0.082l68.916,0.368l16.636,0.092l40.569,0.215
					L964.129,515.082z"/>
				<polygon style="fill:#BD806F;" points="172.371,324.148 172.371,565.811 557.341,565.811 557.341,182.283 				"/>
				<path style="fill:#B6BB44;" d="M807.739,128.828c-0.531,0.84-1.091,1.668-1.661,2.488c-11.501,16.5-28.498,28.722-48.247,33.902
					l-0.01,0.01c-6.796,1.771-13.923,2.723-21.26,2.723c-7.237,0-14.264-0.921-20.97-2.651
					c-29.038-7.503-52.15-30.216-60.748-59.379c-2.352-7.984-3.624-16.47-3.624-25.242c0-16.378,4.414-31.701,12.082-44.792h0.01
					c7.027,2.897,13.973,5.968,20.83,9.192c38.937,18.322,75.022,41.773,107.453,69.39
					C797.078,119.124,802.464,123.915,807.739,128.828z"/>
				<path style="fill:#E65656;" d="M893.711,234.074c-1.772-2.907-3.573-5.794-5.415-8.66c-1.782-2.805-3.593-5.589-5.445-8.353
					c-13.303-19.94-28.047-38.897-44.082-56.707c-9.429-10.482-19.309-20.564-29.609-30.206l-1.511,0.061l-1.572,1.105
					l-48.246,33.902l-0.01,0.01L582.742,288.274l-25.404,17.852l-0.39,0.276l-0.31,9.663l-0.18,5.712L555.946,338l-2.593,81.97
					l-2.933,92.912l-1.672,52.93l-2.502,79.063l391.156,2.661c7.177-20.001,13.063-40.811,17.527-62.368v-0.123
					c4.674-22.509,7.787-45.847,9.199-69.963c0.581-9.827,0.871-19.786,0.871-29.869c0-27.064-2.322-53.749-6.807-79.871v-0.031
					c-7.377-43.104-20.6-84.621-38.857-123.558c-3.023-6.469-6.196-12.867-9.499-19.182c-2.312-4.412-4.685-8.793-7.127-13.133
					L893.711,234.074z"/>
				<polygon style="fill:#7B1E30;" points="826.676,167.952 553.357,419.965 555.757,316.545 				"/>
				<path style="fill:#F9D893;" d="M838.768,160.355l-12.122,7.615L582.742,321.172l-0.961,0.604l-24.443,15.354l-1.391,0.87
					l-0.701,0.44l-28.007,17.596l-33.272-42.531l59.747-39.961l3.624-2.416l25.404-16.992l132.848-88.838l76.003-50.831
					c5.485,4.657,10.871,9.448,16.146,14.361c0.48,0.43,0.951,0.87,1.421,1.32C819.46,139.791,829.339,149.873,838.768,160.355z"/>
				<rect x="813.445" y="425.292" style="fill:#B63344;" width="102.183" height="221.138"/>
				
					<rect x="770.978" y="497.759" transform="matrix(-1.836970e-16 1 -1 -1.836970e-16 1396.7524 -332.3211)" style="fill:#922434;" width="187.117" height="68.914"/>
				<rect x="782.255" y="393.701" style="fill:#F9D893;" width="164.563" height="44.957"/>
				<path style="fill:#E7EFFA;" d="M902.71,249.438c2.442,4.34,4.815,8.721,7.127,13.133v23.747v17.012v58.775h-39.208h-16.636
					h-38.027v-58.775v-17.012v-60.904h38.027h16.636h17.667c1.842,2.866,3.643,5.753,5.415,8.66L902.71,249.438z"/>
				<path style="fill:#A1CAF1;fill-opacity:0.75;" d="M902.71,249.438c2.442,4.34,4.815,8.721,7.127,13.133v23.747v17.012v58.775
					l-7.127-10.379l-32.081-46.717l-1.151-1.679l-11.691-17.012l-3.794-5.527l-32.081-46.717l-5.946-8.66h38.027h16.636h17.667
					c1.842,2.866,3.643,5.753,5.415,8.66L902.71,249.438z"/>
				<path style="fill:#F9D893;" d="M909.837,262.571c-2.312-4.412-4.684-8.793-7.127-13.133v106.137h-80.798V234.074h71.799
					c-1.772-2.907-3.573-5.794-5.415-8.66c-1.782-2.805-3.594-5.589-5.445-8.353h-77.575v155.525h114.06v-90.834
					C916.313,275.284,913.14,268.887,909.837,262.571z"/>
				<g>
					<rect x="853.99" y="225.417" style="fill:#F9D893;" width="16.635" height="140.338"/>
				</g>
				
					<line style="fill:none;stroke:#F9D893;stroke-width:14;stroke-miterlimit:10;" x1="809.433" y1="295.586" x2="810.027" y2="295.586"/>
				<g>
					<rect x="810.027" y="286.321" style="fill:#F9D893;" width="99.807" height="17.011"/>
				</g>
				<ellipse style="fill:#C29416;" cx="371.577" cy="123.961" rx="107.655" ry="110.089"/>
				<rect x="591.402" y="438.657" style="fill:#F9D893;" width="56.439" height="32.199"/>
				<polygon style="fill:#782617;" points="557.341,195.706 172.371,362.109 172.569,308.04 				"/>
				<path style="fill:#FBD4B9;" d="M837.627,808.823c-36.726,38.651-79.677,70.823-126.472,95.727
					c-20.28,10.799-41.28,20.226-62.81,28.221l-52.1-26.173l-50.389-25.314l-60.588-30.442l-48.437-24.331l-67.415-33.871
					l-56.484-28.374l-29.819-14.975l-41.41-20.8l-47.376-23.809l-57.916-29.091l-40.469-20.328l-30.96-15.559l-32.031-16.091
					l-17.297-8.69c-0.511-1.853-0.991-3.706-1.461-5.558c-3.263-12.795-5.946-25.641-8.058-38.497
					c-2.352-14.289-4.014-28.599-5.005-42.899L837.627,808.823z"/>
				<rect x="622.295" y="454.757" style="fill:#F9D893;" width="63.568" height="30.68"/>
				<polygon style="fill:#F9D893;" points="608.829,140.971 137.518,295.586 137.518,332.138 596.155,183.093 				"/>
				<path style="fill:#A1CAF1;fill-opacity:0.75;" d="M455.617,359.145c0,0.996-0.036,1.981-0.095,2.965
					c-1.414,22.588-18.892,40.692-40.885,42.502c-1.2,0.109-2.424,0.158-3.648,0.158c-0.772,0-1.533-0.024-2.293-0.061
					c-22.611-1.166-40.79-19.55-42.228-42.6c-0.059-0.984-0.095-1.968-0.095-2.965c0-1.045,0.036-2.09,0.107-3.111
					c1.509-22.989,19.652-41.299,42.216-42.466c0.76-0.036,1.521-0.061,2.293-0.061c1.224,0,2.448,0.049,3.648,0.158
					c21.946,1.81,39.4,19.842,40.873,42.369C455.582,357.055,455.617,358.1,455.617,359.145z"/>
				<path style="fill:#A05943;" d="M281.684,390.196c0-27.926-16.757-50.564-37.428-50.564s-37.428,22.638-37.428,50.564
					c0,9.147,1.807,17.718,4.951,25.12v148.776h64.954V415.316C279.877,407.914,281.684,399.342,281.684,390.196z"/>
				<path style="fill:#C38068;" d="M66.225,625.774l-0.901,10.195l-0.34,3.736l-7.067,79.636
					c-9.559-17.268-17.867-34.792-24.964-52.5v-65.367L66.225,625.774z"/>
				<path style="fill:#C38068;" d="M118.886,806.05c2.392-14.586,13.883-102.534,17.527-130.457c0.11-0.891,0.22-1.709,0.31-2.467
					c0.51-3.849,0.791-6.039,0.791-6.039L97.115,640.36c0,0.614-0.34,4.934-0.901,11.679c-0.08,1.024-0.17,2.098-0.27,3.224
					c-2.282,27.115-7.297,83.904-9.559,109.453L118.886,806.05z"/>
				<path style="fill:#C38068;" d="M195.739,688.957l-15.446,172.536c0,0,43.963,27.946,43.963,24.301
					s20.001-179.827,20.001-179.827L195.739,688.957z"/>
				<path style="fill:#C38068;" d="M315.745,742.419c-1.188,3.645-21.387,185.902-21.387,185.902s49.904,20.656,49.904,17.011
					s28.912-174.967,28.912-174.967L315.745,742.419z"/>
				<path style="fill:#C38068;" d="M488.031,822.611l-2.762,28.231l-0.34,3.45l-10.82,110.692
					c-18.608,0.154-37.236-0.758-55.784-2.753l18.157-133.139l0.35-2.579l2.482-18.21L488.031,822.611z"/>
				<polygon style="fill:#C38068;" points="591.38,950.274 595.655,911.91 596.245,906.597 598.527,886.126 547.438,859.062 
					545.857,881.284 545.536,885.829 540.261,960.101 				"/>
				<g>
					<g>
						<path style="fill:#FDFBFD;" d="M414.637,404.612v-42.502v-6.075v-42.369c-1.2-0.109-2.424-0.158-3.648-0.158
							c-0.772,0-1.533,0.024-2.293,0.061v42.466v6.075v42.6L414.637,404.612z"/>
					</g>
					<g>
						<path style="fill:#FDFBFD;" d="M455.51,356.034h-40.873h-5.941H366.48c-0.071,1.021-0.107,2.066-0.107,3.111
							c0,0.996,0.036,1.981,0.095,2.965h42.228h5.941h40.885L455.51,356.034z"/>
					</g>
				</g>
				<path style="fill:#B56952;" d="M648.345,932.771c21.531-7.994,42.531-17.422,62.81-28.221
					C484.377,797.523,129.947,630.104,6.137,570.868c2.112,12.856,4.795,25.703,8.058,38.497l18.758,9.765l32.371,16.838
					l30.89,16.07l40.509,21.086l57.746,30.043l47.316,24.617l41.33,21.506l29.759,15.477l56.304,29.295l67.305,35.027l48.447,25.201
					l60.608,31.537l50.118,26.081l45.264,23.553L648.345,932.771z"/>
				<path style="fill:#B6BB44;" d="M274.325,123.956c0,12.406-1.581,24.443-4.544,35.897
					c-12.552,48.508-49.948,86.678-97.414,99.432c-2.893,0.778-5.836,1.453-8.799,2.037c-6.586,1.299-13.343,2.119-20.229,2.416
					c-1.932,0.081-3.874,0.122-5.826,0.122c-24.974,0-48.397-6.848-68.546-18.803c3.874-6.674,7.918-13.266,12.112-19.756
					c44.363-68.867,105.031-127.202,177.14-167.245c4.935,9.417,8.828,19.468,11.561,30.012
					C272.744,99.522,274.325,111.55,274.325,123.956z"/>
				<path style="fill:#AD8519;" d="M684.14,45.077c-3.894,23.246-14.334,44.209-29.298,60.843
					c-18.408,20.492-43.682,34.423-72.099,37.996c-4.755,0.604-9.599,0.911-14.514,0.911c-4.915,0-9.759-0.307-14.514-0.911
					c-31.05-3.9-58.346-20.186-77.034-43.861c-10.71-13.542-18.588-29.5-22.732-46.962v-0.01
					c-2.192-9.151-3.343-18.711-3.343-28.548c0-8.097,0.781-15.999,2.282-23.645c37.436-2.324,76.253-0.143,116.062,7.155
					c32.762,6.009,64.322,15.415,94.351,27.842h0.01C670.336,38.782,677.283,41.853,684.14,45.077z"/>
			</g>
			<g>
				<rect x="78.06" y="413.106" style="fill:#9A3C06;" width="29.028" height="122.755"/>
			</g>
		</g>
	</g>
</g>
<g id="Layer_1">
</g>
</svg>
