<?xml version="1.0" encoding="iso-8859-1"?>
<!-- Generator: Adobe Illustrator 19.2.1, SVG Export Plug-In . SVG Version: 6.00 Build 0)  -->
<!DOCTYPE svg PUBLIC "-//W3C//DTD SVG 1.1//EN" "http://www.w3.org/Graphics/SVG/1.1/DTD/svg11.dtd">
<svg version="1.1" xmlns="http://www.w3.org/2000/svg" xmlns:xlink="http://www.w3.org/1999/xlink" x="0px" y="0px"
	 viewBox="0 0 828.67 828.67" style="enable-background:new 0 0 828.67 828.67;" xml:space="preserve">
<g id="Floral_Lifestyle">
	<path style="fill:#87C9F0;" d="M828.67,414.33c0,78.27-21.7,151.47-59.42,213.91C696.7,748.36,564.9,828.67,414.34,828.67
		c-150.57,0-282.37-80.31-354.91-200.43C21.7,565.8,0,492.6,0,414.33C0,185.5,185.5,0,414.34,0c17.53,0,34.8,1.09,51.75,3.21
		c10.29,1.27,20.46,2.93,30.5,4.96c74.77,15.05,142.26,50.24,196.56,99.67l18.26,17.67c10.93,11.23,21.22,23.08,30.83,35.5
		c2.2,2.84,4.37,5.72,6.5,8.63v0.01c12.92,17.62,24.47,36.29,34.51,55.87c0,0,0.01,0,0.01,0.01c2.35,4.6,4.62,9.23,6.81,13.92
		c2.49,5.35,4.87,10.75,7.13,16.22c1.38,3.3,2.71,6.64,4,9.99v0.01l0.01,0.03c4.01,10.42,7.6,21.04,10.76,31.84
		C822.84,334.58,828.67,373.78,828.67,414.33z"/>
	<path style="fill:#E7E1E6;" d="M769.25,628.24C696.7,748.36,564.9,828.67,414.34,828.67c-150.57,0-282.37-80.31-354.91-200.43
		H769.25z"/>
	<g>
		<polygon style="fill:#BF8D50;" points="169.914,550.941 639.173,493.349 687.628,542.821 222.892,597.142 		"/>
		<polygon style="opacity:0.4;fill:#FFFFFF;" points="217.584,335.514 279.665,558.341 324.009,550.581 324.009,329.971 		"/>
		<g>
			<path style="fill:#94C01F;" d="M235.625,322.876c2.429,6.849,4.835,13.705,7.206,20.573l7.151,20.591l14.064,41.261
				c4.715,13.745,9.286,27.537,13.924,41.307l13.751,41.364l-2.841,0.801l-9.903-42.516c-3.24-14.186-6.56-28.354-9.722-42.558
				l-9.576-42.593l-4.665-21.325c-1.568-7.105-3.1-14.219-4.607-21.339c1.819,7.046,3.612,14.099,5.371,21.16l5.313,21.173
				l10.379,42.404c3.489,14.128,6.821,28.292,10.233,42.438l10.053,42.481l-2.841,0.801l-13.596-41.415
				c-4.477-13.823-9.022-27.624-13.423-41.472l-13.283-41.519l-6.523-20.798C239.905,336.764,237.753,329.824,235.625,322.876z"/>
		</g>
		<g>
			<path style="fill:#94C01F;" d="M278.862,321.767c0.571,6.696,1.125,13.392,1.638,20.09l1.579,20.092l2.927,40.191l1.431,20.097
				l1.36,20.099l2.615,40.201l-2.919-0.163l12.104-85.748c2.011-14.292,3.966-28.593,5.78-42.909
				c0.945-7.154,1.858-14.312,2.671-21.48c0.409-3.584,0.778-7.172,1.104-10.764c0.14-1.796,0.329-3.593,0.408-5.393
				c0.055-0.9,0.107-1.8,0.1-2.701c-0.003-0.45,0.025-0.903-0.002-1.351l-0.122-1.347l0.18,1.343c0.046,0.45,0.038,0.902,0.06,1.353
				c0.046,0.904,0.032,1.807,0.016,2.71c-0.002,1.809-0.114,3.611-0.177,5.418c-0.212,3.606-0.467,7.21-0.762,10.809
				c-0.588,7.199-1.263,14.39-1.995,21.575c-1.536,14.361-3.213,28.704-4.947,43.039c-0.851,7.17-1.778,14.33-2.706,21.49
				l-2.823,21.474l-2.951,21.456l-3.033,21.446l-2.039,14.419l-0.88-14.582l-2.426-40.207l-1.16-20.105l-1.09-20.107l-2.115-40.217
				l-0.942-20.112C279.418,335.178,279.131,328.473,278.862,321.767z"/>
		</g>
		<path style="fill:#94C01F;stroke:#94C01F;stroke-width:0.7391;stroke-miterlimit:10;" d="M158.754,307.258
			c1.984,6.267,7.75,10.753,13.964,12.899c6.213,2.145,12.91,2.311,19.482,2.455c10.486,0.23,21.562,0.318,30.672-4.878
			c0.437-9.207-6.042-17.812-14.36-21.781c-8.319-3.969-18.071-3.923-27.078-1.962c-8.12,1.768-16.043,5.108-22.234,10.651
			c-0.82,0.734-1.2,2.572-0.104,2.473"/>
		<path style="fill:#FE86A4;" d="M303.632,263.434c-3.111,0.133-5.945-1.697-8.384-3.633c-2.452-1.947-4.809-4.146-6.211-6.946
			c-1.402-2.8-1.701-6.317-0.088-9.001s5.418-4.054,8.094-2.429c-4.344-3.778-8.172-8.818-8.281-14.574
			c-0.109-5.756,5.036-11.719,10.687-10.621c5.186,1.007,7.787,6.716,9.572,11.688c-0.387-4.623-1.814-9.189-1.437-13.813
			c0.377-4.624,3.361-9.575,7.979-10.014c3.455-0.328,6.735,2.054,8.414,5.091s2.047,6.615,2.154,10.083
			c0.242,7.847-1.209,16.684-7.552,21.309c1.452-2.13,3.106-4.121,4.932-5.94c1.6-1.593,3.396-3.09,5.553-3.758
			c4.96-1.535,10.802,2.643,10.954,7.833c0.151,5.19-5.439,9.701-10.479,8.457c1.921,2.525,3.418,5.82,2.371,8.815
			c-1.047,2.995-5.735,4.422-7.449,1.752c1.787,5.606-1.568,12.332-7.122,14.275S305.731,268.931,303.632,263.434L303.632,263.434z"
			/>
		<path style="fill:#94C01F;stroke:#94C01F;stroke-width:0.7391;stroke-miterlimit:10;" d="M247.806,313.189
			c-3.181-11.618-13.076-20.388-23.972-25.526c-5.279-2.489-10.984-4.307-16.821-4.327c-5.836-0.02-11.831,1.912-15.941,6.056
			c-0.526,0.531-1.041,1.136-1.165,1.874c-0.118,0.7,0.135,1.408,0.427,2.055c1.494,3.305,4.094,5.997,6.94,8.246
			c6.971,5.509,15.58,8.674,24.337,10.173s17.71,1.408,26.583,0.943"/>
		<path style="fill:#94C01F;stroke:#94C01F;stroke-width:0.7391;stroke-miterlimit:10;" d="M273.299,311.697
			c-5.273-0.599-10.015-3.468-14.216-6.711c-13.243-10.223-22.92-24.978-27.021-41.197c5.908-4.099,14.351-2.87,20.187,1.331
			c5.836,4.201,9.49,10.781,12.19,17.445c3.718,9.181,5.982,18.949,6.682,28.83"/>
		<path style="fill:#94C01F;stroke:#94C01F;stroke-width:0.7391;stroke-miterlimit:10;" d="M278.077,306.22
			c-1.768-3.461-0.323-7.64,1.296-11.173c2.699-5.892,5.847-11.566,8.99-17.233c5.804-10.462,12.05-21.395,22.292-27.578
			c6.535,8.536,9.127,20.108,6.31,30.483s-11.172,19.199-21.535,22.057c-5.587,1.541-11.509,1.405-17.164,2.674"/>
		<path style="fill:#94C01F;stroke:#94C01F;stroke-width:0.7391;stroke-miterlimit:10;" d="M303.537,308.859
			c10.01,2.269,20.801,0.914,29.939-3.76c4.338-2.219,8.282-5.14,11.992-8.298c4.387-3.734,8.76-8.433,8.916-14.192
			c0.021-0.778-0.052-1.601-0.496-2.24c-0.371-0.534-0.954-0.874-1.523-1.189c-3.244-1.794-6.643-3.31-10.145-4.525
			c-2.527-0.877-5.156-1.603-7.831-1.548c-7.216,0.149-12.995,5.749-17.965,10.983c-6.314,6.649-12.979,14.088-13.614,23.235
			c-0.068,0.978,0.219,2.286,1.198,2.338"/>
		<path style="fill:#FE86A4;" d="M177.1,243.223c-5.342-4.268-13.908-3.908-18.685,0.984s-4.822,13.699,0.089,18.457
			c4.911,4.757,13.952,4.291,18.154-1.102c-2.707,1.361-5.164,3.218-7.213,5.45c-1.491,1.625-2.807,3.549-3.066,5.739
			c-0.372,3.142,1.798,6.393,4.842,7.254c3.045,0.861,6.596-0.771,7.925-3.643c-1.55,1.657-3.137,3.375-3.925,5.503
			c-0.787,2.128-0.576,4.794,1.111,6.311c0.85,0.765,1.983,1.161,3.118,1.298c3.632,0.439,7.236-1.699,9.329-4.699
			s2.885-6.728,3.13-10.378c2.08,3.661,7.903,3.689,10.918,0.749c3.015-2.939,3.571-7.679,2.684-11.795
			c0.729,3.353,4.893,5.322,8.09,4.077s4.962-5.125,4.17-8.464c-0.792-3.339-3.808-5.918-7.171-6.603
			c-3.362-0.685-6.943,0.371-9.694,2.421c5.594-3.737,9.04-10.48,8.792-17.203c-0.052-1.413-0.275-2.872-1.054-4.052
			c-1.317-1.994-3.909-2.732-6.297-2.796c-9.448-0.254-17.97,9.076-16.863,18.462c2.583-5.107,3.89-10.855,3.769-16.577
			c-0.045-2.128-0.359-4.422-1.829-5.962c-2.281-2.389-6.471-1.817-8.965,0.348s-3.694,5.428-4.725,8.565
			c-0.871,2.649-1.107,6.509,1.574,7.274L177.1,243.223z"/>
		<path style="fill:#FE86A4;" d="M230.82,239.386c-5.336-0.359-10.523-4.039-11.848-9.221c-1.325-5.181,2.02-11.332,7.273-12.336
			c6.085-1.163,11.419,4.102,14.833,9.271c-0.277-3.659,0.184-7.656,2.664-10.362c2.48-2.705,7.481-3.205,9.596-0.206
			c0.985,1.397,1.163,3.195,1.221,4.903c0.109,3.195-0.09,6.4-0.593,9.556c1.748-4.054,4.764-7.551,8.518-9.874
			c2.831-1.752,6.542-2.807,9.436-1.161c3.087,1.757,3.952,5.756,4.279,9.293c0.177,1.913,0.276,3.909-0.445,5.689
			c-0.722,1.781-2.495,3.277-4.404,3.067c4.668,0.626,7.305,5.625,8.713,10.12c0.528,1.685,0.98,3.574,0.203,5.16
			c-0.604,1.234-1.839,2.024-3.062,2.65c-2.257,1.155-4.772,1.985-7.296,1.747c-2.524-0.238-5.038-1.724-5.951-4.089
			c2.246,3.708,2.393,8.746-0.104,12.289c-2.497,3.544-7.714,5.057-11.501,2.946c-3.787-2.111-5.12-7.847-2.295-11.135
			c-3.213,2.105-6.529,4.253-10.295,5.012c-3.766,0.759-8.139-0.192-10.39-3.305c-2.251-3.113-1.156-8.423,2.524-9.526
			c-2.909,2.564-7.821,2.395-10.547-0.362c-2.726-2.757-2.839-7.671-0.243-10.55c2.605-2.89,7.04-3.388,10.836-2.536L230.82,239.386
			z"/>
		<path style="fill:#FE86A4;" d="M358.754,245.404c1.342-2.233,2.703-4.512,3.299-7.047c0.595-2.536,0.312-5.417-1.369-7.408
			c-3.261-3.862-9.787-2.394-13.516,1.018c-4.676,4.278-6.931,11.043-5.757,17.27c0.402-3.453-3.101-6.622-6.565-6.323
			c-3.463,0.299-6.267,3.528-6.59,6.989c-0.323,3.461,1.534,6.906,4.293,9.02c2.759,2.114,6.3,3.016,9.775,3.103
			c-3.272,0.518-7.073,2.164-7.434,5.457c-0.241,2.203,1.323,4.308,3.309,5.292c1.986,0.983,4.299,1.046,6.507,0.863
			c8.023-0.664,15.752-4.418,21.233-10.315c-2.557,2.707-1.71,7.792,1.586,9.525c2.318,1.218,5.276,0.778,7.455-0.676
			c2.179-1.453,3.653-3.779,4.575-6.231c1.067-2.84,1.443-6.101,0.194-8.865c-1.249-2.765-4.458-4.755-7.372-3.91
			c4.693-1.949,8.07-6.975,7.623-12.037s-5.025-9.563-10.106-9.48c-5.081,0.083-9.627,5.179-8.724,10.18L358.754,245.404z"/>
		<path style="fill:#FE86A4;" d="M274.126,196.836c-1.468-4.911-4.766-9.252-9.104-11.983c-1.727-1.087-3.765-1.946-5.769-1.559
			c-3.066,0.593-4.891,3.872-5.339,6.963c-0.967,6.676,3.01,13.76,9.214,16.41c-3.109-1.475-6.418,1.589-8.258,4.496
			c-2.167,3.425-3.96,7.742-2.26,11.421c1.558,3.373,5.664,4.951,9.369,4.678s7.12-2.015,10.42-3.723
			c-3.267,2.613-3.367,7.946-0.909,11.332s6.795,4.987,10.975,5.16c3.87,0.16,7.849-0.796,10.98-3.077
			c4.556-3.319,6.877-9.439,5.668-14.944c4.912-1,8.938-5.998,8.058-10.933c-0.88-4.935-7.32-8.201-11.473-5.395
			c2.787-2.537,5.402-5.458,6.578-9.039c1.176-3.581,0.605-7.946-2.218-10.443c-2.918-2.581-7.603-2.485-10.878-0.375
			c-3.275,2.11-5.234,5.854-5.951,9.684c1.46-3.016,2.951-6.16,2.972-9.511c0.021-3.351-1.889-6.966-5.142-7.772
			c-3.457-0.857-7.009,1.832-8.331,5.14c-1.321,3.308-0.957,7.023-0.461,10.55c0.171,1.218,0.868,2.808,2.062,2.513L274.126,196.836
			z"/>
		<g>
			<polygon style="fill:#99073B;" points="413.378,518.737 479.897,498.223 535.846,530.213 482.631,550.941 			"/>
			<polygon style="fill:#ECECEC;" points="413.378,503.113 413.378,516.417 483.223,549.041 532.003,528.531 528.308,513.933 
				479.897,533.15 			"/>
			<polygon style="fill:#AB063B;" points="410.791,503.216 477.31,480.94 533.112,514.672 481.164,536.647 			"/>
			<polygon style="fill:#99073B;" points="410.791,503.216 413.378,520.585 482.631,550.941 481.164,536.647 			"/>
		</g>
		<g>
			<path style="fill:#ECECEC;" d="M569.328,462.567c0,0,8.13-11.827,27.347-11.457s24.021,13.673,24.021,13.673
				S586.697,478.827,569.328,462.567z"/>
			<ellipse style="fill:#65001D;" cx="595.012" cy="466.261" rx="25.684" ry="7.021"/>
			<path style="fill:#FDFBFD;" d="M569.328,462.935l3.326,50.628c0,0,21.064,9.978,43.607-1.848l4.435-46.933
				C620.696,464.783,585.219,477.348,569.328,462.935z"/>
			<path style="fill:#FDFBFD;" d="M612.566,471.266c0,0,22.543-8.959,24.76-4.155c2.217,4.804,6.282,24.76,1.848,26.238
				c-4.435,1.478-25.868,7.753-29.194,5.724c-3.326-2.029,0-8.007,0-8.007s22.173,2.652,23.282-1.782s-1.478-18.018-1.478-18.018
				l-19.217,5.084V471.266z"/>
			<polygon style="opacity:0.13;fill:#3C3C3B;" points="620.696,468.404 619.783,474.44 624.83,473.283 625.939,466.906 			"/>
			<polygon style="opacity:0.13;fill:#3C3C3B;" points="618.15,491.73 622.861,491.851 622.861,498.223 617.47,498.918 			"/>
		</g>
		<polygon style="fill:#BF8D50;" points="169.914,550.941 169.914,653.681 186.393,653.681 178.154,558.341 		"/>
		<polygon style="fill:#BF8D50;" points="222.892,597.142 227.561,703.567 248.195,703.567 232.062,596.07 		"/>
		<path style="fill:#BCB21F;" d="M797.2,255.67c-6.82,10.13-20.63,13.97-32.94,16.68c-64.1,14.09-128.21,28.17-192.31,42.26
			c-6.1,1.34-12.45,2.68-18.52,1.23c-9.16-2.19-15.86-10.47-18.79-19.41c-2.93-8.95-2.74-18.57-2.53-27.97
			c0.16-6.82,0.42-13.97,2.32-20.44c1.03-3.51,2.53-6.81,4.75-9.75l-1.95,1.11c39.73-44.09,99.32-64.65,157.65-75.58
			c15.52-2.91,31.98-5.13,47.36-2.79c2.2,2.84,4.37,5.72,6.5,8.63v0.01c12.92,17.62,24.47,36.29,34.51,55.87c0,0,0.01,0,0.01,0.01
			c2.35,4.6,4.62,9.23,6.81,13.92C792.56,244.8,794.94,250.2,797.2,255.67z"/>
		<path style="fill:#77881C;" d="M555.179,213.523c10.872-7.304,20.099-17.043,26.805-28.293
			c-12.036-1.85-24.497-0.882-36.102,2.805c12.616-3.383,23.972-11.279,31.536-21.928c-12.126-2.265-24.9-0.934-36.298,3.784
			c12.105-4.151,21.853-14.599,25.155-26.963c-14.06-0.095-28.018,6.519-36.849,17.461c0.802-6.023,1.603-12.045,2.405-18.068
			c-8.896,4.95-16.821,11.637-23.197,19.572c-0.517,0.644-1.055,1.424-0.861,2.227c0.155,0.64,0.729,1.075,1.266,1.457
			c3.74,2.657,7.48,5.315,11.22,7.972c-7.042,4.252-14.083,8.505-21.125,12.757c3.405,2.775,8.093,3.904,12.388,2.983
			c-2.875,6.084-5.75,12.168-8.625,18.253c-0.837,1.772-1.598,4.096-0.228,5.497c0.841,0.86,2.162,0.973,3.363,1.033
			c3.305,0.168,6.611,0.336,9.916,0.503c-2.949,7.863-5.898,15.727-8.848,23.59c7.781-2.832,15.208-6.633,22.056-11.287
			c-1.984,6.585-3.609,13.279-4.867,20.04c4.727-0.217,9.076-2.51,13.244-4.751c16.25-8.736,32.501-17.472,48.751-26.209
			c-10.496-2.948-21.881-2.643-32.204,0.863L555.179,213.523z"/>
		<polygon style="fill:#BF8D50;" points="625.939,517.498 625.939,660.332 641.159,660.332 633.549,517.498 		"/>
		<polygon style="fill:#BF8D50;" points="687.628,542.821 706.474,680.287 687.628,680.287 679.844,543.731 		"/>
		<path style="fill:#77881C;" d="M489.996,128.236c7.337-6.087,15.454-11.233,24.089-15.272
			c-9.925-12.434-14.785-28.795-13.257-44.631c9.752,9.228,18.59,19.421,26.343,30.382c-6.973-14.574-6.669-32.419,0.796-46.748
			c8.12,9.963,11.634,23.533,9.372,36.185c1.508-10.379,6.688-20.188,14.41-27.285c1.568,9.659,0.985,19.661-1.694,29.072
			c6.799-5.99,16.032-9.132,25.073-8.531c-1.918,15.296-13.359,28.984-28.073,33.584c9.813-9.99,25.136-14.184,38.669-10.583
			c-8.242,13.685-22.056,23.899-37.555,27.768c8.229,1.404,16.669,0.483,24.994,1.101c8.325,0.618,17.133,3.177,22.258,9.765
			c-5.785,6.234-15.293,6.909-23.795,6.707c-11.78-0.279-23.539-1.433-35.149-3.448c-1.18,13.221-9.186,25.648-20.736,32.188
			c-1.428-10.585,0.87-21.635,6.398-30.774c-6.372-0.097-12.744-0.194-19.117-0.291c6.566-10.477,15.374-19.542,25.658-26.407
			c-10.325,1.663-20.65,3.326-30.975,4.99L489.996,128.236z"/>
		<path style="fill:#E7E1E6;" d="M801.21,265.7l-0.01-0.03v-0.01c-1.29-3.35-2.62-6.69-4-9.99c-2.26-5.47-4.64-10.87-7.13-16.22
			l-5.07,1.2l-38.88,9.23l-26.14,6.21l-177.63,42.17l-7.92-50.24l-0.62-3.92l-2.37-15.01l-8.77-55.59l-3.25-20.57l-0.28-1.82
			l-0.55-3.45l-2.58-16.35l-1.26-8.05l-1.56-9.87l-0.32-1.99v-0.01l-5.82-36.91L496.59,8.17l-30.5-4.96l45.22,355.88l300.66-61.55
			L801.21,265.7z"/>
		<path style="fill:#E7E1E6;" d="M749.3,261.27l-26.61,8.53c0,0-1.03-5.19-2.71-13.71c-4.1-20.8-12.05-61.47-18.24-94.99
			c-5.16-27.9-9.1-50.85-8.59-53.26l18.26,17.67l9.93,35.59l24.78,88.78L749.3,261.27z"/>
	</g>
</g>
<g id="Livello_1">
</g>
</svg>
