<?xml version="1.0" encoding="utf-8"?>
<!-- Generator: Adobe Illustrator 19.2.1, SVG Export Plug-In . SVG Version: 6.00 Build 0)  -->
<!DOCTYPE svg PUBLIC "-//W3C//DTD SVG 1.1//EN" "http://www.w3.org/Graphics/SVG/1.1/DTD/svg11.dtd">
<svg version="1.1" id="Livello_1" xmlns="http://www.w3.org/2000/svg" xmlns:xlink="http://www.w3.org/1999/xlink" x="0px" y="0px"
	 viewBox="0 0 828.7 828.7" style="enable-background:new 0 0 828.7 828.7;" xml:space="preserve">
<style type="text/css">
	.st0{fill:#87C9F0;}
	.st1{opacity:0.41;fill:#9CBBFF;enable-background:new    ;}
	.st2{opacity:0.67;fill:#FFFFFF;enable-background:new    ;}
	.st3{fill:none;}
	.st4{fill:#FFFFFF;}
	.st5{fill:#7F4404;}
	.st6{fill:#BF6706;}
	.st7{fill:#E5EDFF;}
	.st8{fill:#DE0F35;}
	.st9{fill:#E7E8EA;}
	.st10{fill:#E8E6E7;}
	.st11{opacity:0.23;fill:#3D3A3A;enable-background:new    ;}
	.st12{fill:#595353;}
	.st13{fill:#3D3A3A;}
</style>
<g id="Flowered_Balcony">
	<g>
		<path class="st0" d="M828.6,414.3c0,24.1-2,47.7-6,70.6c-1.6,9.2-3.4,18.3-5.6,27.2c-2.5,10.2-5.3,20.3-8.5,30.2v0
			c-0.2,0.6-0.4,1.3-0.6,1.9c-0.2,0.6-0.4,1.2-0.6,1.8c-0.2,0.5-0.3,0.9-0.5,1.4c0,0,0,0,0,0c-1,2.9-2,5.7-3,8.6
			c-0.5,1.2-0.9,2.5-1.4,3.7c-2.5,6.7-5.2,13.2-8,19.8c-0.7,1.6-1.3,3.1-2,4.6v0c-0.8,1.8-1.6,3.5-2.4,5.2v0
			c-4.1,8.8-8.5,17.4-13.2,25.8c-1.8,3.3-3.7,6.5-5.6,9.7c-4.4,7.4-9,14.6-13.8,21.7c-2.6,3.8-5.2,7.6-8,11.3
			c-0.6,0.9-1.3,1.7-1.9,2.6c-0.2,0.3-0.4,0.5-0.6,0.8c-2.9,3.9-5.9,7.8-9,11.6c-1,1.2-2,2.5-3,3.7c-2.4,2.9-4.8,5.8-7.2,8.6
			c-1.3,1.5-2.7,3.1-4,4.6c0,0,0,0,0,0c-0.4,0.4-0.7,0.8-1.1,1.2c-0.4,0.4-0.8,0.9-1.1,1.3c0,0,0,0,0,0c-2.9,3.2-5.8,6.3-8.8,9.4
			c-1,1.1-2.1,2.1-3.2,3.2c-0.8,0.8-1.5,1.6-2.3,2.4c-0.6,0.6-1.2,1.2-1.7,1.7c-0.4,0.4-0.8,0.8-1.2,1.2c-0.7,0.7-1.5,1.5-2.2,2.2
			c-1.3,1.3-2.6,2.5-3.9,3.7c-4.7,4.4-9.5,8.7-14.4,12.9c-4,3.4-8.1,6.8-12.2,10.1c-2.4,1.9-4.8,3.8-7.3,5.7
			c-0.4,0.3-0.8,0.6-1.2,0.9c-0.3,0.2-0.6,0.5-0.9,0.7c-0.9,0.6-1.7,1.3-2.6,1.9c-7.7,5.7-15.7,11.1-23.8,16.3
			c-64,40.6-140,64.1-221.5,64.1s-157.4-23.5-221.5-64.1c-8.1-5.2-16.1-10.6-23.8-16.3c-0.9-0.6-1.7-1.3-2.6-1.9
			c-0.5-0.4-1-0.7-1.5-1.1c0,0-0.1-0.1-0.1-0.1c-0.2-0.1-0.4-0.3-0.6-0.5c-2.3-1.7-4.5-3.5-6.8-5.2c-1.1-0.9-2.1-1.7-3.2-2.6
			c-6.7-5.4-13.2-11-19.5-16.7c-1.3-1.2-2.7-2.5-4-3.7c-1-0.9-1.9-1.8-2.9-2.7c-1.4-1.4-2.9-2.8-4.3-4.2c-0.3-0.3-0.7-0.6-1-1
			c-0.1-0.1-0.2-0.1-0.2-0.2c-0.2-0.2-0.5-0.5-0.7-0.7c-0.5-0.4-0.9-0.9-1.3-1.3c-1.5-1.5-3-3-4.4-4.5c-1.9-1.9-3.7-3.9-5.6-5.9
			c0,0,0,0,0,0c-1-1.1-2.1-2.2-3.1-3.4c-0.1-0.2-0.3-0.3-0.4-0.5c-2.2-2.4-4.3-4.8-6.4-7.2c-0.4-0.4-0.7-0.8-1.1-1.3
			C93.7,676.8,88.2,670,83,663c-0.8-1-1.6-2.1-2.3-3.1c-0.7-1-1.4-1.9-2.1-2.8v0c-1.7-2.4-3.4-4.7-5.1-7.1c-0.9-1.3-1.8-2.5-2.6-3.8
			c-4.8-7.1-9.4-14.4-13.8-21.8c-0.3-0.6-0.7-1.2-1-1.8c-1.9-3.2-3.8-6.5-5.6-9.8c0,0,0,0,0,0c-1-1.8-2-3.7-3-5.6
			c-0.1-0.1-0.2-0.3-0.2-0.4c-0.1-0.2-0.2-0.3-0.2-0.5s-0.2-0.3-0.2-0.5c-0.1-0.2-0.2-0.3-0.2-0.5c-0.1-0.2-0.2-0.3-0.2-0.5
			c-3.5-6.8-6.9-13.7-10-20.7c-0.5-1.2-1-2.3-1.5-3.5c-1.6-3.6-3.1-7.2-4.6-10.8c0,0,0,0,0,0c-0.5-1.1-0.9-2.2-1.3-3.3
			c-0.2-0.6-0.5-1.2-0.7-1.8c-2-5-3.8-10-5.6-15.1c-0.6-1.7-1.1-3.3-1.7-5c-0.7-2.1-1.4-4.2-2.1-6.4c-2.2-7-4.2-14.1-6-21.3
			c0,0,0,0,0,0c-2.1-8.3-4-16.8-5.6-25.3c-4.7-25-7.2-50.9-7.2-77.3c0-14,0.7-27.8,2-41.4c0.5-5.5,1.2-10.9,1.9-16.3
			c13.4-96,59.6-181.4,127-244.6c14.4-13.5,29.8-26,46-37.4c58.5-41,128.1-67.2,203.3-73.3c1.3-0.1,2.6-0.2,4-0.3l46-0.8
			c1.7,0.1,3.3,0.1,5,0.2c15.6,0.8,30.9,2.4,46,4.9c1.4,0.2,2.7,0.5,4.1,0.7c7.2,1.2,14.4,2.7,21.5,4.3
			c40.3,9.2,78.4,24.3,113.2,44.3c22.8,13,44.2,28.2,63.9,45.2c0.8,0.6,1.5,1.3,2.3,2c0.3,0.3,0.7,0.6,1,0.9
			c0.5,0.4,1.1,0.9,1.6,1.4c16.6,14.7,32,30.7,46,47.8c47,57.4,78.9,127.6,89.6,204.6c0.8,5.4,1.4,10.8,1.9,16.3
			C827.9,386.5,828.6,400.3,828.6,414.3z"/>
		<g>
			<g>
				<g>
					<path class="st1" d="M384.3,1.1v710H177V74.7c58.5-41,128.1-67.2,203.3-73.3C381.7,1.3,383,1.2,384.3,1.1z"/>
					<path class="st1" d="M686.4,101.9v624.3H479.1V10.4h27.8c40.3,9.2,78.4,24.3,113.2,44.3c22.8,13,44.2,28.2,63.9,45.2
						C684.9,100.5,685.6,101.2,686.4,101.9z"/>
					<path class="st2" d="M177,74.7c58.5-41,128.1-67.2,203.3-73.3L278.3,356.6l-4.7,16.3l-32.3,112.5l-10.4,36.3l-4.6,15.9
						l-3.7,12.7l-1,3.5l-2.3,7.9l-2.4,8.3l-4.5,15.7l-4.2,14.5l-1,3.5l0,0.1l-5.9,20.4l-2.5,8.6l-3.8,13.2l-0.9,3.1l-0.2,0.6
						l-2.9,10.1l-7.1,24.8l-0.4,1.5l-3,10.4L177,709V74.7z"/>
					<path class="st3" d="M382.1-4.7"/>
					<polygon class="st1" points="620.2,54.7 499.4,54.7 481.3,54.7 481.3,356.6 481.3,372.9 481.3,487.6 481.3,517.2 481.3,518.6 
						481.3,539.7 481.3,541.4 481.3,552.6 481.3,561.7 481.3,573 481.3,584.4 481.3,590.5 481.3,595.2 481.3,602.3 481.3,606.9 
						481.3,620.6 481.3,625.6 481.3,627.4 481.3,636 481.3,649.2 481.3,657.8 481.3,663 481.3,666.8 481.3,674.1 481.3,683.6 
						481.3,687.8 481.3,704.5 481.3,709 481.3,712.3 488.1,712.3 502.8,712.3 507.2,712.3 510.7,712.3 520.7,712.3 522.6,712.3 
						528.6,712.3 530.2,712.3 543.2,712.3 552.5,712.3 553.7,712.3 560.9,712.3 565.7,712.3 576,712.3 588.8,712.3 607.2,712.3 
						620.8,712.3 622.6,712.3 654.5,712.3 664.8,712.3 669.5,712.3 669.7,712.3 675.2,712.3 677.1,712.3 678.2,712.3 684.1,712.3 
						684.1,709 684.1,707.2 684.1,697.5 684.1,685.2 684.1,676.2 684.1,669.2 684.1,668 684.1,660.5 684.1,659.5 684.1,646.7 
						684.1,646.6 684.1,633.8 684.1,624.9 684.1,589.2 684.1,585.9 684.1,566.8 684.1,557.3 684.1,554.6 684.1,538.5 684.1,515.6 
						684.1,509.9 684.1,507.1 684.1,502.8 684.1,493.7 684.1,489.5 684.1,487 684.1,474.6 684.1,453.4 684.1,449.3 684.1,442.6 
						684.1,372.9 684.1,356.6 684.1,99.9 					"/>
					<g>
						<path class="st4" d="M177,74.7V709h-46V112C145.4,98.5,160.8,86,177,74.7z"/>
						<path class="st4" d="M735,152v533.2h-7.2c-1.3,1.5-2.7,3.1-4,4.6c0,0,0,0,0,0c-0.4,1.3-0.8,2.5-1.1,3.8v8.1h-9.9
							c-1,1.1-2.1,2.1-3.2,3.2c0.2,1.4,0.3,2.7,0.3,4.1H689V104.2C705.6,118.9,721,134.9,735,152z"/>
						<g>
							<polygon class="st4" points="430.3,0.3 430.3,709 384.3,709 384.3,1.1 							"/>
							<polygon class="st4" points="435.3,0.5 435.3,356.6 435.3,372.9 435.3,471.2 435.3,493 435.3,517.2 435.3,523 435.3,533.2 
								435.3,542.7 435.3,549.3 435.3,561.1 435.3,600.7 435.3,609 435.3,614.7 435.3,625.1 435.3,627.4 435.3,649.2 435.3,649.4 
								435.3,663 435.3,664.9 435.3,687.8 435.3,709 457.4,709 479.1,709 481.3,709 481.3,704.5 481.3,687.8 481.3,683.6 
								481.3,674.1 481.3,666.8 481.3,663 481.3,657.8 481.3,649.2 481.3,636 481.3,627.4 481.3,625.6 481.3,620.6 481.3,606.9 
								481.3,602.3 481.3,595.2 481.3,590.5 481.3,584.4 481.3,573 481.3,561.7 481.3,552.6 481.3,541.4 481.3,539.7 481.3,518.6 
								481.3,517.2 481.3,487.6 481.3,372.9 481.3,356.6 481.3,54.7 481.3,10.4 481.3,5.4 							"/>
						</g>
						<path class="st4" d="M709.9,709c0,0.7,0.1,1.3,0.1,2h-5.7v-0.8c-0.7,0.7-1.5,1.5-2.2,2.2c0,2.5-0.1,4.8-0.4,7
							c-1.2-0.9-2.4-2-3.6-3.3c-4.7,4.4-9.5,8.7-14.4,12.9c-4,3.4-8.1,6.8-12.2,10.1c-2.4,1.9-4.8,3.8-7.3,5.7
							c0.4,0.2,0.8,0.4,1.2,0.6c0.2,0.1,0.4,0.2,0.7,0.3c0.6,0.2,1.1,0.5,1.7,0.7H158.5c-1-0.1-1.9-0.5-2.6-1.2
							c-1.2-1.1-1.9-2.8-2-5c0-1,0.1-2.1,0.3-3.3c-6.7-5.4-13.2-11-19.5-16.7c-0.9,1.3-2.2,2.5-4,3.6V709H709.9z"/>
						<path class="st2" d="M687.4,102.8V709l-1-3.5l-2.3-8l-3.5-12.3l-1.7-5.9l-2.4-8.4l-1.9-6.7l-1-3.6l-1.5-5.1l-2.5-8.8l-2.1-7.3
							c0,0,0,0,0,0l-2.7-9.4l-0.5-1.6v0l-1-3.3l-0.7-2.4v0l-6-20.8l-2-6.8l-3.6-12.5l-4-13.9l-1.5-5.2l-1.1-3.8l-2.8-9.6L640,544
							l-4.6-16v0l-0.1-0.3v0l-1.7-5.8v0l-0.8-2.8l-3.2-11.2l-4.3-15l-1.3-4.7l-1.3-4.7l-0.3-1l-8.7-30.3l-6.4-22.3l-16.4-57
							l-4.7-16.3L499.4,54.7l-12.7-44.3l-1.2-4.3c7.2,1.2,14.4,2.7,21.5,4.3c40.3,9.2,78.4,24.3,113.2,44.3
							c22.8,13,44.2,28.2,63.9,45.2c0.8,0.6,1.5,1.3,2.3,2C686.7,102.2,687.1,102.5,687.4,102.8z"/>
					</g>
					<g>
						<polygon class="st5" points="523,748.1 326.8,748.1 307,649.2 542.8,649.2 						"/>
						<rect x="295.6" y="627.4" class="st6" width="258.6" height="35.6"/>
						<path class="st7" d="M303.2,601.1c23.4,5,20.1,24.9-3.7,21.9c-5,23.4-24.9,20.1-21.9-3.7c-23.4-5-20.1-24.9,3.7-21.9
							C286.2,574,306.1,577.3,303.2,601.1z"/>
						<path class="st4" d="M349,588.6c18.8-14.8,32,0.5,14.5,16.9c14.8,18.8-0.5,32-16.9,14.5c-18.8,14.8-32-0.5-14.5-16.9
							C317.4,584.2,332.7,571.1,349,588.6z"/>
						<path class="st8" d="M334.2,550.1c18.7,4,16,19.9-2.9,17.5c-4,18.7-19.9,16-17.5-2.9c-18.7-4-16-19.9,2.9-17.5
							C320.6,528.4,336.6,531.1,334.2,550.1z"/>
						<path class="st8" d="M397,562.2c16.1-6.3,22,7.1,6.4,14.7c6.3,16.2-7.1,22-14.7,6.4c-16.1,6.3-22-7.1-6.4-14.7
							C376,552.5,389.4,546.7,397,562.2z"/>
						<path class="st9" d="M421.4,607.3c23.4,5,20.1,24.9-3.7,21.9c-5,23.4-24.9,20.1-21.9-3.7c-23.4-5-20.1-24.9,3.7-21.9
							C404.4,580.2,424.4,583.6,421.4,607.3z"/>
						<path class="st8" d="M460.7,565.3c25.1,5.3,21.5,26.7-4,23.5c-5.3,25.1-26.7,21.5-23.5-4c-25.1-5.3-21.5-26.7,4-23.5
							C442.5,536.3,463.9,539.9,460.7,565.3z"/>
						<path class="st8" d="M479.4,622.3c9.1,13.5-1.9,21.7-12.1,9c-13.5,9.2-21.7-1.9-9-12.1c-9.1-13.5,1.9-21.7,12.1-9
							C483.9,601,492.1,612.1,479.4,622.3z"/>
						<path class="st8" d="M508.2,586.9c12.9,12,3.2,23.4-10.7,12.5c-12,12.9-23.4,3.2-12.5-10.7c-12.9-12-3.2-23.4,10.7-12.5
							C507.8,563.3,519.1,573,508.2,586.9z"/>
						<path class="st7" d="M531.4,605.4c17.4,3.7,14.9,18.5-2.7,16.3c-3.7,17.4-18.5,14.9-16.3-2.7c-17.4-3.7-14.9-18.5,2.7-16.3
							C518.8,585.2,533.6,587.7,531.4,605.4z"/>
						<path class="st8" d="M375.7,536.3c16.5,3.5,14.1,17.5-2.6,15.4c-3.5,16.5-17.5,14.1-15.4-2.6c-16.5-3.5-14.1-17.5,2.6-15.4
							C363.8,517.2,377.8,519.6,375.7,536.3z"/>
						<path class="st8" d="M432.2,522.2c21.7,4.6,18.6,23.1-3.4,20.3c-4.6,21.7-23.1,18.6-20.3-3.4c-21.7-4.6-18.6-23.1,3.4-20.3
							C416.5,497.1,434.9,500.2,432.2,522.2z"/>
						<path class="st8" d="M490.6,550.6c11.4,10.4,3,20.3-9.2,11c-10.4,11.4-20.3,3-11-9.2c-11.4-10.4-3-20.3,9.2-11
							C490,530.1,499.9,538.4,490.6,550.6z"/>
						<path class="st8" d="M553.8,562.2c19.9,10.8,11.5,28-9.2,18.9c-10.8,19.9-28,11.5-18.9-9.2c-19.9-10.8-11.5-28,9.2-18.9
							C545.7,533,562.8,541.4,553.8,562.2z"/>
						<g>
							<path class="st10" d="M537.8,561.1c-23.3,5.4-19.9,27.1,3.7,23.9c4.9,25.5,24.8,21.8,21.8-4c23.3-5.4,19.9-27.1-3.7-23.9
								C554.6,531.6,534.8,535.2,537.8,561.1z"/>
							<path class="st7" d="M492.2,547.5c-18.7-16.1-31.8,0.6-14.4,18.4c-14.7,20.5,0.5,34.8,16.8,15.8
								c18.7,16.1,31.8-0.6,14.4-18.4C523.6,542.7,508.4,528.4,492.2,547.5z"/>
							<path class="st7" d="M444.4,518.8c-16.1-6.8-21.9,7.8-6.4,16.1c-6.2,17.6,7.1,24,14.7,7c16.1,6.8,21.9-7.8,6.4-16.1
								C465.3,508.2,452,501.8,444.4,518.8z"/>
							<path class="st7" d="M420.2,567.9c-23.3,5.4-19.9,27.1,3.7,23.9c4.9,25.5,24.8,21.8,21.8-4c23.3-5.4,19.9-27.1-3.7-23.9
								C437.1,538.4,417.3,542,420.2,567.9z"/>
							<path class="st7" d="M362.5,584.2c-9.1,14.7,1.9,23.6,12.1,9.8c13.4,10,21.5-2,9-13.2c9.1-14.7-1.9-23.6-12.1-9.8
								C358.1,561,349.9,573,362.5,584.2z"/>
							<path class="st7" d="M310.8,565.8c-17.3,4-14.8,20.2,2.7,17.8c3.7,19,18.4,16.2,16.2-3c17.3-4,14.8-20.2-2.7-17.8
								C323.4,543.8,308.6,546.6,310.8,565.8z"/>
							<path class="st4" d="M409.5,475.2c-21.6,5-18.5,25.1,3.4,22.1c4.6,23.7,23,20.3,20.2-3.7c21.6-5,18.5-25.1-3.4-22.1
								C425.1,447.8,406.7,451.2,409.5,475.2z"/>
							<path class="st4" d="M288.6,518.7c-19.8,11.8-11.4,30.5,9.2,20.6c10.7,21.7,27.8,12.5,18.8-10.1
								c19.8-11.8,11.4-30.5-9.2-20.6C296.6,486.9,279.5,496.1,288.6,518.7z"/>
							<path class="st4" d="M506.9,505.5c-18.6,4.3-15.9,21.7,2.9,19.1c3.9,20.4,19.8,17.5,17.4-3.2c18.6-4.3,15.9-21.7-2.9-19.1
								C520.4,481.9,504.6,484.8,506.9,505.5z"/>
							<path class="st4" d="M381.1,522.2c-25,5.8-21.4,29.1,3.9,25.6c5.3,27.3,26.5,23.4,23.4-4.3c25-5.8,21.4-29.1-3.9-25.6
								C399.2,490.5,378,494.4,381.1,522.2z"/>
							<path class="st4" d="M333.8,545.7c-12.9,13.1-3.2,25.5,10.6,13.6c12,14.1,23.2,3.5,12.4-11.6c12.9-13.1,3.2-25.5-10.6-13.6
								C334.3,520,323,530.5,333.8,545.7z"/>
							<path class="st4" d="M465.6,490.5c-16.4,3.8-14,19.1,2.6,16.8c3.5,17.9,17.4,15.4,15.3-2.8c16.4-3.8,14-19.1-2.6-16.8
								C477.4,469.8,463.5,472.3,465.6,490.5z"/>
							<path class="st4" d="M351.4,506.1c-11.3,11.3-3,22.1,9.1,11.9c10.3,12.4,20.2,3.3,10.9-10c11.3-11.3,3-22.1-9.1-11.9
								C352,483.8,342.1,492.8,351.4,506.1z"/>
						</g>
						<polygon class="st11" points="310,663 314.7,687.8 535.7,687.8 541.2,663 						"/>
					</g>
					<g>
						<path class="st5" d="M757.4,646.6c-2.6,3.8-5.2,7.6-8,11.3c-0.6,0.9-1.3,1.7-1.9,2.6c-0.2,0.3-0.4,0.5-0.6,0.8
							c0.7,3.1,0.3,5.7-0.7,7.7c-0.8,1.6-2.1,2.7-3.7,3.4c0,0,0,0,0,0c-2,2.1-3.7,4.4-5.1,6.6c-0.9,1.4-1.7,2.8-2.4,4.3l-7.2,1.9
							c-1.3,1.5-2.7,3.1-4,4.6c0,0,0,0,0,0c-0.4,1.3-11,11.9-11,11.9c-1,1.1-2.1,2.1-3.2,3.2c0.2,1.4,0.3,2.7,0.3,4.1
							c0,0.7,0.1,1.3,0.1,2h-5.7v-0.8c-0.7,0.7-1.5,1.5-2.2,2.2c0,2.5-0.1,4.8-0.4,7c-1.2-0.9-2.4-2-3.6-3.3
							c-4.7,4.4-9.5,8.7-14.4,12.9c-4,3.4-8.1,6.8-12.2,10.1c-2.4,1.9-4.8,3.8-7.3,5.7c0.4,0.2,0.8,0.4,1.2,0.6
							c0.2,0.1,0.4,0.2,0.7,0.3h-70.7l-3.9-19.4l-2.8-13.9l-0.7-3.3l-4.8-23.8l-0.7-3.5l-4.2-21.2l-2.8-13.9H757.4z"/>
						<path class="st6" d="M771.2,624.9c-4.4,7.4-9,14.6-13.8,21.7c-2.6,3.8-5.2,7.6-8,11.3c-0.6,0.9-1.3,1.7-1.9,2.6H564.3v-35.6
							H771.2z"/>
						<path class="st7" d="M571.8,598.5c23.4,5,20.1,24.9-3.7,21.9c-5,23.4-24.9,20.1-21.9-3.7c-23.4-5-20.1-24.9,3.7-21.9
							C554.9,571.4,574.8,574.8,571.8,598.5z"/>
						<path class="st4" d="M617.7,586c18.8-14.8,32,0.5,14.5,16.9c14.8,18.8-0.5,32-16.9,14.5c-18.8,14.8-32-0.5-14.5-16.9
							C586.1,581.7,601.4,568.6,617.7,586z"/>
						<path class="st8" d="M602.9,547.5c18.7,4,16,19.9-2.9,17.5c-4,18.7-19.9,16-17.5-2.9c-18.7-4-16-19.9,2.9-17.5
							C589.3,525.9,605.3,528.6,602.9,547.5z"/>
						<path class="st8" d="M665.7,559.7c16.2-6.3,22,7.1,6.4,14.7c6.3,16.2-7.1,22-14.7,6.4c-16.2,6.3-22-7.1-6.4-14.7
							C644.7,550,658.1,544.1,665.7,559.7z"/>
						<path class="st9" d="M690.1,604.8c23.4,5,20.1,24.9-3.7,21.9c-5,23.4-24.9,20.1-21.9-3.7c-23.4-5-20.1-24.9,3.7-21.9
							C673.1,577.7,693,581,690.1,604.8z"/>
						<path class="st8" d="M729.4,562.8c25.1,5.3,21.5,26.7-4,23.5c-5.3,25.1-26.7,21.5-23.5-4c-25.1-5.3-21.5-26.7,4-23.5
							C711.2,533.8,732.6,537.4,729.4,562.8z"/>
						<path class="st8" d="M748.1,619.8c9.2,13.5-1.9,21.7-12.1,9c-13.5,9.2-21.7-1.9-9-12.1c-9.2-13.5,1.9-21.7,12.1-9
							C752.6,598.5,760.8,609.5,748.1,619.8z"/>
						<path class="st8" d="M776.9,584.4c12.9,12,3.2,23.4-10.7,12.5c-12,12.9-23.4,3.2-12.5-10.7c-12.9-12-3.2-23.4,10.7-12.5
							C776.5,560.8,787.8,570.5,776.9,584.4z"/>
						<path class="st7" d="M789.9,589.3c-4.1,8.8-8.5,17.4-13.2,25.8c-9.3-3.8-9.6-11.4-2.5-14.2h0c1.8-0.7,4-1.1,6.6-1h0
							c0.9,0,1.9,0.1,3,0.2C785,594.5,787.3,591,789.9,589.3z"/>
						<path class="st8" d="M644.4,533.8c16.5,3.5,14.1,17.5-2.6,15.4c-3.5,16.5-17.5,14.1-15.4-2.6c-16.5-3.5-14.1-17.5,2.6-15.4
							C632.5,514.7,646.5,517.1,644.4,533.8z"/>
						<path class="st8" d="M700.9,519.7c21.7,4.6,18.6,23.1-3.4,20.3c-4.6,21.7-23.1,18.6-20.3-3.4c-21.7-4.6-18.6-23.1,3.4-20.3
							C685.1,494.6,703.6,497.7,700.9,519.7z"/>
						<path class="st8" d="M759.3,548.1c11.4,10.4,3,20.3-9.2,11c-10.4,11.4-20.3,3-11-9.2c-11.4-10.4-3-20.3,9.2-11
							C758.7,527.6,768.6,535.9,759.3,548.1z"/>
						<path class="st8" d="M802.3,559.7c-2.5,6.7-5.2,13.2-8,19.8c-0.7,1.6-1.3,3.1-2,4.6c-0.6-2-0.8-4.4-0.3-7.2
							c0.4-2.3,1.1-4.8,2.3-7.6c-0.9-0.5-1.7-1-2.5-1.5c-16.1-10.4-8.7-25,9.5-18.3c0.7,0.3,1.4,0.5,2.2,0.9c1.2-2.1,2.4-4,3.7-5.5
							c0.1-0.1,0.2-0.2,0.3-0.3c0.1-0.1,0.2-0.2,0.3-0.4c-0.2,0.6-0.4,1.2-0.6,1.8C807.2,546.1,803.3,559.4,802.3,559.7z"/>
						<g>
							<path class="st10" d="M802.3,559.7c-2.5,6.7-5.2,13.2-8,19.8c-1-0.8-1.8-1.6-2.4-2.6c-1.7-2.7-1.8-6-0.1-9.1
								C793.5,564.7,797,561.7,802.3,559.7z"/>
							<path class="st7" d="M760.8,544.9c-18.7-16.1-31.8,0.6-14.4,18.4c-14.7,20.5,0.5,34.8,16.8,15.8
								c18.7,16.1,31.8-0.6,14.4-18.4C792.3,540.2,777.1,525.9,760.8,544.9z"/>
							<path class="st10" d="M775.6,503c-18.6,4.3-15.9,21.7,2.9,19.1c3.9,20.4,19.8,17.5,17.4-3.2c18.6-4.3,15.9-21.7-2.9-19.1
								C789.1,479.4,773.2,482.3,775.6,503z"/>
							<path class="st7" d="M713.1,516.2c-16.1-6.8-21.9,7.8-6.4,16.1c-6.2,17.6,7.1,24,14.7,7c16.1,6.8,21.9-7.8,6.4-16.1
								C734,505.6,720.7,499.3,713.1,516.2z"/>
							<path class="st7" d="M688.9,565.3c-23.3,5.4-19.9,27.1,3.7,23.9c4.9,25.5,24.8,21.8,21.8-4c23.3-5.4,19.9-27.1-3.7-23.9
								C705.8,535.8,685.9,539.5,688.9,565.3z"/>
							<path class="st7" d="M649.8,519.6c-25,5.8-21.4,29.1,3.9,25.6c5.3,27.3,26.5,23.4,23.4-4.3c25-5.8,21.4-29.1-3.9-25.6
								C667.9,488,646.7,491.9,649.8,519.6z"/>
							<path class="st7" d="M631.2,581.7c-9.1,14.7,1.9,23.6,12.1,9.8c13.4,10,21.5-2,9-13.2c9.1-14.7-1.9-23.6-12.1-9.8
								C626.8,558.5,618.6,570.5,631.2,581.7z"/>
							<path class="st9" d="M602.5,543.2c-12.9,13.1-3.2,25.5,10.6,13.6c12,14.1,23.2,3.5,12.4-11.6c12.9-13.1,3.2-25.5-10.6-13.6
								C603,517.4,591.7,528,602.5,543.2z"/>
							<path class="st7" d="M579.5,563.3c-17.3,4-14.8,20.2,2.7,17.8c3.7,19,18.4,16.2,16.2-3c17.3-4,14.8-20.2-2.7-17.8
								C592.1,541.3,577.3,544,579.5,563.3z"/>
							<path class="st10" d="M734.3,488c-16.4,3.8-14,19.1,2.6,16.8c3.5,17.9,17.4,15.4,15.3-2.8c16.4-3.8,14-19.1-2.6-16.8
								C746.1,467.2,732.2,469.8,734.3,488z"/>
							<path class="st4" d="M678.2,472.7c-21.6,5-18.5,25.1,3.4,22.1c4.6,23.6,23,20.3,20.2-3.7c21.6-5,18.5-25.1-3.4-22.1
								C693.8,445.3,675.4,448.7,678.2,472.7z"/>
							<path class="st7" d="M620.1,503.6c-11.3,11.3-3,22.1,9.1,11.9c10.3,12.4,20.2,3.3,10.9-10c11.3-11.3,3-22.1-9.1-11.9
								C620.7,481.2,610.8,490.3,620.1,503.6z"/>
							<path class="st4" d="M557.3,516.2c-19.8,11.8-11.4,30.5,9.2,20.6c10.7,21.7,27.8,12.5,18.8-10.1
								c19.8-11.8,11.4-30.5-9.2-20.6C565.3,484.4,548.2,493.6,557.3,516.2z"/>
						</g>
						<path class="st11" d="M746.9,661.3c0.7,3.1,0.3,5.7-0.7,7.7c-0.8,1.6-2.1,2.7-3.7,3.4c0,0,0,0,0,0c-2,2.1-3.7,4.4-5.1,6.6
							c-0.9,1.4-1.7,2.8-2.4,4.3v1.9H583.4l-0.7-3.5l-4.1-21.2h168.9C747.3,660.8,747.1,661,746.9,661.3z"/>
						<g>
							<path class="st8" d="M817,512.2c-2.5,10.2-5.3,20.3-8.5,30.2v0c-0.2,0.6-0.4,1.3-0.6,1.9c-0.2,0.6-0.4,1.2-0.6,1.8
								c0,0-3,11-3.5,10c-0.9-1.8-1.7-4-2.4-6.5c-0.2-0.9-0.5-1.8-0.6-2.8c-8.7,1.2-14.7-1-17.5-4.5c-0.9-1.1-1.5-2.3-1.8-3.6
								c-0.5-2.1-0.2-4.3,1-6.5c0,0,0,0,0,0c2-3.7,6.5-7.2,13.8-9.1c0.3-0.1,0.6-0.1,0.8-0.2c-0.2-1.4-0.2-2.8-0.3-4.1
								c-0.2-10.3,3.6-16.2,8.1-17.1c0.8-0.2,1.6-0.2,2.4,0C810.8,502.1,814.5,505.5,817,512.2z"/>
							<path class="st8" d="M751.4,509.2c-18.7-16.1-31.8,0.6-14.4,18.4c-14.7,20.5,0.5,34.8,16.8,15.8
								c18.7,16.1,31.8-0.6,14.4-18.4C782.9,504.5,767.6,490.1,751.4,509.2z"/>
							<path class="st8" d="M766.2,467.2c-18.6,4.3-15.9,21.7,2.9,19.1c3.9,20.4,19.8,17.5,17.4-3.2c18.6-4.3,15.9-21.7-2.9-19.1
								C779.6,443.7,763.8,446.6,766.2,467.2z"/>
							<path class="st8" d="M703.6,480.5c-16.1-6.8-21.9,7.8-6.4,16.1c-6.2,17.6,7.1,24,14.7,7c16.1,6.8,21.9-7.8,6.4-16.1
								C724.5,469.9,711.2,463.5,703.6,480.5z"/>
							<path class="st4" d="M679.5,529.6c-23.3,5.4-19.9,27.1,3.7,23.9c4.9,25.5,24.8,21.8,21.8-4c23.3-5.4,19.9-27.1-3.7-23.9
								C696.3,500.1,676.5,503.7,679.5,529.6z"/>
							<path class="st4" d="M640.4,483.9c-25,5.8-21.4,29.1,3.9,25.6c5.3,27.3,26.5,23.4,23.4-4.3c25-5.8,21.4-29.1-3.9-25.6
								C658.4,452.3,637.2,456.2,640.4,483.9z"/>
							<path class="st8" d="M621.7,546c-9.1,14.7,1.9,23.6,12.1,9.8c13.4,10,21.5-2,9-13.2c9.1-14.7-1.9-23.6-12.1-9.8
								C617.3,522.8,609.1,534.8,621.7,546z"/>
							<path class="st8" d="M593.1,507.4c-12.9,13.1-3.2,25.5,10.6,13.6c12,14.1,23.2,3.5,12.4-11.6c12.9-13.1,3.2-25.5-10.6-13.6
								C593.5,481.7,582.2,492.3,593.1,507.4z"/>
							<path class="st8" d="M570.1,527.5c-17.3,4-14.8,20.2,2.7,17.8c3.7,19,18.4,16.2,16.2-3c17.3-4,14.8-20.2-2.7-17.8
								C582.6,505.6,567.9,508.3,570.1,527.5z"/>
							<path class="st4" d="M724.8,452.2c-16.4,3.8-14,19.1,2.6,16.8c3.5,17.9,17.4,15.4,15.3-2.8c16.4-3.8,14-19.1-2.6-16.8
								C736.7,431.5,722.8,434.1,724.8,452.2z"/>
							<path class="st8" d="M649.8,476.1c-21.6,5-18.5,25.1,3.4,22.1c4.6,23.6,23,20.3,20.2-3.7c21.6-5,18.5-25.1-3.4-22.1
								C665.4,448.8,647,452.2,649.8,476.1z"/>
							<path class="st8" d="M610.6,467.9c-11.3,11.3-3,22.1,9.1,11.9c10.3,12.4,20.2,3.3,10.9-10c11.3-11.3,3-22.1-9.1-11.9
								C611.2,445.5,601.3,454.6,610.6,467.9z"/>
							<path class="st4" d="M547.8,480.4c-19.8,11.8-11.4,30.5,9.2,20.6c10.7,21.7,27.8,12.5,18.8-10.1
								c19.8-11.8,11.4-30.5-9.2-20.6C555.9,448.7,538.8,457.8,547.8,480.4z"/>
						</g>
					</g>
					<g>
						<polygon class="st5" points="523,748.1 326.8,748.1 307,649.2 542.8,649.2 						"/>
						<rect x="295.6" y="627.4" class="st6" width="258.6" height="35.6"/>
						<path class="st7" d="M303.2,601.1c23.4,5,20.1,24.9-3.7,21.9c-5,23.4-24.9,20.1-21.9-3.7c-23.4-5-20.1-24.9,3.7-21.9
							C286.2,574,306.1,577.3,303.2,601.1z"/>
						<path class="st4" d="M349,588.6c18.8-14.8,32,0.5,14.5,16.9c14.8,18.8-0.5,32-16.9,14.5c-18.8,14.8-32-0.5-14.5-16.9
							C317.4,584.2,332.7,571.1,349,588.6z"/>
						<path class="st8" d="M334.2,550.1c18.7,4,16,19.9-2.9,17.5c-4,18.7-19.9,16-17.5-2.9c-18.7-4-16-19.9,2.9-17.5
							C320.6,528.4,336.6,531.1,334.2,550.1z"/>
						<path class="st8" d="M397,562.2c16.1-6.3,22,7.1,6.4,14.7c6.3,16.2-7.1,22-14.7,6.4c-16.1,6.3-22-7.1-6.4-14.7
							C376,552.5,389.4,546.7,397,562.2z"/>
						<path class="st9" d="M421.4,607.3c23.4,5,20.1,24.9-3.7,21.9c-5,23.4-24.9,20.1-21.9-3.7c-23.4-5-20.1-24.9,3.7-21.9
							C404.4,580.2,424.4,583.6,421.4,607.3z"/>
						<path class="st8" d="M460.7,565.3c25.1,5.3,21.5,26.7-4,23.5c-5.3,25.1-26.7,21.5-23.5-4c-25.1-5.3-21.5-26.7,4-23.5
							C442.5,536.3,463.9,539.9,460.7,565.3z"/>
						<path class="st8" d="M479.4,622.3c9.1,13.5-1.9,21.7-12.1,9c-13.5,9.2-21.7-1.9-9-12.1c-9.1-13.5,1.9-21.7,12.1-9
							C483.9,601,492.1,612.1,479.4,622.3z"/>
						<path class="st8" d="M508.2,586.9c12.9,12,3.2,23.4-10.7,12.5c-12,12.9-23.4,3.2-12.5-10.7c-12.9-12-3.2-23.4,10.7-12.5
							C507.8,563.3,519.1,573,508.2,586.9z"/>
						<path class="st7" d="M531.4,605.4c17.4,3.7,14.9,18.5-2.7,16.3c-3.7,17.4-18.5,14.9-16.3-2.7c-17.4-3.7-14.9-18.5,2.7-16.3
							C518.8,585.2,533.6,587.7,531.4,605.4z"/>
						<path class="st8" d="M375.7,536.3c16.5,3.5,14.1,17.5-2.6,15.4c-3.5,16.5-17.5,14.1-15.4-2.6c-16.5-3.5-14.1-17.5,2.6-15.4
							C363.8,517.2,377.8,519.6,375.7,536.3z"/>
						<path class="st8" d="M432.2,522.2c21.7,4.6,18.6,23.1-3.4,20.3c-4.6,21.7-23.1,18.6-20.3-3.4c-21.7-4.6-18.6-23.1,3.4-20.3
							C416.5,497.1,434.9,500.2,432.2,522.2z"/>
						<path class="st8" d="M490.6,550.6c11.4,10.4,3,20.3-9.2,11c-10.4,11.4-20.3,3-11-9.2c-11.4-10.4-3-20.3,9.2-11
							C490,530.1,499.9,538.4,490.6,550.6z"/>
						<path class="st8" d="M553.8,562.2c19.9,10.8,11.5,28-9.2,18.9c-10.8,19.9-28,11.5-18.9-9.2c-19.9-10.8-11.5-28,9.2-18.9
							C545.7,533,562.8,541.4,553.8,562.2z"/>
						<g>
							<path class="st10" d="M537.8,561.1c-23.3,5.4-19.9,27.1,3.7,23.9c4.9,25.5,24.8,21.8,21.8-4c23.3-5.4,19.9-27.1-3.7-23.9
								C554.6,531.6,534.8,535.2,537.8,561.1z"/>
							<path class="st7" d="M492.2,547.5c-18.7-16.1-31.8,0.6-14.4,18.4c-14.7,20.5,0.5,34.8,16.8,15.8
								c18.7,16.1,31.8-0.6,14.4-18.4C523.6,542.7,508.4,528.4,492.2,547.5z"/>
							<path class="st7" d="M444.4,518.8c-16.1-6.8-21.9,7.8-6.4,16.1c-6.2,17.6,7.1,24,14.7,7c16.1,6.8,21.9-7.8,6.4-16.1
								C465.3,508.2,452,501.8,444.4,518.8z"/>
							<path class="st7" d="M420.2,567.9c-23.3,5.4-19.9,27.1,3.7,23.9c4.9,25.5,24.8,21.8,21.8-4c23.3-5.4,19.9-27.1-3.7-23.9
								C437.1,538.4,417.3,542,420.2,567.9z"/>
							<path class="st7" d="M362.5,584.2c-9.1,14.7,1.9,23.6,12.1,9.8c13.4,10,21.5-2,9-13.2c9.1-14.7-1.9-23.6-12.1-9.8
								C358.1,561,349.9,573,362.5,584.2z"/>
							<path class="st7" d="M310.8,565.8c-17.3,4-14.8,20.2,2.7,17.8c3.7,19,18.4,16.2,16.2-3c17.3-4,14.8-20.2-2.7-17.8
								C323.4,543.8,308.6,546.6,310.8,565.8z"/>
							<path class="st4" d="M409.5,475.2c-21.6,5-18.5,25.1,3.4,22.1c4.6,23.7,23,20.3,20.2-3.7c21.6-5,18.5-25.1-3.4-22.1
								C425.1,447.8,406.7,451.2,409.5,475.2z"/>
							<path class="st4" d="M288.6,518.7c-19.8,11.8-11.4,30.5,9.2,20.6c10.7,21.7,27.8,12.5,18.8-10.1
								c19.8-11.8,11.4-30.5-9.2-20.6C296.6,486.9,279.5,496.1,288.6,518.7z"/>
							<path class="st4" d="M506.9,505.5c-18.6,4.3-15.9,21.7,2.9,19.1c3.9,20.4,19.8,17.5,17.4-3.2c18.6-4.3,15.9-21.7-2.9-19.1
								C520.4,481.9,504.6,484.8,506.9,505.5z"/>
							<path class="st4" d="M381.1,522.2c-25,5.8-21.4,29.1,3.9,25.6c5.3,27.3,26.5,23.4,23.4-4.3c25-5.8,21.4-29.1-3.9-25.6
								C399.2,490.5,378,494.4,381.1,522.2z"/>
							<path class="st4" d="M333.8,545.7c-12.9,13.1-3.2,25.5,10.6,13.6c12,14.1,23.2,3.5,12.4-11.6c12.9-13.1,3.2-25.5-10.6-13.6
								C334.3,520,323,530.5,333.8,545.7z"/>
							<path class="st4" d="M465.6,490.5c-16.4,3.8-14,19.1,2.6,16.8c3.5,17.9,17.4,15.4,15.3-2.8c16.4-3.8,14-19.1-2.6-16.8
								C477.4,469.8,463.5,472.3,465.6,490.5z"/>
							<path class="st4" d="M351.4,506.1c-11.3,11.3-3,22.1,9.1,11.9c10.3,12.4,20.2,3.3,10.9-10c11.3-11.3,3-22.1-9.1-11.9
								C352,483.8,342.1,492.8,351.4,506.1z"/>
						</g>
						<polygon class="st11" points="310,663 314.7,687.8 535.7,687.8 541.2,663 						"/>
					</g>
					<g>
						<path class="st12" d="M826.5,372.9H2c0.5-5.5,1.2-10.9,1.9-16.3h820.6C825.4,362,826,367.4,826.5,372.9z"/>
						<path class="st12" d="M659.6,748.2c-7.7,5.7-15.7,11.1-23.8,16.3H192.8c-8.1-5.2-16.1-10.6-23.8-16.3H659.6z"/>
						<g>
							<g>
								<path class="st12" d="M22.6,373v176.6c-0.6-1.7-1.1-3.3-1.7-5c-0.7-2.1-1.4-4.2-2.1-6.4c-2.2-7-4.2-14.1-6-21.3c0,0,0,0,0,0
									c-2.3,1.6-4.2,3.3-5.6,5.1V373H22.6z"/>
								<path class="st12" d="M122.6,373v338H120c0-1.6,0.1-3.2,0.3-4.8c-1.5-1.5-3-3-4.4-4.5h-8.7V373H122.6z"/>
								<rect x="207.2" y="373" class="st12" width="15.4" height="373.3"/>
								<rect x="307.2" y="373" class="st12" width="15.4" height="373.3"/>
								<rect x="407.2" y="373" class="st12" width="15.4" height="373.3"/>
								<rect x="507.2" y="373" class="st12" width="15.4" height="373.3"/>
								<rect x="607.2" y="373" class="st12" width="15.4" height="373.3"/>
								<path class="st12" d="M722.6,373l-9.9,328.7c-1,1.1-2.1,2.1-3.2,3.2c0.2,1.4,0.3,2.7,0.3,4.1c0,0.7,0.1,1.3,0.1,2h-2.8V373
									H722.6z"/>
								<path class="st12" d="M822.6,373c0,0-4.9,141.1-5.6,139.2c-2.5,10.2-5.3,20.3-8.5,30.2v0c-0.2,0.6-0.4,1.3-0.6,1.9
									c-0.2,0.6-0.4,1.2-0.6,1.8V373H822.6z"/>
							</g>
							<g>
								<g>
									<g>
										<path class="st13" d="M479.5,748.3c-4.5,0-9.1-1-13.3-3c-12.1-5.8-17.2-20.2-11.4-32.3c2.2-4.6,6.1-8.1,10.9-9.8
											s10.1-1.4,14.7,0.8c3.7,1.8,6.5,4.9,7.9,8.8c1.4,3.9,1.2,8.1-0.6,11.8c-3,6.3-10.5,8.9-16.8,5.9c-5.2-2.5-7.4-8.8-4.9-14
											c2.1-4.4,7.4-6.3,11.8-4.2l-3.4,7.2c-0.4-0.2-1,0-1.2,0.4c-0.6,1.2-0.1,2.7,1.2,3.3c2.3,1.1,5.1,0.1,6.2-2.2
											c0.9-1.8,1-3.8,0.3-5.7s-2-3.4-3.8-4.2c-5.6-2.7-12.3-0.3-15,5.3c-3.9,8.1-0.4,17.8,7.7,21.6c5.5,2.6,11.7,3,17.5,0.9
											c5.8-2,10.4-6.2,13-11.7c4.8-10,2.8-32.8-7-48.3c-4.6-7.2-12.8-15.9-26.1-15.9v-8c13.4,0,24.7,6.8,32.8,19.6
											c5.2,8.3,8.8,18.9,10.2,29.9c1.2,10.4,0.3,19.9-2.7,26.1c-3.6,7.4-9.8,13.1-17.6,15.8
											C486.4,747.7,482.9,748.3,479.5,748.3z"/>
									</g>
									<g>
										<path class="st13" d="M551.8,748.3c-11.5,0-22.6-6.5-27.9-17.6c-3-6.2-3.9-15.7-2.7-26.1c1.3-11,4.9-21.6,10.2-29.9
											c8.1-12.8,19.4-19.6,32.8-19.6v8c-13.3,0-21.5,8.6-26.1,15.9c-9.8,15.5-11.8,38.3-7,48.3c5.4,11.4,19.1,16.2,30.5,10.8
											c3.9-1.9,6.9-5.1,8.3-9.2c1.4-4.1,1.2-8.5-0.7-12.4c-2.7-5.6-9.4-8-15-5.3c-3.7,1.8-5.3,6.2-3.5,9.9
											c1.1,2.3,3.9,3.3,6.2,2.2c1.2-0.6,1.8-2.1,1.2-3.3c-0.2-0.4-0.7-0.6-1.2-0.4l-3.4-7.2c4.4-2.1,9.7-0.2,11.8,4.2
											c2.5,5.2,0.3,11.5-4.9,14c-6.3,3-13.8,0.3-16.8-5.9c-3.7-7.7-0.4-16.9,7.3-20.6c9.6-4.6,21.1-0.5,25.6,9.1
											c2.8,5.8,3.1,12.4,1,18.5c-2.2,6.1-6.6,11-12.4,13.8C560.8,747.3,556.3,748.3,551.8,748.3z"/>
									</g>
									<rect x="505" y="701.7" class="st13" width="19.3" height="9.3"/>
								</g>
								<g>
									<g>
										<path class="st13" d="M687.6,712.8c1,2.7,1.2,5.5,0.6,8.2c-0.2,1.2-0.6,2.5-1.2,3.6c-0.2,0.4-0.4,0.8-0.6,1.1
											c-0.1,0.2-0.2,0.3-0.3,0.5c-0.7,1-1.5,1.9-2.4,2.6c-3.7,3-8.9,3.8-13.5,1.7c-2-1-3.6-2.5-4.6-4.3
											c-1.5-2.8-1.8-6.2-0.5-9.2v0c0.1-0.2,0.1-0.3,0.2-0.5c0.9-1.9,2.4-3.4,4.2-4.2c0.1,0,0.1-0.1,0.2-0.1h0
											c1.7-0.7,3.7-1,5.5-0.5c0.6,0.2,1.2,0.4,1.8,0.6l-1.7,3.6l-1.7,3.6c-0.4-0.2-1,0-1.2,0.4c-0.6,1.2-0.1,2.7,1.2,3.3
											c2.3,1.1,5.1,0.1,6.2-2.2c0,0,0,0,0,0c0.9-1.8,1-3.8,0.3-5.7c-0.4-1.2-1.1-2.2-2-3c-0.5-0.5-1.1-0.9-1.8-1.2
											c-0.3-0.1-0.6-0.3-0.9-0.4c-1.7-0.7-3.5-0.9-5.2-0.6c-2,0.2-3.9,1-5.5,2.2c-1.4,1-2.5,2.4-3.4,4.1
											c-0.3,0.7-0.6,1.4-0.8,2.1c-0.8,2.5-1,5.2-0.5,7.7c0.9,5,4.1,9.5,9,11.8c0.8,0.4,1.7,0.7,2.5,1c-2.4,1.9-4.8,3.8-7.3,5.7
											c-7.1-3.9-11.6-10.9-12.4-18.5c-0.3-2.4-0.2-4.9,0.3-7.3c0.4-2,1-4,1.9-5.9c0.1-0.2,0.2-0.5,0.4-0.7
											c0.6-1.2,1.4-2.3,2.2-3.3c2.2-2.6,5-4.6,8.3-5.8c0.6-0.2,1.2-0.4,1.8-0.5c4-1,8.3-0.6,12.1,1c0.2,0.1,0.5,0.2,0.8,0.3
											c1.7,0.8,3.1,1.9,4.4,3.2c0.6,0.6,1.1,1.2,1.5,1.8c0.3,0.4,0.5,0.8,0.8,1.2C686.9,711,687.3,711.9,687.6,712.8z"/>
										<path class="st13" d="M710,711h-5.7v-0.8c-0.7,0.7-1.5,1.5-2.2,2.2c0-1.1,0-2.2-0.1-3.3c-0.5-7.7-2.5-16.2-6-23.8
											c-1-2.2-2.1-4.3-3.4-6.3c-0.2-0.4-0.5-0.7-0.7-1.1c-0.9-1.3-1.8-2.5-2.9-3.8c-0.5-0.6-1-1.2-1.6-1.8c-0.3-0.3-0.7-0.7-1-1
											c-0.7-0.7-1.5-1.4-2.3-2c-0.5-0.4-1-0.8-1.5-1.1c-2.4-1.7-5-3-8.1-4c-2.4-0.7-5.1-1.1-8-1.1v-8c1.9,0,3.7,0.1,5.5,0.4
											c4.3,0.6,8.3,2,12.1,4.1c0.5,0.3,1.1,0.6,1.6,1c0.2,0.1,0.5,0.3,0.7,0.5c0.3,0.2,0.7,0.4,1,0.7c0.5,0.4,1.1,0.8,1.6,1.2
											c1.1,0.9,2.2,1.9,3.2,2.9c2.6,2.5,4.9,5.5,7,8.8c1.5,2.3,2.8,4.9,4,7.5c0.5,1,0.9,2.1,1.3,3.1c1,2.5,1.9,5.1,2.6,7.8
											c0.8,2.8,1.4,5.7,1.9,8.7c0.2,0.9,0.3,1.9,0.4,2.8c0,0.1,0,0.3,0,0.4c0.2,1.4,0.3,2.7,0.3,4.1
											C709.9,709.7,710,710.3,710,711z"/>
									</g>
									<g>
										<path class="st13" d="M722.6,693.6"/>
										<path class="st13" d="M747.5,660.5c-0.2,0.3-0.4,0.5-0.6,0.8c0.7,3.1,0.3,5.7-0.7,7.7c-1.4,1-2.6,2.2-3.7,3.4c0,0,0,0,0,0
											c-2,2.1-3.7,4.4-5.1,6.6c-0.9,1.4-1.7,2.8-2.4,4.3c-0.3,0.6-0.7,1.3-0.9,1.9h-6.3c-1.3,1.5-2.7,3.1-4,4.6
											c0.5-1.6,1-3.1,1.6-4.6c1.5-3.8,3.3-7.3,5.3-10.5c0.7-1.2,1.5-2.2,2.3-3.3c0.7-0.9,1.3-1.8,2-2.6c2.9-3.4,6-6.2,9.5-8.3
											c0.6-0.4,1.3-0.8,1.9-1.1c1-0.5,2-1,3-1.5C748.8,658.8,748.2,659.6,747.5,660.5z"/>
									</g>
									<path class="st13" d="M712.7,701.7c-1,1.1-2.1,2.1-3.2,3.2c0.2,1.4,0.3,2.7,0.3,4.1c0,0.7,0.1,1.3,0.1,2h-5.7v-9.3H712.7z"
										/>
								</g>
								<g>
									<g>
										<path class="st13" d="M281,748.3c-4.5,0-9.1-1-13.3-3c-12.1-5.8-17.2-20.2-11.4-32.3c2.2-4.6,6.1-8.1,10.9-9.8
											s10.1-1.4,14.7,0.8c3.7,1.8,6.5,4.9,7.9,8.8c1.4,3.9,1.2,8.1-0.6,11.8c-3,6.3-10.5,8.9-16.8,5.9c-5.2-2.5-7.4-8.8-4.9-14
											c2.1-4.4,7.4-6.3,11.8-4.2l-3.4,7.2c-0.4-0.2-1,0-1.2,0.4c-0.6,1.2-0.1,2.7,1.2,3.3c2.3,1.1,5.1,0.1,6.2-2.2
											c0.9-1.8,1-3.8,0.3-5.7s-2-3.4-3.8-4.2c-5.6-2.7-12.3-0.3-15,5.3c-3.9,8.1-0.4,17.8,7.7,21.6c5.5,2.6,11.7,3,17.5,0.9
											c5.8-2,10.4-6.2,13-11.7c4.8-10,2.8-32.8-7-48.3c-4.6-7.2-12.8-15.9-26.1-15.9v-8c13.4,0,24.7,6.8,32.8,19.6
											c5.2,8.3,8.8,18.9,10.2,29.9c1.2,10.4,0.3,19.9-2.7,26.1c-3.6,7.4-9.8,13.1-17.6,15.8C287.9,747.7,284.5,748.3,281,748.3z
											"/>
									</g>
									<g>
										<path class="st13" d="M353.4,748.3c-11.5,0-22.6-6.5-27.9-17.6c-3-6.2-3.9-15.7-2.7-26.1c1.3-11,4.9-21.6,10.2-29.9
											c8.1-12.8,19.4-19.6,32.8-19.6v8c-13.3,0-21.5,8.6-26.1,15.9c-9.8,15.5-11.8,38.3-7,48.3c5.4,11.4,19.1,16.2,30.5,10.8
											c3.9-1.9,6.9-5.1,8.3-9.2c1.4-4.1,1.2-8.5-0.7-12.4c-2.7-5.6-9.4-8-15-5.3c-3.7,1.8-5.3,6.2-3.5,9.9
											c1.1,2.3,3.9,3.3,6.2,2.2c1.2-0.6,1.8-2.1,1.2-3.3c-0.2-0.4-0.7-0.6-1.2-0.4l-3.4-7.2c4.4-2.1,9.7-0.2,11.8,4.2
											c2.5,5.2,0.3,11.5-4.9,14c-6.3,3-13.8,0.3-16.8-5.9c-3.7-7.7-0.4-16.9,7.3-20.6c9.6-4.6,21.1-0.5,25.6,9.1
											c2.8,5.8,3.1,12.4,1,18.5c-2.2,6.1-6.6,11-12.4,13.8C362.3,747.3,357.8,748.3,353.4,748.3z"/>
									</g>
									<rect x="306.6" y="701.7" class="st13" width="19.3" height="9.3"/>
								</g>
								<g>
									<g>
										<path class="st13" d="M109,701.7h-2.9c0.3-1,0.7-1.9,1.1-2.7v-1.9c-2.4,0.3-5.3-0.7-8.1-3.2c-0.7-2.2-1.4-4.5-2.3-6.7
											c-0.3-0.9-0.7-1.7-1.1-2.5c-0.9-2-2-4-3.2-5.8c-2.8-4.3-6.8-9.2-12.5-12.4c1-0.8,2.2-1.6,3.4-2.3
											c-0.2-0.4-0.3-0.8-0.4-1.2c-0.8-1-1.6-2.1-2.3-3.1c-0.7-1-1.4-1.9-2.1-2.8c1,0.3,2,0.8,3,1.2c1,0.5,2.1,1,3.1,1.6
											c5.6,3.3,10.5,8.2,14.6,14.7c0.8,1.2,1.5,2.5,2.2,3.8c1.1,2,2,4.1,2.9,6.3c1,2.3,1.8,4.7,2.5,7.2c0.1,0.5,0.3,1,0.4,1.5
											c0.3,1.1,0.6,2.3,0.9,3.5c0,0.2,0.1,0.4,0.1,0.6C108.5,698.9,108.8,700.3,109,701.7z"/>
									</g>
									<g>
										<path class="st13" d="M163.5,655.1v8c-2.8,0-5.3,0.4-7.7,1c-0.8,0.2-1.6,0.5-2.4,0.8c0,0,0,0,0,0
											c-1.6,0.6-3.1,1.4-4.5,2.2c0,0,0,0,0,0c-4.4,2.7-7.7,6.3-10.2,9.9c-0.5,0.6-0.9,1.3-1.3,1.9c-1.2,1.8-2.2,3.7-3.1,5.7
											c-1.3,2.8-2.4,5.6-3.3,8.6c-1.5,5-2.5,10.2-2.9,15c0,0.4-0.1,0.8-0.1,1.3c-0.1,1.4-0.1,2.8-0.1,4.1
											c-1.4-1.4-2.9-2.8-4.3-4.2v1.5H120c0-1.6,0.1-3.2,0.3-4.8c0-0.5,0.1-1.1,0.2-1.6c0-0.3,0.1-0.5,0.1-0.8
											c0.1-0.7,0.2-1.4,0.3-2.1c0.4-2.7,1-5.4,1.7-8.1c0.8-2.9,1.7-5.8,2.8-8.5c0.1-0.2,0.1-0.3,0.2-0.5c1.5-3.6,3.2-7,5.1-10
											c0.1-0.2,0.2-0.3,0.3-0.5c0.2-0.4,0.5-0.8,0.8-1.1c2.7-4,5.8-7.4,9.2-10.1c1.5-1.2,3-2.2,4.5-3.1
											C150.9,656.7,156.9,655.1,163.5,655.1z"/>
										<path class="st13" d="M178,726.3c-0.2,1.8-0.6,3.7-1.2,5.4c-1.2,3.4-3.2,6.5-5.7,9c-1.7,1.8-3.7,3.2-6,4.4
											c-0.1,0-0.1,0.1-0.2,0.1c-0.2,0.1-0.4,0.2-0.6,0.3c-0.7,0.3-1.4,0.5-2.1,0.8h-2.1c-0.6,0.1-1.2,0.1-1.7,0
											c-1-0.1-1.9-0.5-2.6-1.2c-1.2-1.1-1.9-2.8-2-5c1.2-0.1,2.4-0.4,3.5-0.7c1.2-0.3,2.3-0.8,3.4-1.3c3.9-1.9,6.9-5.1,8.3-9.2
											c1.4-4.1,1.2-8.5-0.7-12.4c-0.3-0.6-0.6-1.1-0.9-1.6c-3.1-4.4-9-6.1-14.1-3.7c0,0-0.1,0-0.1,0c-0.2,0.1-0.3,0.2-0.5,0.3
											c-3.3,2-4.6,6.1-2.9,9.6c0.5,1,1.3,1.8,2.2,2.2c1.2,0.6,2.7,0.6,4,0c1.2-0.6,1.8-2.1,1.2-3.3c-0.2-0.4-0.7-0.6-1.2-0.4
											l-2.8-5.8l-0.7-1.4c3.6-1.7,7.9-0.7,10.4,2.1c0.6,0.6,1,1.3,1.4,2.1c2.5,5.2,0.3,11.5-4.9,14c-1.2,0.5-2.3,0.9-3.5,1.1
											c-5.4,0.8-10.8-1.9-13.3-7c-2.5-5.2-1.8-11,1.2-15.4c0-0.1,0.1-0.2,0.2-0.3c1.5-2,3.5-3.7,5.9-4.9
											c1.8-0.9,3.8-1.4,5.7-1.7c6.5-0.9,13,1.6,17.2,6.6c0.3,0.3,0.6,0.7,0.9,1.1c0.7,1,1.3,2,1.8,3.1
											C177.8,717.3,178.5,721.8,178,726.3z"/>
									</g>
									<path class="st13" d="M123.6,701.7v9.3H120c0-1.6,0.1-3.2,0.3-4.8c-1.5-1.5-3-3-4.4-4.5H123.6z"/>
								</g>
							</g>
						</g>
					</g>
					<path class="st5" d="M269.1,646.1l-2.8,13.8l-0.2,1.2c0,0,0,0,0,0l-3.7,18.6v0l-1,5l-0.5,2.5l-4.3,21.8l-0.4,2.1l-0.8,4.2
						c0,0,0,0,0,0l0,0l-1.4,6.9v0.1l0,0l-0.9,4.4l-3.6,18.3h-93.5c-1.2-1.1-1.9-2.8-2-5c0-1,0.1-2.1,0.3-3.3
						c-6.7-5.4-13.2-11-19.5-16.7c-0.9,1.3-2.2,2.5-4,3.6c-0.5,0.3-1,0.5-1.5,0.8c-0.9-3-1.4-6.7-1.4-10.8c-1.4-1.4-2.9-2.8-4.3-4.2
						v1.5H120c0-1.6,0.1-3.2,0.3-4.8c-1.5-1.5-3-3-4.4-4.5h-9.8c0.3-1,0.7-1.9,1.1-2.7v-1.9c-2.4,0.3-5.3-0.7-8.1-3.2
						c-1.4-1.2-2.8-2.9-4.1-4.9c-0.8-1.2-1.6-2.6-2.4-4.2v-0.1h3.1c-0.9-2-2-4-3.2-5.8c-2.8-4.3-6.8-9.2-12.5-12.4
						c1-0.8,2.2-1.6,3.4-2.3c-0.2-0.4-0.3-0.8-0.4-1.2c-0.8-1-1.6-2.1-2.3-3.1c-0.7-1-1.4-1.9-2.1-2.8v0c-1.7-2.4-3.4-4.7-5.1-7.1
						c-0.9-1.3-1.8-2.5-2.6-3.8H269.1z"/>
					<path class="st6" d="M280.5,624.3v35.6H80.6c-0.7-1-1.4-1.9-2.1-2.8v0c-1.7-2.4-3.4-4.7-5.1-7.1c-0.9-1.3-1.8-2.5-2.6-3.8
						c-4.8-7.1-9.4-14.4-13.8-21.8H280.5z"/>
					<path class="st4" d="M75.4,585.5c18.8-14.8,32,0.5,14.5,16.9c14.8,18.8-0.5,32-16.9,14.5c-18.8,14.8-32-0.5-14.5-16.9
						C43.7,581.2,59,568,75.4,585.5z"/>
					<path class="st8" d="M60.5,547c18.7,4,16,19.9-2.9,17.5c-4,18.7-19.9,16-17.5-2.9c-18.7-4-16-19.9,2.9-17.5
						C47,525.3,62.9,528,60.5,547z"/>
					<path class="st8" d="M123.4,559.1c16.1-6.3,22,7.1,6.4,14.7c6.3,16.2-7.1,22-14.7,6.4c-16.2,6.3-22-7.1-6.4-14.7
						C102.4,549.4,115.8,543.6,123.4,559.1z"/>
					<path class="st8" d="M147.7,604.2c23.4,5,20.1,24.9-3.7,21.9c-5,23.4-24.9,20.1-21.9-3.7c-23.4-5-20.1-24.9,3.7-21.9
						C130.8,577.1,150.7,580.5,147.7,604.2z"/>
					<path class="st8" d="M187,562.3c25.1,5.3,21.5,26.7-4,23.5c-5.3,25.1-26.7,21.5-23.5-4c-25.1-5.3-21.5-26.7,4-23.5
						C168.8,533.2,190.2,536.8,187,562.3z"/>
					<path class="st8" d="M205.8,619.2c9.1,13.5-1.9,21.7-12.1,9c-13.5,9.2-21.7-1.9-9-12.1c-9.1-13.5,1.9-21.7,12.1-9
						C210.2,597.9,218.4,609,205.8,619.2z"/>
					<path class="st8" d="M234.6,583.9c12.9,12,3.2,23.4-10.7,12.5c-12,12.9-23.4,3.2-12.5-10.7c-12.9-12-3.2-23.4,10.7-12.5
						C234.1,560.3,245.5,570,234.6,583.9z"/>
					<path class="st8" d="M257.7,602.3c17.4,3.7,14.9,18.5-2.7,16.3c-3.7,17.4-18.5,14.9-16.3-2.7c-17.4-3.7-14.9-18.5,2.7-16.3
						C245.1,582.2,259.9,584.7,257.7,602.3z"/>
					<path class="st4" d="M102.1,533.2c16.5,3.5,14.1,17.5-2.6,15.4C96,565.1,82,562.7,84.1,546c-16.5-3.5-14.1-17.5,2.6-15.4
						C90.1,514.2,104.2,516.5,102.1,533.2z"/>
					<path class="st8" d="M158.5,519.2c21.7,4.6,18.6,23.1-3.4,20.3c-4.6,21.7-23.1,18.6-20.3-3.4c-21.7-4.6-18.6-23.1,3.4-20.3
						C142.8,494,161.3,497.1,158.5,519.2z"/>
					<path class="st8" d="M216.9,547.5c11.4,10.4,3,20.3-9.2,11c-10.4,11.4-20.3,3-11-9.2c-11.4-10.4-3-20.3,9.2-11
						C216.3,527,226.3,535.3,216.9,547.5z"/>
					<path class="st8" d="M280.1,559.1c19.9,10.8,11.5,28-9.2,18.9c-10.8,19.9-28,11.5-18.9-9.2c-19.9-10.8-11.5-28,9.2-18.9
						C272,529.9,289.2,538.3,280.1,559.1z"/>
					<g>
						<path class="st8" d="M264.1,558c-23.3,5.4-19.9,27.1,3.7,23.9c4.9,25.5,24.8,21.8,21.8-4c23.3-5.4,19.9-27.1-3.7-23.9
							C281,528.5,261.1,532.1,264.1,558z"/>
						<path class="st8" d="M218.5,544.4c-18.7-16.1-31.8,0.6-14.4,18.4c-14.7,20.5,0.5,34.8,16.8,15.8c18.7,16.1,31.8-0.6,14.4-18.4
							C250,539.7,234.7,525.3,218.5,544.4z"/>
						<path class="st8" d="M233.2,502.4c-18.6,4.3-15.9,21.7,2.9,19.1c3.9,20.4,19.8,17.5,17.4-3.2c18.6-4.3,15.9-21.7-2.9-19.1
							C246.7,478.8,230.9,481.8,233.2,502.4z"/>
						<path class="st8" d="M170.7,515.7c-16.1-6.8-21.9,7.8-6.4,16.1c-6.2,17.6,7.1,24,14.7,7c16.1,6.8,21.9-7.8,6.4-16.1
							C191.6,505.1,178.3,498.7,170.7,515.7z"/>
						<path class="st4" d="M146.5,564.8c-23.3,5.4-19.9,27.1,3.7,23.9c4.9,25.5,24.8,21.8,21.8-4c23.3-5.4,19.9-27.1-3.7-23.9
							C163.4,535.3,143.6,538.9,146.5,564.8z"/>
						<path class="st4" d="M107.5,519.1c-25,5.8-21.4,29.1,3.9,25.6c5.3,27.3,26.5,23.4,23.4-4.3c25-5.8,21.4-29.1-3.9-25.6
							C125.5,487.4,104.3,491.4,107.5,519.1z"/>
						<path class="st8" d="M88.8,581.1c-9.1,14.7,1.9,23.6,12.1,9.8c13.4,10,21.5-2,9-13.2c9.1-14.7-1.9-23.6-12.1-9.8
							C84.4,557.9,76.2,570,88.8,581.1z"/>
						<path class="st8" d="M60.2,542.6c-12.9,13.1-3.2,25.5,10.6,13.6c12,14.1,23.2,3.5,12.4-11.6c12.9-13.1,3.2-25.5-10.6-13.6
							C60.6,516.9,49.3,527.5,60.2,542.6z"/>
						<path class="st8" d="M56.1,577.5c0,0.3,0.1,0.7,0.1,1c0.5,6.1-0.7,10.4-2.7,12.8c-3.5,4.2-9.4,2.4-12.5-6.5
							c-0.4-1.3-0.8-2.7-1.1-4.3c-1.9,0.3-3.6,0.3-5.1,0.2c-1.6-3.6-3.1-7.2-4.6-10.8c0,0,0,0,0,0c-0.5-1.1-0.9-2.2-1.3-3.3
							c0.5-0.4,1-0.8,1.6-1.2c1.8-1.1,4-2,6.7-2.7c-0.1-0.7-0.1-1.3-0.2-1.9c-0.4-6.9,1.5-11.3,4.2-13.1c4.1-2.7,10,1,12.2,12
							c1-0.1,1.9-0.2,2.8-0.2c2.8-0.1,5.1,0.4,6.9,1.2c1.8,0.8,3.1,2,3.9,3.3c0.5,0.9,0.8,1.8,0.8,2.7
							C68.2,570.8,64.4,575.6,56.1,577.5z"/>
						<path class="st4" d="M191.9,487.4c-16.4,3.8-14,19.1,2.6,16.8c3.5,17.9,17.4,15.4,15.3-2.8c16.4-3.8,14-19.1-2.6-16.8
							C203.8,466.7,189.8,469.2,191.9,487.4z"/>
						<path class="st8" d="M458.2,522.6c-21.6,5-18.5,25.1,3.4,22.1c4.6,23.7,23,20.3,20.2-3.7c21.6-5,18.5-25.1-3.4-22.1
							C473.8,495.3,455.5,498.7,458.2,522.6z"/>
						<path class="st8" d="M77.7,503.1c-11.3,11.3-3,22.1,9.1,11.9c10.3,12.4,20.2,3.3,10.9-10c11.3-11.3,3-22.1-9.1-11.9
							C78.3,480.7,68.4,489.8,77.7,503.1z"/>
						<path class="st4" d="M52.1,517.6c-1.8,2.9-4.8,5.9-9.2,8.5c0.3,0.7,0.5,1.4,0.8,2.1c1.1,3.4,1.7,6.4,1.7,9v0
							c0.1,5.2-1.6,8.8-4.3,10.4c-2.7,1.6-6.4,1.2-10.1-1.9c-0.9-0.7-1.7-1.6-2.6-2.6c-1.5-1.8-3-4.1-4.4-6.9
							c-0.5,0.2-1,0.5-1.5,0.7c-1.3,0.6-2.6,1-3.8,1.3c-2.2-7-4.2-14.1-6-21.3c0.7-0.5,1.3-0.9,2.1-1.3c-6.2-15.4-0.2-24.6,7.7-21.9
							c3.6,1.2,7.7,5,11.1,11.8C49.7,497.8,58.4,507.4,52.1,517.6z"/>
					</g>
					<path class="st11" d="M267.6,659.9l-0.5,2.4l-4.2,18.9v0l-0.8,3.4H95.7c-0.9-2-2-4-3.2-5.8c-2.8-4.3-6.8-9.2-12.5-12.4
						c1-0.8,2.2-1.6,3.4-2.3c-0.2-0.4-0.3-0.8-0.4-1.2c-0.8-1-1.6-2.1-2.3-3.1H267.6z"/>
					<path class="st7" d="M72,560.8c-0.3,2.3-1.7,4.4-4.1,5.9c-2.7,1.7-6.6,2.7-11.7,2.6c-1.2,0-2.4-0.1-3.8-0.3
						c-0.7,3-1.5,5.6-2.6,7.7c-2.4,4.8-5.6,7.5-8.8,8.1c-1.6,0.3-3.3,0.1-4.7-0.7c-0.5-1.2-1-2.3-1.5-3.5c-1.6-3.6-3.1-7.2-4.6-10.8
						c0,0,0,0,0,0c0-1.4,0.1-2.9,0.3-4.5c0,0,0,0,0-0.1c-0.8-0.2-1.6-0.4-2.3-0.6c-2-5-3.8-10-5.6-15.1c-0.6-1.7-1.1-3.3-1.7-5
						c0.5-0.2,1.1-0.4,1.7-0.6c1.7-0.5,3.7-0.8,5.9-0.9c1.7-0.1,3.6,0,5.7,0.3c1.8-8.5,5.5-13.5,9.5-15.2c3.6-1.6,7.4-0.5,9.9,3.1
						c2.3,3.3,3.5,8.6,2.6,15.8c0.2,0,0.3,0.1,0.4,0.1c8.5,1.9,13.3,5.8,14.9,9.8C72,558.2,72.2,559.5,72,560.8z"/>
					<path class="st4" d="M102,534.6c18.8-14.8,32,0.5,14.5,16.9c14.8,18.8-0.5,32-16.9,14.5c-18.8,14.8-32-0.5-14.5-16.9
						C70.3,530.3,85.6,517.1,102,534.6z"/>
					<path class="st9" d="M174.3,553.4c23.4,5,20.1,24.9-3.7,21.9c-5,23.4-24.9,20.1-21.9-3.7c-23.4-5-20.1-24.9,3.7-21.9
						C157.4,526.3,177.3,529.6,174.3,553.4z"/>
					<g>
						<path class="st5" d="M757.4,646.6c-2.6,3.8-5.2,7.6-8,11.3c-0.6,0.9-1.3,1.7-1.9,2.6c-0.2,0.3-0.4,0.5-0.6,0.8
							c0.7,3.1,0.3,5.7-0.7,7.7c-0.8,1.6-2.1,2.7-3.7,3.4c0,0,0,0,0,0c-2,2.1-3.7,4.4-5.1,6.6c-0.9,1.4-9.6,6.2-9.6,6.2
							c-1.3,1.5-2.7,3.1-4,4.6c0,0,0,0,0,0c-0.4,1.3-0.8,2.5-1.1,3.8c0,0-12,10.2-13.1,11.3c0.2,1.4-5.2,6.1-5.2,6.1v-0.8
							c-0.7,0.7-5,7.2-6.1,5.9c-4.7,4.4-9.5,8.7-14.4,12.9c-4,3.4-8.1,6.8-12.2,10.1c-2.4,1.9-4.8,3.8-7.3,5.7
							c0.4,0.2,0.8,0.4,1.2,0.6c0.2,0.1,0.4,0.2,0.7,0.3h-70.7l-3.9-19.4l-2.8-13.9l-0.7-3.3l-4.8-23.8l-0.7-3.5l-4.2-21.2
							l-2.8-13.9H757.4z"/>
						<path class="st6" d="M771.2,624.9c-4.4,7.4-9,14.6-13.8,21.7c-2.6,3.8-5.2,7.6-8,11.3c-0.6,0.9-1.3,1.7-1.9,2.6H564.3v-35.6
							H771.2z"/>
						<path class="st7" d="M571.8,598.5c23.4,5,20.1,24.9-3.7,21.9c-5,23.4-24.9,20.1-21.9-3.7c-23.4-5-20.1-24.9,3.7-21.9
							C554.9,571.4,574.8,574.8,571.8,598.5z"/>
						<path class="st4" d="M617.7,586c18.8-14.8,32,0.5,14.5,16.9c14.8,18.8-0.5,32-16.9,14.5c-18.8,14.8-32-0.5-14.5-16.9
							C586.1,581.7,601.4,568.6,617.7,586z"/>
						<path class="st8" d="M602.9,547.5c18.7,4,16,19.9-2.9,17.5c-4,18.7-19.9,16-17.5-2.9c-18.7-4-16-19.9,2.9-17.5
							C589.3,525.9,605.3,528.6,602.9,547.5z"/>
						<path class="st8" d="M665.7,559.7c16.2-6.3,22,7.1,6.4,14.7c6.3,16.2-7.1,22-14.7,6.4c-16.2,6.3-22-7.1-6.4-14.7
							C644.7,550,658.1,544.1,665.7,559.7z"/>
						<path class="st9" d="M690.1,604.8c23.4,5,20.1,24.9-3.7,21.9c-5,23.4-24.9,20.1-21.9-3.7c-23.4-5-20.1-24.9,3.7-21.9
							C673.1,577.7,693,581,690.1,604.8z"/>
						<path class="st8" d="M729.4,562.8c25.1,5.3,21.5,26.7-4,23.5c-5.3,25.1-26.7,21.5-23.5-4c-25.1-5.3-21.5-26.7,4-23.5
							C711.2,533.8,732.6,537.4,729.4,562.8z"/>
						<path class="st8" d="M748.1,619.8c9.2,13.5-1.9,21.7-12.1,9c-13.5,9.2-21.7-1.9-9-12.1c-9.2-13.5,1.9-21.7,12.1-9
							C752.6,598.5,760.8,609.5,748.1,619.8z"/>
						<path class="st8" d="M776.9,584.4c12.9,12,3.2,23.4-10.7,12.5c-12,12.9-23.4,3.2-12.5-10.7c-12.9-12-3.2-23.4,10.7-12.5
							C776.5,560.8,787.8,570.5,776.9,584.4z"/>
						<path class="st7" d="M789.9,589.3c-4.1,8.8-8.5,17.4-13.2,25.8c-9.3-3.8-9.6-11.4-2.5-14.2h0c1.8-0.7,4-1.1,6.6-1h0
							c0.9,0,1.9,0.1,3,0.2C785,594.5,787.3,591,789.9,589.3z"/>
						<path class="st8" d="M644.4,533.8c16.5,3.5,14.1,17.5-2.6,15.4c-3.5,16.5-17.5,14.1-15.4-2.6c-16.5-3.5-14.1-17.5,2.6-15.4
							C632.5,514.7,646.5,517.1,644.4,533.8z"/>
						<path class="st8" d="M700.9,519.7c21.7,4.6,18.6,23.1-3.4,20.3c-4.6,21.7-23.1,18.6-20.3-3.4c-21.7-4.6-18.6-23.1,3.4-20.3
							C685.1,494.6,703.6,497.7,700.9,519.7z"/>
						<path class="st8" d="M759.3,548.1c11.4,10.4,3,20.3-9.2,11c-10.4,11.4-20.3,3-11-9.2c-11.4-10.4-3-20.3,9.2-11
							C758.7,527.6,768.6,535.9,759.3,548.1z"/>
						<path class="st8" d="M802.3,559.7c-2.5,6.7-5.2,13.2-8,19.8c-0.7,1.6-1.3,3.1-2,4.6c-0.6-2-0.8-4.4-0.3-7.2
							c0.4-2.3,1.1-4.8,2.3-7.6c-0.9-0.5-1.7-1-2.5-1.5c-16.1-10.4-8.7-25,9.5-18.3c0.7,0.3,1.4,0.5,2.2,0.9c1.2-2.1,2.4-4,3.7-5.5
							c0.1-0.1,0.2-0.2,0.3-0.3c0.1-0.1,0.2-0.2,0.3-0.4c-0.2,0.6-0.4,1.2-0.6,1.8C807.2,546.1,803.3,559.4,802.3,559.7z"/>
						<g>
							<path class="st10" d="M802.3,559.7c-2.5,6.7-5.2,13.2-8,19.8c-1-0.8-1.8-1.6-2.4-2.6c-1.7-2.7-1.8-6-0.1-9.1
								C793.5,564.7,797,561.7,802.3,559.7z"/>
							<path class="st10" d="M807.5,544.6c0.3-0.8,0.6-1.6,1-2.3c-0.2,0.6-0.4,1.3-0.6,1.9c-0.2,0.6-0.4,1.2-0.6,1.8
								c0,0-1.1,4.5-0.5,1.4c0,0,0,0,0,0c0.1-0.7,0.3-1.4,0.5-2C807.3,545.2,807.4,544.9,807.5,544.6z"/>
							<path class="st7" d="M760.8,544.9c-18.7-16.1-31.8,0.6-14.4,18.4c-14.7,20.5,0.5,34.8,16.8,15.8
								c18.7,16.1,31.8-0.6,14.4-18.4C792.3,540.2,777.1,525.9,760.8,544.9z"/>
							<path class="st10" d="M775.6,503c-18.6,4.3-15.9,21.7,2.9,19.1c3.9,20.4,19.8,17.5,17.4-3.2c18.6-4.3,15.9-21.7-2.9-19.1
								C789.1,479.4,773.2,482.3,775.6,503z"/>
							<path class="st7" d="M713.1,516.2c-16.1-6.8-21.9,7.8-6.4,16.1c-6.2,17.6,7.1,24,14.7,7c16.1,6.8,21.9-7.8,6.4-16.1
								C734,505.6,720.7,499.3,713.1,516.2z"/>
							<path class="st7" d="M688.9,565.3c-23.3,5.4-19.9,27.1,3.7,23.9c4.9,25.5,24.8,21.8,21.8-4c23.3-5.4,19.9-27.1-3.7-23.9
								C705.8,535.8,685.9,539.5,688.9,565.3z"/>
							<path class="st7" d="M649.8,519.6c-25,5.8-21.4,29.1,3.9,25.6c5.3,27.3,26.5,23.4,23.4-4.3c25-5.8,21.4-29.1-3.9-25.6
								C667.9,488,646.7,491.9,649.8,519.6z"/>
							<path class="st7" d="M631.2,581.7c-9.1,14.7,1.9,23.6,12.1,9.8c13.4,10,21.5-2,9-13.2c9.1-14.7-1.9-23.6-12.1-9.8
								C626.8,558.5,618.6,570.5,631.2,581.7z"/>
							<path class="st9" d="M602.5,543.2c-12.9,13.1-3.2,25.5,10.6,13.6c12,14.1,23.2,3.5,12.4-11.6c12.9-13.1,3.2-25.5-10.6-13.6
								C603,517.4,591.7,528,602.5,543.2z"/>
							<path class="st7" d="M579.5,563.3c-17.3,4-14.8,20.2,2.7,17.8c3.7,19,18.4,16.2,16.2-3c17.3-4,14.8-20.2-2.7-17.8
								C592.1,541.3,577.3,544,579.5,563.3z"/>
							<path class="st10" d="M734.3,488c-16.4,3.8-14,19.1,2.6,16.8c3.5,17.9,17.4,15.4,15.3-2.8c16.4-3.8,14-19.1-2.6-16.8
								C746.1,467.2,732.2,469.8,734.3,488z"/>
							<path class="st4" d="M678.2,472.7c-21.6,5-18.5,25.1,3.4,22.1c4.6,23.6,23,20.3,20.2-3.7c21.6-5,18.5-25.1-3.4-22.1
								C693.8,445.3,675.4,448.7,678.2,472.7z"/>
							<path class="st7" d="M620.1,503.6c-11.3,11.3-3,22.1,9.1,11.9c10.3,12.4,20.2,3.3,10.9-10c11.3-11.3,3-22.1-9.1-11.9
								C620.7,481.2,610.8,490.3,620.1,503.6z"/>
							<path class="st4" d="M557.3,516.2c-19.8,11.8-11.4,30.5,9.2,20.6c10.7,21.7,27.8,12.5,18.8-10.1
								c19.8-11.8,11.4-30.5-9.2-20.6C565.3,484.4,548.2,493.6,557.3,516.2z"/>
						</g>
						<path class="st11" d="M746.9,661.3c0.7,3.1,0.3,5.7-0.7,7.7c-0.8,1.6-2.1,2.7-3.7,3.4c0,0,0,0,0,0c-2,2.1-3.7,4.4-5.1,6.6
							c-0.9,1.4-1.7,2.8-2.4,4.3v1.9H583.4l-0.7-3.5l-4.1-21.2h168.9C747.3,660.8,747.1,661,746.9,661.3z"/>
						<g>
							<path class="st8" d="M817,512.2c-2.5,10.2-5.3,20.3-8.5,30.2v0c-0.2,0.6-0.4,1.3-0.6,1.9c-0.2,0.6-0.4,1.2-0.6,1.8
								c0,0-3,11-3.5,10c-0.9-1.8-1.7-4-2.4-6.5c-0.2-0.9-0.5-1.8-0.6-2.8c-8.7,1.2-14.7-1-17.5-4.5c-0.9-1.1-1.5-2.3-1.8-3.6
								c-0.5-2.1-0.2-4.3,1-6.5c0,0,0,0,0,0c2-3.7,6.5-7.2,13.8-9.1c0.3-0.1,0.6-0.1,0.8-0.2c-0.2-1.4-0.2-2.8-0.3-4.1
								c-0.2-10.3,3.6-16.2,8.1-17.1c0.8-0.2,1.6-0.2,2.4,0C810.8,502.1,814.5,505.5,817,512.2z"/>
							<path class="st8" d="M751.4,509.2c-18.7-16.1-31.8,0.6-14.4,18.4c-14.7,20.5,0.5,34.8,16.8,15.8
								c18.7,16.1,31.8-0.6,14.4-18.4C782.9,504.5,767.6,490.1,751.4,509.2z"/>
							<path class="st8" d="M766.2,467.2c-18.6,4.3-15.9,21.7,2.9,19.1c3.9,20.4,19.8,17.5,17.4-3.2c18.6-4.3,15.9-21.7-2.9-19.1
								C779.6,443.7,763.8,446.6,766.2,467.2z"/>
							<path class="st8" d="M703.6,480.5c-16.1-6.8-21.9,7.8-6.4,16.1c-6.2,17.6,7.1,24,14.7,7c16.1,6.8,21.9-7.8,6.4-16.1
								C724.5,469.9,711.2,463.5,703.6,480.5z"/>
							<path class="st4" d="M679.5,529.6c-23.3,5.4-19.9,27.1,3.7,23.9c4.9,25.5,24.8,21.8,21.8-4c23.3-5.4,19.9-27.1-3.7-23.9
								C696.3,500.1,676.5,503.7,679.5,529.6z"/>
							<path class="st4" d="M640.4,483.9c-25,5.8-21.4,29.1,3.9,25.6c5.3,27.3,26.5,23.4,23.4-4.3c25-5.8,21.4-29.1-3.9-25.6
								C658.4,452.3,637.2,456.2,640.4,483.9z"/>
							<path class="st8" d="M621.7,546c-9.1,14.7,1.9,23.6,12.1,9.8c13.4,10,21.5-2,9-13.2c9.1-14.7-1.9-23.6-12.1-9.8
								C617.3,522.8,609.1,534.8,621.7,546z"/>
							<path class="st8" d="M593.1,507.4c-12.9,13.1-3.2,25.5,10.6,13.6c12,14.1,23.2,3.5,12.4-11.6c12.9-13.1,3.2-25.5-10.6-13.6
								C593.5,481.7,582.2,492.3,593.1,507.4z"/>
							<path class="st8" d="M570.1,527.5c-17.3,4-14.8,20.2,2.7,17.8c3.7,19,18.4,16.2,16.2-3c17.3-4,14.8-20.2-2.7-17.8
								C582.6,505.6,567.9,508.3,570.1,527.5z"/>
							<path class="st4" d="M724.8,452.2c-16.4,3.8-14,19.1,2.6,16.8c3.5,17.9,17.4,15.4,15.3-2.8c16.4-3.8,14-19.1-2.6-16.8
								C736.7,431.5,722.8,434.1,724.8,452.2z"/>
							<path class="st8" d="M649.8,476.1c-21.6,5-18.5,25.1,3.4,22.1c4.6,23.6,23,20.3,20.2-3.7c21.6-5,18.5-25.1-3.4-22.1
								C665.4,448.8,647,452.2,649.8,476.1z"/>
							<path class="st8" d="M610.6,467.9c-11.3,11.3-3,22.1,9.1,11.9c10.3,12.4,20.2,3.3,10.9-10c11.3-11.3,3-22.1-9.1-11.9
								C611.2,445.5,601.3,454.6,610.6,467.9z"/>
							<path class="st4" d="M547.8,480.4c-19.8,11.8-11.4,30.5,9.2,20.6c10.7,21.7,27.8,12.5,18.8-10.1
								c19.8-11.8,11.4-30.5-9.2-20.6C555.9,448.7,538.8,457.8,547.8,480.4z"/>
						</g>
					</g>
					<path class="st4" d="M75.4,585.5c18.8-14.8,32,0.5,14.5,16.9c14.8,18.8-0.5,32-16.9,14.5c-18.8,14.8-32-0.5-14.5-16.9
						C43.7,581.2,59,568,75.4,585.5z"/>
					<path class="st8" d="M147.7,604.2c23.4,5,20.1,24.9-3.7,21.9c-5,23.4-24.9,20.1-21.9-3.7c-23.4-5-20.1-24.9,3.7-21.9
						C130.8,577.1,150.7,580.5,147.7,604.2z"/>
					<path class="st7" d="M72,560.8c-0.3,2.3-1.7,4.4-4.1,5.9c-2.7,1.7-6.6,2.7-11.7,2.6c-1.2,0-2.4-0.1-3.8-0.3
						c-0.7,3-1.5,5.6-2.6,7.7c-2.4,4.8-5.6,7.5-8.8,8.1c-1.6,0.3-3.3,0.1-4.7-0.7c-0.5-1.2-1-2.3-1.5-3.5c-1.6-3.6-3.1-7.2-4.6-10.8
						c0,0,0,0,0,0c0-1.4,0.1-2.9,0.3-4.5c0,0,0,0,0-0.1c-0.8-0.2-1.6-0.4-2.3-0.6c-2-5-3.8-10-5.6-15.1c-0.6-1.7-1.1-3.3-1.7-5
						c0.5-0.2,1.1-0.4,1.7-0.6c1.7-0.5,3.7-0.8,5.9-0.9c1.7-0.1,3.6,0,5.7,0.3c1.8-8.5,5.5-13.5,9.5-15.2c3.6-1.6,7.4-0.5,9.9,3.1
						c2.3,3.3,3.5,8.6,2.6,15.8c0.2,0,0.3,0.1,0.4,0.1c8.5,1.9,13.3,5.8,14.9,9.8C72,558.2,72.2,559.5,72,560.8z"/>
					<path class="st4" d="M102,534.6c18.8-14.8,32,0.5,14.5,16.9c14.8,18.8-0.5,32-16.9,14.5c-18.8,14.8-32-0.5-14.5-16.9
						C70.3,530.3,85.6,517.1,102,534.6z"/>
					<path class="st9" d="M174.3,553.4c23.4,5,20.1,24.9-3.7,21.9c-5,23.4-24.9,20.1-21.9-3.7c-23.4-5-20.1-24.9,3.7-21.9
						C157.4,526.3,177.3,529.6,174.3,553.4z"/>
					<path class="st7" d="M284.3,551.4c17.4,3.7,14.9,18.5-2.7,16.3c-3.7,17.4-18.5,14.9-16.3-2.7c-17.4-3.7-14.9-18.5,2.7-16.3
						C271.7,531.3,286.5,533.8,284.3,551.4z"/>
					<path class="st4" d="M290.7,507.1c-23.3,5.4-19.9,27.1,3.7,23.9c4.9,25.5,24.8,21.8,21.8-4c23.3-5.4,19.9-27.1-3.7-23.9
						C307.6,477.6,287.8,481.3,290.7,507.1z"/>
					<path class="st4" d="M268.8,477.3c-18.7-16.1-31.8,0.6-14.4,18.4c-14.7,20.5,0.5,34.8,16.8,15.8c18.7,16.1,31.8-0.6,14.4-18.4
						C300.3,472.6,285.1,458.3,268.8,477.3z"/>
					<path class="st4" d="M197.3,464.8c-16.1-6.8-21.9,7.8-6.4,16.1c-6.2,17.6,7.1,24,14.7,7c16.1,6.8,21.9-7.8,6.4-16.1
						C218.2,454.2,204.9,447.9,197.3,464.8z"/>
					<path class="st4" d="M173.1,513.9c-23.3,5.4-19.9,27.1,3.7,23.9c4.9,25.5,24.8,21.8,21.8-4c23.3-5.4,19.9-27.1-3.7-23.9
						C190,484.4,170.2,488.1,173.1,513.9z"/>
					<path class="st4" d="M115.4,530.3c-9.1,14.7,1.9,23.6,12.1,9.8c13.4,10,21.5-2,9-13.2c9.1-14.7-1.9-23.6-12.1-9.8
						C111,507.1,102.8,519.1,115.4,530.3z"/>
					<path class="st4" d="M63.8,511.8c-17.3,4-14.8,20.2,2.7,17.8c3.7,19,18.4,16.2,16.2-3c17.3-4,14.8-20.2-2.7-17.8
						C76.3,489.9,61.6,492.6,63.8,511.8z"/>
					<path class="st4" d="M368,493.6c-21.6,5-18.5,25.1,3.4,22.1c4.6,23.7,23,20.3,20.2-3.7c21.6-5,18.5-25.1-3.4-22.1
						C383.7,466.2,365.3,469.6,368,493.6z"/>
					<path class="st4" d="M41.5,464.7c-19.8,11.8-11.4,30.5,9.2,20.6c10.7,21.7,27.8,12.5,18.8-10.1c19.8-11.8,11.4-30.5-9.2-20.6
						C49.5,433,32.5,442.2,41.5,464.7z"/>
					<path class="st4" d="M590.6,493.6c-18.6,4.3-15.9,21.7,2.9,19.1c3.9,20.4,19.8,17.5,17.4-3.2c18.6-4.3,15.9-21.7-2.9-19.1
						C604.1,470,588.3,472.9,590.6,493.6z"/>
					<path class="st4" d="M640.4,439.5c-25,5.8-21.4,29.1,3.9,25.6c5.3,27.3,26.5,23.4,23.4-4.3c25-5.8,21.4-29.1-3.9-25.6
						C658.4,407.9,637.2,411.8,640.4,439.5z"/>
					<path class="st4" d="M86.8,491.7c-12.9,13.1-3.2,25.5,10.6,13.6c12,14.1,23.3,3.5,12.4-11.6c12.9-13.1,3.2-25.5-10.6-13.6
						C87.2,466,75.9,476.6,86.8,491.7z"/>
					<path class="st4" d="M505.4,500.1c-16.4,3.8-14,19.1,2.6,16.8c3.5,17.9,17.4,15.4,15.3-2.8c16.4-3.8,14-19.1-2.6-16.8
						C517.2,479.4,503.3,482,505.4,500.1z"/>
					<path class="st4" d="M751.1,492.2c-11.3,11.3-3,22.1,9.1,11.9c10.3,12.4,20.2,3.3,10.9-10c11.3-11.3,3-22.1-9.1-11.9
						C751.7,469.9,741.8,478.9,751.1,492.2z"/>
					<path class="st8" d="M654.3,696.8c23.4,5,20.1,24.9-3.7,21.9c-5,23.4-24.9,20.1-21.9-3.7c-23.4-5-20.1-24.9,3.7-21.9
						C637.3,669.7,657.3,673,654.3,696.8z"/>
					<path class="st4" d="M722.6,689c-0.2,1.1-0.6,2.2-1.1,3.3c0,0,0,0,0,0c-1.3,2.8-3.5,5.8-6.8,8.9c0.1,0.2,0.3,0.3,0.4,0.5h-2.4
						c-1,1.1-2.1,2.1-3.2,3.2c0.2,1.4,0.3,2.7,0.3,4.1c0,0.7,0.1,1.3,0.1,2h-5.7v-0.8c-0.7,0.7-1.5,1.5-2.2,2.2c0,2.5-2.7,5-3.9,3.7
						c-0.1-0.1-0.2-0.2-0.4-0.4c-3.4,2.7-6.7,4.4-9.6,5.3c-0.6,0.2-1.2,0.3-1.8,0.5c-2.5,0.5-4.7,0.3-6.5-0.4
						c-2.3-0.9-3.9-2.7-4.5-5.1c-0.3-1.1-0.4-2.3-0.2-3.6c0-0.2,0-0.4,0.1-0.6c0-0.3,0.1-0.6,0.2-0.9c0.1-0.6,0.3-1.1,0.5-1.7
						c0.6-1.7,1.6-3.5,3-5.3c1.1-1.6,2.6-3.2,4.3-4.9c-4-5.1-5.8-9.8-6-13.6c-0.1-2.4,0.5-4.4,1.5-5.9c1.2-1.7,3-2.8,5.2-3.1
						c0.7-0.1,1.5-0.1,2.3,0c0.3,0,0.7,0.1,1,0.1c0.5,0.1,1,0.2,1.6,0.4c0.9,0.3,1.9,0.7,2.9,1.2c2.6,1.3,5.5,3.4,8.3,6.5
						c1-0.8,2.1-1.5,3.1-2.2c1.3-0.9,2.7-1.6,3.9-2.1c8-3.5,14-1.2,15.4,4c0.1,0.4,0.2,0.8,0.2,1.2C723,686.4,722.9,687.6,722.6,689
						z"/>
					<path class="st7" d="M680.9,645.9c23.4,5,20.1,24.9-3.7,21.9c-5,23.4-24.9,20.1-21.9-3.7c-23.4-5-20.1-24.9,3.7-21.9
						C663.9,618.8,683.9,622.2,680.9,645.9z"/>
					<path class="st4" d="M746.9,661.3c0.7,3.1,0.3,5.7-0.7,7.7c-0.8,1.6-2.1,2.7-3.7,3.4c0,0,0,0,0,0c-1.3,0.5-2.8,0.7-4.5,0.5
						c-0.9-0.1-1.9-0.3-3-0.7c-0.7-0.2-1.3-0.5-2-0.8c-2.7-1.3-5.6-3.5-8.6-6.6c-0.6,0.5-1.2,0.9-1.8,1.3
						c-6.2,4.3-11.6,5.4-15.4,4.2c-4.1-1.2-6.2-5-5.3-9.9c0.6-2.9,2.2-6.3,5.3-9.8c0.8-0.9,1.7-1.9,2.7-2.8c-0.3-0.4-0.7-0.9-1-1.3
						c-0.6-0.9-1.2-1.8-1.7-2.6c-4.8-8.1-3.9-14.6,0-17.4c3.1-2.2,8.1-2,13.7,1.7c0.6,0.4,1.2,0.8,1.7,1.2c1,0.8,2,1.6,3,2.6
						c0.4,0.4,0.8,0.8,1.2,1.2c0.6-0.5,1.2-0.9,1.8-1.4h0c2.2-1.6,4.4-2.7,6.4-3.5c7.9-3,13.6-0.1,14.4,5.5
						c0.5,3.4-0.8,7.8-4.6,12.5c-1,1.2-2.1,2.5-3.5,3.7c2.5,3.2,4.2,6.3,5.1,9.1c0.1,0.4,0.2,0.8,0.3,1.1
						C746.8,660.8,746.9,661,746.9,661.3z"/>
					<g>
						<path class="st8" d="M332.6,706.5c-23.3,5.4-19.9,27.1,3.7,23.9c4.9,25.5,24.8,21.8,21.8-4c23.3-5.4,19.9-27.1-3.7-23.9
							C349.4,677,329.6,680.7,332.6,706.5z"/>
						<path class="st8" d="M287,692.9c-18.7-16.1-31.8,0.6-14.4,18.4c-14.7,20.5,0.5,34.8,16.8,15.8c18.7,16.1,31.8-0.6,14.4-18.4
							C318.5,688.2,303.2,673.9,287,692.9z"/>
						<path class="st8" d="M301.7,651c-18.6,4.3-15.9,21.7,2.9,19.1c3.9,20.4,19.8,17.5,17.4-3.2c18.6-4.3,15.9-21.7-2.9-19.1
							C315.2,627.4,299.4,630.3,301.7,651z"/>
						<path class="st8" d="M239.2,664.2c-16.1-6.8-21.9,7.8-6.4,16.1c-6.2,17.6,7.1,24,14.7,7c16.1,6.8,21.9-7.8,6.4-16.1
							C260.1,653.6,246.8,647.3,239.2,664.2z"/>
						<path class="st4" d="M215,713.3c-23.3,5.4-19.9,27.1,3.7,23.9c4.9,25.5,24.8,21.8,21.8-4c23.3-5.4,19.9-27.1-3.7-23.9
							C231.9,683.8,212.1,687.5,215,713.3z"/>
						<path class="st4" d="M175.9,667.6c-25,5.8-21.4,29.1,3.9,25.6c5.3,27.3,26.5,23.4,23.4-4.3c25-5.8,21.4-29.1-3.9-25.6
							C194,636,172.8,639.9,175.9,667.6z"/>
						<path class="st8" d="M171.1,740.7c-0.6-0.4-1.2-0.8-1.7-1.2c-1.7,2.3-3.5,4-5.2,5.1c-0.2,0.2-0.5,0.3-0.7,0.5
							c-1.2,0.7-2.3,1.1-3.3,1.2c-0.6,0.1-1.2,0.1-1.7,0c-1-0.1-1.9-0.5-2.6-1.2c-1.2-1.1-1.9-2.8-2-5c0-1,0.1-2.1,0.3-3.3
							c0.3-1.6,1-3.3,1.9-5.2c0.3-0.6,0.7-1.3,1.1-2c-2.4-2.2-4.1-4.4-5.1-6.4c-2-4.2-1.3-7.8,1.2-9.5c2.1-1.4,5.6-1.5,9.8,0.8
							c1,0.5,2,1.2,3.1,2c0.4-0.6,0.8-1.1,1.3-1.6c2.2-2.6,4.4-4.1,6.4-4.8c1.1-0.4,2.1-0.5,3-0.4c1.2,0.1,2.2,0.6,3,1.4
							c2.5,2.6,2.7,8.2-1.6,15.2C190.3,737,183.5,748.4,171.1,740.7z"/>
						<path class="st8" d="M128.7,691.2c-12.9,13.1-3.2,25.5,10.6,13.6c12,14.1,23.2,3.5,12.4-11.6c12.9-13.1,3.2-25.5-10.6-13.6
							C129.1,665.4,117.8,676,128.7,691.2z"/>
						<path class="st8" d="M134.8,720.1c-0.9,1.3-2.2,2.5-4,3.6c-0.5,0.3-1,0.5-1.5,0.8c-0.9-3-1.4-6.7-1.4-10.8
							c-1.4-1.4-2.9-2.8-4.3-4.2v1.5H120c0-1.6,0.1-3.2,0.3-4.8c-1.5-1.5-3-3-4.4-4.5h-9.8c0.3-1,0.7-1.9,1.1-2.7
							c0.3-0.5,0.6-1,1-1.5c0.4-0.5,0.8-0.8,1.2-1.2c0,0,0,0,0.1,0c0.1-0.1,0.3-0.2,0.4-0.3c0,0,0.1,0,0.1,0l0.4-0.2
							c3.1-1.4,6.9,0.4,9.4,5.9c0.3,0.6,0.6,1.3,0.8,2.1c0.4,1.1,0.8,2.4,1,3.8c0,0.2,0.1,0.5,0.1,0.8c0.2,0,0.4,0,0.5-0.1
							c0.1,0,0.2,0,0.2,0c0.3,0,0.7-0.1,1-0.1c0.4,0,0.7,0,1,0h0c1.2,0,2.4,0,3.5,0.2c1,0.2,2,0.4,2.8,0.7c0.2,0.1,0.4,0.2,0.6,0.2
							C136.3,711.4,137.6,716.1,134.8,720.1z"/>
						<path class="st4" d="M260.4,636c-16.4,3.8-14,19.1,2.6,16.8c3.5,17.9,17.4,15.4,15.3-2.8c16.4-3.8,14-19.1-2.6-16.8
							C272.3,615.2,258.3,617.8,260.4,636z"/>
						<path class="st8" d="M526.7,671.2c-21.6,5-18.5,25.1,3.4,22.1c4.6,23.7,23,20.3,20.2-3.7c21.6-5,18.5-25.1-3.4-22.1
							C542.3,643.8,523.9,647.2,526.7,671.2z"/>
						<path class="st8" d="M146.2,651.6c-11.3,11.3-3,22.1,9.1,11.9c10.3,12.4,20.2,3.3,10.9-10c11.3-11.3,3-22.1-9.1-11.9
							C146.8,629.2,136.9,638.3,146.2,651.6z"/>
						<path class="st4" d="M122.6,659.9c0,0.2,0,0.5,0,0.7c-0.1,1.2-0.4,2.4-1,3.6c-1.5,3.5-4.8,7.2-10.2,10.4
							c0.1,0.1,0.1,0.3,0.2,0.4c1.4,3.6,2.1,6.8,2.3,9.6c0.4,5.3-1.1,9.2-3.6,11.1c-0.1,0.1-0.2,0.2-0.3,0.2c0,0,0,0-0.1,0
							c-0.1,0.1-0.3,0.2-0.4,0.3c0,0,0,0-0.1,0c-0.4,0.2-0.9,0.4-1.4,0.5c-0.3,0.1-0.6,0.1-0.9,0.2c-2.4,0.3-5.3-0.7-8.1-3.2
							c-1.4-1.2-2.8-2.9-4.1-4.9c-0.8-1.2-1.6-2.6-2.4-4.2v-0.1h3.1c-0.9-2-2-4-3.2-5.8c-2.8-4.3-6.8-9.2-12.5-12.4
							c1-0.8,2.2-1.6,3.4-2.3c-0.2-0.4-0.3-0.8-0.4-1.2c-0.4-1.1-0.7-2.1-1-3.1c-0.2-0.6-0.3-1.1-0.4-1.6c-0.8-3.5-0.9-6.5-0.4-8.9
							c0.2-1.2,0.6-2.3,1-3.2c1-2.1,2.5-3.4,4.3-4c2.9-0.9,6.7,0.2,10.3,4c1.9,2,3.7,4.6,5.4,8c1.3-0.6,2.6-1.1,3.8-1.5
							c0.4-0.1,0.8-0.3,1.2-0.4c9-2.6,14.8,1,15.4,6.5C122.6,659.1,122.7,659.5,122.6,659.9z"/>
					</g>
					<path class="st7" d="M395.6,666.3c-1-14.1,10.8-15.5,13-1.5c14.1-1,15.5,10.8,1.5,13c1,14.1-10.8,15.5-13,1.5
						C383,680.4,381.6,668.5,395.6,666.3z"/>
					<path class="st4" d="M441.7,670.8c-19.4-13.9-8.4-30.8,12.2-18.6c13.9-19.4,30.8-8.4,18.6,12.2c19.4,13.9,8.4,30.8-12.2,18.6
						C446.3,702.5,429.4,691.4,441.7,670.8z"/>
					<path class="st7" d="M111.6,675.1c-1.3,0.2-2.8,0.4-4.4,0.4c-1.5,0-3.2-0.1-5-0.3c-0.2,1.1-0.5,2.2-0.8,3.2
						c-0.6,1.9-1.3,3.6-2,5c-0.2,0.4-0.5,0.9-0.7,1.3c-0.6,1-1.2,1.8-1.8,2.5c-0.6,0.7-1.2,1.2-1.8,1.7c-0.8-1.2-1.6-2.6-2.4-4.2
						v-0.1h3.1c-0.9-2-2-4-3.2-5.8c-2.8-4.3-6.8-9.2-12.5-12.4c1-0.8,2.2-1.6,3.4-2.3c-0.2-0.4-0.3-0.8-0.4-1.2
						c-0.8-1-1.6-2.1-2.3-3.1c-0.7-1-1.4-1.9-2.1-2.8v0c-1.7-2.4-3.4-4.7-5.1-7.1c2.2-0.5,4.7-0.7,7.7-0.6c0.9,0,1.9,0.1,2.9,0.2
						c0.3-1.2,0.6-2.4,0.9-3.5c0.5-1.5,1-2.8,1.6-4c6.1-12.8,18.3-10.5,19.6,4c0.2,1.9,0.1,4.1-0.1,6.5c0,0.2,0,0.5-0.1,0.8
						c0.4,0.1,0.9,0.2,1.3,0.3c5.6,1.4,9.6,3.7,12,6.3c1.3,1.4,2.1,2.9,2.5,4.4C122.8,669.1,119.3,673.8,111.6,675.1z"/>
					<path class="st4" d="M191.4,651.2c18.8-14.8,32,0.5,14.5,16.9c14.8,18.8-0.5,32-16.9,14.5c-18.8,14.8-32-0.5-14.5-16.9
						C159.7,646.9,175.1,633.7,191.4,651.2z"/>
				</g>
			</g>
		</g>
	</g>
</g>
</svg>
