<?xml version="1.0" encoding="utf-8"?>
<!-- Generator: Adobe Illustrator 19.2.1, SVG Export Plug-In . SVG Version: 6.00 Build 0)  -->
<!DOCTYPE svg PUBLIC "-//W3C//DTD SVG 1.1//EN" "http://www.w3.org/Graphics/SVG/1.1/DTD/svg11.dtd">
<svg version="1.1" id="Livello_1" xmlns="http://www.w3.org/2000/svg" xmlns:xlink="http://www.w3.org/1999/xlink" x="0px" y="0px"
	 viewBox="0 0 828.7 828.7" style="enable-background:new 0 0 828.7 828.7;" xml:space="preserve">
<style type="text/css">
	.st0{fill:#B7DDF3;}
	.st1{fill:#5E6338;}
	.st2{fill:#77881C;}
	.st3{fill:#94C01F;}
	.st4{fill:#F3E4B2;}
	.st5{opacity:0.7;fill:#CEE7F2;enable-background:new    ;}
	.st6{opacity:0.7;fill:#E7EFFA;enable-background:new    ;}
	.st7{opacity:0.7;fill:#C7DAF3;enable-background:new    ;}
	.st8{fill:#CDE7F8;}
	.st9{fill:none;stroke:#C7DAF3;stroke-width:3;stroke-miterlimit:10;}
	.st10{fill:#BF8D50;}
	.st11{opacity:0.6;fill:#FDFBFE;enable-background:new    ;}
	.st12{fill:#8F5214;}
</style>
<g>
	<path class="st0" d="M451.1,476.5c178,13.3,286.8,39.5,357.4,65.7c13.1-40.3,20.1-83.3,20.1-127.9c0-1,0-2,0-3
		c-10.6,6.7-20.3,14.8-28.9,23.9c-1.8-6.5-8.9-10.9-15.5-10.1l-2.5,0.6c0.8-0.3,1.6-0.5,2.5-0.6l8.5-1.9c-12.8-3-25.8-6.1-36.9-12.9
		s-20.5-18.1-21.4-31.2c-1-14.2,7.9-27.6,19.6-35.7c11.6-8.2,25.6-12.1,39.3-15.9c-10.4-5.1-22.2-6.5-33.4-9.4
		c-11.2-2.9-22.7-8.1-28.7-18c-5.4-9-5.2-20.7-1.4-30.5s10.8-18.1,18.4-25.4c9.7-9.3,20.6-17.3,32.3-23.8
		c-5.7-10.7-11.8-21.1-18.4-31.2c-3.2,4.7-7.1,8.9-11.6,12.4c-12.5,9.8-29.6,13.8-44.9,9.5c3.6,5.3,3.3,12.5,0.7,18.3
		c-2.7,5.8-7.4,10.4-12.3,14.5c-9.5,7.8-20.1,14.2-31.4,18.9c-15.4,6.3-33.1,9.4-48.6,3.3c-15.5-6.1-27.2-23.6-22.5-39.5
		c-27,8.1-58.8-9.9-65.7-37.2c-1.6-6.3-2-12.9-0.4-19.2c2.1-8.1,7.4-15,13.4-20.8c11.3-11.1,25.4-19.4,40.6-23.9
		c-10.5-7.9-15.7-22.2-12.7-35c1.2-5.2,5-10.7,9.7-12.2c-4.9-14.5-4.5-30.7,1-44.9c-40-17.2-83.3-28.2-128.6-31.9
		c5.5,8.2,7.4,18.5,3,27.4c8.5-5.6,20.7-2.4,27.8,4.9s9.9,17.8,11.1,28c0.9,8.4,0.8,17.2-2.7,25s-10.8,14.2-19.3,14.5
		c12.7,10.2,11.6,31.3,1,43.7c-10.6,12.4-27.7,17.1-43.9,17.9c0,9.1-11.1,13.5-20.1,14.7c-10.1,1.3-20.2,1.8-30.4,1.3
		c-11.4-0.5-23.1-2.4-32.7-8.6c-9.6-6.2-16.5-17.6-14.5-28.8c-18-8.6-31.4-26.3-34.7-46c-1.3-7.8,0.1-17.6,6.8-21.1l-1.5-1.6
		c-5.3-19.9-1.6-42.1,9.9-59.1c-13.2,3.5-26.1,7.5-38.7,12.2c-0.9,13.5-7.5,26.4-19.4,32.6c17.1,3.6,31.2,18.6,33.7,35.9
		s-6.6,35.7-22,44.1c15-4,31.9,9.7,31.1,25.2s-19,27.4-33.5,21.8c7.3,8.7,5.8,22.7-1.3,31.6c-7.1,8.9-18.6,13.4-29.9,15
		c-11.3,1.6-23.6,0.3-33-6.2c-9.4-6.5-15-19.2-11-29.9c-12.3,4.4-27.3-1.2-33.7-12.6c-6.4-11.4-3.5-27.1,6.6-35.4
		c2.3-1.9,5.5-3.3,8.5-3.4c-3.9-4.8-2.7-12.6,1.1-17.5c4-5.2,10.2-8.1,16.1-10.9c-12.9-4.1-27-9.1-33.3-20.9
		c-40.5,33.5-74.4,74.6-99.8,121.1c3.9-0.6,8-0.1,11.7,1.3c6.5,2.4,11.9,7,16.8,11.9c7.8,7.8,15.2,18.6,11.6,29
		c-3.9,11.3-18.8,15.4-24.1,26.1c17.8,2.4,33.9,14.4,41.4,30.7c7.5,16.3,5.9,36.4-3.9,51.4c12.7,1.1,21.7,14.3,22.4,27.1
		c0.7,12.8-4.8,25-10.7,36.3c-4.4,8.5-9.9,17.5-19,20.6c-9.9,3.4-20.7-1.3-31-0.6c-10,1.8-20.1,2.7-29.9,0.5
		c-13.7-3.1-26.7-14.3-26.9-28.4c-0.3-15.2,13.2-26.6,25.5-35.6c-11-1.3-22.9-3.2-30.3-11.4c-0.7-0.7-1.3-1.5-1.8-2.4
		C0.7,386.5,0,400.3,0,414.3c0,40.7,5.9,80,16.8,117.2C94.1,500.3,238.6,460.6,451.1,476.5z"/>
	<path class="st0" d="M23.3,316.7c-3.8-0.8-7.4-2.1-10.8-3.8c-1.5,5.9-2.8,11.8-4.1,17.7C12.8,325.5,18,320.9,23.3,316.7z"/>
	<path class="st0" d="M387.9,0.8c-0.7,0-1.4,0.1-2.1,0.1c0.1,0.5,0.2,1,0.4,1.5C386.8,1.9,387.3,1.4,387.9,0.8z"/>
	<path class="st1" d="M581.7,78.4c-1.8-0.7-3.6-0.6-5.2-0.1c0.2,0.7,0.5,1.4,0.7,2.1L581.7,78.4z"/>
	<path class="st1" d="M576.5,78.3c1.7-0.5,3.4-0.6,5.2,0.1l-4.5,2C576.9,79.7,576.7,79,576.5,78.3c-4.7,1.5-8.5,6.9-9.7,12.2
		c-3,12.8,2.2,27.1,12.7,35c-15.2,4.5-29.3,12.8-40.6,23.9c-6,5.8-11.3,12.7-13.4,20.8c-1.6,6.3-1.2,12.9,0.4,19.2
		c6.9,27.3,38.7,45.3,65.7,37.2c-4.7,15.9,7,33.4,22.5,39.5c15.5,6.1,33.2,3,48.6-3.3c11.3-4.7,21.9-11.1,31.4-18.9
		c4.9-4.1,9.6-8.7,12.3-14.5c2.6-5.8,2.9-13-0.7-18.3c15.3,4.3,32.4,0.3,44.9-9.5c4.5-3.5,8.3-7.7,11.6-12.4
		C717.7,120.6,653.4,66,577.5,33.4C572,47.7,571.6,63.9,576.5,78.3z"/>
	<path class="st2" d="M302.1,73.5c-0.7,0.2-1.3,0.5-1.8,0.8l3.8,4.2C303.4,76.8,302.8,75.2,302.1,73.5z"/>
	<path class="st2" d="M298.8,72.7l1.5,1.6c0.6-0.3,1.2-0.6,1.8-0.8c0.7,1.7,1.3,3.3,2,5l-3.8-4.2c-6.6,3.5-8,13.3-6.8,21.1
		c3.3,19.7,16.7,37.4,34.7,46c-2,11.2,4.9,22.6,14.5,28.8c9.6,6.2,21.3,8.1,32.7,8.6c10.2,0.5,20.3,0,30.4-1.3
		c9-1.2,20.1-5.6,20.1-14.7c16.2-0.8,33.3-5.5,43.9-17.9c10.6-12.4,11.7-33.5-1-43.7c8.5-0.3,15.8-6.7,19.3-14.5s3.6-16.6,2.7-25
		c-1.2-10.2-4-20.7-11.1-28s-19.3-10.5-27.8-4.9c4.4-8.8,2.5-19.2-3-27.4C437.5,0.5,425.9,0,414.3,0c-8.9,0-17.6,0.3-26.4,0.8
		c-0.6,0.5-1.2,1.1-1.7,1.7c-0.1-0.5-0.2-1-0.4-1.5c-26.5,1.8-52.3,6.1-77.1,12.6C297.2,30.6,293.5,52.8,298.8,72.7z"/>
	<path class="st1" d="M172,147c-1.4-1.9-3.5-2.6-5.8-2.5c0.1,0.2,0.3,0.4,0.4,0.5L172,147z"/>
	<path class="st1" d="M183.4,116.1c-5.9,2.8-12.1,5.7-16.1,10.9c-3.9,4.9-5,12.6-1.1,17.5c2.3-0.1,4.4,0.6,5.8,2.5l-5.4-2
		c-0.2-0.2-0.3-0.3-0.4-0.5c-2.9,0.1-6.2,1.5-8.5,3.4c-10.1,8.3-13,24-6.6,35.4c6.4,11.4,21.4,17,33.7,12.6
		c-4,10.7,1.6,23.4,11,29.9c9.4,6.5,21.7,7.8,33,6.2c11.3-1.6,22.8-6.1,29.9-15c7.1-8.9,8.6-22.9,1.3-31.6
		c14.5,5.6,32.7-6.3,33.5-21.8s-16.1-29.2-31.1-25.2c15.4-8.4,24.5-26.8,22-44.1S267.8,62,250.7,58.4c11.8-6.2,18.4-19.1,19.4-32.6
		c-44,16.3-84.5,40-120,69.4C156.4,107,170.5,112,183.4,116.1z"/>
	<path class="st3" d="M414.3,828.6c36.2,0,71.4-4.7,104.9-13.4c-34.7-159.7,128-179.7,128-179.7s-74.8-50.8-75.4-51l52.5-5.7
		l55.9,31.7c0,0,54-35,95-52c7.7-3.2,17.9-4.7,29.5-5.2c1.3-3.7,2.6-7.4,3.8-11.1c-70.6-26.2-179.4-52.5-357.4-65.7
		c-212.5-15.9-357,23.8-434.3,55C67.3,703.2,226.2,828.6,414.3,828.6z"/>
	<path class="st3" d="M784.2,425.1c-0.8,0.1-1.7,0.3-2.5,0.6L784.2,425.1z"/>
	<path class="st3" d="M729.8,269.6c-3.8,9.8-4,21.5,1.4,30.5c6,9.9,17.5,15.1,28.7,18c11.2,2.9,23,4.3,33.4,9.4
		c-13.7,3.8-27.7,7.7-39.3,15.9c-11.7,8.1-20.6,21.5-19.6,35.7c0.9,13.1,10.3,24.4,21.4,31.2s24.1,9.9,36.9,12.9l-8.5,1.9
		c6.6-0.8,13.7,3.6,15.5,10.1c8.6-9.1,18.3-17.2,28.9-23.9c-0.5-68.9-17.8-133.9-48.1-190.9c-11.8,6.5-22.7,14.5-32.3,23.8
		C740.6,251.5,733.6,259.8,729.8,269.6z"/>
	<path class="st4" d="M680.2,610.5l-55.9-31.7l-52.5,5.7c0.6,0.2,75.4,51,75.4,51s-162.7,20-128,179.7
		C652.1,780.5,759,681.5,804.7,553.3c-11.6,0.4-21.8,2-29.5,5.2C734.2,575.5,680.2,610.5,680.2,610.5z"/>
	<path class="st3" d="M34.2,386.6c-12.3,9-25.8,20.4-25.5,35.6c0.2,14.1,13.2,25.3,26.9,28.4c9.8,2.2,19.9,1.3,29.9-0.5
		c-1.1,0.1-2.2,0.2-3.3,0.4l15.1-2.9c-3.9,0.9-7.9,1.8-11.8,2.5c10.3-0.7,21.2,4.1,31,0.6c9.1-3.1,14.6-12.1,19-20.6
		c5.9-11.3,11.4-23.5,10.7-36.3c-0.7-12.8-9.7-26-22.4-27.1c9.8-15,11.4-35.1,3.9-51.4c-7.5-16.3-23.6-28.3-41.4-30.7
		c5.3-10.7,20.2-14.8,24.1-26.1c3.6-10.4-3.8-21.2-11.6-29c-4.9-4.9-10.3-9.5-16.8-11.9c-3.7-1.4-7.8-1.9-11.7-1.3
		c-16.4,30.1-29.2,62.5-37.8,96.6c3.4,1.7,7,3,10.8,3.8c-5.3,4.2-10.5,8.8-14.9,14c-2.8,13.8-5,27.9-6.4,42.2
		c0.6,0.8,1.2,1.6,1.8,2.4C11.3,383.4,23.2,385.3,34.2,386.6z"/>
	<path class="st3" d="M62.2,450.5c1.1-0.2,2.2-0.3,3.3-0.4c4-0.7,7.9-1.6,11.8-2.5L62.2,450.5z"/>
</g>
<path class="st2" d="M131.1,306.2c-13.2-1-26.7-2.5-38.6-8.4s-22-16.9-23.2-30.1c-1.1-11.7,5-23.3,14-30.9
	c8.9-7.7,20.3-11.9,31.7-14.6c-10.7-3.9-20.6-10.2-28.6-18.3c-6.3-6.3-11.7-14.2-12.3-23.1c-0.6-8.5,3.4-17.1,10.4-22
	c6.9-4.9,16.4-5.9,24.2-2.5c-0.2-8.6,5.6-16.2,11.8-22.1c8.8-8.4,20-15.5,32.1-15.1c13.8,0.5,25.9,11.1,30.9,23.9
	c5.1,12.8,4.1,27.4,0.4,40.7c17.4-4.3,37.3,7.7,41.5,25.2s-8,37.2-25.5,41.2c13.2,13.3,14.5,36.5,3,51.3
	c-11.5,14.8-34.4,19.1-50.5,9.7c-2.8,7.4-10.4,13.5-18.1,11.9s-11.7-13.4-5.2-17.9L131.1,306.2z"/>
<path class="st3" d="M492.4,90.6c-1.4-11.9-2.4-24.2,1-35.6c3.4-11.5,12.2-22.1,24-24.2c11.8-2.2,25.3,7.1,24.8,19
	c14.1-9.1,34.6-6.5,46.1,5.8c11.4,12.3,12.5,32.9,2.4,46.4c7.9,0.4,16.1,1.4,22.9,5.4c6.8,4,11.9,11.9,10.6,19.7
	c-0.8,4.8-3.9,8.9-6.9,12.8c-8.9,11.5-18.5,23.6-32.1,28.7c11.2,8.4,19.5,22,17.8,35.9c-1.8,13.9-16.5,25.9-29.8,21.5
	c-9.1,17.5-29.2,25.9-48.3,30.7c-10,2.5-20.3,4.3-30.5,2.9s-20.3-6.5-25.6-15.3c-5.3-8.8-4.6-21.5,3.2-28.2
	c-12.3,11.6-33.9,10.2-46-1.8s-14.2-31.9-6.7-47.2c3.8-7.7,10.1-14.6,18.4-17.2c-7.7-13.1,0-31,12.7-39.4s28.7-9.7,43.9-10.2
	c-2.1-5-1.6-10.9,1.4-15.4L492.4,90.6z"/>
<polygon class="st5" points="137.1,322.5 214.1,252.5 580.1,271.5 585.1,332.5 541.4,354.8 "/>
<path class="st3" d="M314.9,198.5c-13.4,3.9-29.1,3.4-39.9-5.5c-10.8-8.8-13.6-27.5-3-36.6c-11.3-8.4-14.9-25.6-7.9-37.8
	s23.8-17.7,36.7-12.1c4.1-16.3,22-25.8,38.8-26.2c4.7-0.1,9.6,0.4,13.8,2.5c7.6,3.8,12.2,12.1,13.5,20.5s-0.1,17-1.5,25.4
	c16-4.9,35.5,2.3,42.7,17.5c7.2,15.1-0.7,36.1-16.8,41c8.9,4.1,7.6,17.7,1.5,25.3c-7,8.7-18.5,13.6-29.6,12.6s-21.6-7.7-27-17.5
	c-3.6,5.1-9.7,9.2-15.9,7.9s-10-10.1-5.2-14.2L314.9,198.5z"/>
<path class="st2" d="M687.1,279.6c-11.4-1-23-3.7-32.5-10.2c-9.5-6.4-16.7-17-16.8-28.5s8.2-23.1,19.6-24.7
	c-16.9-12-22.9-35.3-19.3-55.7c3.9-21.8,21.1-43.4,43.2-42.7c1.5,0,3.2,0.3,4.3,1.3s1.5,2.7,1.6,4.2c0.7,6.7-1,13.6-4.7,19.2
	c8.3-4.8,17.9-8,27.4-7s18.9,6.8,22.3,15.8c3.5,8.9-0.5,20.6-9.4,24.2c10.6-2.5,21.8-4.5,32.3-1.5s19.8,12.6,19.1,23.4
	c-0.6,8.3-6.6,15.1-12.6,20.8c-13.2,12.8-27.8,24.1-43.4,33.8c22.8-3.4,46.5-0.5,67.8,8.3c7.2,3,14.4,6.8,18.6,13.3
	c7.2,10.9,3.8,25.4,0.3,37.9c-3.9,13.7-8,27.8-17.1,38.7c-9.1,10.9-24.8,17.6-37.9,12.2c4.4,3.6-0.4,10.5-5.3,13.5
	c-16.7,10.1-36.7,14.4-56,12.1c-5.2-0.6-10.5-1.8-14.6-5.1c-7.2-5.9-8.1-17.1-4.5-25.7s10.6-15.2,17.6-21.5
	c-8.1,0.1-16.8,0.1-23.3-4.6c-6.9-5-9.8-14.3-8.7-22.7c1.1-8.5,5.5-16.1,10.7-22.9c5.8-7.6,16.4-14.7,24.1-9.1L687.1,279.6z"/>
<polygon class="st6" points="149.1,570.5 137.1,322.5 542.1,347.5 516.1,599.5 "/>
<polygon class="st6" points="209.5,256.7 220.1,186.5 633.1,220.5 585.1,274.5 "/>
<polygon class="st7" points="542.1,347.5 580.1,327.5 580.1,278.5 633.1,220.5 671.1,267.5 667.1,322.5 689.1,352.5 657.1,572.5 
	516.1,599.5 "/>
<polygon class="st8" points="571.8,588.8 591.1,442.5 633.1,442.5 624.2,578.8 "/>
<polyline class="st9" points="222.1,570.5 209.5,322.5 268.1,254.5 262.1,186.5 "/>
<path class="st10" d="M755.1,531.5c0,0,30-157,53-181c0,0,9-9,12-11s-43,169-19,206L755.1,531.5z"/>
<path class="st10" d="M108.9,550.4L79.2,401.5c0,0-18.1,30,13.8,151.4L108.9,550.4z"/>
<polyline class="st9" points="325.1,577.5 318.2,333.6 378.1,258.5 372,199 "/>
<polyline class="st9" points="416.2,591.6 421.3,345.2 489.1,264.5 489.1,208.6 "/>
<path class="st11" d="M535.7,410c0.1-0.5,143.7,9.5,143.7,9.5l-3.3,23l-143-6.9L535.7,410z"/>
<polygon class="st12" points="715.1,373.5 695.6,509.8 726.9,515.6 723,331.5 "/>
</svg>
