<?xml version="1.0" encoding="iso-8859-1"?>
<!-- Generator: Adobe Illustrator 19.2.1, SVG Export Plug-In . SVG Version: 6.00 Build 0)  -->
<svg version="1.1" xmlns="http://www.w3.org/2000/svg" xmlns:xlink="http://www.w3.org/1999/xlink" x="0px" y="0px"
	 viewBox="0 0 964 964" style="enable-background:new 0 0 964 964;" xml:space="preserve">
<g id="Head_Massage">
	<g>
		<path style="fill:#B8D7F4;" d="M964,479.741c0,0.749,0,1.509-0.01,2.259c-0.721,163.848-80.682,297.105-195.353,381.637
			c-26.674,19.673-55.231,36.702-85.111,50.869c-49.7,23.556-103.047,39.19-157.447,45.841c-10.501,1.291-21.032,2.238-31.583,2.842
			c-6.092,0.354-12.185,0.593-18.287,0.708c-10.521,0.219-21.052,0.094-31.574-0.406c-55.852-2.55-111.484-14.958-164.16-38.336
			c-10.581-4.694-21.042-9.826-31.353-15.426c-28.337-15.332-55.612-34.079-81.364-56.417C59.951,759.807-0.11,623.147,0,482
			c0.04-44.811,6.142-90.069,18.698-134.547c20.712-73.352,56.804-136.993,103.779-189.049
			c17.465-19.381,36.453-37.15,56.704-53.221c0.14-0.104,0.271-0.219,0.411-0.323c0.09-0.073,0.17-0.135,0.261-0.208
			C267.679,35.234,379.283-2.239,495.718,0.104c107.657,2.165,206.506,37.795,285.355,98.303c0.06,0.042,0.12,0.094,0.17,0.135
			c0.24,0.177,0.481,0.364,0.721,0.562c19.619,15.124,37.996,31.8,54.94,49.88C915.823,233.151,964,347.88,964,479.741z"/>
		<g>
			<g>
				<path style="fill:#FACCA9;" d="M768.637,863.637c-26.674,19.673-55.231,36.702-85.111,50.869
					c-49.7,23.556-103.047,39.19-157.447,45.841c-10.501,1.291-21.032,2.238-31.583,2.842c-6.092,0.354-12.185,0.593-18.287,0.708
					c-10.521,0.219-21.052,0.094-31.574-0.406c-55.852-2.55-111.484-14.958-164.16-38.336c-10.581-4.694-21.042-9.826-31.353-15.426
					c-8.106-6.787-12.044-11.21-12.044-11.21c17.245-29.478,85.682-39.305,128.529-52.024c42.836-12.709,36.714-34.1,36.714-34.1
					c18.988-65.473,8.437-111.574-0.18-134.245c-0.17-0.437-0.331-0.864-0.501-1.28c-0.852-2.196-1.693-4.153-2.465-5.86
					c-2.665-5.871-4.639-8.889-4.639-8.889l57.325-9.326l49.86-8.109l49.049-7.973c-0.672,0.187-4.068,1.874-5.652,17.112
					c-0.571,5.465-0.902,12.689-0.791,22.223c0.01,1.166,0.03,2.363,0.06,3.591c0.24,10.805,1.022,24.347,2.595,41.293
					c7.796,83.657,31.163,96.086,31.163,96.086s46.734,16.769,96.254,19.08C721.432,838.291,764.438,861.336,768.637,863.637z"/>
				<path style="fill:#DDB28A;" d="M396.946,670.213c0,0,5.935,13.101,28.932,30.825c15.223,11.732,36.296,26.588,48.805,35.292
					c6.439,4.48,14.913,4.097,20.973-0.92c16.843-13.943,48.699-43.434,54.11-70.977c7.418-37.761-154.432,7.628-154.432,7.628
					L396.946,670.213z"/>
				<path style="fill:#FACCA9;" d="M280.106,382.383c0,0,2.225,69.357,2.967,85.54c0,0-27.448-6.165-32.641,8.477
					c-5.193,14.642,1.484,60.109,16.32,73.21c14.837,13.101,28.19,36.22,28.19,36.22l11.128-6.936
					c0,0,67.458,90.949,130.379,118.871c1.052,0.467,2.103,0.916,3.153,1.347c63.798,26.201,28.932,28.513,65.282,8.477
					S626.545,591.994,638.415,562.71c11.869-29.284,11.869-29.284,11.869-29.284s5.193,12.33,12.611,0
					c7.418-12.33,28.932-55.485,28.932-55.485s13.353-31.596,3.709-31.596c-9.644,0-26.706,5.394-26.706,5.394
					s29.798-63.841,10.386-134.86c-17.062-62.421-97.923-134.86-192.137-134.86S286.782,256,280.106,382.383z"/>
				<g>
					<path style="fill:#C8878D;" d="M447.947,584.673c0,0,0.385-0.588,1.224-1.469c0.42-0.439,0.941-0.965,1.581-1.521
						c0.645-0.544,1.385-1.158,2.248-1.741c0.847-0.618,1.825-1.181,2.871-1.775c1.061-0.554,2.204-1.113,3.427-1.593
						c1.231-0.454,2.507-0.947,3.86-1.246c0.673-0.159,1.345-0.364,2.035-0.486c0.694-0.105,1.391-0.212,2.087-0.318
						c1.392-0.232,2.81-0.23,4.194-0.275c0.692-0.045,1.38,0.007,2.057,0.071c0.677,0.055,1.346,0.104,1.999,0.177
						c0.656,0.05,1.293,0.169,1.911,0.311c0.617,0.136,1.22,0.269,1.808,0.399c1.177,0.228,2.238,0.668,3.216,1.024
						c0.969,0.396,1.87,0.676,2.607,1.115c0.748,0.402,1.38,0.787,1.899,1.095c1.035,0.622,1.591,1.028,1.591,1.028
						s-0.714,0.002-1.901-0.083c-0.592-0.046-1.309-0.09-2.109-0.18c-0.398-0.053-0.826-0.084-1.282-0.083
						c-0.449-0.019-0.921-0.039-1.414-0.06c-0.979-0.042-2.015-0.176-3.128-0.129c-0.549-0.006-1.114-0.012-1.691-0.019
						c-0.575-0.005-1.156-0.052-1.752,0.007c-1.189,0.089-2.408,0.036-3.641,0.172c-1.23,0.152-2.489,0.146-3.726,0.385
						l-1.866,0.239c-0.616,0.112-1.23,0.223-1.839,0.334c-1.229,0.186-2.411,0.497-3.58,0.734c-1.158,0.273-2.278,0.568-3.347,0.85
						c-1.056,0.315-2.083,0.575-3.007,0.887c-0.945,0.272-1.792,0.574-2.566,0.82c-0.761,0.265-1.447,0.48-2,0.684
						C448.591,584.44,447.947,584.673,447.947,584.673z"/>
				</g>
				<path style="fill:#8E384C;" d="M447.771,649.483c6.183,5.555,13.689,9.699,21.769,10.993s16.732-0.436,23.293-5.503
					c5.982-4.62,9.837-11.551,13.487-18.303c1.121-2.073,2.259-4.21,2.583-6.564c0.056-0.404,0.081-0.841-0.113-1.196
					c-0.268-0.491-0.858-0.667-1.391-0.773c-5.035-1.006-10.207,0.164-15.233,1.222c-16.19,3.408-32.6,5.69-49.083,6.826
					c-3.548,0.244-7.269-3.23-10.368-1.419c-0.511,0.299,6.517,7.031,9.362,10.026L447.771,649.483z"/>
				<path style="fill:#9B4855;" d="M419.967,624.274c9.97,4.747,18.396,6.56,28.966,4.684c4.669-0.829,9.192-2.408,13.861-3.238
					c4.669-0.831,9.663-0.859,13.925,1.287c5.276-2.992,10.903-6.073,16.907-5.761c4.151,0.216,8.145,2.061,12.299,1.94
					c3.677-0.107,7.132-1.743,10.471-3.349c6.096-2.932,12.192-5.865,18.288-8.797c-5.693,2.682-11.14,5.926-16.244,9.676
					c-2.795,2.054-5.494,4.263-8.442,6.072c-3.438,2.11-7.169,3.647-10.9,5.124c-5.362,2.121-10.764,4.135-16.201,6.04
					c-1.404,0.492-2.819,0.979-4.284,1.202c-2.368,0.361-4.775,0.025-7.168-0.03c-5.691-0.131-11.287,1.334-16.925,2.154
					c-5.637,0.82-11.636,0.939-16.737-1.685c-2.924-1.504-5.381-3.826-8.189-5.553c-3.707-2.281-7.925-3.469-11.905-5.183
					c-3.98-1.713-7.923-4.147-10.051-8.039C411.748,621.969,415.858,623.121,419.967,624.274L419.967,624.274z"/>
				<path style="fill:#263746;" d="M645.462,484.684c-4.266-16.376-21.513-14.088-21.513-14.088
					c10.2-7.153,19.102-1.517,19.102-1.517c-16.096-12.29-29.326-1.581-35.09,4.771l-9.791,8.137
					c-23.182,20.807-78.264,20.614-78.264,20.614s29.117,16.954,68.991,3.275c12.658-4.342,18.243-12.776,20.658-20.241
					c16.528-7.951,28.489,1.745,28.489,1.745c-2.782-11.367-19.844-10.789-19.844-10.789
					C633.408,469.464,645.462,484.684,645.462,484.684z"/>
				<path style="fill:#263746;" d="M348.137,495.243c-4.416-4.82-14.227-14.759-19.44-14.027c0,0,1.113,2.89,1.298,3.66
					c0.185,0.771-10.757-2.928-21.884,4.605c0,0,9.829,0.79,10.942,2.909c0,0-6.491,5.467-7.233,10.247c0,0,13.25-8.098,29.537-4.6
					c3.588,5.74,12.149,13.908,32.035,14.774c30.972,1.349,40.987-16.569,40.987-16.569S379.555,503.251,348.137,495.243z"/>
				<path style="fill:#C05626;" d="M432.183,389.511c0,0,8.16-3.083,5.378-5.394c-2.782-2.312-27.634-15.991-57.678,0
					c0,0-36.907,24.853-53.413,27.743c0,0-2.782,1.349,0,2.312c2.782,0.963,17.619-5.009,22.441-8.862
					c4.822-3.853,29.117-19.073,39.318-19.844S412.71,378.53,432.183,389.511z"/>
				<path style="fill:#C05626;" d="M490.418,397.218c0,0,1.855-14.835,34.31-12.715
					C524.728,384.502,499.876,385.273,490.418,397.218z"/>
				<path style="fill:#C05626;" d="M290.121,471.198l-4.08-78.797c0,0,66.395-0.385,132.048-78.604
					c0,0,113.502,143.337,250.742,137.943c0,0,30.045-54.939,34.496-56.368c4.451-1.429,91.196-118.565-4.291-231.848
					s-277.98-117.136-378.87-30.055s-97.181,190.346-88.279,225.024c8.902,34.678,36.35,104.95,36.35,104.95L290.121,471.198z"/>
				<path style="fill:#C05626;" d="M695.537,384.295c0,0,22.997,33.537,20.03,51.261c-2.967,17.725-10.599,22.636,0.264,27.887
					c10.863,5.251,10.121,1.706,12.347,17.735s-2.226,21.496,8.902,21.46c11.128-0.036-3.709,13.137-20.772,0
					c-17.062-13.137,3.709-18.223-10.386-21.46c-14.095-3.237-24.481-8.344-18.546-17.735c5.935-9.391,1.59-32.616-1.704-32.51
					C682.379,431.038,695.537,384.295,695.537,384.295z"/>
				<path style="fill:#C05626;" d="M271.204,451.472c0,0,18.546,21.845,11.128,46.505c-7.418,24.66-25.964,22.348-11.128,42.385
					c14.837,20.036,26.706,34.678,23.739,45.467c-2.967,10.789-20.714,33.908-14.437,45.467c6.277,11.56,10.728,7.706,9.244,16.954
					c-1.484,9.248-4.451,19.266-4.451,19.266s6.108-16.338,10.102-23.197s-16.036-1.975-10.844-17.903
					c5.193-15.928,31.157-35.964,17.062-57.542c-14.095-21.578-25.223-26.201-23.739-36.99
					c1.484-10.789,19.408-42.784,15.579-56.473s-19.288-32.92-19.288-32.92L271.204,451.472z"/>
				<path style="fill:#CA602C;" d="M407.639,276.036c0,0,83.15,187.263,261.191,175.704l26.706-5.394
					c0,0-1.113-97.485-107.938-144.879s-173.962-73.981-173.22-94.788C414.379,206.679,389.244,242.717,407.639,276.036z"/>
				<path style="fill:#CA602C;" d="M390.547,256.571c-4.669,24.158-22.189,43.799-42.25,56.947
					c-20.06,13.148-42.842,20.946-64.79,30.29c-21.948,9.344-43.846,20.798-59.484,39.325
					c-15.638,18.527-23.842,45.573-15.088,68.474c4.047-13.206,16.023-22.307,28.594-26.95c12.57-4.643,26.057-5.708,39.152-8.362
					c26.016-5.273,50.44-16.818,74.07-29.292c16.787-8.862,33.567-18.429,46.96-32.18c13.392-13.751,23.183-32.362,22.843-51.92
					s-12.665-39.387-30.94-44.104L390.547,256.571z"/>
			</g>
			<path style="fill:#FACCA9;" d="M179.852,104.652l7.916,22.629c-2.725-7.474-5.451-14.947-8.176-22.421
				C178.509,101.893,179.852,104.652,179.852,104.652z"/>
			<path style="fill:#FACCA9;" d="M337.81,261.984c-4.98,3.039-10.822,4.018-16.603,4.705c-0.711,0.094-1.423,0.167-2.134,0.25
				c-8.778,0.999-17.565,1.999-26.343,2.998c-5.732,0.645-12.636,2.259-14.339,7.973c-1.403,4.715,1.663,9.462,4.409,13.49
				c4.639,6.808,8.798,13.959,12.445,21.38c3.557,7.245,6.623,14.739,9.178,22.421c4.048,12.137,6.814,24.732,8.197,37.493
				c-10.17-5.85-18.397-15.26-23.026-26.335c-2.435,14.989,2.565,30.03,6.383,44.998c1.603,6.256,2.986,12.491,3.537,18.705
				c0.501,5.579,0.331,11.138-0.972,16.665c-4.489,2.311-8.828-2.956-11.122-7.734c-0.12-0.219-0.22-0.448-0.321-0.666
				c-0.601-1.343-1.202-2.675-1.804-4.018c-1.493-3.331-2.986-6.662-4.479-10.003c-2.846-6.329-5.681-12.657-8.517-18.996
				c0.14,10.586,0.28,21.162,0.421,31.737c0.13,9.556,0.261,19.121,0.381,28.677c0.01,0.375,0.02,0.749,0.02,1.124
				c0.02,1.78-0.09,3.851-1.483,4.882c-0.05,0.031-0.09,0.062-0.14,0.094c-2.786,1.832-5.682-2.571-6.463-6.006
				c-2.004-8.816-3.998-17.633-5.992-26.449c-1.002-4.393-1.994-8.785-2.986-13.188c-2.505,4.153-2.455,9.108-2.124,14.115
				c0.13,2.082,0.321,4.153,0.391,6.193c0.01,0.208,0.01,0.427,0.02,0.635c0.18,7.12-3.247,15.967-10.11,15.999
				c-2.535-6.245-3.397-12.824-3.537-19.559c-0.22-10.648,1.393-21.682,1.182-32.382v-0.177c-0.16-7.547-1.253-15.01-2.705-22.411
				c-0.932-4.705-1.994-9.389-3.066-14.052c-2.786-12.168-5.571-24.347-8.347-36.515c-1.473-6.422-2.946-12.845-4.409-19.267
				c-4.579-20.048-9.439-40.71-21.283-57.229c-9.77-13.626-23.557-23.399-35.882-34.579c-14.479-13.136-27.044-28.365-39.56-43.52
				c-1.383-1.676-2.766-3.352-4.148-5.028c17.465-19.381,36.453-37.15,56.704-53.221c14.038,44.811,31.383,88.498,51.814,130.571
				c1.623,3.341,3.357,6.787,6.233,9.045c1.062,0.833,2.184,1.447,3.377,1.905c5.942,2.3,13.287,0.479,19.95,0.552
				c10.541,0.114,20.361,5.361,30.712,7.422c15.06,2.977,30.321-0.874,45.051-5.944c3.317-1.135,6.613-2.342,9.87-3.539
				C347.65,251.773,343.411,258.56,337.81,261.984z"/>
			<path style="fill:#FACCA9;" d="M776.232,112.261l4.84-13.854C781.072,98.406,777.906,107.691,776.232,112.261z"/>
			<path style="fill:#FACCA9;" d="M836.904,148.984c-12.355,14.968-24.8,29.968-39.088,42.937
				c-12.315,11.179-26.113,20.953-35.882,34.579c-9.479,13.23-14.479,29.093-18.437,45.175c-1.002,4.018-1.924,8.046-2.846,12.054
				c-4.249,18.601-8.497,37.191-12.756,55.782c-1.924,8.4-3.848,16.863-4.91,25.409c-0.471,3.664-0.772,7.349-0.852,11.054
				c-0.371,17.539,4.188,35.953-2.365,52.118c-1.703-0.01-3.186-0.552-4.469-1.478c-3.868-2.821-5.782-9.16-5.641-14.521
				c0.02-0.76,0.06-1.541,0.11-2.311c0.391-6.454,1.443-13.23-1.814-18.622c-0.772,3.383-1.533,6.766-2.304,10.149
				c-2.225,9.826-4.459,19.652-6.684,29.489c-0.571,2.509-2.275,5.538-4.239,6.256c-0.762,0.291-1.563,0.229-2.355-0.354
				c-1.403-1.03-1.513-3.102-1.493-4.882c0.06-4.476,0.12-8.941,0.181-13.417c0.03-1.905,0.05-3.799,0.08-5.704
				c0.06-4.237,0.11-8.463,0.17-12.699c0.13-9.899,0.261-19.808,0.401-29.707c-2.245,4.996-4.489,9.993-6.724,14.989
				c-1.042,2.321-2.084,4.632-3.116,6.953c-1.653,3.685-3.307,7.38-4.96,11.065c-2.214,4.934-6.754,10.825-11.443,8.411
				c-3.257-13.865,0.551-27.886,4.289-41.948c3.397-12.793,6.744-25.627,4.659-38.43c-3.627,8.66-9.439,16.3-16.663,22.005
				c-2.014,1.613-4.148,3.06-6.373,4.341c0.371-3.373,0.832-6.735,1.393-10.086c3.086-18.59,9.108-36.661,17.726-53.273
				c3.206-6.204,6.784-12.199,10.701-17.945c2.746-4.018,5.812-8.775,4.409-13.48c-1.694-5.725-8.607-7.338-14.339-7.984
				c-8.778-0.999-17.565-1.999-26.343-2.998c-1.593-0.177-3.196-0.364-4.8-0.593c-4.89-0.697-9.72-1.79-13.938-4.361
				c-5.501-3.362-9.699-9.993-8.437-16.457c0.01-0.104,0.04-0.219,0.06-0.323c17.716,6.516,36.464,13.136,54.921,9.472
				c10.361-2.051,20.18-7.297,30.722-7.411c7.986-0.094,16.954,2.54,23.327-2.467c2.866-2.259,4.599-5.704,6.222-9.045
				c0.02-0.042,0.04-0.083,0.06-0.125c19.048-39.232,35.401-79.858,48.898-121.494C801.583,114.228,819.96,130.903,836.904,148.984z
				"/>
		</g>
	</g>
</g>
<g id="Layer_1">
</g>
</svg>
