<?xml version="1.0" encoding="iso-8859-1"?>
<!-- Generator: Adobe Illustrator 20.0.0, SVG Export Plug-In . SVG Version: 6.00 Build 0)  -->
<svg version="1.1" xmlns="http://www.w3.org/2000/svg" xmlns:xlink="http://www.w3.org/1999/xlink" x="0px" y="0px"
	 viewBox="0 0 828.669 828.669" style="enable-background:new 0 0 828.669 828.669;" xml:space="preserve">
<g id="HouseBoat">
	<g>
		<defs>
			
				<ellipse id="SVGID_1_" transform="matrix(0.9999 -0.0129 0.0129 0.9999 -5.2924 5.3609)" cx="414.335" cy="414.335" rx="414.334" ry="414.334"/>
		</defs>
		<use xlink:href="#SVGID_1_"  style="overflow:visible;fill:#87C9F0;"/>
		<clipPath id="SVGID_2_">
			<use xlink:href="#SVGID_1_"  style="overflow:visible;"/>
		</clipPath>
	</g>
	<path style="fill:#41A1DF;" d="M787.264,595.072c-5.276-0.207-10.493-0.63-15.617-1.381c-42.503-6.227-84-23.309-127.316-30.228
		c-52.106-8.322-106.681-5.052-157.67-17.922c-28.111-7.095-52.277-22.903-79.869-30.825
		c-79.149-22.726-155.592-30.171-231.889-64.437c-41.687-18.722-77.499-47.71-119.937-64.491
		c-18.865-7.46-36.126-8.846-53.353-8.306c-1.222,13.878-1.76,27.949-1.577,42.178C2.977,648.473,190.85,831.576,419.661,828.635
		C581.785,826.55,720.955,731.62,787.264,595.072z"/>
	<g id="Layer_16">
		<g>
			<polygon style="fill:#BA4253;" points="84.49,315.575 202.541,194.165 396.333,226.945 393.052,352.576 			"/>
			<path style="fill:#FFE9DE;" d="M100.853,472.929c0,0-20.078-140.475,0-157.207c3.506-2.922,295.128,38.571,295.128,38.571
				v170.064L100.853,472.929z"/>
			<polyline style="fill:#CD8E7D;" points="393.052,369.099 546.79,399.083 541.5,322.735 			"/>
			
				<line style="fill:none;stroke:#65001D;stroke-width:8;stroke-miterlimit:10;" x1="399.78" y1="324.878" x2="468.887" y2="337.954"/>
			<polygon style="fill:#FEFEFE;" points="108.794,474.313 118.386,353.709 158.71,358.969 154.035,479.358 			"/>
			<polygon style="fill:#FEFEFE;" points="282.586,504.598 289.034,385.267 354.488,402.215 348.458,516.076 			"/>
			<g>
				<path style="fill:#BED9DD;" d="M195.528,424.967c-12.867,0-23.335-10.468-23.335-23.336c0-12.867,10.468-23.335,23.335-23.335
					s23.335,10.468,23.335,23.335C218.863,414.499,208.395,424.967,195.528,424.967z"/>
				<path style="fill:#FFFFFF;" d="M195.528,383.296c10.126,0,18.335,8.209,18.335,18.335c0,10.126-8.209,18.335-18.335,18.335
					c-10.126,0-18.335-8.209-18.335-18.335C177.193,391.505,185.402,383.296,195.528,383.296 M195.528,373.296
					c-15.624,0-28.335,12.711-28.335,28.335s12.711,28.335,28.335,28.335s28.335-12.711,28.335-28.335
					S211.152,373.296,195.528,373.296L195.528,373.296z"/>
			</g>
			<g>
				<path style="fill:#BED9DD;" d="M251.97,430.226c-12.867,0-23.335-10.468-23.335-23.335s10.468-23.335,23.335-23.335
					s23.335,10.468,23.335,23.335S264.837,430.226,251.97,430.226z"/>
				<path style="fill:#FFFFFF;" d="M251.969,388.555c10.126,0,18.335,8.209,18.335,18.335c0,10.126-8.209,18.335-18.335,18.335
					c-10.126,0-18.335-8.209-18.335-18.335C233.634,396.764,241.843,388.555,251.969,388.555 M251.969,378.555
					c-15.624,0-28.335,12.711-28.335,28.335c0,15.624,12.711,28.335,28.335,28.335s28.335-12.711,28.335-28.335
					C280.305,391.267,267.594,378.555,251.969,378.555L251.969,378.555z"/>
			</g>
			<g>
				<polygon style="fill:#65001D;" points="534.568,271.697 542.554,396.079 546.581,396.079 544.422,271.697 				"/>
			</g>
			<polygon style="fill:#65001D;" points="669.849,240.528 683.512,326.047 687.604,322.292 678.206,243.713 			"/>
			<g>
				<polygon style="fill:#FFC999;" points="395.896,458.854 555.452,479.942 560.202,554.747 395.896,526.416 				"/>
			</g>
			<polygon style="fill:#E8D5CD;" points="395.982,249.343 527.928,265.171 533.983,492.711 395.982,524.358 			"/>
			<polygon style="fill:#FFFFFF;" points="431.876,517.381 431.307,378.845 504.344,376.112 512.848,500.385 			"/>
			<polygon style="fill:#CB4554;" points="379.618,245.593 533.319,280.658 606.37,181.307 441.566,169.035 			"/>
			<path style="fill:#98343F;" d="M606.37,181.307l81.234,70.714c0,0-65.293-50.259-153.62,28.052L606.37,181.307z"/>
			<path style="fill:none;stroke:#FBD4B9;stroke-miterlimit:10;" d="M449.748,533.124"/>
			<path style="fill:none;stroke:#FBD4B9;stroke-miterlimit:10;" d="M443.319,383.296"/>
			<g>
				<polygon style="fill:#65001D;" points="488.413,388.774 498.838,541.306 509.358,541.306 495.332,389.943 				"/>
			</g>
			<g>
				
					<rect x="467.441" y="471.652" transform="matrix(0.8015 -0.598 0.598 0.8015 -212.0105 382.26)" style="fill:#65001D;" width="4.675" height="77.644"/>
			</g>
			<g>
				
					<rect x="477.096" y="460.982" transform="matrix(0.7933 -0.6089 0.6089 0.7933 -201.2632 393.9115)" style="fill:#65001D;" width="4.675" height="64.699"/>
			</g>
			<g>
				<polygon style="fill:#65001D;" points="527.895,546.734 501.413,508.774 505.247,506.099 534.329,546.171 				"/>
			</g>
			<g>
				
					<rect x="527.426" y="467.722" transform="matrix(0.8111 -0.5849 0.5849 0.8111 -199.9364 406.762)" style="fill:#65001D;" width="4.675" height="90.384"/>
			</g>
			<g>
				<polygon style="fill:#65001D;" points="555.899,520.416 523.025,479.662 526.664,476.726 557.272,514.672 				"/>
			</g>
			<g>
				<polygon style="fill:#65001D;" points="547.265,397.54 558.448,398.709 567.799,545.397 557.532,549.079 				"/>
			</g>
			<polygon style="fill:#9F5242;" points="579.487,406.306 583.578,515.007 597.604,516.076 591.76,401.631 			"/>
			<polygon style="fill:#9F5242;" points="669.392,376.112 674.162,524.358 687.019,520.267 680.262,376.112 			"/>
			<path style="fill:#BED9DD;" d="M547.944,407.084c0,0,25.588,19.385,34.994-2.093c0,0,19.926,17.289,32.393-6.867
				c0,0,19.675,19.48,35.844-2.045c0,0,15.779,12.37,23.377,1.461c9.854-14.149-1.948-21.428-1.948-21.428l-125.75,17.99
				L547.944,407.084z"/>
			<polygon style="fill:#FFC999;" points="396.333,293.515 544.422,331.416 686.435,312.465 688.775,374.943 544.422,396.079 
				397.735,370.657 			"/>
			<g>
				<polygon style="fill:#65001D;" points="546.974,398.897 393.087,372.043 391.306,248.242 395.982,249.343 397.706,368.103 
					541.871,393.261 536.912,325.829 541.575,325.486 				"/>
			</g>
			<g>
				<path style="fill:#65001D;" d="M605.007,322.362l7.718,54.934l-55.345,7.821l-4.388-55.839L605.007,322.362 M611.825,313.385
					l-67.402,8.961l5.649,71.883l71.688-10.13L611.825,313.385L611.825,313.385z"/>
			</g>
			<g>
				
					<rect x="549.245" y="335.617" transform="matrix(0.9924 -0.1233 0.1233 0.9924 -37.2317 74.2115)" style="fill:#65001D;" width="63.602" height="4.675"/>
			</g>
			
				<line style="fill:none;stroke:#65001D;stroke-width:8;stroke-miterlimit:10;" x1="550.266" y1="360.333" x2="614.407" y2="349.18"/>
			<g>
				
					<rect x="552.056" y="366.761" transform="matrix(0.9826 -0.1858 0.1858 0.9826 -58.4181 114.8418)" style="fill:#65001D;" width="62.899" height="4.675"/>
			</g>
			<g>
				
					<rect x="632.866" y="323.862" transform="matrix(0.9856 -0.1693 0.1693 0.9856 -50.7212 112.6277)" style="fill:#65001D;" width="4.675" height="59.866"/>
			</g>
			<g>
				
					<rect x="647.126" y="322.603" transform="matrix(0.9821 -0.1883 0.1883 0.9821 -54.6252 128.5878)" style="fill:#65001D;" width="4.676" height="58.384"/>
			</g>
			<g>
				
					<rect x="662.655" y="320.383" transform="matrix(0.9863 -0.165 0.165 0.9863 -48.6063 114.5227)" style="fill:#65001D;" width="4.675" height="58.865"/>
			</g>
			
				<line style="fill:none;stroke:#735E53;stroke-width:4;stroke-miterlimit:10;" x1="290.203" y1="461.241" x2="347.086" y2="467.67"/>
			<path style="fill:none;stroke:#735E53;stroke-width:4;stroke-miterlimit:10;" d="M290.203,443.124
				c2.727-0.39,56.883,3.896,56.883,3.896"/>
			
				<line style="fill:none;stroke:#735E53;stroke-width:4;stroke-miterlimit:10;" x1="290.203" y1="426.761" x2="350.203" y2="432.995"/>
			
				<line style="fill:none;stroke:#735E53;stroke-width:4;stroke-miterlimit:10;" x1="290.203" y1="406.891" x2="351.761" y2="416.534"/>
			
				<line style="fill:none;stroke:#735E53;stroke-width:4;stroke-miterlimit:10;" x1="324.099" y1="397.93" x2="318.537" y2="464.443"/>
			
				<line style="fill:none;stroke:#735E53;stroke-width:4;stroke-miterlimit:10;" x1="116.048" y1="423.254" x2="153.061" y2="426.761"/>
			
				<line style="fill:none;stroke:#735E53;stroke-width:4;stroke-miterlimit:10;" x1="118.386" y1="408.839" x2="153.061" y2="411.712"/>
			
				<line style="fill:none;stroke:#735E53;stroke-width:4;stroke-miterlimit:10;" x1="120.723" y1="387.41" x2="151.502" y2="389.943"/>
			
				<line style="fill:none;stroke:#735E53;stroke-width:4;stroke-miterlimit:10;" x1="120.723" y1="372.995" x2="154.619" y2="377.086"/>
			
				<line style="fill:none;stroke:#735E53;stroke-width:4;stroke-miterlimit:10;" x1="141.372" y1="360.333" x2="136.113" y2="425.008"/>
			<path style="fill:#CB4554;" d="M76.308,465.624c0,0,9.351,62.435,23.766,83.863l284.414,70.519c0,0,212.726,41.298,275.648,8.961
				c62.922-32.338,47.337-44.415,51.234-79.48c0,0-9.43-33.131-18.506-34.48s0,2.63,0,2.63l-139.675,31.85L76.308,465.624z"/>
			<path style="fill:none;stroke:#7F0021;stroke-width:10;stroke-miterlimit:10;" d="M79.23,477.02
				c0,0,468.894,88.441,485.647,83.766s135.584-33.117,135.584-33.117"/>
			<g>
				
					<line style="fill:none;stroke:#592D2A;stroke-width:5;stroke-miterlimit:10;" x1="118.386" y1="479.358" x2="120.723" y2="500.981"/>
				<path style="fill:#E7EFFA;" d="M122.477,501.063c-9.902,0-17.93,8.028-17.93,17.93c0,9.902,8.028,17.93,17.93,17.93
					s17.93-8.027,17.93-17.93C140.407,509.09,132.379,501.063,122.477,501.063z M122.477,526.837c-4.333,0-7.845-3.512-7.845-7.845
					s3.512-7.845,7.845-7.845s7.845,3.512,7.845,7.845S126.809,526.837,122.477,526.837z"/>
			</g>
			<g>
				
					<line style="fill:none;stroke:#592D2A;stroke-width:5;stroke-miterlimit:10;" x1="249.878" y1="501.954" x2="252.216" y2="523.577"/>
				<path style="fill:#E7EFFA;" d="M253.97,523.659c-9.902,0-17.93,8.028-17.93,17.93c0,9.902,8.028,17.93,17.93,17.93
					s17.93-8.027,17.93-17.93C271.899,531.687,263.872,523.659,253.97,523.659z M253.97,549.434c-4.333,0-7.845-3.512-7.845-7.845
					s3.512-7.845,7.845-7.845c4.333,0,7.845,3.512,7.845,7.845S258.302,549.434,253.97,549.434z"/>
			</g>
			<g>
				
					<line style="fill:none;stroke:#592D2A;stroke-width:5;stroke-miterlimit:10;" x1="376.065" y1="527.864" x2="378.403" y2="549.487"/>
				<path style="fill:#E7EFFA;" d="M380.156,549.569c-9.902,0-17.93,8.028-17.93,17.93c0,9.902,8.028,17.93,17.93,17.93
					s17.93-8.027,17.93-17.93C398.086,557.597,390.059,549.569,380.156,549.569z M380.156,575.344c-4.333,0-7.845-3.512-7.845-7.845
					c0-4.333,3.512-7.845,7.845-7.845s7.845,3.512,7.845,7.845C388.001,571.832,384.489,575.344,380.156,575.344z"/>
			</g>
			<g>
				
					<line style="fill:none;stroke:#592D2A;stroke-width:5;stroke-miterlimit:10;" x1="512.724" y1="554.747" x2="515.062" y2="576.37"/>
				<path style="fill:#E7EFFA;" d="M516.815,576.452c-9.902,0-17.93,8.028-17.93,17.93c0,9.903,8.028,17.93,17.93,17.93
					s17.93-8.027,17.93-17.93C534.745,584.48,526.718,576.452,516.815,576.452z M516.815,602.227c-4.333,0-7.845-3.512-7.845-7.845
					s3.512-7.845,7.845-7.845s7.845,3.512,7.845,7.845S521.148,602.227,516.815,602.227z"/>
			</g>
			<g>
				<rect x="486.076" y="318.937" style="fill:#65001D;" width="4.675" height="67.279"/>
			</g>
			<g>
				
					<rect x="506.143" y="324.713" transform="matrix(0.9996 -0.0269 0.0269 0.9996 -9.4191 13.7935)" style="fill:#65001D;" width="4.676" height="65.241"/>
			</g>
			<g>
				
					<rect x="430.054" y="281.228" transform="matrix(0.1879 -0.9822 0.9822 0.1879 38.4435 683.2631)" style="fill:#65001D;" width="4.675" height="74.314"/>
			</g>
			<g>
				
					<rect x="430.054" y="297.009" transform="matrix(0.1879 -0.9822 0.9822 0.1879 22.9436 696.0793)" style="fill:#65001D;" width="4.675" height="74.314"/>
			</g>
			<g>
				
					<rect x="521.484" y="326.031" transform="matrix(0.9995 -0.0302 0.0302 0.9995 -10.644 16.0078)" style="fill:#65001D;" width="4.675" height="67.628"/>
			</g>
			<polygon style="fill:#9F5242;" points="393.059,280.658 542.675,322.054 544.033,337.186 393.254,299.359 			"/>
			<g>
				
					<rect x="430.687" y="313.005" transform="matrix(0.1575 -0.9875 0.9875 0.1575 18.9694 722.6762)" style="fill:#65001D;" width="4.675" height="74.432"/>
			</g>
			<g>
				
					<rect x="431.171" y="328.703" transform="matrix(0.1233 -0.9924 0.9924 0.1233 16.6245 751.269)" style="fill:#65001D;" width="4.675" height="75.044"/>
			</g>
			<g>
				<path style="fill:#65001D;" d="M678.732,311.594l5.465,58.706l-130.025,19.58l-4.175-60.257L678.732,311.594 M685.921,302.509
					L541.5,322.735l5.29,76.347l146.073-21.997L685.921,302.509L685.921,302.509z"/>
			</g>
			<polygon style="fill:#9F5242;" points="542.345,337.186 687.225,319.13 685.921,302.509 541.316,322.136 			"/>
			<g>
				<path style="fill:#65001D;" d="M464.066,265.171c0,0.877,6.136,117.837,6.136,117.837l7.222,1.856L472.14,266.7L464.066,265.171
					L464.066,265.171z"/>
			</g>
			<polygon style="fill:#FBD4B9;" points="565.461,500.981 673.578,521.436 567.799,545.397 			"/>
			<g>
				<polygon style="fill:#65001D;" points="420.423,526.416 396.121,491.581 396.333,483.714 426.437,527.451 				"/>
			</g>
			<g>
				<polygon style="fill:#65001D;" points="445.415,497.059 421.707,463.075 425.541,460.4 448.665,493.215 				"/>
			</g>
			<g>
				
					<rect x="419.963" y="451.231" transform="matrix(0.8111 -0.5849 0.5849 0.8111 -208.4206 340.0922)" style="fill:#65001D;" width="4.675" height="82.96"/>
				<polygon style="fill:#9F5242;" points="396.333,454.157 552.605,475.267 553.189,484.618 396.333,462.669 				"/>
			</g>
			<g>
				<polygon style="fill:#65001D;" points="448.901,531.321 441.303,530.737 441.887,378.845 448.901,380.014 				"/>
			</g>
		</g>
	</g>
</g>
<g id="Layer_1">
</g>
</svg>
