<?xml version="1.0" encoding="iso-8859-1"?>
<!-- Generator: Adobe Illustrator 20.0.0, SVG Export Plug-In . SVG Version: 6.00 Build 0)  -->
<svg version="1.1" xmlns="http://www.w3.org/2000/svg" xmlns:xlink="http://www.w3.org/1999/xlink" x="0px" y="0px"
	 viewBox="0 0 828.668 828.668" style="enable-background:new 0 0 828.668 828.668;" xml:space="preserve">
<g id="Hut">
	<g>
		<g>
			<defs>
				<circle id="SVGID_1_" cx="414.334" cy="414.334" r="414.334"/>
			</defs>
			<use xlink:href="#SVGID_1_"  style="overflow:visible;fill:#87C9F0;"/>
			<clipPath id="SVGID_2_">
				<use xlink:href="#SVGID_1_"  style="overflow:visible;"/>
			</clipPath>
		</g>
		<g>
			<path style="fill:#41A1DF;" d="M828.531,403.599L9.481,502.874c40.552,186.289,206.41,325.795,404.853,325.795
				c228.83,0,414.334-185.504,414.334-414.334C828.668,410.745,828.622,407.167,828.531,403.599z"/>
			<path style="fill:#BCB21F;" d="M824.565,355.961c-1.568-3.482-2.532-7.184-3.202-11.143c0.139,1.037,0.279,2.074,0.418,3.11
				c-2.212-16.228-7.305-31.73-10.13-47.736c-0.174,0.245-0.35,0.49-0.519,0.737c-2.145-1.301-4.599-2.044-7.16-1.934
				c-5.744,0.249-8.781,3.521-10.013,7.903c-4.11-2.442-9.147-3.125-14.177-0.817c-5.947,2.729-9.036,8.437-9.25,14.276
				c-1.323,0.448-2.592,1.05-3.786,1.78c-5.409-6.682-13.903-10.646-23.118-9.075c-8.265,1.41-14.519,6.984-17.771,14.064
				c-7.275-2.449-15.708-0.563-21.531,4.907c-6.705-3.446-14.8-2.896-20.767,1.351c-3.137-2.476-7.095-4.007-11.435-4.26
				c-6.918-0.402-12.844,2.791-17.719,7.265c-2.786-1.43-6.045-2.055-9.214-1.75c-3.928,0.378-7.137,2.088-9.826,4.5
				c-1.142-0.762-2.414-1.37-3.815-1.766c-3.774-1.068-7.74-0.364-11.012,1.532c-2.767-2.961-6.976-4.566-11.399-4.178
				c-2.227,0.196-4.159,0.874-5.832,1.902c-4.651-5.83-11.674-9.372-19.577-6.973c-1.328,0.403-2.589,0.992-3.771,1.719
				c-1.409-0.593-2.987-0.751-4.666-0.303c-6.635,1.771-12.329,5.781-16.199,11.189c-2.555-2.697-5.437-5.042-8.782-6.745
				c-7.416-3.776-16.893-4.414-24.249-0.106c-6.498,3.806-9.297,10.454-8.931,16.861c-5.689,0.639-11.224,2.535-16.146,5.542
				c-6.029-3.636-15.515-3.103-22.284-2.215c-13.861,1.817-27.088,5.655-39.878,11.167c-8.085-0.712-15.726,0.598-22.772,3.918
				c-3.699-6.16-10.262-10.501-17.86-10.585c-5.74-0.063-10.883,2.408-14.671,6.269c-1.026-0.447-2.139-0.702-3.19-0.745
				c-5.019-0.206-9.811,0.767-14.188,2.751c-4.005-4.506-9.889-7.179-16.233-6.51c-4.132,0.436-7.64,2.132-10.409,4.635
				c-4.907-3.744-11.341-5.452-17.601-3.901c-5.905,1.463-10.404,5.522-13.002,10.611c-7.616-2.01-16.329,0.715-20.865,7.547
				c-4.248-0.818-8.497-0.848-12.627-0.1c-2.255-2.521-6.066-3.55-9.327-1.567c-8.261,5.021-16.896,9.008-26.017,12.003
				c-5.071-5.521-12.451-8.832-20.085-8.19c-7.366,0.62-13.414,4.322-17.606,9.811c-6.116-1.439-12.497-0.673-18.082,2.174
				c-6.23-4.623-15.093-4.911-21.559-0.779c-6.058-4.375-13.959-5.879-21.622-4.7c-10.052,1.546-18.14,7.914-25.232,14.941
				c-1.512-2.084-2.912-4.334-4.842-5.925c-3.835-3.16-8.967-4.928-13.865-3.353c-2.398,0.771-4.278,2.148-5.628,3.86
				c-3.73-9.903-12.984-17.855-24.024-17.194c-11.862,0.711-20.986,10.883-22.47,21.984c-7.735-0.422-15.542,2.376-21.339,7.706
				c-8.641-2.535-18.383,0.782-23.059,8.782c0.009,0.249,0.027,0.497,0.031,0.747c0.07,4.541,0.593,9.056,0.791,13.591
				c0.158,3.612,0.028,7.208-0.295,10.79c1.444,19.554,4.219,38.738,8.286,57.442l819.061-99.485
				C828.103,387.27,826.757,371.479,824.565,355.961z M570.575,352.2c0.168-0.301,0.339-0.599,0.526-0.884
				c0.064,0.267,0.143,0.53,0.223,0.793L570.575,352.2z M588.505,346.917c-0.107-0.975-0.267-1.939-0.476-2.892
				c0.071-0.016,0.139-0.036,0.213-0.046c1.118-0.153,2.052,0.195,2.823,0.851C590.183,345.479,589.324,346.168,588.505,346.917z
				 M740.393,331.573c1.501-1.958,3.609-3.433,5.94-3.82c2.607-0.433,5.305,0.507,7.418,2.198L740.393,331.573z M785.602,322.195
				c-0.127-0.098-0.25-0.197-0.385-0.29c-0.01-0.116,0.003-0.252,0.083-0.429c0.179-0.391,0.246-0.792,0.365-1.147
				C785.601,320.95,785.58,321.572,785.602,322.195z"/>
			<path style="fill:#A05943;" d="M774.027,620.125c-48.01-28.49-106.976-62.167-116.66-61.683c0,0-163.145,158.982-220.136,269.596
				C581.514,820.18,706.15,738.508,774.027,620.125z"/>
			<g>
				<path style="fill:#BD806F;" d="M414.334,828.668c13.698,0,27.239-0.672,40.597-1.971
					c-33.745-101.938-140.695-201.495-140.695-201.495s-92.008,48.472-146.252,122.298
					C236.843,798.502,322.064,828.668,414.334,828.668z"/>
			</g>
			<g>
				<path style="fill:#6CA439;" d="M86.112,161.441c0.357,3.921,1.225,7.817,2.589,11.472c0.151,0.405,0.318,0.803,0.479,1.203
					c1.146,4.825,3.076,9.483,5.99,13.515c1.963,2.716,4.043,5.341,6.63,7.488c0.847,0.703,1.715,1.387,2.602,2.048
					c0.117,0.876,0.313,1.742,0.604,2.564c2.402,6.794,8.556,10.267,15.048,12.271c0.583,0.794,1.434,1.417,2.429,1.776
					c18.723,6.764,39.426,1.26,52.748-12.723c2.321-1.699,4.502-3.565,6.513-5.577c11.116,5.654,23.972,7.499,36.278,5.162
					c12.078-2.294,23.393-8.925,31.442-18.216c12.965,2.838,26.782-2.092,35.358-12.12c3.422,1.418,7.231,2.012,10.951,2.379
					c7.062,0.699,14.543,0.949,20.251-3.97c2.404-2.071,4.13-4.874,5.128-7.869c1.135-3.41,0.613-6.465,0.185-9.915
					c-0.632-5.087,7.164-7.274,10.676-9.21c6.204-3.42,11.713-7.987,14.179-14.79c0.086-0.046,0.172-0.088,0.258-0.142
					c3.089-1.893,5.688-4.417,7.612-7.492c0.896-1.432,1.589-3.001,2.16-4.589c0.2-0.557,0.939-2.74,1.185-4.241
					c0.889-0.349,1.772-0.728,2.624-1.156c1.533-0.771,2.929-1.735,4.272-2.795c2.699-2.131,5.009-4.849,6.489-7.968
					c3.122-6.579,2.881-14.783-1.559-20.723c-2.572-3.441-6.365-5.848-10.484-6.775c1.939-3.204,2.904-6.903,1.799-10.633
					c-0.697-2.352-2.024-4.306-3.726-5.721c0.916-1.271,1.719-2.631,2.413-4.042c2.086-4.241,3.807-8.809,4.342-13.526
					c0.523-4.618-0.728-9.523-4.341-12.66c-2.265-1.967-4.92-3.034-7.716-3.706c1.067-5.271,0.346-10.681-1.94-15.724
					C242.702,21.813,149.386,79.44,86.112,161.441z M363.011,84.571c0.086,0.177,0.158,0.357,0.233,0.538
					c-0.457-0.898-0.991-1.754-1.588-2.57C362.187,83.139,362.646,83.819,363.011,84.571z M347.031,86.193
					c-0.065,0.13-0.456,0.25-0.87,0.349C346.602,86.342,347.054,86.146,347.031,86.193z M274.999,27.146
					c0.031,0.029,0.062,0.059,0.092,0.088c0.014,0.028,0.027,0.058,0.04,0.087c-0.044,0.165-0.09,0.341-0.13,0.494
					C274.973,27.605,274.963,27.351,274.999,27.146z M273.83,26.142c0.013,0.008,0.316,0.246,0.609,0.456
					c0.101,0.102,0.201,0.204,0.305,0.304c-0.549-0.1-0.953-0.636-0.948-0.781C273.808,26.128,273.819,26.134,273.83,26.142z
					 M271.818,143.59c0.106,0.089,0.207,0.181,0.317,0.268c0.4,0.317,0.807,0.626,1.22,0.922c-0.692,0.331-1.364,0.696-2.021,1.095
					C271.49,145.113,271.651,144.351,271.818,143.59z M162.855,182.04c-0.183,0.142-0.36,0.287-0.527,0.438
					c-0.023,0.016-0.047,0.031-0.07,0.047C163.671,181.029,163.426,181.492,162.855,182.04z"/>
				<path style="fill:#8F5214;" d="M318.02,93.272c-0.69-2.511-3.09-3.5-5.465-3.103c-15.288,2.559-30.413,6.043-45.267,10.476
					c-7.359,2.196-14.649,4.62-21.857,7.269c-0.522,0.191-1.058,0.381-1.598,0.571c11.778-16.182,21.779-33.635,29.683-52.048
					c0.946-2.203,0.656-4.763-1.594-6.078c-1.872-1.095-5.127-0.623-6.078,1.594c-9.643,22.466-22.351,43.671-37.828,62.609
					c-15.911,19.469-34.534,36.112-54.932,50.748c-13.955,10.013-28.35,19.434-42.205,29.575c1.995-21.38,1.743-42.927-0.76-64.268
					c-0.28-2.382-1.842-4.442-4.443-4.442c-2.184,0-4.724,2.043-4.443,4.442c2.788,23.769,2.777,47.792-0.015,71.557
					c-4.536,3.534-8.991,7.177-13.317,10.992c-19.996,17.636-37.396,37.941-54.299,58.491
					c-15.164,18.436-30.236,36.947-45.315,55.453c-0.173,2.223-0.484,4.422-0.911,6.552c-0.834,4.162-1.732,8.284-3.05,12.304
					c16.47-20.177,32.936-40.357,49.415-60.526c17.012-20.822,34.219-41.624,53.885-60.029
					c19.604-18.347,42.047-32.832,63.959-48.187c21.175-14.839,41.013-31.119,57.967-50.729c0.296-0.343,0.584-0.692,0.879-1.036
					c0.791-0.164,1.521-0.545,2.046-1.193c1.966-2.425,4.636-3.674,7.488-4.803c3.375-1.336,6.776-2.608,10.192-3.837
					c6.963-2.504,14.001-4.801,21.101-6.885c14.338-4.208,28.923-7.534,43.66-10C317.285,98.341,318.609,95.415,318.02,93.272z"/>
			</g>
			<g>
				<path style="fill:#A4D55D;" d="M729.358,145.2C673.073,79.381,596.524,31.413,509.371,10.958
					c-3.257,0.888-6.432,2.078-9.463,3.593c-0.77,0.298-1.534,0.619-2.289,0.972c-5.174,2.416-10.341,6.399-12.412,11.899
					c-1.511,4.011-0.861,8.747,1.974,11.846c-4.138,1.887-7.404,5.646-8.318,10.177c-0.803,3.983,0.195,7.969,2.44,11.163
					c-0.967,2.113-1.627,4.215-2.03,6.325c-1.579,1.496-3.159,2.992-4.738,4.488c-2.541,2.406-5.589,4.809-6.286,8.437
					c-0.713,3.708,0.609,6.796,2.791,9.382c0.701,2.091,1.779,4.054,3.087,5.882c-0.321,0.123-0.643,0.246-0.962,0.376
					c-4.484,1.837-9.204,3.838-11.839,8.177c-1.578,2.598-2.125,5.525-2.085,8.482c-0.311,0.93-0.569,1.877-0.765,2.839
					c-2.19,10.76,5.855,18.099,13.915,23.642c-2.759,6.274-1.646,13.787,2.737,19.096c1.12,1.357,2.445,2.531,3.932,3.475
					c0.855,0.543,1.859,0.879,2.278,1.852c0.415,0.961,0.336,2.259,0.642,3.281c1.053,3.51,3.536,6.365,6.535,8.389
					c5.26,3.549,11.326,3.983,17.35,3.233c6.775,0.734,13.8,0.671,20.341-1.079c0.483,0.747,0.873,1.598,1.256,2.434
					c1.49,3.253,3.342,5.97,6.289,8.076c6.179,4.416,14.998,5.023,21.437,0.867c5.928,7.473,12.423,15.167,21.466,18.808
					c7.598,3.059,16.784,2.897,23.345-2.231c6.742,7.598,18.351,9.901,27.415,5.092c8.643,3.945,17.997-1.002,24.743-6.627
					c4.087-3.408,8.038-7.76,12.542-10.959c1.986-0.709,3.999-1.339,6.006-1.984c10.07-3.235,19.708-7.718,28.202-14.07
					c2.4-1.794,4.774-3.695,7.073-5.699c2.231-1.222,4.42-2.517,6.533-3.948C720.026,161.551,726.96,154.149,729.358,145.2z
					 M718.952,156.462c0.272-0.086,0.541-0.184,0.804-0.292c-0.839,0.977-1.727,1.916-2.656,2.812
					C717.739,158.158,718.354,157.315,718.952,156.462z M474.834,150.959c-1.216-3.55-1.198-7.429,0.291-10.865
					c0.729-0.083,1.285-0.805,1.329-1.559c0.046,0.019,0.094,0.035,0.14,0.053c-1.409,3.003-2.009,6.391-1.578,9.6
					c0.473,3.516,1.921,6.509,4.018,8.912C477.179,155.476,475.735,153.588,474.834,150.959z M487.987,34.771
					c-0.337-0.966-0.466-2.007-0.42-3.063c0.145,0.619,0.338,1.224,0.574,1.814C488.078,33.934,488.025,34.349,487.987,34.771z
					 M588.433,205.954c0.127-0.084,0.251-0.171,0.372-0.261c0.487,0.022,0.974,0.045,1.461,0.051
					C589.66,205.842,589.048,205.911,588.433,205.954z M634.873,208.313c3.128-0.743,6.197-1.741,9.17-3.057
					C641.193,206.894,638.052,208.137,634.873,208.313z"/>
				<path style="fill:#8F5214;" d="M779.265,217.654c-3.881-3.918-6.867-8.945-8.666-14.324
					c-12.971-6.076-27.144-9.709-41.195-12.606c-25.78-5.316-51.987-8.694-78.273-10.083c-14.359-0.759-28.745-0.905-43.117-0.475
					c-2.017-13.27-2.563-26.753-1.692-40.148c0.465-7.152,1.401-14.228,2.65-21.283c1.164-6.57,2.406-13.195,2.587-19.881
					c0.199-7.311-1.103-14.636-4.902-20.968c-2.938-4.898-10.624-0.436-7.672,4.484c6.336,10.562,3.226,23.72,1.227,35.086
					c-2.529,14.386-3.646,28.967-2.976,43.567c0.312,6.818,1.011,13.615,2.027,20.364c-10.285-6.33-18.863-15.008-26.532-24.389
					c-10.331-12.639-19.416-26.342-28.871-39.635c-2.84-3.992-5.539-8.149-8.635-11.951c-2.822-3.465-6.357-5.918-10.912-6.198
					c-5.711-0.351-5.69,8.536,0,8.886c2.497,0.153,4.44,3.301,5.754,5.143c2.555,3.582,5.1,7.17,7.65,10.755
					c5.023,7.063,10.032,14.136,15.073,21.185c7.837,10.958,15.939,21.951,25.721,31.275c-0.543-0.351-1.08-0.711-1.609-1.082
					c-8.401-5.879-14.388-14.181-20.073-22.558c-5.955-8.775-11.779-17.878-19.56-25.183c-7.987-7.499-17.806-12.429-28.318-15.332
					c-11.855-3.273-24.252-4.188-36.474-5.004c-2.397-0.161-4.443,2.156-4.443,4.443c0,2.538,2.039,4.282,4.443,4.442
					c20.742,1.387,43.55,3.2,59.271,18.46c7.564,7.343,13.082,16.393,19.021,25.02c6.116,8.883,12.733,17.153,21.649,23.384
					c7.656,5.351,16.947,8.839,26.222,8.237c1.012,0.538,2.035,1.055,3.073,1.545c2.168,1.025,4.793,0.603,6.078-1.594
					c0.375-0.643,0.562-1.415,0.569-2.198c25.204-0.737,50.45,0.332,75.496,3.26c12.485,1.459,24.911,3.41,37.251,5.804
					c11.042,2.142,22.086,4.529,32.777,8.069c9.105,3.015,18.004,6.989,25.89,12.475
					C779.604,218.316,779.435,217.986,779.265,217.654z"/>
			</g>
			<g>
				<g>
					<path style="fill:#BCB21F;" d="M330.422,196.573c0,0.002,0.001,0.005,0.001,0.007
						C330.423,196.577,330.422,196.575,330.422,196.573z"/>
					<path style="fill:#BCB21F;" d="M299.517,19.72c-3.464,14.682-3.141,30.772,0.383,45.816
						c2.529,10.793,6.525,20.862,11.566,30.135c-7.138,7.43-12.349,18.006-14.136,29.007c-2.693,16.582,1.386,33.206,10.845,45.51
						c1.236,1.608,2.565,3.111,3.969,4.505c-4.828,23.637,1.763,49.182,15.791,66.035c-2.108,7.277-1.897,15.658,0.401,22.795
						c1.837,5.705,4.424,11.098,8.302,15.105c4.598,4.752,9.696,8.014,15.402,10.346c4.318,1.765,8.813,2.79,13.297,3.689
						c5.686,1.141,11.399,2.257,17.139,2.899c11,1.228,22.066-0.431,31.9-6.859c8.323-5.442,15.351-14.157,20.154-24.043
						c2.37-4.877,4.259-10.265,5.543-15.713c0.53-2.251,0.922-4.539,1.211-6.853c0.261-2.083,0.489-4.177,0.638-6.276
						c0.036-0.506,0.063-1.014,0.096-1.52c0.123-0.113,0.246-0.225,0.368-0.34c1.476-0.368,2.952-0.667,4.458-0.952
						c4.072-0.772,7.891-2.52,11.613-4.658c7.577-4.351,13.709-11.658,18.582-19.849c9.187-15.446,12.27-36.1,7.676-54.242
						c13.099-14.02,22.806-32.267,27.646-52.933c5.802-24.773,3.594-50.854-4.833-74.276c-2.021-5.617-4.489-11.025-7.319-16.138
						C472.502,3.766,443.778,0,414.334,0C374.498,0,335.977,6.884,299.517,19.72z M450.569,68.185
						c0.162-0.334,0.28-0.743,0.399-1.117c0.046-0.079,0.086-0.125,0.114-0.136c-0.006,0.102-0.012,0.204-0.018,0.307
						c-0.076,0.221-0.237,0.564-0.519,1.023C450.553,68.237,450.561,68.211,450.569,68.185z M442.686,194.478
						c1.076-0.417,2.113-1.028,3.039-1.821c-0.354,1.456-0.743,2.899-1.176,4.323c-0.099,0.327-0.204,0.65-0.308,0.975
						c-0.542,0.253-1.066,0.564-1.566,0.932C442.661,197.417,442.664,195.948,442.686,194.478z M422.19,237.527
						c-0.024,0.172-0.047,0.344-0.074,0.515c-0.202,1.275-0.442,2.543-0.72,3.796c-0.005,0.022-0.011,0.043-0.015,0.065
						c-0.258-0.17-0.521-0.322-0.789-0.456C421.125,240.142,421.658,238.835,422.19,237.527z"/>
					<path style="fill:#BCB21F;" d="M330.476,196.982c-0.013-0.124-0.031-0.261-0.052-0.403
						C330.444,196.711,330.459,196.846,330.476,196.982z"/>
				</g>
				<path style="fill:#6E4C4B;" d="M448.176,196.178c-1.137-2.379-4.101-3.639-6.078-1.95c-16.526,14.118-31.006,31.588-42.7,51.58
					c2.546-27.345,6.889-54.444,13.022-80.974c4.005-17.325,8.768-34.376,14.239-51.09c0.892-2.726-0.974-5.969-3.103-6.685
					c-2.532-0.851-4.569,1.06-5.465,3.796c-16.059,49.053-25.854,101.149-29.101,153.841c-7.203-18.407-17.661-34.949-30.47-47.938
					c-5.802-5.883-12.02-11.101-18.655-15.476c-5.033-3.319-9.525,6.061-4.485,9.385c21.599,14.242,39.008,37.904,48.193,65.783
					c1.723,5.229,3.159,10.585,4.318,16.034c-0.048,2.708-0.085,5.416-0.099,8.125c-0.091,18.337,0.637,36.669,2.152,54.912
					c0.243,2.92,1.868,5.434,4.443,5.434c2.214,0,4.687-2.496,4.443-5.434c-1.414-17.028-2.117-34.126-2.128-51.219
					c1.258-1.328,1.75-3.48,1.425-5.601c-0.375-2.452-0.814-4.889-1.302-7.311c0.148-7.403,0.429-14.801,0.838-22.188
					c12.161-25.903,28.873-48.463,48.92-65.589C448.547,201.935,449.456,198.856,448.176,196.178z"/>
			</g>
			<path style="opacity:0.3;fill:#102838;" d="M84.179,492.955c-6.347,4.232-14.769,17.171-7.052,23.271
				c12.789,10.109,39.984-5.478,54.094,3.706c13.114,8.535-14.246,23.56,9.692,23.043c12.652-0.273,25.748-5.858,38.249-8.246
				c13.401-2.559,25.318-4.379,38.936-3.619c-3.54,13.593-7.751,17.843,9.083,17.845c23.346,0.003,47.016-2.194,70.034-5.5
				c9.971-1.432,35.392-0.115,40.982-10.254c6.459-11.715-12.897-8.051-19.991-8.397c-0.651-9.688,22.369-10.033,29.436-15.016
				c21.875-15.423-9.705-10.104-16.482-14.591c-10.938-7.241,7.786-12.205,13.014-17.217c8.865-8.499,4.841-13.359-5.997-14.025
				c-24.827-1.526-49.948,1.971-74.226,5.004c-35.884,4.482-72.195,8.262-108.532,10c-15.424,0.738-32.095,5.461-47.046,9.747
				c-7.609,2.181-25.125,1.645-25.196,12.249"/>
			<path style="opacity:0.3;fill:#102838;" d="M366.179,478.955c-14.238,12.67,30.626,11.023,33.681,10.996
				c5.682-0.049,25.133-4.798,28.116,0.984c3.28,6.358-8.614,13.949-10.792,18.888c14.156,5.48,32.73,3.404,47.085,0.169
				c9.704-2.187,23.116-10.37,32.782-9.883c1.719,9.839-3.239,12.029,9.415,13.76c21.663,2.962,46.326-1.938,67.172-6.989
				c8.534-2.068,27.341-6.075,15.315-16.722c-6.857-6.071-25.06-6.428-33.643-6.354c-2.777-11.253,15.731-10.076,14.914-20.398
				c-0.865-10.927-17.54-4.382-22.917-9.65c1.727-1.398,3.539-5.248,4.747-6.63c-14.918-4.578-38.544-2.1-53.945,0.08
				c-24.092,3.41-47.529,8.445-71.458,12.209c-14.334,2.255-63.675-3.69-59.473,21.54"/>
			<path style="opacity:0.3;fill:#102838;" d="M616.179,442.955c-8.326,1.405-10.509,10.708-5.498,15.621
				c5.838,5.725,19.025,3.095,26.347,3.527c5.447,10.82-17.525,15.349-17.698,27.708c17.684,5.674,48.689-1.888,66.353-5.817
				c19.162-4.262,14.124-10.069-0.425-17.262c6.169-8.153,32.638-7.112,42.769-6.626c-4.407,21.101,64.557,6.439,73.574-3.556
				c13.356-14.805-11.344-9.346-9.966-19.133c0.974-6.925,12.947-5.235,10.369-15.288c-14.749-8.406-33.738-5.264-50.141-3.925
				c-25.508,2.082-49.826,7.47-74.751,12.826c-14.033,3.016-25.741,3.669-39.859,4.876c-6.201,0.53-23.451,1.537-26.075,7.048"/>
			<g>
				<polygon style="fill:#FBD4B9;" points="109.357,462.949 114.688,343.885 292.396,323.449 292.396,460.284 				"/>
				<polygon style="fill:#7B1E30;" points="200.877,462.949 200.432,407.86 228.421,407.86 238.195,462.949 				"/>
				<path style="fill:#9F5242;" d="M82.701,462.949c0,0,3.554,39.984,10.662,43.538c7.108,3.554,187.482-7.997,225.689-21.769
					v-38.651C319.052,446.067,114.688,470.058,82.701,462.949z"/>
				<path style="opacity:0.2;fill:#1D1D1B;" d="M219.314,331.853c0,0,39.134,22.625,73.082,34.62v-43.024L219.314,331.853z"/>
				<path style="fill:#BD806F;" d="M67.596,350.105c0,0,121.73-141.278,133.281-143.943c11.551-2.666,15.994-8.885,22.213,0
					c6.22,8.885,48.87,74.637,73.749,88.854c24.879,14.217,36.43,33.764,36.43,33.764S119.131,357.213,67.596,350.105z"/>
				<path style="fill:#6A3700;" d="M308.391,495.603c-0.183-3.79-0.678-7.564-1.309-11.309c2.759-1.468,2.394-6.387-1.162-6.278
					c-1.712-8.686-3.668-17.333-3.498-26.246c0.082-4.29-6.582-4.29-6.664,0c-0.071,3.737,0.211,7.442,0.69,11.124
					c-4.665,0.265-9.33,0.531-13.995,0.796c-0.503-3.382-1.023-6.761-1.579-10.135c-0.695-4.221-7.118-2.43-6.426,1.771
					c3.26,19.788,5.556,39.717,6.912,59.726c0.289,4.256,6.955,4.288,6.664,0c-0.217-3.204-0.468-6.405-0.734-9.604
					c4.866-0.726,9.678-1.713,14.433-2.958c-0.055,2.89-0.082,5.778,0.29,8.655c0.23,1.784,1.366,3.332,3.332,3.332
					c1.622,0,3.564-1.535,3.332-3.332C308.009,505.979,308.641,500.787,308.391,495.603z M297.49,469.499
					c0.546,3.03,1.161,6.051,1.762,9.069c-4.869,0.411-9.739,0.821-14.608,1.232c-0.392-3.169-0.801-6.336-1.239-9.5
					C288.1,470.033,292.795,469.766,297.49,469.499z M285.427,486.398c5.021-0.423,10.042-0.847,15.063-1.27
					c0.574,3.333,1.032,6.683,1.215,10.066c0.007,0.131,0.011,0.263,0.017,0.394c-4.943,1.366-9.95,2.45-15.016,3.251
					C286.317,494.688,285.896,490.54,285.427,486.398z"/>
			</g>
			<g>
				<path style="fill:#FBD4B9;" d="M379.654,446.067l-3.998-100.918l129.276-3.998c0,0,10.662,80.555,5.331,94.254
					C510.263,435.405,420.303,454.359,379.654,446.067z"/>
				<path style="fill:#BD806F;" d="M361.662,351.246c0,0,84.629-123.378,93.292-120.046c8.663,3.332,82.63,112.617,73.301,116.615
					C518.926,351.813,378.322,362.007,361.662,351.246z"/>
				<polygon style="fill:#7B1E30;" points="446.083,394.658 470.947,393.199 478.277,448.166 443.706,451.102 				"/>
				<path style="opacity:0.2;fill:#1D1D1B;" d="M451.622,356.03c0,0,50.298,25.77,60.133,25.104l-5.563-29.888L451.622,356.03z"/>
				<path style="fill:#9F5242;" d="M366.993,441.773c0,0,1.333,33.985-5.331,40.649c0,0,107.577-1.333,167.405-15.993
					c0,0,5.185-45.98-4.144-46.646C524.923,419.783,453.621,454.434,366.993,441.773z"/>
				<path style="fill:#6A3700;" d="M533.771,489.002c-1.162-3.112-2.247-6.25-3.266-9.408c0.625-1.581,0.188-3.549-1.324-4.243
					c-0.887-2.953-1.715-5.923-2.478-8.909c0.917-0.559,1.546-1.472,1.546-2.724c0-1.52-1.352-3.327-3.003-3.351
					c-2.562-11.366-4.222-22.931-4.919-34.591c-0.255-4.262-6.921-4.291-6.664,0c0.342,5.721,0.904,11.423,1.676,17.094
					c-3.878-0.112-7.738,0.069-11.588,0.541c-0.591-3.493-1.183-6.986-1.775-10.479c-0.715-4.219-7.138-2.43-6.426,1.772
					c1.705,10.064,3.396,20.131,5.115,30.193c1.575,9.219,3.454,18.355,7.617,26.803c1.896,3.847,7.645,0.474,5.754-3.363
					c-0.829-1.683-1.552-3.405-2.193-5.156c4.154-0.372,8.308-0.743,12.462-1.115c0.952,2.922,1.965,5.825,3.041,8.708
					C528.831,494.756,535.275,493.032,533.771,489.002z M506.738,461.052c-0.629-3.702-1.255-7.404-1.881-11.107
					c3.792-0.41,7.593-0.54,11.413-0.384c0.029,0.001,0.056-0.001,0.085-0.001c0.639,3.831,1.38,7.645,2.216,11.437
					c-3.871,0.249-7.75,0.269-11.637,0.055C506.867,461.049,506.804,461.052,506.738,461.052z M510.284,476.656
					c-0.152,0.014-0.298,0.038-0.44,0.067c-0.77-2.955-1.386-5.956-1.938-8.963c4.078,0.185,8.15,0.117,12.21-0.208
					c0.678,2.69,1.41,5.366,2.188,8.03C518.297,475.939,514.29,476.297,510.284,476.656z"/>
			</g>
			<g>
				<polygon style="fill:#FBD4B9;" points="634.208,431.777 634.208,327.157 758.819,317.828 762.151,419.783 				"/>
				<path style="fill:#7B1E30;" d="M674.857,419.783c0,0-13.327-43.314,4.665-49.978c17.992-6.664,12.661,49.978,12.661,49.978
					H674.857z"/>
				<path style="opacity:0.2;fill:#1D1D1B;" d="M634.208,345.15c0,0,104.45,22.768,126.192,21.046l-1.199-36.683l-55.1,9.311
					L634.208,345.15z"/>
				<path style="fill:#BD806F;" d="M619.04,422.151v35.172c0,0,142.26-3.104,159.104-25.545v-29.106
					C778.144,402.672,649.698,430.966,619.04,422.151z"/>
				<path style="fill:#BD806F;" d="M606.22,346.482c0,0,54.642-121.279,63.305-128.61c8.663-7.33,77.299,49.225,108.618,105.576
					C778.144,323.449,754.781,338.382,606.22,346.482z"/>
				<path style="fill:#6A3700;" d="M772.813,447.104h-1.967c-0.097-2.382-0.239-4.762-0.437-7.137
					c1.443-1.446,1.543-4.263-0.542-5.373c-1.051-9.111-2.831-18.14-5.343-26.975c-1.171-4.118-7.603-2.368-6.426,1.772
					c0.852,2.995,1.607,6.01,2.284,9.039c-4.309-0.095-8.615-0.017-12.919,0.258c-0.232,0.015-0.449,0.052-0.656,0.102
					c-0.364-1.907-0.604-3.827-0.522-5.774c0.182-4.288-6.482-4.279-6.664,0c-0.183,4.308,1.027,8.473,1.911,12.649
					c0.883,4.172,1.628,8.376,2.21,12.6c1.162,8.437,1.666,16.962,1.637,25.476c-0.015,4.289,6.649,4.295,6.664,0
					c0.011-3.328-0.07-6.653-0.234-9.973h12.503c0.01,3.989-0.118,7.983-0.4,11.977c-0.302,4.28,6.364,4.261,6.664,0
					c0.281-3.988,0.412-7.983,0.408-11.977h1.828C777.101,453.768,777.108,447.104,772.813,447.104z M761.732,425.128
					c0.469,2.606,0.872,5.223,1.214,7.846c-4.419-0.692-8.91-0.855-13.385-0.455c-0.376-2.326-0.79-4.646-1.256-6.956
					c-0.017-0.084-0.035-0.168-0.053-0.252C752.742,425.048,757.235,424.988,761.732,425.128z M750.513,439.107
					c4.448-0.319,8.839-0.074,13.183,0.767c0.21,2.405,0.362,4.816,0.466,7.229H751.36
					C751.133,444.434,750.855,441.768,750.513,439.107z"/>
			</g>
		</g>
	</g>
</g>
<g id="Layer_1">
</g>
</svg>
