<?xml version="1.0" encoding="iso-8859-1"?>
<!-- Generator: Adobe Illustrator 19.2.1, SVG Export Plug-In . SVG Version: 6.00 Build 0)  -->
<svg version="1.1" xmlns="http://www.w3.org/2000/svg" xmlns:xlink="http://www.w3.org/1999/xlink" x="0px" y="0px"
	 viewBox="0 0 964 964" style="enable-background:new 0 0 964 964;" xml:space="preserve">
<g id="hydro-massage">
	<g>
		<path style="fill:#FADF8D;" d="M964,479.738c0,0.75,0,1.509-0.01,2.259c-1.814,410.04-499.806,628.42-796.232,371.309
			C59.951,759.802-0.11,623.142,0,481.997c0.04-44.811,6.142-90.069,18.698-134.546C80.592,128.258,279.863-4.237,495.718,0.103
			C755.521,5.329,964,205.431,964,479.738z"/>
		<path style="fill:#FED298;" d="M963.99,481.997c-1.814,410.04-499.806,628.42-796.232,371.309
			C59.951,759.802-0.11,623.142,0,481.997H963.99z"/>
		<g>
			<g>
				<path style="fill:#B6BB44;" d="M323.463,110.725c20.104,3.24,23.262,32.897,20.328,49.262
					c-3.564,19.864-19.822,32.067-23.927,50.722c-4.408,20.045,9.486,39.743,11.646,59.426c2.609,23.698-5.44,39.717-9.991,61.983
					c-5.064,24.76,7.593,48.024,12.157,71.825c0.654,3.409,1.139,6.83,1.385,10.27c0.488,6.823,0.03,13.712-1.985,20.715
					c-1.779,6.19-4.832,11.587-8.308,16.734c-3.009-1.203-6.007-2.443-8.993-3.731c2.943-4.223,5.574-8.635,7.44-13.53
					c11.682-30.675-13.099-62.417-10.009-93.745c0.58-5.873,1.715-11.481,3.088-16.951c0.55-2.202,1.139-4.376,1.754-6.54
					c4.839-17.175,10.858-33.467,7.823-53.209c-2.734-17.765-14.075-35.832-9.062-54.133c4.646-16.959,19.554-28.428,24.349-45.862
					C345.691,147.489,344.853,114.798,323.463,110.725z"/>
				<path style="fill:#B6BB44;" d="M331.088,413.972c-0.096,1.382,39.886-0.112,45.062-57.305
					C376.15,356.666,336.178,340.823,331.088,413.972z"/>
				<path style="fill:#B6BB44;" d="M318.195,323.945c0,0-53.657-4.198-44.653-62.796
					C273.542,261.15,318.818,265.462,318.195,323.945z"/>
				<path style="fill:#B6BB44;" d="M319.918,225.564c-1.362,1.825,32.023,24.819,70.486-19.053
					C390.405,206.51,355.024,178.525,319.918,225.564z"/>
				<path style="fill:#B6BB44;" d="M331.166,182.474c0,0-17.903-9.81-15.814-28.642
					C315.352,153.833,331.957,151.293,331.166,182.474z"/>
			</g>
			<path style="fill:#B6BB44;" d="M247.312,85.765c-18.539,8.705-13.949,38.16-6.912,53.115
				c8.546,18.152,27.353,25.396,36.109,42.232c9.406,18.092,1.087,40.93,4.07,60.498c3.585,23.56,15.462,36.761,25.578,56.953
				c11.251,22.453,5.042,48.384,6.768,72.587c0.247,3.466,0.66,6.898,1.309,10.28c1.285,6.711,3.499,13.221,7.243,19.41
				c3.307,5.47,7.638,9.824,12.312,13.818c2.59-1.994,5.16-4.022,7.705-6.093c-3.923-3.252-7.593-6.773-10.651-10.971
				c-19.151-26.315-3.44-63.782-14.479-93.113c-2.071-5.498-4.607-10.587-7.338-15.476c-1.097-1.969-2.224-3.9-3.373-5.815
				c-9.082-15.207-19.075-29.234-21.23-49.1c-1.937-17.878,4.341-38.437-5.198-54.679c-8.841-15.052-26.158-21.963-35.265-37.431
				C235.354,127.364,227.749,95.629,247.312,85.765z"/>
			<path style="fill:#B6BB44;" d="M293.862,391.375c-0.523,1.275-35.424-19.044-14.855-72.367
				C279.007,319.007,321.53,323.901,293.862,391.375z"/>
			<path style="fill:#B6BB44;" d="M394.53,304.343c0,0,32.285,14.167,43.867-22.562C438.397,281.781,410.935,270.273,394.53,304.343
				z"/>
			<path style="fill:#B6BB44;" d="M239.655,317.792c0.26,1.444-25.068,4.367-34.547-32.079
				C205.109,285.713,232.963,280.569,239.655,317.792z"/>
			<path style="fill:#B6BB44;" d="M237.222,225.599c0,0,20.239-0.221,26.67-17.962C263.892,207.637,250.242,197.492,237.222,225.599
				z"/>
			<polygon style="fill:#BC6124;" points="258.131,417.913 284.242,501.193 367.115,501.193 393.033,410.388 			"/>
			<path style="fill:#B6BB44;" d="M297.381,416.479c0,0-0.292-1.01-0.841-2.903c-0.273-0.95-0.607-2.139-1.032-3.375
				c-0.438-1.275-0.847-2.729-1.487-4.389c-1.18-3.324-2.769-7.305-4.824-11.77c-2.091-4.444-4.66-9.366-7.836-14.507
				c-3.173-5.14-6.953-10.498-11.381-15.8c-4.434-5.328-9.477-10.487-15.195-15.519c-2.875-2.547-5.925-5.182-8.867-8.177
				c-2.948-3.006-5.759-6.342-8.005-10.42c-0.484-0.936-0.973-1.73-1.457-2.883c-0.486-1.078-0.978-2.163-1.319-3.225l-0.565-1.603
				l-0.459-1.634c-0.327-1.086-0.56-2.19-0.775-3.296c-0.873-4.426-1.115-8.908-0.978-13.289c0.303-8.779,1.915-17.183,3.383-25.335
				c1.484-8.148,2.905-16.105,3.213-23.833c0.324-7.712-0.558-15.179-3.251-21.686c-1.288-3.2-2.962-6.233-4.769-9.001
				c-1.8-2.787-3.756-5.348-5.693-7.762c-3.902-4.808-7.696-9.089-10.964-12.944c-3.29-3.84-6.158-7.188-8.521-9.945
				c-4.724-5.514-7.424-8.665-7.424-8.665s2.83,3.026,7.781,8.32c2.476,2.647,5.482,5.862,8.931,9.549
				c3.432,3.709,7.38,7.789,11.532,12.473c4.103,4.71,8.445,10.079,11.549,16.904c3.131,6.726,4.434,14.766,4.42,22.827
				c0.016,8.104-1.111,16.334-2.25,24.551c-1.132,8.212-2.331,16.498-2.262,24.614c0.065,8.113,1.666,15.906,5.694,22.335
				c1.857,3.059,4.409,5.91,7.163,8.464c2.766,2.582,5.772,4.967,8.796,7.414c6.116,4.917,11.827,10.254,16.751,15.683
				c4.954,5.432,9.233,10.97,12.863,16.32c3.633,5.35,6.616,10.511,9.069,15.196c2.417,4.706,4.315,8.931,5.744,12.471
				c1.425,3.532,2.522,6.551,3.101,8.338c0.627,1.867,0.962,2.862,0.962,2.862L297.381,416.479z"/>
			<path style="fill:#B6BB44;" d="M372.164,412.903c0,0-0.09-0.279-0.265-0.818c-0.087-0.27-0.196-0.605-0.325-1.003
				c-0.065-0.199-0.134-0.414-0.209-0.644c-0.074-0.231-0.155-0.453-0.238-0.824c-0.743-2.817-1.451-6.521-1.429-11.242
				c0.017-4.708,0.828-10.275,2.58-16.175c0.888-2.943,1.984-5.981,3.266-9.086c1.304-3.088,2.783-6.249,4.414-9.458
				c3.275-6.373,6.953-12.847,10.07-19.917c3.088-7.026,5.599-14.704,5.514-22.64c0.038-0.994-0.087-1.974-0.153-2.967l-0.055-0.745
				c-0.006-0.058,0.033,0.184,0.009,0.032l-0.016-0.103l-0.032-0.206l-0.063-0.413l-0.254-1.655
				c-0.222-0.987-0.364-1.859-0.648-2.88c-0.264-1.003-0.541-2.011-0.884-3.021c-1.289-4.046-3.11-8.133-4.935-12.374
				c-1.821-4.25-3.709-8.679-5.016-13.476c-0.322-1.201-0.629-2.408-0.854-3.652l-0.185-0.925l-0.066-0.362l-0.028-0.218
				l-0.055-0.436l-0.22-1.746c-0.183-1.1-0.197-2.507-0.27-3.782c-0.103-1.323,0.013-2.539,0.033-3.802
				c0.492-10.061,3.955-19.405,8.198-27.731c4.257-8.372,9.487-15.877,14.406-23.015c4.925-7.156,9.535-14.131,13.056-21.214
				c3.575-7.046,5.878-14.259,6.715-21.136c0.79-6.908,0.246-13.343-0.164-19.054c-0.45-5.708-0.766-10.723-0.649-14.853
				c0.098-4.131,0.569-7.35,1.033-9.503c0.214-1.08,0.48-1.885,0.61-2.437c0.146-0.549,0.221-0.832,0.221-0.832
				s-0.064,0.286-0.189,0.841c-0.11,0.558-0.344,1.369-0.517,2.454c-0.381,2.164-0.728,5.381-0.67,9.48
				c0.039,4.102,0.539,9.056,1.204,14.745c0.622,5.671,1.429,12.193,0.885,19.35c-0.594,7.158-2.715,14.761-6.117,22.154
				c-3.347,7.433-7.787,14.737-12.452,22.111c-4.68,7.383-9.48,14.895-13.251,23.075c-3.766,8.12-6.565,16.932-6.645,25.753
				c0.028,1.086-0.04,2.224,0.092,3.244c0.111,1.066,0.105,2.019,0.348,3.231l0.286,1.736l0.072,0.434l0.036,0.217
				c-0.039-0.227,0.003-0.006,0-0.032l0.024,0.099l0.192,0.79c0.23,1.055,0.541,2.101,0.863,3.145
				c1.307,4.177,3.209,8.245,5.168,12.365c1.963,4.13,4.037,8.308,5.673,12.817c0.425,1.115,0.792,2.266,1.144,3.424
				c0.363,1.13,0.658,2.463,0.951,3.647l0.316,1.644l0.079,0.41l0.039,0.205l0.02,0.102l0.037,0.239l0.108,0.914
				c0.135,1.218,0.318,2.434,0.329,3.647c0.239,4.86-0.329,9.605-1.325,14.033c-0.998,4.437-2.408,8.58-3.941,12.469
				c-3.079,7.764-6.645,14.619-9.525,20.811c-1.424,3.088-2.677,6.065-3.753,8.909c-1.05,2.849-1.91,5.565-2.577,8.119
				c-1.303,5.113-1.736,9.555-1.616,13.069c0.07,1.756,0.223,3.298,0.489,4.594c0.056,0.326,0.11,0.641,0.162,0.943
				c0.052,0.301,0.14,0.519,0.199,0.766c0.123,0.476,0.234,0.908,0.334,1.296c0.027,0.169,0.13,0.431,0.214,0.658
				c0.083,0.227,0.161,0.439,0.233,0.635c0.144,0.393,0.265,0.723,0.362,0.989c0.195,0.532,0.296,0.807,0.296,0.807L372.164,412.903
				z"/>
			<polygon style="fill:#E89E6C;" points="235.426,396.29 249.049,429.517 402.536,417.913 417.59,390.34 			"/>
			<path style="fill:#B6BB44;" d="M393.422,348.063c0.26,1.444-25.068,4.367-34.547-32.079
				C358.876,315.984,386.73,310.84,393.422,348.063z"/>
			<path style="fill:#B6BB44;" d="M407.677,214.041c0.26,1.444-25.068,4.367-34.547-32.079
				C373.13,181.962,400.985,176.818,407.677,214.041z"/>
			<path style="fill:#B6BB44;" d="M425.558,173.528c0,0,20.239-0.221,26.67-17.962C452.228,155.566,438.578,145.421,425.558,173.528
				z"/>
			<path style="fill:#B6BB44;" d="M331.326,307.261c0,0,18.018-9.578,16.155-28.436
				C347.481,278.826,330.908,276.072,331.326,307.261z"/>
			<path style="fill:#B6BB44;" d="M202.019,232.902c0,0,10.856,17.746,28.757,14.064
				C230.777,246.966,231.875,229.568,202.019,232.902z"/>
		</g>
		<g>
			<g>
				<path style="fill:#B6BB44;" d="M687.824,94.25c-19.913,4.333-21.565,34.122-17.808,50.304
					c4.563,19.642,21.417,30.941,26.459,49.346c5.416,19.777-7.462,40.205-8.624,59.98c-1.406,23.807,7.441,39.365,13.113,61.352
					c6.309,24.45-5.153,48.372-8.507,72.39c-0.481,3.44-0.792,6.883-0.863,10.331c-0.143,6.841,0.663,13.694,3.03,20.578
					c2.089,6.084,5.412,11.307,9.143,16.258c2.944-1.365,5.875-2.767,8.792-4.217c-3.152-4.057-6.003-8.319-8.114-13.105
					c-13.218-29.995,9.923-63.045,5.253-94.162c-0.877-5.833-2.293-11.371-3.941-16.759c-0.661-2.169-1.359-4.308-2.083-6.436
					c-5.701-16.887-12.536-32.828-10.503-52.708c1.832-17.889,12.243-36.551,6.312-54.553
					c-5.497-16.682-20.965-27.321-26.635-44.469C667.486,132.177,666.67,99.485,687.824,94.25z"/>
				<path style="fill:#B6BB44;" d="M695.549,397.494c0.166,1.375-39.837,2.065-47.899-54.767
					C647.65,342.728,686.766,324.724,695.549,397.494z"/>
				<path style="fill:#B6BB44;" d="M703.87,306.888c0,0,53.37-7.121,41.415-65.146C745.285,241.742,700.29,248.52,703.87,306.888z"
					/>
				<path style="fill:#B6BB44;" d="M697.173,208.737c1.453,1.749-30.723,26.533-71.353-15.18
					C625.82,193.557,659.736,163.679,697.173,208.737z"/>
				<path style="fill:#B6BB44;" d="M683.762,166.321c0,0,17.382-10.773,14.343-29.465
					C698.105,136.856,681.394,135.226,683.762,166.321z"/>
			</g>
			<path style="fill:#B6BB44;" d="M762.607,65.169c18.954,7.681,15.86,37.346,9.589,52.664
				c-7.616,18.593-26.03,26.854-33.923,44.145c-8.478,18.58,0.985,40.933-1.004,60.636c-2.388,23.723-13.582,37.554-22.662,58.271
				c-10.1,23.036-2.587,48.593-3.087,72.857c-0.071,3.475-0.31,6.924-0.787,10.338c-0.944,6.772-2.826,13.394-6.251,19.778
				c-3.026,5.643-7.131,10.227-11.596,14.471c-2.687-1.85-5.356-3.735-8.003-5.664c3.753-3.462,7.24-7.178,10.081-11.538
				c17.793-27.324,0.209-63.882,9.749-93.775c1.79-5.604,4.065-10.824,6.545-15.855c0.996-2.027,2.024-4.017,3.075-5.991
				c8.301-15.681,17.57-30.234,18.718-50.191c1.03-17.959-6.28-38.147,2.425-54.888c8.067-15.514,25.011-23.361,33.323-39.304
				C776.653,106.057,782.642,73.951,762.607,65.169z"/>
			<path style="fill:#B6BB44;" d="M731.58,372.896c0.587,1.245,34.412-20.951,11.174-73.078
				C742.754,299.818,700.537,307.027,731.58,372.896z"/>
			<path style="fill:#B6BB44;" d="M626.649,291.48c0,0-31.524,15.909-44.948-20.136C581.701,271.344,608.544,258.353,626.649,291.48
				z"/>
			<path style="fill:#B6BB44;" d="M781.99,296.457c-0.186,1.457,25.254,2.992,32.876-33.92
				C814.866,262.537,786.79,258.92,781.99,296.457z"/>
			<path style="fill:#B6BB44;" d="M779.757,204.258c0,0-20.223,0.884-27.542-16.482C752.215,187.777,765.333,176.9,779.757,204.258z
				"/>
			<polygon style="fill:#BC6124;" points="768.604,397.448 746.742,482.038 663.984,486.562 633.508,397.296 			"/>
			<path style="fill:#B6BB44;" d="M729.336,398.159c0,0,0.241-1.024,0.693-2.945c0.225-0.963,0.498-2.169,0.86-3.426
				c0.373-1.297,0.707-2.771,1.263-4.464c1.01-3.384,2.396-7.446,4.222-12.017c1.864-4.552,4.179-9.607,7.091-14.915
				c2.909-5.306,6.413-10.864,10.566-16.4c4.158-5.562,8.934-10.99,14.389-16.326c2.742-2.7,5.654-5.498,8.441-8.65
				c2.792-3.163,5.43-6.647,7.466-10.843c0.436-0.961,0.884-1.781,1.309-2.959c0.43-1.103,0.867-2.213,1.154-3.292l0.484-1.631
				l0.376-1.657c0.271-1.102,0.448-2.217,0.608-3.334c0.648-4.467,0.663-8.956,0.305-13.324c-0.747-8.75-2.782-17.054-4.66-25.115
				c-1.895-8.056-3.716-15.924-4.414-23.625c-0.713-7.683-0.21-15.188,2.15-21.833c1.124-3.265,2.642-6.386,4.307-9.249
				c1.656-2.882,3.481-5.545,5.293-8.062c3.653-5.014,7.226-9.496,10.294-13.525c3.091-4.015,5.786-7.514,8.006-10.397
				c4.439-5.765,6.975-9.059,6.975-9.059s-2.673,3.176-7.35,8.734c-2.338,2.779-5.178,6.153-8.435,10.024
				c-3.239,3.891-6.976,8.181-10.886,13.085c-3.859,4.928-7.924,10.526-10.678,17.511c-2.786,6.888-3.681,14.988-3.259,23.037
				c0.394,8.094,1.935,16.251,3.489,24.394c1.545,8.139,3.162,16.348,3.504,24.456c0.346,8.106-0.859,15.975-4.556,22.615
				c-1.7,3.156-4.104,6.143-6.725,8.843c-2.632,2.729-5.513,5.275-8.409,7.884c-5.859,5.244-11.292,10.885-15.934,16.575
				c-4.672,5.695-8.665,11.459-12.019,16.999c-3.358,5.541-6.076,10.857-8.288,15.67c-2.175,4.832-3.857,9.154-5.106,12.767
				c-1.245,3.605-2.188,6.679-2.675,8.496c-0.532,1.898-0.816,2.911-0.816,2.911L729.336,398.159z"/>
			<path style="fill:#B6BB44;" d="M654.475,398.67c0,0,0.076-0.283,0.223-0.832c0.074-0.274,0.165-0.615,0.274-1.02
				c0.054-0.202,0.113-0.421,0.176-0.655c0.063-0.235,0.131-0.461,0.196-0.836c0.599-2.853,1.119-6.591,0.858-11.305
				c-0.255-4.701-1.346-10.216-3.394-16.011c-1.036-2.891-2.284-5.865-3.721-8.895c-1.459-3.013-3.095-6.089-4.887-9.204
				c-3.592-6.186-7.593-12.45-11.063-19.34c-3.439-6.848-6.335-14.378-6.651-22.308c-0.088-0.991-0.013-1.976,0.003-2.971
				l0.018-0.747c0.003-0.059-0.023,0.186-0.007,0.033l0.01-0.104l0.021-0.208l0.042-0.416l0.17-1.667
				c0.171-0.997,0.27-1.876,0.502-2.911c0.213-1.016,0.438-2.038,0.73-3.065c1.082-4.111,2.694-8.292,4.303-12.627
				c1.604-4.344,3.265-8.87,4.328-13.731c0.261-1.217,0.507-2.439,0.668-3.694l0.138-0.934l0.048-0.365l0.016-0.219l0.033-0.439
				l0.132-1.756c0.127-1.108,0.07-2.515,0.079-3.792c0.036-1.326-0.142-2.535-0.225-3.795c-1-10.02-4.931-19.162-9.589-27.246
				c-4.674-8.128-10.277-15.337-15.55-22.197c-5.28-6.878-10.236-13.591-14.111-20.472c-3.926-6.841-6.591-13.919-7.775-20.741
				c-1.138-6.855-0.921-13.311-0.8-19.037c0.161-5.725,0.223-10.75-0.103-14.868c-0.307-4.12-0.94-7.309-1.512-9.434
				c-0.269-1.067-0.574-1.856-0.733-2.4c-0.173-0.54-0.263-0.819-0.263-0.819s0.079,0.282,0.232,0.829
				c0.138,0.551,0.413,1.348,0.64,2.423c0.49,2.14,0.999,5.334,1.149,9.43c0.169,4.098-0.08,9.072-0.457,14.79
				c-0.334,5.697-0.811,12.254,0.095,19.372c0.955,7.115,3.457,14.593,7.229,21.79c3.719,7.24,8.522,14.291,13.553,21.4
				c5.047,7.117,10.22,14.357,14.4,22.32c4.172,7.903,7.412,16.55,7.939,25.355c0.027,1.086,0.152,2.219,0.072,3.245
				c-0.057,1.07-0.003,2.022-0.184,3.245l-0.198,1.749l-0.049,0.437l-0.025,0.219c0.028-0.229-0.003-0.006-0.002-0.031l-0.019,0.1
				l-0.151,0.8c-0.176,1.066-0.434,2.128-0.703,3.188c-1.094,4.242-2.787,8.409-4.535,12.63c-1.752,4.232-3.611,8.516-5.017,13.109
				c-0.368,1.136-0.676,2.306-0.969,3.482c-0.305,1.148-0.533,2.495-0.766,3.694l-0.232,1.659l-0.058,0.414l-0.029,0.207
				l-0.014,0.103l-0.025,0.24l-0.062,0.918c-0.073,1.224-0.194,2.448-0.144,3.66c0.007,4.866,0.814,9.574,2.033,13.941
				c1.221,4.376,2.839,8.436,4.566,12.236c3.468,7.585,7.375,14.236,10.564,20.262c1.578,3.006,2.98,5.91,4.199,8.692
				c1.192,2.788,2.189,5.453,2.984,7.968c1.56,5.035,2.217,9.447,2.274,12.963c0.019,1.757-0.056,3.306-0.256,4.614
				c-0.04,0.329-0.078,0.646-0.114,0.95c-0.037,0.303-0.113,0.526-0.16,0.775c-0.098,0.482-0.188,0.92-0.268,1.312
				c-0.019,0.171-0.109,0.438-0.18,0.668c-0.072,0.231-0.138,0.447-0.2,0.647c-0.124,0.4-0.228,0.737-0.312,1.008
				c-0.168,0.542-0.254,0.822-0.254,0.822L654.475,398.67z"/>
			<polygon style="fill:#E89E6C;" points="790.184,374.616 778.26,408.54 624.399,405.33 607.971,378.616 			"/>
			<path style="fill:#B6BB44;" d="M629.967,335.079c-0.186,1.457,25.254,2.992,32.876-33.92
				C662.843,301.159,634.767,297.543,629.967,335.079z"/>
			<path style="fill:#B6BB44;" d="M608.953,202.02c-0.186,1.457,25.254,2.992,32.876-33.92
				C641.829,168.1,613.753,164.483,608.953,202.02z"/>
			<path style="fill:#B6BB44;" d="M589.047,162.539c0,0-20.223,0.884-27.542-16.482
				C561.505,146.058,574.623,135.181,589.047,162.539z"/>
			<path style="fill:#B6BB44;" d="M689.913,290.944c0,0-18.478-8.581-17.571-27.515C672.343,263.43,688.754,259.775,689.913,290.944
				z"/>
			<path style="fill:#B6BB44;" d="M815.28,209.63c0,0-9.943,18.314-28.006,15.614C787.274,225.244,785.297,207.93,815.28,209.63z"/>
		</g>
		<g>
			<polygon style="fill:#CAD7EB;" points="106.345,657.028 102.308,772.047 834.445,772.772 860.149,656.193 			"/>
			<polygon style="fill:#B3C9E9;" points="106.345,657.028 258.04,457.728 758.805,446.806 860.051,657.362 			"/>
			<polygon style="fill:#DDE1E9;stroke:#B3C9E9;stroke-miterlimit:10;" points="274.71,492.559 738.433,482.445 805.44,616.77 
				176.699,621.329 			"/>
			<polygon style="fill:#CFD9E6;" points="274.71,492.559 283.489,620.555 176.699,621.329 			"/>
			<polygon style="fill:#CAD7EB;" points="738.433,482.445 738.755,617.275 805.44,616.77 			"/>
			<polygon style="fill:#8DB8E9;" points="155.059,652.829 176.699,621.329 218.062,621.029 207.55,657.608 154.71,656.974 			"/>
			<polygon style="fill:#8DB8E9;" points="272.663,656.844 283.489,620.555 317.972,620.305 320.949,656.944 			"/>
			<polygon style="fill:#8DB8E9;" points="385.727,657.152 394.438,619.75 432.12,619.477 438.913,655.91 			"/>
			<polygon style="fill:#8DB8E9;" points="499.91,657.202 510.085,618.912 547.088,618.643 555.931,657.227 			"/>
			<polygon style="fill:#8DB8E9;" points="608.351,656.472 617.488,618.133 655.99,617.854 666.949,657.276 			"/>
			<polygon style="fill:#8DB8E9;" points="713.916,656.355 721.883,615.739 766.017,619.757 778.783,657.326 			"/>
			<polygon style="fill:#8DB8E9;" points="805.44,616.77 843.745,623.451 822.236,578.721 790.705,587.232 			"/>
			<path style="fill:#8DB8E9;" d="M777.743,561.248l28.341-16.119c0,0-13.663-28.415-15.172-31.552
				c-1.509-3.138-35.361,3.185-35.361,3.185L777.743,561.248z"/>
			<polygon style="fill:#8DB8E9;" points="738.433,482.445 772.501,475.289 758.805,446.806 715.469,447.751 			"/>
			<polygon style="fill:#8DB8E9;" points="693.494,483.425 664.935,448.853 625.797,449.707 622.822,484.967 			"/>
			<polygon style="fill:#8DB8E9;" points="599.152,485.483 553.693,486.475 545.28,451.463 602.038,451.28 			"/>
			<polygon style="fill:#8DB8E9;" points="505.241,487.531 482.546,452.221 441.624,453.724 426.434,489.25 			"/>
			<polygon style="fill:#8DB8E9;" points="384.153,490.172 367.842,455.333 330.262,456.152 319.827,491.575 			"/>
			<polygon style="fill:#8DB8E9;" points="294.566,489.275 281.973,457.206 258.04,457.728 242.098,478.673 263.987,506.648 
				274.71,492.559 			"/>
			<polygon style="fill:#8DB8E9;" points="248.864,526.516 208.481,522.839 187.789,550.025 213.069,573.545 			"/>
			<polygon style="fill:#8DB8E9;" points="195.032,597.243 162.232,583.603 139.275,613.763 179.659,617.44 			"/>
			<g>
				<path style="fill:#DDE1E9;" d="M317.3,414.001l3.562-42.223l-31.759-2.892l-3.562,42.223
					c-0.669,7.933,4.231,15.102,11.311,17.309l-2.841,33.667c-7.256-0.394-12.793,0.254-12.909,1.625
					c-0.132,1.567,6.87,3.484,15.64,4.282s15.987,0.176,16.119-1.391c0.116-1.37-5.229-3.009-12.44-3.933l2.841-33.667
					C310.604,428.107,316.63,421.933,317.3,414.001z"/>
				<path style="fill:#AD3963;" d="M293.767,386.696l19.521,1.777l-2.171,25.727c0,0-1.109,9.659-8.735,9.575
					c-7.627-0.084-11.006-5.272-10.674-9.207C292.04,410.633,293.767,386.696,293.767,386.696z"/>
			</g>
			<g>
				<path style="fill:#BE3A4A;" d="M759.829,633.957c-0.895,10.604-15.365,20.828-32.023,19.312
					c-16.658-1.517-29.195-14.2-28.301-24.804c0.895-10.604,14.883-15.112,31.541-13.596S760.724,623.353,759.829,633.957z"/>
				<path style="fill:#D08450;" d="M710.755,621.867c0,0,17.886-10.168,37.035,2.25C747.789,624.117,735.773,630.43,710.755,621.867
					z"/>
				<path style="fill:#FFDA61;" d="M730.208,623.638c0,0-14.655-7.003,1.73-43.974C731.938,579.664,744.534,611.07,730.208,623.638z
					"/>
			</g>
			<g>
				<path style="fill:#D75F00;" d="M771.243,482.084c-0.48,5.686-8.239,11.168-17.17,10.355c-8.932-0.813-15.654-7.614-15.174-13.3
					c0.48-5.686,7.98-8.103,16.912-7.29S771.723,476.399,771.243,482.084z"/>
				<path style="fill:#D08450;" d="M744.93,475.602c0,0,9.59-5.452,19.858,1.206C764.787,476.808,758.344,480.193,744.93,475.602z"
					/>
				<path style="fill:#FFDA61;" d="M755.36,476.551c0,0-7.858-3.755,0.928-23.578C756.288,452.973,763.042,469.813,755.36,476.551z"
					/>
			</g>
			<g>
				<path style="fill:#FFA400;" d="M188.751,613.736c-0.737,8.739-12.662,17.165-26.39,15.915s-24.06-11.702-23.323-20.441
					c0.737-8.739,12.265-12.454,25.993-11.204C178.759,599.256,189.488,604.998,188.751,613.736z"/>
				<path style="fill:#D08450;" d="M148.309,603.773c0,0,14.74-8.38,30.521,1.854C178.829,605.627,168.926,610.83,148.309,603.773z"
					/>
				<path style="fill:#FFDA61;" d="M164.34,605.232c0,0-12.078-5.771,1.426-36.239C165.766,568.993,176.146,594.875,164.34,605.232z
					"/>
			</g>
			<g>
				<path style="fill:#D6C300;" d="M217.065,635.609c-0.895,10.604-15.365,20.828-32.023,19.311s-29.195-14.2-28.301-24.804
					c0.895-10.604,14.883-15.113,31.541-13.596C204.94,618.038,217.96,625.006,217.065,635.609z"/>
				<path style="fill:#D08450;" d="M167.991,623.519c0,0,17.886-10.168,37.035,2.25
					C205.026,625.769,193.009,632.082,167.991,623.519z"/>
				<path style="fill:#FFDA61;" d="M187.444,625.29c0,0-14.655-7.003,1.73-43.974C189.174,581.316,201.77,612.723,187.444,625.29z"
					/>
			</g>
		</g>
	</g>
</g>
<g id="Layer_1">
</g>
</svg>
