<?xml version="1.0" encoding="iso-8859-1"?>
<!-- Generator: Adobe Illustrator 20.0.0, SVG Export Plug-In . SVG Version: 6.00 Build 0)  -->
<svg version="1.1" xmlns="http://www.w3.org/2000/svg" xmlns:xlink="http://www.w3.org/1999/xlink" x="0px" y="0px"
	 viewBox="0 0 828.67 828.67" style="enable-background:new 0 0 828.67 828.67;" xml:space="preserve">
<g id="Igloo">
	<g>
		<path style="fill:#87C9F0;" d="M828.67,414.33c0,78.27-21.7,151.47-59.42,213.91C696.7,748.36,564.9,828.67,414.34,828.67
			c-150.57,0-282.37-80.31-354.91-200.43C21.7,565.8,0,492.6,0,414.33C0,185.5,185.5,0,414.34,0c17.53,0,34.8,1.09,51.75,3.21
			c10.29,1.27,20.46,2.93,30.5,4.96c74.77,15.05,142.26,50.24,196.56,99.67l18.26,17.67c10.93,11.23,21.22,23.08,30.83,35.5
			c2.2,2.84,4.37,5.72,6.5,8.63v0.01c12.92,17.62,24.47,36.29,34.51,55.87c0,0,0.01,0,0.01,0.01c2.35,4.6,4.62,9.23,6.81,13.92
			c2.49,5.35,4.87,10.75,7.13,16.22c1.38,3.3,2.71,6.64,4,9.99v0.01l0.01,0.03c4.01,10.42,7.6,21.04,10.76,31.84
			C822.84,334.58,828.67,373.78,828.67,414.33z"/>
		<g>
			<path style="fill:#E7EFFA;" d="M33.417,252.366c-0.269,0.203-0.551,0.411-0.826,0.616c-0.01,0.023-0.02,0.046-0.03,0.069
				L33.417,252.366z"/>
			<path style="fill:#E7EFFA;" d="M659.029,321.836c-30.145-4.714-66.474,2.21-98.645,2.292
				c-29.103,0.074-59.366-4.072-87.293-12.69c-49.978-15.422-95.327-20.882-148.45-22.228
				c-41.246-1.045-82.056-13.418-121.94-16.603c-18.911-1.51-37.281-3.505-55.165-7.403c-24.436-5.325-85.922-21.897-116.084-9.482
				C11.189,304.577,0,358.146,0,414.33C0,492.6,21.7,565.8,59.43,628.24c72.54,120.12,204.34,200.43,354.91,200.43
				c150.56,0,282.36-80.31,354.91-200.43c37.72-62.44,59.42-135.64,59.42-213.91c0-26.145-2.437-51.723-7.072-76.528
				c-16.203-3.055-33.934-4.6-50.422-8.161C734.261,321.669,695.604,327.555,659.029,321.836z"/>
		</g>
		<g>
			<path style="fill:#CDE7F8;" d="M634.987,389.355c0,0-3.68-175.399-213.423-210.97S103.883,330.48,85.484,476.441
				c0,0-14.719,65.008,38.024,78.5s353.252,91.993,426.846,91.993c0,0-3.679-208.516,114.071-247.766L634.987,389.355z"/>
			<path style="fill:#92B5DC;" d="M689.35,632.517l-128.015-14.618c0,0,11.039-100.267,34.955-131.543
				c23.917-31.276,44.703-56.93,75.43-58.872c30.728-1.943,32.196,47.834,32.196,50.593s-7.359,89.228-7.359,89.228L689.35,632.517z
				"/>
			<path style="fill:#CDE7F8;" d="M550.762,648.979l24.122-2.044c0,0-6.133-161.907,86.677-211.378c0,0,21.669-5.315,30.255,13.083
				c8.586,18.399-2.862,145.144-13.492,179.488c0,0,17.172,8.995,23.305,4.089c6.133-4.906-5.724-11.039-5.724-13.083
				c0-2.044,1.635-8.586,2.862-11.448c1.128-2.632,51.219-155.173-14.077-201.13c-10.908-7.677-25.385-8.155-36.855-1.347
				C615.517,424.387,548.589,484.09,550.762,648.979z"/>
			<g>
				<g>
					<path style="fill:#92B5DC;" d="M245.817,208.552c0,0,0.325-0.05,0.953-0.147c0.632-0.086,1.552-0.28,2.796-0.341
						c2.48-0.202,6.155-0.308,10.782,0.244c4.628,0.502,10.203,1.512,16.452,2.977c3.098,0.726,6.394,1.499,9.868,2.313
						c3.488,0.759,7.156,1.557,10.983,2.389c3.832,0.853,7.824,1.742,11.955,2.662c2.06,0.472,4.155,0.951,6.283,1.438
						c2.123,0.499,4.305,1.032,6.403,1.45c8.536,1.844,17.782,3.26,27.396,4.583c4.839,0.645,9.759,1.301,14.739,1.964
						c5.007,0.661,10.098,1.355,15.239,2.173c2.572,0.404,5.157,0.83,7.753,1.285c2.529,0.421,5.065,0.843,7.606,1.266
						c1.296,0.234,2.55,0.412,3.795,0.58l3.755,0.526c2.484,0.379,5.064,0.632,7.607,0.934c10.2,1.217,20.496,1.989,30.679,2.684
						c5.105,0.31,10.17,0.617,15.174,0.92c5.028,0.286,9.994,0.568,14.879,0.845c9.789,0.568,19.283,1.224,28.291,2.016
						c9.011,0.823,17.529,1.839,25.364,2.992c4.064,0.639,7.691,1.405,11.197,2.073c3.489,0.688,6.792,1.272,9.898,1.779
						c6.211,0.984,11.657,1.598,16.136,1.579c2.237-0.011,4.227-0.162,5.938-0.421c1.709-0.268,3.133-0.669,4.244-1.12
						c1.093-0.477,1.899-0.95,2.402-1.328c0.494-0.397,0.749-0.601,0.749-0.601s-0.21,0.254-0.617,0.747
						c-0.428,0.477-1.129,1.145-2.186,1.843c-2.12,1.361-5.665,2.765-10.317,3.458c-4.643,0.743-10.34,1.031-16.811,0.846
						c-3.237-0.074-6.666-0.295-10.262-0.544c-3.581-0.241-7.38-0.648-11.116-0.812c-7.775-0.341-16.2-0.581-25.132-0.715
						c-8.958-0.085-18.405-0.175-28.177-0.268c-4.9-0.023-9.893-0.127-14.952-0.219c-2.534-0.06-5.083-0.12-7.645-0.18
						c-2.566-0.098-5.145-0.197-7.734-0.296c-10.367-0.413-20.932-1.18-31.501-2.368c-2.644-0.334-5.266-0.611-7.943-1.036
						l-3.993-0.591c-1.338-0.192-2.662-0.393-3.926-0.631l-3.841-0.682c-1.303-0.243-2.605-0.487-3.905-0.729
						c-2.497-0.495-4.999-0.965-7.501-1.415c-5.037-0.874-10.034-1.742-14.972-2.599c-4.965-0.844-9.903-1.68-14.758-2.609
						c-4.856-0.917-9.653-1.851-14.325-2.951c-4.685-1.083-9.221-2.206-13.678-3.542c-2.267-0.647-4.345-1.336-6.426-2.004
						c-2.082-0.666-4.132-1.322-6.148-1.967c-4.022-1.311-7.908-2.577-11.638-3.793c-1.862-0.619-3.685-1.225-5.468-1.817
						c-0.885-0.296-1.759-0.588-2.623-0.876c-0.887-0.296-1.766-0.597-2.615-0.906c-3.414-1.227-6.591-2.413-9.564-3.54
						c-5.944-2.223-11.118-4.067-15.488-5.235c-4.359-1.174-7.884-1.818-10.299-2.028c-1.207-0.15-2.161-0.169-2.794-0.206
						C246.145,208.569,245.817,208.552,245.817,208.552z"/>
				</g>
				<g>
					<path style="fill:#92B5DC;" d="M150.149,296.86c0,0,0.475-0.034,1.395-0.099c0.92-0.045,2.306-0.089,4.099,0.028
						c3.593,0.161,8.837,1.146,15.324,2.236c1.624,0.25,3.33,0.47,5.104,0.585c1.834,0.111,3.752,0.227,5.753,0.348
						c4.022,0.238,8.357,0.639,12.99,1.07c4.631,0.444,9.554,0.963,14.734,1.551c5.185,0.582,10.607,1.313,16.255,1.992
						c11.3,1.41,23.563,2.908,36.538,4.666c6.491,0.862,13.15,1.85,19.963,2.885c6.817,1.018,13.772,2.252,20.774,3.437
						c14.03,2.347,28.527,4.772,43.258,7.237c14.752,2.441,29.738,5.02,44.729,7.668c3.721,0.655,7.604,1.443,10.948,1.894
						c3.554,0.482,7.176,0.802,10.856,1.041c7.386,0.464,14.913,0.668,22.737,1.398l1.395,0.14l1.516,0.188
						c1.033,0.122,2.011,0.268,2.976,0.419c1.945,0.295,3.856,0.647,5.748,1.018c3.777,0.765,7.44,1.649,11.021,2.528
						c3.581,0.88,7.079,1.757,10.52,2.539c1.722,0.393,3.426,0.757,5.117,1.104c1.75,0.345,3.494,0.688,5.231,1.03
						c13.934,2.687,27.375,5.192,40.162,6.962c12.784,1.822,24.922,2.929,36.168,3.339c2.811,0.108,5.566,0.168,8.26,0.195
						c2.715,0.001,5.366,0.002,7.952,0.002c5.275,0.026,10.227,0.183,14.89,0.398c9.323,0.418,17.385,1.184,24.043,1.91
						c3.377,0.432,6.263,0.94,8.815,1.274c2.542,0.332,4.712,0.493,6.474,0.47c1.76-0.025,3.108-0.197,4.005-0.388
						c0.89-0.21,1.348-0.354,1.348-0.354s-0.428,0.205-1.293,0.544c-0.872,0.313-2.21,0.703-4.004,0.943
						c-1.791,0.249-4.024,0.363-6.635,0.35c-2.603,0.006-5.616-0.182-8.869-0.258c-6.618-0.016-14.699,0.146-23.899,0.483
						c-4.598,0.194-9.502,0.474-14.609,0.902c-2.566,0.239-5.246,0.425-8.013,0.63c-2.758,0.178-5.584,0.327-8.472,0.432
						c-5.778,0.219-11.8,0.174-18.031,0.021c-6.231-0.168-12.654-0.615-19.24-1.169c-13.175-1.149-26.935-3.084-41.064-5.334
						c-1.77-0.284-3.548-0.569-5.332-0.855c-1.84-0.302-3.671-0.645-5.486-1.014c-3.635-0.73-7.228-1.535-10.789-2.315
						c-7.131-1.555-14.106-3-21.07-3.578c-7.083-0.574-14.647-0.617-22.37-1.092c-3.875-0.232-7.813-0.555-11.786-1.074
						c-4.181-0.561-7.752-1.278-11.516-1.932c-14.948-2.7-29.897-5.4-44.612-8.058c-7.365-1.336-14.666-2.717-21.876-4.113
						c-7.215-1.388-14.33-2.774-21.337-4.23c-6.958-1.425-13.801-2.827-20.499-4.199c-6.693-1.346-13.268-2.565-19.669-3.796
						c-12.81-2.422-24.958-4.678-36.166-6.886c-11.221-2.217-21.39-4.371-30.484-6.045c-4.54-0.848-8.802-1.556-12.74-2.252
						c-1.981-0.334-3.882-0.654-5.698-0.96c-1.874-0.324-3.616-0.742-5.245-1.174c-3.263-0.855-6.086-1.755-8.56-2.467
						c-2.471-0.714-4.591-1.231-6.332-1.55c-1.742-0.322-3.088-0.491-4.008-0.569C150.624,296.893,150.149,296.86,150.149,296.86z"
						/>
				</g>
				<g>
					<path style="fill:#92B5DC;" d="M105.075,389.768c3.309,2.401,7.218,3.544,11.108,4.451c3.908,0.914,7.881,1.49,11.915,2.094
						c8.014,1.21,16.011,2.35,24.055,3.256c8.031,0.966,16.077,1.83,24.137,2.696c8.081,0.823,16.286,1.938,24.352,3.239
						c16.156,2.602,32.064,5.888,47.898,8.574c7.922,1.317,15.814,2.569,23.718,3.442c4.154,0.512,8.053,0.982,12.165,1.575
						c4.086,0.604,8.192,1.178,12.223,1.872c8.102,1.319,16.137,2.932,24.161,4.562c7.998,1.74,15.975,3.543,23.896,5.518
						c3.963,0.985,7.914,2,11.857,3.038c3.953,1.007,7.876,2.097,11.805,3.177l11.758,3.294l11.71,3.414
						c7.805,2.273,15.568,4.651,23.338,6.996c7.78,2.342,15.471,4.825,23.213,6.849c7.748,2.105,15.6,3.836,23.549,5.163
						c7.943,1.387,15.989,2.294,24.103,2.938l-0.021,0.001c0.092-0.003,0.18-0.006,0.284,0c0.028,0.003,0.053,0.004,0.093,0.013
						c0.01,0.001,0.054,0.014,0.086,0.034c0.07,0.038,0.103,0.167,0.057,0.224c-0.083,0.11-0.115,0.098-0.161,0.131
						c-0.17,0.084-0.33,0.143-0.493,0.211c-0.161,0.066-0.322,0.133-0.477,0.21c-0.152,0.079-0.313,0.157-0.418,0.298
						c0.079-0.16,0.232-0.27,0.37-0.376c0.143-0.105,0.292-0.201,0.44-0.295c0.147-0.094,0.302-0.186,0.432-0.281
						c0.026-0.014,0.073-0.071,0.041-0.033c-0.035,0.036-0.007,0.142,0.043,0.168c0.011,0.012,0.035,0.016,0.023,0.015l-0.037,0.004
						c-0.071,0.008-0.156,0.026-0.238,0.043l-0.022,0.001c-4.059,0.346-8.138,0.59-12.227,0.682
						c-4.088,0.075-8.185,0.013-12.286-0.144c-4.102-0.157-8.193-0.527-12.28-0.955c-4.086-0.44-8.17-0.963-12.23-1.625
						c-2.032-0.334-4.048-0.693-6.08-1.077c-2.045-0.383-4.049-0.785-6.028-1.195l-11.941-2.607
						c-7.931-1.781-15.858-3.568-23.754-5.421l-23.677-5.507c-7.894-1.774-15.755-3.662-23.648-5.34
						c-7.879-1.753-15.764-3.41-23.661-4.97c-7.892-1.56-15.793-3.064-23.716-4.344c-3.964-0.709-7.895-1.281-11.835-1.891
						c-3.915-0.608-8.08-1.088-11.969-1.662c-8.211-1.095-16.35-2.448-24.392-4.077c-16.098-3.204-31.85-7.167-47.583-10.671
						c-3.93-0.858-7.88-1.752-11.787-2.533c-1.947-0.405-3.918-0.797-5.926-1.165l-5.958-1.132
						c-8.003-1.488-16.005-3.077-23.975-4.853c-7.956-1.834-15.911-3.728-23.753-6.003c-3.893-1.128-7.872-2.235-11.724-3.72
						c-1.92-0.76-3.813-1.605-5.618-2.614C108.196,392.462,106.456,391.258,105.075,389.768z"/>
				</g>
				<g>
					<path style="fill:#92B5DC;" d="M160.268,559.946c0,0-0.726-2.19-1.732-6.042c-0.208-0.982-0.398-2.083-0.616-3.29
						c-0.104-0.607-0.212-1.238-0.325-1.893c-0.114-0.66-0.217-1.343-0.276-2.04c-0.153-1.401-0.263-2.897-0.406-4.486
						c-0.142-1.589-0.082-3.249-0.132-5.001c-0.061-1.757,0.076-3.564,0.18-5.449c0.047-0.943,0.12-1.901,0.195-2.875
						c0.118-0.966,0.239-1.946,0.36-2.94c0.117-0.997,0.256-2.005,0.402-3.027c0.187-1.01,0.375-2.033,0.566-3.067
						c0.192-1.035,0.389-2.083,0.612-3.135c0.258-1.04,0.519-2.09,0.782-3.148c0.272-1.057,0.517-2.135,0.82-3.201
						c0.324-1.057,0.649-2.122,0.977-3.194c0.642-2.154,1.412-4.279,2.203-6.419c1.577-4.281,3.429-8.509,5.402-12.662
						c1.002-2.068,2.053-4.102,3.102-6.131c1.082-2.002,2.183-3.985,3.295-5.935c2.254-3.877,4.581-7.619,6.932-11.148
						c2.32-3.519,4.656-6.857,6.847-9.984c2.201-3.114,4.282-6.059,6.203-8.777c3.837-5.423,6.919-10.042,9.068-13.354
						c1.067-1.671,1.905-2.984,2.476-3.88c0.586-0.903,0.899-1.384,0.899-1.384s-0.066,0.571-0.189,1.641
						c-0.123,1.074-0.374,2.631-0.766,4.606c-0.409,1.968-0.971,4.353-1.776,7.037c-0.792,2.69-1.817,5.685-3.067,8.884
						c-1.254,3.198-2.73,6.602-4.376,10.128c-1.658,3.528-3.455,7.164-5.359,10.89c-1.875,3.687-3.813,7.497-5.782,11.368
						c-0.97,1.925-1.948,3.866-2.929,5.814c-0.953,1.95-1.91,3.909-2.867,5.867c-1.872,3.923-3.727,7.842-5.411,11.741
						c-0.842,1.949-1.712,3.874-2.459,5.807c-0.396,0.961-0.79,1.916-1.181,2.865c-0.365,0.956-0.727,1.904-1.087,2.845
						c-0.359,0.943-0.716,1.879-1.069,2.806c-0.305,0.938-0.63,1.862-0.955,2.778c-0.321,0.918-0.639,1.826-0.953,2.723
						c-0.269,0.907-0.539,1.803-0.827,2.685c-0.282,0.885-0.561,1.758-0.836,2.618c-0.235,0.869-0.467,1.725-0.695,2.567
						c-0.484,1.684-0.945,3.321-1.289,4.91c-0.369,1.586-0.783,3.112-1.073,4.577c-0.297,1.465-0.552,2.865-0.842,4.186
						c-0.5,2.631-0.813,4.939-1.187,6.891C160.677,557.675,160.268,559.946,160.268,559.946z"/>
				</g>
				<g>
					<path style="fill:#92B5DC;" d="M346.084,605.02c0,0,0.074-0.138,0.217-0.404c0.136-0.285,0.249-0.664,0.379-1.219
						c0.269-1.087,0.395-2.748,0.534-4.869c0.141-2.131,0.21-4.702,0.533-7.804c0.077-0.763,0.214-1.654,0.37-2.453
						c0.143-0.785,0.278-1.579,0.454-2.434c0.329-1.71,0.744-3.426,1.162-5.249c0.87-3.614,1.926-7.466,2.991-11.454
						c1.077-3.989,2.126-8.126,2.974-12.343c1.704-8.867,3.521-18.325,5.339-27.783c0.977-4.754,1.915-9.538,3.002-14.235
						c0.515-2.354,1.066-4.686,1.651-6.986c0.29-1.151,0.578-2.295,0.864-3.431c0.149-0.567,0.298-1.133,0.447-1.696l0.23-0.841
						l0.077-0.292l0.061-0.206l0.121-0.412c0.335-1.115,0.61-2.14,0.998-3.322c0.361-1.145,0.724-2.296,1.127-3.35
						c0.779-2.15,1.558-4.226,2.395-6.2c1.65-3.961,3.346-7.584,4.931-10.893c1.604-3.284,3.075-6.294,4.379-8.961
						c1.318-2.659,2.41-4.997,3.334-6.934c0.881-1.945,1.642-3.476,2.082-4.543c0.486-1.061,0.745-1.627,0.745-1.627
						s0.011,0.623-0.015,1.791c-0.028,1.168-0.084,2.886-0.29,5.062c-0.212,2.171-0.544,4.811-1.074,7.794
						c-0.518,2.987-1.222,6.329-2.051,9.915c-0.846,3.538-1.762,7.37-2.732,11.423c-0.463,2.005-0.961,4.036-1.38,6.116
						c-0.205,1.016-0.412,2.042-0.621,3.079c-0.212,0.98-0.399,2.174-0.601,3.278c-0.368,2.207-0.742,4.451-1.121,6.722
						c-0.371,2.303-0.764,4.633-1.187,6.981c-0.791,4.708-1.705,9.489-2.62,14.293c-0.985,4.789-1.982,9.601-3.155,14.313
						c-0.559,2.364-1.173,4.692-1.813,7.001c-0.324,1.157-0.645,2.307-0.965,3.448c-0.327,1.135-0.658,2.17-1.02,3.352
						c-1.432,4.629-3.183,8.878-4.929,12.769c-1.755,3.896-3.518,7.442-5.113,10.707c-0.791,1.623-1.549,3.179-2.27,4.658
						c-0.36,0.721-0.706,1.477-1.043,2.194c-0.334,0.7-0.596,1.289-0.885,1.965c-1.087,2.666-1.978,5.185-2.854,7.193
						c-0.842,2.026-1.696,3.582-2.384,4.571c-0.327,0.491-0.69,0.858-0.907,1.039C346.208,604.926,346.084,605.02,346.084,605.02z"
						/>
				</g>
				<g>
					<path style="fill:#92B5DC;" d="M275.253,420.124c0,0-0.139-0.383-0.398-1.102c-0.142-0.352-0.245-0.811-0.348-1.385
						c-0.051-0.283-0.122-0.604-0.163-0.933c-0.028-0.326-0.058-0.673-0.089-1.039c-0.124-1.481-0.051-3.288,0.236-5.307
						c0.276-2.026,0.787-4.254,1.455-6.584c0.669-2.329,1.502-4.774,2.336-7.235c0.399-1.238,0.841-2.452,1.186-3.663l0.245-0.895
						c0.101-0.335,0.202-0.671,0.304-1.009c0.209-0.688,0.421-1.382,0.634-2.082c0.89-2.896,1.916-5.731,3.035-8.607
						c1.117-2.865,2.317-5.721,3.548-8.534c2.481-5.622,5.046-11.079,7.448-16.157c1.216-2.64,2.428-5.088,3.548-7.426
						c1.13-2.326,2.176-4.513,3.099-6.553c0.933-2.037,1.717-3.931,2.39-5.645c0.685-1.713,1.185-3.249,1.609-4.545
						c0.393-1.294,0.712-2.349,0.889-3.076c0.203-0.737,0.311-1.129,0.311-1.129s0.165,0.37,0.443,1.088
						c0.293,0.717,0.633,1.79,0.968,3.197c0.321,1.405,0.624,3.152,0.754,5.166c0.137,2.013,0.139,4.301-0.052,6.762
						c-0.2,2.457-0.579,5.09-1.117,7.806c-0.545,2.707-1.237,5.528-2.018,8.327c-1.588,5.805-3.876,11.724-6.373,17.415
						c-1.255,2.845-2.567,5.636-3.883,8.348c-1.314,2.701-2.644,5.371-3.932,7.845c-0.326,0.645-0.649,1.284-0.969,1.917
						l-0.492,0.961c-0.188,0.351-0.375,0.7-0.561,1.047c-0.762,1.349-1.491,2.599-2.266,3.744c-1.516,2.302-2.991,4.318-4.321,6.172
						c-1.343,1.846-2.53,3.521-3.519,5.042c-1.002,1.519-1.801,2.89-2.381,4.074c-0.298,0.598-0.551,1.133-0.733,1.602
						c-0.196,0.472-0.381,0.903-0.472,1.276C275.376,419.735,275.253,420.124,275.253,420.124z"/>
				</g>
				<g>
					<path style="fill:#92B5DC;" d="M443.591,454.16c0,0,0.318-1.728,1.106-4.623c0.403-1.449,0.866-3.196,1.439-5.161
						c0.593-1.949,1.262-4.147,1.991-6.545c0.782-2.366,1.568-4.946,2.483-7.622c0.902-2.682,1.834-5.507,2.852-8.393
						c0.953-2.914,2.04-5.872,3.065-8.899c1.055-3.009,2.126-6.066,3.197-9.122c0.997-3.069,2.134-6.1,3.099-9.121
						c1.017-3.011,2.017-5.974,2.986-8.842c0.52-1.429,0.874-2.866,1.369-4.247c0.462-1.387,0.929-2.748,1.322-4.08
						c0.813-2.663,1.69-5.184,2.353-7.542c0.373-1.175,0.711-2.308,1.071-3.386c0.316-1.086,0.616-2.116,0.897-3.085
						c0.589-1.945,1.153-3.656,1.53-5.08c0.815-2.847,1.435-4.518,1.435-4.518s0.526,1.653,1.176,4.623
						c0.369,1.489,0.616,3.297,0.866,5.391c0.132,1.048,0.243,2.166,0.351,3.348c0.066,1.176,0.092,2.412,0.142,3.71
						c0.024,1.294,0.077,2.656,0.012,4.044c-0.047,1.392-0.141,2.829-0.215,4.314c-0.051,1.492-0.285,2.985-0.448,4.533
						c-0.176,1.543-0.384,3.124-0.659,4.709c-0.551,3.172-1.185,6.45-2.069,9.704c-0.797,3.287-1.881,6.529-2.936,9.785
						c-1.182,3.203-2.352,6.417-3.734,9.475c-1.316,3.089-2.779,6.048-4.268,8.871c-0.735,1.416-1.499,2.785-2.276,4.111
						c-0.787,1.321-1.489,2.643-2.304,3.863c-1.571,2.47-3.081,4.783-4.605,6.841c-0.766,1.027-1.476,2.021-2.191,2.943
						c-0.728,0.918-1.417,1.792-2.094,2.591c-1.339,1.608-2.526,2.986-3.572,4.06C444.901,452.988,443.591,454.16,443.591,454.16z"
						/>
				</g>
				<g>
					<path style="fill:#92B5DC;" d="M246.737,306.979c0,0-0.039-0.405-0.113-1.165c-0.047-0.765-0.2-1.841-0.051-3.297
						c0.048-0.72,0.103-1.565,0.228-2.429c0.124-0.855,0.306-1.771,0.486-2.767c0.431-1.945,1.006-4.144,1.819-6.432
						c0.377-1.17,0.852-2.337,1.339-3.545c0.477-1.221,1.037-2.444,1.616-3.689c0.564-1.262,1.214-2.515,1.873-3.787
						c0.643-1.29,1.372-2.56,2.105-3.845c1.449-2.594,3.073-5.174,4.772-7.736c1.7-2.568,3.489-5.103,5.31-7.594
						c1.824-2.482,3.685-4.917,5.487-7.263c0.431-0.553,0.86-1.103,1.287-1.651c0.452-0.604,0.902-1.205,1.349-1.802
						c0.386-0.532,0.77-1.06,1.151-1.584c0.4-0.565,0.797-1.126,1.191-1.682c1.615-2.346,3.176-4.613,4.656-6.763
						c1.541-2.188,3.092-4.276,4.627-6.149c1.525-1.875,3.078-3.529,4.506-4.92c1.463-1.379,2.817-2.491,3.992-3.325
						c1.182-0.831,2.143-1.41,2.839-1.754c0.682-0.345,1.045-0.529,1.045-0.529s-0.176,0.368-0.506,1.058
						c-0.165,0.333-0.369,0.745-0.608,1.228c-0.217,0.498-0.474,1.055-0.76,1.666c-0.546,1.249-1.174,2.753-1.843,4.475
						c-0.649,1.747-1.379,3.675-2.122,5.839c-0.767,2.146-1.582,4.483-2.517,6.989c-0.948,2.496-1.997,5.157-3.3,7.91
						c-0.336,0.694-0.644,1.386-1.018,2.096c-0.392,0.726-0.787,1.457-1.184,2.192c-0.377,0.644-0.756,1.291-1.137,1.942
						c-0.44,0.684-0.882,1.371-1.326,2.061c-1.705,2.619-3.502,5.16-5.329,7.658c-1.831,2.488-3.707,4.924-5.559,7.288
						c-1.862,2.364-3.708,4.659-5.519,6.848c-1.803,2.188-3.546,4.304-5.199,6.31c-0.418,0.498-0.83,0.99-1.236,1.474
						c-0.39,0.489-0.769,0.975-1.167,1.441c-0.393,0.47-0.778,0.932-1.157,1.385c-0.368,0.457-0.708,0.915-1.073,1.35
						c-1.452,1.752-2.693,3.396-3.834,4.867c-0.546,0.739-1.044,1.448-1.547,2.095c-0.481,0.647-0.837,1.243-1.239,1.797
						c-0.799,1.081-1.312,2.107-1.712,2.744C246.952,306.633,246.737,306.979,246.737,306.979z"/>
				</g>
				<g>
					<path style="fill:#92B5DC;" d="M386.558,328.136c0,0-0.088-1.459,0.009-3.923c0.024-1.233,0.176-2.72,0.376-4.43
						c0.193-1.722,0.509-3.613,0.905-5.66c0.387-2.058,0.927-4.228,1.529-6.525c0.632-2.277,1.345-4.665,2.185-7.08
						c1.628-4.862,3.725-9.856,5.993-14.748c2.294-4.875,4.763-9.636,7.309-13.98c1.238-2.183,2.527-4.258,3.744-6.221
						c1.23-1.958,2.456-3.788,3.585-5.476c1.161-1.679,2.248-3.212,3.231-4.569c0.997-1.352,1.907-2.523,2.654-3.491
						c1.505-1.934,2.516-3.006,2.516-3.006s0.07,1.451-0.072,3.931c-0.053,1.248-0.211,2.732-0.431,4.427
						c-0.102,0.851-0.252,1.742-0.392,2.691c-0.159,0.939-0.365,1.912-0.559,2.938c-0.41,2.046-0.949,4.22-1.574,6.502
						c-0.633,2.279-1.376,4.641-2.213,7.061c-1.655,4.837-3.748,9.832-6.028,14.708c-1.139,2.432-2.347,4.839-3.558,7.178
						c-1.227,2.339-2.457,4.619-3.729,6.788c-1.242,2.183-2.495,4.262-3.716,6.226c-1.201,1.965-2.431,3.796-3.535,5.492
						c-1.134,1.691-2.216,3.228-3.168,4.581c-0.967,1.356-1.869,2.529-2.601,3.529C387.544,327.056,386.558,328.136,386.558,328.136
						z"/>
				</g>
				<g>
					<path style="fill:#92B5DC;" d="M543.858,354.813c0,0-0.166-1.741-0.199-4.725c-0.045-2.985,0.05-7.215,0.378-12.208
						c0.164-2.496,0.391-5.184,0.653-8.008c0.281-2.822,0.589-5.784,0.949-8.824c0.336-3.046,0.744-6.169,1.136-9.328
						c0.4-3.145,0.806-6.34,1.212-9.535c0.411-3.182,0.773-6.351,1.135-9.466c0.167-1.556,0.332-3.099,0.495-4.624
						c0.132-1.535,0.275-2.994,0.44-4.541c0.267-3.108,0.642-6.11,0.962-8.852c0.335-2.759,0.633-5.323,0.831-7.688
						c0.21-2.364,0.286-4.523,0.287-6.465c0.023-1.949-0.132-3.646-0.254-5.089c-0.169-1.422-0.314-2.585-0.469-3.365
						c-0.13-0.802-0.199-1.23-0.199-1.23s0.304,0.31,0.874,0.891c0.582,0.585,1.345,1.51,2.237,2.779
						c0.859,1.277,1.854,2.912,2.711,4.91c0.875,1.99,1.683,4.33,2.317,6.909c0.626,2.578,1.101,5.39,1.451,8.315
						c0.341,2.942,0.581,5.934,0.778,9.026c0.107,1.553,0.152,3.245,0.206,4.9c-0.003,1.659-0.009,3.344-0.064,5.036
						c-0.142,3.376-0.414,6.793-0.844,10.172c-0.431,3.38-0.987,6.733-1.664,9.993c-0.327,1.634-0.691,3.244-1.078,4.824
						c-0.382,1.584-0.784,3.139-1.226,4.655c-0.831,3.045-1.762,5.949-2.703,8.679c-0.939,2.732-1.922,5.28-2.871,7.619
						c-1.909,4.674-3.766,8.478-5.157,11.122C544.798,353.338,543.858,354.813,543.858,354.813z"/>
				</g>
				<g>
					<path style="fill:#92B5DC;" d="M347.924,230.629c0,0-0.176-0.268-0.507-0.771c-0.305-0.494-0.678-1.427-0.924-2.591
						c-0.219-1.17-0.301-2.657-0.12-4.319c0.184-1.656,0.626-3.468,1.29-5.343c0.672-1.872,1.57-3.802,2.664-5.724
						c1.101-1.915,2.375-3.841,3.816-5.707c2.877-3.741,6.372-7.265,10.183-10.41c1.921-1.567,3.897-3.033,6.032-4.404
						c1.947-1.238,3.966-2.405,5.843-3.449c1.89-1.059,3.735-2.006,5.445-2.928c1.716-0.912,3.348-1.759,4.838-2.574
						c1.494-0.809,2.875-1.571,4.093-2.287c1.232-0.705,2.302-1.367,3.201-1.928c0.455-0.285,0.861-0.539,1.215-0.76
						c0.354-0.232,0.655-0.43,0.899-0.59c0.513-0.318,0.787-0.488,0.787-0.488s-0.044,0.318-0.16,0.909
						c-0.109,0.597-0.307,1.46-0.669,2.52c-0.347,1.07-0.861,2.34-1.572,3.734c-0.703,1.404-1.627,2.906-2.733,4.472
						c-1.114,1.556-2.428,3.137-3.886,4.715c-1.47,1.562-3.068,3.116-4.761,4.613c-1.708,1.509-3.427,2.934-5.251,4.367
						c-1.675,1.362-3.377,2.745-5.079,4.129c-3.429,2.821-6.858,5.643-10.073,8.288c-3.195,2.64-6.094,5.141-8.426,7.402
						c-1.167,1.13-2.187,2.211-3.027,3.227c-0.834,1.016-1.471,1.973-1.967,2.838c-0.442,0.882-0.758,1.57-0.915,2.165
						C348.005,230.318,347.924,230.629,347.924,230.629z"/>
				</g>
				<g>
					<path style="fill:#92B5DC;" d="M478.546,245.347c0,0-0.102-0.213-0.247-0.602c-0.07-0.194-0.157-0.433-0.259-0.714
						c-0.116-0.279-0.21-0.602-0.276-0.99c-0.086-0.386-0.148-0.816-0.215-1.302c-0.066-0.47-0.081-0.949-0.119-1.489
						c-0.048-1.058-0.009-2.252,0.128-3.494c0.141-1.252,0.36-2.575,0.674-3.898c0.31-1.338,0.699-2.675,1.132-4.004
						c0.436-1.329,0.903-2.632,1.399-3.895c0.465-1.197,0.937-2.413,1.41-3.629c0.254-0.58,0.426-1.135,0.651-1.68
						c0.12-0.278,0.187-0.538,0.289-0.799l0.144-0.392l0.073-0.196l0.039-0.097c-0.015,0.072,0.041-0.178-0.032,0.158l0.005-0.017
						l0.01-0.033l0.02-0.066l0.316-1.05l0.217-0.644c0.156-0.514,0.323-1.1,0.48-1.687c0.346-1.279,0.68-2.514,0.997-3.686
						c0.348-1.261,0.766-2.504,1.199-3.672c0.457-1.17,0.945-2.246,1.478-3.177c0.526-0.928,1.069-1.708,1.578-2.306
						c0.484-0.606,0.974-1.023,1.283-1.304c0.316-0.278,0.505-0.41,0.505-0.41s0.088,0.226,0.213,0.618
						c0.061,0.191,0.137,0.427,0.226,0.705c0.109,0.277,0.219,0.587,0.332,0.921c0.475,1.358,1.174,3.106,1.916,5.221
						c0.726,2.126,1.521,4.661,1.795,7.873c0.074,0.804,0.09,1.628,0.073,2.537c-0.035,0.496-0.069,0.995-0.104,1.496
						c-0.04,0.362-0.08,0.726-0.12,1.092l-0.008,0.068l-0.004,0.034l-0.002,0.017l-0.041,0.192l-0.033,0.168l-0.07,0.335
						l-0.143,0.673c-0.095,0.448-0.194,0.91-0.33,1.328c-0.247,0.858-0.528,1.72-0.848,2.513c-0.629,1.633-1.398,3.09-2.199,4.474
						c-0.808,1.357-1.675,2.608-2.554,3.736c-0.877,1.132-1.774,2.163-2.639,3.094c-0.869,0.941-1.743,1.774-2.529,2.55
						c-0.826,0.771-1.584,1.477-2.255,2.104c-0.703,0.64-1.316,1.198-1.82,1.658c-0.533,0.465-0.966,0.952-1.257,1.226
						C478.729,245.197,478.546,245.347,478.546,245.347z"/>
				</g>
			</g>
			<path style="fill:#C1DAE8;" d="M533.739,420.124c-64.392,60.712-87.648,99.494-105.456,207.966l122.071,18.844
				c0,0-8.21-199.732,114.071-247.766C664.425,399.168,598.131,359.412,533.739,420.124z"/>
		</g>
	</g>
</g>
<g id="Layer_1">
</g>
</svg>
