<?xml version="1.0" encoding="iso-8859-1"?>
<!-- Generator: Adobe Illustrator 20.0.0, SVG Export Plug-In . SVG Version: 6.00 Build 0)  -->
<svg version="1.1" xmlns="http://www.w3.org/2000/svg" xmlns:xlink="http://www.w3.org/1999/xlink" x="0px" y="0px"
	 viewBox="0 0 828.669 828.669" style="enable-background:new 0 0 828.669 828.669;" xml:space="preserve">
<g id="Lake_House">
	<g>
		<g>
			<defs>
				
					<ellipse id="SVGID_1_" transform="matrix(0.9999 -0.0129 0.0129 0.9999 -5.2924 5.3609)" cx="414.335" cy="414.335" rx="414.334" ry="414.334"/>
			</defs>
			<use xlink:href="#SVGID_1_"  style="overflow:visible;fill:#B7DDF3;"/>
			<clipPath id="SVGID_2_">
				<use xlink:href="#SVGID_1_"  style="overflow:visible;"/>
			</clipPath>
		</g>
		<g>
			<path style="fill:#77881C;" d="M445.259,255.039c-5.121-9.649-15.295-12.239-25.388-12.536c3.879-6.45,5.932-14.007,5.595-21.547
				c-0.265-5.929-1.848-11.865-6.939-15.436c-4.312-3.024-10.117-3.401-15.214-3.293c-20.539,0.436-41.864,12.558-50.612,31.581
				c-4.635,10.079-5.046,22.838,2.259,31.552c-4.133,6.339-5.713,14.068-4.119,21.608c1.697,8.022,7.338,15.185,14.598,18.923
				c1.243,0.64,2.683,0.691,3.889,0.167c6.304,0.469,12.54-3.159,18.142-5.531c6.572-2.783,13.144-5.565,19.715-8.348
				c3.017-1.277,6.045-2.768,9.239-3.55c2.976-0.729,6.064-0.167,9.073,0.038c5.112,0.349,10.433,0.038,15.168-2.059
				c5.429-2.404,8.394-7.477,8.521-13.341C449.317,267.187,448.124,260.438,445.259,255.039z M368.227,285.261
				c0.309-0.17,0.594-0.288,0.731-0.33c0.098-0.03,0.7-0.151,0.643-0.149c0.189-0.024,0.556-0.07,0.148-0.009
				c0.136-0.021,0.261,0.007,0.383,0.061c-0.77,0.324-1.424,0.879-1.822,1.682c-0.083-0.007-0.166-0.013-0.248-0.015
				C368.113,286.087,368.167,285.674,368.227,285.261z M416.081,270.761c-0.035,0.272-0.061,0.541-0.078,0.808
				c-0.208-0.249-0.449-0.471-0.717-0.663C415.555,270.879,415.821,270.832,416.081,270.761z M380.791,293.743
				c0.193,0.129,0.389,0.253,0.591,0.366c-0.618,0.261-1.237,0.519-1.858,0.772C379.963,294.52,380.384,294.139,380.791,293.743z"/>
			<g>
				<path style="fill:#7F5B00;" d="M316.842,364.655c-6.684-25.243-9.343-51.368-7.951-77.442c0.122-2.282-2.03-4.226-4.226-4.226
					c-2.39,0-4.104,1.938-4.226,4.226c-1.43,26.779,1.388,53.767,8.253,79.689C310.082,372.156,318.238,369.928,316.842,364.655z"/>
				<path style="fill:#77881C;" d="M332.813,213.157c-2.229-6.656-7.856-11.38-14.773-12.593c-7.454-1.307-14.74,1.021-21.255,4.565
					c-5.822,3.166-11.215,7.679-13.512,14.08c-1.714,4.776-1.194,10.769,1.841,14.954c-0.6,0.555-1.055,1.267-1.259,2.007
					c-0.417,1.516,0.077,2.885,1.037,3.951c-2.268,2.416-4.499,4.976-6.079,7.897c-3.24,5.988-3.781,12.944-2.341,19.53
					c3.205,14.661,15.74,24.171,28.478,30.561c0.403,0.327,0.807,0.652,1.21,0.976c1.946,1.563,5.331,1.823,6.638-0.855
					c4.866-9.97,14.018-17.046,17.995-27.563c2.882-7.62,1.806-17.785-4.441-23.318c2.883-4.186,5.062-8.827,6.345-13.782
					C334.359,227.145,334.951,219.544,332.813,213.157z"/>
			</g>
			<g>
				<path style="fill:#A07800;" d="M588.123,408.51c-1.43-32.018-3.473-64-6.126-95.916c-1.495-17.985-3.187-35.948-5.068-53.886
					c-0.281-2.684-1.819-5.005-4.396-5.005c-2.157,0-4.679,2.303-4.396,5.005c3.337,31.833,6.074,63.748,8.193,95.716
					c2.12,31.968,3.628,63.989,4.523,96.032c0.504,18.056,0.811,36.119,0.928,54.183c0.042,6.438,8.833,6.453,8.791,0
					C590.366,472.58,589.554,440.528,588.123,408.51z"/>
				<path style="fill:#77881C;" d="M615.173,173.19c-1.136-6.649-3.709-13.206-7.002-19.069c-0.852-1.517-1.778-3.008-2.767-4.465
					c0.785-1.023,1.494-2.098,2.11-3.217c2.354-4.278,3.628-9.155,3.6-14.046c-0.031-5.298-1.466-10.014-3.64-14.767
					c-1.839-4.02-4.639-7.665-8.128-10.36c-4.969-3.839-12.012-5.16-17.961-2.808c-3.36,1.329-5.863,2.747-8.595,5.163
					c-1.478,1.307-2.714,2.902-3.858,4.52c-0.794,0.398-1.587,0.795-2.381,1.193c-4.754,2.382-9.546,4.732-14.011,7.635
					c-6.021,3.914-11.063,8.434-15.377,14.147c-1.432,1.897-2.603,3.92-3.548,6.1c-1.318,3.04-2.558,5.998-3.077,9.281
					c-0.545,3.447-0.748,6.948-0.448,10.378c-7.808,6.008-13.438,14.823-15.916,24.461c-3.866,15.036-0.625,33.57,12.075,43.649
					c0.778,0.617,1.556,1.207,2.342,1.768c-2.847,4.485-5.124,9.29-6.371,14.556c-1.617,6.828-1.941,14.606,0.521,21.289
					c1.128,3.062,2.399,5.991,4.368,8.591c2.626,3.467,5.07,5.867,8.526,8.498c4.178,3.181,9.39,5.422,14.525,6.478
					c3.137,0.645,6.43,1.101,9.647,1.079c3.608-0.024,7.481-0.427,10.912-1.613c7.571-2.616,13.251-7.499,17.543-14.203
					c3.266-5.101,5.528-11.042,7.345-16.794c3.414-10.809,4.427-22.018,3.598-33.192c3.308-3.471,6.203-7.39,8.581-11.483
					c3.412-5.872,6.049-12.493,7.282-19.189C616.547,188.732,616.547,181.23,615.173,173.19z"/>
			</g>
			<g>
				<polygon style="fill:#F4D19F;" points="280.691,427.89 280.691,364.324 405.794,260.184 529.545,336.598 534.279,411.66 				"/>
				<polygon style="fill:#E5C39A;" points="233.017,438.71 244.851,562.461 571.472,545.555 558.623,410.308 				"/>
				<polyline style="fill:none;stroke:#B63344;stroke-width:18;stroke-miterlimit:10;" points="254.318,382.582 405.794,260.184 
					558.623,353.504 				"/>
				<path style="fill:#FFFFFF;" d="M374.688,298.729c0,0,2.271,30.431,3.502,29.754s55.33-4.057,55.33-4.057v-28.402l-32.546,1.496
					L374.688,298.729z"/>
				
					<line style="fill:none;stroke:#B63344;stroke-width:18;stroke-miterlimit:10;" x1="404.104" y1="329.835" x2="400.974" y2="297.521"/>
				<polygon style="fill:#FFFFFF;" points="301.784,426.54 298.949,376.496 355.753,376.496 358.486,422.911 				"/>
				
					<line style="fill:none;stroke:#B63344;stroke-width:18;stroke-miterlimit:10;" x1="319.913" y1="373.792" x2="324.009" y2="425.118"/>
				
					<line style="fill:none;stroke:#B63344;stroke-width:18;stroke-miterlimit:10;" x1="337.495" y1="373.792" x2="341.018" y2="424.029"/>
				<polygon style="fill:#FFFFFF;" points="395.069,420.57 392.27,376.496 417.967,373.115 423.441,418.754 				"/>
				<polygon style="fill:#FFFFFF;" points="455.224,416.72 455.224,368.381 512.639,362.971 512.639,413.045 				"/>
				
					<line style="fill:none;stroke:#B63344;stroke-width:18;stroke-miterlimit:10;" x1="473.418" y1="364.662" x2="476.861" y2="415.335"/>
				
					<line style="fill:none;stroke:#B63344;stroke-width:18;stroke-miterlimit:10;" x1="493.705" y1="362.296" x2="497.911" y2="413.988"/>
				<polyline style="fill:#B63344;" points="220.506,446.148 220.506,430.595 573.501,401.518 576.205,420.57 				"/>
				<polygon style="fill:#AE6756;" points="233.355,440.738 244.851,562.461 254.318,562.461 243.836,440.738 				"/>
				<polygon style="fill:#AE6756;" points="313.827,436.681 321.961,551.641 334.114,551.641 324.009,436.681 				"/>
				<polygon style="fill:#AE6756;" points="466.656,426.54 473.418,545.555 483.932,545.555 476.861,425.118 				"/>
				<polygon style="fill:#AE6756;" points="558.623,416.72 564.033,545.555 576.205,545.555 567.414,416.72 				"/>
				<polygon style="fill:#FFFFFF;" points="254.318,463.054 257.023,486.384 280.691,486.384 280.691,463.054 				"/>
				<polygon style="fill:#FFFFFF;" points="399.37,549.951 392.27,481.137 433.52,477.255 443.664,545.555 				"/>
				<rect x="490.324" y="453.587" style="fill:#FFFFFF;" width="22.316" height="27.55"/>
				<rect x="532.25" y="453.587" style="fill:#FFFFFF;" width="18.258" height="27.55"/>
				<path style="fill:#FFFFFF;" d="M328.717,490.249c-0.152-1.724-2.39-27.195-2.39-27.195h12.929v27.195H328.717z"/>
			</g>
			<g>
				<path style="fill:#77881C;" d="M215.316,316.664c-1.678-3.901-4.256-7.496-7.535-10.225c6.424-6.973,9.095-17.015,7.115-26.444
					c-2.508-11.942-13.128-19.795-24.878-21.096c-4.371-0.484-8.913,0.059-13.054,1.615c-0.879-1.937-2.151-3.704-3.705-5.158
					c-3.561-3.331-8.129-4.922-12.95-5.194c-9.022-0.509-18.427,3.506-25.999,8.076c-7.375,4.452-14.437,10.204-19.893,16.898
					c-6.101,7.485-9.728,16.128-9.956,25.862c-0.23,9.792,2.524,19.375,5.583,28.614c-11.659,9.475-20.275,22.341-24.432,36.85
					c-4.602,16.064-3.104,33.201,3.501,48.475c0.902,2.085,1.909,4.125,3.007,6.114c0.967,2.372,2.033,4.708,3.201,6.999
					c2.04,4,4.456,7.864,7.168,11.513c0.107,4.66,1.883,8.992,5.136,12.6c2.675,2.967,6.356,5.137,10.291,5.962
					c0.493,8.836,6.721,16.738,15.319,19.636c10.725,3.616,22.809-1.056,30.097-9.226c3.65-4.092,6.327-8.869,8.231-13.976
					c9.071-3.617,13.796-13.181,16.142-22.288c1.513-5.871,2.301-11.972,2.985-17.986c0.744-6.54,1.089-13.142,0.742-19.721
					c-0.337-6.376-1.29-12.739-3.075-18.871c9.073-5.355,16.788-13.026,22.177-22.077
					C217.082,342.618,220.565,328.867,215.316,316.664z"/>
				<path style="fill:#A07800;" d="M170.467,451.032c-0.966-8.3-2.326-16.546-4.123-24.706c-0.511-2.319-3.204-3.676-5.407-3.07
					c-2.392,0.657-3.582,3.081-3.07,5.407c3.038,13.796,4.806,27.817,5.259,41.938c0.463,14.43-0.98,28.7-1.788,43.084
					c-0.456,8.122-0.548,16.27,0.383,24.363c0.271,2.358,1.826,4.396,4.396,4.396c2.165,0,4.668-2.022,4.396-4.396
					c-1.668-14.499,0.016-29.033,0.957-43.518C172.41,480.021,172.148,465.479,170.467,451.032z"/>
			</g>
			<g>
				<path style="fill:#BCB21F;" d="M155.831,286.346c3.648-9.953,0.796-20.921-3.459-30.179c-3.827-8.328-9.187-16.651-16.457-22.37
					c-3.925-3.087-8.306-5.508-13.184-6.715c-5.05-1.25-10.209-1.245-15.322-0.435c-20.428,3.236-34.698,20.978-45.665,37.031
					c-11.345,16.608-20.058,35.075-25.794,54.349c-2.804,9.422-5.111,19.187-6.154,28.976c-0.864,8.111-0.131,17.137,5.325,23.612
					c0.913,1.084,2.005,2.039,3.18,2.858c-0.914,8.354,1.354,16.911,6.558,23.618c4.92,6.342,12.101,10.528,19.906,11.974
					c0.206,6.713,3.943,13.238,9.902,16.592c4.44,2.499,9.381,2.521,14.329,2.257c4.88-0.26,9.834-0.585,14.592-1.771
					c17.697-4.411,27.854-23.362,28.245-40.637c0.166-7.32-1.592-14.565-5.414-20.701c7.263-3.824,13.369-9.734,17.267-17.032
					c5.064-9.481,6.08-20.75,2.887-31.016c-1.342-4.315-3.363-8.35-5.983-11.989C147.016,299.793,152.949,294.208,155.831,286.346z"
					/>
				<path style="fill:#A07800;" d="M139.831,328.277c-2.232-1.339-4.603-0.35-6.014,1.617
					c-11.144,15.537-20.176,32.605-26.922,50.601c-1.393-9.879-3.221-19.677-5.656-29.319c-3.956-15.669-9.709-30.949-17.82-44.865
					c-2.9-4.976-10.504-0.447-7.591,4.551c13.955,23.942,20.248,51.597,23.363,79.065c0.418,3.687,0.795,7.381,1.138,11.08
					c-0.282,1.06-0.56,2.122-0.827,3.187c-0.501,1.999,0.25,3.588,1.487,4.556c1.937,24.565,2.323,49.323,1.738,73.907
					c-0.429,18.022-1.499,36.023-3.186,53.967c-0.228,2.427,2.184,4.508,4.396,4.508c2.567,0,4.167-2.074,4.396-4.508
					c3.033-32.254,4.049-64.699,3.002-97.086c-0.406-12.556-0.982-25.21-2.065-37.816c5.082-18.426,12.585-36.057,22.36-52.395
					c3.052-5.102,6.32-10.062,9.778-14.883C142.816,332.482,141.728,329.414,139.831,328.277z"/>
			</g>
			<g>
				<path style="fill:#A07800;" d="M619.567,403.327c-0.17,34.536-0.341,69.072-0.511,103.608
					c-0.048,9.763-0.096,19.527-0.145,29.29c-0.036,7.34,6.12,7.346,6.157,0c0.17-34.536,0.341-69.072,0.511-103.608
					c0.048-9.763,0.096-19.527,0.145-29.29C625.76,395.987,619.604,395.981,619.567,403.327z"/>
				<path style="fill:#77881C;" d="M673.893,335.705c-1.448-6.837-5.189-14.045-10.631-18.559c-3.552-2.946-6.906-5.05-11.338-6.481
					c-0.906-0.292-1.818-0.516-2.734-0.685c0.936-0.529,1.889-1.03,2.862-1.496c2.912-1.393,5.387-5.073,6.216-8.083
					c0.891-3.237,0.489-7.548-1.364-10.422c-1.862-2.888-4.634-5.43-8.083-6.215c-3.713-0.846-6.988-0.28-10.422,1.363
					c-17.905,8.568-30.893,27.097-33.997,46.782c-1.135,0.389-2.25,0.834-3.336,1.326c-5.202,2.355-9.815,6.887-12.638,11.815
					c-6.764,11.808-3.694,26.259,5.527,35.784c1.437,1.484,3.055,2.868,4.797,4.107c-0.043,0.255-0.089,0.509-0.128,0.764
					c-1.049,6.896-1.839,13.89,1.979,20.2c2.869,4.742,7.915,8.275,13.36,9.365c0.496,0.839,1.047,1.653,1.655,2.44
					c2.696,3.49,6.348,6.084,10.676,7.168c5.536,1.387,11.209,0.234,16.212-2.306c6.065-3.08,10.98-8.983,14.226-14.85
					c3.495-6.316,5.189-12.809,6.029-19.907c0.327-2.762,0.336-5.561,0.014-8.324c-0.028-0.241-0.058-0.479-0.087-0.719
					c6.157-5.43,10.177-13.593,11.479-21.46C675.376,350.03,675.432,342.969,673.893,335.705z"/>
			</g>
			<g>
				<path style="fill:#BCB21F;" d="M773.266,275.114c-0.716-4.034-2.23-7.837-3.964-11.537c-0.691-1.476-1.5-2.896-2.422-4.241
					c-0.058-0.085-0.119-0.168-0.178-0.252c0.39-1.004,0.741-2.022,1.016-3.065c0.831-3.152,1.249-6.491,1.346-9.748
					c0.159-5.309-0.755-10.797-2.196-15.899c-2.663-9.428-7.189-18.627-12.351-26.936c-5.061-8.147-11.036-16.201-18.012-22.819
					c-7.821-7.42-18.058-12.494-28.844-11.151c-0.582-1.086-1.322-2.085-2.25-2.936c-2.777-2.549-5.811-3.621-9.564-3.961
					c-11.429-1.036-23.569,3.781-31.565,11.919c-4.46,4.539-7.543,9.976-9.637,15.946c-0.199,0.566-0.369,1.134-0.522,1.705
					c-2.691,0.709-5.263,1.841-7.56,3.385c-4.133,2.779-7.266,6.128-10.007,10.285c-2.12,3.216-3.555,6.873-5.004,10.418
					c-5.248,12.831-8.96,28.035-3.718,41.492c0.806,2.07,1.742,4.099,2.821,6.042c-6.242,6.28-10.892,14.26-13.266,22.589
					c-3.914,13.732-1.368,29.444,6.824,41.175c1.631,2.335,3.413,4.568,5.347,6.652c-0.893,1.38-1.703,2.816-2.403,4.318
					c-1.704,3.657-3.188,7.35-3.783,11.35c-0.775,5.207-0.786,9.506,0.073,14.721c1.234,7.493,5.271,14.853,10.614,20.209
					c5.475,5.487,12.273,8.649,19.714,9.906c-0.063,0.253-0.131,0.504-0.193,0.757c-2.337,9.476-3.049,20.505,3.12,28.786
					c3.538,4.749,7.957,8.613,13.894,10.019c5.743,1.361,11.957,0.477,17.025-2.588c7.764-4.695,12.337-12.984,14.804-21.466
					c1.395-4.793,2.312-9.802,2.713-14.846c1.968-0.182,3.936-0.463,5.91-0.876c6.695-1.4,13.211-5.076,17.895-10.063
					c8.91-9.487,12.32-22.077,13.813-34.666c0.473-3.985,0.537-8.144,0.086-12.228c8.505-5.636,16.008-12.69,21.822-21.152
					C772.954,304.295,775.808,289.431,773.266,275.114z"/>
				<path style="fill:#A07800;" d="M694.399,327.701c-1.969-1.236-4.922-0.58-6.014,1.692
					c-11.892,24.747-19.725,51.465-24.635,78.754c-4.973,27.635-7.193,55.763-8.366,83.851c-0.659,15.789-0.988,31.59-1.287,47.39
					c-0.115,6.072,8.676,6.071,8.791,0c0.523-27.672,1.133-55.373,3.465-82.951c2.29-27.076,6.328-54.077,13.761-80.113
					c4.148-14.528,9.369-28.661,15.861-42.17C697.063,331.89,696.523,329.034,694.399,327.701z"/>
			</g>
			<path style="fill:#C4D600;" d="M787.867,522.251c-0.705-3.853-2.033-7.923-4.966-10.68c-6.868-6.455-17.924-3.044-24.47,2.211
				c-5.293,4.249-6.193,10.5-5.373,16.677c-1.897,0.114-3.781,0.471-5.582,1.062c-1.594-1.794-3.737-3.136-6.149-3.844
				c-1.223-0.359-2.442-0.517-3.653-0.524c0.142-2.931-0.449-5.885-1.817-8.667c-0.97-1.972-2.411-3.725-4.129-5.157
				c3.24-5.388,3.835-12.208,1.048-18.198c-2.65-5.696-8.466-9.459-14.625-10.341c-0.511-3.148-2.144-6.213-4.432-8.544
				c-4.611-4.697-11.269-6.513-17.672-5.549c-5.951,0.896-12.193,4.525-15.205,9.868c-2.341,4.155-2.123,8.394-0.671,12.396
				c-3.92,1.614-7.146,4.744-8.238,9.092c-0.98,3.901,0.013,7.942,2.268,11.029c-1.131,1.797-1.838,3.876-1.975,5.994
				c-0.101,1.568,0.112,3.085,0.568,4.524c-3.451,1.169-6.544,3.301-8.749,6.418c-1.579,2.233-2.501,4.91-2.75,7.649
				c-3.472-0.543-7.006-0.3-10.427,1.225c-2.66,1.186-4.92,3.125-6.5,5.484c-0.418-0.11-0.842-0.206-1.275-0.271
				c-2.575-0.389-5.004-0.082-7.342,0.626c-0.49-0.445-1.01-0.865-1.545-1.275c-0.91-1.373-2.02-2.622-3.324-3.691
				c-0.342-0.281-0.69-0.542-1.039-0.794c-0.891-2.433-1.88-4.822-3.38-6.918c-1.075-1.501-2.206-2.928-3.466-4.218
				c-1.1-2.186-2.71-4.151-4.275-5.966c-2.532-2.938-5.531-5.501-8.947-7.171c-0.546-1.131-1.123-2.188-1.772-3.233
				c-0.501-3.446-2.046-6.766-4.346-9.335c-4.325-4.832-11.565-6.556-17.728-4.863c-6.192,1.701-11,6.87-12.757,12.979
				c-0.71,2.47-0.884,5.201-0.487,7.837c-3.546,0.492-6.943,1.793-9.874,4.119c-1.53,1.214-2.844,2.72-3.879,4.402
				c-4.121-1.608-9.008-1.637-13.071,0.035c-4.411,1.814-8.322,5.015-9.724,9.751c-0.364,1.229-0.517,2.459-0.482,3.66
				c-1.444-0.221-2.915-0.272-4.378-0.155c-1.174-3.066-3.404-5.72-6.431-7.303c-1.937-1.013-3.961-1.527-5.984-1.624
				c0.001-0.544-0.028-1.088-0.089-1.631c-0.471-4.166-2.328-7.964-5.431-10.827c-3.855-3.557-8.496-5.221-13.39-5.981
				c-0.319-0.728-0.681-1.438-1.079-2.128c0.57-4.878-0.937-9.93-4.891-13.414c-3.598-3.17-8.082-4.513-12.813-3.627
				c-1.398,0.262-2.775,0.775-4.059,1.481c-2.117-1.807-4.861-2.961-7.871-3.323c-5.35-0.643-10.893,1.46-15.08,4.694
				c-6.333,4.893-9.394,12.475-8.832,20.022c-0.606,0.031-1.214,0.083-1.819,0.152c-4.996,0.575-9.951,1.87-14.249,4.573
				c-5.088,3.199-9.129,8.464-10.632,14.291c-5.687-2.375-11.951-3.272-18.078-2.428c-1.061-6.329-3.676-12.444-9.782-15.39
				c-6.129-2.957-13.061-1.832-17.841,2.167c-1.18-0.875-2.518-1.595-3.999-2.129c-5.1-1.837-10.559-0.393-14.735,2.834
				c-6.535,5.049-9.502,13.531-9.308,21.755c-4.136-0.306-8.258,0.379-12.113,2.015c-2.404-4.071-5.889-7.453-10.579-8.796
				c-1.961-0.561-4.108-0.692-6.211-0.412c0.403-6.65-1.253-13.335-6.189-18.226c-4.012-3.976-9.781-5.733-15.099-4.791
				c-0.585-0.066-1.15-0.095-1.671-0.071c-0.08,0.004-0.158,0.01-0.238,0.014c-1.366-1.339-3.119-2.302-5.143-2.642
				c-5.158-0.866-10.324,1.502-13.562,5.527c-4.553,5.661-5.132,12.832-2.317,18.755c-5.081,0.922-9.888,3.246-13.851,6.612
				c-3.943,3.35-6.684,7.784-8.245,12.628c-6.798-1.456-13.881-0.348-19.966,3.12c-2.559-1.53-5.633-2.292-8.539-2.187
				c-1.679,0.061-3.26,0.362-4.738,0.874c-0.289-0.281-0.585-0.553-0.89-0.814c-4.515-5.961-12.746-8.999-20.192-8.782
				c-6.366,0.185-12.705,2.252-17.992,5.834c-1.938-3.809-5.034-7.035-8.861-8.797c-3.751-1.727-7.837-2.248-11.744-1.64
				c-0.113-0.212-0.23-0.424-0.352-0.635c-0.499-0.865-1.039-1.657-1.618-2.397c-0.087-1.784-0.328-3.566-0.765-5.369
				c-0.923-3.805-2.605-8.152-6.002-10.396c-3.329-2.2-7.675-1.716-11.272-0.453c-2.34,0.822-4.536,1.971-6.506,3.438
				c-5.922-2.15-12.991-0.442-17.253,4.359c-3.191,3.594-4.711,7.832-5.414,12.303c-1.424-0.446-2.928-0.744-4.512-0.882
				c-1.773-0.155-3.562-0.022-5.298,0.357c-0.614-3.153-1.95-6.084-4.558-8.307c-3.492-2.977-7.433-3.423-11.354-2.635
				c-0.909-5.247-3.167-10.171-7.789-13.274c-3.718-2.496-8.366-3.112-12.42-1.865c-3.103-3.825-8.139-5.967-13.472-5.805
				c-6.237,0.19-13.829,3.946-14.808,10.564c-11.731,14.961-11.64,35.505-5.817,53.001c1.742,5.233,3.922,10.326,6.272,15.313
				c2.03,4.308,3.978,8.968,6.717,12.883c1.544,2.207,3.377,4.265,5.782,5.559c2.632,1.418,5.525,1.95,8.487,2.094
				c5.457,0.265,11.009-0.105,16.467-0.289c22.239-0.747,44.424-2.551,66.59-4.427c22.151-1.874,44.303-3.827,66.512-4.875
				c22.223-1.048,44.522-1.182,66.712,0.596c2.751,0.22,5.499,0.472,8.245,0.75c1.864,0.189,3.672-1.048,4.655-2.69
				c62.591-2.595,125.213-4.414,187.849-5.439c64.539-1.056,129.092-1.277,193.637-0.662c36.41,0.347,72.818,0.962,109.219,1.839
				c4.792,0.115,6.285-4.97,4.484-8.209c2.42-7.208,4.462-14.539,6.085-21.968c1.917-8.774,3.515-17.782,3.711-26.78
				C789.059,531.384,788.695,526.779,787.867,522.251z M709.853,580.849c0.813-0.081,1.625-0.161,2.438-0.244
				c1.439-0.147,2.878-0.298,4.316-0.45c0.82,0.099,1.639,0.204,2.458,0.308c1.238,0.182,2.474,0.382,3.707,0.596
				C718.465,580.985,714.159,580.915,709.853,580.849z"/>
			<path style="fill:#92B5DC;" d="M785.552,598.565l3.423-17.507l-748.77,11.535C107.663,733.946,252.77,830.78,419.661,828.635
				C580.399,826.568,718.579,733.238,785.552,598.565z"/>
		</g>
	</g>
</g>
<g id="Layer_1">
</g>
</svg>
