<?xml version="1.0" encoding="iso-8859-1"?>
<!-- Generator: Adobe Illustrator 19.2.1, SVG Export Plug-In . SVG Version: 6.00 Build 0)  -->
<svg version="1.1" xmlns="http://www.w3.org/2000/svg" xmlns:xlink="http://www.w3.org/1999/xlink" x="0px" y="0px"
	 viewBox="0 0 965 965" style="enable-background:new 0 0 965 965;" xml:space="preserve">
<g id="Massage">
	<g>
		<path style="fill:#B8D7F4;" d="M965,485.211c0,241.617-167.741,411.307-366.082,463.142
			c-75.523,19.745-155.48,22.396-232.294,5.425C264.796,931.29,168.483,874.317,95.313,776.964
			c-27.817-37.013-49.117-75.786-64.442-115.43c-97.524-252.14,46.275-539.286,287.247-631.409c5.976-2.293,12.022-4.463,18.117-6.5
			c16.286-5.466,32.982-10.031,50.038-13.655C443.538-2.2,504.957-3.684,568.949,8.046c1.802,0.328,3.593,0.665,5.385,1.024
			c15.655,3.05,31.03,6.889,46.084,11.464c10.48,3.183,20.8,6.725,30.96,10.604c7.017,2.672,13.943,5.507,20.8,8.506
			c2.372,1.044,4.745,2.109,7.107,3.183c10.8,4.934,21.391,10.267,31.74,15.968h0.01c15.625,8.598,30.71,18.046,45.224,28.282
			c70.578,49.715,127.373,117.804,163.808,196.232c17.417,37.494,30.169,77.352,37.556,118.695
			c3.984,22.314,6.396,45.069,7.127,68.12C964.92,475.139,965,480.165,965,485.211z"/>
		<path style="fill:#EDEDED;" d="M965,485.211c0,241.617-167.741,411.307-366.082,463.142
			c-75.523,19.745-155.48,22.396-232.294,5.425C264.796,931.29,168.483,874.317,95.313,776.964
			c-27.817-37.013-49.117-75.786-64.442-115.43l99.636-27.913h0.01l25.765-7.216c0,0,0.01,0.01,0.01,0l0.38-0.102l77.014-21.567
			l13.153-3.685l2.042-0.573l3.633-1.013l30.97-8.67l18.348-5.149h0.01l2.122-0.594l26.906-7.534l41.6-11.648h0.01l4.524-1.269
			l20.279-5.681l29.028-8.127l16.236-4.545l6.736-1.893l3.043-0.85l101.928-28.548h0.01l9.669-2.702l7.998-2.242l7.898-2.211
			l10.73-3.01l8.328-2.324l10.961-3.071h0.01l4.524-1.269l12.072-3.388l63.992-17.913l56.875-15.927l3.613-1.013l8.858-2.477
			l197.831-55.407c3.984,22.314,6.396,45.069,7.127,68.12C964.92,475.139,965,480.165,965,485.211z"/>
		<g>
			<path style="fill:#FACCA9;" d="M443.755,473.727c0,0,10.394-20.439,70.356-32.703c59.963-12.264,178.576-28.427,210.812-49.369
				l63.417,119.589l-192.957,67.95l-100.538,2.666c-32.525,0.862-64.767-6.384-93.941-21.112l-29.934-15.112
				C370.971,545.635,439.71,478.649,443.755,473.727z"/>
			<polygon style="fill:#FACCA9;" points="376.873,490.656 437.636,494.891 422.405,570.046 363.282,562.954 			"/>
			<path style="fill:#EAB187;" d="M366.174,565.698c0,0,25.029-36.802,23.691-57.719l10.594,5.559
				C400.459,513.538,380.755,563.762,366.174,565.698z"/>
			<path style="fill:#FACCA9;" d="M209.471,549.048c0,0-126.322,177.271-111.931,191.169s30.8,40.939,278.227-44.149
				c0,0,54.366-18.804,65.559-18.804s106.334-19.622,131.119-21.257c0,0-79.151-37.608-138.314-8.176
				c0,0-10.394,12.31-26.384,19.645c-15.99,7.335-222.662,31.862-222.662,31.862s90.385-128.891,96.161-150.291
				C287.023,527.648,209.471,549.048,209.471,549.048z"/>
			<path style="fill:#EAB187;" d="M200.077,559.692c0,0,19.497,22.989,51.223,42.279l-6.686,10.271
				C244.613,612.242,205.074,588.875,200.077,559.692z"/>
			<path style="fill:#FACCA9;" d="M130.515,463.805c-0.449,16.037,7.154,31.02,14.554,45.167
				c5.238,10.013,10.575,20.168,18.289,28.337c7.714,8.169,18.254,14.238,29.354,13.927c8.973,17.183,25.076,29.051,40.629,40.298
				c12.651,9.148,25.512,18.408,40.124,23.679c20.456,7.38,42.765,6.413,64.429,5.304c2.705-0.138,5.541-0.318,7.844-1.776
				c2.311-1.464,3.734-3.993,5.04-6.431c10.377-19.364,19.395-39.489,26.962-60.169c6.441-17.604,11.865-35.787,13.328-54.523
				c1.463-18.736-1.248-38.179-10.244-54.569c-1.559-2.84-3.364-5.869-2.963-9.1c0.246-1.98,1.3-3.741,2.239-5.491
				c3.058-5.701,5.134-12.273,4.063-18.683c-0.56-3.351-1.948-6.489-2.943-9.733c-1.914-6.24-2.378-12.899-4.623-19.023
				c-2.245-6.123-6.986-11.979-13.346-12.663c-6.36-0.684-12.957,6.55-9.979,12.338c-4.694-11.731-12.901-21.696-22.161-30.121
				c-25.698-23.381-60.809-35.855-95.087-32.93c-34.278,2.926-67.166,21.453-87.218,50.033s-26.641,66.797-16.554,100.426
				L130.515,463.805z"/>
			<path style="fill:#E59F6D;" d="M246.823,513.538c7.726,9.869,11.045,23.678,11.205,36.092c0.038,2.946-0.183,5.855-0.488,8.782
				c-0.704-1.069-1.409-2.138-2.113-3.207c1.913,1.085,3.975,1.266,6.071,0.66c0.89-0.257,1.775-0.649,2.552-1.163
				c0.623-0.412,1.852-2.03,2.452-1.598c-1.579,3.746-5.053,6.242-9.089,6.301c-0.997,0.014-2.008-0.119-2.95-0.463
				c-0.778-0.283-0.697-0.224-0.709-1.165c-0.021-1.686-0.062-3.372-0.141-5.057c-0.303-6.515-1.056-13.04-2.227-19.452
				c-0.644-3.523-1.421-7.02-2.343-10.479c-0.488-1.831-0.989-3.658-1.535-5.471c-0.243-0.807-0.493-1.613-0.749-2.416
				C246.592,514.38,246.031,513.63,246.823,513.538z"/>
			<path style="fill:#B42F4A;" d="M311.9,518.564c-0.039,6.422-0.077,12.844-0.116,19.265c-0.019,3.13-0.054,6.35-1.219,9.245
				c-1.066,2.649-2.995,4.819-4.888,6.931c-5.767,6.434-11.533,12.869-17.3,19.303c-3.472,3.874-7.157,8.283-7.131,13.538
				c0.006,1.177,0.251,2.443,1.093,3.246c0.61,0.581,1.442,0.836,2.243,1.07c4.492,1.316,9.748,2.446,13.495-0.408
				c1.864-1.42,2.997-3.601,4.069-5.709c1.868-3.671,3.736-7.341,5.604-11.012c2.134-4.194,4.281-8.419,5.611-12.947
				c1.136-3.867,1.656-7.891,2.142-11.898c1.228-10.122,2.001-21.349-3.921-29.556L311.9,518.564z"/>
			<path style="fill:#B42F4A;" d="M320.415,537.711c2.275,6.07,3.299,12.57,5.561,18.645c1.122,3.013,2.545,5.91,3.514,8.978
				c2.084,6.597,1.961,13.9-0.344,20.42c-1.064,3.009-2.671,5.958-5.255,7.764c-3.947,2.759-9.274,2.265-13.816,0.74
				c-3.105-1.043-6.516-3.151-6.653-6.491c-0.059-1.456,0.546-2.848,1.193-4.147c2.701-5.428,6.339-10.349,8.753-15.916
				c4.593-10.592,4.416-22.616,4.158-34.2c1.105,1.987,2.211,3.975,3.316,5.962L320.415,537.711z"/>
			<path style="fill:#2C342C;" d="M266.278,481.966c0,0,27.041-8.891,31.238-38.937c0,0,17.989,0.92,16.79-16.862
				c0,0,7.495,16.249-8.695,25.754c0,0-17.989,36.178-36.277,36.791C269.334,488.711,261.723,488.405,266.278,481.966z"/>
			<path style="fill:#2C342C;" d="M220.664,515.589c0,0-0.999-6.132-5.597-3.066c-0.502,0.335-0.6,15.39-19.988,20.98
				c0,0-0.755,1.314-1.506,2.831c0,0-1.154,2.537-1.345,3.26c-2.25,5.263-7.741,15.787-18.136,23.359
				c0,0,22.402-9.452,23.679-23.511C204.106,537.297,214.631,531.749,220.664,515.589z"/>
			<g>
				<path style="fill:#A05943;" d="M235.455,416.867c0,0,0.1-0.242,0.336-0.679c0.224-0.446,0.594-1.073,1.113-1.847
					c0.274-0.377,0.577-0.794,0.907-1.249c0.335-0.453,0.755-0.891,1.176-1.389c0.415-0.507,0.903-0.996,1.431-1.503
					c0.533-0.498,1.058-1.077,1.696-1.562c0.626-0.507,1.278-1.035,1.953-1.581c0.688-0.531,1.464-0.982,2.23-1.501
					c0.388-0.253,0.78-0.51,1.178-0.77c0.416-0.226,0.837-0.454,1.263-0.685c0.852-0.465,1.739-0.909,2.637-1.372
					c0.933-0.38,1.881-0.767,2.841-1.158c0.481-0.196,0.965-0.393,1.452-0.59c0.492-0.181,1.005-0.302,1.51-0.457
					c1.015-0.294,2.038-0.59,3.066-0.887c0.511-0.164,1.032-0.281,1.559-0.374l1.575-0.311c1.054-0.19,2.107-0.38,3.157-0.57
					c1.054-0.141,2.112-0.211,3.157-0.319c1.045-0.104,2.084-0.192,3.11-0.266c1.025-0.074,2.042-0.015,3.038-0.029
					c0.997,0.009,1.977-0.005,2.935,0.022c0.958,0.016,1.895,0.022,2.801,0.138c1.815,0.164,3.526,0.356,5.101,0.538
					c0.786,0.107,1.545,0.133,2.253,0.297c0.709,0.143,1.381,0.279,2.013,0.406c1.263,0.248,2.357,0.494,3.258,0.69
					c1.799,0.401,2.818,0.657,2.818,0.657s-1.061-0.007-2.899-0.066c-0.918-0.034-2.033-0.067-3.303-0.14
					c-1.272-0.064-2.701-0.167-4.267-0.126c-1.564,0.01-3.252,0.016-5.033-0.017c-0.891-0.04-1.804,0.032-2.736,0.095
					c-0.932,0.068-1.883,0.095-2.85,0.146c-0.965,0.063-1.952,0.053-2.939,0.176c-0.985,0.133-1.982,0.253-2.989,0.359
					c-1.004,0.121-2.023,0.203-3.033,0.356c-1.001,0.198-2.007,0.396-3.012,0.594l-1.512,0.271
					c-0.507,0.079-1.007,0.183-1.493,0.332c-0.982,0.267-1.961,0.532-2.931,0.796c-0.484,0.137-0.974,0.251-1.447,0.404
					c-0.469,0.165-0.936,0.328-1.4,0.491c-0.93,0.325-1.85,0.646-2.754,0.962c-0.871,0.39-1.721,0.791-2.57,1.15
					c-0.423,0.185-0.841,0.368-1.254,0.549c-0.395,0.214-0.786,0.426-1.171,0.635c-0.767,0.425-1.535,0.81-2.244,1.235
					c-0.7,0.444-1.376,0.872-2.025,1.284c-0.671,0.39-1.211,0.892-1.793,1.29c-0.575,0.409-1.113,0.809-1.577,1.231
					c-0.474,0.412-0.934,0.786-1.336,1.155c-0.395,0.379-0.758,0.728-1.085,1.042c-0.62,0.66-1.136,1.173-1.435,1.558
					C235.606,416.649,235.455,416.867,235.455,416.867z"/>
			</g>
			<g>
				<path style="fill:#A05943;" d="M185.086,448.752l-0.072-0.409l0.108,0.062c-0.938,0.821-1.836,1.667-2.692,2.555
					c-0.875,0.86-1.707,1.764-2.516,2.676c-0.813,0.911-1.629,1.808-2.37,2.776l-1.152,1.404l-1.089,1.454
					c-0.747,0.948-1.44,1.937-2.116,2.937l-1.035,1.48c-0.331,0.503-0.639,1.022-0.96,1.532c-0.623,1.031-1.335,2.003-1.883,3.079
					l-1.787,3.137l-1.623,3.23c-0.59,1.054-1.038,2.176-1.535,3.278c-0.482,1.107-1.021,2.194-1.475,3.318
					c-0.428,1.133-0.878,2.261-1.331,3.391c-0.217,0.568-0.472,1.125-0.683,1.697l-0.592,1.732l-1.234,3.47
					c-0.445,1.154-0.723,2.35-1.128,3.525c-0.382,1.18-0.774,2.364-1.218,3.547c0.007-1.25,0.066-2.499,0.135-3.752
					c0.083-1.25,0.136-2.513,0.308-3.756l0.62-3.719l0.335-1.862c0.137-0.615,0.305-1.222,0.469-1.831
					c0.329-1.217,0.662-2.437,1.016-3.651c0.356-1.214,0.855-2.379,1.285-3.571c0.444-1.187,0.895-2.372,1.464-3.509l1.661-3.427
					l1.927-3.29c0.626-1.105,1.404-2.12,2.12-3.168c0.372-0.516,0.731-1.04,1.113-1.547l1.209-1.476l1.216-1.466
					c0.424-0.473,0.874-0.925,1.31-1.386l1.323-1.367c0.465-0.433,0.931-0.865,1.407-1.284c0.932-0.858,1.935-1.64,2.926-2.423
					c0.49-0.397,1.034-0.734,1.551-1.096c0.521-0.357,1.037-0.718,1.588-1.033c1.081-0.651,2.195-1.254,3.363-1.731l0.128-0.052
					l-0.02,0.115L185.086,448.752z"/>
			</g>
			<path style="fill:#EAB187;" d="M464.186,457.439l18.786-8.026c0,0,136.45,86.475,150.738,116.284L464.186,457.439z"/>
			<path style="fill:#EAB187;" d="M317.193,715.181l-24.409,7.961c0,0-100.915,9.232-104.997-3.529
				C183.705,706.851,317.193,715.181,317.193,715.181z"/>
			<path style="fill:#EAB187;" d="M363.282,680.527c0.384,0.073-6.41,24.618-26.096,29.395
				C317.5,714.699,351.44,678.269,363.282,680.527z"/>
			<path style="fill:#57333A;" d="M268.012,322.437c0,0-42.374,77.261-99.938,104.241s-17.989,90.977-20.787,105.784
				c-2.798,14.808-7.595,17.26-19.988,23.801c-12.392,6.541-0.4,20.031,17.189,28.206c17.589,8.176,27.583,36.791,3.598,47.419
				c-23.985,10.628-23.186-9.811-23.186-9.811s27.583,13.467,17.589-12.684c-9.994-26.151-44.372-24.719-42.773-39.947
				s12.792-16.863,26.783-31.171s-5.197-35.973-6.796-38.426c-1.599-2.453-19.296-16.76-20.042-48.646
				c0,0-19.534-16.351-16.336-52.733c3.198-36.382-1.599-91.159,48.37-125.906s105.535-59.683,171.494-38.426
				s74.754,135.308,76.353,143.484c1.599,8.176,8.395,40.47,8.395,40.47l-3.198-5.22c0,0-5.619-34.536-19.712-30.62
				s-7.071,18.671-7.071,18.671l6.796,33.929l-3.198-2.453c0,0-15.191-62.544-36.377-79.305S279.605,317.532,268.012,322.437z"/>
			<path style="fill:#FFAE75;" d="M254.5,317.064c-5.736-1.558-11.493-3.408-16.456-6.736c-4.963-3.327-9.105-8.331-10.283-14.28
				c-0.79-3.988,0.613-9.169,4.524-9.923c-1.418-3.861-2.368-8.112-1.314-12.093c1.601-6.047,7.618-10.047,13.691-10.878
				c6.072-0.831,12.189,0.927,17.95,3.06c3.778-6.563,9.097-12.417,15.886-15.547s15.156-3.193,21.4,0.958
				c4.637,3.082,7.681,8.054,10.687,12.8c0.48,0.758,1.039,1.573,1.893,1.801c0.539,0.144,1.11,0.026,1.647-0.126
				c3.356-0.948,6.398-3.206,9.879-3.291c5.238-0.128,9.331,4.682,11.499,9.56c2.936,6.605,3.839,14.138,2.549,21.272
				c7.557-0.054,14.628,6.397,15.433,14.081c0.805,7.684-4.767,15.521-12.164,17.106c3.676,8.415,2.654,18.789-2.591,26.285
				c-5.244,7.496-14.516,11.835-23.491,10.994c-2.184,12.563-15.44,20.738-27.917,20.551c-2.837-0.043-5.786-0.469-8.134-2.097
				c-2.93-2.032-4.457-5.604-5.346-9.109c-2.189-8.626-1.334-18.026,2.375-26.091c-5.931,2.951-12.079,5.96-18.669,6.226
				c-6.591,0.266-13.791-2.964-16.176-9.252c-1.754-4.624-0.577-9.982,1.925-14.23c2.503-4.249,6.192-7.606,9.824-10.894
				c0.837-0.757,2.224-1.488,2.919-0.592L254.5,317.064z"/>
			<path style="fill:#EAB187;" d="M429.669,533.504l98.804,43.608c0,0-5.246,5.403-29.582,4.817
				C474.556,581.343,429.669,533.504,429.669,533.504z"/>
			<path style="fill:#FACCA9;" d="M386.025,503.168c0,0,0.942-55.228,50.845-59.388s238.217,155.85,238.217,155.85
				s27.305,9.189,8.474,34.836c-18.831,25.647-328.137,49.956-328.137,49.956s-12.711,30.573-28.718,32.499
				c-16.007,1.926-39.546-0.963-50.845,0s-81.744,11.947-90.775,0.678c0,0,103.016-37.229,126.555-49.283
				s51.786-14.943,73.442-20.72c21.656-5.777,105.582-36.153,205.262-31.774C590.346,615.821,389.791,519.536,386.025,503.168z"/>
			<path style="fill:#E8D5D3;" d="M964.75,470.123l-224.696,86.002c0,0-5.165-9.345-13.403-23.154
				c-9.209-15.415-22.242-36.389-36.205-56.144c-20.61-29.131-43.232-55.611-58.546-57.628h-0.02
				c-1.561-0.205-3.043-0.154-4.444,0.174c0,0-1.692-0.164-5.866,0.532c-2.923,0.481-7.057,1.392-12.672,3.061
				c0,0,3.293-5.077,9.279-10.584c0.29-0.276,0.591-0.542,0.901-0.819c1.261-1.106,2.622-2.232,4.094-3.327
				c5.405-4.023,12.202-7.646,20.149-8.987c0,0,13.583-0.543,21.581-11.986c7.998-11.454,27.186-72.767,138.313-80.126
				c51.129-3.378,89.886-13.696,116.852-23.829c17.417,37.494,30.169,77.352,37.556,118.695
				C961.607,424.318,964.019,447.072,964.75,470.123z"/>
			<path style="fill:#C1AFAE;" d="M651.397,401.129c0,0,14.791-1.982,17.789-9.474c0,0,69.957,21.737,83.748,74.675
				C752.934,466.33,682.378,395.815,651.397,401.129z"/>
		</g>
		<g>
			<path style="fill:#EAB187;" d="M521.27,361.531c-4.494,15.117-10.076,29.897-16.685,44.178c-0.835,1.805-1.735,3.665-3.262,4.91
				c-1.825,1.487-4.258,1.871-6.57,2.197c-10.819,1.526-21.704,2.939-32.196,6.042c-10.492,3.103-20.672,8.004-28.593,15.694
				c-4.605,4.471-8.549,10.352-8.405,16.844c2.153,0.747,4.256-1.1,5.877-2.73c9.224-9.272,20.531-16.364,32.795-20.567
				c1.032,1.629-0.52,3.653-1.971,4.906c-4.786,4.134-9.851,7.93-15.147,11.354c-8.509,5.5-18.523,11.241-20.638,21.305
				c4.35,1.118,8.384-2.382,11.799-5.356c8.567-7.46,18.615-13.136,29.351-16.581c-8.196,14.744-25.375,22.993-32.018,38.534
				c-0.293,0.686-0.569,1.424-0.458,2.164c0.243,1.626,2.294,2.385,3.821,1.87c1.527-0.515,2.622-1.855,3.655-3.116
				c7.502-9.152,16.199-17.278,25.788-24.094c0.444,3.376-1.761,6.439-3.68,9.223c-3.51,5.093-6.435,10.607-8.695,16.394
				c-0.86,2.202-1.354,5.281,0.661,6.455c2.259,1.316,4.717-1.34,5.971-3.669c3.865-7.179,7.13-14.735,11.789-21.402
				c8.254-11.811,20.844-20.373,34.688-23.59c3.482-0.809,8.267-0.535,9.197,2.99c0.546,2.068-0.652,4.146-1.706,5.997
				c-3.069,5.391-5.314,11.271-6.628,17.362c-0.21,0.974-0.317,2.186,0.466,2.781c0.425,0.324,0.996,0.352,1.525,0.316
				c3.757-0.259,6.919-3.165,8.751-6.53s2.616-7.199,3.673-10.895c1.832-6.412,4.537-12.538,6.32-18.964
				c1.783-6.426,2.609-13.375,0.628-19.74c-0.88-2.829-2.298-5.489-2.86-8.402c-1.05-5.442,0.992-10.941,2.696-16.208
				c2.662-8.227,4.573-16.708,5.697-25.297c-5.362,0.103-10.745-1.129-15.552-3.56L521.27,361.531z"/>
			<path style="fill:#EDEDED;" d="M672.178,39.644l-130.916,340.23l-6.356-2.447l-16.616-6.397l-5.125-1.975L620.418,20.534
				c10.48,3.183,20.8,6.725,30.96,10.604C658.395,33.81,665.322,36.645,672.178,39.644z"/>
		</g>
		<g>
			<path style="fill:#EAB187;" d="M596.981,397.667c-1.086,8.482-2.204,17.087-5.48,24.959c-3.276,7.871-9.043,15.055-16.896,18.002
				c-5.274,1.979-11.156,1.955-16.29,4.286c-5.134,2.332-9.397,8.676-6.662,13.694c5.845-1.859,11.691-3.719,17.536-5.578
				c4.4-1.4,10.931-1.61,11.796,3.018c0.384,2.054-0.745,4.053-1.829,5.827c-7.322,11.985-14.644,23.97-21.966,35.955
				c-2.132,3.49-3.336,9.56,0.598,10.43c1.639,0.362,3.259-0.638,4.543-1.741c5.096-4.377,7.975-10.792,11.575-16.516
				c3.6-5.724,8.713-11.268,15.334-11.955c1.286,18.541-16.38,33.964-16.173,52.55c0.031,2.73,0.96,6.045,3.569,6.627
				c3.344,0.746,5.461-3.518,6.242-6.926c3.15-13.74,6.042-29.196,17.311-37.343c-1.401,10.226-2.803,20.453-4.204,30.679
				c-0.075,0.546-0.148,1.114,0.018,1.638c0.457,1.446,2.529,1.701,3.746,0.83c1.217-0.872,1.776-2.4,2.268-3.834
				c3.011-8.788,6.021-17.576,9.032-26.364c3.43,0.528,5.11,4.712,5.005,8.258c-0.105,3.546-1.312,7.067-0.807,10.577
				c0.505,3.51,3.883,7.026,7.105,5.711c2.844-1.161,3.389-4.964,3.498-8.093c0.176-5.084,0.352-10.168,0.528-15.252
				c1.115-32.199,1.987-65.734-11.001-95.088c-5.786-0.897-11.572-1.795-17.359-2.693L596.981,397.667z"/>
			<path style="fill:#EDEDED;" d="M756.259,87.077l-133.088,321.16l-1.902,4.586l-1.852-0.266l-1.241-0.174l-22.882-3.224
				l-7.647-1.085L711.026,58.795h0.01C726.661,67.393,741.745,76.841,756.259,87.077z"/>
		</g>
		<g>
			<path style="fill:#CD9700;" d="M664.789,737.356c0,0-73.754,3.066-65.359,51.507c8.395,48.441,87.546,53.347,136.116,8.585
				s-3.055-71.037-23.385-69.903C690.185,728.771,664.789,737.356,664.789,737.356z"/>
			<path style="fill:#AF8400;" d="M701.157,741.505c1.587,6.453-11.623,15.413-29.507,20.014s-33.668,3.099-35.255-3.353
				c-1.587-6.452,11.623-15.413,29.507-20.013C683.785,733.551,699.569,735.053,701.157,741.505z"/>
			<path style="fill:#FEE050;" d="M667.978,749.817c0,0-25.184,3.066-9.594-69.289C658.384,680.527,698.559,735.1,667.978,749.817z"
				/>
		</g>
		<g>
			<path style="fill:#2C342C;" d="M234.319,824.921c26.268-10.053,53.245-18.166,80.653-24.255
				c7.977-1.772,16.888-3.226,23.832,1.163c8.082,5.107,10.295,16.368,8.784,25.96c-0.715,4.538-2.207,9.179-5.492,12.316
				c-3.045,2.907-7.221,4.155-11.231,5.31c-23.764,6.843-47.67,13.715-72.226,16.32c-11.933,1.266-26.18,0.418-32.762-9.839
				c-3.344-5.211-3.807-12.224-1.179-17.847c2.628-5.624,8.255-9.66,14.32-10.273L234.319,824.921z"/>
			<path style="fill:#222221;" d="M334.689,853.422c-1.566,5.021,1.715,10.573,6.22,13.132c4.505,2.559,9.89,2.801,15.044,2.743
				c11.755-0.132,23.497-1.51,34.975-4.106c12.077-2.731,24.021-6.889,34.238-14.019c10.217-7.129,18.63-17.473,21.85-29.685
				c0.918-3.48,1.405-7.189,0.518-10.677c-1.925-7.569-9.638-12.004-17.017-14.062c-24.806-6.918-50.759,3.343-74.505,13.424
				c-4.872,2.068-9.855,4.208-13.727,7.872c-8.11,7.674-9.561,20.121-9.571,31.42c-0.004,4.252,1.22,9.794,5.361,10.179
				L334.689,853.422z"/>
		</g>
		<g>
			<path style="fill:#222221;" d="M860.457,558.93c3.509-4.931,7.073-9.921,11.707-13.76c6.455-5.348,14.552-8.112,22.536-10.459
				c7.965-2.341,16.016-4.375,24.131-6.094c3.395-0.719,7.033-1.364,10.239-0.014c5.636,2.373,7.377,9.594,7.808,15.811
				c0.358,5.157,0.308,10.489-1.557,15.294c-3.467,8.933-12.346,14.227-20.777,18.475c-15.272,7.695-31.943,14.342-48.873,12.504
				c-3.51-0.381-7.238-1.27-9.591-3.96c-1.776-2.031-2.503-4.814-2.739-7.528c-0.8-9.193,3.81-18.665,11.464-23.556L860.457,558.93z
				"/>
			<path style="fill:#2C342C;" d="M840.443,544.09c-20.784,9.399-40.467,21.34-58.496,35.487c-2.743,2.153-5.518,4.438-7.208,7.523
				c-1.415,2.583-1.976,5.579-2.063,8.538c-0.42,14.166,11.59,27.857,25.45,27.847c9.062-0.007,17.278-5.096,24.955-10.018
				c6.777-4.345,13.554-8.69,20.33-13.035c8.836-5.665,17.977-11.638,23.482-20.696s6.159-22.153-1.382-29.52
				c-5.761-5.628-14.475-6.49-22.44-6.286c-2.916,0.075-6.42,0.647-7.56,3.393L840.443,544.09z"/>
		</g>
	</g>
</g>
<g id="Layer_1">
</g>
</svg>
