<?xml version="1.0" encoding="iso-8859-1"?>
<!-- Generator: Adobe Illustrator 19.2.1, SVG Export Plug-In . SVG Version: 6.00 Build 0)  -->
<svg version="1.1" xmlns="http://www.w3.org/2000/svg" xmlns:xlink="http://www.w3.org/1999/xlink" x="0px" y="0px"
	 viewBox="0 0 965 967.89" style="enable-background:new 0 0 965 967.89;" xml:space="preserve">
<g id="Meditation">
	<g>
		<path style="fill:#B8D7F4;" d="M965,485.211c0,241.617-167.741,411.308-366.081,463.142
			c-75.523,19.745-155.479,22.396-232.293,5.425c-101.828-22.488-198.14-79.461-271.31-176.814
			C-109.462,504.506,39.261,136.731,318.119,30.125c5.976-2.293,12.022-4.463,18.117-6.5c16.286-5.466,32.982-10.031,50.038-13.654
			C443.539-2.2,504.958-3.684,568.95,8.046c1.802,0.327,3.593,0.665,5.385,1.024c26.545,5.179,52.29,12.61,77.044,22.069
			c9.449,3.603,18.758,7.502,27.907,11.689C848.368,120.118,965,293.606,965,485.211z"/>
		<g>
			<path style="fill:#DC8D68;" d="M740.557,287.156c-5.58,16.344-17.46,31.887-14.52,48.95c2.22,12.823,12.74,23.921,11.31,36.867
				c-0.21,1.93-0.7,3.788-1.4,5.564c-2.61,6.54-8.27,11.827-14.55,15.03c-7.99,4.055-16.99,5.359-25.77,6.899
				c-25.69,4.497-51.2,11.447-77.05,13.767c-0.02,0.011-0.04,0.011-0.06,0.011c-6.45,0.585-12.92,0.872-19.42,0.759
				c-0.88-0.011-1.75-0.041-2.63-0.072c-2.8-0.103-5.6-0.298-8.41-0.586c-29.13-2.998-58.21-16.036-72.95-41.579
				c-8.01-13.88-11.09-30.142-13.14-46.147c-1.89-14.732-3.01-29.691-1.15-44.422c1.63-12.885,5.51-25.358,7.75-38.15
				c1.27-7.258,2.01-14.557,2.41-21.898c0.05-0.903,0.1-1.807,0.14-2.71c0.33-7.495,0.35-15.02,0.27-22.555
				c-0.02-1.714-0.04-3.419-0.07-5.133c-0.02-1.879-0.06-3.758-0.08-5.636c-0.04-1.797-0.06-3.593-0.09-5.4
				c-0.08-5.185-0.12-10.379-0.07-15.553c0.09-8.265,0.43-16.508,1.3-24.711c2.85-26.569,11.36-52.05,23.63-75.673
				c9.37-18.048,20.94-35.008,33.85-50.531c1.44-1.725,2.89-3.439,4.39-5.133c26.52,5.195,52.24,12.648,76.97,22.134
				c9.44,3.614,18.74,7.525,27.88,11.724c1.77,5.02,3.25,10.154,4.41,15.358c3.55,15.902,4.28,32.349,3.81,48.662
				c-0.63,21.754-3.43,43.683-11.15,63.959c-4.53,11.889-10.69,23.038-15.77,34.69c-11.62,26.662-17.48,55.942-17.04,85.139
				c0.07,4.815,0.58,10.205,4.17,13.295c3.82,3.295,9.85,2.474,13.9-0.534c4.04-3.008,6.55-7.679,8.83-12.237
				c1.75-3.512,3.48-7.197,3.58-11.139c0.1-3.943-1.89-8.213-5.53-9.455c-3.45-1.181-7.84,1.735-7.63,5.308
				c-2.18-17.781,11.25-34.156,26.55-42.955c13.73-7.895,32.12-11.313,44.44-1.273c8,6.519,11.59,17.35,12.39,27.801
				C744.757,268.892,743.567,278.347,740.557,287.156z"/>
			<path style="fill:#DC8D68;" d="M318.277,30.23c-11,28.623-14.86,60.089-11.1,90.621c5.59,45.398,27.39,87.059,36.35,131.881
				c1.22,6.129,2.2,12.494,0.79,18.582c-1.74,7.556-6.94,13.726-12.21,19.321c-9.35,9.928-19.69,19.239-32,24.783
				c-12.32,5.544-26.93,6.94-39.13,1.129c-12.19-5.821-20.99-19.814-18.68-33.417c2.3-13.603,17.45-24.075,29.99-19.085
				c-2.98-10.78-16.64-13.798-27.45-12.268c-19.65,2.762-37.97,14.322-49.26,31.066c-11.28,16.755-15.35,38.427-10.95,58.282
				c2.09,9.424,5.96,18.315,9.81,27.144c7.97,18.284,16.35,37.144,30.94,50.439c3.34,3.039,6.94,5.708,10.73,8.028
				c18.39,11.252,41.42,14.239,62.94,11.56c23.74-2.946,46.25-12.001,68.46-21.231c2.07-0.862,4.14-1.725,6.2-2.577
				c4.98-2.074,9.97-4.127,14.94-6.232c4.55-1.93,9.09-3.891,13.59-5.934c10.81-4.907,21.39-10.266,31.43-16.662
				c18.77-11.971,35.73-27.924,45.51-48.272c7.56-15.728,10.53-33.458,10.83-51.003c0.2-11.714-0.77-23.52-3.92-34.772
				c-3.19-11.406-8.56-22.011-13.5-32.739c-0.07-0.154-0.14-0.308-0.21-0.462c-1.26-2.731-2.49-5.472-3.68-8.223
				c-2.42-5.534-4.72-11.108-6.9-16.734c-0.55-1.396-1.09-2.792-1.61-4.199c-11.17-29.598-19.24-60.417-24.03-91.771
				c-1.24-8.131-2.26-16.323-3.7-24.424c-1.19-6.766-2.68-13.459-4.81-19.978c-4.68-14.322-12.91-28.027-25.54-35.778
				c-4.91-3.018-10.39-5.072-15.74-7.289c-17.04,3.634-33.72,8.213-49.99,13.695L318.277,30.23z"/>
			<path style="fill:#D47955;" d="M424.5,181.891c0,0,19.333,123.495-19.333,156.241l205.333,3.316c0,0-71.333-83.757-42.667-176.71
				L424.5,181.891z"/>
			<path style="fill:#FFE2C5;" d="M447.267,190.058c0,0,24.751,120.332-2.864,131.672c-27.615,11.34-57.846,11.34-57.846,11.34
				l2.987,107.732c0,0,74.905,50.401,84.11,51.031s122.809-47.881,122.809-47.881V336.221c0,0-54.235-6.09-57.839-19.53
				c-6.533-24.365,0-132.266,0-132.266L447.267,190.058z"/>
			<path style="fill:#DDB28A;" d="M444.403,194.048c0,0,38.865,39.061,52.366,36.541c13.501-2.52,45.411-39.901,45.411-39.901
				L444.403,194.048z"/>
			<path style="fill:#FFE2C5;" d="M651.217,31.247c-1.04,6.047-2.3,12.063-3.56,18.048c-4.46,21.18-8.99,42.595-18.14,62.122
				c-13.44,28.705-66.81,69.052-91.69,87.777c-6.24,4.702-10.69,8.039-12.27,9.486c-0.06,0.062-0.12,0.113-0.17,0.164
				c-0.01,0.011-0.01,0.011-0.02,0.021c-0.01,0.011-0.02,0.021-0.03,0.021c-3.91,3.778-8.95,7.864-14.22,10.554
				c-2.52,1.293-5.09,2.269-7.61,2.741c-5.24,0.975-10.5-1.212-15.4-3.357c-6.46-2.823-12.95-5.678-19.41-8.634
				c-4.96-2.279-9.9-4.62-14.77-7.063c-1.56-0.77-3.1-1.561-4.64-2.362c-20.1-10.42-38.99-22.791-54.11-39.741
				c-9.35-10.471-16.97-22.411-24.55-34.289c-5.75-9.004-11.49-17.997-17.24-27c-5.08-7.946-10.18-15.964-13.78-24.721
				c-6.6-16.098-7.75-34.474-3.23-51.301c16.27-5.482,32.95-10.061,49.99-13.695c57.21-12.207,118.57-13.695,182.5-1.93
				c1.8,0.328,3.59,0.667,5.38,1.027C600.767,14.307,626.487,21.76,651.217,31.247z"/>
			<path style="fill:#EE7180;" d="M459.757,183.368c4.891,0.521,14.857-10.704,20.343-14.369c5.486-3.665,13.935-4.547,17.723,0.933
				c2.068-4.352,7.611-5.794,12.26-4.978s8.842,3.304,13.317,4.833c4.878,1.666,10.127,2.179,15.224,1.488
				c-5.947,4.616-11.922,9.259-17.076,14.79c-4.167,4.472-7.849,9.568-12.925,12.905c-7.357,4.836-17.284,5.214-24.969,0.949
				c-5.388-2.99-17.671-16.113-24.319-16.582L459.757,183.368z"/>
			<g>
				<path style="fill:#F2C59E;" d="M477.432,128.67c0,0,0.115,0.031,0.331,0.09c0.222,0.071,0.516,0.114,0.904,0.131
					c0.772,0.055,1.807-0.21,3.001-0.732c0.6-0.263,1.24-0.602,1.946-0.952c0.361-0.176,0.732-0.358,1.111-0.543
					c0.398-0.167,0.805-0.337,1.219-0.51c0.883-0.324,1.84-0.6,2.779-0.792c0.478-0.088,0.962-0.167,1.45-0.236l1.475-0.125
					l1.479-0.004c0.491,0.025,0.979,0.063,1.462,0.107c0.965,0.108,1.902,0.293,2.793,0.521c0.44,0.134,0.872,0.265,1.295,0.394
					c0.411,0.16,0.813,0.317,1.205,0.47c0.767,0.342,1.473,0.699,2.091,1.087c0.637,0.345,1.159,0.774,1.632,1.113
					c0.457,0.37,0.836,0.713,1.14,0.999c0.588,0.603,0.89,0.968,0.89,0.968s-0.462-0.157-1.212-0.466
					c-0.38-0.137-0.84-0.303-1.369-0.494c-0.54-0.154-1.12-0.37-1.773-0.542c-0.643-0.194-1.356-0.341-2.091-0.514
					c-0.371-0.073-0.752-0.147-1.141-0.224c-0.39-0.06-0.789-0.12-1.194-0.182c-0.405-0.046-0.817-0.092-1.235-0.139
					c-0.417-0.029-0.839-0.059-1.265-0.089c-0.425-0.011-0.854-0.022-1.284-0.034l-1.292,0.027
					c-0.862,0.039-1.719,0.123-2.562,0.228c-0.418,0.067-0.834,0.134-1.244,0.2c-0.398,0.082-0.791,0.162-1.178,0.242
					c-0.403,0.104-0.87,0.238-1.201,0.308c-0.4,0.113-0.792,0.224-1.173,0.333c-0.778,0.219-1.553,0.394-2.29,0.503
					c-0.734,0.121-1.442,0.139-2.062,0.073c-0.622-0.048-1.154-0.226-1.55-0.419c-0.2-0.088-0.372-0.188-0.51-0.296
					c-0.144-0.095-0.25-0.18-0.328-0.26C477.518,128.753,477.432,128.67,477.432,128.67z"/>
			</g>
			<g>
				<path style="fill:#AB063B;" d="M480.515,184.238c0,0,0.571-0.213,1.583-0.541c1.014-0.324,2.467-0.775,4.267-1.155
					c0.9-0.186,1.885-0.376,2.946-0.474c1.059-0.105,2.193-0.191,3.373-0.114c1.177,0.069,2.409,0.21,3.625,0.544
					c1.246,0.315,2.364,0.86,3.284,0.915c0.876,0.105,1.702-0.315,2.632-1.008c0.455-0.335,0.935-0.709,1.467-1.049
					c0.283-0.175,0.512-0.328,0.879-0.495c0.28-0.114,0.487-0.237,0.821-0.34c1.287-0.455,2.421-0.503,3.511-0.518
					c1.078-0.011,2.061,0.081,2.957,0.133c0.895,0.044,1.708,0.092,2.419,0.05c0.716-0.026,1.327-0.131,1.833-0.244
					c0.489-0.152,0.891-0.266,1.137-0.403c0.259-0.119,0.397-0.183,0.397-0.183s-0.118,0.096-0.34,0.275
					c-0.216,0.194-0.571,0.426-1.056,0.684c-0.494,0.225-1.12,0.482-1.868,0.629c-0.745,0.177-1.597,0.273-2.512,0.34
					c-0.915,0.075-1.896,0.115-2.892,0.21c-0.977,0.094-2.047,0.305-2.886,0.643c-0.208,0.063-0.494,0.241-0.74,0.358
					c-0.154,0.078-0.407,0.252-0.609,0.398c-0.451,0.35-0.906,0.704-1.366,1.061c-0.494,0.374-1.044,0.766-1.716,1.062
					c-0.67,0.305-1.485,0.456-2.237,0.387c-1.506-0.169-2.578-0.788-3.635-1.049c-1.075-0.303-2.163-0.536-3.242-0.651
					c-2.158-0.238-4.235-0.153-6.021-0.031c-1.787,0.14-3.291,0.305-4.346,0.41C481.12,184.182,480.515,184.238,480.515,184.238z"/>
			</g>
			<g>
				<path style="fill:#57333A;" d="M519.066,56.916c0,0,1.183,0.434,3.254,1.194c1.031,0.358,2.284,0.793,3.72,1.292
					c1.43,0.495,3.064,0.988,4.822,1.548c1.77,0.53,3.677,1.108,5.708,1.634c2.021,0.559,4.171,1.042,6.381,1.537
					c2.223,0.434,4.511,0.887,6.847,1.187c2.333,0.336,4.705,0.539,7.073,0.665c2.365,0.083,4.733,0.105,7.043-0.069
					c2.317-0.128,4.573-0.446,6.744-0.845c1.1-0.151,2.126-0.501,3.177-0.704c1.044-0.23,2.016-0.605,3.005-0.87
					c1.929-0.649,3.757-1.325,5.388-2.098c0.416-0.182,0.823-0.359,1.222-0.533c0.384-0.202,0.759-0.4,1.125-0.593
					c0.737-0.383,1.457-0.726,2.109-1.091c1.248-0.803,2.431-1.418,3.336-2.023c0.886-0.626,1.627-1.085,2.118-1.417
					c0.504-0.321,0.773-0.493,0.773-0.493s-0.185,0.257-0.531,0.739c-0.359,0.471-0.865,1.19-1.568,2.063
					c-0.708,0.865-1.653,1.842-2.753,2.969c-0.569,0.539-1.211,1.074-1.875,1.664c-0.339,0.288-0.686,0.583-1.042,0.886
					c-0.379,0.272-0.766,0.55-1.162,0.833c-1.572,1.167-3.41,2.248-5.425,3.273c-1.027,0.463-2.073,0.991-3.188,1.402
					c-0.56,0.201-1.127,0.405-1.699,0.61c-0.572,0.209-1.155,0.405-1.755,0.554c-1.193,0.324-2.409,0.682-3.665,0.885
					c-0.627,0.118-1.257,0.238-1.89,0.357c-0.637,0.094-1.28,0.151-1.925,0.228c-2.58,0.334-5.215,0.326-7.836,0.264
					c-2.612-0.171-5.218-0.419-7.728-0.92c-0.628-0.122-1.258-0.221-1.875-0.361c-0.615-0.148-1.226-0.296-1.834-0.443
					c-1.219-0.277-2.393-0.651-3.555-0.988c-2.302-0.739-4.494-1.536-6.514-2.419c-2.029-0.858-3.886-1.797-5.576-2.695
					c-1.68-0.921-3.179-1.829-4.476-2.682c-1.311-0.824-2.395-1.642-3.287-2.303C519.98,57.807,519.066,56.916,519.066,56.916z"/>
			</g>
			<g>
				<path style="fill:#57333A;" d="M454.222,55.236c0,0-0.063,0.318-0.311,0.898c-0.239,0.571-0.603,1.409-1.171,2.42
					c-0.559,1.016-1.29,2.227-2.242,3.544c-0.961,1.307-2.095,2.765-3.495,4.22c-1.41,1.438-3.009,2.961-4.893,4.348
					c-1.877,1.388-3.961,2.76-6.29,3.87c-1.135,0.619-2.375,1.06-3.602,1.58c-1.264,0.411-2.526,0.915-3.859,1.201
					c-2.626,0.752-5.39,1.055-8.14,1.282c-1.377,0.007-2.76,0.071-4.126-0.006c-1.363-0.098-2.732-0.143-4.057-0.378
					c-1.332-0.193-2.656-0.369-3.925-0.709c-1.277-0.3-2.545-0.563-3.741-0.989c-2.437-0.707-4.682-1.664-6.79-2.571
					c-2.059-1.021-4.005-1.961-5.685-3.031c-0.846-0.524-1.669-0.995-2.42-1.497c-0.734-0.525-1.431-1.023-2.086-1.492
					c-0.65-0.472-1.267-0.893-1.815-1.318c-0.533-0.445-1.023-0.854-1.466-1.223c-0.887-0.73-1.55-1.347-2.014-1.748
					c-0.454-0.414-0.696-0.634-0.696-0.634s0.307,0.12,0.882,0.344c0.566,0.238,1.412,0.557,2.447,1.018
					c0.52,0.224,1.095,0.472,1.722,0.742c0.646,0.232,1.319,0.522,2.049,0.809c0.725,0.291,1.496,0.601,2.309,0.927
					c0.82,0.296,1.683,0.607,2.583,0.931c1.771,0.703,3.749,1.269,5.792,1.947c2.078,0.569,4.246,1.198,6.519,1.642
					c1.127,0.273,2.287,0.438,3.454,0.628c1.165,0.221,2.353,0.304,3.543,0.439c2.385,0.236,4.803,0.266,7.209,0.176
					c2.396-0.175,4.794-0.407,7.098-0.944c1.167-0.206,2.281-0.581,3.414-0.851c1.094-0.387,2.209-0.692,3.256-1.131
					c2.131-0.79,4.116-1.776,5.972-2.784c1.865-1,3.538-2.128,5.082-3.192c1.528-1.087,2.893-2.16,4.082-3.153
					c1.153-1.025,2.183-1.923,2.979-2.717c0.789-0.798,1.433-1.425,1.827-1.886C454.028,55.514,454.222,55.236,454.222,55.236z"/>
			</g>
			<g>
				<path style="fill:#57333A;" d="M577.766,64.711c0,0,0.012-0.008,0.037-0.024c0.013-0.009,0.03-0.02,0.05-0.033
					c0.051-0.033,0.112-0.07,0.182-0.108c0.237-0.125,0.578-0.211,0.936-0.197c0.354,0.012,0.697,0.108,1.019,0.232
					c0.318,0.128,0.58,0.249,0.941,0.413c1.341,0.627,3.096,1.63,4.506,3.04c1.43,1.383,2.399,3.17,2.767,4.571
					c0.197,0.7,0.271,1.301,0.296,1.718c0.028,0.418,0.017,0.656,0.017,0.656s-0.021-0.238-0.102-0.645
					c-0.079-0.406-0.228-0.98-0.506-1.626c-0.536-1.302-1.655-2.83-3.129-3.921c-1.454-1.114-3.165-1.811-4.468-2.223
					c-0.303-0.093-0.654-0.199-0.885-0.257c-0.227-0.055-0.386-0.06-0.449-0.045c-0.06,0.016-0.038,0.034,0.005,0.017
					c0.022-0.009,0.041-0.021,0.055-0.033c-0.014,0.012-0.026,0.023-0.036,0.031c-0.022,0.019-0.033,0.029-0.033,0.029
					L577.766,64.711z"/>
			</g>
			<g>
				<path style="fill:#57333A;" d="M584.873,62.191c0,0,0.086-0.052,0.246-0.15c0.232-0.122,0.568-0.186,0.885-0.144
					c0.315,0.04,0.589,0.154,0.841,0.296l0.094,0.055c0.085,0.049,0.062,0.041,0.1,0.065l0.142,0.1
					c0.097,0.068,0.2,0.141,0.306,0.216c0.974,0.714,1.982,1.798,2.703,3.087c0.722,1.275,1.113,2.678,1.225,3.73
					c0.062,0.527,0.069,0.966,0.063,1.271c-0.012,0.304-0.018,0.478-0.018,0.478s-0.024-0.172-0.067-0.473
					c-0.048-0.298-0.132-0.723-0.283-1.213c-0.288-0.983-0.897-2.218-1.746-3.231c-0.424-0.507-0.897-0.96-1.371-1.334
					c-0.242-0.182-0.475-0.353-0.71-0.494c-0.23-0.159-0.445-0.247-0.638-0.361c-0.118-0.055-0.231-0.107-0.339-0.157l-0.158-0.073
					c-0.012-0.004-0.082-0.041-0.044-0.017l-0.05-0.017c-0.127-0.042-0.211-0.038-0.198-0.022c0.014,0.018,0.112,0.02,0.202-0.023
					c0.036-0.016,0.065-0.036,0.089-0.055l-0.024,0.023c-0.015,0.014-0.023,0.022-0.023,0.022L584.873,62.191z"/>
			</g>
			<g>
				<path style="fill:#57333A;" d="M589.005,58.178c0,0,0.188,0.015,0.516,0.042c0.382,0.036,0.86,0.114,1.436,0.288
					c1.143,0.336,2.547,1.097,3.569,2.262c0.224,0.254,0.483,0.59,0.677,0.887c0.202,0.309,0.374,0.626,0.525,0.938
					c0.292,0.63,0.482,1.243,0.589,1.776c0.107,0.533,0.142,0.981,0.147,1.294c0.008,0.312-0.001,0.489-0.001,0.489
					s-0.022-0.177-0.084-0.479c-0.059-0.302-0.171-0.73-0.362-1.215c-0.19-0.485-0.471-1.025-0.837-1.547
					c-0.188-0.258-0.392-0.515-0.618-0.755c-0.239-0.248-0.448-0.443-0.738-0.675c-0.506-0.393-1.091-0.721-1.651-0.934
					c-0.562-0.219-1.11-0.335-1.575-0.391c-0.46-0.054-0.869-0.045-1.104-0.023c-0.29,0.028-0.456,0.044-0.456,0.044L589.005,58.178
					z"/>
			</g>
			<g>
				<path style="fill:#57333A;" d="M396.06,72.589c0,0-0.011-0.01-0.033-0.029c-0.01-0.008-0.022-0.019-0.036-0.031
					c0.014,0.012,0.033,0.024,0.055,0.033c0.043,0.016,0.065-0.002,0.005-0.017c-0.063-0.016-0.221-0.011-0.449,0.045
					c-0.23,0.058-0.582,0.164-0.885,0.257c-1.303,0.412-3.014,1.109-4.468,2.223c-1.474,1.091-2.593,2.619-3.129,3.921
					c-0.278,0.645-0.427,1.219-0.506,1.625c-0.082,0.407-0.102,0.645-0.102,0.645s-0.011-0.238,0.017-0.656
					c0.025-0.418,0.099-1.018,0.296-1.718c0.368-1.401,1.336-3.188,2.767-4.571c1.41-1.41,3.166-2.413,4.506-3.04
					c0.362-0.165,0.623-0.285,0.941-0.413c0.323-0.125,0.665-0.22,1.019-0.232c0.357-0.014,0.699,0.072,0.936,0.197
					c0.07,0.037,0.131,0.074,0.182,0.108c0.02,0.013,0.036,0.024,0.049,0.032c0.024,0.016,0.037,0.024,0.037,0.024L396.06,72.589z"
					/>
			</g>
			<g>
				<path style="fill:#57333A;" d="M388.931,70.052c0,0-0.008-0.007-0.023-0.022l-0.024-0.023c0.023,0.019,0.053,0.038,0.089,0.055
					c0.09,0.043,0.188,0.041,0.202,0.023c0.012-0.017-0.071-0.02-0.199,0.021l-0.05,0.017c0.037-0.024-0.033,0.013-0.044,0.017
					l-0.158,0.073c-0.108,0.05-0.221,0.102-0.339,0.157c-0.193,0.114-0.408,0.202-0.638,0.361c-0.235,0.14-0.469,0.312-0.71,0.493
					c-0.474,0.374-0.947,0.827-1.371,1.334c-0.849,1.014-1.457,2.248-1.745,3.231c-0.151,0.49-0.235,0.915-0.283,1.213
					c-0.043,0.301-0.067,0.473-0.067,0.473s-0.007-0.174-0.018-0.479c-0.007-0.305,0-0.745,0.063-1.271
					c0.112-1.052,0.503-2.455,1.225-3.73c0.721-1.288,1.728-2.373,2.703-3.087c0.107-0.075,0.209-0.147,0.307-0.216l0.142-0.1
					c0.037-0.024,0.014-0.015,0.1-0.065l0.094-0.055c0.252-0.142,0.526-0.257,0.841-0.296c0.317-0.042,0.654,0.022,0.885,0.144
					c0.161,0.098,0.246,0.15,0.246,0.15L388.931,70.052z"/>
			</g>
			<g>
				<path style="fill:#57333A;" d="M384.764,66.457c0,0-0.166-0.016-0.456-0.044c-0.236-0.022-0.644-0.032-1.104,0.023
					c-0.465,0.056-1.013,0.172-1.575,0.391c-0.56,0.213-1.145,0.54-1.651,0.934c-0.29,0.232-0.5,0.428-0.738,0.675
					c-0.227,0.24-0.431,0.497-0.618,0.755c-0.365,0.522-0.646,1.062-0.837,1.547c-0.19,0.485-0.303,0.913-0.362,1.215
					c-0.062,0.302-0.084,0.479-0.084,0.479s-0.009-0.177-0.001-0.489c0.005-0.312,0.041-0.761,0.147-1.294
					c0.107-0.532,0.297-1.146,0.589-1.776c0.151-0.312,0.323-0.629,0.525-0.938c0.194-0.297,0.453-0.633,0.677-0.887
					c1.022-1.165,2.425-1.926,3.569-2.262c0.577-0.173,1.054-0.251,1.436-0.287c0.328-0.027,0.516-0.042,0.516-0.042L384.764,66.457
					z"/>
			</g>
			<path style="fill:#F291AB;" d="M563.457,731.144c0,0-25.37,108.033,10.63,167.68c8.24,13.654,16.65,32.072,24.72,52.369
				c-75.45,19.804-155.33,22.463-232.07,5.441c16.52-43.047,34.22-80.847,38.8-98.136c5.31-20.04,4.72-106.062,1.38-175.482
				c-0.86-18.069-1.91-35.018-3.1-49.381c-2.08-25.296-4.57-42.595-7.15-43.94c-9.7-5.041-41.04-24.362-45.95-60.479
				c-4.91-36.127,18-76.443,18-76.443l-0.44-13.007l-0.77-22.699l-2.88-84.513h32.04l5.57,69.77l2.48,31.128l181.65-3.357
				l1.69-15.749l8.41-78.126l29.17,1.909l-7.06,76.104l-1.86,20.081l-1.71,18.459c0,0,18.81,27.719,15.54,68.877
				c-3.27,41.168-45,80.642-45,80.642l-9,14.28l-5.14,45.029l-3.14,27.421L563.457,731.144z"/>
			<path style="fill:#FFE2C5;" d="M625.639,338.132c0,0,49.502-5.04,65.049,2.919c15.546,7.959,75.085,69.834,89.813,86.634
				c14.728,16.8,129.401,172.874,129.061,197.29c-0.162,11.654-4.454,12.952-25.728,19.672S570,687.136,564.272,689.656
				c-5.728,2.52-56.662,5.04-61.367,0.84c-4.705-4.2-4.523-136.792-3.926-147.002c0.884-15.12,3.926-17.64,10.062-2.52
				c6.053,14.913,28.736,90.56,31.092,100.381c2.171,9.047-2.453,32.054,45.351,16.38c4.031-1.322,234.071-52.921,239.799-57.121
				c5.728-4.2-159.481-167.828-170.118-169.508s-38.528,3.185-38.528,3.185L625.639,338.132z"/>
			<path style="fill:#FFE2C5;" d="M364.626,332.549c0,0-38.865-5.439-56.866,5.582S196.268,482.173,196.268,482.173
				s-98.186,145.322-90.004,152.882s153.825,31.921,166.917,33.601c13.092,1.68,213.908,22.68,225.596,24.36
				c11.688,1.68,0.661-163.803-3.644-162.963c-2.629,0.513-12.194,33.285-19.245,58.729c-5.301,19.13-6.619,39.183-3.879,58.872v0
				c0,0-215.192-42.841-255.285-59.641c0,0,82.082-80.641,122.045-138.602l29.507-9.648L364.626,332.549z"/>
		</g>
	</g>
</g>
<g id="Layer_1">
</g>
</svg>
