<?xml version="1.0" encoding="iso-8859-1"?>
<!-- Generator: Adobe Illustrator 19.2.1, SVG Export Plug-In . SVG Version: 6.00 Build 0)  -->
<svg version="1.1" xmlns="http://www.w3.org/2000/svg" xmlns:xlink="http://www.w3.org/1999/xlink" x="0px" y="0px"
	 viewBox="0 0 965 965" style="enable-background:new 0 0 965 965;" xml:space="preserve">
<g id="Oil">
	<g>
		<path style="fill:#B8D7F4;" d="M965,478.419c0,281.068-241.133,492.526-505.64,486.453
			C188.361,958.644-28.807,708.53,3.123,430.556c0.982-8.574,2.204-17.169,3.667-25.795c2.084-12.249,4.508-24.217,7.264-35.895
			c5.36-22.723,11.963-44.376,19.697-64.96c15.239-40.587,34.875-77.032,58.029-109.388C191.136,55.639,355.214-7.774,514.494,0.758
			c16.561,0.893,33.072,2.554,49.453,5.003c8.245,1.225,16.451,2.647,24.616,4.266c13.065,2.585,26.029,5.678,38.833,9.28
			c12.704,3.55,25.257,7.609,37.621,12.155c12.023,4.401,23.855,9.27,35.477,14.615c12.914,5.907,25.558,12.394,37.891,19.453
			c10.71,6.124,21.2,12.685,31.409,19.671c49.643,33.933,92.904,77.904,125.987,131.716c9.889,16.058,18.855,32.989,26.81,50.801
			c5.43,12.135,10.399,24.684,14.858,37.629C955.151,356.72,965,414.445,965,478.419z"/>
		<g>
			<path style="fill:#FADF8D;" d="M922.59,267.719l14.858,37.629C955.151,356.72,965,414.445,965,478.419
				c0,281.068-241.133,492.526-505.64,486.453C188.361,958.644-28.807,708.53,3.123,430.556c0.982-8.574,2.204-17.169,3.667-25.795
				c2.084-12.249,4.508-24.217,7.264-35.895c66.154-21.581,181.942-56.5,324.109-87.423
				c61.015-13.276,126.898-25.816,195.798-36.238c12.293-1.868,24.696-3.664,37.18-5.377h0.01c4.028-0.561,8.045-1.111,12.093-1.65
				h0.01c13.616-1.806,27.321-3.54,41.117-5.159c11.251-1.318,22.552-2.585,33.904-3.758c12.694-1.329,25.438-2.564,38.242-3.685
				c13.936-1.246,27.922-2.356,41.969-3.342c12.954-0.924,25.959-1.723,38.983-2.419c39.264-2.076,78.798-3.114,118.312-2.896
				L922.59,267.719z"/>
			<g>
				<path style="fill:#B16532;" d="M627.263,406.465v-33.361h8.547c5.128,0,9.324-4.347,9.324-9.66v-8.05
					c0-5.313-4.196-9.66-9.324-9.66h-47.395c-5.128,0-9.324,4.347-9.324,9.66v8.05c0,5.313,4.196,9.66,9.324,9.66h8.547v33.361
					c-17.677,4.137-30.882,20.497-30.882,40.062v163.381h92.066V446.527C658.145,426.962,644.94,410.603,627.263,406.465z"/>
				<g>
					<path style="fill:#9B9B3A;" d="M579.664,440.148c0,0.246,0.105,0.487,0.288,0.724c0.204-0.788,0.515-1.53,0.916-2.212
						C580.088,439.134,579.664,439.632,579.664,440.148z"/>
					<path style="fill:#9B9B3A;" d="M646.483,440.148c0-0.515-0.425-1.014-1.204-1.488c0.401,0.682,0.712,1.424,0.916,2.212
						C646.378,440.635,646.483,440.393,646.483,440.148z"/>
					<path style="fill:#9B9B3A;" d="M579.664,582.942c0,0.516,0.425,1.014,1.204,1.488c-0.401-0.682-0.712-1.424-0.916-2.212
						C579.768,582.455,579.664,582.696,579.664,582.942z"/>
					<path style="fill:#9B9B3A;" d="M646.483,582.942c0-0.246-0.105-0.487-0.288-0.724c-0.204,0.788-0.515,1.53-0.916,2.212
						C646.058,583.956,646.483,583.457,646.483,582.942z"/>
					<path style="fill:#9B9B3A;" d="M613.073,445.743c-16.985,0-31-2.123-33.122-4.871c-0.182,0.701-0.288,1.433-0.288,2.191
						v136.964c0,0.758,0.106,1.49,0.288,2.191c2.122-2.748,16.137-4.871,33.122-4.871s31,2.123,33.122,4.871
						c0.182-0.701,0.288-1.433,0.288-2.191V443.063c0-0.758-0.106-1.49-0.288-2.191C644.073,443.62,630.059,445.743,613.073,445.743
						z"/>
					<path style="fill:#9B9B3A;" d="M613.073,445.743c16.985,0,31-2.123,33.122-4.871c-0.204-0.788-0.515-1.53-0.916-2.212
						c-3.892-2.368-16.832-4.107-32.206-4.107c-15.374,0-28.314,1.74-32.206,4.107c-0.402,0.682-0.712,1.424-0.916,2.212
						C582.073,443.62,596.088,445.743,613.073,445.743z"/>
					<path style="fill:#9B9B3A;" d="M613.073,445.743c16.985,0,31-2.123,33.122-4.871c-0.204-0.788-0.515-1.53-0.916-2.212
						c-3.892-2.368-16.832-4.107-32.206-4.107c-15.374,0-28.314,1.74-32.206,4.107c-0.402,0.682-0.712,1.424-0.916,2.212
						C582.073,443.62,596.088,445.743,613.073,445.743z"/>
					<path style="fill:#9B9B3A;" d="M613.073,577.346c-16.985,0-31,2.123-33.122,4.871c0.204,0.788,0.515,1.53,0.916,2.212
						c3.892,2.368,16.832,4.107,32.206,4.107s28.314-1.74,32.206-4.107c0.401-0.682,0.712-1.424,0.916-2.212
						C644.073,579.47,630.059,577.346,613.073,577.346z"/>
					<path style="fill:#9B9B3A;" d="M613.073,577.346c-16.985,0-31,2.123-33.122,4.871c0.204,0.788,0.515,1.53,0.916,2.212
						c3.892,2.368,16.832,4.107,32.206,4.107s28.314-1.74,32.206-4.107c0.401-0.682,0.712-1.424,0.916-2.212
						C644.073,579.47,630.059,577.346,613.073,577.346z"/>
				</g>
			</g>
			<g>
				<path style="fill:#2C342C;" d="M307.04,730.993c8.858-0.49,14.259,0.359,22.98,2.27c5.587,1.224,11.843,3.657,14.047,9.874
					c2.064,5.821-0.547,12.808-4.737,16.7c-4.189,3.892-9.586,5.359-14.818,6.497c-37.471,8.151-76.685,4.655-112.737-9.953
					c-5.381-2.18-11.128-5.037-13.852-10.962c-1.16-2.523-1.652-5.605-0.828-8.307c1.635-5.361,7.262-6.94,12.019-7.726
					c25.009-4.13,49.132-2.047,75.197-0.278C291.811,729.619,296.551,728.897,307.04,730.993z"/>
				<ellipse style="fill:#222221;" cx="264.627" cy="731.211" rx="34.191" ry="4.224"/>
				<path style="fill:#2C342C;" d="M266.82,686.155c15.174-3.726,30.788-4.471,46.134-2.201c6.064,0.897,12.819,2.862,16.04,9.528
					c2.956,6.116,1.738,14.476-1.675,20.185s-8.595,9.205-13.824,11.786c-14.726,7.269-30.909,8.569-46.614,6.679
					s-31.075-6.857-46.371-11.808c-7.388-2.391-15.159-5.052-20.556-11.966c-2.152-2.758-3.915-6.697-3.042-10.439
					c1.217-5.218,6.387-6.544,10.613-6.949c21.194-2.034,42.388-4.067,63.582-6.101L266.82,686.155z"/>
				<path style="fill:#222221;" d="M229.937,692.157c0.371,3.103,15.828,3.062,34.523-0.091c18.695-3.153,33.55-8.224,33.179-11.327
					s-15.828-3.062-34.523,0.09C244.42,683.982,229.565,689.054,229.937,692.157z"/>
				<path style="fill:#2C342C;" d="M269.128,628.38c13.225-3.764,27.37-1.975,39.771,5.028c2.424,1.369,4.833,2.979,6.646,5.46
					c1.362,1.864,2.328,4.141,3.196,6.441c1.667,4.418,3.051,9.254,2.621,14.133c-0.519,5.894-3.667,10.979-7.483,14.313
					c-3.816,3.334-8.278,5.184-12.672,6.993c-5.1,2.099-10.214,4.202-15.47,5.515c-4.934,1.232-9.958,1.757-14.977,2.101
					c-4.843,0.331-9.696,0.496-14.542,0.282c-8.429-0.372-16.8-1.886-25.152-3.398c-3.659-0.662-7.39-1.352-10.702-3.46
					c-7.814-4.974-11.665-18.28-8.279-28.611c1.638-4.997,4.643-9.066,7.94-12.449c5.616-5.763,12.263-9.854,19.276-11.866
					c10.035-2.879,20.476-1.502,30.701-0.112L269.128,628.38z"/>
				<path style="fill:#222221;" d="M232.218,631.979c0.212,2.101,14.035,1.86,30.874-0.538c16.839-2.398,30.317-6.045,30.105-8.146
					c-0.212-2.101-14.035-1.86-30.874,0.538S232.006,629.878,232.218,631.979z"/>
				<path style="fill:#2C342C;" d="M275.171,590.01c7.7-0.955,15.572,0.471,22.766,4.126c2.573,1.307,5.154,2.991,6.833,5.819
					c2.605,4.389,2.412,10.84,0.256,15.614c-2.157,4.774-5.957,8.018-9.982,9.941c-4.025,1.922-8.32,2.67-12.562,3.526
					c-4.891,0.988-9.771,2.138-14.706,2.646c-10.474,1.078-20.982-0.754-31.393-2.582c-2.499-0.439-5.023-0.885-7.387-2.017
					c-4.042-1.935-7.47-5.909-9.383-10.879c-0.81-2.104-1.361-4.424-1.283-6.769c0.187-5.622,3.841-10.013,7.596-12.907
					c2.658-2.048,5.504-3.691,8.461-4.884c2.793-1.126,5.676-1.849,8.57-2.414c11.071-2.162,22.504-2.017,33.34,1.615
					L275.171,590.01z"/>
			</g>
			<path style="fill:#B6BB44;" d="M721.11,406.454v-45.276h11.599c6.959,0,12.653-5.9,12.653-13.11v-10.925
				c0-7.211-5.694-13.11-12.653-13.11h-64.322c-6.959,0-12.653,5.9-12.653,13.11v10.925c0,7.211,5.694,13.11,12.653,13.11h11.599
				v45.276c-23.99,5.615-41.912,27.817-41.912,54.37v221.731h124.947V460.824C763.022,434.271,745.101,412.069,721.11,406.454z"/>
			<g>
				<path style="fill:#9B9B3A;" d="M656.511,452.166c0,0.333,0.142,0.661,0.391,0.983c0.278-1.07,0.698-2.077,1.243-3.002
					C657.088,450.79,656.511,451.467,656.511,452.166z"/>
				<path style="fill:#9B9B3A;" d="M747.194,452.166c0-0.699-0.576-1.376-1.634-2.02c0.545,0.925,0.966,1.932,1.243,3.002
					C747.052,452.827,747.194,452.499,747.194,452.166z"/>
				<path style="fill:#9B9B3A;" d="M656.511,645.958c0,0.7,0.576,1.376,1.634,2.019c-0.545-0.925-0.966-1.932-1.243-3.002
					C656.653,645.297,656.511,645.624,656.511,645.958z"/>
				<path style="fill:#9B9B3A;" d="M747.194,645.958c0-0.333-0.142-0.661-0.391-0.983c-0.277,1.07-0.698,2.077-1.243,3.002
					C746.618,647.334,747.194,646.657,747.194,645.958z"/>
				<path style="fill:#9B9B3A;" d="M701.853,459.76c-23.052,0-42.072-2.882-44.951-6.611c-0.247,0.951-0.391,1.944-0.391,2.973
					v185.88c0,1.029,0.144,2.022,0.391,2.973c2.88-3.729,21.9-6.611,44.951-6.611s42.071,2.882,44.951,6.611
					c0.247-0.951,0.391-1.944,0.391-2.973v-185.88c0-1.029-0.144-2.022-0.391-2.973C743.924,456.878,724.904,459.76,701.853,459.76z
					"/>
				<path style="fill:#9B9B3A;" d="M701.853,459.76c23.052,0,42.071-2.882,44.951-6.611c-0.278-1.07-0.699-2.077-1.243-3.002
					c-5.282-3.213-22.844-5.574-43.708-5.574c-20.864,0-38.426,2.361-43.708,5.574c-0.545,0.925-0.966,1.932-1.243,3.002
					C659.781,456.878,678.801,459.76,701.853,459.76z"/>
				<path style="fill:#9B9B3A;" d="M701.853,459.76c23.052,0,42.071-2.882,44.951-6.611c-0.278-1.07-0.699-2.077-1.243-3.002
					c-5.282-3.213-22.844-5.574-43.708-5.574c-20.864,0-38.426,2.361-43.708,5.574c-0.545,0.925-0.966,1.932-1.243,3.002
					C659.781,456.878,678.801,459.76,701.853,459.76z"/>
				<path style="fill:#9B9B3A;" d="M701.853,638.364c-23.052,0-42.071,2.882-44.951,6.611c0.278,1.07,0.698,2.077,1.243,3.002
					c5.282,3.213,22.844,5.574,43.708,5.574s38.426-2.361,43.708-5.574c0.545-0.925,0.966-1.932,1.243-3.002
					C743.924,641.246,724.904,638.364,701.853,638.364z"/>
				<path style="fill:#9B9B3A;" d="M701.853,638.364c-23.052,0-42.071,2.882-44.951,6.611c0.278,1.07,0.698,2.077,1.243,3.002
					c5.282,3.213,22.844,5.574,43.708,5.574s38.426-2.361,43.708-5.574c0.545-0.925,0.966-1.932,1.243-3.002
					C743.924,641.246,724.904,638.364,701.853,638.364z"/>
			</g>
			<path style="fill:#F19F53;" d="M453.349,316.382l-0.722,3.778l-8.335,43.473l-6.903,36.02l-5.991,31.245l-4.679,24.394
				l-10.38,54.154l-1.192,6.218l-1.172,6.114l-13.155-2.927h-0.02l-29.495-6.55c-0.01,0-0.01,0-0.01,0L3.123,430.556
				c0.982-8.574,2.204-17.169,3.667-25.795c2.084-12.249,4.508-24.217,7.264-35.895l19.697-64.96
				c15.239-40.587,34.875-77.032,58.029-109.388l246.383,86.925L453.349,316.382z"/>
			<path style="fill:#F4D19F;" d="M479.601,443.4c-20.055,54.209-65.458,86.579-101.411,72.301
				c-35.953-14.278-48.84-69.798-28.785-124.007s65.458-86.579,101.411-72.301S499.656,389.191,479.601,443.4z"/>
			<g>
				<path style="fill:#FFAA61;" d="M448.692,506.993c0,0-0.517,0.178-1.519,0.523c-0.501,0.172-1.123,0.386-1.862,0.641
					c-0.744,0.24-1.623,0.464-2.611,0.747c-0.984,0.303-2.106,0.543-3.342,0.805c-1.229,0.3-2.594,0.503-4.07,0.725
					c-0.736,0.131-1.505,0.218-2.304,0.28c-0.799,0.07-1.624,0.162-2.479,0.22c-1.712,0.042-3.535,0.137-5.459,0.022
					c-3.846-0.154-8.109-0.704-12.605-1.927c-4.493-1.217-9.213-3.109-13.888-5.806c-9.374-5.325-18.444-14.137-24.973-25.747
					c-1.688-2.87-3.111-5.959-4.494-9.129c-1.29-3.208-2.519-6.519-3.474-9.974c-1.032-3.435-1.769-7.009-2.445-10.647
					c-0.604-3.623-1.008-7.422-1.166-11.235c-0.547-15.255,2.86-31.616,10.972-46.297c4.045-7.32,9.234-14.227,15.636-20.081
					c6.375-5.847,14.052-10.618,22.545-13.314c1.018-0.329,2.203-0.62,3.296-0.886c1.109-0.22,2.214-0.469,3.344-0.597
					c2.244-0.335,4.53-0.435,6.811-0.355c4.564,0.151,9.117,1.163,13.347,2.938c8.502,3.545,15.518,10.126,20.205,17.898
					c4.718,7.775,7.365,16.722,8.134,25.56c0.098,1.104,0.097,2.283,0.146,3.42l0.051,1.719l-0.083,1.686
					c-0.071,1.122-0.079,2.249-0.204,3.365l-0.434,3.337c-0.058,0.558-0.156,1.109-0.283,1.655l-0.345,1.643
					c-0.227,1.096-0.443,2.193-0.789,3.257l-0.948,3.21l-1.181,3.126c-3.301,8.254-8.52,15.752-15.41,21.277
					c-3.471,2.715-7.322,4.926-11.438,6.443c-1.034,0.301-2.065,0.601-3.095,0.9c-1.127,0.195-2.263,0.401-3.387,0.555
					c-1.11,0.035-2.218,0.131-3.322,0.101l-1.655-0.133c-0.55-0.052-1.105-0.065-1.641-0.204c-4.359-0.733-8.43-2.664-11.767-5.351
					c-3.357-2.682-5.989-6.091-7.893-9.761c-3.782-7.361-5.079-15.645-3.804-23.406c1.254-7.706,4.791-14.828,10.086-19.994
					c2.645-2.573,5.754-4.628,9.129-5.88l0.311-0.128c0.081-0.03,0.037-0.023,0.222-0.083l0.154-0.044l0.613-0.175
					c0.414-0.113,0.803-0.24,1.234-0.34c0.921-0.133,1.857-0.373,2.75-0.357c1.8-0.156,3.592,0.152,5.293,0.585
					c3.383,1.021,6.328,3.061,8.401,5.648c2.11,2.563,3.51,5.535,4.284,8.538c0.233,0.743,0.319,1.512,0.482,2.258l0.112,0.601
					l0.057,0.548l0.114,1.09c0.047,0.745,0.055,1.535,0.057,2.284c-0.059,0.743-0.057,1.486-0.17,2.212
					c-0.358,2.914-1.222,5.665-2.471,8.117c-2.459,4.905-6.716,8.612-11.372,9.782c-2.415,0.55-4.838,0.252-6.82-0.761
					c-2.008-0.964-3.506-2.543-4.554-4.199c-1.054-1.67-1.662-3.455-1.986-5.156c-0.34-1.704-0.33-3.356-0.119-4.853
					c0.422-3.004,1.652-5.345,2.909-6.972c1.289-1.625,2.613-2.55,3.545-3.047c0.46-0.268,0.84-0.405,1.09-0.504
					c0.25-0.1,0.376-0.151,0.376-0.151s-0.125,0.055-0.371,0.164c-0.246,0.108-0.619,0.257-1.068,0.54
					c-0.909,0.525-2.187,1.489-3.398,3.129c-1.181,1.642-2.301,3.979-2.608,6.901c-0.157,1.448-0.104,3.034,0.27,4.665
					c0.353,1.629,0.981,3.316,2.013,4.861c1.026,1.533,2.457,2.956,4.304,3.78c1.805,0.881,4.04,1.064,6.107,0.544
					c4.308-1.201,8.151-4.723,10.349-9.385c1.109-2.325,1.849-4.92,2.112-7.635c0.089-0.677,0.065-1.366,0.105-2.054
					c-0.022-0.685-0.04-1.344-0.1-2.049l-0.142-1.086l-0.071-0.546l-0.109-0.482c-0.172-0.689-0.266-1.405-0.501-2.084
					c-0.799-2.754-2.109-5.438-4.031-7.695c-1.887-2.286-4.494-3.998-7.406-4.834c-5.939-1.692-12.585,1.343-17.29,6.088
					c-4.771,4.795-7.968,11.47-9.007,18.603c-1.075,7.086,0.276,14.817,3.818,21.425c1.784,3.29,4.172,6.288,7.124,8.619
					c2.945,2.331,6.466,3.955,10.206,4.555c0.46,0.122,0.938,0.12,1.41,0.161l1.42,0.106c0.949,0.017,1.903-0.082,2.858-0.109
					c0.912-0.151,1.825-0.302,2.74-0.454c0.96-0.286,1.922-0.572,2.886-0.859c3.696-1.403,7.172-3.432,10.328-5.937
					c6.251-5.112,11.081-12.093,14.154-19.806l1.097-2.923l0.876-3.003c0.324-0.994,0.519-2.021,0.728-3.045l0.32-1.536
					c0.119-0.51,0.209-1.025,0.26-1.546l0.398-3.116c0.114-1.041,0.115-2.092,0.18-3.138l0.076-1.571l-0.053-1.542
					c-0.05-1.036-0.035-2.039-0.13-3.103L462,398.569l-0.096-0.812l-0.128-0.7l-0.288-1.56c-0.2-1.038-0.464-2.062-0.696-3.093
					c-0.296-1.013-0.541-2.042-0.876-3.043c-1.287-4.015-2.96-7.918-5.172-11.487c-4.307-7.186-10.69-13.155-18.315-16.358
					c-3.797-1.604-7.869-2.521-11.969-2.668c-2.049-0.077-4.106,0.005-6.136,0.305c-1.02,0.11-2.023,0.338-3.03,0.532
					c-0.503,0.1-0.974,0.246-1.463,0.365c-0.487,0.128-0.959,0.233-1.483,0.417c-7.944,2.516-15.143,6.909-21.243,12.396
					c-6.107,5.494-11.124,12.047-15.06,19.037c-7.849,14.035-11.444,29.744-11.139,44.503c0.098,3.7,0.42,7.29,0.958,10.881
					c0.603,3.55,1.265,7.042,2.218,10.398c0.875,3.379,2.021,6.615,3.227,9.756c1.298,3.102,2.633,6.13,4.231,8.943
					c3.076,5.694,6.813,10.697,10.844,14.994c4.016,4.319,8.431,7.84,12.928,10.574c4.492,2.746,9.058,4.716,13.433,6.022
					c4.377,1.311,8.556,1.961,12.345,2.21c1.896,0.162,3.696,0.114,5.392,0.116c0.846-0.047,1.666-0.093,2.459-0.137
					c0.794-0.034,1.56-0.094,2.293-0.199c1.471-0.17,2.834-0.325,4.065-0.582c1.238-0.218,2.363-0.419,3.35-0.686
					c0.992-0.248,1.876-0.441,2.628-0.655c0.747-0.229,1.376-0.421,1.883-0.576C448.169,507.153,448.692,506.993,448.692,506.993z"
					/>
			</g>
			<path style="fill:#E67E3C;" d="M413.971,716.242l0.532,54.395c0,0,43.452,41.746,223.572,5.693l7.204-68.54L413.971,716.242z"/>
			<path style="fill:#D35E13;" d="M406.956,707.79c0,0,110.749-47.782,238.323,0C645.279,707.79,525.055,741.946,406.956,707.79z"/>
			<g>
				<path style="fill:#BCB21F;" d="M563.947,5.762c-8.556,32.096,2.134,64.815,2.134,64.815c-25.408,34.961,0,112.523,0,112.523
					c-10.239,5.678-0.601,39.58,5.06,56.728h0.01c1.974,5.979,3.467,9.913,3.467,9.913l-43.101,8.74
					c2.294-3.415,2.915-8.045,2.445-13.276c-1.964-21.539-22.612-53.365-22.612-53.365c18.274-31.681,1.052-113.623,1.052-113.623
					c17.202-27.414,9.919-58.275,2.094-77.458L563.947,5.762z"/>
				<path style="fill:#5E6338;" d="M514.614,80.157c0,0,0.696-0.334,1.932-0.853c1.235-0.519,3.007-1.237,5.166-1.991
					c1.078-0.382,2.25-0.789,3.505-1.165c1.253-0.382,2.574-0.8,3.964-1.141c1.387-0.348,2.819-0.739,4.298-1.021
					c1.475-0.3,2.983-0.57,4.497-0.814c1.518-0.222,3.03-0.395,4.528-0.529c1.487-0.153,2.949-0.22,4.352-0.336
					c1.399-0.105,2.751-0.207,4.033-0.303c1.274-0.125,2.481-0.228,3.591-0.357c1.107-0.144,2.125-0.277,3.026-0.426
					c0.908-0.168,1.7-0.314,2.352-0.434c0.78-0.113,1.336,0.159,1.613,0.474c0.138,0.179,0.104,0.375,0.06,0.457
					c-0.053,0.081-0.08,0.123-0.08,0.123c-0.023,0.023,0.149-0.252-0.107-0.446c-0.247-0.169-0.811-0.208-1.312,0.019
					c-0.574,0.284-1.333,0.672-2.203,1.016c-0.872,0.361-1.873,0.732-2.985,1.061c-2.216,0.689-4.861,1.25-7.68,1.685
					c-1.411,0.208-2.859,0.447-4.327,0.628c-1.457,0.203-2.946,0.381-4.416,0.611c-1.475,0.2-2.95,0.425-4.398,0.681
					c-1.453,0.247-2.883,0.491-4.266,0.726c-2.77,0.489-5.367,0.95-7.609,1.309c-2.237,0.376-4.121,0.634-5.444,0.8
					C515.379,80.098,514.614,80.157,514.614,80.157z"/>
				<path style="fill:#5E6338;" d="M513.294,192.662c0,0,0.191-0.05,0.549-0.143c0.361-0.081,0.881-0.236,1.561-0.356
					c1.358-0.282,3.308-0.595,5.662-0.79c1.175-0.099,2.45-0.198,3.793-0.239c1.345-0.054,2.757-0.118,4.214-0.126
					c1.449-0.028,2.946-0.058,4.468-0.087c1.513-0.025,3.044-0.079,4.564-0.175c1.544-0.084,3.017-0.218,4.502-0.384
					c1.471-0.204,2.926-0.377,4.308-0.676c1.377-0.308,2.716-0.597,3.952-0.987c1.243-0.373,2.393-0.803,3.455-1.222
					c1.045-0.454,1.993-0.906,2.826-1.342c0.809-0.471,1.535-0.87,2.099-1.258c0.584-0.362,1.014-0.691,1.319-0.905
					c0.308-0.214,0.471-0.328,0.471-0.328s-0.12,0.161-0.346,0.464c-0.238,0.291-0.548,0.767-1.043,1.27
					c-0.468,0.537-1.081,1.142-1.828,1.799c-0.386,0.311-0.798,0.643-1.231,0.992c-0.45,0.325-0.937,0.648-1.447,0.986
					c-1.037,0.639-2.189,1.306-3.474,1.845c-1.272,0.578-2.653,1.084-4.111,1.494c-1.457,0.41-2.977,0.771-4.539,1.019
					c-1.554,0.25-3.184,0.405-4.749,0.504c-1.589,0.061-3.172,0.078-4.724,0.065c-1.55-0.008-3.069-0.121-4.532-0.196
					c-1.462-0.071-2.87-0.21-4.201-0.315c-1.33-0.115-2.587-0.224-3.747-0.325c-2.317-0.191-4.258-0.354-5.618-0.437
					C514.078,192.716,513.294,192.662,513.294,192.662z"/>
			</g>
			<g>
				<path style="fill:#BCB21F;" d="M627.396,19.308c-8.857,29.075,0.992,70.929,0.992,70.929c-18.976,34.961,0,87.402,0,87.402
					c-12.854,16.276-8.296,41.075-4.018,55.379c2.044,6.82,4.018,11.263,4.018,11.263H581.86c0.551-2.055,1.012-4.1,1.383-6.104
					h0.01c6.061-32.106-8.636-57.258-8.636-57.258c9.718-37.224,5.33-98.333,5.33-98.333c9.598-14.522,9.889-48.175,8.616-72.558
					L627.396,19.308z"/>
				<path style="fill:#5E6338;" d="M580.833,82.87c0,0,0.694,0.125,1.886,0.405c1.181,0.268,2.868,0.652,4.892,1.112
					c1.006,0.219,2.096,0.457,3.249,0.708c1.146,0.265,2.374,0.456,3.622,0.729c1.257,0.227,2.556,0.462,3.875,0.701
					c1.318,0.241,2.664,0.433,4.006,0.65c1.347,0.183,2.691,0.389,4.021,0.543c1.331,0.155,2.641,0.308,3.909,0.456
					c1.272,0.103,2.502,0.275,3.673,0.357c1.174,0.095,2.285,0.185,3.309,0.268c2.068,0.15,3.792,0.275,4.998,0.362
					c1.215,0.08,1.918,0.163,1.918,0.163s-0.674,0.201-1.87,0.487c-0.597,0.149-1.326,0.309-2.169,0.446
					c-0.841,0.158-1.793,0.321-2.839,0.423c-1.044,0.141-2.18,0.242-3.384,0.297c-1.204,0.082-2.476,0.098-3.793,0.099
					c-1.315-0.037-2.678-0.06-4.055-0.195c-1.382-0.085-2.774-0.291-4.17-0.463c-1.386-0.242-2.777-0.452-4.127-0.774
					c-1.357-0.276-2.672-0.648-3.944-0.998c-1.264-0.384-2.479-0.774-3.613-1.202c-1.141-0.403-2.202-0.834-3.166-1.271
					c-0.974-0.402-1.847-0.838-2.613-1.235c-0.774-0.377-1.428-0.743-1.957-1.058C581.428,83.26,580.833,82.87,580.833,82.87z"/>
				<path style="fill:#5E6338;" d="M576.628,181.454c0,0,0.184-0.039,0.528-0.111c0.346-0.06,0.847-0.182,1.497-0.266
					c1.3-0.206,3.163-0.421,5.403-0.508c2.24-0.11,4.848-0.078,7.619-0.003c2.748,0.103,5.679,0.213,8.61,0.323
					c2.918,0.086,5.783,0.075,8.487-0.09c1.345-0.097,2.65-0.18,3.876-0.346c1.228-0.157,2.383-0.352,3.454-0.545
					c1.061-0.227,2.036-0.449,2.9-0.673c0.852-0.254,1.611-0.456,2.222-0.67c0.62-0.194,1.098-0.377,1.43-0.494
					c0.334-0.115,0.512-0.176,0.512-0.176s-0.148,0.119-0.425,0.342c-0.285,0.21-0.683,0.565-1.245,0.916
					c-0.549,0.381-1.238,0.808-2.057,1.252c-0.416,0.21-0.858,0.433-1.324,0.669c-0.474,0.219-0.983,0.421-1.513,0.643
					c-1.068,0.409-2.243,0.831-3.515,1.14c-1.267,0.342-2.62,0.623-4.03,0.834c-2.811,0.42-5.868,0.554-8.859,0.473
					c-3.002-0.095-5.97-0.377-8.726-0.708c-1.379-0.156-2.705-0.357-3.961-0.523c-1.255-0.175-2.442-0.341-3.537-0.493
					C579.567,181.849,576.628,181.454,576.628,181.454z"/>
			</g>
			<g>
				<path style="fill:#BCB21F;" d="M701.856,165.079c-14.437,21.985-8.486,49.763-5.34,60.497c0.831,2.855,1.473,4.505,1.473,4.505
					l-41.478,3.82c0.661-1.536,1.252-3.083,1.763-4.64c10.37-31.048-6.682-64.732-6.682-64.732
					c12.714-13.173,13.035-66.372,12.774-83.925v-0.073c-0.05-3.519-0.12-5.585-0.12-5.585c5.35-8.315,3.697-27.051,0.771-43.483
					c12.023,4.401,23.855,9.27,35.477,14.615c-1.082,18.363,6.452,37.608,6.452,37.608
					C680.586,119.187,701.856,165.079,701.856,165.079z"/>
				<path style="fill:#5E6338;" d="M664.208,80.504c0,0,0.639,0.087,1.736,0.301c1.084,0.2,2.633,0.486,4.492,0.829
					c0.922,0.159,1.921,0.33,2.978,0.512c1.05,0.195,2.174,0.309,3.316,0.504c1.153,0.141,2.335,0.326,3.544,0.453
					c1.205,0.156,2.434,0.259,3.66,0.388c1.229,0.093,2.457,0.21,3.67,0.273c1.214,0.064,2.409,0.128,3.566,0.189
					c1.158,0.014,2.283,0.101,3.35,0.099c1.071,0.011,2.084,0.021,3.018,0.031c1.889-0.003,3.463-0.005,4.565-0.007
					c1.11-0.012,1.758,0.017,1.758,0.017s-0.594,0.251-1.656,0.626c-0.53,0.194-1.179,0.408-1.934,0.606
					c-0.752,0.22-1.606,0.453-2.551,0.63c-0.94,0.217-1.968,0.399-3.062,0.539c-1.092,0.168-2.252,0.272-3.453,0.365
					c-1.202,0.053-2.449,0.124-3.714,0.082c-1.267,0.009-2.55-0.106-3.834-0.186c-1.278-0.152-2.56-0.272-3.806-0.508
					c-1.253-0.189-2.469-0.479-3.643-0.75c-1.168-0.307-2.292-0.62-3.34-0.98c-1.054-0.334-2.035-0.7-2.925-1.081
					c-0.899-0.344-1.705-0.728-2.412-1.08c-0.714-0.332-1.315-0.659-1.801-0.942C664.754,80.858,664.208,80.504,664.208,80.504z"/>
				<path style="fill:#5E6338;" d="M654.212,164.534c0,0,0.162,0.061,0.465,0.176c0.297,0.134,0.754,0.266,1.302,0.449
					c1.131,0.334,2.751,0.663,4.716,0.779c0.983,0.06,2.05,0.062,3.185,0.057c1.136-0.014,2.34-0.092,3.6-0.141
					c2.531-0.12,5.248-0.188,7.956-0.194c2.71,0.002,5.42,0.06,7.961,0.179c2.54,0.133,4.913,0.293,6.944,0.507
					c2.017,0.207,3.651,0.323,4.822,0.233c0.581-0.046,1.045-0.101,1.359-0.161c0.316-0.061,0.485-0.094,0.485-0.094
					s-0.147,0.094-0.423,0.271c-0.284,0.159-0.708,0.404-1.286,0.62c-1.144,0.465-2.907,0.836-4.953,1.012
					c-2.034,0.218-4.404,0.381-6.945,0.518c-2.541,0.123-5.251,0.185-7.961,0.191c-2.712-0.003-5.415-0.063-7.966-0.185
					c-2.559-0.135-5.015-0.397-7.063-0.964c-2.058-0.521-3.67-1.354-4.691-2.039c-0.519-0.352-0.893-0.657-1.133-0.876
					C654.342,164.651,654.212,164.534,654.212,164.534z"/>
			</g>
			<g>
				<path style="fill:#BCB21F;" d="M777.468,219.814c1.282,4.36,2.766,6.986,2.766,6.986l-44.694,3.28
					c1.252-2.574,2.224-5.201,2.945-7.848c6.993-25.453-8.336-52.794-8.336-52.794c13.706-16.38,4.218-51.611,4.218-51.611
					c9.097-13.308,6.973-36.487,4.018-52.296c10.71,6.124,21.2,12.685,31.409,19.671c-3.687,26.086,7.805,38.355,7.805,38.355
					c-16.341,22.401,6.853,58.452,6.853,58.452C773.36,196.728,775.033,211.458,777.468,219.814z"/>
				<path style="fill:#5E6338;" d="M735.201,116.991c0,0,0.659,0.172,1.785,0.532c1.116,0.345,2.711,0.838,4.625,1.43
					c1.906,0.581,4.121,1.244,6.501,1.892c2.376,0.66,4.915,1.316,7.469,1.905c2.551,0.6,5.117,1.13,7.536,1.588
					c1.214,0.223,2.387,0.438,3.499,0.642c1.128,0.185,2.142,0.352,3.11,0.46c1.916,0.202,3.516,0.121,4.638-0.117
					c0.553-0.129,0.999-0.248,1.293-0.359c0.299-0.108,0.458-0.166,0.458-0.166s-0.129,0.115-0.37,0.331
					c-0.25,0.205-0.629,0.504-1.164,0.806c-1.059,0.611-2.772,1.207-4.855,1.387c-1.029,0.102-2.178,0.14-3.328,0.094
					c-1.162-0.032-2.39-0.076-3.654-0.197c-2.529-0.23-5.214-0.659-7.859-1.272c-1.32-0.316-2.636-0.657-3.912-1.06
					c-1.28-0.387-2.526-0.817-3.714-1.281c-1.195-0.442-2.32-0.957-3.384-1.439c-1.067-0.477-2.049-0.989-2.947-1.478
					c-1.797-0.964-3.236-1.903-4.217-2.581C735.741,117.419,735.201,116.991,735.201,116.991z"/>
				<path style="fill:#5E6338;" d="M731.076,170.645c0,0,0.763,0.336,2.063,0.981c0.646,0.333,1.456,0.667,2.347,1.114
					c0.894,0.438,1.943,0.866,3.041,1.4c1.132,0.471,2.333,1.022,3.625,1.549c1.28,0.554,2.665,1.047,4.068,1.619
					c0.711,0.26,1.434,0.525,2.166,0.792c0.736,0.253,1.487,0.492,2.231,0.767c1.502,0.509,3.036,1.004,4.589,1.426
					c0.768,0.239,1.544,0.454,2.32,0.654c0.774,0.205,1.542,0.427,2.314,0.602c1.537,0.38,3.054,0.747,4.533,1.056
					c1.483,0.282,2.914,0.589,4.284,0.82c1.374,0.224,2.672,0.436,3.871,0.631c1.178,0.158,2.265,0.265,3.221,0.262
					c0.953-0.019,1.785-0.116,2.455-0.296c0.668-0.182,1.181-0.406,1.522-0.586c0.336-0.195,0.515-0.299,0.515-0.299
					s-0.133,0.162-0.41,0.452c-0.289,0.27-0.731,0.677-1.396,1.039c-0.659,0.368-1.525,0.717-2.551,0.935
					c-1.026,0.225-2.194,0.353-3.465,0.37c-1.243,0.01-2.595,0.02-4.018-0.077c-0.713-0.047-1.445-0.094-2.194-0.143
					c-0.748-0.063-1.507-0.173-2.282-0.26c-1.542-0.229-3.146-0.437-4.747-0.8c-0.806-0.158-1.612-0.343-2.416-0.556
					c-0.807-0.199-1.615-0.408-2.414-0.653c-1.601-0.476-3.18-1.026-4.725-1.59c-1.548-0.557-3.022-1.243-4.452-1.883
					c-1.421-0.665-2.769-1.363-4.019-2.079c-1.27-0.671-2.406-1.435-3.469-2.098c-2.092-1.387-3.761-2.683-4.879-3.623
					C731.691,171.221,731.076,170.645,731.076,170.645z"/>
			</g>
		</g>
	</g>
</g>
<g id="Layer_1">
</g>
</svg>
