<?xml version="1.0" encoding="utf-8"?>
<!-- Generator: Adobe Illustrator 19.2.1, SVG Export Plug-In . SVG Version: 6.00 Build 0)  -->
<!DOCTYPE svg PUBLIC "-//W3C//DTD SVG 1.1//EN" "http://www.w3.org/Graphics/SVG/1.1/DTD/svg11.dtd">
<svg version="1.1" id="Livello_1" xmlns="http://www.w3.org/2000/svg" xmlns:xlink="http://www.w3.org/1999/xlink" x="0px" y="0px"
	 viewBox="0 0 828.7 828.7" style="enable-background:new 0 0 828.7 828.7;" xml:space="preserve">
<style type="text/css">
	.st0{fill:#87C9F0;}
	.st1{fill:#D6C300;}
	.st2{fill:#6CA439;}
	.st3{fill:#94C01F;}
	.st4{fill:#AF8400;}
	.st5{fill:#F3E4B2;}
	.st6{fill:#683C11;}
	.st7{opacity:0.41;fill:#232222;enable-background:new    ;}
	.st8{fill:#F4F4F4;}
	.st9{fill:#ECECEC;}
	.st10{fill:#FDFBFD;}
	.st11{fill:#F8B133;}
	.st12{fill:#E8D5D3;}
	.st13{fill:#A07800;}
</style>
<g>
	<path class="st0" d="M783.8,249c-3.3-0.5-6.6,0.6-9.8,1.2c-10.8,1.9-22.4-2.9-28.7-11.9c-1.7-2.4-3.2-5.2-5.7-6.7
		c-2.1-1.2-4.7-1.4-7.2-1.5c-11.7-0.4-23.9-1.1-34.3-6.6c-17.5-9.4-25.3-29.9-31.7-48.8c-8.5,0.6-17.2-2-24-7.1l-0.7-0.4
		c-26,16.2-62.3,13.7-85.9-5.8c-4.7-3.9-8.9-8.4-11.6-13.8c-6.3-12.5-2.7-29.2,8.2-38c-24.5,0.2-45.1-25.5-41.5-49.7
		c2.7-18.2,17.4-33,35-38.6C504.5,7.5,460.3,0,414.3,0c-16.4,0-32.6,1-48.5,2.8c7.5,3.7,14.6,8,20.3,14c8,8.4,13,20.4,10.2,31.6
		c-2.9,11.3-12.5,19.2-21.6,26.4c-10.9,8.6-23.5,17.7-37.3,16.2c0.7,11.3,0.9,22.9-3.3,33.4c-4.1,10.4-13.6,19.5-24.9,20
		c3.9,20.6-3.3,43-18.6,57.3c-18.1,17-44.2,21.6-68.7,25.3c-8.8,31-20.4,65.4-49.4,79.4c-16.4,7.9-35.5,7.5-53.7,6l8.1,2.3
		c-11.5,12.1-30.1,16.8-45.9,11.5c-5.7,15.3-19.1,28-35.1,31.5c-14.4,3.1-30.4-1.8-40.1-12.7C2,367.5,0,390.7,0,414.3
		c0,32.9,3.8,64.9,11.1,95.6c31-15.1,206.8-95.5,464-104.6c229.2-8.1,324.3,24.8,352.5,37.8c0.7-9.5,1-19.1,1-28.8
		c0-55.7-11-108.8-30.9-157.3c-1.3-0.8-2.6-1.7-3.9-2.6C790.7,252.1,787.6,249.5,783.8,249z"/>
	<path class="st1" d="M475.1,405.3c-257.2,9.1-433,89.5-464,104.6c43.2,182.7,207.3,318.7,403.2,318.7
		c219.1,0,398.5-170.1,413.3-385.5C799.4,430.1,704.3,397.2,475.1,405.3z"/>
	<path class="st2" d="M45.9,357.7c16-3.5,29.4-16.2,35.1-31.5c15.8,5.3,34.4,0.6,45.9-11.5l-8.1-2.3c18.2,1.5,37.3,1.9,53.7-6
		c29-14,40.6-48.4,49.4-79.4c24.5-3.7,50.6-8.3,68.7-25.3c15.3-14.3,22.5-36.7,18.6-57.3c11.3-0.5,20.8-9.6,24.9-20
		c4.2-10.5,4-22.1,3.3-33.4c13.8,1.5,26.4-7.6,37.3-16.2c9.1-7.2,18.7-15.1,21.6-26.4c2.8-11.2-2.2-23.2-10.2-31.6
		c-5.7-5.9-12.8-10.3-20.3-14C182.7,24.2,36.1,164.8,5.8,345C15.5,355.9,31.5,360.8,45.9,357.7z"/>
	<path class="st3" d="M545.9,21.3c-17.5,5.5-32.3,20.4-35,38.6c-3.6,24.2,17,49.9,41.5,49.7c-10.9,8.8-14.5,25.5-8.2,38
		c2.7,5.4,6.9,9.9,11.6,13.8c23.6,19.5,59.9,22,85.9,5.8l0.7,0.4c6.8,5.1,15.5,7.7,24,7.1c6.4,18.9,14.2,39.4,31.7,48.8
		c10.4,5.5,22.6,6.2,34.3,6.6c2.5,0.1,5.1,0.3,7.2,1.5c2.5,1.5,4,4.3,5.7,6.7c6.3,9,17.9,13.8,28.7,11.9c3.2-0.6,6.5-1.7,9.8-1.2
		c3.8,0.5,6.9,3.1,10,5.4c1.3,0.9,2.6,1.8,3.9,2.6C752.2,146.3,660.1,59.6,545.9,21.3z"/>
</g>
<path class="st4" d="M431.9,487.4l-6-182c0,0,12.5,0,9.6,0s7.3,185.1,7.3,185.1L431.9,487.4z"/>
<path class="st5" d="M190.5,563.2c-3.3-0.6-38.2,30.1-38.2,30.1s335.4,95.8,354,94.3l177-135c0,0-229.7-79.9-305.5-77
	S190.5,563.2,190.5,563.2z"/>
<polygon class="st6" points="179.1,534.2 186.3,581 207.5,581 193.3,540 "/>
<polygon class="st6" points="377.8,486.6 385.4,541.1 406.1,535.3 388.8,491.2 "/>
<polygon class="st7" points="181,546.6 182.5,556.3 200.1,559.5 197.5,549.8 "/>
<polygon class="st6" points="227.4,550.7 236,598.9 258.3,591.1 238.8,546.6 "/>
<polygon class="st7" points="380.2,503.6 381.4,512.4 395.4,508 391.2,497.3 "/>
<polygon class="st7" points="228.7,558.7 230.2,566.4 245.8,562.6 242.1,552.6 "/>
<path class="st8" d="M174.8,521.4c0,0-27-50.3-8-65.3s113.8-36.8,113.8-36.8s68.6-48,92-38.5s19.5,70.8,15.6,75.3
	S247.6,523.7,174.8,521.4z"/>
<polygon class="st6" points="179.1,548.7 179.1,534.8 223.1,550.9 394.4,487.4 394.4,501.9 223.7,563.2 "/>
<polygon class="st6" points="510.4,557.6 513.2,607.8 529.1,605.6 522.1,559.5 "/>
<polygon class="st6" points="465.9,533.1 468,593.3 484.2,588.3 476.5,538.6 "/>
<path class="st9" d="M173.2,517.8l-0.3,13.1c0,0,43,22.7,50.2,20.1s180.7-60.8,180.7-69.7s-7.8-25.7-9.5-25.1s-168.4,68-170.1,69.2
	S183.8,512.7,173.2,517.8z"/>
<polygon class="st7" points="466,536.2 466,544.8 478.3,550.4 476.9,541.1 "/>
<path class="st10" d="M179.1,516c0,0,83.7-38.2,121.6-43.2c0,0,36.3-30.7,79.2-23.4c0,0,13.9,0.6,14.5,10.6s-164.5,73.1-174,72.5
	S179.1,516,179.1,516z"/>
<polygon class="st6" points="582.3,532.5 582.3,575.5 599.1,572.7 591.3,525.3 "/>
<path class="st11" d="M193.3,332.5c0,0,81-154.3,232.7-158.8s211.2,46.9,243.2,107.8L193.3,332.5z"/>
<polygon class="st7" points="510.4,556 510.8,565.2 524.1,572.7 522.1,559.5 "/>
<polygon class="st7" points="582.3,532.5 582.3,541.1 593.6,537.5 591.5,526.7 "/>
<path class="st6" d="M464.8,521.5v16.1l63.4,28.8l69.2-36.6v-21.2c0,0-63.6,44.5-70.3,42.6S464.8,521.5,464.8,521.5z"/>
<path class="st10" d="M531.1,448.3c-2.8,0.1-64,32.4-68.1,42.1c-4.2,9.8,59.8,45.5,68.1,42.1c8.3-3.3,66.1-42.9,64.4-43.9
	C593.7,487.5,556.3,447.2,531.1,448.3z"/>
<path class="st9" d="M464.8,486.6c0,0-5.2-2-5.7,3.8s0,31.1,0,31.1s53.5,32.1,68,29.7c14.5-2.4,78.1-42.3,77.5-46.3
	s-9.5-23.9-13.9-18.3c-4.5,5.6-54.5,37.2-59.6,34.9C526,519.1,464.8,486.6,464.8,486.6z"/>
<path class="st12" d="M150,597.7c-2.8-0.8-5.8,0.2-8,2s-3.7,4.4-4.7,7.1c-2.1,5.4-2.6,12,0.7,16.8c1.6,2.3,3.9,4,6.3,5.5
	c4.7,2.9,9.9,5,15.3,6.3c4.3,1,8.7,1.4,13,0.3c4.2-1.1,8.2-3.9,9.8-8c1.6-3.9,0.8-8.5-1.3-12.3c-2-3.7-5.2-6.7-8.5-9.4
	c-3.1-2.5-6.4-4.9-9.9-6.6c-4.4-2.1-9.3-3.3-14.2-3.3L150,597.7z"/>
<path class="st12" d="M167.8,644.8c-7.7-2-16.1,3.9-18.1,11.7c-2,7.7,1.6,16.2,7.7,21.4c6.1,5.2,14.2,7.4,22.2,7.6
	c4.7,0.2,9.7-0.4,13.8-2.7c6.2-3.4,9.8-10.8,8.9-17.8c-0.9-6.7-5.8-12.4-11.7-15.9s-12.6-5-19.3-6.3c-2.7-0.5-5.6-0.9-8.1,0.1
	s-4.4,4.1-3.2,6.6L167.8,644.8z"/>
<path class="st12" d="M231.3,629.2c-4.9-1-10,1.3-14.1,4.2c-2.3,1.6-4.5,3.4-6.2,5.6c-6.2,7.8-6,20,0.6,27.5s18.7,9.4,27.2,4.2
	c6.2-3.7,10.1-10.4,12.1-17.4c2.2-7.3,2-16.4-3.8-21.3c-4.6-3.9-11.2-4-17.2-3.9c-2.3,0-5.3,0.8-5.3,3L231.3,629.2z"/>
<path class="st13" d="M133.7,471.2c-2.6-46.3-2.8-92.8-4-139.1c-0.3-11.9-0.5-24.5,5.3-34.9c5.4-9.9,15.3-16.4,24.4-23.3
	c20.2-15.3,37.4-34.1,54.7-52.6c23.1-24.6,46.9-49,65.3-77.3s31.2-61.4,29.9-95.2c-9.4,54.3-50.5,96.7-89.6,135.5
	c-23.4,23.2-47,46.6-74.2,65.4c4.8-23,6.8-46.5,5.8-69.9c-0.1-3.2-0.3-6.5,0.7-9.6c1.2-3.7,4-6.6,6.7-9.4
	c35.7-37,66-79.1,89.6-124.7C227,68.2,190.6,86.9,165,115.6c-11.8,13.2-22.3,29.3-39,35.2c-12.6,4.4-28.9,3.3-36.3,14.4
	c-4.6,6.9-3.7,16-4,24.3c-0.6,17.1-7,33.5-9.8,50.5c-5.1,30.5,1.7,61.5,4.1,92.3c4,50.4-3.6,101-1.7,151.5c0.1,2.4,0.2,4.8,1.2,6.9
	c2.4,5.1,9,6.9,14.4,5.6c15-3.7,32.1-19,42.7-29.6L133.7,471.2z"/>
<path class="st12" d="M214.2,683.7c-1.8-2.3-5.4-1.4-8.1-0.2c-5.6,2.6-11.4,6.3-13.2,12.3c-1.9,6,1,12.6,5.6,16.8s10.8,6.3,16.8,7.9
	c5.8,1.5,11.9,2.6,17.7,1.4s11.5-5,13.4-10.7c1.9-6-0.7-12.7-5.1-17.1c-4.5-4.4-10.4-6.9-16.4-8.8c-4.8-1.5-9.7-2.8-14.6-3.7
	L214.2,683.7z"/>
<path class="st12" d="M272.9,713.9c-10.4-1.7-21.6,4.5-25.8,14.2s-0.9,22,7.5,28.4c7.6,5.8,17.9,6.5,27.5,6.4
	c4.9-0.1,9.9-0.3,14.1-2.7c6.7-3.8,9.6-12,10.6-19.6c0.8-6.2,0.5-13.1-3.5-17.9c-3.2-3.8-8.2-5.6-13.1-6.7
	c-5.8-1.3-11.7-1.9-17.6-1.7c-1.2,0-2.8,0.4-2.9,1.6L272.9,713.9z"/>
<path class="st12" d="M285.4,656.4c-8.5-0.7-15.3,6.6-20.6,13.2c-3.8,4.8-7.8,10-8.1,16.1c-0.4,7.2,4.7,13.8,11.1,17
	s13.8,3.8,20.9,3.6c2.7-0.1,5.4-0.2,7.9-1.1c5.8-2,9.9-7.4,12.1-13.1c3.2-8.3,3.1-17.9-1.1-25.7s-12.7-13.4-21.5-13.2
	c-3.1,0.1-7,1.7-6.9,4.8L285.4,656.4z"/>
<path class="st12" d="M360.6,668.8c-15.2-1.9-31.3,3.6-42,14.6c-2.1,2.2-4.1,4.6-5.1,7.4c-0.9,2.5-1,5.3-0.9,7.9
	c0.2,5.5,1.4,11.2,5.3,15.1c4.9,5,12.6,5.6,19.6,5.9c9,0.4,17.9,0.8,26.9,1.2c5.5,0.2,11.3,0.4,16-2.4c4.8-2.8,7.5-8.4,7.8-14
	c0.3-5.5-1.6-11-4.4-15.8c-6.4-11.1-17.9-19.2-30.5-21.5L360.6,668.8z"/>
<path class="st12" d="M339,725.5c-8.3-1-16.4,4.6-20.3,12s-4.4,16.1-3.5,24.4c0.2,1.8,0.4,3.5,1.1,5.2c0.9,2.1,2.4,3.9,4,5.5
	c10.9,10.2,28.4,11.1,41.7,4.5c3-1.5,6-3.4,8.1-6c3.5-4.2,4.6-9.9,4.7-15.4c0.1-5.1-0.7-10.3-3-14.8c-3.1-6-8.8-10.4-15.1-12.9
	s-13.2-3.1-19.9-2.9c-1.6,0-3.3,0.1-4.8,0.8L339,725.5z"/>
<path class="st12" d="M406.6,757.6c-6.2-2.2-13,0.8-18.9,3.7c-2.9,1.5-6,3-8.1,5.5c-3.3,3.9-3.6,9.7-1.9,14.5s5.1,8.8,8.9,12.3
	c5.8,5.4,13,10,20.9,10.2c6.2,0.2,12.2-2.3,17.2-6c4.6-3.4,8.7-8,9.6-13.7c1.1-7.1-3.1-14.2-8.9-18.5s-12.9-6.4-19.8-8.4
	c-0.4,0.3-0.8,0.5-1.2,0.8L406.6,757.6z"/>
<path class="st12" d="M419.3,693.5c-11.6-0.5-23.9,3.5-31,12.8s-7,23.9,1.7,31.6c2.9,2.5,6.4,4.1,9.9,5.6c2.6,1.1,5.4,2.2,8.2,2.2
	c2.8,0,5.4-0.9,8-1.8c4.2-1.6,8.4-3.4,11.8-6.4c4.9-4.3,7.5-11,7.5-17.5s-2.5-13-6.5-18.2c-3.9-5.1-10.2-9.3-16.5-8L419.3,693.5z"/>
<path class="st12" d="M481.7,684.8c-5.7-3.2-12.9-1.5-19,0.9c-7.6,3-15.5,7.5-18.5,15.1c-3.3,8.3,0.3,18,6.3,24.7
	c7.4,8.2,18.6,13.1,29.5,11.9c11-1.2,21.2-9,24.4-19.5c3.2-10.5-1.5-23.2-11.2-28.4c-3.2-1.7-6.7-2.6-10-4.1
	c-1.4-0.7-2.9-1.5-4.3-1.1s-2.3,2.7-0.9,3.4L481.7,684.8z"/>
<path class="st12" d="M473.6,743.6c-6.1-2.1-13.3-0.3-17.7,4.5c-2.1,2.3-3.6,5.2-5.7,7.6c-1.5,1.6-3.2,3-4.4,4.9
	c-1.2,1.9-1.6,4.2-1.6,6.4c0,9.9,7.9,18.2,16.9,22.5c8.5,4.1,18.7,5.5,27.4,2c8.7-3.6,15.4-12.8,14.2-22.2c-0.7-5.7-4-10.7-7.2-15.5
	c-2.7-4-5.5-8.1-9.6-10.5c-4-2.3-8.8-2.7-13.5-3c-1.6-0.1-3.3-0.2-4.7,0.5c-1.4,0.7-2.5,2.4-2,3.9L473.6,743.6z"/>
<path class="st12" d="M512.4,780.4c-4-2.2-9-0.9-13,1.3c-6.2,3.4-11.4,9.1-13,16s0.8,14.9,6.7,18.8c4,2.6,9,3.3,13.7,2.7
	s9.2-2.2,13.7-3.9s9.1-3.5,12.1-7.3c4.9-6.2,3.1-15.8-2.4-21.4c-5.5-5.6-13.7-7.8-21.5-8c-1.1,0-2.6,0.3-2.7,1.4L512.4,780.4z"/>
<path class="st12" d="M554.6,740.9c-7.7-0.8-15.7-1.4-23.2,0.5s-14.8,6.6-17.8,13.8c-0.6,1.4-1,3-0.9,4.5c0.2,4.2,4,7.3,7.6,9.6
	c8.1,5.1,16.8,9.3,25.8,12.3c4.7,1.6,9.7,2.9,14.7,2.2c4.9-0.6,9.9-3.6,11.6-8.3c0.6-1.7,0.8-3.6,1-5.5c0.4-5.4,0.8-11-0.3-16.3
	s-4-10.5-8.6-13.3c-4.7-2.8-11.3-2.6-15.1,1.3L554.6,740.9z"/>
<path class="st12" d="M651.7,743.1c-3-6.9-9.9-11.2-16.4-15c-4.5-2.6-9-5.2-14-6.7c-12.5-3.7-27.4,1.4-34.2,12.6s-3.9,27.5,6.8,34.9
	c5.8,4,13.1,5.3,20.2,6c4.3,0.5,8.6,0.8,12.9-0.1c7.5-1.5,13.9-6.7,17.8-13.2c3.9-6.6,5.3-14.4,4.9-22L651.7,743.1z"/>
<path class="st13" d="M711.2,425.4c0.4-62.6,7.6-125.1,21.4-186.1c-19.7,0-36.8-13-51.5-26.1c-11.2-10.1-22-20.7-32.8-31.2
	c-20.3-19.8-41.9-42.8-42.3-71.1c22,36.2,52.2,67.5,87.7,90.7c-4.8-12.6-6.5-26.3-5.1-39.7c4.7,13.3,7.1,27.4,13.5,39.9
	c6.5,12.5,18.8,23.5,32.9,22.7c14.4-0.8,25.1-13.1,34-24.5c1.9,16.6-6.1,32.6-11,48.6c-4.7,15.3-6.7,31.3-8.7,47.3
	c-4.3,34.6-8.7,69.2-13,103.9c-1.3,10.4-2.4,21.7,2.9,30.8c-10.2,1.5-21-1.1-29.4-7.1L711.2,425.4z"/>
</svg>
