<?xml version="1.0" encoding="utf-8"?>
<!-- Generator: Adobe Illustrator 19.2.1, SVG Export Plug-In . SVG Version: 6.00 Build 0)  -->
<!DOCTYPE svg PUBLIC "-//W3C//DTD SVG 1.1//EN" "http://www.w3.org/Graphics/SVG/1.1/DTD/svg11.dtd">
<svg version="1.1" id="Livello_1" xmlns="http://www.w3.org/2000/svg" xmlns:xlink="http://www.w3.org/1999/xlink" x="0px" y="0px"
	 viewBox="0 0 828.7 828.7" style="enable-background:new 0 0 828.7 828.7;" xml:space="preserve">
<style type="text/css">
	.st0{fill:#87C9F0;}
	.st1{fill:#94C01F;}
	.st2{fill:#C38068;}
	.st3{fill:#E7EFFA;}
	.st4{fill:#B6BD00;}
	.st5{fill:#C4D600;}
	.st6{fill:#FFDA61;}
	.st7{fill:#AB063B;}
	.st8{fill:#F5C400;}
	.st9{fill:#C7DAF3;}
	.st10{fill:#C29416;}
	.st11{fill:#BE3A4A;}
	.st12{fill:#BCB21F;}
	.st13{fill:#AD9F1E;}
</style>
<g>
	<g>
		<path class="st0" d="M828.6,414.3c0,2.6,0,5.3-0.1,7.9c-0.1,6.3-0.4,12.6-0.8,18.9c-0.3,4.8-0.7,9.6-1.2,14.4
			c-0.4,4.2-0.9,8.4-1.4,12.6c-2.6,20-6.6,39.5-11.9,58.5c-3.5,12.5-7.6,24.8-12.3,36.9v0c-2.2,5.8-4.6,11.5-7.1,17.2
			c-4.9,11.2-10.3,22.2-16.2,32.9c-8.4,15.2-17.6,29.8-27.8,43.8c-11.2,15.4-23.5,30.1-36.7,43.8c-36.6,38.1-80.3,69.2-129.1,91.2
			c-24.1,10.8-49.4,19.5-75.7,25.5c-26.6,6.2-54.1,9.8-82.4,10.6c-3.9,0.1-7.7,0.2-11.6,0.2c-25.1,0-49.6-2.2-73.5-6.5
			c-24.5-4.4-48.3-10.9-71.1-19.4c-24.9-9.3-48.6-20.9-71-34.5c-32.8-20-62.7-44.5-88.6-72.6c-11.4-12.3-22.1-25.4-32-39
			c-18.4-25.4-33.9-53-46.1-82.3c-0.9-2-1.7-4.1-2.5-6.2c-1-2.5-2-5-2.9-7.5c0-0.1-0.1-0.2-0.1-0.2C9.3,514.8,0,465.7,0,414.3
			c0-7.1,0.2-14.2,0.5-21.3c0.1-1.4,0.1-2.7,0.2-4.1l0.3-5c4.4-60.5,21.7-117.3,49.3-167.8c0,0,0,0,0,0c18-32.9,40.2-63.1,66.1-89.8
			c0,0,0,0,0,0C191.8,48.4,297.4,0,414.3,0c106.1,0,202.8,39.9,276.1,105.4c37.4,33.5,68.8,73.7,92,118.7
			c25.5,49.3,41.5,104.4,45.3,162.8v0.1c0.5,8.3,0.8,16.7,0.9,25.1C828.6,412.8,828.6,413.6,828.6,414.3z"/>
	</g>
	<path class="st1" d="M318.9,53.9c-20.1,1.6-34.8,19-47.1,35c-2.3,3-4.7,6.5-4,10.2c0.9,4.8,6.2,7.1,10.9,8.3
		c9.2,2.5,18.7,4.1,28.3,4.8c-11.7,5.3-22.7,12.2-32.6,20.4c-2.6,2.1-5.4,4.9-5.2,8.2c0.2,3.7,3.9,6.1,7.2,7.7
		c13.1,6.2,27.8,9,42.2,8c-13.1,5.8-27.1,12.5-33.8,25.1c-2.1,4-3.3,9.2-0.9,13c2.1,3.2,6.1,4.6,9.8,5.4
		c34.2,7.8,72.5-7.6,91.8-36.9c3.8-5.8,7-12.3,7-19.2c0.1-13.9-14.8-25.7-28.3-22.5c5.3-7.7,10.7-15.5,13.3-24.5
		c2.7-8.9,2.4-19.2-3-26.9c-8.1-11.6-24.3-13.5-38.4-14.3c-6.8-0.4-13.5-0.8-20.3-1.1c-3-0.2-7.5,1.9-5.8,4.4L318.9,53.9z"/>
	<path class="st2" d="M334.7,172.7c-4.6,42.1-9.8,84-15.7,125.9c9.9,0.7,19.9,1.3,29.8,2c-3.6-10.2-3.1-21.4-2.6-32.3
		c1.1-23.2,1.6-46.5,1.5-69.7c0-13.6-0.7-28.3-9.7-38.5c-1.3,9.8-1.6,19.7-0.9,29.5L334.7,172.7z"/>
	<path class="st3" d="M828.6,414.3c0,2.6,0,5.3-0.1,7.9c-0.1,6.3-0.4,12.6-0.8,18.9c-0.3,4.8-0.7,9.6-1.2,14.4
		c-0.4,4.2-0.9,8.4-1.4,12.6c-21.9,4-44.5,4.3-66.1,9.7c-3.8,1-7.7,2.1-10.5,4.9c-6.5,6.4-3.3,16.4-2.1,26c0.3,2.5,0.5,5,0.4,7.3
		c-0.4,6.9-3.7,12.6-8.5,17.2c-5.1,4.8-11.9,8.3-19.1,10.9c0,0,0,0,0,0c-4.6,1.6-9.4,2.8-14.1,3.7c-14.3,2.5-28.6,3.9-43,4.3
		c-51,1.6-102.7-7.5-154-12.1h0c-24.9-2.2-49.7-3.4-74.3-1.7c-13.5,0.9-26.9,2.7-40.2,5.6c-10.2,2.3-22.4,7.8-22.4,18.2
		c-0.1,7.5,6.5,13.1,9.6,19.9c2.8,6,2.5,12.6,0.1,18.7c-2.4,6.2-6.9,12-12.5,16c-1.8,1.3-3.8,2.5-5.8,3.4c-8,3.7-16.7,4.9-25.5,5
		c-6.9,0-13.8-0.6-20.7-1.3c-3.5-0.4-7-0.7-10.4-1.1c-16.2-1.8-32.4-3.9-48.6-6.2c-8.6-1.2-17.2-2.5-25.8-3.8
		c-19-3-37.9-6.3-56.8-9.9c-7.1-1.4-14.1-2.8-21.2-4.2c0,0,0,0,0,0c-38-7.8-75.7-16.9-113.1-27.3c-3.7-1-7.4-2.1-11.2-3.2
		c-1-2.5-2-5-2.9-7.5c-4.1-1.4-0.1-0.2-0.1-0.2C9.3,514.8,0,465.7,0,414.3c0-7.1,0.2-14.2,0.5-21.3c0.1-1.4,0.1-2.7,0.2-4.1
		c20.5-5,40.7-13.7,61.3-19.4c5.6-1.5,11.3-2.8,17-3.8c16.2-2.6,32.7-2.3,49.2-1.3c11.6,0.6,23.2,1.5,34.8,1.9c0,0,0,0,0,0
		c0.8,0,1.7,0,2.5,0.1c13.3,0.3,26.5-0.4,39.7-1.6c11.5-1.1,23-2.6,34.5-4.5c10.5-1.7,21-3.7,31.5-5.7c8.6-1.7,17.2-3.5,25.8-5.3
		c32.1-6.6,64.2-13.4,96.7-16.4c36.5-3.4,73-2.1,109.3,2.3c12.5,1.5,24.9,3.4,37.3,5.7c30.2,5.4,60.2,12.6,89.9,20.8
		c8.8,2.4,17.6,5,26.4,7.5c11.3,3.3,22.5,6.7,33.7,10.2c7,2.2,14,4.3,21,6.5c16.3,5,32.8,9.9,49.4,14.1c20.2,5.1,40.6,9.3,60.9,11.4
		c2.4,0.3,4.7,0.5,7.1,0.7C828.6,412.8,828.6,413.6,828.6,414.3z"/>
	<path class="st4" d="M826.6,455.4c-0.4,4.2-0.9,8.4-1.4,12.6c-2.6,20-6.6,39.5-11.9,58.5c-3.5,12.5-7.6,24.8-12.3,36.9v0
		c-2.2,5.8-4.6,11.5-7.1,17.2c-4.9,11.2-10.3,22.2-16.2,32.9c-8.4,15.2-17.6,29.8-27.8,43.8c-11.2,15.4-23.5,30.1-36.7,43.8
		c-36.6,38.1-80.3,69.2-129.1,91.2c-24.1,10.8-49.4,19.5-75.7,25.5c-26.6,6.2-54.1,9.8-82.4,10.6c-3.9,0.1-7.7,0.2-11.6,0.2
		c-25.1,0-49.6-2.2-73.5-6.5c-24.5-4.4-48.3-10.9-71.1-19.4c-24.9-9.3-48.6-20.9-71-34.5c-32.8-20-62.7-44.5-88.6-72.6
		c-11.4-12.3-22.1-25.4-32-39c-18.4-25.4-33.9-53-46.1-82.3c-0.9-2-1.7-4.1-2.5-6.2c-1-2.5-2-5-2.9-7.5c7.8,2.7,15.7,5.2,23.6,7.7
		c38.9,12,78.7,20.9,119,26.8c0.1,0,0.3,0,0.4,0.1h0c1.3,0.2,2.5,0.4,3.8,0.6c0,0,0,0,0,0c1.8,0.2,3.5,0.5,5.3,0.8
		c0.1,0,0.2,0,0.3,0c18.6,2.5,37.2,4.4,55.9,5.5h0c0.1,0,0.2,0,0.3,0c3.3,0.2,6.7,0.4,10.1,0.6c3.8,0.2,7.5,0.3,11.2,0.5h0.1
		c15.5,0.5,31,0.6,46.5,0.3h0.4c4.2-0.1,8.4-0.2,12.6-0.4h0.3c0.5,0,1,0,1.5-0.1c10.7-0.5,22.8-2.5,32.4-7.1
		c0.2-0.1,0.4-0.2,0.6-0.3c2-1,3.9-2.1,5.6-3.4c2.7-2,5-4.3,6.9-6.9c2-3,3.4-6.3,3.8-10.2c0.9-6.8-1.3-13.8,0.3-20.4
		c3.3-13.3,19.4-18.2,33-20.2c6.5-1,13-1.8,19.5-2.5c0.1,0,0.1,0,0.2,0h0c0.5-0.1,1-0.1,1.4-0.2c0.5-0.1,1.1-0.1,1.6-0.2h0.1
		c0.3,0,0.5-0.1,0.8-0.1s0.5-0.1,0.8-0.1c1.4-0.1,2.8-0.3,4.2-0.4c0,0,0.1,0,0.1,0c54.3-5.2,109.9-3.9,163.9-8.9c0.1,0,0.2,0,0.3,0
		h0c9.9-0.9,19.7-2,29.4-3.5h0c0,0,0,0,0,0h0.1c18.4-2.7,36.6-6.4,54.3-11.7l18.8-6.2c3.3-1.2,6.7-2.5,10-3.9
		c8.8-3.6,17.7-8,23.5-15.5c3.9-5.2,6.2-11.7,10.9-16.2c6-5.8,14.7-7.3,23-8.2C784.4,454.4,805.5,454.8,826.6,455.4z"/>
	<path class="st5" d="M0.8,388.9c-0.1,1.4-0.2,2.7-0.2,4.1c28.2,2.3,56.1,3.6,84,4.7c13.7,0.6,27.4,1.1,41.1,1.6
		c17.6,0.7,35.2,1.5,53,2.6c9,0.6,18,1.2,27.1,2c0.9,0.1,1.7,0.1,2.6,0.2c0,0,0.1,0,0.1,0c16,1.3,31.9,2.6,48,3.6c0,0,0.1,0,0.1,0
		c5.7,0.3,11.3,0.6,17,0.9v0h0.1c33.8,1.5,67.7,1.1,101.1-4.2c34.2-5.5,67.7-15.9,102.3-18.5c1.6-0.1,3.2-0.2,4.8-0.3
		c19.4-1.1,38.6,0.2,57.7,3.1c28.7,4.3,57.1,12,85.5,20c4.1,1.2,8.2,2.4,12.2,3.5c4.1,1.2,8.1,2.3,12.2,3.5c0,0,0,0,0,0
		c17.7,5,35.4,9.7,53.2,13.6c7,1.5,13.9,2.9,21,4.1c0,0,0.1,0,0.1,0c16.3,2.8,32.8,4.9,49.3,6.2c18.2,1.4,36.4,1.9,54.7,1.4
		c0.4-6.2,0.7-12.5,0.8-18.9c0.1-2.6,0.1-5.2,0.1-7.9c0-0.7,0-1.5,0-2.2c0-8.4-0.3-16.8-0.9-25.1v-0.1c-9.9-6.3-19.5-13-28.7-19.9
		c-5.4-4.1-10.8-8.3-16.2-12.5c-14.6-11.5-29-23.5-43.7-34.9c-12.8-10-25.9-19.7-39.5-28.4c-1.9-1.2-3.9-2.5-5.9-3.7
		c-2.6-1.5-5.2-3-7.8-4.5c-6.5-3.7-13.2-7.2-20-10.5c-6.5-3-13.3-5.8-20.3-8.1c-0.1,0-0.1,0-0.2-0.1c-10-3.3-20.3-5.9-30.8-7.5
		c-0.1,0-0.2,0-0.2,0c-3.6-0.5-7.1-1-10.7-1.3c0,0,0,0,0,0c-2.1-0.2-4.3-0.4-6.4-0.5c-3.6-0.2-7.2-0.3-10.8-0.2
		c-5.2,0.1-10.3,0.4-15.4,1c-0.1,0-0.1,0-0.2,0h0c-2.9,0.4-5.9,0.8-8.8,1.4c-0.1,0-0.2,0-0.2,0c-2.7,0.5-5.3,1.1-7.9,1.8
		c-15.5,4-30.1,11.1-42.7,21.7c-5.3,4.5-10.4,9.7-17,11.9c-1.1,0.4-2.2,0.6-3.4,0.8c-5.7,1-11.8,0.1-17.5-0.8
		c-6.4-1-12.9-2.1-19.3-3.1c-11-1.8-22-3.5-33-5.3c-6.6-1-13.1-2.1-19.7-3.1c-12.6-2-25.2-4-37.9-3.5h0c-1.6,0.1-3.2,0.2-4.9,0.3
		c-2.9,0.3-5.7,0.7-8.5,1.2c-0.2,0-0.3,0.1-0.5,0.1c0,0,0,0,0,0c-1.2,0.2-2.4,0.5-3.6,0.8c-8.6,1.9-17,4.7-25.3,7.7
		c-0.8,0.3-1.7,0.6-2.5,0.9c-3.5,1.2-7.1,2.5-10.6,3.7c-0.2,0.1-0.3,0.1-0.5,0.2c-4.8,1.6-9.7,3.3-14.5,4.9
		c-0.2,0.1-0.4,0.1-0.5,0.2h0c-12.3,4.1-24.5,8.3-36.9,12.3c-0.2,0.1-0.4,0.1-0.6,0.2c-10.8,3.5-21.7,7.1-32.5,10.5
		c-0.1,0-0.2,0.1-0.3,0.1c-15,4.7-30,9.5-45.1,14.1l-0.2,0.1c-2.9,0.9-5.8,1.8-8.7,2.7c-4.8,1.5-9.6,2.9-14.3,4.3h0
		c-30.4,9.1-60.9,17.8-91.5,26.2c-20.1,5.5-40.3,10.9-60.6,16.1L0.8,388.9z"/>
	<path class="st6" d="M371.7,190.3c-1.3,3.3-9.3,98.7-9.3,98.7l128,17.3l2.7-80.7L371.7,190.3z"/>
	<path class="st7" d="M451.7,149.3l-43.9-11c0,0-17.3,44.7-15.3,47C394.4,187.6,451.7,149.3,451.7,149.3z"/>
	<path class="st8" d="M490.4,306.3l62.7-39.3c0,0,8.7-85.3,6.7-84.7c-2,0.7-66.7,43.3-66.7,43.3L490.4,306.3z"/>
	<polygon class="st9" points="389.1,213.6 382.4,258.9 397.7,258.9 407.7,222.3 	"/>
	<polygon class="st10" points="420.1,284 435.1,218.9 469.7,229.6 453.1,292.9 	"/>
	<polygon class="st7" points="462.9,128.9 523.1,158.3 493.1,225.6 	"/>
	<polygon class="st11" points="376.4,190.3 462.9,128.9 493.1,225.6 	"/>
	<polygon class="st11" points="560,181.9 523.1,158.3 493.1,225.6 	"/>
	<path class="st12" d="M221.7,320.5c-30.6,27.9-68.1,48.6-96.1,78.8c-13.7-0.5-27.4-1-41.1-1.6c13-11.2,26.9-21.2,40.9-31.2
		c13.8-9.9,27.7-19.9,42-29L221.7,320.5z"/>
	<path class="st12" d="M292.1,297.2c-20.2,23.4-68.5,80.3-83.8,106.8c-0.9-0.1-1.8-0.1-2.7-0.2c-9.1-0.8-18.1-1.4-27.1-2
		c11.4-17,41.2-59.7,76.2-92.1C267.2,305.6,279.7,301.5,292.1,297.2z"/>
	<path class="st12" d="M349.8,279c-14,8.6-26.1,20.2-35.1,33.9c-12.4,18.6-18.9,40.4-26.8,61.3c-4.4,11.6-9.1,23.1-14.4,34.4
		c-5.7-0.3-11.4-0.6-17.1-0.9c0.3-3.6,1-7.3,1.8-10.9c8.2-38,25.1-74,48.9-104.7c3.5-1.2,7.1-2.5,10.6-3.7
		C328.3,284.8,338.9,281,349.8,279z"/>
	<path class="st12" d="M598.9,254.8l1.2-3.2C599.1,252.4,598.5,253.7,598.9,254.8z"/>
	<path class="st12" d="M600.5,250.6c0.1,0.2,0.2,0.4,0.4,0.6c-0.3,0.1-0.5,0.3-0.8,0.5L600.5,250.6z"/>
	<path class="st12" d="M649.5,415.6c-8.2-2.3-16.3-4.6-24.5-7c1.2-16.5,4.4-32.8,5.3-49.4c1.9-36.3-7.6-73-26.7-103.9
		c-0.9-1.4-1.8-2.8-2.7-4.2l13.4,5.5c8.7,5.8,16.4,13.2,22.6,21.7c14.4,19.7,20.1,44.7,20.5,69.1
		C657.7,370.4,653.7,393.1,649.5,415.6z"/>
	<path class="st12" d="M773,439.5c0.3-9.1-2.9-18-6.5-26.4c-12-28.4-27.9-55-43.8-81.4c-9.1-15.1-18.2-30.4-29.2-44.1l0,0
		l-48.1-23.2c21.6,20.9,37.7,47.3,49.5,75.1c12.8,30.1,21,62,28.8,93.8L773,439.5z"/>
	<path class="st12" d="M828.6,414.3c0,2.6,0,5.3-0.1,7.9c-2.5-3.5-4.8-7.1-7-10.8c-2.3-3.7-4.5-7.4-6.7-11
		c-9.8-15.9-20.5-31.2-32-45.8c5.4,4.2,10.8,8.4,16.2,12.5c9.2,7,18.8,13.6,28.7,19.9c0.5,8.3,0.8,16.7,0.9,25.1
		C828.6,412.8,828.6,413.6,828.6,414.3z"/>
	<path class="st12" d="M539.5,388.6c-19.1-2.9-38.3-4.2-57.7-3.1c15.5-48.6,43.4-93.1,80.2-128.4l0,0l9-1.4
		C546.2,294.9,534.9,342.5,539.5,388.6z"/>
	<path class="st13" d="M749.8,657.3c-11.2,15.4-23.5,30.1-36.7,43.8c-88.1-69-234.2-141.4-279.4-163.1c-7.8-3.8-12.6-6-13.5-6.4h0
		c-0.1,0-0.2-0.1-0.2-0.1c0.5-0.1,1.1-0.1,1.6-0.2c0.5-0.1,1.1-0.1,1.6-0.2h0.1c0.3,0,0.5-0.1,0.8-0.1s0.5-0.1,0.8-0.1
		c1.4-0.1,2.8-0.2,4.2-0.3c0,0,0.1,0,0.1,0c24.4-1.5,51.1,2.1,78.8,9.2h0C591.2,561,683.4,613.9,749.8,657.3z"/>
	<path class="st13" d="M813.2,526.6c-3.5,12.5-7.6,24.8-12.3,36.9c-21.3-11-43-21.4-62.7-30.4c-25.3-11.5-47.2-20.9-60.7-26.5
		l18.6-6.1l0.2-0.1c15.1,1.3,32.2,4.2,50,8.2c21.2,4.7,43.6,10.9,65.1,17.5C812.1,526.2,812.7,526.4,813.2,526.6z"/>
	<path class="st13" d="M584.1,792.3c-24.1,10.8-49.4,19.5-75.7,25.5c-34-64.7-105.8-158.3-139.9-201.3c-4.7-6-8.7-11-11.8-14.8
		c-3.2-4-5.4-5.6-6.4-6.2c-0.4-0.2-0.5-0.3-0.5-0.3c0.4,0,0.8,0,1.2,0c4-0.2,8.2-1.3,12.5-0.4c5.6,1.2,11.4,3.1,17.4,5.6
		C448.8,628.9,538.2,734.1,584.1,792.3z"/>
	<path class="st13" d="M793.8,580.7c-4.9,11.2-10.3,22.2-16.2,32.9c-39.8-24.5-81.8-45.7-115.5-61.6c-39.6-18.6-68.1-29.9-68.7-30.1
		c0,0,0.1,0,0.1,0h0c8.7-2.8,18.6-3.9,29.4-3.5h0c0,0,0,0,0,0h0.1c28,0.9,61.8,11.2,96.1,25.6c0,0,0,0,0,0
		C744.6,554.7,770.2,567.6,793.8,580.7z"/>
	<path class="st13" d="M269.7,802.7c-24.9-9.3-48.6-20.9-71-34.5c7.1-62.1,25.2-128.8,33-155.6c1.5-5.1,2.6-8.8,3.1-10.7
		c0,0,0-0.1,0-0.1c0.1-0.4,0.2-0.2,0.3,0c0.1,0.2,0.1,0.6,0.1,0.6h21.1l0.2,0.5l0.9,13.5L269.7,802.7z"/>
	<path class="st13" d="M178.4,596.8c-0.6,1.3-1.8,3.3-3.5,5.9c-10.4,15.7-39.3,52.7-64.8,92.8c-11.4-12.3-22.1-25.4-32-39
		c23.4-26.1,49.9-49.2,75.6-58c0,0,0,0,0,0c5.2-1.8,10.3-3,15.4-3.5c0.1,0,0.3,0,0.4,0h0c1.3-0.1,2.5,0.2,3.8,0.6c0,0,0,0,0,0
		C175,596,176.7,596.7,178.4,596.8z"/>
	<path class="st13" d="M178.9,596.3c0,0.2-0.2,0.5-0.4,0.5c0,0-0.1,0-0.1,0c0.1-0.2,0.1-0.3,0.2-0.5
		C178.8,595.7,178.9,596,178.9,596.3z"/>
	<path class="st13" d="M50.1,568.1c-2.7,0.8-5.9,1.8-9.5,3c-2.7,0.9-5.6,1.9-8.6,3c-0.9-2-1.7-4.1-2.5-6.2c-1-2.5-2-5-2.9-7.5
		c-4.1-1.4-0.1-0.2-0.1-0.2L50.1,568.1z"/>
	<path class="st13" d="M303.5,603.1c-0.1,0-0.3,0.1-0.4,0.1C303.1,603.2,303.3,601.2,303.5,603.1z"/>
	<path class="st13" d="M425.9,828.4c-3.9,0.1-7.7,0.2-11.6,0.2c-25.1,0-49.6-2.2-73.5-6.5C326,762.9,312,666,306.1,622.6
		c-1.2-9-2.1-15.8-2.6-19.4c0,0,0-0.1,0-0.1v0c4-1.3,8.2-3.2,12.7-0.4c0,0,0.1,0.1,0.2,0.1c6.6,4,13.6,11.8,20.8,22.2
		C370.9,673.5,409.1,779.1,425.9,828.4z"/>
	<path class="st1" d="M270.9,224.3c1.8,2.8,1.1,6.5,0,9.6c-11.1,32.9-44.6,51.9-75.4,67.9c-7.9,4.1-15.7,8.2-23.6,12.3
		c-5.8,3-11.5,6-17.3,9c-12.3,6.4-24.6,12.8-36.8,19.2c-9.9,5.2-21.8,10.3-31.6,5.1c-10.5-5.6-12.3-20.7-7-31.3
		c5.2-10.6,15.5-17.7,25.3-24.3c-11.5,3-23.6,4.3-35.5,3.8c-4.4-0.2-9.4-1-11.7-4.7c-1.7-2.8-1.4-6.4-0.7-9.6
		c4.1-19.6,17.2-37.2,34.8-46.7c-6.6,3.5-13.3,7.1-20.8,7.7c-7.5,0.6-15.7-2.4-19-9.1c-1.9-3.9-1.9-8.4-1.6-12.8
		c0.1-1.4,0.2-2.8,0.4-4.1c0,0,0,0,0,0c18-32.9,40.2-63.1,66.1-89.8c0,0,0,0,0,0c21.8-11.4,43.6-22.7,65.4-34.1
		c20.4-10.7,43.3-21.6,65.5-15.5c5.3,1.4,10.6,4.1,13.5,8.8c3.6,5.9,2.6,13.5,0.6,20.1c-4.7,15.7-14.1,30-26.7,40.4
		c9.5-0.2,19.1,0.8,28.4,2.7c3.4,0.7,7.3,1.9,8.8,5.1c1.7,3.5-0.2,7.6-2.2,11C257.3,186,242,205.7,224.4,223
		c12.5-4.9,26.6-5.9,39.6-2.6C266.6,221.1,269.4,222,270.9,224.3z"/>
	<polygon class="st2" points="153,343.8 159.7,258.9 178.5,343.8 	"/>
	<path class="st1" d="M757.1,241.2c4.7,3.3,9.6,6.9,12.2,12c2.6,5.1,2,12.4-2.9,15.5c-4.3,2.8-10.1,1.4-15-0.2
		c-18.1-5.7-36.3-11.5-54.5-17.3c-2.6-0.8-5.1-1.6-7.7-2.4c-10.3-3.3-20.6-6.5-30.9-9.8c-11.4-3.6-25.4-11.6-22.3-23.1
		c2.6-9.8,15.4-11.8,25.6-11.9c-8.7-3.1-17.4-6.6-24.3-12.7c-6.9-6.1-11.4-15.7-9.2-24.6c2.2-8.9,12.8-15.6,21.1-11.7
		c-6.3-11.5-5.7-26.4,1.5-37.4s20.7-17.4,33.8-16.2l-5.8,5c3.9-0.5,7.8-0.8,11.7-1c37.4,33.5,68.8,73.7,92,118.7
		C776.6,232.8,767.4,239.3,757.1,241.2z"/>
	<polygon class="st2" points="684.6,297.2 693.6,202.2 701.1,313.4 	"/>
	<path class="st1" d="M582.5,195.6c-1.1-4.7-6.1-7.5-10.7-8.8c-4.7-1.4-9.8-2.1-13.5-5.3c-5.8-5-5.8-14.4-2-21.1
		c3.7-6.7,10.3-11.3,16.6-15.6c-9.7-3.3-18.3-10.3-22.9-19.5c-4.6-9.2-5.1-20.5-0.6-29.8c6.3-13,21-20.1,35.3-22.5
		c6.8-1.2,15.1-0.9,18.8,4.9c3.3,5.2,0.1,13.3-5.9,14.7c10.9,3.5,17.4,15.2,18.7,26.6c2.1,17.7-6.4,36.3-21.1,46.3
		c8.3-0.5,14.1,8.7,14.7,17c0.7,9.3-3,18.9-9.8,25.3c-3.4,3.3-8,5.9-12.7,5.4s-9.1-5.1-8-9.7c0.9-3.7,4.9-7.1,3.2-10.5L582.5,195.6z
		"/>
	<path class="st2" d="M587.1,264.4c-1.5-3.5,0-78.6,0-78.6l11.6,78.6H587.1z"/>
</g>
</svg>
