<?xml version="1.0" encoding="iso-8859-1"?>
<!-- Generator: Adobe Illustrator 19.2.1, SVG Export Plug-In . SVG Version: 6.00 Build 0)  -->
<svg version="1.1" xmlns="http://www.w3.org/2000/svg" xmlns:xlink="http://www.w3.org/1999/xlink" x="0px" y="0px"
	 viewBox="0 0 964 964" style="enable-background:new 0 0 964 964;" xml:space="preserve">
<g id="Sauna">
	<g>
		<path style="fill:#FED771;" d="M964,486.894c0,586.825-882.761,658.347-959.008,68.807
			C-31.928,270.239,174.265,26.376,440.238,1.964C711.498-22.933,964,191.673,964,486.894z"/>
		<path style="fill:#DFE3EB;" d="M44.948,439.245c-12.737-13.945-16.672-35.317-9.738-52.89s24.4-30.487,43.222-31.96
			c-7.754-12.305-4.31-29.422,5.275-40.36s24-16.528,38.333-18.959c11.513-1.953,23.817-2.018,34.332,3.066
			c10.515,5.083,18.658,16.323,17.285,27.928c17.234-14.186,43.921-15.388,62.359-2.808c-26.563-12.729-48.501-38.483-49.51-67.938
			s24.388-59.317,53.738-56.867c-5.429-29.092,10.075-60.858,36.34-74.457c19.004-9.839,48.205-6.347,54.319,14.172
			c17.882-16.27,42.875-26.967,66.325-21.116c23.45,5.851,41.696,32.565,32.757,55.036c12.492-6.805,25.079,8.9,30.212,22.174
			c9.924,25.666,17.444,52.262,22.43,79.327c12.708-17.174,44.767-11.844,51.243,8.52c-9.855-14.907-11.05-35.134-3.019-51.099
			s24.979-27.052,42.815-28.009c-20.131-5.687-31.695-29.511-27.478-50.014c4.218-20.503,21.246-36.723,40.728-44.343
			c12.141-4.749,26.158-6.53,38.058-1.206c11.9,5.324,20.421,19.259,16.541,31.712c11.296-12.811,26.236-22.368,42.598-27.249
			c9.072-2.707,19.043-3.948,27.875-0.539s15.944,12.55,14.508,21.913c21.69-4.071,42.404,14.569,48.695,35.736
			c6.291,21.168,1.941,43.861-2.442,65.504c10.947-8.628,28.458-2.795,36.074,8.883c7.616,11.678,7.497,26.795,4.957,40.506
			c12.059-11.655,33.359-11.802,45.577-0.313c12.218,11.489,13.397,32.772,2.522,45.542c14.669-3.457,31.089,2.167,40.566,13.893
			c9.477,11.726,11.538,28.971,5.093,42.603c14.097,9.64,22.087,27.52,19.869,44.462c-2.218,16.941-14.542,32.158-30.645,37.838
			c14.459-2.658,29.788,9.673,30.302,24.376c0.242,6.918-1.972,14.948,2.749,20.007c3.693,3.958,10.086,4.055,14.243,7.522
			c6.659,5.555,3.945,17.224-3.006,22.408c-6.951,5.184-16.204,5.716-24.867,6.049c-32.127,1.234-67.413,1.471-92.326-18.866
			c-6.292-5.136-11.986-11.616-19.793-13.849c-5.674-1.623-11.726-0.757-17.557,0.153c-33.07,5.161-66.249,11.388-99.707,10.48
			c-33.458-0.908-67.834-9.637-93.458-31.186c-5.423-4.56-10.499-9.713-16.844-12.863c-6.042-2.999-12.855-3.99-19.55-4.805
			c-39.451-4.804-80.384-5.143-116.883-20.879c-5.992-2.584-11.879-5.587-18.257-6.962c-7.245-1.562-14.766-0.944-22.13-0.11
			c-45.855,5.194-93.714,18.269-136.874,1.922c-5.846-2.214-11.726-4.991-17.975-4.864c-7.325,0.149-13.889,4.242-20.317,7.762
			c-21.529,11.792-45.891,18.359-70.425,18.985c-11.825,0.301-26.297-2.687-29.89-13.965c-20.094,19.362-54.495,21.422-76.754,4.597
			c-6.873-5.195-10.483-18.878-1.938-19.965L44.948,439.245z"/>
		<g>
			<path style="fill:#CEA052;" d="M343.927,694.559l-67.06,14.56l-28.287,6.135l-37.518,8.144l-31.628,6.869l-39.606,8.596
				l-59.353,12.883c-11.048-16.278-20.982-33.188-29.782-50.59c-7.817-15.454-14.751-31.31-20.771-47.457
				c-6.211-16.629-11.459-33.569-15.744-50.73c-5.599-22.413-9.553-45.198-11.83-68.143c17.47-3.454,48.024-9.499,83.606-16.539
				c13.446-2.681,27.615-5.493,42.064-8.365c92.336-18.366,196.182-39.183,197.847-40.297l0.05-0.01c0.02,0,0.04,0.02,0.06,0.04
				c1.696,1.797,6.492,62.59,10.687,120.51c1.385,18.959,2.699,37.616,3.813,53.783c1.937,27.775,3.291,48.25,3.432,50.419
				C343.927,694.498,343.927,694.559,343.927,694.559z"/>
			<g>
				
					<rect x="10.82" y="567.426" transform="matrix(0.979 -0.2039 0.2039 0.979 -112.7664 46.6654)" style="fill:#AF8400;" width="318.404" height="6.025"/>
			</g>
			<g>
				
					<rect x="26.494" y="618.649" transform="matrix(0.9774 -0.2114 0.2114 0.9774 -127.4207 51.6683)" style="fill:#AF8400;" width="302.8" height="6.025"/>
			</g>
			<g>
				
					<rect x="47.728" y="669.163" transform="matrix(0.9793 -0.2024 0.2024 0.9793 -132.072 52.5132)" style="fill:#AF8400;" width="286.121" height="6.025"/>
			</g>
			<path style="fill:#AF8400;" d="M92.067,606.19c0,0,47.161-36.15,193.663-27.113C285.73,579.077,217.496,632.298,92.067,606.19z"
				/>
			<path style="fill:#FFC56C;" d="M285.73,579.077l-3.693,54.125l-2.107,30.928l-6.241,91.68l-123.423,12.05l-27.183-75.503
				l-12.352-34.333L92.067,606.19C211.475,628.281,285.73,579.077,285.73,579.077z"/>
			<g>
				
					<rect x="161.387" y="608.885" transform="matrix(0.9331 -0.3595 0.3595 0.9331 -236.6359 104.7757)" style="fill:#D87900;" width="4.014" height="159.499"/>
			</g>
			<g>
				
					<rect x="201.817" y="610.462" transform="matrix(0.9824 -0.1866 0.1866 0.9824 -124.2774 50.0601)" style="fill:#D87900;" width="4.014" height="149.675"/>
			</g>
			<g>
				
					<rect x="242.701" y="601.854" transform="matrix(0.9941 -0.1081 0.1081 0.9941 -72.0481 30.4417)" style="fill:#D87900;" width="4.014" height="155.58"/>
			</g>
			<path style="fill:#FEFEFE;" d="M282.037,633.202l-2.107,30.928c-15.112,10.875-61.34,36.16-156.847,28.227l-12.352-34.333
				C144.787,667.404,219.172,678.359,282.037,633.202z"/>
			<path style="fill:#B88400;" d="M622.882,414.396l-2.92,0.542l-193.292,35.939h-0.01l-100.574,18.708l-0.171,0.03l-0.05,0.01
				l-198.158,39.896l-41.643,8.385l-83.727,16.85c-3.703-37.164-3.02-74.74,2.137-111.774l28.869-5.784l319.614-64.056
				L622.882,414.396z"/>
			<path style="fill:#F6B221;" d="M167.324,622.256c-3.01-1.004-58.199-78.325-58.199-78.325l10.034-6.025l69.739,84.35H167.324z"/>
			<polygon style="fill:#F6B221;" points="213.482,622.256 219.503,556.985 235.558,556.985 230.541,622.256 			"/>
			<ellipse style="fill:#F6B221;" cx="109.125" cy="524.852" rx="24.085" ry="24.102"/>
			<ellipse style="fill:#F6B221;" cx="232.547" cy="541.923" rx="20.57" ry="20.585"/>
			<path style="fill:#CEA052;" d="M942.015,626.486c-6.271,18.838-13.787,36.994-22.427,54.426
				c-8.349,16.87-17.751,33.077-28.106,48.562c-9.824,14.711-20.49,28.779-31.939,42.185c-12.252,14.38-25.387,27.986-39.294,40.779
				l-476.341-118.07l-1.987-0.492l-3.612-50.459l-12.443-173.791l0.11,0.03L942.015,626.486z"/>
			<path style="fill:#B88400;" d="M964,503.837v0.01c-1.606,43.48-9.252,84.45-21.985,122.639L325.976,469.655l-0.11-0.03l0.05-0.01
				l0.171-0.03l99.952-18.908l191.827-36.28l2.097,0.542l307.111,79.359L964,503.837z"/>
			<g>
				
					<rect x="624.732" y="308.935" transform="matrix(0.238 -0.9713 0.9713 0.238 -113.5395 1074.1064)" style="fill:#AF8400;" width="6.025" height="600.951"/>
			</g>
			<g>
				<polygon style="fill:#AF8400;" points="890.749,732.396 335.93,593.088 333.765,592.546 335.225,586.701 337.393,587.243 
					892.215,726.551 				"/>
			</g>
			<g>
				<polygon style="fill:#AF8400;" points="858.824,774.584 336.689,646.122 338.12,640.269 341.193,641.023 860.261,768.734 				
					"/>
			</g>
		</g>
	</g>
</g>
<g id="Layer_1">
</g>
</svg>
