<?xml version="1.0" encoding="iso-8859-1"?>
<!-- Generator: Adobe Illustrator 19.2.1, SVG Export Plug-In . SVG Version: 6.00 Build 0)  -->
<svg version="1.1" xmlns="http://www.w3.org/2000/svg" xmlns:xlink="http://www.w3.org/1999/xlink" x="0px" y="0px"
	 viewBox="0 0 964 964" style="enable-background:new 0 0 964 964;" xml:space="preserve">
<g id="Spa">
	<g>
		<path style="fill:#B8D7F4;" d="M964,479.739c0,0.749,0,1.509-0.01,2.259c-0.892,201.976-122.176,357.455-280.464,432.504
			c-49.7,23.556-103.047,39.19-157.447,45.841c-10.501,1.291-21.032,2.238-31.584,2.842c-6.092,0.354-12.184,0.593-18.287,0.708
			c-10.521,0.219-21.052,0.094-31.574-0.406c-55.852-2.55-111.484-14.958-164.16-38.336c-39.63-17.581-77.586-41.376-112.717-71.843
			C59.951,759.803-0.11,623.144,0,481.998c0.04-44.811,6.142-90.069,18.698-134.547C80.592,128.259,279.863-4.237,495.718,0.103
			C755.521,5.329,964,205.431,964,479.739z"/>
		<path style="fill:#FDFDFD;" d="M683.526,202.142v712.36c-124.971,59.248-272.999,68.366-403.051,10.648V202.142
			c0-23.514,18.357-42.583,41.003-42.583h321.056C665.169,159.559,683.526,178.628,683.526,202.142z"/>
		<g>
			<path style="fill:#FACCA9;" d="M634.906,271.122c-10.493-16.957-91.526-89.139-92.109-86.658
				c-0.583,2.481-18.655,15.198-18.655,15.198s64.71,52.686,60.046,63.587c-4.664,10.901-69.956,13.323-77.535,21.801
				c-7.579,8.478-27.983,3.028-27.983,3.028s-57.714-5.45-75.203,0s-65.293-1.211-65.293-1.211l44.643-133.059
				c0.691,0.399,1.26,0.669,1.62,0.718c0.334-3.355,1.822-9.193,3.961-11.729c5.606-6.647,8.671-9.248,16.809-11.824
				c2.65-0.839,5.815-3.189,4.699-5.823c-5.264,0.975-10.632,1.334-15.973,1.07c-0.017-3.389,2.453-6.15,4.623-8.68
				c5.564-6.487,10.133-13.894,13.481-21.856c-1.1-1.054-2.888-0.96-4.195-0.201c-1.307,0.758-2.243,2.039-3.141,3.283
				c-3.184,4.413-6.368,8.827-9.551,13.24c-1.173-8.967,9.04-16.385,7.804-25.343c-2.113-0.501-3.806,1.746-4.891,3.694
				c-3.583,6.431-7.166,12.863-10.749,19.294c1.342-6.253,2.684-12.505,4.026-18.758c-0.716-1.152-2.483-1.068-3.496-0.189
				c-1.013,0.879-1.463,2.257-1.866,3.563c-1.631,5.274-3.261,10.549-4.892,15.823c-1.608-2.772-0.246-6.268,0.34-9.447
				c0.586-3.179-0.707-7.573-3.819-7.408c-2.377,0.126-3.693,2.9-4.232,5.308c-3.105,13.877,2.702,28.687,1.371,42.611
				c-4.938,12.54-43.511,110.314-51.147,123.912c-8.162,14.534-24.485,33.236-9.91,36.3c14.574,3.064,85.333,23.654,92.51,23.048
				c7.178-0.606,15.339,6.661,14.756,12.112c-0.583,5.45-2.023,37.547,3.069,59.348c5.092,21.801,22.581,83.572,10.339,120.513
				c-12.242,36.941-33.229,56.926-32.063,76.91c1.166,19.985,146.684-7.267,146.684-7.267s-3.273-56.926-26.592-75.093
				c-23.319-18.168,22.287-138.681,26.592-153.215c4.305-14.534,9.552-35.124,8.386-38.152
				C556.205,316.541,645.399,288.078,634.906,271.122z"/>
			<path style="fill:#FACCA9;" d="M423.105,132.941c-8.051,3.474-11.309,13.638-11.542,22.691
				c-0.234,9.053,1.571,18.274-0.462,27.081c-2.157,9.345-8.351,17.03-14.355,24.34c4.998,2.952,9.996,5.904,14.994,8.856
				c1.73,15.157,3.461,30.315,5.191,45.472c0.184,1.614,0.406,3.324,1.396,4.584c1.22,1.553,3.279,2.025,5.182,2.351
				c9.878,1.696,19.965,2.082,29.936,1.145c4.111-0.386,8.453-0.959,12.206,0.828c10.016,4.77,7.473,20.115,3.314,30.715
				c14.007,0.12,28.014,0.241,42.021,0.361c0.134-11.254,0.268-22.507,0.402-33.761c0.043-3.618,0.148-7.457,2.049-10.488
				c2.133-3.4,6.192-5.2,8.021-8.787c1.778-3.488,1.004-7.719,1.413-11.643c0.931-8.924,7.88-15.773,11.242-24.042
				c3.362-8.269-0.31-21.248-8.895-20.225c13.807-23.246,15.431-54.379,2.201-77.985s-41.561-37.658-67.159-31.412
				s-45.346,33.655-41.978,60.745L423.105,132.941z"/>
			<path style="fill:#513628;" d="M506.94,189.311c1.782-13.114-4.077-39.913-19.731-50.344c-3.226-2.15-5.333-11.371-23.114-11.371
				c-10.829,0-30.314-3.634-48.969,12.112c-5.861,4.947-3.847,12.333-8.325,18.649c0.163-5.339-2.46-11.079,2.12-19.557
				c0.751-1.39,3.081-4.364,3.377-5.928c0.408-2.151,0.824,2.018,0,0c-5.19-12.706-3.367-27.846,3.275-39.8
				s17.677-20.861,29.871-26.345c12.194-5.483,25.529-7.747,38.796-8.516c4.405-0.255,8.864-0.347,13.188,0.566
				c5.314,1.122,10.218,3.715,15.046,6.28c7.701,4.091,15.491,8.244,21.979,14.186c11.413,10.452,17.825,25.508,22.878,40.416
				c4.81,14.193,8.746,29.193,7.04,44.134s-10.186,29.873-23.79,35.04c5.206,8.735,5.164,20.294,0.797,29.513
				c-4.366,9.219-12.669,16.097-21.98,19.562c0.885-8.463,3.352-16.745,7.222-24.249c3.271-6.341,7.67-12.638,7.482-19.829
				c-0.163-6.215-4.197-12.133-9.786-14.358c-5.589-2.224-12.397-0.621-16.516,3.889c-1.762-1.307-2.077-4.268-0.633-5.944
				L506.94,189.311z"/>
			<g>
				<path style="fill:#513628;" d="M429.99,155.108c0,0,0.041-0.131,0.119-0.377c0.095-0.236,0.255-0.614,0.571-1.006
					c0.6-0.825,1.896-1.702,3.569-2.159c0.416-0.115,0.854-0.223,1.307-0.309c0.234-0.046,0.441-0.08,0.71-0.111
					c0.223-0.027,0.45-0.055,0.679-0.084c0.896-0.12,1.945-0.178,2.987-0.199c1.041-0.018,2.117,0.026,3.207,0.115
					c0.544,0.063,1.091,0.126,1.641,0.189l1.642,0.276c1.088,0.229,2.171,0.482,3.215,0.808c1.046,0.318,2.058,0.684,3.014,1.093
					c0.96,0.396,1.863,0.839,2.697,1.294c0.84,0.444,1.595,0.932,2.285,1.387c1.376,0.917,2.425,1.811,3.129,2.462
					c0.696,0.665,1.066,1.068,1.066,1.068s-0.523-0.191-1.389-0.567c-0.435-0.178-0.964-0.395-1.571-0.643
					c-0.604-0.235-1.284-0.501-2.027-0.791c-0.747-0.272-1.55-0.564-2.404-0.849c-0.85-0.295-1.751-0.583-2.687-0.857
					c-1.868-0.558-3.875-1.067-5.905-1.461c-1.014-0.204-2.034-0.364-3.041-0.523c-0.505-0.066-1.007-0.131-1.502-0.196
					c-0.498-0.053-0.989-0.104-1.473-0.156c-0.968-0.081-1.864-0.171-2.81-0.203c-0.444-0.022-0.876-0.043-1.293-0.063
					c-0.411-0.016-0.804-0.009-1.182,0.007c-1.502,0.078-2.712,0.415-3.462,0.906c-0.377,0.242-0.649,0.471-0.825,0.656
					C430.083,155.007,429.99,155.108,429.99,155.108z"/>
			</g>
			<g>
				<path style="fill:#513628;" d="M427.462,185.966c0,0,0.096,0.062,0.276,0.177c0.174,0.131,0.448,0.264,0.775,0.428
					c0.336,0.163,0.764,0.301,1.244,0.432c0.49,0.114,1.047,0.187,1.658,0.238c1.232,0.073,2.676-0.023,4.314-0.135
					c1.652-0.103,3.414-0.152,5.176-0.148c1.775,0.011,3.48,0.093,5.025,0.04c0.771-0.027,1.514-0.079,2.196-0.179
					c0.701-0.102,1.331-0.228,1.927-0.403c1.177-0.349,2.123-0.825,2.765-1.237c0.637-0.415,0.992-0.716,0.992-0.716
					s-0.129,0.442-0.567,1.135c-0.437,0.683-1.232,1.615-2.459,2.377c-0.599,0.387-1.319,0.755-2.086,1.029
					c-0.784,0.284-1.62,0.495-2.491,0.64c-1.743,0.294-3.57,0.315-5.316,0.313c-1.762-0.013-3.523-0.08-5.174-0.199
					c-1.661-0.11-3.318-0.334-4.669-0.843c-1.367-0.467-2.372-1.24-2.896-1.875c-0.275-0.315-0.445-0.598-0.539-0.782
					C427.514,186.068,427.462,185.966,427.462,185.966z"/>
			</g>
			<path style="fill:#B63344;" d="M438.717,225.638c-1.718,1.547-3.931,2.387-6.157,2.867c-5.966,1.286-12.137,0.196-18.158-0.771
				c-0.992-0.159-2.129-0.274-2.881,0.416c-0.596,0.547-0.755,1.439-0.816,2.263c-0.172,2.315,0.347,4.997,2.285,6.153
				c-1.885,0.565-3.428,2.224-3.907,4.201c-0.478,1.977,0.126,4.197,1.531,5.621c1.631,1.654,4.06,2.13,6.339,2.156
				c5.841,0.068,11.671-2.41,15.791-6.712c4.12-4.301,6.477-10.369,6.383-16.437L438.717,225.638z"/>
			<path style="fill:#513628;" d="M550.194,115.245c4.89-8.003,10.583-16.638,19.408-19.046c0.631-0.172,1.293-0.32,1.808-0.735
				c0.614-0.495,0.919-1.284,1.278-2c1.479-2.944,4.391-5.097,7.571-5.446c5.211-0.573,9.906,3.479,12.755,8.048
				c2.887,4.631,4.592,10.049,4.895,15.558c0.297,5.402-0.727,10.781-1.808,16.074c-0.679,3.321-1.401,6.69-2.973,9.666
				c-2.333,4.417-6.338,7.598-10.431,10.3c-3.232,2.134-6.649,4.079-10.379,4.984c-3.729,0.905-7.835,0.68-11.142-1.326
				c-5.421-3.288-7.42-10.264-8.963-16.585c-0.901-3.69-1.802-7.381-2.703-11.071c-0.676-2.768-1.076-6.338,1.233-7.889
				c0.302-0.203,0.767-0.323,0.972-0.016c0.205,0.307-0.518,0.608-0.443,0.243L550.194,115.245z"/>
			<path style="fill:#222221;" d="M495.53,362.84c-7.629,1.321-15.614,0.34-22.736-2.793c-6.771-2.979-13.331-9.153-12.898-16.778
				c0.233-4.098,2.472-7.786,5.057-10.89c1.665-1.999,3.513-3.853,5.635-5.313c5.741-3.948,12.919-4.685,19.778-5.311
				c3.414-0.311,6.981-0.6,10.152,0.748c3.181,1.352,5.575,4.224,7.178,7.382c5.308,10.454,1.915,24.778-7.456,31.48L495.53,362.84z
				"/>
			<path style="fill:#222221;" d="M483.36,394.994c-5.745,3.071-9.007,8.339-10.243,13.656c-0.57,2.45-0.716,5.122,0.886,7.282
				c1.32,1.78,3.68,2.978,6.166,3.694c7.151,2.061,15.689,0.354,21.12-3.793c5.431-4.147,7.764-10.43,6.668-16.272
				c-0.222-1.182-0.585-2.372-1.39-3.391c-0.604-0.765-1.437-1.407-2.31-1.997c-2.914-1.971-6.522-3.489-10.39-3.614
				c-3.868-0.125-7.959,1.385-9.574,4.107L483.36,394.994z"/>
			<path style="fill:#222221;" d="M490.322,452.891c-3.481,0.393-4.649,1.486-8.144,1.263c-3.495-0.223-7.174-0.02-10.203,1.805
				c-3.029,1.824-5.16,5.671-4.132,9.148c1.105,3.738,5.155,5.564,8.851,6.302c3.636,0.726,7.361,0.86,11.062,0.75
				c4.123-0.123,8.814-0.887,11.07-4.474c1.774-2.821,1.378-6.742-0.461-9.518C496.527,455.391,493.478,453.671,490.322,452.891
				L490.322,452.891z"/>
			<path style="fill:#222221;" d="M487.37,502.436c-8.24-0.373-13.739,9.051-14.405,17.59c-0.068,0.87-0.063,1.783,0.307,2.568
				c0.427,0.907,1.278,1.512,2.133,1.994c3.501,1.977,7.55,2.566,11.498,3.123c3.563,0.502,7.628,0.858,10.319-1.619
				c2.393-2.202,2.811-5.857,3.07-9.167c0.281-3.583,0.483-7.493-1.492-10.446c-2.623-3.921-7.981-4.53-12.541-3.925L487.37,502.436
				z"/>
			<path style="fill:#FACCA9;" d="M476.76,806.144l-4.95,82.679l4.399,75.07c-10.521,0.219-21.052,0.094-31.574-0.406
				c-0.731-25.71-1.854-56.104-3.998-63.359c-2.555-8.608-4.489-58.124-5.501-90.183c-0.501-16.03-0.772-27.698-0.772-27.698
				l44.309-8.077L476.76,806.144z"/>
			<path style="fill:#FACCA9;" d="M539.726,763.665l-1.473,36.879l-2.876,71.687l-9.299,88.112
				c-10.501,1.291-21.032,2.238-31.584,2.842v-90.079l-8.938-67.762l-4.349-32.986L539.726,763.665z"/>
			<path style="fill:#BF6079;" d="M377.098,578.839c3.782-12.103,14.179-20.654,26.404-21.467l150.212-10.21
				c11.068-0.955,20.948,14.869,26.005,25.141c18.681,37.95,34.326,160.889,26.446,221.909c-0.011,0.083-0.075,0.147-0.156,0.156
				l-221.391,20.172C384.617,814.539,348.862,669.197,377.098,578.839z"/>
			<path style="fill:#D7006D;" d="M142.384,453.962c4.985,10.559-4.529,38.769-4.529,38.769s-27.296-9.458-32.281-20.017
				c-4.985-10.559,1.784-44.584,1.784-44.584S137.399,443.403,142.384,453.962z"/>
			<path style="fill:#D7006D;" d="M212.452,251.804c-0.187,0.394-41.197-29.371-20.987-52.82
				C191.465,198.984,227.998,219.066,212.452,251.804z"/>
			<path style="fill:#D7006D;" d="M185.911,547.12c0,0-1.836-34.779,29.256-44.767C215.167,502.353,225.057,538.087,185.911,547.12z
				"/>
			<path style="fill:#D7006D;" d="M176.303,643.359c0,0-3.99,20.186,39.979,18.571C216.282,661.93,210.504,628.017,176.303,643.359z
				"/>
			<path style="fill:#D7006D;" d="M754.182,263.378c0,0-1.555-32.701,44.306-30.885C798.488,232.493,794.602,272.26,754.182,263.378
				z"/>
			<path style="fill:#D7006D;" d="M814.077,502.608c0,0-41.197-20.26-29.537-44.043C784.54,458.565,818.741,457.39,814.077,502.608z
				"/>
			<path style="fill:#D7006D;" d="M828.655,375.503c0,0-2.332,26.576,20.21,41.549C848.864,417.052,863.633,388.422,828.655,375.503
				z"/>
			<path style="fill:#D7006D;" d="M742.555,581.669c0,0-14.762-33.106,6.225-42.795
				C748.779,538.874,768.976,576.825,742.555,581.669z"/>
			<path style="fill:#D7006D;" d="M746.836,733.794c0,0,13.991,30.683,51.301,19.379
				C798.137,753.173,782.592,717.645,746.836,733.794z"/>
		</g>
	</g>
</g>
<g id="Layer_1">
</g>
</svg>
