<?xml version="1.0" encoding="iso-8859-1"?>
<!-- Generator: Adobe Illustrator 20.0.0, SVG Export Plug-In . SVG Version: 6.00 Build 0)  -->
<svg version="1.1" xmlns="http://www.w3.org/2000/svg" xmlns:xlink="http://www.w3.org/1999/xlink" x="0px" y="0px"
	 viewBox="0 0 828.669 828.669" style="enable-background:new 0 0 828.669 828.669;" xml:space="preserve">
<g id="Tree_House">
	<g>
		<g>
			<defs>
				
					<ellipse id="SVGID_1_" transform="matrix(0.9999 -0.0129 0.0129 0.9999 -5.2924 5.3609)" cx="414.335" cy="414.335" rx="414.334" ry="414.334"/>
			</defs>
			<use xlink:href="#SVGID_1_"  style="overflow:visible;fill:#B7DDF3;"/>
			<clipPath id="SVGID_2_">
				<use xlink:href="#SVGID_1_"  style="overflow:visible;"/>
			</clipPath>
		</g>
		<g>
			<defs>
				
					<ellipse id="SVGID_3_" transform="matrix(0.9999 -0.0129 0.0129 0.9999 -5.2924 5.3609)" cx="414.335" cy="414.335" rx="414.334" ry="414.334"/>
			</defs>
			<use xlink:href="#SVGID_3_"  style="overflow:visible;fill:#B7DDF3;"/>
			<clipPath id="SVGID_4_">
				<use xlink:href="#SVGID_3_"  style="overflow:visible;"/>
			</clipPath>
		</g>
		<path style="fill:#BCB21F;" d="M828.016,437.745L0.36,431.536c9.158,223.238,194.462,399.99,419.301,397.099
			C638.817,825.817,816.032,653.345,828.016,437.745z"/>
		<ellipse style="opacity:0.29;fill:#56310F;" cx="85.948" cy="550.083" rx="57.138" ry="5.038"/>
		<ellipse style="opacity:0.29;fill:#56310F;" cx="183.985" cy="494.638" rx="26.17" ry="2.365"/>
		<ellipse style="opacity:0.29;fill:#56310F;" cx="627.072" cy="556.841" rx="43.431" ry="4.17"/>
		<ellipse style="opacity:0.29;fill:#56310F;" cx="726.211" cy="556.841" rx="43.057" ry="3.032"/>
		<g>
			<ellipse style="opacity:0.29;fill:#56310F;" cx="416.225" cy="727.538" rx="230.22" ry="25.999"/>
			<path style="fill:#8C5042;" d="M411.113,683.7c-0.924-7.815-3.735-14.857-7.756-21.438c-4.021-6.581-8.744-12.641-12.648-19.309
				c-4.192-7.161-7.1-14.732-9.836-22.612c-4.272-12.303-10.406-23.277-17.843-33.519c-1.033-1.731-2.142-3.421-3.341-5.06
				c-3.358-4.587-7.239-8.698-10.647-13.138c-1.68-2.534-3.17-5.202-4.311-8.11c-2.893-7.378-4.561-15.8-5.637-23.688
				c-1.341-9.834,2.161-18.519,5.892-27.312c3.753-8.845,8.016-17.435,12.726-25.75c0.942-1.664-0.295-3.544-1.982-3.657
				c-0.772-0.052-1.543-0.104-2.315-0.156c-1.854-1.411-4.444-1.657-6.417-0.432c-2.586-0.174-5.173-0.348-7.759-0.522
				c-2.25-0.151-4.675-0.595-6.926-0.38c-2.248,0.215-3.38,1.753-4.038,3.905c-1.618,5.291-2.923,10.682-4.61,15.956
				c-1.601,5.005-3.336,9.963-5.201,14.865c-3.741,9.833-8.362,19.211-12.405,28.897c-3.795,9.094-7.025,18.801-6.906,28.877
				c0.059,5.013,1.395,9.539,4.895,13.039c3.128,3.128,6.98,5.362,10.264,8.302c6.993,6.26,12.419,13.912,16.75,22.417
				c8.163,16.028,13.166,34.206,25.336,47.606c7.599,8.368,17.023,14.738,25.277,22.344c8.448,7.786,16.35,16.211,23.679,25.177
				c1.103,1.349,2.625,0.81,3.377-0.338c0.451-0.271,0.804-0.751,0.936-1.482C411.131,700.141,412.079,691.876,411.113,683.7z
				 M405.524,702.885c0.142-0.07,0.281-0.145,0.417-0.225c-0.03,0.202-0.055,0.406-0.086,0.608
				C405.746,703.14,405.633,703.014,405.524,702.885z"/>
			<path style="fill:#A05943;" d="M606.118,729.042c-8.295-4.812-14.412-13.221-16.523-23.009
				c-2.662-12.329,1.431-24.949,2.028-37.282c0.576-11.935-1.711-23.871-6.376-34.728c-4.531-10.534-11.065-19.889-16.164-30.097
				c-5.529-11.074-9.338-24.22-5.383-36.495c2.888-5.055,4.732-10.857,4.74-16.805c0.008-6.695-2.691-12.625-5.086-18.661
				c-5.174-13.031-8.086-26.99-8.671-41.104c-0.054-1.348,3.455-2.775-0.254-6.248c-12.635-11.831,2.712-23.199-21.637-10.462
				c-1.969,1.03-7.798,2.424-9.429,4.409c-1.465,1.781,3.457,15.076,3.686,17.215c1.206,11.065,6.605,20.804,11.979,30.141
				c0.2,0.345,0.442,0.605,0.705,0.791c1.356,3.681,0.914,8.06-0.263,11.785c-1.986,6.284-5.779,11.75-8.178,17.857
				c-4.673,11.887-5.595,25.4-2.591,37.878c1.561,6.478,4.223,12.567,6.476,18.789c2.403,6.628,3.977,13.358,4.49,20.45
				c0.497,6.867,0.471,13.875,0.046,20.751c-0.217,3.539-0.713,7.07-1.903,10.406c-1.089,3.058-2.758,5.868-4.394,8.626
				c-6.451,10.897-13.123,22.205-22.703,30.322c-3.48-13.018-7.794-25.766-12.926-38.157c-2.185-5.276-4.582-10.475-6.451-15.891
				c-1.364-5.372-2.451-10.8-2.966-16.298c0.021-2.534,0.277-5.085,0.792-7.664c1.356-6.805,3.78-13.31,5.316-20.066
				c1.59-7.004,2.441-14.224,2.537-21.427c0.092-7.07-0.563-14.162-1.911-21.087c-1.377-7.079-3.901-13.835-5.257-20.914
				c-3.088-16.138,1.648-32.523,6.2-47.843c2.57-0.822,1.383-4.75-1.469-4.622c-11.917,0.535-19.835-0.601-31.569-0.243
				c-1.493,0.046-2.203,0.066-2.178,1.303c-0.53,0.252-0.972,2.948-1.177,3.716c-3.588,13.451-0.275,27.207,2.178,40.53
				c1.298,7.052,2.174,14.158,2.675,21.321c0.505,7.238,1.026,14.693,0.359,21.935c-0.634,6.876-2.675,13.637-4.419,20.269
				c-1.715,6.522-3.576,13.049-6.192,19.235c-2.549,6.032-6.008,11.308-9.48,16.761c-3.547,5.568-5.971,11.387-7.252,17.976
				c-2.266,11.675-3.388,23.72-3.776,35.713c-3.409-9.633-5.629-19.664-6.855-29.929c-1.498-12.523-2.307-25.36-7.093-37.087
				c-4.515-11.074-12.709-19.58-20.345-28.272c-3.834-4.366-7.569-8.86-10.606-13.902c-3.317-5.515-5.858-11.489-8.395-17.432
				c-4.811-11.281-10.081-22.929-19.423-30.636c0.083-0.831-0.192-1.71-1.014-2.307c-13.711-9.995-30.772-13.318-44.141-23.897
				c-5.779-4.573-11.045-10.658-13.281-18.055c-0.53-1.75-0.876-3.522-1.072-5.342c-0.2-1.896-0.396-3.849-1.853-5.161
				c-1.448-1.299-3.179-1.206-4.944-0.871c-2.453,0.464-4.899,1.038-7.344,1.555c-2.316,0.49-4.632,0.963-6.939,1.471
				c-1.773,0.389-3.263,1.242-3.751,3.235c-0.438,1.79-0.15,3.977,0,5.789c0.18,2.187,0.488,4.366,0.922,6.513
				c1.74,8.608,5.537,16.743,10.356,23.875c10.464,15.492,25.414,26.902,39.255,38.749c7.669,6.562,15.789,12.868,20.983,21.935
				c4.056,7.075,6.351,15.09,6.772,23.309c-0.305,0.38-0.484,0.897-0.451,1.56c0.726,14.989,7.577,28.365,16.114,39.995
				c4.456,6.076,9.759,11.48,13.882,17.821c4.335,6.668,6,14.021,6.384,22.028c0.467,9.752,0.234,19.584-0.025,29.341
				c-0.008,0.305,0.029,0.579,0.104,0.826l-0.926,5.806c-2.157,0.464-1.894,4.503,0.739,4.839
				c19.872,2.549,39.859,2.619,59.842,2.399c2.313,0.174,4.625,0.348,6.938,0.522c0.948,0.071,1.853-0.178,2.657-0.641
				c4.668-0.06,9.336-0.116,14-0.142c10.123-0.055,20.246,0.078,30.363,0.397c1.079,0.428,2.283,0.523,3.495,0.171
				c0.045-0.013,0.087-0.032,0.131-0.046c16.341,0.587,32.665,1.659,48.948,3.23c15.764,1.52,31.486,3.504,47.145,5.943
				c2.145,0.336,3.38-2.156,2.687-3.65C607.47,731.039,607.328,729.745,606.118,729.042z"/>
			<path style="fill:#5E4015;" d="M442.086,480.952c-7.101,1.982-14.406,1.729-21.388-0.668c-1.329-0.456-3.037,0.797-2.905,2.344
				c0.911,10.66,0.223,21.957-5.063,31.359c-2.232,3.97-5.209,7.554-8.864,10.113c-3.849,2.696-8.157,3.906-12.686,4.585
				c-4.989,0.749-10.116,1.005-14.909,2.79c-4.15,1.545-7.73,4.19-10.911,7.371c-6.232,6.232-11.003,13.774-18.767,18.088
				c-7.892,4.385-16.884,6.442-23.816,12.657c-6.695,6.001-9.691,15.018-12.446,23.536c-1.419,4.386-2.819,8.79-4.817,12.927
				c-2.188,4.531-4.911,8.737-7.351,13.114c-2.374,4.26-4.548,8.78-5.605,13.63c-1.203,5.523-0.783,11.151-0.626,16.758
				c0.364,13.058-2.374,25.342-6.791,37.454c-4.12,11.295-8.773,22.438-9.627,34.667c-0.075,1.072,0.418,1.774,1.106,2.108
				c-0.233,0.962-0.033,1.985,0.861,2.775c1.429,1.263,3.263,0.348,3.835-1.002c0.171,0.005,0.341,0.015,0.512,0.015
				c0.69,0.014,1.382,0.015,2.072,0.022l3.73,0.04l7.875,0.084c5.388,0.057,10.776,0.115,16.164,0.172
				c10.638,0.113,21.275,0.226,31.913,0.339c1.875,0.02,3.178-2.755,1.623-4.149c-7.809-7.001-15.108-15.765-17.785-26.468
				c-2.703-10.809,1.213-20.719,5.876-30.188c4.764-9.674,9.653-19.239,9.684-30.443c0.03-10.78-4.187-25.159,3.793-34.052
				c5.414-6.034,14.118-6.199,21.43-6.492c7.814-0.313,16.588-0.239,23.381-4.963c8.836-6.145,9.446-17.142,11.174-27.151
				c0.793-4.595,2.054-9.571,5.05-13.144c0.185-0.22,0.374-0.425,0.567-0.622c1.36-0.33,2.724-0.637,4.045-1.012
				c3.108-0.884,6.227-1.997,9.17-3.467c0.175-0.036,0.35-0.074,0.525-0.114c5.148-1.181,10.224-3.694,13.992-7.654
				c4.127-4.338,5.995-10.157,6.056-16.244c0.11-10.828-6.676-26.201,2.157-35.05C446.015,483.315,444.252,480.348,442.086,480.952z
				"/>
			<g>
				<g>
					<path style="fill:#A78031;" d="M98.175,485.03c-0.013-0.032-0.026-0.063-0.039-0.093c-0.007-0.005-0.017-0.012-0.025-0.017
						c0.012,0.031,0.025,0.067,0.039,0.104C98.159,485.026,98.167,485.028,98.175,485.03z"/>
					<path style="fill:#A78031;" d="M97.47,484.503c0.021,0.169,0.303,0.354,0.517,0.455c-0.101-0.109-0.205-0.215-0.31-0.319
						C97.608,484.594,97.54,484.547,97.47,484.503z"/>
					<path style="fill:#A78031;" d="M172.396,417.105c-4.569-6.945-11.95-10.779-19.361-13.609
						c-0.513-9.611-4.816-19.108-10.937-26.028c-4.372-4.943-9.989-8.117-16.332-8.917c-1.806-0.228-3.636-0.191-5.432,0.085
						c-0.907-2.077-2.15-4.009-3.738-5.701c-4.293-4.574-10.25-6.46-16.149-5.843c-0.77,0.049-1.549,0.169-2.333,0.374
						c-0.857,0.224-1.656,0.635-2.369,1.183c-1.909-1.384-4.219-2.234-6.638-2.43c-4.002-0.324-8.129,1.214-11.472,3.448
						c-3.693,2.467-7.124,5.476-10.179,8.776c-3.086,3.334-5.817,7.018-8.451,10.755c-2.397,3.402-4.712,6.922-6.4,10.787
						c-2.198,5.035-3.777,10.477-3.429,16.095c0.355,5.733,2.099,10.939,5.617,15.345c3.437,4.304,8.769,6.667,14.076,6.765
						c0.992,0.188,2.003,0.279,3.023,0.26c-1.631,4.325-2.628,8.987-1.797,13.608c0.133,1.653,0.535,3.276,1.307,4.828
						c0.494,0.995,1.139,1.923,1.886,2.749c0.813,1.256,1.696,2.478,2.57,3.752c0.413,0.602,0.814,1.216,1.169,1.859
						c0.066,0.12,0.126,0.249,0.186,0.378c-2.233,4.128-4.229,8.631-3.338,13.458c-0.294,2.182-0.21,4.374,0.611,6.354
						c1.669,4.022,6.378,5.403,10.03,6.468c3.303,0.963,6.697,1.51,10.111,1.669c0.603,0.127,1.201,0.274,1.792,0.459
						c0.158,0.05,0.513,0.219,0.766,0.303c0.096,0.056,0.193,0.111,0.288,0.17c-0.003-0.024-0.002-0.047,0.006-0.069
						c0.07,0.065,0.133,0.139,0.201,0.206c0.073,0.048,0.148,0.095,0.22,0.145c0.096,0.056,0.162,0.099,0.214,0.135
						c-0.193-0.52-0.106-0.299,0.025,0.017c0.118,0.085,0.11,0.109,0.039,0.093c0.019,0.045,0.038,0.09,0.057,0.134
						c-0.02-0.027-0.037-0.05-0.06-0.081c-0.008-0.023-0.014-0.039-0.022-0.06c-0.043-0.013-0.099-0.035-0.162-0.065
						c0.056,0.06,0.117,0.114,0.171,0.176c0.049,0.06,0.091,0.111,0.129,0.157c0.011,0.024,0.021,0.048,0.031,0.07
						c-0.213,3.429,0.125,7.159,2.641,9.417c3.928,3.527,9.038,0.415,12.223-2.605c2.136-2.025,4.185-4.336,7.014-5.229
						c2.837-0.895,5.938-0.353,8.595,0.92c2.237,1.072,4.128,2.647,5.803,4.479c0.429,0.74,0.847,1.488,1.246,2.251
						c0.638,1.221,1.544,2.141,2.589,2.782c0.829,1.254,1.618,2.531,2.391,3.781c0.339,0.548,1.038,0.54,1.378,0
						c0.569-0.904,1.094-1.837,1.575-2.793c2.807-0.474,5.364-2.422,6.072-5.708c1.742-8.094,2.303-16.228,1.787-24.384
						c3.257-1.187,6.282-3.132,8.847-5.556c2.109-1.993,3.949-4.54,5.171-7.242c0.688-1.522,1.346-3.157,1.726-4.81
						c0.214-0.931,0.319-1.877,0.439-2.826c0.083-0.658,0.166-1.314,0.235-1.974c0.02-0.199,0.04-0.399,0.06-0.599
						c0.003-0.031,0.006-0.059,0.009-0.086c0.041-0.16,0.08-0.308,0.094-0.414c0.024-0.095,0.048-0.19,0.072-0.285
						c0.02-0.069,0.035-0.126,0.047-0.173c0.31-0.467,0.647-0.862,0.162-0.28c-0.054,0.065-0.098,0.117-0.136,0.164l0-0.002
						c0.12-0.146,0.266-0.327,0.332-0.415c0.033-0.044,0.066-0.089,0.099-0.134c0.893-0.569,1.79-1.133,2.577-1.88
						c1.244-1.18,2.265-2.65,2.996-4.239C177.313,431.111,176.183,422.861,172.396,417.105z M86.444,372.99
						c0.17-0.101,0.369-0.188,0.555-0.285c0.032-0.011,0.064-0.019,0.096-0.03c-0.705,0.529-0.921,0.542-0.793,0.403
						C86.349,373.049,86.396,373.018,86.444,372.99z M70.33,411.758c-0.103,0.053-0.236,0.109-0.393,0.156
						c0.323-0.226,0.514-0.325,0.596-0.347C70.463,411.629,70.395,411.693,70.33,411.758z M99.755,373.3
						c0.007,0.191,0.01,0.382,0.011,0.573c0.003,0.383-0.01,0.766-0.027,1.148c-0.155-0.011-0.309-0.025-0.465-0.03
						c-0.109-0.003-0.218-0.001-0.327-0.003c0.282-0.55,0.533-1.115,0.751-1.695C99.717,373.296,99.736,373.299,99.755,373.3z
						 M75.838,474.518c-0.097-0.259-0.176-0.524-0.246-0.792c0.977,1.733,2.26,3.265,3.754,4.533
						C77.775,477.379,76.465,476.193,75.838,474.518z M118.745,485.701c-1.265,0.544-2.391,1.374-3.462,2.312
						c0.316-0.521,0.626-1.048,0.934-1.581c0.403-0.698,0.943-2.11,1.584-2.552c-0.622,0.833-0.748,1.022-0.38,0.567
						c0.17-0.211,0.347-0.414,0.533-0.609c0.05-0.054,0.104-0.102,0.155-0.155c0.212-0.155,0.429-0.366,0.596-0.472
						c0.256-0.161,1.265-0.557,0.88-0.459c0.374-0.125,0.752-0.232,1.135-0.323c0.365,0.041,0.904-0.104,1.221-0.107
						c0.383-0.005,0.766,0.007,1.148,0.03c0.071,0.004,0.132,0.008,0.189,0.011c0.7,0.151,1.392,0.31,2.076,0.54
						c0.078,0.026,0.154,0.056,0.231,0.084c0.238,0.117,0.506,0.209,0.711,0.322c0.824,0.455,1.575,0.998,2.359,1.52
						c0.018,0.012,0.033,0.022,0.05,0.033c0.375,0.347,0.751,0.687,1.114,1.048c0.408,0.406,0.8,0.83,1.183,1.262
						C127.332,484.93,122.744,483.981,118.745,485.701z M141.497,499.172c-0.172-0.276-0.344-0.552-0.518-0.827
						c0.302,0.056,0.607,0.096,0.913,0.116C141.763,498.7,141.632,498.937,141.497,499.172z M172.629,437.391
						c-0.218,0.413-0.459,0.811-0.718,1.195c1.224-2.92,1.879-6.121,1.747-9.324c-0.204-4.965-1.82-9.88-4.626-13.858
						c0.345,0.39,0.682,0.791,1.007,1.206C174.379,422.142,176.066,430.895,172.629,437.391z"/>
				</g>
				<path style="fill:#683C11;" d="M155.486,437.333c-6.003,4.347-12.046,8.75-17.292,14.115c-2.948,3.015-6.229,6.727-8.44,10.854
					c-0.134-0.728-0.271-1.456-0.404-2.185c0.129-0.675,0.278-1.344,0.463-2.002c0.212-0.749-0.049-1.343-0.497-1.702
					c0.188-0.18,0.344-0.418,0.445-0.723c3.927-11.783,8.445-23.329,13.543-34.598c0.884-1.953-1.868-3.67-2.757-1.707
					c-5.216,11.53-9.847,23.349-13.865,35.405c-0.25,0.749,0.002,1.341,0.454,1.694c-0.141,0.148-0.261,0.334-0.347,0.562
					c-0.607,0.327-1.06,1.005-0.898,1.902c0.07,0.387,0.143,0.774,0.213,1.161c-0.546,3.397-0.475,6.9-0.257,10.368
					c-10.616-16.764-24.17-31.334-39.858-42.85c-1.693-1.242-3.291,1.687-1.611,2.92c16.902,12.407,31.245,28.516,42.001,47.064
					c0.46,5.678,1.076,11.341,1.795,16.989c1.63,12.801,3.813,25.511,6.04,38.207c1.237,7.051,3.19,14.398,2.947,21.612
					c-0.054,1.589,1.633,2.015,2.576,1.284c1.046,0.226,2.447-0.23,3.347-0.583c2.317-0.91,4.667-1.716,7.04-2.443
					c1.1,0.904,3.122,0.011,2.546-1.693c-7.922-23.469-14.485-47.446-19.608-71.773c-0.779-3.7-1.514-7.408-2.224-11.122
					c0.741-2.571,2.235-4.937,3.682-7.086c1.947-2.89,4.245-5.508,6.691-7.93c4.875-4.827,10.388-8.84,15.884-12.82
					C158.783,439.032,157.188,436.101,155.486,437.333z M144.547,546.98c0.044,0.172,0.083,0.343,0.117,0.514
					c-0.156-0.038-0.32-0.109-0.479-0.204C144.318,547.203,144.438,547.098,144.547,546.98z"/>
			</g>
			<g>
				<path style="fill:#A78031;" d="M247.184,358.507c-2.962-2.839-6.535-4.724-9.984-6.79c-2.549-1.527-5.07-3.195-7.679-4.63
					c-1.231-1.65-2.907-2.969-4.793-3.839c-4.65-2.145-9.649-1.289-13.818,1.639c-4.724,3.317-7.813,8.387-10.574,13.499
					c-0.624,1.155-1.259,2.272-1.957,3.323c-0.132,0.088-0.264,0.177-0.397,0.253c-0.304,0.171-0.627,0.306-0.931,0.476
					c-0.027,0.015-0.05,0.028-0.073,0.041c-1.146,0.502-2.306,0.985-3.413,1.576c-6.581,3.515-11.377,11.147-12.474,18.787
					c-0.208,1.445-0.318,2.89-0.352,4.33c-0.02,0.111-0.042,0.222-0.062,0.332c-0.911,5.139-1.185,10.512-0.134,15.653
					c0.953,4.664,3.207,9.153,7.197,11.628c0.679,0.421,1.565,0.731,2.287,1.196c-0.093,0.309-0.19,0.618-0.29,0.925
					c-0.072,0.152-0.346,0.847-0.423,1.015c-1.457,3.151-3.318,6.194-4.034,9.597c-0.189,0.497-0.34,1.023-0.439,1.587
					c-1.061,6.063,3.159,12.043,7.272,15.725c4.717,4.223,10.916,8.153,11.949,15.164c0.206,1.401,2.217,0.806,2.012-0.587
					c-0.339-2.301-1.151-4.256-2.253-6.002c2.21,1.099,4.72,1.476,7.034,0.889c-0.702,0.968-1.397,1.942-2.089,2.916
					c-0.807,1.137,1.003,2.239,1.801,1.115c2.599-3.659,5.236-7.29,8.253-10.521c1.906-0.646,3.74-1.717,5.426-3.02
					c3.941-3.046,7.672-6.431,10.778-10.392c1.048-1.084,2.029-2.262,2.917-3.582c5.722-8.516,6.899-19.781,4.728-29.798
					c-1.1-5.076-3.109-9.849-5.902-14.107c-0.015-0.188-0.029-0.375-0.037-0.495c2.955-0.708,5.601-2.212,7.727-4.274
					c3.332-1.558,5.981-4.264,7.226-8.428C253.308,368.274,251.053,362.215,247.184,358.507z M200.677,386.879
					c0.011-0.052,0.027-0.103,0.039-0.155c0.054,1.134-0.056,1.316-0.097,1.051c0-0.057-0.002-0.114-0.001-0.171
					c0.005-0.221,0.033-0.462,0.055-0.7C200.674,386.895,200.675,386.887,200.677,386.879z M236.927,384.125
					c-0.001,0-0.001,0-0.001,0c0.001-0.002,0.002-0.004,0.003-0.006c0.016-0.08,0.032-0.165,0.05-0.239
					c0.007-0.027,0.014-0.048,0.021-0.073c0.025-0.001,0.05-0.003,0.075-0.004c0.001-0.002,0.002-0.004,0.003-0.006
					c0.036-0.065,0.088-0.142,0.145-0.223c0.02-0.018,0.042-0.037,0.063-0.057c-0.011,0.073-0.039,0.168-0.085,0.279
					c0.298-0.015,0.596-0.036,0.894-0.058c-0.341,0.13-0.688,0.246-1.041,0.349c0.063-0.106,0.111-0.203,0.147-0.29
					c-0.042,0.002-0.084,0.005-0.126,0.007c-0.049,0.09-0.097,0.202-0.146,0.317C236.928,384.121,236.927,384.123,236.927,384.125z
					 M186.563,411.061c-3.434-3.603-4.679-8.801-4.74-14.167c0.976,3.908,2.582,7.654,4.775,11.093
					c0.843,1.322,1.787,2.566,2.642,3.879c0.334,0.513,0.652,1.037,0.947,1.576C188.932,412.738,187.586,412.135,186.563,411.061z"
					/>
				<path style="fill:#683C11;" d="M217.824,486.508c-0.074-0.882-0.627-1.721-1.51-1.975c-0.044-0.013-0.088-0.025-0.132-0.038
					c-0.641-1.641-1.256-3.293-1.822-4.961c-2.324-20.727-3.15-41.632-2.526-62.496c0.027-0.893-0.367-1.505-0.921-1.837
					c0.017-0.065,0.032-0.131,0.049-0.196c0.72-2.744-3.304-3.915-4.023-1.175c-1.742,6.638-2.901,13.406-3.703,20.228
					c-1.28-0.729-3.21-0.128-3.082,1.824c0.407,6.224,0.929,12.437,1.552,18.639c-0.542,12.637-0.511,25.295,0.072,37.93
					c0.105,2.284,2.841,2.735,3.826,1.329c1.582-0.273,3.102-0.772,4.553-1.508c2.443-0.418,4.864-0.969,7.258-1.67
					C219.406,490.018,219.208,487.351,217.824,486.508z"/>
			</g>
			<g>
				<path style="fill:#BCB21F;" d="M743.328,224.213c0.194-1.126,0.375-2.246,0.674-3.348c0.005-0.017,0.008-0.029,0.013-0.046
					c0.099-0.058,0.141-0.153,0.146-0.242l0.021-0.013c0.068-0.024,0.146-0.052,0.236-0.085c0.502-0.109,0.992-0.25,1.495-0.349
					c0.087-0.006,0.188-0.014,0.317-0.023c0.785-0.057,1.572-0.117,2.356-0.187c5.158-0.458,9.957-1.75,14.696-3.928
					c3.918-1.801,7.604-4.238,10.912-7.163C706.15,89.928,580.945,8.186,436.52,0.584c-0.007,0.002-0.014,0.005-0.021,0.007
					c-8.749,2.946-18.443,6.637-24.548,14.322c-0.272,0.343-0.531,0.689-0.783,1.037c-2.162-0.7-4.646-0.177-6.308,1.603
					c-8.431,9.026-13.06,21.177-13.203,33.671c-0.774,2.676-0.882,5.556-0.038,8.152c0.331,1.018,0.706,1.994,1.115,2.937
					c2.225,10.318,7.978,19.723,15.732,26.406c-3.958,7.48-3.476,17.194,0.573,25.044c4.059,7.873,11.283,12.654,18.964,16.166
					c-1.295,1.939-2.357,4.104-3.176,6.482c-2.048,5.944-2.034,13.132,0.101,19.038c3.649,10.091,12.069,16.652,21.57,19.528
					c-3.451,8.336-2.562,19.037,1.863,26.675c3.956,6.828,9.999,12.001,16.468,15.995c7.096,4.381,14.851,7.792,22.649,10.487
					c7.622,2.634,15.359,3.964,23.198,5.574c1.689,0.347,3.372,0.757,5.003,1.344c0.402,0.145,0.83,0.294,1.224,0.475
					c0.1,0.06,0.235,0.141,0.413,0.251c0.395,0.242,0.797,0.457,1.187,0.712c0.071,0.046,0.55,0.395,0.815,0.58
					c0.245,0.232,0.834,0.76,0.971,0.9c0.493,0.506,0.928,1.058,1.387,1.597c-0.928-1.091,0.305,0.525,0.49,0.84
					c0.402,0.688,0.751,1.401,1.094,2.123c0.036,0.077,0.133,0.304,0.21,0.488c0.031,0.083,0.058,0.157,0.066,0.184
					c0.221,0.703,0.466,1.394,0.667,2.104c0.441,1.553,0.781,3.136,1.065,4.729c0.12,0.674,0.23,1.35,0.331,2.027
					c0.041,0.271,0.24,1.86,0.218,1.625c0.178,1.567,0.344,3.135,0.501,4.705c0.676,6.764,1.201,13.768,3.458,20.192
					c4.909,13.975,15.899,24.25,28.566,30.229c12.417,5.861,26.656,9.155,40.136,5.814c6.218-1.542,12.368-4.918,16.478-10.193
					c4.274-5.487,6.062-12.108,7.783-18.851c0.355-1.391,0.718-2.781,1.132-4.154c0.216-0.714,0.454-1.417,0.692-2.122
					c0.087-0.26,0.189-0.515,0.283-0.773c-0.526,1.441,0.111-0.196,0.207-0.398c0.299-0.632,0.623-1.252,0.981-1.849
					c0.114-0.189,0.276-0.387,0.379-0.589c0.417-0.389,0.941-0.94,1.301-1.391c0.356-0.241,0.706-0.484,1.078-0.706
					c0.875-0.523,2.157-0.75,3.075-0.776c2.123-0.06,2.789,0.093,4.952,0.643c3.726,0.948,7.289,2.474,10.99,3.511
					c6.209,1.739,13.209,1.456,19.014-1.593c2.748-1.443,5.243-3.85,6.672-6.745c0.977-1.978,1.427-3.912,1.639-6.113
					c0.055-0.571,0.081-1.14,0.1-1.711c0.062,0.005,0.111,0.008,0.135,0.01c1.437,0.104,2.872,0.162,4.312,0.126
					c3.296-0.082,6.642-0.519,9.854-1.309c5.965-1.468,12.173-4.549,16.193-9.584c0.708-0.887,1.35-1.81,1.936-2.764
					C722.74,251.59,740.42,241.08,743.328,224.213z"/>
				<path style="fill:#56310F;" d="M611.882,174.021c4.123,8.505,5.169,18.286,6.058,27.744c0.247,2.622,1.749,5.953,4.595,6.392
					c5.634,0.869,12.013,1.124,16.161-3.823c2.037-2.429,2.835-5.458,3.32-8.588c0.506-3.259,0.809-6.556,0.717-9.861
					c-0.187-6.65-1.613-13.055-4.109-19.141c-1.025-2.499-2.26-4.84-3.639-7.139c-1.423-2.373-2.698-4.315-3.147-6.534
					c0.045,0.005-0.05-1.246-0.053-1.306c-0.008-0.191-0.018-0.323-0.03-0.419c0.035-0.089,0.079-0.22,0.134-0.411
					c0.152-0.527,0.273-1.055,0.44-1.575c0.06-0.138,0.202-0.49,0.243-0.566c1.449-2.705,2.358-3.957,4.715-6.236
					c0.404-0.39,0.817-0.769,1.238-1.14c0.105-0.093,0.608-0.52,0.727-0.625c0.959-0.781,1.944-1.529,2.919-2.287
					c2.342-1.821,4.706-3.65,6.874-5.704c4.365-4.136,7.764-9.566,8.867-15.729c1.125-6.286,0.521-12.628-0.892-18.808
					c-2.034-8.899-5.158-17.663-8.919-26.054c-6.052-4.143-12.218-8.132-18.494-11.956c-0.302,1.553-0.104,3.217,0.689,4.656
					c0.936,1.698,1.834,3.399,2.702,5.107c-0.854-0.134-1.712-0.103-2.487,0.123c-3.578,1.041-4.879,4.6-4.371,8.154
					c1.358,9.51,2.193,19.289,2.546,29.005c0.086,2.367,0.262,4.798,0.064,7.164c-0.072,0.863-0.165,1.096-0.459,2.135
					c-0.374,1.323-0.233,0.586-0.111,0.324c-0.29,0.622-0.636,1.189-0.968,1.786c-0.026,0.048-0.297,0.471-0.347,0.566
					c-0.218,0.289-0.452,0.572-0.678,0.843c-0.588,0.706-1.208,1.381-1.843,2.039c-1.425,1.479-2.936,2.859-4.395,4.299
					c-5.898,5.822-11.736,12.809-13.756,21.296c-1.103,4.634-1,9.55,0.361,14.112C607.832,166.142,609.957,170.05,611.882,174.021z"
					/>
				<g>
					<path style="fill:#683C11;" d="M714.815,169.451C714.848,169.433,714.845,169.434,714.815,169.451L714.815,169.451z"/>
					<path style="fill:#683C11;" d="M708.58,173.498c2.213,0.028,4.459-1.089,5.509-3.238c0.108-0.222,0.224-0.403,0.312-0.528
						c0.183-0.143,0.353-0.246,0.414-0.281c-0.043,0.023-0.144,0.077-0.333,0.171c0.003-0.004,0.007-0.009,0.01-0.013
						c0.329-0.179,0.684-0.415,0.994-0.613c2.78-0.523,5.679-0.41,8.338-1.664c2.419-1.141,4.379-3.035,5.927-5.287
						c2.245-3.268,3.559-7.081,4.503-11.025c-7.791-9.453-15.993-18.552-24.576-27.274c-2.26,4.791-5.145,9.247-8.601,13.137
						c-2.757,3.104-5.839,5.773-9.19,8.124c-3.223,2.261-6.553,4.363-9.529,6.993c-5.941,5.251-8.258,12.246-9.234,20.153
						c-0.987,7.999-0.608,17.556-6.297,23.754c-0.119,0.129-0.212,0.263-0.292,0.399c-2.071,0.074-4.165,0.089-6.23,0.13
						c-3.924-0.31-7.852-0.888-11.753-1.107c-6.495-0.366-13.012,0.024-19.432,1.123c-12.533,2.145-24.713,7.356-34.481,16.055
						c-2.695,2.4-5,5.116-7.368,7.861c-1.097,1.272-2.556,3.024-4.271,3.339c-5.956-14.519-12.214-29.521-23.109-40.731
						c-8.93-9.188-21.174-14.842-28.759-25.495c-3.895-5.471-5.251-11.689-4.639-18.463c0.643-7.115,2.831-13.967,3.451-21.091
						c0.592-6.805-0.834-13.542-5.726-18.315c-2.654-2.59-5.857-4.444-8.523-7.017c-2.603-2.511-4.7-5.49-6.355-8.775
						c-8.897-17.663-3.243-38.261,1.802-56.168c0.407-1.444-0.697-2.717-2.012-2.797c-1.982-0.12-3.964-0.24-5.947-0.359
						c-0.041-0.023-0.078-0.051-0.119-0.073c-2.134-1.187-4.338-1.124-6.359-0.318c-1.127-0.068-2.254-0.136-3.381-0.204
						c-0.303-1.587-2.179-2.775-3.444-1.224c-8.388,10.281-11.816,24.146-10.055,37.532c0.879,6.681,3.085,13.219,6.633,18.84
						c3.686,5.84,9.371,10.317,12.216,16.74c3.377,7.625-0.686,15.435-3.454,22.485c-2.897,7.377-3.92,14.914-2.756,22.838
						c2.313,15.741,12.238,28.564,23.769,38.125c4.227,3.504,8.699,6.593,13.209,9.633c4.672,3.626,9.354,7.239,14.031,10.859
						c1.92,1.486,3.844,2.966,5.764,4.454c1.458,1.575,2.817,3.253,4.035,5.065c-0.03,0.061-0.06,0.122-0.088,0.189
						c-1.218,2.991-1.945,6.07-2.255,9.173c-0.139,0.924-0.234,1.857-0.279,2.794c-0.184,3.817,0.391,7.556,1.517,11.126
						c1.015,3.785,2.535,7.456,4.439,10.884c6.229,11.214,16.352,19.074,26.314,26.291c5.091,3.688,10.508,7.137,15.163,11.444
						c4.298,3.976,7.519,9.256,5.46,15.438c-1.851,5.557-6.65,9.766-10.87,13.311c-5.126,4.307-10.294,8.532-15.273,13.034
						c-10.893,9.851-21.153,20.465-30.755,31.718c-1.391-0.52-3.324,0.637-2.817,2.614c0.957,3.726-0.689,7.044-2.817,9.938
						c-2.54,3.455-5.631,6.409-8.226,9.817c-2.461,3.233-4.565,6.821-4.937,11.047c-0.548,6.241,3.418,12.021,6.409,17.022
						c1.662,2.779,3.407,5.501,5.221,8.17c0.096,0.708,0.205,1.416,0.341,2.124c0.504,2.631,2.346,4.139,4.455,4.592
						c1.223,1.63,2.473,3.238,3.748,4.823c0.95,1.18,3.267,0.64,3.487-0.975c3.473-25.491,12.098-51.472,29.152-70.404
						c4.27-4.74,9.024-8.969,14.237-12.501c5.546-3.758,11.518-6.725,17.272-10.096c5.618-3.291,11.143-7.047,15.541-12.062
						c3.86-4.401,6.693-9.714,8.436-15.419c3.776-12.355,2.324-26.563-4.478-37.43c0.608-0.469,0.979-1.259,0.723-2.26
						c-3.721-14.579,7.819-27.272,19.496-32.602c6.805-3.106,14.183-4.634,21.441-6.01c6.363-1.207,12.797-2.22,18.731-5.081
						c5.657-2.727,10.122-7.402,11.935-13.794c2.027-7.142,0.699-14.604,1.319-21.897
						C705.618,180.733,706.532,176.579,708.58,173.498z M496.934,84.051c-0.055,0.434-0.11,0.867-0.165,1.301
						c-0.227-0.277-0.455-0.554-0.684-0.827c-1.637-1.953-3.202-3.896-4.634-5.915c0.283-0.021,0.564-0.059,0.838-0.119
						c0.295,0.747,0.603,1.488,0.928,2.223c0.718,1.628,2.186,2.646,3.815,3.042C497,83.855,496.961,83.949,496.934,84.051z"/>
				</g>
			</g>
			<g>
				<path style="fill:#C8B45F;" d="M227.414,324.11c-0.955-0.791-2.144-1.111-3.198-0.656c-2.587-4.296-4.421-9.074-5.436-14.081
					c-1.501-7.407-0.617-14.795,0.802-22.13c2.541-13.132,5.64-27.194-2.086-39.146c-2.862-4.428-6.812-7.732-11.598-8.954
					c1.946-13.998-2.989-29.206-13.561-38.106c-11.515-9.694-27.447-9.079-38.942,0.385c-3.974,3.271-7.053,7.443-8.931,12.209
					c-1.761-1.035-3.637-1.867-5.565-2.5c-5.162-2.983-11.346-4.109-17.247-3.374c-0.389,0.048-0.775,0.106-1.159,0.169
					c-4.404-0.629-8.616-0.654-12.626,2.045c-2.96,1.991-4.992,5.211-6.358,8.894c-2.533,2.827-4.728,6.053-6.544,9.531
					c-2.864,5.483-4.851,11.442-6.176,17.543c-14.46-4.206-30.934-0.121-39.336,13.922c-3.95,6.603-5.338,14.647-3.525,22.25
					c1.676,7.028,5.954,13.043,10.988,17.811c4.586,4.344,9.781,7.872,15.149,11.041c-0.218,1.028-0.391,2.068-0.523,3.117
					c-3.768,6.231-3.801,14.901-0.737,21.616c2.399,5.257,6.57,9.418,11.062,12.673c0.668,0.484,1.35,0.943,2.04,1.39
					c3.116,2.362,6.454,4.14,9.943,5.435c0.459,0.401,0.808,0.865,0.97,1.415c0.03,0.269,0.07,0.537,0.118,0.806
					c0.104,1.553-0.235,3.145-0.045,4.718c0.198,1.635,0.629,3.156,1.301,4.646c0.242,0.536,0.518,1.055,0.822,1.555
					c-5.116,1.203-9.766,4.311-13.138,8.815c-5.376,7.181-6.503,16.775-3.994,25.442c5.316,18.361,23.886,27.774,40.993,28.086
					c5.27,0.096,10.514-0.733,15.401-2.584c3.672-0.546,7.333-1.249,10.926-2.2c1.43,2.303,3.234,4.373,5.403,6.147
					c5.25,4.296,12.037,6.149,18.662,5.656c6.93,0.62,14.464-1.458,19.151-7.085c3.097-3.718,4.412-8.374,4.613-13.271
					c0.216-5.257-0.869-10.489-0.423-15.743c0.335-3.954,1.675-8,5.226-9.856c3.56-1.861,7.726-1.994,11.109-4.35
					c8.61-5.994,4.762-16.45-0.28-23.809c7.616-3.298,15.46-7.492,19.555-15.269C234.178,340.796,234.306,329.815,227.414,324.11z"
					/>
				<g>
					<path style="fill:#C8B45F;" d="M133.814,124.813c-0.552-0.076,0.8,0.19,0.983,0.233c0.7,0.167,1.391,0.37,2.074,0.603
						c1.308,0.446,1.659,0.606,2.938,1.341c2.471,1.419,3.975,2.699,5.859,4.949c1.223,1.46,2.675,3.951,3.386,6.112
						c1.015,3.089,1.473,6.233,1.645,9.483c0.664,12.558-1.011,25.693,6.406,36.547c2.571,3.762,5.777,6.682,9.597,8.349
						c-0.758,10.238,5.341,20.674,14.406,24.522c2.597,1.102,5.358,1.295,8.042,2.046c0.168,0.047,1.272,0.43,1.026,0.297
						c0.266,0.129,0.555,0.295,0.796,0.468c0.032,0.04,0.074,0.093,0.141,0.176c0.654,0.814,1.132,2.379,1.635,3.587
						c2.337,5.612,6.851,9.483,12.112,11.775c4.913,2.141,10.39,2.78,15.67,2.765c2.604-0.007,5.203-0.199,7.791-0.503
						c3.122-0.366,6.167-0.855,9.185,0.286c2.847,1.076,5.466,2.715,8.406,3.548c2.565,0.727,5.289,1.099,7.944,1.134
						c5.371,0.071,10.812-1.304,15.545-4c4.508-2.568,8.481-6.685,10.567-11.675c1.443-3.452,1.997-6.93,2.417-10.663
						c0.295-2.622,0.455-5.529,1.456-7.758c0.142-0.316,0.315-0.62,0.486-0.918c0.025-0.043,0.286-0.442,0.411-0.645
						c0.177-0.193,0.577-0.659,0.695-0.787c0.055-0.06,0.32-0.308,0.458-0.443c0.07-0.056,0.133-0.105,0.149-0.115
						c0.557-0.356,1.106-0.694,1.683-1.014c0.106-0.059,0.179-0.102,0.228-0.133c0.055-0.01,0.145-0.031,0.297-0.076
						c0.567-0.166,1.121-0.376,1.692-0.53c0.501-0.135,1.005-0.251,1.512-0.355c0.345-0.071,0.691-0.128,1.036-0.193
						c0.072-0.014,0.123-0.024,0.164-0.032c5.391-0.711,10.832-0.623,16.199-1.617c5.759-1.067,11.226-3.991,15.089-8.711
						c2.224-2.718,3.857-5.654,5.067-9.01c0.462-1.281,0.798-2.604,1.015-3.956c0.148-0.921,0.256-1.853,0.349-2.782
						c0.012-0.125,0.02-0.254,0.029-0.382c0.042-0.005,0.085-0.008,0.126-0.014c1.752-0.224,3.463-0.513,5.138-1.109
						c2.912-1.036,5.569-2.534,7.997-4.513c4.782-3.898,8.456-9.356,10.009-15.579c0.396-1.589,0.611-3.239,0.756-4.873
						c0.14-1.583-0.063-3.366,0.241-4.86c0.202-0.992,0.616-1.367,1.489-2.347c1.048-1.176,2.133-2.312,3.156-3.513
						c4.257-4.995,8.037-10.545,10.963-16.525c5.846-11.951,8.689-25.83,5.477-39.086c-3.191-13.165-12.659-22.749-17.426-35.081
						c-0.838-2.169-1.42-4.49-1.871-6.88c2.235-5.084,1.87-10.73-0.544-16.283c-0.863-1.986-2.008-3.728-3.322-5.312
						c-1.198-3.595-2.825-7.023-4.923-10.148c-1.104-1.644-2.294-3.193-3.544-4.673c-82.736,14.12-156.988,52.719-215.156,108.006
						c0.243,0.472,0.496,0.939,0.766,1.395c-0.827,1.089-1.34,2.458-1.34,3.728C128.39,122.506,130.895,124.412,133.814,124.813z
						 M326.992,150.306c-0.04,0.143-0.082,0.286-0.127,0.428c-0.048,0.142-0.107,0.293-0.173,0.439
						C327.014,149.939,327.085,149.926,326.992,150.306z"/>
					<path style="fill:#8C4C3B;" d="M309.298,337.981c0.476-0.904,0.651-2.027,0.337-3.316c-1.552-6.361-3.142-12.712-4.751-19.057
						c-6.509-28.644-13.413-57.192-19.753-85.878c-2.908-13.155-5.321-26.509-5.311-40.044c0.485-6.53,1.359-13.188,1.497-19.762
						c1.331-9.861,3.317-19.651,5.056-29.403c5.338-29.934,10.676-59.867,16.014-89.801l2.002-11.225
						c0.265-1.488-0.947-3.367-2.566-2.718c-1.139,0.457-2.283,0.894-3.433,1.314c-1.169-0.584-2.547-0.608-3.803,0.313
						c-0.77,0.565-1.574,1.161-2.406,1.755c-6.454,1.949-13.056,3.321-19.747,4.056c-1.438,0.158-2.259,1.278-2.012,2.797
						c2.18,13.368,2.98,26.977,2.26,40.526c-0.664,12.491-2.259,25.572-6.496,37.326c-2.168,6.012-5.691,11.994-10.441,16.196
						c-1.272,0.4-2.541,0.969-3.833,1.543c-2.978,1.322-5.87,2.864-8.859,4.159c-1.895,0.145-3.741-0.043-5.536-0.473
						c-3.185-1.464-6.369-2.927-9.554-4.391c-0.115-0.074-0.232-0.146-0.346-0.221c-5.14-3.349-10.041-7.174-14.883-10.982
						c-11.003-8.655-21.47-18.059-31.39-28.073c-0.631-0.637-1.761-0.903-2.528-0.345c-9.515,6.91-20.159,11.668-31.47,14.069
						c-1.866,0.396-1.898,3.074-0.498,4.038c16.774,11.554,33.583,23.053,50.318,34.671c14.001,9.72,27.934,19.852,39.717,32.545
						c5.522,5.948,10.456,12.444,14.563,19.541c-1.084,0.425-1.981,1.781-1.375,3.247c13.437,32.534,26.956,65.513,33.414,100.541
						c0.914,4.959,1.654,9.939,2.227,14.935c-1.419-0.476-2.878-0.84-4.288-1.212c-15.603-4.116-31.882-5.497-47.903-4.03
						c-16.007,1.466-31.273,6.861-47.144,9.102c-5.18,0.732-10.462,1.054-15.678,0.598c-0.311-0.179-0.647-0.313-1.013-0.375
						c-6.761-1.147-13.263-3.293-19.378-6.389c-1.719-1.047-3.387-2.194-5.002-3.428c-12.058-9.22-20.774-22.618-28.8-35.642
						c-1.133-1.838-3.812-1.117-3.888,1.115c-0.535,15.834,5.235,31.33,14.989,43.221c4.916,5.993,10.925,11.088,17.601,14.714
						c3.335,1.811,6.848,3.28,10.46,4.34c0.755,0.222,1.75,0.308,2.408,0.776c0.033,0.023,0.061,0.048,0.091,0.071
						c0.19,0.871,0.406,1.774,0.654,2.684c-0.028,0.159-0.059,0.322-0.089,0.488c-0.43,2.384-1.071,4.752-1.726,7.076
						c-2.972,10.539-7.672,20.418-13.763,29.318c-0.853,1.247,0.104,2.805,1.247,3.246c3.412,1.315,6.823,2.629,10.235,3.944
						c0.787,0.303,2-0.186,2.356-1.015c3.718-8.661,7.594-17.617,13.626-24.787c2.888-3.433,6.237-6.355,10.127-8.428
						c4.802-2.558,10.246-3.585,15.549-4.15c10.649-1.136,21.43-1.642,32.125-2.016c10.892-0.381,21.823-0.313,32.677,0.818
						c8.686,0.905,17.294,2.566,25.653,5.171c-0.048,0.93-0.099,1.861-0.16,2.791c-1.176,18.041-4.309,35.843-7.251,53.63
						c-2.001,12.1-3.918,24.252-5.13,36.473c-0.2,0.522-0.306,1.092-0.288,1.694l0.031,1.03c-0.632,7.005-1.021,14.033-1.037,21.087
						c-0.003,1.085,0.963,2.357,2.086,2.209c0.551-0.073,1.102-0.132,1.654-0.196c0.654,0.41,1.422,0.672,2.258,0.763
						c1.801,0.196,3.283-0.479,4.745-1.318c2.532-0.11,5.066-0.125,7.601-0.039c0.517,0.1,1.049,0.122,1.57,0.068
						c1.12,0.056,2.24,0.123,3.36,0.217c1.373,0.115,2.346-1.502,2.012-2.797c-0.929-3.599-1.572-7.211-1.992-10.829l-0.612-10.733
						c-0.017-18.641,4.966-37.334,9.012-55.379c0.265-1.183,0.527-2.369,0.786-3.555c0.969-3.194,1.607-6.43,1.999-9.696
						c1.636-8.557,2.886-17.196,3.222-25.923C310.996,352.967,310.393,345.442,309.298,337.981z"/>
				</g>
			</g>
			<g>
				<path style="fill:#B63344;" d="M332.453,354.479c-1.669,0-39.221-5.892-39.221-5.892l105.703-104.579l10.848,10.016
					L332.453,354.479z"/>
				<path style="fill:#FBD4B9;" d="M326.89,462.446c0,0-1.669-132.123,2.782-138.015l74.842-75.268c0,0,73.699,64.957,83.991,83.516
					c0,0,9.179,132.86,6.676,137.868L326.89,462.446z"/>
				<path style="fill:#56310F;" d="M372.926,461.737c0,0-9.597-144.002,30.459-147.007s35.049,130.228,33.658,150.263
					C435.653,485.028,372.926,461.737,372.926,461.737z"/>
				<polygon style="fill:#CD9B8B;" points="556.098,307.639 488.504,332.679 495.04,468.085 558.262,438.824 				"/>
				<polygon style="fill:#CB4554;" points="399.213,244.008 491.008,216.022 584.471,301.158 498.043,341.634 				"/>
			</g>
			<polygon style="fill:#B0705B;" points="501.439,465.392 579.882,428.715 579.882,452.135 501.439,488.812 			"/>
			<polygon style="fill:#B0705B;" points="517.712,431.367 576.126,406.916 576.126,420.514 517.712,442.561 			"/>
			<polygon style="fill:#9F5242;" points="262.912,412.734 501.439,432.251 501.439,443.74 261.243,426.138 			"/>
			<polygon style="fill:#9F5242;" points="247.334,483.067 244.414,456.112 501.439,464.95 501.439,490.137 			"/>
			<polygon style="fill:#B0705B;" points="247.072,456.204 247.072,393.954 262.355,380.403 271.257,395.427 267.383,456.902 			"/>
			<polygon style="fill:#B0705B;" points="297.42,458.065 297.42,395.815 312.703,382.264 321.605,397.288 317.731,458.764 			"/>
			<polygon style="fill:#B0705B;" points="354.165,459.886 354.165,397.636 369.449,384.085 378.351,399.109 374.477,460.584 			"/>
			<polygon style="fill:#B0705B;" points="404.513,461.747 404.513,399.498 419.797,385.947 428.699,400.971 424.825,462.446 			"/>
			<polygon style="fill:#B0705B;" points="449.298,463.127 449.298,400.877 464.582,387.326 473.483,402.35 469.61,463.825 			"/>
			<polygon style="fill:#9F5242;" points="501.439,465.392 501.439,410.451 511.706,387.326 523.765,403.37 522.328,455.625 			"/>
			<polygon style="fill:#9F5242;" points="537.322,449.189 537.322,398.131 545.061,376.279 554.151,391.44 553.068,441.262 			"/>
			<polygon style="fill:#9F5242;" points="565.556,435.491 565.556,387.564 572.144,366.852 579.882,381.222 578.959,428.907 			"/>
			<polygon style="fill:#E7EFFA;" points="506.029,380.403 506.029,347.703 540.66,332.09 540.66,366.852 			"/>
			<path style="fill:none;stroke:#B0705B;stroke-miterlimit:10;" d="M453.177,258.737c0.835,0,38.943,35.645,38.943,35.645
				l36.718-12.962l-37.831-33.583L453.177,258.737z"/>
			<path style="fill:#5E4015;" d="M284.733,722.698c-9.13-28.856-13.057-59.412-11.396-89.803c0.87-15.906,2.554-31.79,3.922-47.655
				c1.377-15.97,2.782-31.938,4.296-47.895c0.821-8.659,1.549-17.265,0.429-25.935c-1.114-8.619-3.332-17.083-5.22-25.538
				c-0.618-2.766-4.642-1.595-4.023,1.175c1.356,6.073,2.855,12.141,4.025,18.267c-9.614,1.413-19.306,2.127-29.013,2.178
				c-0.047,0-0.091,0.005-0.137,0.008c0.138-7.295,0.277-14.589,0.415-21.884c0.054-2.845-4.118-2.844-4.172,0
				c-0.605,31.903-1.211,63.805-1.816,95.708c-0.302,15.903-0.614,31.806-0.899,47.709c-0.264,14.725-0.633,29.482,0.209,44.194
				c0.932,16.287,3.424,32.575,9.266,47.749c1,2.598,5.038,1.462,4.023-1.175c-1.756-4.56-3.199-9.195-4.386-13.887
				c8.413,0.334,16.708-1.566,24.271-5.458c1.693,7.904,3.748,15.721,6.183,23.417C281.558,726.556,285.589,725.405,284.733,722.698
				z M247.532,511.9c0.072,0.006,0.144,0.011,0.22,0.01c9.971-0.052,19.906-0.839,29.779-2.284c0.003,0.019,0.007,0.038,0.01,0.056
				c1.034,6.466,1.001,12.928,0.557,19.416c-0.138,0.007-0.281,0.026-0.429,0.062c-9.683,2.395-19.602,3.049-29.496,2.026
				c-0.397-0.041-0.732,0.023-1.011,0.161C247.286,524.865,247.409,518.383,247.532,511.9z M247.013,539.237
				c0.026-1.352,0.051-2.705,0.077-4.057c0.292,0.226,0.652,0.381,1.083,0.426c9.897,1.023,19.853,0.343,29.554-1.936
				c-0.596,6.618-1.203,13.234-1.809,19.85c-0.577-0.454-1.358-0.59-2.167-0.077c-8.106,5.133-18.016,2.1-26.859,1.973
				c-0.066-0.001-0.128,0.003-0.19,0.007C246.806,550.028,246.911,544.633,247.013,539.237z M246.618,559.814
				c0.089,0.012,0.179,0.02,0.275,0.022c9.632,0.137,19.811,3.005,28.668-2.398c-0.432,4.732-0.859,9.464-1.281,14.197
				c-9.138,2.331-18.613,2.833-27.916,1.407C246.449,568.632,246.533,564.223,246.618,559.814z M246.278,577.46
				c9.217,1.304,18.503,0.922,27.592-1.198c-0.134,1.528-0.272,3.055-0.405,4.583c-0.262,3.027-0.531,6.055-0.801,9.082
				c-0.137,0.033-0.276,0.079-0.417,0.143c-4.074,1.859-8.601,1.856-12.954,1.641c-4.426-0.218-8.849-0.548-13.272-0.838
				C246.108,586.403,246.192,581.932,246.278,577.46z M245.938,595.288c4.94,0.327,9.887,0.749,14.834,0.904
				c3.935,0.123,7.768-0.193,11.463-1.465c-0.404,4.507-0.803,9.015-1.192,13.524c-0.434-0.093-0.918-0.009-1.411,0.331
				c-3.56,2.462-7.807,2.356-11.888,1.901c-4.071-0.454-8.052-1.101-12.082-0.476C245.753,605.101,245.845,600.194,245.938,595.288z
				 M245.577,614.496c8.336-1.792,17.178,3.058,25.055-1.412c-0.41,4.914-0.798,9.829-1.143,14.746
				c-0.318-0.082-0.677-0.077-1.072,0.048c-7.464,2.367-15.292,3.039-23.007,1.807c-0.036-0.006-0.07-0.007-0.105-0.011
				C245.395,624.615,245.484,619.555,245.577,614.496z M245.227,634.081c8.06,1.155,16.159,0.582,23.982-1.846
				c-0.284,5.123-0.418,10.253-0.401,15.381c-3.684,0.13-6.62,3.19-10.305,2.994c-2.147-0.114-4.308-0.885-6.386-1.417l-6.776-1.736
				c-0.105-0.027-0.207-0.043-0.307-0.055C245.073,642.948,245.15,638.503,245.227,634.081z M245.304,668.543
				c-0.229-5.532-0.302-11.08-0.293-16.62c4.19,1.119,8.49,2.594,12.773,3.046c2.03,0.214,3.908-0.194,5.777-1.021
				c1.748-0.774,3.399-1.824,5.302-1.912c0.093,4.532,0.306,9.061,0.641,13.582c-0.143,0.017-0.293,0.05-0.447,0.103
				c-7.599,2.586-15.699,5.295-23.652,2.847C245.37,668.558,245.338,668.552,245.304,668.543z M245.534,673.171
				c8.195,2.051,16.49-0.426,24.343-3.091c0.124,1.347,0.255,2.694,0.401,4.039c0.346,3.188,0.751,6.368,1.214,9.537
				c-0.161,0.021-0.329,0.063-0.504,0.133c-7.89,3.135-15.969,3.021-24.235,3.038C246.197,682.301,245.801,677.744,245.534,673.171z
				 M273.486,696.083c-7.447,4.055-15.692,5.856-24.046,5.381c-0.079-0.005-0.156-0.004-0.231-0.001
				c-0.737-3.382-1.353-6.79-1.862-10.218c8.423-0.018,16.712,0,24.749-3.194c0.026-0.01,0.049-0.023,0.075-0.034
				c0.438,2.677,0.924,5.345,1.445,8.004C273.573,696.041,273.53,696.06,273.486,696.083z"/>
			<g>
				<path style="fill:#A78031;" d="M709.889,445.841c-0.476-8.708-3.867-17.257-10.745-22.297
					c5.218-11.3,11.065-24.502,7.741-37.273c-2.23-8.565-8.881-16.782-17.351-17.942c2.282-6.12,2.256-12.775-1.094-18.749
					c-0.207-0.368-0.426-0.725-0.65-1.077c-1.634-3.296-4.075-6.143-7.177-8.02c-11.361-6.877-25.811-1.015-32.624,9.97
					c-3.9,6.288-5.622,13.864-5.573,21.341c-5.355-2.408-11.75-4.573-17.098-1.327c-5.43,3.295-7.001,10.75-7.75,16.805
					c-1.629,13.164,1.642,26.656,8.844,37.448c-4.95,3.437-8.346,9.452-9.149,15.779c-0.907,7.148,1.278,13.877,4.386,20.095
					c1.067,2.606,2.171,5.197,2.86,7.913c0.873,3.442-0.289,6.481-1.216,9.635c-0.414,0.746-0.722,1.548-0.875,2.397
					c-0.226,1.252-0.498,2.621-0.411,3.91c0.083,1.227,0.176,2.599,0.596,3.772c0.341,0.955,0.659,1.944,1.148,2.827
					c0.171,0.439,0.355,0.873,0.552,1.301c3.423,7.435,9.828,12.454,15.817,17.421c1.629,1.351,3.312,2.787,4.923,4.329
					c1.059,4.62,4.365,8.177,7.637,11.755c0.282,0.308,0.563,0.616,0.846,0.923c0.428,1.514,0.68,3.103,0.704,4.778
					c0.005,0.388,0.167,0.666,0.396,0.842c-0.206,0.556-0.049,1.268,0.653,1.466c9.514,2.683,19.112-1.316,26.598-7.511
					c4.056-3.357,7.613-7.313,11.071-11.335c3.174-3.693,6.396-7.432,8.871-11.705c2.284-3.943,3.93-8.462,3.722-13.155
					c-0.112-2.527-0.798-4.947-1.328-7.397c-0.068-0.314-0.127-0.627-0.183-0.94c0.207-2.025,0.029-4.156-0.265-6.251
					c0.049-0.5,0.108-1.001,0.191-1.505c1.031-2.516,1.834-5.108,2.224-8.01c0.902-2.617,1.852-5.218,2.528-7.909
					C709.71,454.151,710.114,449.963,709.889,445.841z M628.212,423.628c-0.39-0.576-0.773-1.158-1.139-1.751
					c0.436,0.559,0.893,1.101,1.359,1.637C628.358,423.551,628.284,423.589,628.212,423.628z M656.283,531.844
					c0.02-0.091,0.034-0.186,0.032-0.293c-0.01-0.721-0.057-1.422-0.131-2.108c0.635,0.565,1.299,1.096,2.013,1.565
					c0.977,0.641,1.989,1.135,3.027,1.501C659.595,532.486,657.945,532.274,656.283,531.844z M706.969,456.389
					c-0.016,0.075-0.038,0.149-0.055,0.225c0.07-1.756,0.119-3.515,0.167-5.273c0.103-3.724,0.265-7.587-0.1-11.349
					c0.35,1.524,0.599,3.078,0.735,4.642C708.059,448.56,707.81,452.548,706.969,456.389z"/>
				<path style="fill:#683C11;" d="M671.269,548.803c-1.324-7.197-3.006-14.319-5.032-21.33
					c-3.994-13.824-9.333-27.204-15.853-39.903c-1.105-2.152-4.649-0.683-3.813,1.703c7.764,22.155,11.177,45.753,10.009,69.353
					c-0.125,2.526,3.156,2.798,3.986,0.837c1.457,0.51,2.999,0.093,4.177-0.901c0.641-0.111,1.282-0.222,1.923-0.333
					c1.397-0.242,2.871-0.347,4.004-1.345C672.913,554.909,671.735,551.337,671.269,548.803z"/>
			</g>
			<g>
				<path style="fill:#A78031;" d="M828.635,409.008c-0.554-43.087-7.668-84.551-20.376-123.459
					c-4.153-0.222-8.328,0.168-12.305,1.141c-11.522,2.818-21.145,11.3-27.636,21.506c-3.103,4.878-5.448,10.478-6.949,16.13
					c-0.66,2.483-1.116,5.022-1.811,7.495c-0.025,0.088-0.222,0.822-0.39,1.375c-0.094,0.205-0.181,0.414-0.283,0.615
					c-0.037,0.074-0.211,0.43-0.407,0.802c-0.246,0.28-0.497,0.553-0.764,0.812c-0.025,0.023-0.05,0.047-0.075,0.07
					c-0.3,0.124-0.693,0.463-1.056,0.805c-0.881,0.385-1.741,0.83-2.554,1.429c-3.727,2.745-6.329,7.066-7.333,11.737
					c-0.514,2.394-0.624,4.871-0.256,7.297c0.183,1.206,0.477,2.38,0.904,3.516c0.003,0.007,0.006,0.015,0.009,0.022
					c0.313,0.994,0.7,1.957,1.154,2.88c0.132,0.668,0.069,1.322-0.424,1.912c-0.84,1.006-2.456,1.303-3.599,1.768
					c-0.33,0.134-0.654,0.28-0.974,0.433c-1.615,0.514-3.026,1.4-4.227,2.664c-0.139,0.147-0.278,0.295-0.417,0.442
					c-0.767,0.755-1.355,1.621-1.769,2.595c-0.094,0.139-0.19,0.278-0.28,0.42c-2.503,3.927-3.632,8.873-3.001,13.569
					c0.32,2.379,1.125,4.588,2.337,6.613c1.683,2.81,4.715,6.614,1.001,9.093c-2.206,1.472-4.143,2.631-5.683,4.951
					c-1.413,2.131-2.286,4.662-2.667,7.225c-0.87,5.854,0.808,11.532,3.68,16.514c1.566,2.716,3.442,5.225,5.399,7.633
					c0.973,1.197,2.381,2.446,3.003,3.906c0.094,0.221,0.153,0.432,0.193,0.638c-0.422,1.028-0.844,2.057-1.265,3.085
					c-0.398,0.404-0.832,0.78-1.227,1.14c-2.633,2.404-4.407,5.443-5.381,8.835c-1.338,3.193-1.706,6.834-1.052,10.571
					c0.32,1.829,0.925,3.508,1.709,5.088c2.621,7.446,8.211,13.679,14.16,18.688c1.479,1.246,2.991,2.446,4.514,3.631
					c0.088,0.139,0.219,0.262,0.413,0.35c0.03,0.013,0.059,0.027,0.089,0.04c0.689,0.534,1.38,1.066,2.073,1.596
					c0.459,0.352,0.907,0.212,1.195-0.125c10.237,4.54,21.35,8.588,32.351,4.965c4.7-1.548,9.06-4.398,11.992-8.644
					c3.229-4.677,3.729-10.551,5.824-15.75c0.913,0.476,1.876,0.841,2.872,1.105c4.518,2.461,10.37,1.285,14.722-1.82
					C827.356,454.381,828.929,431.901,828.635,409.008z M772.788,499.883c4.019,0.53,8.048,0.746,12.08,0.235
					C780.83,500.891,776.784,500.683,772.788,499.883z M799.956,489.86c-1.639,3.037-4.087,5.411-6.909,7.143
					c2.804-2.076,5.077-4.962,7.223-7.93c0.083-0.115,0.165-0.232,0.247-0.348C800.341,489.108,800.157,489.487,799.956,489.86z"/>
				<path style="fill:#683C11;" d="M781.083,503.59c-5.144,2.424-10.169,5.504-14.208,9.638c-0.234-18.094,0.445-36.14,4.409-53.85
					c0.619-2.767-3.243-3.902-4.024-1.175c-9.269,32.406-18.538,64.811-27.807,97.217c-0.587,2.053,1.548,3.22,2.972,2.514
					c0.327,0.297,0.785,0.457,1.376,0.382c7.353-0.937,14.741-0.91,22.089,0.08c1.113,0.15,2.098-1.134,2.086-2.209
					c-0.127-11.474-0.643-23.02-0.936-34.564c0.491-0.684,1.028-1.324,1.511-1.921c1.349-1.665,2.794-3.243,4.326-4.72
					c3.114-3.003,6.589-5.5,10.311-7.576C785.608,506.056,783.484,502.459,781.083,503.59z"/>
			</g>
		</g>
	</g>
</g>
<g id="Layer_1">
</g>
</svg>
