<?xml version="1.0" encoding="utf-8"?>
<!-- Generator: Adobe Illustrator 19.2.1, SVG Export Plug-In . SVG Version: 6.00 Build 0)  -->
<!DOCTYPE svg PUBLIC "-//W3C//DTD SVG 1.1//EN" "http://www.w3.org/Graphics/SVG/1.1/DTD/svg11.dtd">
<svg version="1.1" id="Livello_1" xmlns="http://www.w3.org/2000/svg" xmlns:xlink="http://www.w3.org/1999/xlink" x="0px" y="0px"
	 viewBox="0 0 828.7 828.7" style="enable-background:new 0 0 828.7 828.7;" xml:space="preserve">
<style type="text/css">
	.st0{fill:#87C9F0;}
	.st1{fill:#B9BC03;}
	.st2{fill:#BD947B;}
	.st3{opacity:0.1;enable-background:new    ;}
	.st4{fill:#D49F6B;}
	.st5{fill:#7D4927;}
	.st6{fill:#AD7F63;}
	.st7{fill:#8A6655;}
	.st8{opacity:0.38;fill:#250A03;enable-background:new    ;}
	.st9{fill:none;}
	.st10{fill:#F0F2C6;}
	.st11{fill:#D83F3F;}
	.st12{fill:#593202;}
	.st13{opacity:0.36;fill:#250A03;enable-background:new    ;}
	.st14{fill:#F85145;}
	.st15{fill:#401317;}
	.st16{fill:#250A03;}
	.st17{fill:#A7C619;}
	.st18{fill:#5B7301;}
	.st19{opacity:0.34;fill:#FFFFFF;enable-background:new    ;}
	.st20{fill:#F6A600;}
	.st21{fill:#F4B647;}
	.st22{fill:#AAD506;}
	.st23{fill:#B0B067;}
	.st24{fill:#A66226;}
</style>
<g>
	<path class="st0" d="M828,437.3c-2.6,46.9-13,91.8-29.9,133.4c-7.9,19.4-17.2,38-27.9,55.8c-13.8,23.2-29.9,44.8-47.8,64.8
		c-1.2-0.9-2.4-1.8-3.8-2.8c-1.2-0.9-2.6-1.8-4-2.7c-0.3-0.2-0.5-0.4-0.8-0.5c-1.4-0.9-2.9-1.8-4.5-2.8c-0.3-0.2-0.6-0.4-1-0.6
		c-0.5-0.3-0.9-0.6-1.4-0.9c-2.5-1.5-5.1-3-8-4.7c-0.4-0.2-0.8-0.4-1.1-0.7c-2.3-1.3-4.7-2.6-7.2-4c-0.8-0.5-1.6-0.9-2.5-1.3
		c-9-4.9-19.3-10.3-30.7-16c-1.6-0.8-3.3-1.6-4.9-2.5c-4.6-2.3-9.3-4.6-14.2-7c-9.3-4.5-19.1-9.3-29.5-14.2c-1.5-0.7-3-1.4-4.5-2.1
		c-2-0.9-4-1.9-6-2.8c-5.3-2.5-10.6-5-16.1-7.5c-7.7-3.6-15.6-7.2-23.6-10.9c-2.7-1.2-5.4-2.5-8.1-3.7c-10.9-5-22.1-10-33.6-15.2
		c-1.6-0.7-3.2-1.4-4.7-2.1c-3.2-1.4-6.4-2.9-9.5-4.3c-3.2-1.4-6.4-2.9-9.7-4.3c-0.5-0.2-0.9-0.4-1.4-0.6c-1.2-0.5-2.3-1-3.5-1.5
		c-1.6-0.7-3.2-1.5-4.9-2.2c-11.1-4.9-22.4-9.9-33.7-14.9c-0.3-0.1-0.7-0.3-1-0.4c-6.2-2.7-12.5-5.5-18.8-8.2
		c-5.5-2.4-11-4.8-16.6-7.2c-3-1.3-5.9-2.6-8.9-3.9c-20.4-8.9-41-17.8-61.5-26.5c-2.1-0.9-4.3-1.8-6.4-2.7c-1.7-0.7-3.4-1.5-5.1-2.2
		c-2.6-1.1-5.2-2.2-7.8-3.3c-0.8-0.3-1.6-0.7-2.4-1c-3.4-1.5-6.8-2.9-10.2-4.3s-6.8-2.9-10.1-4.3c-3-1.3-6.1-2.6-9.1-3.9
		c-11.9-5.1-23.7-10.1-35.4-15c-10.4-4.4-20.6-8.7-30.7-13c-2.6-1.1-5.2-2.2-7.8-3.3c-2.6-1.1-5.1-2.2-7.7-3.2
		c-5.1-2.1-10.1-4.3-15.1-6.4c-0.2-0.1-0.5-0.2-0.7-0.3v-386c0.2-0.1,0.5-0.3,0.7-0.4c19.4-12.1,39.9-22.7,61.3-31.6
		C303.3,11.8,354.9,0.7,409,0c154-2,289.4,80.3,362.4,204.1c16.7,28.4,30.2,58.9,39.8,91.1l0,0c2.1,6.9,4,13.9,5.7,21
		c0,0.1,0,0.1,0,0.2c0,0,0,0,0,0.1c0.1,0.4,0.2,0.9,0.3,1.3l0,0c4.1,17.2,7.1,34.8,9,52.8c1.3,12.6,2.1,25.4,2.3,38.4
		C828.7,418.5,828.5,428,828,437.3z"/>
	<path class="st1" d="M722.3,691.4c-2.1,2.4-4.2,4.7-6.4,7c-10,10.6-20.6,20.8-31.7,30.3c-38.8,33.4-84,59.7-133.4,77l-71.6-45
		l-16.9-10.6l-0.6-0.4l-3.3-2.1l-10.7-6.7l-9.1-5.7l0,0l-0.4-0.3l-1.9-1.2l-1-0.6l0,0l-3.1-2l0,0l-0.3-0.2l-1.5-0.9l-0.2-0.2
		l-1.1-0.7l-0.2-0.1l-0.5-0.3l-1.4-0.9l-3.8-2.4l-0.1-0.1l-6-3.8l-1-0.6l-0.6-0.3l-1-0.6l0,0l-0.6-0.4l-1.8-1.2l-7.2-4.5l-3.6-2.2
		l-8.4-5.3l-2.8-1.7l-9.7-6.1l-1.5-1l-3.8-2.3l-8.9-5.6l-3.2-2l-4-2.5l-1.6-1l-5.9-3.7l-16.9-10.6l-12.3-7.8l-12.1-7.6l-0.8-0.5l0,0
		l-1.8-1.1l-4-2.5l-0.3-0.2l0,0l-0.1-0.1l-19.5-12.2l-2.3-1.5H64.3c0,0,0-0.1-0.1-0.1c-8.6-13.5-16.5-27.6-23.5-42.2h153.4V449.2
		c0.2,0.1,0.5,0.2,0.7,0.3c2.5,1,5,2.1,7.5,3.2s5.1,2.1,7.6,3.2c2.6,1.1,5.1,2.2,7.7,3.2c2.6,1.1,5.2,2.2,7.8,3.3
		c10.1,4.2,20.3,8.6,30.7,13c11.6,4.9,23.4,9.9,35.4,15c3,1.3,6.1,2.6,9.1,3.9c3.4,1.4,6.7,2.9,10.1,4.3s6.8,2.9,10.2,4.3
		c0.8,0.3,1.6,0.7,2.4,1c2.6,1.1,5.2,2.2,7.8,3.3c1.7,0.7,3.4,1.5,5.1,2.2c2.1,0.9,4.3,1.8,6.4,2.7c20.5,8.8,41,17.7,61.5,26.5
		c3,1.3,6,2.6,8.9,3.9c5.6,2.4,11.1,4.8,16.6,7.2c6.3,2.8,12.6,5.5,18.8,8.2c0.3,0.1,0.7,0.3,1,0.4c11.4,5,22.6,10,33.7,14.9
		c1.6,0.7,3.3,1.5,4.9,2.2c1.2,0.5,2.3,1,3.5,1.5c0.5,0.2,0.9,0.4,1.4,0.6c3.2,1.4,6.5,2.9,9.7,4.3c3.2,1.4,6.4,2.9,9.5,4.3
		c1.6,0.7,3.2,1.4,4.7,2.1c20,9,39.3,17.8,57.6,26.2c1.3,0.6,2.6,1.2,3.9,1.8c1.3,0.6,2.6,1.2,3.9,1.8c5.5,2.5,10.9,5.1,16.1,7.5
		c2,0.9,4,1.9,6,2.8c1.5,0.7,3,1.4,4.5,2.1c7.4,3.5,14.5,6.9,21.4,10.2c1.3,0.6,2.6,1.2,3.9,1.9c1.4,0.7,2.8,1.4,4.2,2.1
		c4.9,2.4,9.6,4.7,14.2,7c1.7,0.8,3.3,1.7,4.9,2.5c11.4,5.7,21.6,11.1,30.7,16c0.8,0.5,1.6,0.9,2.5,1.3c2.5,1.4,4.9,2.7,7.2,4
		c0.4,0.2,0.8,0.4,1.1,0.7c2.8,1.6,5.5,3.2,8,4.7c0.5,0.3,1,0.6,1.4,0.9c0.3,0.2,0.6,0.4,1,0.6c1.6,1,3,1.9,4.5,2.8
		c0.3,0.2,0.6,0.4,0.8,0.5c1.4,0.9,2.8,1.8,4,2.7C719.9,689.6,721.1,690.5,722.3,691.4z"/>
	<path class="st2" d="M1.4,380.2c3.2-5.7,5.1-8.8,5.1-8.8s80.4,32.8,187.7,77.8v-386C86.5,130.9,12.2,246.8,1.4,380.2z"/>
	<path class="st2" d="M194.2,449.2v144.6H40.8c-1.4-2.8-2.7-5.7-4-8.6C13.9,534.7,0.8,478.7,0,419.6c-0.2-13.3,0.3-26.5,1.4-39.5
		c3.2-5.7,5.1-8.8,5.1-8.8S87,404.2,194.2,449.2z"/>
	<path class="st1" d="M550.8,805.6c-28.7,10-58.9,17-90.1,20.4c-0.1,0-0.2,0-0.2,0c-11.8,1.3-23.8,2.1-36,2.4l0,0l0,0
		c-1.6,0-3.2,0.1-4.8,0.1c-36.6,0.5-72.1-3.8-106-12.3l0,0c-4.1-1-8.2-2.1-12.3-3.3c-99-28-183-91.9-237-176.9h216.9l2.3,1.5l1.6,1
		l17.2,10.8l0.8,0.5l0,0l0.3,0.2l4,2.5l1.8,1.1l0,0l0.8,0.5l12.1,7.6l12.3,7.8l16.9,10.6l5.9,3.7l1.6,1l4,2.5l3.2,2l8.9,5.6l3.8,2.3
		l1.5,1l6.3,4l6.2,3.9l8.4,5.3l3.6,2.2l7.2,4.5l1.8,1.2l0.6,0.4l0,0l0.7,0.5l0.8,0.5l1,0.6l6,3.8l0.1,0.1l3.8,2.4l1.4,0.9l0.5,0.3
		l0.2,0.1l1.1,0.7l0.2,0.2l1.5,0.9l0.3,0.2l0,0l0,0l0,0l0.2,0.2l2.8,1.8l0,0l1,0.6l1.9,1.2l0.4,0.3l0,0l9.1,5.7l10.7,6.7l3.3,2.1
		l0.6,0.4l16.9,10.6L550.8,805.6z"/>
	<path class="st3" d="M550.8,805.6c-28.7,10-58.9,17-90.1,20.4c-0.1,0-0.2,0-0.2,0c-11.8,1.3-23.8,2.1-36,2.4l0,0l0,0
		c-1.6,0-3.2,0.1-4.8,0.1c-36.6,0.5-72.1-3.8-106-12.3l0,0c-4.1-1-8.2-2.1-12.3-3.3c-99-28-183-91.9-237-176.9h216.9l2.3,1.5l1.6,1
		l17.2,10.8l0.8,0.5l0,0l0.3,0.2l4,2.5l1.8,1.1l0,0l0.8,0.5l12.1,7.6l12.3,7.8l16.9,10.6l5.9,3.7l1.6,1l4,2.5l3.2,2l8.9,5.6l3.8,2.3
		l1.5,1l6.3,4l6.2,3.9l8.4,5.3l3.6,2.2l7.2,4.5l1.8,1.2l0.6,0.4l0,0l0.7,0.5l0.8,0.5l1,0.6l6,3.8l0.1,0.1l3.8,2.4l1.4,0.9l0.5,0.3
		l0.2,0.1l1.1,0.7l0.2,0.2l1.5,0.9l0.3,0.2l0,0l0,0l0,0l0.2,0.2l2.8,1.8l0,0l1,0.6l1.9,1.2l0.4,0.3l0,0l9.1,5.7l10.7,6.7l3.3,2.1
		l0.6,0.4l16.9,10.6L550.8,805.6z"/>
</g>
<g>
	<polygon class="st4" points="241.1,114.8 286.1,83.7 310.7,147.6 289.4,529 223.9,497.9 	"/>
</g>
<g>
	<polygon class="st4" points="340.2,550.3 340.8,540.5 366.4,147.6 428.6,93.5 477.7,168.4 447.3,587.9 446.6,597.8 	"/>
</g>
<g>
	<polygon class="st4" points="487.5,614.1 531.7,206.5 602.6,144 631.6,245.8 577.5,653.4 	"/>
</g>
<g>
	<path class="st4" d="M817.3,317.7L817.3,317.7L817.3,317.7l-11.9,44.8L789.2,423l-34.9,131.1L738.1,615l-19.6,73.5l-2.6,9.7
		c-10,10.6-20.6,20.8-31.7,30.3l-52.6-39.2l6.6-44.4l9.3-62.4l9.7-65.3l12.9-86.6l0,0l0.2-1.6l0.5-3.4l0.8-5.3l1.2-8.3l1.8-12
		l1.7-11.2l0.6-3.8l0.5-3.2l0.8-5.2l0.1-0.6l2-13.4l0,0l0.2-1.2l0.1-0.9l0.2-1.6l1.3-9l0.3-1.8l0.6-3.8l0.2-1.5l0.5-3.2l0,0l0.2-1.2
		l0.1-0.4l0.2-1.7l0.6-3.9l0.8-5.7l0.8-5.6l0.2-1.2l0.1-0.4l0.4-2.4l0.1-0.6l1.3-8.6l0,0l0.9-6.2l1.2-8l3.2-21.8l4.6-4.1l72.9-63.8
		c16.7,28.4,30.2,58.9,39.8,91.1l0,0l5.7,21c0,0.1,0,0.1,0,0.2c0,0,0,0,0,0.1L817.3,317.7z"/>
</g>
<g>
	<g>
		<path class="st5" d="M329.3,177.6c1.1,0.1,433,379.6,433,379.6l-63.7,53.5L267.3,230.3L329.3,177.6z"/>
	</g>
</g>
<g>
	<path class="st6" d="M798,570.7c-7.9,19.4-17.2,38-27.9,55.8l-32-11.5l-90.5-32.5l-57.9-20.8l-92.9-33.3l-44-15.8L345.1,474
		l-51.6-18.5l-37.3-13.4l-17.9-6.4l9.2-73.9l8.7,3.3l41.5,15.7l52.2,19.8l108,41l46.4,17.6l94.2,35.8l58.7,22.3l97,36.8L798,570.7z"
		/>
</g>
<g>
	<path class="st6" d="M828,437.3L789.2,423l-92.3-34l-12-4.4l-7.5-2.8l-16.8-6.2l-1.9-0.7l-3-1.1l-21.5-7.9l-1.1-0.4l-9.6-3.5
		l-1.5-0.5l-5.5-2l-2.4-0.9l-0.2-0.1l-0.3-0.1l-1.3-0.5l-7.2-2.7l-2.4-0.9l-1.2-0.4l-0.6-0.2l-4-1.5l-1.8-0.7H595l-0.6-0.2
		l-14.5-5.3l-1.5-0.5l-8.1-3l-0.6-0.2l-8.7-3.2l-0.2-0.1l-41.3-15.3l-0.7-0.2l-4.5-1.7h-0.1l-13-4.8l-33.6-12.4l-30.5-11.3l-9.2-3.4
		l-23.7-8.7l-8.7-3.2l-37-13.7L305,244.5l-38-14l-11.1-4.1l-19.8-7.3l-2.7-1l4.3-34.8l4.9-39.1l13.3,5.2l53.3,20.7l54.1,21l2.6,1
		l6.7,2.6l1.1,0.4l11.6,4.5l11.2,4.4l17.1,6.6l5.8,2.3l8.6,3.3l12.1,4.7l3.3,1.3l3.2,1.2l6.2,2.4l2.7,1l14.1,5.5l1.9,0.8l0.6,0.2
		l0.3,0.1l0.4,0.2l8,3.1l11.1,4.3l2.4,0.9l0.3,0.1l5,1.9l1.9,0.8l3.7,1.4h0.1l5.2,2l3.6,1.4l2.9,1.1l4.1,1.6l1.3,0.5l3.6,1.4
		l0.3,0.1l2.1,0.8l1.3,0.5l0.8,0.3l11.1,4.3l3,1.2l1.9,0.7l0.8,0.3l9.8,3.8l2,0.8l0.5,0.2l2,0.8l1.2,0.5l0.1,0.1l1.5,0.6l20.2,7.8
		l0,0l11.8,4.6l15.1,5.8l3.6,1.4h0.1l1.8,0.7l0.2,0.1l8,3.1l1.7,0.7l2,0.8l3.6,1.4l6.7,2.6l6.3,2.4l3.1,1.2l0.7,0.2l3.3,1.3
		l14.4,5.6l0.2,0.1l2.5,1L683,315l4.1,1.6h0.1l0.5,0.2l2.1,0.8l1.2,0.5l1.7,0.7l3.3,1.3l1.8,0.7l18,7l5.9,2.3l13.1,5.1l3.8,1.5
		l3.5,1.4l5.2,2l27.8,10.8l30.4,11.8l20.9,8.1c1.3,12.6,2.1,25.4,2.3,38.4C828.7,418.5,828.5,428,828,437.3z"/>
</g>
<g>
	<path class="st7" d="M256.2,31.2v561.4h-61.3V62.8C214.3,50.7,234.8,40.1,256.2,31.2z"/>
</g>
<g>
	<path class="st6" d="M281.3,585.2V636h-217c-8.6-13.5-16.5-27.6-23.5-42.2c-1.4-2.8-2.7-5.7-4-8.6H281.3z"/>
</g>
<g>
	<circle class="st7" cx="160.8" cy="193.4" r="22.6"/>
</g>
<g>
	<polygon class="st8" points="428.5,289.8 295.5,255.1 267.3,230.3 	"/>
</g>
<g>
	<g>
		<g>
			<g>
				<g>
					
						<rect x="595.3" y="340.1" transform="matrix(0.2644 -0.9644 0.9644 0.2644 106.9304 833.46)" class="st9" width="9" height="13.1"/>
					<path class="st10" d="M601.1,342.3c3.5,1,5.1,6.3,5.1,6.3s-4,3.4-7.5,2.5c-3.5-1-5.2-5.9-5.2-5.9S597.6,341.3,601.1,342.3z"/>
				</g>
				<g>
					
						<rect x="593.1" y="345.4" transform="matrix(0.2161 -0.9764 0.9764 0.2161 128.3592 859.3154)" class="st9" width="12.5" height="8.6"/>
					<path class="st10" d="M595.1,348.8c0.7-3.4,5.7-5.1,5.7-5.1s3.4,3.6,2.7,7s-5.4,5.2-5.4,5.2S594.4,352.2,595.1,348.8z"/>
				</g>
				<g>
					
						<rect x="620.3" y="351" transform="matrix(0.9314 -0.3641 0.3641 0.9314 -86.2197 252.1617)" class="st9" width="10.8" height="7.5"/>
					<path class="st10" d="M624.4,351.3c2.8-1.1,6.5,1.6,6.5,1.6s-1,4.2-3.7,5.3s-6.3-1.4-6.3-1.4S621.7,352.4,624.4,351.3z"/>
				</g>
				<g>
					<rect x="633" y="370" transform="matrix(0.5067 -0.8621 0.8621 0.5067 -7.156 733.4388)" class="st9" width="8.7" height="6"/>
					<path class="st10" d="M634.8,371.5c1.2-2.1,4.9-2.2,4.9-2.2s1.5,3.1,0.3,5.2s-4.7,2.3-4.7,2.3S633.5,373.5,634.8,371.5z"/>
				</g>
			</g>
		</g>
		<g>
			<g>
				<g>
					
						<rect x="580.1" y="324.6" transform="matrix(0.2298 -0.9732 0.9732 0.2298 127.7489 824.7532)" class="st9" width="9.7" height="14.1"/>
					<path class="st10" d="M586.1,326.8c3.8,0.9,5.7,6.5,5.7,6.5s-4.1,3.8-7.9,2.9s-5.8-6.1-5.8-6.1S582.3,325.9,586.1,326.8z"/>
				</g>
				<g>
					
						<rect x="598.5" y="341.8" transform="matrix(0.8161 -0.578 0.578 0.8161 -90.4647 412.6428)" class="st9" width="9.2" height="13.3"/>
					<path class="st10" d="M606.6,345.8c2.1,3-0.1,8.2-0.1,8.2s-5.3,0.1-7.4-2.9s-0.3-8-0.3-8S604.5,342.8,606.6,345.8z"/>
				</g>
				<g>
					
						<rect x="611.1" y="356.5" transform="matrix(0.8197 -0.5728 0.5728 0.8197 -95.3567 418.7358)" class="st9" width="12.7" height="8.7"/>
					<path class="st10" d="M614.9,357.3c2.9-2,7.8,0.1,7.8,0.1s0.1,5.1-2.8,7.1s-7.6,0.2-7.6,0.2S612,359.3,614.9,357.3z"/>
				</g>
				<g>
					
						<rect x="620.4" y="366.8" transform="matrix(0.6129 -0.7901 0.7901 0.6129 -52.8952 637.9116)" class="st9" width="8.4" height="12.2"/>
					<path class="st10" d="M627.4,369.5c2.7,2.1,2.1,7.2,2.1,7.2s-4.6,1.5-7.3-0.6s-2.3-6.9-2.3-6.9S624.7,367.5,627.4,369.5z"/>
				</g>
				<g>
					
						<rect x="650.5" y="353.1" transform="matrix(0.5526 -0.8335 0.8335 0.5526 -5.717 704.9839)" class="st9" width="6.5" height="9.5"/>
					<path class="st10" d="M655.5,355.1c2.2,1.4,2.1,5.4,2.1,5.4s-3.5,1.4-5.7,0s-2.2-5.2-2.2-5.2S653.3,353.7,655.5,355.1z"/>
				</g>
			</g>
		</g>
		<g>
			<g>
				<g>
					
						<rect x="661.3" y="340.1" transform="matrix(0.3357 -0.942 0.942 0.3357 115.4698 858.33)" class="st9" width="10" height="14.4"/>
					<path class="st10" d="M667.8,342.6c3.8,1.3,5.1,7.3,5.1,7.3s-4.6,3.4-8.4,2.1c-3.8-1.3-5.2-6.9-5.2-6.9
						S664.1,341.3,667.8,342.6z"/>
				</g>
				<g>
					
						<rect x="672.6" y="337.7" transform="matrix(0.8166 -0.5772 0.5772 0.8166 -74.7313 454.2224)" class="st9" width="9.6" height="14"/>
					<path class="st10" d="M681.3,341.8c2.2,3.2-0.1,8.6-0.1,8.6s-5.6,0.1-7.8-3s-0.3-8.4-0.3-8.4S679.1,338.7,681.3,341.8z"/>
				</g>
				<g>
					
						<rect x="664.4" y="328.6" transform="matrix(0.9981 -6.199558e-02 6.199558e-02 0.9981 -19.3726 42.2536)" class="st9" width="13.6" height="9.4"/>
					<path class="st10" d="M670.8,328.6c3.7-0.2,7.1,4.4,7.1,4.4s-2.8,4.7-6.5,4.9s-7-4.1-7-4.1S667.1,328.8,670.8,328.6z"/>
				</g>
				<g>
					
						<rect x="673.6" y="331.9" transform="matrix(0.4245 -0.9054 0.9054 0.4245 84.0664 808.2202)" class="st9" width="8.4" height="12.1"/>
					<path class="st10" d="M679.7,334.2c3,1.4,3.6,6.5,3.6,6.5s-4.2,2.5-7.2,1.1s-3.8-6.2-3.8-6.2S676.6,332.8,679.7,334.2z"/>
				</g>
				<g>
					
						<rect x="666" y="344.6" transform="matrix(0.8696 -0.4938 0.4938 0.8696 -85.49 376.3502)" class="st9" width="7.4" height="10.8"/>
					<path class="st10" d="M672.9,348.2c1.5,2.6-0.7,6.6-0.7,6.6s-4.3-0.3-5.8-2.9s0.4-6.5,0.4-6.5S671.5,345.6,672.9,348.2z"/>
				</g>
				<g>
					
						<rect x="659.1" y="362.7" transform="matrix(0.3859 -0.9225 0.9225 0.3859 70.0243 837.0133)" class="st9" width="9.2" height="6.4"/>
					<path class="st10" d="M660.7,364.6c1-2.4,4.8-3,4.8-3s2,3.1,1,5.4s-4.6,3.1-4.6,3.1S659.8,366.9,660.7,364.6z"/>
				</g>
			</g>
		</g>
		<g>
			<path class="st11" d="M687.5,390.1l-4.7,10.9l-9.2,21.6l-9.1,21.4c-49.4,10-93-28-93-28v-61.2
				C618.6,384.7,687.5,390.1,687.5,390.1z"/>
			<path class="st12" d="M658.1,337.4c2.6-8.9,4-17.2,9.6-25c2.6-3.6,6.5-8.7,10.7-10.7c5-2.4,9.3,0.9,10,5.9
				c0.4,3.1-0.5,6.1-1.2,9.1c-0.4,1.7,2,2.4,2.6,0.7c2-5.6,2.9-13.1-2.1-17.5c-4.5-3.9-9.4-1.9-13.5,1.6c-9.5,8-18.5,22.7-16.8,35.6
				c-5.6-2-11.5-3.8-17.7-5.4c-8.2-2.2-16.1-3.8-23.7-4.9c2.1-9.2,6.2-18.3,11.9-25.8c3.1-4.2,7-8.7,12.3-9.9c6-1.4,14,3.7,9.4,10.3
				c-1.3,1.8,1.7,3.6,3,1.8c3-4.3,1.9-10.1-2.1-13.4c-4-3.2-9.8-3-14.3-0.8c-13.2,6.2-19.3,24.5-21.5,37.7
				c-28.7-4.1-50.8-0.8-53.4,9.3c-3.4,12.8,26.3,31.7,66.2,42.2s75.1,8.7,78.5-4.2C708.7,363.2,688.3,348.2,658.1,337.4z"/>
			<path class="st13" d="M682.9,401l-8.2,19.6c-20.9-1.4-63.2-5.5-103.1-30v-23.1C588.9,378.8,622.8,394.4,682.9,401z"/>
			<path class="st14" d="M561.1,335.9l2.9,42.2c0,0,34,31.2,118.8,34.5l23-38.6C705.8,374,636.8,391.2,561.1,335.9z"/>
		</g>
		<path class="st15" d="M699.4,374.5c-17.3,2.6-70.6,6.2-129.6-32.7c9.5-3.4,25.3-3.9,44-1.3c0.1,0.1,0.1,0.1,0.2,0.2
			c2,1.6,4.2,1.6,6.2,0.9c6.1,1,12.3,2.4,18.8,4.1c6.2,1.6,12.1,3.5,17.7,5.4c-0.1-0.9-0.2-1.7-0.2-2.6c0.4,0.5,0.9,1,1.4,1.5
			c-0.1,0.5-0.3,0.9-0.4,1.4C676.4,358.1,691.5,366.5,699.4,374.5z"/>
		<path class="st16" d="M672.3,425.7c-0.1,0-0.2,0-0.4,0h-1c-18.5,0-37.1-1.3-55.1-6c-2.3-0.6-4.7-1.3-7-2
			c-5.6-1.8-11.1-3.9-16.3-6.5c-7.5-3.7-13.9-8.7-21-13.2c-0.1-0.1-0.1-0.1-0.2-0.1c-0.2-0.1-0.4,0.2-0.3,0.3
			c0.2,0.2,0.3,0.4,0.5,0.6c5,5.6,11.9,9.8,18.5,13.3c-1.8,4.6-3,9.4-4.2,14.1c0,0,0,0.1,0,0.2c-4.8-3.1-9.6-6.4-14.4-9.9
			c-0.6-0.4-1.1,0.4-0.7,0.9c8.9,10.5,21.9,18,35.1,22.9c2.9,1.1,5.8,2,8.6,2.8c16.5,4.9,34,5.8,51,2.7c1.9-0.4,1.3-3-0.3-3.2
			c-0.2,0-0.4,0-0.6,0c-14.9,2.8-30.1,2.3-44.8-1.2c0-0.1,0.1-0.2,0.1-0.3c0.7-5.6,1.6-11.3,2-16.9c15.8,3.8,32.3,4.8,48.6,4.9h1.4
			C674,429.2,674.1,426.1,672.3,425.7z M617,440.8L617,440.8c-0.8-0.2-1.6-0.3-2.5-0.7c-2.9-0.8-5.6-1.8-8.3-2.9
			c-6.3-2.5-12.1-5.6-17.8-9.1c0-0.1,0.1-0.2,0.1-0.2l0,0c1.1-4.9,2.4-9.9,2.8-15c0,0,0.1,0,0.1,0.1c5.5,2.9,11.2,5.3,17,7.4
			c1.9,0.7,3.8,1.3,5.8,1.9s3.9,1.1,5.9,1.6C618.8,429.4,618.1,435.2,617,440.8z"/>
		<g>
			<path class="st1" d="M594.2,308.3c8,10.7,0.6,29.9,0.6,29.9s-19.4,0.9-27.4-9.8s-1.7-29.1-1.7-29.1S586.2,297.5,594.2,308.3z"/>
		</g>
		<path class="st17" d="M596.1,235.6c-1.4-1.4-4,0.5-2.8,2.2c6.2,9.2,11.9,17.6,15.1,28.4c3,10.1,4.1,20.8,3.2,31.3
			c-1,11-4.3,21.5-9.6,31.2c-4.5,8.3-9.9,17.4-5.4,26.8c0.3,0.6,1.3,0.2,1.1-0.5c-3.8-11.9,6.9-23,11.2-33.3
			c4.1-9.5,6.2-19.8,6.5-30.2C615.8,272.4,610,249.4,596.1,235.6z"/>
		<path class="st17" d="M661.5,260.1c-5.6,19.7-12.8,37.9-24.9,54.7c-9.1,12.6-29.8,28.6-23.3,46.5c0.2,0.5,1.1,0.5,1-0.1
			c-1.2-11.2,3.7-19.9,10.9-28.2c6.1-7,12.2-13.9,17.4-21.6c10.1-15,18.5-32.7,21.8-50.5C664.8,259.1,662.1,258.3,661.5,260.1z"/>
		<path class="st17" d="M706.6,285.4c-0.4-2-3.3-1.1-3,0.8c4.6,25.1-24.8,35.7-42.3,44.4c-15,7.4-31.4,21-27.6,39.7
			c0.1,0.6,1,0.3,0.9-0.2c-3.7-25.4,26-35.7,43.8-44.5C693.7,318.3,710.5,304.4,706.6,285.4z"/>
		<path class="st17" d="M746.8,297.4c-0.8-2.3-4.4-1.3-3.7,1c7.5,23.5-4.7,49.3-28.6,56.9c-19.2,6.1-44.6,0.4-58.8,18
			c-0.2,0.2,0.1,0.6,0.3,0.3c18.6-18.5,48.1-7.2,69.6-19.6C745.1,342.7,753.8,318.7,746.8,297.4z"/>
		<path class="st17" d="M522.9,240.3c-0.2-2.3-3.8-2.4-3.7,0c2.8,44,59,62.5,59.5,107.1c0,0.9,1.3,0.9,1.4,0
			C581.8,302.8,527.3,283,522.9,240.3z"/>
		<g>
			<path class="st1" d="M739.2,378.4c-13.4-1-22.9-19.2-22.9-19.2s12-15.2,25.4-14.2s23,17.8,23,17.8S752.6,379.4,739.2,378.4z"/>
		</g>
		<g>
			<path class="st1" d="M653.9,320.6c2.3,10.4-9.3,21.9-9.3,21.9s-14.4-5.6-16.7-16.1s8.2-21.7,8.2-21.7S651.5,310.2,653.9,320.6z"
				/>
		</g>
		<g>
			<path class="st1" d="M704.7,295.7c9.1-2.9,20.2,6.5,20.2,6.5s-3.9,13.2-12.9,16.1s-19.9-5.6-19.9-5.6S695.6,298.6,704.7,295.7z"
				/>
		</g>
		<g>
			<path class="st1" d="M514,251.2c9.2,1.9,14.2,15.3,14.2,15.3s-9.7,9.5-18.8,7.6c-9.2-1.9-14.3-14.3-14.3-14.3
				S504.9,249.3,514,251.2z"/>
		</g>
		<g>
			<path class="st1" d="M604.9,249.7c7.5,5.6,6.2,19.9,6.2,19.9s-12.8,4.4-20.2-1.2c-7.5-5.6-6.8-19.1-6.8-19.1
				S597.5,244.1,604.9,249.7z"/>
		</g>
		<g>
			<path class="st1" d="M695.3,340.5c7.5,5.6,6.2,19.9,6.2,19.9s-12.8,4.4-20.2-1.2c-7.5-5.6-6.8-19.1-6.8-19.1
				S687.8,334.8,695.3,340.5z"/>
		</g>
		<g>
			<path class="st1" d="M666.6,270.3c8.9-2.8,19.8,6.5,19.8,6.5s-3.8,13-12.7,15.8s-19.5-5.5-19.5-5.5S657.7,273.1,666.6,270.3z"/>
		</g>
		<g>
			<path class="st1" d="M621.2,285.3c7.8-5.1,20.8,1,20.8,1s-0.3,13.5-8.1,18.6s-20.3-0.2-20.3-0.2S613.3,290.4,621.2,285.3z"/>
		</g>
		<g>
			
				<rect x="535.9" y="262.7" transform="matrix(5.470046e-02 -0.9985 0.9985 5.470046e-02 248.6779 811.3386)" class="st9" width="33.8" height="23.3"/>
			<path class="st1" d="M541.2,273.6c0.5-9.3,13-16.2,13-16.2s10.8,8.2,10.2,17.5c-0.5,9.3-12.1,16.3-12.1,16.3
				S540.7,283,541.2,273.6z"/>
		</g>
		<g>
			<path class="st1" d="M756.8,302c8.7-3.3,20.1,5.3,20.1,5.3s-3.1,13.2-11.8,16.5s-19.8-4.4-19.8-4.4S748,305.3,756.8,302z"/>
		</g>
		<path class="st18" d="M721.6,268c0.2-2.3,3.8-2.4,3.7,0c-2.8,44-59,62.5-59.5,107.1c0,0.9-1.3,0.9-1.4,0
			C662.8,330.4,717.3,310.7,721.6,268z"/>
		<g>
			<path class="st18" d="M551.7,267.6c13.4-1,22.9-19.2,22.9-19.2s-12-15.2-25.4-14.2s-23,17.8-23,17.8S538.4,268.6,551.7,267.6z"/>
		</g>
		<g>
			<path class="st18" d="M695.4,325.8c-2.3,10.4,9.3,21.9,9.3,21.9s14.4-5.6,16.7-16.1s-8.2-21.7-8.2-21.7S697.7,315.4,695.4,325.8z
				"/>
		</g>
		<g>
			<path class="st18" d="M603,272c-9.1-2.9-20.2,6.5-20.2,6.5s3.9,13.2,12.9,16.1s19.9-5.6,19.9-5.6S612.1,274.9,603,272z"/>
		</g>
		<g>
			<path class="st18" d="M762.3,307.9c-9.2,1.9-14.2,15.3-14.2,15.3s9.7,9.5,18.8,7.6c9.2-1.9,14.3-14.3,14.3-14.3
				S771.5,306.1,762.3,307.9z"/>
		</g>
		<g>
			<path class="st18" d="M612.9,241.4c-7.5,5.6-6.2,19.9-6.2,19.9s12.8,4.4,20.2-1.2c7.5-5.6,6.8-19.1,6.8-19.1
				S620.4,235.8,612.9,241.4z"/>
		</g>
		<g>
			<path class="st18" d="M686.5,319.9c-8.9-2.8-19.8,6.5-19.8,6.5s3.8,13,12.7,15.8s19.5-5.5,19.5-5.5S695.4,322.7,686.5,319.9z"/>
		</g>
		<g>
			<path class="st18" d="M767.7,335.6c-7.8-5.1-20.8,1-20.8,1s0.3,13.5,8.1,18.6s20.3-0.2,20.3-0.2S775.5,340.7,767.7,335.6z"/>
		</g>
		<g>
			<path class="st18" d="M735.1,337.2c-0.5-9.3-13-16.2-13-16.2s-10.8,8.2-10.2,17.5c0.5,9.3,12.1,16.3,12.1,16.3
				S735.6,346.5,735.1,337.2z"/>
		</g>
		<g>
			<path class="st18" d="M565.5,302c-8.7-3.3-20.1,5.3-20.1,5.3s3.1,13.2,11.8,16.5s19.8-4.4,19.8-4.4S574.2,305.3,565.5,302z"/>
		</g>
		<g>
			<path class="st1" d="M674.4,309.3c12.5,3.8,18.8,23.2,18.8,23.2s-13.8,11.9-26.3,8s-19.1-22-19.1-22S661.9,305.4,674.4,309.3z"/>
		</g>
		<g>
			<path class="st1" d="M580,310.4c7.9-3.8,19.9,3.9,19.9,3.9s-1.3,13-9.2,16.8s-19.4-3-19.4-3S572.1,314.2,580,310.4z"/>
		</g>
		<g>
			<path class="st1" d="M680.2,275.6c2.7-8.5,16-11.2,16-11.2s8.1,10.8,5.4,19.3s-15.1,11.5-15.1,11.5S677.5,284.1,680.2,275.6z"/>
		</g>
		<g>
			<polygon class="st9" points="622.2,286.2 604.2,298.6 623.6,326.4 641.6,313.9 			"/>
			<path class="st1" d="M613.9,312.5c-5.4-7.7-0.3-20.3-0.3-20.3s13,0.2,18.3,7.9s1.1,19.8,1.1,19.8S619.3,320.2,613.9,312.5z"/>
		</g>
		<g>
			<path class="st18" d="M658.6,275.5c-8.5,2.9-10.9,16.8-10.9,16.8s11,8.2,19.5,5.2c8.5-2.9,11.2-15.9,11.2-15.9
				S667.1,272.6,658.6,275.5z"/>
		</g>
		<g>
			<path class="st18" d="M622.9,270.8c-2.1,8.7,7.6,19.3,7.6,19.3s12.1-3.9,14.2-12.6s-6.7-19-6.7-19S624.9,262.1,622.9,270.8z"/>
		</g>
		<path class="st19" d="M651,377.2c-14.4-0.9-28.9-4.7-42.3-10.1c-13.7-5.5-25.4-13.8-37.9-21.5c-3.1-1.9-6.2,2.3-3.8,4.9
			c10.4,10.9,25,18.4,38.8,24c14.6,6,29.6,9.2,45.2,11C656.3,386.2,656.5,377.5,651,377.2z"/>
	</g>
</g>
<g>
	<g>
		<g>
			<g>
				<g>
					
						<rect x="433.9" y="247.6" transform="matrix(0.4866 -0.8736 0.8736 0.4866 5.8517 514.0274)" class="st9" width="12.7" height="8.8"/>
					<path class="st10" d="M436.4,249.8c1.7-3.1,7.1-3.3,7.1-3.3s2.3,4.5,0.6,7.6c-1.7,3.1-6.8,3.5-6.8,3.5S434.7,252.9,436.4,249.8
						z"/>
				</g>
				<g>
					
						<rect x="435.4" y="279.8" transform="matrix(0.936 -0.352 0.352 0.936 -72.3752 172.9242)" class="st9" width="7.9" height="11.4"/>
					<path class="st10" d="M443,284.1c1.1,2.9-1.8,6.8-1.8,6.8s-4.4-1.1-5.5-4s1.5-6.7,1.5-6.7S441.9,281.2,443,284.1z"/>
				</g>
				<g>
					
						<rect x="466" y="292.9" transform="matrix(0.5023 -0.8647 0.8647 0.5023 -23.6522 553.5013)" class="st9" width="6" height="8.7"/>
					<path class="st10" d="M470.5,294.7c2.1,1.2,2.2,4.9,2.2,4.9s-3.1,1.5-5.2,0.3s-2.3-4.6-2.3-4.6S468.4,293.5,470.5,294.7z"/>
				</g>
			</g>
		</g>
		<g>
			<g>
				<g>
					
						<rect x="417.4" y="233.5" transform="matrix(0.6795 -0.7337 0.7337 0.6795 -41.1739 386.9513)" class="st9" width="9.8" height="14.2"/>
					<path class="st10" d="M425.6,237c2.9,2.7,1.7,8.5,1.7,8.5s-5.5,1.3-8.4-1.4s-2-8.2-2-8.2S422.7,234.4,425.6,237z"/>
				</g>
				<g>
					
						<rect x="416.9" y="254.1" transform="matrix(0.1039 -0.9946 0.9946 0.1039 118.3004 653.2201)" class="st9" width="9.5" height="13.8"/>
					<path class="st10" d="M422.1,256.3c3.8,0.4,6.3,5.6,6.3,5.6s-3.5,4.2-7.3,3.8c-3.8-0.4-6.4-5.2-6.4-5.2
						S418.3,255.9,422.1,256.3z"/>
				</g>
				<g>
					
						<rect x="441.1" y="253.5" transform="matrix(7.740001e-02 -0.997 0.997 7.740001e-02 155.746 684.3715)" class="st9" width="13.1" height="9.1"/>
					<path class="st10" d="M443.1,257.7c0.3-3.6,5.2-6.2,5.2-6.2s4.1,3.3,3.8,6.9c-0.3,3.6-4.8,6.2-4.8,6.2S442.8,261.3,443.1,257.7
						z"/>
				</g>
				<g>
					
						<rect x="451.7" y="282.8" transform="matrix(5.590608e-02 -0.9984 0.9984 5.590608e-02 145.6642 728.2053)" class="st9" width="12.3" height="8.5"/>
					<path class="st10" d="M453.7,286.8c0.2-3.4,4.7-5.9,4.7-5.9s3.9,3,3.7,6.3c-0.2,3.4-4.4,5.9-4.4,5.9S453.5,290.1,453.7,286.8z"
						/>
				</g>
				<g>
					
						<rect x="482.2" y="285.8" transform="matrix(0.1448 -0.9895 0.9895 0.1448 127.6625 728.8479)" class="st9" width="6.5" height="9.5"/>
					<path class="st10" d="M485.8,287.4c2.6,0.4,4.2,4,4.2,4s-2.5,2.8-5.1,2.4s-4.2-3.8-4.2-3.8S483.2,287,485.8,287.4z"/>
				</g>
			</g>
		</g>
		<g>
			<g>
				<g>
					
						<rect x="494.2" y="257.5" transform="matrix(0.3357 -0.942 0.942 0.3357 82.2413 646.0513)" class="st9" width="10" height="14.4"/>
					<path class="st10" d="M500.8,260.1c3.8,1.3,5.1,7.3,5.1,7.3s-4.6,3.4-8.4,2.1s-5.2-6.9-5.2-6.9S497.1,258.8,500.8,260.1z"/>
				</g>
				<g>
					
						<rect x="505.5" y="255.2" transform="matrix(0.8166 -0.5772 0.5772 0.8166 -57.7691 342.6303)" class="st9" width="9.6" height="14"/>
					<path class="st10" d="M514.3,259.4c2.2,3.2-0.1,8.6-0.1,8.6s-5.6,0.1-7.8-3c-2.2-3.2-0.3-8.4-0.3-8.4S512.1,256.2,514.3,259.4z
						"/>
				</g>
				<g>
					
						<rect x="497.3" y="246.1" transform="matrix(0.9981 -6.199558e-02 6.199558e-02 0.9981 -14.5792 31.7351)" class="st9" width="13.6" height="9.4"/>
					<path class="st10" d="M503.8,246.1c3.7-0.2,7.1,4.4,7.1,4.4s-2.8,4.7-6.5,4.9s-7-4.1-7-4.1S500.1,246.3,503.8,246.1z"/>
				</g>
				<g>
					
						<rect x="506.6" y="249.5" transform="matrix(0.4245 -0.9054 0.9054 0.4245 62.6247 609.5353)" class="st9" width="8.4" height="12.1"/>
					<path class="st10" d="M512.6,251.7c3,1.4,3.6,6.5,3.6,6.5s-4.2,2.5-7.2,1.1s-3.8-6.2-3.8-6.2S509.6,250.3,512.6,251.7z"/>
				</g>
				<g>
					
						<rect x="499" y="262.1" transform="matrix(0.8696 -0.4938 0.4938 0.8696 -66.5267 283.1258)" class="st9" width="7.4" height="10.8"/>
					<path class="st10" d="M505.9,265.7c1.5,2.6-0.7,6.6-0.7,6.6s-4.3-0.3-5.8-2.9s0.4-6.5,0.4-6.5S504.4,263.1,505.9,265.7z"/>
				</g>
				<g>
					
						<rect x="492" y="280.1" transform="matrix(0.3859 -0.9225 0.9225 0.3859 43.6208 632.1469)" class="st9" width="9.2" height="6.4"/>
					<path class="st10" d="M493.7,282.1c1-2.4,4.8-3,4.8-3s2,3.1,1,5.4s-4.6,3.1-4.6,3.1S492.7,284.5,493.7,282.1z"/>
				</g>
			</g>
		</g>
		<g>
			<path class="st20" d="M520.5,307.6l-4.7,10.9l-9.2,21.6l-9.1,21.4c-49.4,10-93-28-93-28v-61.2
				C451.6,302.2,520.5,307.6,520.5,307.6z"/>
			<path class="st12" d="M491.1,254.9c2.6-8.9,4-17.2,9.6-25c2.6-3.6,6.5-8.7,10.7-10.7c5-2.4,9.3,0.9,10,5.9
				c0.4,3.1-0.5,6.1-1.2,9.1c-0.4,1.7,2,2.4,2.6,0.7c2-5.6,2.9-13.1-2.1-17.5c-4.5-3.9-9.4-1.9-13.5,1.6c-9.5,8-18.5,22.7-16.8,35.6
				c-5.6-2-11.5-3.8-17.7-5.4c-8.2-2.2-16.1-3.8-23.7-4.9c2.1-9.2,6.2-18.3,11.9-25.8c3.1-4.2,7-8.7,12.3-9.9c6-1.4,14,3.7,9.4,10.3
				c-1.3,1.8,1.7,3.6,3,1.8c3-4.3,1.9-10.1-2.1-13.4c-4-3.2-9.8-3-14.3-0.8c-13.2,6.2-19.3,24.5-21.5,37.7
				c-28.7-4.1-50.8-0.8-53.4,9.3c-3.4,12.8,26.3,31.7,66.2,42.2s75.1,8.7,78.5-4.2C541.6,280.7,521.3,265.7,491.1,254.9z"/>
			<path class="st13" d="M515.8,318.6l-8.2,19.6c-20.9-1.4-63.2-5.5-103.1-30v-23.1C421.9,296.3,455.8,312,515.8,318.6z"/>
			<path class="st21" d="M394.1,253.4l2.9,42.2c0,0,34,31.2,118.8,34.5l23-38.6C538.8,291.5,469.7,308.7,394.1,253.4z"/>
		</g>
		<path class="st15" d="M532.4,292c-17.3,2.6-70.6,6.2-129.6-32.7c9.5-3.4,25.3-3.9,44-1.3c0.1,0.1,0.1,0.1,0.2,0.2
			c2,1.6,4.2,1.6,6.2,0.9c6.1,1,12.3,2.4,18.8,4.1c6.2,1.6,12.1,3.5,17.7,5.4c-0.1-0.9-0.2-1.7-0.2-2.6c0.4,0.5,0.9,1,1.4,1.5
			c-0.1,0.5-0.3,0.9-0.4,1.4C509.4,275.6,524.5,284,532.4,292z"/>
		<path class="st16" d="M505.3,343.2c-0.1,0-0.2,0-0.4,0c-13.2,0-26.6-0.6-39.7-2.6c-5.5-0.9-11-2-16.4-3.4
			c-8-2.1-15.9-4.9-23.3-8.5c-7.5-3.7-13.9-8.7-21-13.2c-0.1-0.1-0.1-0.1-0.2-0.1c-0.2-0.1-0.4,0.2-0.3,0.3c0.2,0.2,0.3,0.4,0.5,0.6
			c5,5.6,11.9,9.8,18.5,13.3c-1.8,4.6-3,9.4-4.2,14.1c0,0,0,0.1,0,0.2c-4.8-3.1-9.6-6.4-14.4-9.9c-0.6-0.4-1.1,0.4-0.7,0.9
			c10.9,12.8,27.8,21.1,43.7,25.7c5.3,1.6,10.7,2.7,16.1,3.5c11.5,1.6,23.3,1.3,34.9-0.8c1.9-0.4,1.3-3-0.3-3.2c-0.2,0-0.4,0-0.6,0
			c-11.2,2.1-22.6,2.3-33.8,0.9c-3.7-0.5-7.4-1.2-11-2c0-0.1,0.1-0.2,0.1-0.3c0.7-5.6,1.6-11.3,2-16.9c3.4,0.8,6.8,1.5,10.2,2.1
			c12.8,2.2,25.9,2.8,38.9,2.8h1C507,346.7,507.1,343.6,505.3,343.2z M450,358.2C450,358.3,450,358.3,450,358.2
			c-0.8-0.2-1.6-0.3-2.5-0.7c-9.6-2.8-18-7-26.1-12c0-0.1,0.1-0.2,0.1-0.2l0,0c1.1-4.9,2.4-9.9,2.8-15c0,0,0.1,0,0.1,0.1
			c7.3,3.8,14.9,6.9,22.8,9.3c2,0.6,3.9,1.1,5.9,1.6C451.8,346.9,451.1,352.7,450,358.2z"/>
		<g>
			<path class="st1" d="M427.2,225.8c8,10.7,0.6,29.9,0.6,29.9s-19.4,0.9-27.4-9.8c-8-10.7-1.7-29.1-1.7-29.1
				S419.1,215.1,427.2,225.8z"/>
		</g>
		<path class="st17" d="M429.1,153.1c-1.4-1.4-4,0.5-2.8,2.2c6.2,9.2,11.9,17.6,15.1,28.4c3,10.1,4.1,20.8,3.2,31.3
			c-1,11-4.3,21.5-9.6,31.2c-4.5,8.3-9.9,17.4-5.4,26.8c0.3,0.6,1.3,0.2,1.1-0.5c-3.8-11.9,6.9-23,11.2-33.3
			c4.1-9.5,6.2-19.8,6.5-30.2C448.7,190,442.9,166.9,429.1,153.1z"/>
		<path class="st17" d="M494.5,177.7c-5.6,19.7-12.8,37.9-24.9,54.7c-9.1,12.6-29.8,28.6-23.3,46.5c0.2,0.5,1.1,0.5,1-0.1
			c-1.2-11.2,3.7-19.9,10.9-28.2c6.1-7,12.2-13.9,17.4-21.6c10.1-15,18.5-32.7,21.8-50.5C497.7,176.6,495,175.8,494.5,177.7z"/>
		<path class="st17" d="M539.6,202.9c-0.4-2-3.3-1.1-3,0.8c4.6,25.1-24.8,35.7-42.3,44.4c-15,7.4-31.4,21-27.6,39.7
			c0.1,0.6,1,0.3,0.9-0.2c-3.7-25.4,26-35.7,43.8-44.5C526.6,235.8,543.4,221.9,539.6,202.9z"/>
		<path class="st17" d="M579.7,215c-0.8-2.3-4.4-1.3-3.7,1c7.5,23.5-4.7,49.3-28.6,56.9c-19.2,6.1-44.6,0.4-58.8,18
			c-0.2,0.2,0.1,0.6,0.3,0.3c18.6-18.5,48.1-7.2,69.6-19.6C578.1,260.2,586.8,236.2,579.7,215z"/>
		<path class="st17" d="M355.9,157.8c-0.2-2.3-3.8-2.4-3.7,0c2.8,44,59,62.5,59.5,107.1c0,0.9,1.3,0.9,1.4,0
			C414.8,220.3,360.2,200.6,355.9,157.8z"/>
		<g>
			<path class="st1" d="M572.2,295.9c-13.4-1-22.9-19.2-22.9-19.2s12-15.2,25.4-14.2s23,17.8,23,17.8S585.5,296.9,572.2,295.9z"/>
		</g>
		<g>
			<path class="st1" d="M484.3,270.2c2.3,10.4-9.3,21.9-9.3,21.9s-14.4-5.6-16.7-16.1s8.2-21.7,8.2-21.7S481.9,259.8,484.3,270.2z"
				/>
		</g>
		<g>
			<path class="st1" d="M537.6,213.2c9.1-2.9,20.2,6.5,20.2,6.5s-3.9,13.2-12.9,16.1s-19.9-5.6-19.9-5.6S528.6,216.1,537.6,213.2z"
				/>
		</g>
		<g>
			<path class="st22" d="M401.6,193.4c9.2,1.9,14.2,15.3,14.2,15.3s-9.7,9.4-18.8,7.6c-9.2-1.9-14.3-14.3-14.3-14.3
				S392.4,191.6,401.6,193.4z"/>
		</g>
		<g>
			<path class="st22" d="M437.9,167.3c7.5,5.6,6.2,19.9,6.2,19.9s-12.8,4.4-20.2-1.2s-6.8-19.1-6.8-19.1S430.4,161.7,437.9,167.3z"
				/>
		</g>
		<g>
			<path class="st1" d="M528.2,258c7.5,5.6,6.2,19.9,6.2,19.9s-12.8,4.4-20.2-1.2c-7.5-5.6-6.8-19.1-6.8-19.1S520.8,252.4,528.2,258
				z"/>
		</g>
		<g>
			<path class="st1" d="M499.6,187.8c8.9-2.8,19.8,6.5,19.8,6.5s-3.8,13-12.7,15.8c-8.9,2.8-19.5-5.5-19.5-5.5
				S490.7,190.6,499.6,187.8z"/>
		</g>
		<g>
			<path class="st1" d="M454.1,202.8c7.8-5.1,20.8,1,20.8,1s-0.3,13.5-8.1,18.6c-7.8,5.1-20.3-0.2-20.3-0.2S446.3,207.9,454.1,202.8
				z"/>
		</g>
		<g>
			
				<rect x="368.9" y="180.1" transform="matrix(5.470046e-02 -0.9985 0.9985 5.470046e-02 173.224 566.5173)" class="st9" width="33.8" height="23.3"/>
			<path class="st22" d="M409.8,226.8c0.5-9.3,13-16.2,13-16.2s10.8,8.2,10.2,17.5c-0.5,9.3-12.1,16.3-12.1,16.3
				S409.3,236.2,409.8,226.8z"/>
		</g>
		<g>
			<path class="st1" d="M589.7,219.5c8.7-3.3,20.1,5.3,20.1,5.3s-3.1,13.2-11.8,16.5s-19.8-4.4-19.8-4.4S581,222.8,589.7,219.5z"/>
		</g>
		<path class="st18" d="M554.6,185.5c0.2-2.3,3.8-2.4,3.7,0c-2.8,44-59,62.5-59.5,107.1c0,0.9-1.3,0.9-1.4,0
			C495.7,248,550.3,228.2,554.6,185.5z"/>
		<g>
			<path class="st23" d="M507.9,295.9c13.4-1,22.9-19.2,22.9-19.2s-12-15.2-25.4-14.2s-23,17.8-23,17.8S494.5,296.9,507.9,295.9z"/>
		</g>
		<g>
			<path class="st22" d="M528.4,243.3c-2.3,10.4,9.3,21.9,9.3,21.9s14.4-5.6,16.7-16.1c2.3-10.4-8.2-21.7-8.2-21.7
				S530.7,232.9,528.4,243.3z"/>
		</g>
		<g>
			<path class="st23" d="M436,189.5c-9.1-2.9-20.2,6.5-20.2,6.5s3.9,13.2,12.9,16.1s19.9-5.6,19.9-5.6S445.1,192.4,436,189.5z"/>
		</g>
		<g>
			<path class="st18" d="M595.3,225.5c-9.2,1.9-14.2,15.3-14.2,15.3s9.7,9.4,18.8,7.6c9.2-1.9,14.3-14.3,14.3-14.3
				S604.4,223.6,595.3,225.5z"/>
		</g>
		<g>
			<path class="st22" d="M445.9,159c-7.5,5.6-6.2,19.9-6.2,19.9s12.8,4.4,20.2-1.2c7.5-5.6,6.8-19.1,6.8-19.1S453.4,153.4,445.9,159
				z"/>
		</g>
		<g>
			<path class="st18" d="M519.5,237.4c-8.9-2.8-19.8,6.5-19.8,6.5s3.8,13,12.7,15.8s19.5-5.5,19.5-5.5S528.4,240.3,519.5,237.4z"/>
		</g>
		<g>
			<path class="st18" d="M600.7,253.1c-7.8-5.1-20.8,1-20.8,1s0.3,13.5,8.1,18.6s20.3-0.2,20.3-0.2S608.5,258.2,600.7,253.1z"/>
		</g>
		<g>
			<path class="st18" d="M568.1,254.7c-0.5-9.3-13-16.2-13-16.2s-10.8,8.2-10.2,17.5c0.5,9.3,12.1,16.3,12.1,16.3
				S568.6,264,568.1,254.7z"/>
		</g>
		<g>
			<path class="st23" d="M398.4,219.5c-8.7-3.3-20.1,5.3-20.1,5.3s3.1,13.2,11.8,16.5s19.8-4.4,19.8-4.4S407.2,222.8,398.4,219.5z"
				/>
		</g>
		<g>
			<path class="st23" d="M507.4,226.8c12.5,3.8,18.8,23.2,18.8,23.2s-13.8,11.9-26.3,8c-12.5-3.8-19.1-22-19.1-22
				S494.8,222.9,507.4,226.8z"/>
		</g>
		<g>
			<path class="st22" d="M423,246.3c7.9-3.8,19.9,3.9,19.9,3.9s-1.3,13-9.2,16.8s-19.4-3-19.4-3S415.1,250.1,423,246.3z"/>
		</g>
		<g>
			<path class="st1" d="M513.2,193.1c2.7-8.5,16-11.2,16-11.2s8.1,10.8,5.4,19.3c-2.7,8.5-15.1,11.5-15.1,11.5
				S510.5,201.7,513.2,193.1z"/>
		</g>
		<g>
			<polygon class="st9" points="455.2,203.7 437.2,216.2 456.6,243.9 474.6,231.5 			"/>
			<path class="st22" d="M437.4,276.2c-5.4-7.7-0.3-20.3-0.3-20.3s13,0.2,18.3,7.9s1.1,19.8,1.1,19.8S442.8,283.9,437.4,276.2z"/>
		</g>
		<g>
			<path class="st23" d="M480.1,224c-8.5,2.9-10.9,16.8-10.9,16.8s11,8.2,19.5,5.2c8.5-2.9,11.2-15.9,11.2-15.9
				S488.6,221.1,480.1,224z"/>
		</g>
		<g>
			<path class="st23" d="M455.8,188.4c-2.1,8.7,7.6,19.3,7.6,19.3s12.1-3.9,14.2-12.6s-6.7-19-6.7-19S457.9,179.6,455.8,188.4z"/>
		</g>
		<path class="st19" d="M484,294.7c-14.4-0.9-28.9-4.7-42.3-10.1c-13.7-5.5-25.4-13.8-37.9-21.5c-3.1-1.9-6.2,2.3-3.8,4.9
			c10.4,10.9,25,18.4,38.8,24c14.6,6,29.6,9.2,45.2,11C489.3,303.7,489.5,295.1,484,294.7z"/>
	</g>
</g>
<g>
	<g>
		<g>
			<g>
				<g>
					
						<rect x="335.9" y="744.3" transform="matrix(0.7323 -0.681 0.681 0.7323 -421.1035 434.1594)" class="st9" width="11.5" height="16.7"/>
					<path class="st10" d="M345.9,748.7c3.1,3.4,1.3,10.2,1.3,10.2s-6.6,1-9.7-2.4s-1.6-9.9-1.6-9.9S342.7,745.4,345.9,748.7z"/>
				</g>
				<g>
					
						<rect x="357.3" y="758.3" transform="matrix(0.8117 -0.5841 0.5841 0.8117 -379.0831 355.9859)" class="st9" width="10.5" height="15.2"/>
					<path class="st10" d="M366.8,762.9c2.5,3.4,0,9.4,0,9.4s-6.1,0.2-8.5-3.2s-0.4-9.1-0.4-9.1S364.3,759.5,366.8,762.9z"/>
				</g>
				<g>
					
						<rect x="389" y="785.2" transform="matrix(0.9059 -0.4235 0.4235 0.9059 -297.0567 241.3696)" class="st9" width="11.2" height="7.8"/>
					<path class="st10" d="M393,785.6c2.8-1.3,6.8,1.3,6.8,1.3s-0.7,4.4-3.5,5.7s-6.7-1-6.7-1S390.2,786.9,393,785.6z"/>
				</g>
			</g>
		</g>
		<g>
			<g>
				<g>
					
						<rect x="298" y="759" transform="matrix(0.6931 -0.7209 0.7209 0.6931 -457.4225 456.3196)" class="st9" width="18.4" height="12.7"/>
					<path class="st10" d="M302.3,760.9c3.5-3.7,11.1-2,11.1-2s1.5,7.2-2,10.8s-10.7,2.4-10.7,2.4S298.8,764.6,302.3,760.9z"/>
				</g>
				<g>
					
						<rect x="311.3" y="773.7" transform="matrix(0.8276 -0.5614 0.5614 0.8276 -382.5914 314.2477)" class="st9" width="17.8" height="12.3"/>
					<path class="st10" d="M316.7,774.8c4.1-2.8,11,0.3,11,0.3s0,7.1-4.1,9.9c-4.1,2.8-10.7,0.1-10.7,0.1S312.6,777.5,316.7,774.8z"
						/>
				</g>
				<g>
					
						<rect x="353.4" y="761.5" transform="matrix(0.1388 -0.9903 0.9903 0.1388 -453.16 1018.6344)" class="st9" width="11.5" height="16.7"/>
					<path class="st10" d="M359.9,764c4.6,0.6,7.4,7.1,7.4,7.1s-4.5,5-9,4.3s-7.5-6.6-7.5-6.6S355.4,763.4,359.9,764z"/>
				</g>
				<g>
					
						<rect x="368.1" y="771.4" transform="matrix(0.1571 -0.9876 0.9876 0.1571 -450.2617 1026.3344)" class="st9" width="16.1" height="11.1"/>
					<path class="st10" d="M370.6,776.1c0.7-4.4,7-7,7-7s4.7,4.4,4,8.8c-0.7,4.4-6.5,7.1-6.5,7.1S369.9,780.5,370.6,776.1z"/>
				</g>
				<g>
					
						<rect x="409.3" y="777.9" transform="matrix(0.9596 -0.2815 0.2815 0.9596 -203.9878 148.1198)" class="st9" width="8.5" height="12.3"/>
					<path class="st10" d="M417.6,782.8c1,3.3-2.5,7.1-2.5,7.1s-4.7-1.5-5.6-4.8s2.2-7,2.2-7S416.7,779.5,417.6,782.8z"/>
				</g>
			</g>
		</g>
		<g>
			<g>
				<g>
					
						<rect x="413.1" y="735.3" transform="matrix(0.3357 -0.942 0.942 0.3357 -422.7488 889.8427)" class="st9" width="12.9" height="18.7"/>
					<path class="st10" d="M421.6,738.6c4.9,1.7,6.6,9.5,6.6,9.5s-6,4.4-10.9,2.7s-6.7-9-6.7-9S416.8,736.8,421.6,738.6z"/>
				</g>
				<g>
					
						<rect x="425.9" y="727.7" transform="matrix(0.8166 -0.5772 0.5772 0.8166 -346.0374 384.5627)" class="st9" width="12.5" height="18.2"/>
					<path class="st10" d="M437.3,733.1c2.9,4.1-0.1,11.2-0.1,11.2s-7.2,0.1-10.1-3.9s-0.3-10.9-0.3-10.9S434.4,729,437.3,733.1z"/>
				</g>
				<g>
					
						<rect x="411" y="719.4" transform="matrix(0.9981 -6.199558e-02 6.199558e-02 0.9981 -44.1714 27.4219)" class="st9" width="17.6" height="12.2"/>
					<path class="st10" d="M419.4,719.4c4.9-0.3,9.2,5.8,9.2,5.8s-3.6,6.1-8.4,6.4s-9.2-5.3-9.2-5.3S414.6,719.7,419.4,719.4z"/>
				</g>
				<g>
					
						<rect x="424.5" y="720.6" transform="matrix(0.4245 -0.9054 0.9054 0.4245 -412.1188 808.477)" class="st9" width="10.9" height="15.7"/>
					<path class="st10" d="M432.3,723.5c3.9,1.8,4.7,8.5,4.7,8.5s-5.4,3.2-9.3,1.4s-4.9-8.1-4.9-8.1S428.3,721.7,432.3,723.5z"/>
				</g>
				<g>
					
						<rect x="420.1" y="739.6" transform="matrix(0.8696 -0.4938 0.4938 0.8696 -313.2417 307.2164)" class="st9" width="9.7" height="14"/>
					<path class="st10" d="M429.1,744.3c1.9,3.4-0.9,8.6-0.9,8.6s-5.6-0.4-7.5-3.8s0.6-8.4,0.6-8.4S427.2,740.9,429.1,744.3z"/>
				</g>
				<g>
					
						<rect x="418.1" y="764.5" transform="matrix(0.3859 -0.9225 0.9225 0.3859 -448.6845 863.2128)" class="st9" width="12" height="8.3"/>
					<path class="st10" d="M420.2,767c1.3-3.1,6.3-3.9,6.3-3.9s2.6,4,1.3,7.1s-6,4-6,4S418.9,770.1,420.2,767z"/>
				</g>
			</g>
		</g>
		<g>
			<path class="st11" d="M463.4,788.7l-1.2,15.4l0,0l-1.2,15.8l-0.5,6.1c-11.8,1.3-23.8,2.1-36,2.4l0,0l0,0c-1.6,0-3.2,0.1-4.8,0.1
				c-36.6,0.5-72.1-3.8-106-12.3l-2.4-7.3l-5.2-15.6c0.4,0.1,0.8,0.2,1.1,0.3l0,0c38.2,9.1,81.1,6.8,112.3,2.8l0,0
				C445.5,793.2,463.4,788.7,463.4,788.7z"/>
			<path class="st12" d="M405.4,736c-0.5-12-2.2-22.9,1.5-34.8c1.7-5.6,4.4-13.5,8.7-17.6c5.2-5.1,11.8-2.8,14.7,3.1
				c1.8,3.7,1.9,7.7,2.3,11.7c0.2,2.3,3.5,2.1,3.5-0.2c0.2-7.8-1.9-17.3-9.9-20.6c-7.2-3-12.4,1.6-16,7.6
				c-8.4,13.8-13.3,35.6-5.9,50.9c-7.7-0.1-15.8,0.1-24,0.7c-11,0.7-21.5,2-31.2,3.8c-1.3-12.2,0.1-25.1,3.9-36.7
				c2.1-6.4,5-13.6,11.1-17.3c6.9-4.2,18.7-1.2,15.8,8.8c-0.8,2.8,3.6,3.7,4.4,0.9c1.9-6.5-1.8-13.3-8.2-15.6
				c-6.3-2.3-13.3,0.4-17.9,4.9c-13.6,13.1-13.7,38.1-10.9,55.3c-37,6.8-62.9,20.1-62,33.6c1.2,17.2,45.5,28.2,99.1,24.6
				c53.6-3.6,96.1-20.5,94.9-37.7C478.3,746.8,447,736.7,405.4,736z"/>
			<path class="st13" d="M462.3,804.1l-1.1,15.8l-0.4,6.1h-0.2c-11.8,1.3-23.8,2.1-36,2.4l0,0l0,0c-1.6,0-3.2,0.1-4.8,0.1
				c-36.6,0.5-72.1-3.8-106-12.3l0,0l-2.5-7.3l0,0C337.3,815.6,385.5,820.8,462.3,804.1C462.2,804.1,462.3,804.1,462.3,804.1z"/>
			<path class="st24" d="M479.3,761.1L479.3,761.1l-1.4,6.4l0,0L467,818.2c-2,0.6-3.9,1.1-5.8,1.7c-0.1,0-0.1,0-0.2,0
				c-13,3.6-25.1,6.4-36.5,8.5l0,0l0,0c-1.6,0-3.2,0.1-4.8,0.1c-36.6,0.5-72.1-3.8-106-12.3l0,0c-4.1-1-8.2-2.1-12.3-3.3l-13.1-31.7
				l0,0l-2.9-7.1c8.5,2.7,16.8,4.9,24.9,6.8c0.6,0.1,1.2,0.3,1.8,0.4c0.4,0.1,0.7,0.2,1.1,0.2l0,0c0,0,0,0,0.1,0
				c4,0.9,7.9,1.6,11.7,2.3c0.1,0,0.2,0,0.3,0.1c23.9,4,45.7,4.6,64.8,3l0,0c0.5,0,1-0.1,1.4-0.1c2.4-0.2,4.7-0.4,7-0.7l0,0
				c0.3,0,0.6-0.1,0.9-0.1c3.4-0.4,6.7-0.8,9.9-1.4h0.1c2.8-0.5,5.6-0.9,8.3-1.5l0,0C455.9,775.8,478.3,761.8,479.3,761.1
				L479.3,761.1z"/>
		</g>
		<path class="st15" d="M471.6,764.5c-20.2,10.3-84.4,36.9-173.1,13.4c10.3-8.2,29.6-15.3,53.6-19.8c0.1,0,0.2,0.1,0.3,0.1
			c3,1.1,5.9,0.3,8-1.5c7.9-1.2,16.2-2.1,24.8-2.7c8.3-0.6,16.3-0.8,24-0.7c-0.5-1-0.9-2.1-1.3-3.1c0.8,0.5,1.6,0.9,2.4,1.3
			c0,0.6,0.1,1.3,0.1,1.9C436.5,753.9,458.6,758,471.6,764.5z"/>
		<g>
			<path class="st1" d="M314.6,726.6c14.3,9.9,13.1,36.6,13.1,36.6s-23.5,9.2-37.8-0.7s-14.1-35.1-14.1-35.1
				S300.3,716.7,314.6,726.6z"/>
		</g>
		<path class="st17" d="M286.8,636.2c-2.3-1.2-4.8,2.2-2.6,3.9c11.5,8.7,21.9,16.7,30.3,28.7c7.9,11.2,13.6,23.9,16.9,37.3
			c3.4,14,3.6,28.3,1.1,42.4c-2.1,12.1-5,25.5,4.4,35.2c0.6,0.6,1.6-0.3,1.1-1c-9.6-13-1.1-31.2,0-45.7c1-13.4-0.6-27-4.5-39.9
			C326.3,673.5,309.6,647.5,286.8,636.2z"/>
		<path class="st17" d="M377.6,639.4c1.2,26.6,0,52-8,77.6c-6,19.3-24.9,47.6-9.4,67c0.4,0.6,1.6,0.1,1.2-0.6
			c-6.2-13.3-3.7-26,1.7-39.2c4.6-11.2,9.2-22.1,12.4-33.8c6.2-22.6,9.3-47.9,6-71.2C381.1,636.7,377.4,636.8,377.6,639.4z"/>
		<path class="st17" d="M443.6,651.8c-1.3-2.2-4.6,0-3.3,2.2c16.1,29.1-15.7,54.3-33.7,72.3c-15.4,15.3-30,38.8-17.6,60.3
			c0.4,0.7,1.4,0,1-0.7c-15.1-29.8,17.2-54.8,35.6-72.9C441.3,697.7,456.2,673.6,443.6,651.8z"/>
		<path class="st17" d="M498,650c-1.9-2.5-6,0.2-4.1,2.8c19,25.9,14.7,62.7-11.7,81.9c-21.2,15.4-54.8,18.9-65,46.5
			c-0.1,0.4,0.4,0.7,0.6,0.3c15.2-30.5,56.3-28.8,77.6-53C514.7,706.4,515.5,673.3,498,650z"/>
		<path class="st17" d="M198.7,672.4c-1.2-2.7-5.7-1.4-4.5,1.5c21.7,53,98.6,52.5,117.7,107.2c0.4,1.1,2,0.5,1.7-0.6
			C297,724.9,221.7,723.2,198.7,672.4z"/>
		<g>
			<path class="st1" d="M522.2,752.8c-16.9,4.3-36.2-14.1-36.2-14.1s8.5-23.7,25.4-28s35.7,12.4,35.7,12.4S539.1,748.5,522.2,752.8z
				"/>
		</g>
		<g>
			<path class="st1" d="M393.2,717c7.2,11.9-2.4,30.8-2.4,30.8s-20.1-1-27.3-12.9s1.2-30.1,1.2-30.1S386,705.1,393.2,717z"/>
		</g>
		<g>
			<path class="st1" d="M445.4,665.2c10-7.3,27.5-0.3,27.5-0.3s0.7,17.9-9.3,25.2s-26.8,1.3-26.8,1.3S435.5,672.6,445.4,665.2z"/>
		</g>
		<g>
			<path class="st1" d="M192.2,689.5c12-1.5,23.8,13,23.8,13s-8,15.6-20,17.1s-23.6-11.7-23.6-11.7S180.1,691,192.2,689.5z"/>
		</g>
		<g>
			<path class="st1" d="M303.5,650c11.5,3.8,15.9,21.9,15.9,21.9s-13.9,10.7-25.4,6.9s-16.3-20.7-16.3-20.7S292,646.2,303.5,650z"/>
		</g>
		<g>
			<path class="st1" d="M452.4,724.3c11.5,3.8,15.9,21.9,15.9,21.9s-13.9,10.7-25.4,6.9s-16.3-20.7-16.3-20.7
				S440.9,720.5,452.4,724.3z"/>
		</g>
		<g>
			<path class="st1" d="M388.1,649.8c9.8-7.2,27.1-0.3,27.1-0.3s0.7,17.5-9.1,24.7c-9.8,7.2-26.3,1.3-26.3,1.3
				S378.3,656.9,388.1,649.8z"/>
		</g>
		<g>
			<path class="st1" d="M338.3,687.1c7.6-9.5,26-7.4,26-7.4s5.3,16.8-2.3,26.3s-25.1,8.2-25.1,8.2S330.7,696.6,338.3,687.1z"/>
		</g>
		<g>
			
				<rect x="234.4" y="679.8" transform="matrix(0.9638 -0.2667 0.2667 0.9638 -178.1313 91.9735)" class="st9" width="30.3" height="44"/>
			<path class="st1" d="M234.9,705.9c-3.2-11.7,9.3-25.4,9.3-25.4s16.6,5.6,19.9,17.3s-8.1,25.1-8.1,25.1S238.2,717.6,234.9,705.9z"
				/>
		</g>
		<g>
			<path class="st1" d="M512.2,651.4c9.4-7.7,27-1.8,27-1.8s1.7,17.5-7.7,25.2s-26.2,2.8-26.2,2.8S502.8,659.1,512.2,651.4z"/>
		</g>
		<path class="st18" d="M454.8,624.1c-0.7-2.9,3.7-4.5,4.5-1.5c14.8,55.3-46.8,101.4-29,156.5c0.4,1.1-1.3,1.6-1.7,0.6
			C408.2,725.4,467.2,678.5,454.8,624.1z"/>
		<g>
			<path class="st18" d="M245.5,694.1c16.1-6.8,20.3-33.1,20.3-33.1s-21.1-13.7-37.2-7s-21,31.5-21,31.5S229.4,700.9,245.5,694.1z"
				/>
		</g>
		<g>
			<path class="st18" d="M446.5,706.2c1.4,13.8,20.5,23.1,20.5,23.1s15.4-12.9,13.9-26.7c-1.4-13.8-19.1-23.3-19.1-23.3
				S445.1,692.4,446.5,706.2z"/>
		</g>
		<g>
			<path class="st18" d="M310.4,678.2c-12.4,0.2-22.1,16.4-22.1,16.4s10.3,14.6,22.6,14.4s22.1-15.2,22.1-15.2
				S322.8,678,310.4,678.2z"/>
		</g>
		<g>
			<path class="st18" d="M521.5,656.5c-10.5,6.1-11.1,24.7-11.1,24.7s15.8,7.6,26.3,1.5s11.7-23.6,11.7-23.6S532,650.4,521.5,656.5z
				"/>
		</g>
		<g>
			<path class="st18" d="M310,636.5c-6.9,10,0.5,27.1,0.5,27.1s17.6,0.1,24.4-9.9c6.9-10,0.5-26.4,0.5-26.4S316.9,626.5,310,636.5z"
				/>
		</g>
		<g>
			<path class="st18" d="M433.2,702.6c-12.1,0.2-21.7,16.2-21.7,16.2s10.1,14.4,22.2,14.2s21.7-14.9,21.7-14.9
				S445.3,702.4,433.2,702.6z"/>
		</g>
		<g>
			<path class="st18" d="M539.6,688.3c-11.8-3-25.2,9.9-25.2,9.9s5.9,16.5,17.7,19.5S557,709,557,709S551.4,691.3,539.6,688.3z"/>
		</g>
		<g>
			<path class="st18" d="M500.1,703.8c-4.5-11.3-22.8-14.6-22.8-14.6s-9.9,14.5-5.4,25.8s21.6,15,21.6,15S504.6,715,500.1,703.8z"/>
		</g>
		<g>
			<path class="st18" d="M276.6,730.7c-12.1-0.5-22.6,14.9-22.6,14.9s9.3,14.9,21.4,15.4s22.5-13.6,22.5-13.6
				S288.7,731.2,276.6,730.7z"/>
		</g>
		<g>
			<path class="st1" d="M413.8,694.5c17-0.5,32.8,20.8,32.8,20.8s-12,20.3-29.1,20.8S384.9,717,384.9,717S396.7,695,413.8,694.5z"/>
		</g>
		<g>
			<path class="st1" d="M298,735.1c8.2-8,26.1-3.4,26.1-3.4s3.8,16.6-4.4,24.5s-25.2,4.3-25.2,4.3S289.8,743.1,298,735.1z"/>
		</g>
		<g>
			<path class="st1" d="M407,650.7c-0.2-11.6,15.1-20.4,15.1-20.4s14.5,10,14.7,21.6S423,672.4,423,672.4S407.2,662.3,407,650.7z"/>
		</g>
		<g>
			<polygon class="st9" points="340,687.8 322.9,710.6 358.3,736.6 375.3,713.9 			"/>
			<path class="st1" d="M340.6,723.6c-9.8-7.2-8.8-24.9-8.8-24.9s16.1-5.1,25.9,2.1s9.5,24,9.5,24S350.4,730.8,340.6,723.6z"/>
		</g>
		<g>
			<path class="st18" d="M380.4,659.5c-9.2,7.1-6.4,25.2-6.4,25.2s16.9,5.5,26.1-1.6s7.2-24.2,7.2-24.2S389.6,652.4,380.4,659.5z"/>
		</g>
		<g>
			<path class="st18" d="M334.4,668.6c1.1,11.6,17.3,20.6,17.3,20.6s13.4-9.8,12.3-21.4s-16.1-20.6-16.1-20.6S333.3,657,334.4,668.6
				z"/>
		</g>
		<path class="st19" d="M413.2,787.9c-18.1,4.9-37.6,6.2-56.3,5.1c-19.2-1.1-37-6.5-55.6-10.7c-4.5-1-6.6,5.4-2.6,7.5
			c17.4,9.1,38.4,12.3,57.7,13.5c20.5,1.3,40.3-1,60.3-5.2C423.4,796.8,420,786,413.2,787.9z"/>
	</g>
</g>
</svg>
