<?xml version="1.0" encoding="utf-8"?>
<!-- Generator: Adobe Illustrator 19.2.1, SVG Export Plug-In . SVG Version: 6.00 Build 0)  -->
<!DOCTYPE svg PUBLIC "-//W3C//DTD SVG 1.1//EN" "http://www.w3.org/Graphics/SVG/1.1/DTD/svg11.dtd">
<svg version="1.1" id="Livello_1" xmlns="http://www.w3.org/2000/svg" xmlns:xlink="http://www.w3.org/1999/xlink" x="0px" y="0px"
	 viewBox="0 0 828.7 828.7" style="enable-background:new 0 0 828.7 828.7;" xml:space="preserve">
<style type="text/css">
	.st0{fill:#87C9F0;}
	.st1{fill:#FFBF9E;}
	.st2{fill:#FFED88;}
	.st3{fill:#E7E1E6;}
	.st4{fill:#CCC8CB;}
	.st5{fill:#DF9877;}
	.st6{fill:#FBD4B9;}
	.st7{fill:#E5332A;}
	.st8{fill:#77881C;}
	.st9{fill:#FFA400;}
	.st10{fill:#C4D600;}
</style>
<path class="st0" d="M827,450.5C827,450.5,827,450.5,827,450.5c-3.4,39.4-12.3,77.3-26,112.8c-16.4,42.5-39.5,81.5-68.2,116
	c-25.6,30.8-55.6,57.8-89.1,80.1c-0.1,0.1-0.2,0.1-0.2,0.2c-58.8,39.1-128.1,63.6-203,68.3c-0.1,0-0.3,0-0.4,0
	c-6.8,0.4-13.6,0.7-20.5,0.8c-68.3,0.9-133-14.8-190.2-43.4c-1-0.5-2.1-1-3.1-1.6c-38.1-19.5-72.9-44.7-103.1-74.5
	C89.6,675.9,61.6,637,40.8,593.9c-14-29-24.7-59.9-31.6-92.3c-5.7-26.5-8.8-53.9-9.2-82c-0.4-31.9,2.8-63,9.2-92.9
	C31.8,222,94.1,131.7,179.7,72.8c0.9-0.6,1.9-1.3,2.8-1.9c57.8-39.1,126.1-64,199.9-69.7c0.1,0,0.3,0,0.4,0c8.7-0.7,17.4-1,26.2-1.2
	c65.8-0.9,128.3,13.7,184,40.3c0.1,0.1,0.2,0.1,0.4,0.2c21,10.1,41,21.9,59.8,35.2c7.2,5.1,14.2,10.4,21.1,15.9c0,0,0,0,0,0
	c3.1,2.5,6.2,5.1,9.3,7.7c5.7,4.9,11.3,10,16.8,15.2c14.1,13.5,27.3,27.9,39.4,43.3c30.4,38.5,54.1,82.6,69.4,130.5
	c9.5,29.7,15.7,60.9,18.2,93.1c0.7,9.1,1.1,18.2,1.2,27.4C828.7,423,828.2,436.8,827,450.5z"/>
<g>
	<path class="st0" d="M226.3,783.6c-38.1-19.5-72.9-44.7-103.1-74.5C89.6,675.9,61.6,637,40.8,593.9c-14-29-24.7-59.9-31.6-92.3
		c-5.7-26.5-8.8-53.9-9.2-82c-0.4-31.9,2.8-63,9.2-92.9C31.8,222,94.1,131.7,179.7,72.8l2.8-1.9l2.7,42.8l2.5,40.1l2,32.7l1.2,19.9
		l4.5,73.2l1.7,28.3l0.7,11.1l6,97.9L226.3,783.6z"/>
	<path class="st1" d="M440.2,827.8l-7.1-100.8v0L419.6,534l-0.3-3.8v-0.1l-0.3-4.3l-9.7-138.6L398,224.5l0-0.1L386.5,59.6l-0.1-1.1
		l-0.7-9.9l-3.3-47.4l0.4,0c8.7-0.7,17.4-1,26.2-1.2c65.8-0.9,128.3,13.7,184,40.3l0.4,0.2L612.5,316l0.1,0.6l7.7,109.8l0.2,2.5
		l9.8,140l13.3,190.5c-58.8,39.1-128.1,63.6-203,68.3"/>
	<path class="st2" d="M827.8,381.3l-0.9-4.7l-17.8-88.2c-15.2-47.9-39-92-69.4-130.5c-12.1-15.3-25.3-29.8-39.4-43.3
		c-5.5-5.2-11-10.3-16.8-15.2c-3.1-2.6-6.2-5.2-9.3-7.7c0,0,0,0,0,0c-6.9-5.5-13.9-10.9-21.1-15.9c-18.8-13.3-38.9-25.1-59.8-35.2
		l-0.4-0.2l19.5,276.1l4.5,62.8l0.4,5.6l3,41.5l0.2,2.5l2.1,29l21.3,301.4c33.5-22.3,63.5-49.3,89.1-80.1
		c28.6-34.4,51.8-73.5,68.2-116c13.7-35.5,22.6-73.4,26-112.8c0,0,0,0,0,0L827.8,381.3z"/>
	<path class="st3" d="M163.1,632.7c-0.9,16.6-1.9,33.6-9.3,48.8c-6,12.2-17,23.2-30.6,27.6C89.6,675.9,61.6,637,40.8,593.9
		c3.3-6.7,7.9-12.7,14.4-17.1c12.9-8.8,30.8-10.1,42.6-20c4.9-4.1,8.5-9.6,14-13.2c5.5-3.5,14.3-4.2,18.1,0.9
		c3.3,4.3,1.1,10.2,1.5,15.4c1,11.9,15,18.8,22.9,28.4C164.4,600.6,164,617.3,163.1,632.7z"/>
	<g>
		<path class="st4" d="M53.6,617.3c0,0-0.2-0.2-0.4-0.8s-0.3-1.6,0.2-2.7c0.4-1.1,1.2-2.3,2.4-3.5c0.6-0.6,1.2-1.1,1.9-1.7
			c0.7-0.6,1.4-1.1,2.2-1.6c1.5-1.1,3.2-2.2,5-3.4c1.8-1.1,3.8-2.4,5.8-3.5c1-0.6,2.1-1.2,3.2-1.7s2.2-1.1,3.3-1.6
			c1.1-0.5,2.2-1.1,3.4-1.6c1.2-0.5,2.3-1,3.5-1.5c2.3-0.9,4.7-1.8,7-2.5c1.2-0.4,2.3-0.8,3.5-1.1s2.3-0.7,3.4-1s2.3-0.6,3.4-0.8
			s2.2-0.5,3.2-0.7c2.1-0.4,4.1-0.7,6-1c1.9-0.2,3.6-0.4,5.1-0.5s2.8-0.2,3.9-0.2c2.2-0.1,3.4,0,3.4,0s-1.2,0.4-3.3,1.1
			c-2.1,0.7-5,1.6-8.5,2.8c-7,2.3-16.2,5.5-25.2,9.1c-1.1,0.5-2.3,0.9-3.4,1.4s-2.2,0.9-3.3,1.4c-2.2,1-4.4,1.9-6.4,2.8
			c-2.1,0.9-4.1,1.9-6,2.7c-1.9,0.9-3.7,1.7-5.4,2.5s-3.2,1.5-4.4,2.2c-1.2,0.8-2.1,1.6-2.7,2.4c-0.6,0.8-0.8,1.6-0.8,2.1
			C53.5,617,53.6,617.4,53.6,617.3z"/>
	</g>
	<g>
		<path class="st4" d="M102.4,681.2c0,0,0.3-0.2,0.9-0.5s1.4-0.9,2.4-1.6c1-0.7,2.2-1.7,3.4-2.8c1.2-1.2,2.5-2.6,3.8-4.2
			c1.3-1.6,2.5-3.5,3.7-5.6s2.1-4.3,3-6.8c0.9-2.4,1.6-5,2.2-7.7s1.2-5.4,1.6-8.2c0.5-2.8,0.9-5.6,1.4-8.4c0.4-2.8,0.9-5.5,1.4-8.2
			c0.9-5.3,1.8-10.3,2.6-14.5c0.8-4.3,1.6-7.8,2.2-10.3c0.6-2.5,0.9-3.9,0.9-3.9s0.1,1.5,0.2,4c0.1,2.5,0.1,6.2-0.1,10.5
			c-0.1,4.3-0.4,9.4-1,14.8c-0.3,2.7-0.5,5.5-0.9,8.3c-0.3,2.8-0.7,5.7-1.2,8.6c-0.5,2.9-1.1,5.8-1.9,8.6s-1.7,5.6-2.9,8.2
			c-1.1,2.5-2.5,5-4,7.1s-3.2,4-4.8,5.5c-3.3,3.1-6.7,4.9-9.1,5.9c-1.2,0.5-2.2,0.8-2.8,1C102.8,681.1,102.4,681.2,102.4,681.2z"/>
	</g>
	<g>
		<path class="st4" d="M90.6,636.6c0,0,0.4-0.7,1.2-1.8c0.4-0.5,0.9-1.2,1.4-2c0.5-0.7,1.1-1.6,1.8-2.5c0.7-0.9,1.3-1.9,2-2.9
			s1.4-2.1,2.2-3.2c0.7-1.2,1.5-2.3,2.3-3.5s1.5-2.4,2.3-3.6c0.7-1.2,1.5-2.5,2.2-3.7c0.3-0.6,0.7-1.2,1-1.8s0.6-1.2,1-1.8
			c0.6-1.2,1.3-2.4,1.8-3.5c0.6-1.1,1.1-2.2,1.6-3.2s1-1.9,1.3-2.7c0.4-0.8,0.8-1.5,1.1-2.1c0.6-1.2,1-1.9,1-1.9s0.1,0.8,0.1,2.1
			c0,0.7,0,1.5-0.1,2.4c0,0.5-0.1,1-0.1,1.5c-0.1,0.5-0.1,1.1-0.2,1.6c-0.2,1.2-0.4,2.4-0.7,3.7c-0.3,1.3-0.7,2.6-1.2,4
			s-1.1,2.8-1.7,4.1c-0.6,1.4-1.4,2.7-2.2,4.1c-0.8,1.3-1.7,2.6-2.6,3.8c-0.4,0.6-0.9,1.2-1.4,1.8s-0.9,1.1-1.4,1.7
			c-1,1.1-2,2.1-3,3c-0.5,0.4-1,0.9-1.4,1.3c-0.5,0.4-1,0.8-1.4,1.1c-0.9,0.7-1.8,1.3-2.6,1.8c-0.8,0.5-1.5,0.9-2.1,1.2
			C91.3,636.3,90.6,636.6,90.6,636.6z"/>
	</g>
	<path class="st3" d="M54.9,504.1c-9.2,3.2-19.4,5.1-28.9,2.7l1.7-0.2c-6.4-0.1-12.8-2-18.5-5c-5.7-26.5-8.8-53.9-9.2-82
		c-0.4-31.9,2.8-63,9.2-92.9c12.9-2.7,25.8-5.4,38.7-8c0.8-0.2,1.6-0.3,2.4,0c1,0.4,1.4,1.6,1.5,2.6c1,6.5-0.3,13.8,3.7,19.3
		c3.2,4.4,8.9,6.4,13.9,8.9c18.5,9.4,28.9,28,36.2,46.1c4.5,10.8,8.1,21.9,8.5,33.3C115.6,461.8,88.8,492.5,54.9,504.1z"/>
	<g>
		<path class="st4" d="M58.3,493.2c0,0,0.3-0.4,0.7-1.3s0.8-2.2,1-3.9c0.2-1.7,0.2-3.9,0.2-6.4s0.1-5.3,0.1-8.3
			c0-6.1,0-13.2-0.3-20.7c-0.2-3.8-0.4-7.7-0.8-11.6c-0.4-3.9-0.8-7.9-1.5-11.9l-0.2-1.5c-0.1-0.4-0.2-1-0.2-1.5c-0.2-1-0.3-2-0.5-3
			s-0.4-1.9-0.6-2.9c-0.2-1-0.4-1.9-0.6-2.9c-0.9-3.8-1.9-7.5-3.1-11.1c-1.1-3.6-2.4-7-3.7-10.1c-0.7-1.6-1.3-3.1-2-4.6
			c-0.6-1.5-1.4-2.9-2-4.2c-0.7-1.4-1.4-2.6-2-3.8c-0.7-1.2-1.3-2.3-1.9-3.4c-0.6-1-1.2-2-1.8-2.9s-1.1-1.7-1.6-2.5
			s-0.9-1.4-1.4-1.7c-0.5-0.3-1-0.4-1.3,0c-0.3,0.3-0.4,0.7-0.2,0.9c0.1,0.2,0.3,0.2,0.3,0.2s-0.1,0-0.3-0.2s-0.2-0.7,0.1-1.1
			c0.1-0.2,0.4-0.5,0.8-0.5c0.4-0.1,0.7,0,1.1,0.2c0.8,0.3,1.3,1,1.9,1.6c0.6,0.7,1.3,1.4,2,2.2c0.7,0.8,1.5,1.7,2.3,2.7
			s1.6,2.1,2.5,3.2c0.8,1.2,1.7,2.4,2.5,3.7c1.7,2.6,3.4,5.5,5.1,8.7c1.6,3.2,3.2,6.6,4.5,10.3c1.4,3.6,2.6,7.5,3.6,11.4
			c0.2,1,0.5,2,0.7,3s0.4,2,0.7,3.1c0.2,1,0.4,2,0.6,3c0.1,0.5,0.2,1,0.3,1.5l0.2,1.5c0.6,4.1,1.1,8.2,1.3,12.3
			c0.3,4.1,0.3,8.1,0.3,11.9c0,3.9-0.2,7.6-0.5,11.1c-0.2,3.5-0.6,6.8-1,9.9c-0.4,3-0.8,5.8-1.2,8.3c-0.4,2.4-0.7,4.6-1.3,6.4
			c-0.5,1.8-1.2,3.1-1.8,3.8c-0.3,0.4-0.5,0.7-0.7,0.9C58.4,493.1,58.3,493.2,58.3,493.2z"/>
	</g>
	<g>
		<path class="st4" d="M86.6,479.4c0,0,0.3-2.1,0.9-5.7c0.1-0.9,0.3-1.9,0.5-3c0.1-1.1,0.2-2.3,0.4-3.5c0.1-1.2,0.3-2.6,0.4-4
			s0.2-2.9,0.3-4.4c0.1-1.5,0.3-3.1,0.3-4.8c0-1.7,0-3.4,0.1-5.1c0-0.9,0.1-1.8,0-2.7c0-0.9-0.1-1.8-0.1-2.7
			c-0.1-1.8-0.1-3.7-0.2-5.6c-0.2-1.9-0.3-3.9-0.5-5.8l-0.1-1.5l-0.2-1.5c-0.1-1-0.3-2-0.4-3s-0.3-2-0.4-3s-0.4-2-0.5-3
			c-0.4-2-0.7-4-1.2-6s-1-4-1.4-5.9l-0.4-1.5l-0.4-1.5c-0.3-1-0.6-1.9-0.9-2.9c-1-3.9-2.5-7.6-3.7-11.2c-0.7-1.8-1.4-3.5-2.1-5.2
			c-0.3-0.9-0.7-1.7-1-2.5c-0.4-0.8-0.8-1.6-1.1-2.4c-0.7-1.6-1.5-3.2-2.1-4.7c-0.7-1.5-1.5-2.9-2.2-4.3s-1.4-2.7-2.1-3.9
			c-0.7-1.2-1.4-2.4-2-3.5s-1.2-2.1-1.8-3.1c-0.6-0.9-1.1-1.8-1.6-2.5c-2-3.1-3-4.9-3-4.9s1.5,1.5,3.9,4.2c0.6,0.7,1.3,1.4,2,2.3
			s1.4,1.8,2.2,2.8c0.8,1,1.6,2.1,2.5,3.2s1.7,2.4,2.6,3.7c0.9,1.3,1.8,2.7,2.7,4.1c0.8,1.5,1.7,3,2.6,4.6c0.4,0.8,0.9,1.6,1.4,2.4
			c0.4,0.8,0.8,1.7,1.2,2.5c0.8,1.7,1.7,3.5,2.5,5.3c0.7,1.8,1.5,3.7,2.2,5.6c0.4,1,0.8,1.9,1.1,2.9c0.3,1,0.6,2,1,3
			c0.3,1,0.6,2,1,3l0.5,1.5l0.4,1.5c0.5,2.1,1,4.1,1.5,6.2c0.4,2.1,0.8,4.2,1.2,6.3c0.2,1,0.4,2.1,0.5,3.1s0.2,2.1,0.4,3.1
			c0.6,4.1,0.7,8.3,0.8,12.2c0.1,2-0.1,3.9-0.1,5.8c-0.1,1.9-0.1,3.8-0.3,5.6c-0.2,1.8-0.4,3.6-0.5,5.3c-0.2,1.7-0.5,3.3-0.8,4.9
			s-0.5,3.1-0.8,4.5c-0.4,1.4-0.7,2.7-1,4c-0.3,1.2-0.6,2.4-0.9,3.5s-0.7,2-0.9,2.9C87.3,477.5,86.6,479.4,86.6,479.4z"/>
	</g>
	<path class="st3" d="M191.4,321.6c-14.1,3.8-29.9,0.9-42.4-6.1s-22.2-17.7-29.4-29.5c-5-8.2-9-17-9.9-26.3
		c-0.9-9.3,1.4-19.1,7.9-26.4c1.1-1.2,2.3-2.4,2.5-3.9c0.3-1.6-0.6-3.2-1.5-4.7c-3-5-6.1-10.1-9.1-15.1c4.7-1.9,9.1-4.6,12.8-7.9
		c2.8,3,5.7,6.1,8.5,9.1c6.6-8.2,13.9-16.1,23.4-21.5c9.5-5.3,21.5-7.7,32-4.2c11.3,3.8,18.8,13.7,23.9,23.6
		c14.2,27.2,16.7,59.2,7.1,87.9c-2.1,6.1-4.8,12.3-9.8,16.7c-5.7,5-13.6,7.3-21.2,9.4L191.4,321.6z"/>
	<g>
		<path class="st4" d="M141.7,228.8c0,0,0.3,1.2,0.6,3.2s0.7,5,1.2,8.4c0.2,1.7,0.5,3.5,0.8,5.4s0.7,3.8,1.2,5.8s1.1,3.9,1.8,5.8
			c0.7,1.9,1.5,3.8,2.6,5.5l0.1,0.3l0.2,0.4c0.1,0.2,0.3,0.5,0.4,0.7c0.2,0.4,0.5,0.8,0.8,1.2c0.6,0.8,1.2,1.7,1.8,2.5
			c1.3,1.6,2.6,3.3,4,4.8s2.8,3,4.1,4.4s2.6,2.7,3.8,3.9c2.4,2.4,4.6,4.2,6.2,5.4c0.8,0.6,1.5,1.1,1.9,1.4c0.5,0.3,0.7,0.5,0.7,0.5
			s-0.3,0-0.9,0c-0.6,0-1.4-0.1-2.5-0.3c-1-0.2-2.3-0.5-3.7-1s-3-1.2-4.6-2s-3.3-1.9-5-3c-1.7-1.2-3.5-2.4-5.2-3.9
			c-0.9-0.7-1.7-1.5-2.6-2.3c-0.9-0.8-1.7-1.7-2.5-2.6s-1.6-1.9-2.4-3c-0.4-0.5-0.7-1.1-1.1-1.6c-0.2-0.3-0.3-0.5-0.5-0.8l-0.2-0.4
			l-0.2-0.3l-0.1-0.2c-1.3-2.3-2.2-4.7-3-7.1c-0.2-0.6-0.3-1.2-0.5-1.8c-0.2-0.6-0.2-1.2-0.4-1.8c-0.3-1.2-0.4-2.4-0.5-3.5
			c-0.2-2.3-0.3-4.6-0.1-6.6c0.1-2.1,0.3-4,0.6-5.8c0.6-3.5,1.3-6.4,1.9-8.4c0.3-1,0.6-1.8,0.8-2.3
			C141.6,229.1,141.7,228.8,141.7,228.8z"/>
	</g>
	<g>
		<path class="st4" d="M157.4,206.1c0,0,0.2-0.1,0.6-0.1c0.3-0.1,0.9-0.2,1.6-0.2c0.7,0,1.6,0.1,2.5,0.3c1,0.2,2,0.5,3.1,0.9
			c2.2,0.8,4.6,2,7,3.5c0.6,0.4,1.2,0.8,1.8,1.2s1.2,0.8,1.8,1.3c1.2,0.9,2.3,1.9,3.4,2.9c1.1,1,2.1,2.1,3.1,3.1
			c0.5,0.5,1,1.1,1.4,1.6c0.5,0.5,0.9,1.1,1.3,1.7c1.7,2.2,3.1,4.4,4.1,6.5c1,2,1.7,3.9,2,5.2s0.4,2.1,0.4,2.1s-0.2-0.1-0.5-0.3
			s-0.7-0.5-1.3-0.9c-1.1-0.7-2.6-1.8-4.3-3c-0.9-0.6-1.8-1.3-2.8-2.1s-2-1.5-3-2.4c-1-0.8-2.1-1.7-3.1-2.6c-1-0.9-2.1-1.9-3.1-2.8
			c-1-1-2-1.9-3-2.9s-1.9-1.9-2.8-2.8c-0.9-0.9-1.8-1.8-2.6-2.7s-1.6-1.7-2.3-2.4c-0.7-0.8-1.4-1.4-2-2.1c-0.6-0.6-1.2-1.1-1.6-1.5
			c-0.5-0.4-0.8-0.8-1.2-0.9C157.5,206.3,157.4,206.1,157.4,206.1z"/>
	</g>
	<path class="st5" d="M440.2,827.8c-6.8,0.4-13.6,0.7-20.5,0.8c-68.3,0.9-133-14.8-190.2-43.4l-1.1-15.9l0-0.1l-5.7-81.6v0l0-0.1
		l-18.9-270.5l-6.8-97.5l-2.8-40v-0.1l-3-43.4l-0.2-2.7v0l-3.3-47.6l-4.8-69.5l0-0.2l-3-43.1l2.8-1.9c57.8-39.1,126.1-64,199.9-69.7
		l0.4,0l3.3,47.4l12.3,175.9l11.4,163.1l9.6,138l0.6,8.3l13.5,193.2l7,100.7L440.2,827.8z"/>
	<path class="st6" d="M335.1,693c-2.9,9.7-8.5,18.7-15.1,26.8c-19.2,23.6-47.7,41-79.1,48.1c-4.1,1-8.4,1.7-12.6,1.3l-5.7-81.7
		c2.4-7-2-9.1,0.3-16.1l0,0c4.6-19.6,9.3-39.5,19.5-57.4c10.2-17.8,26.8-33.6,48-39.1c11.3-3,24.9-2.4,33.2,5.2
		c7.5,6.9,8.7,17.4,9.5,27c1.2,15.3,2.5,30.5,3.7,45.8C337.9,666.2,339,680,335.1,693z"/>
	<path class="st6" d="M397.4,533.8C399.1,533.2,395.7,534.4,397.4,533.8C399.5,534.2,395.3,533.3,397.4,533.8L397.4,533.8z"/>
	<path class="st6" d="M411.1,528.8c-4.6,1.7-9.1,3.3-13.7,5c-31.5-5.4-66.4,2.7-94.2-11.7c-10.7-5.5-19.4-14.1-24.5-24.2
		c-6.2-12.2-7.2-26-9.9-39.3c-3.1-15.6-8.7-30.7-11.3-46.4c-2.6-15.7-1.8-32.5,6.9-46.2c8.7-13.7,27-23.2,43.8-19.1
		c20,4.9,32.1,26.4,52.7,28.8c7.5,0.8,15-1,22.5-0.6c10.5,0.6,19.3,5.5,26.4,12.5l9.6,138C416.7,526.7,413.8,527.8,411.1,528.8z"/>
	<path class="st6" d="M297.6,172.5c-2.5,4.9-6.9,8.7-9.9,13.4c-6.8,11-4.4,24.7-7.9,36.9c-4.4,15-17.3,26.4-30,36.8
		c-15,12.2-33.9,24.9-53.4,20.3c-0.8-0.2-1.6-0.4-2.4-0.7L182.6,116c7-6.1,13-13.4,18.9-20.3c11.5-13.5,25.9-27.6,44.7-28.5
		c14.3-0.7,28.7,7.4,34.3,19.4c5.4,11.5,2.9,24.8,6,37C290.8,140.2,305.4,157,297.6,172.5z"/>
	<path class="st7" d="M386.4,58.5l-0.7-9.9c5.4-0.8,11-0.4,16.4,1.6l-3.4,2.1c16.4-6.8,35.2-8.7,52.8-5
		c25.9,5.5,48.2,23.2,57.7,45.8c9.1,21.6,6.2,46.3-5,67.3c-2.2,4.2-4.8,8.2-7.7,12c-0.2,0.2-0.4,0.5-0.6,0.7
		c-17.3,22.6-44.1,38.2-72.8,46.9c-8.1,2.5-16.6,4.4-25.1,4.5L386.5,59.6L386.4,58.5z"/>
	<path class="st8" d="M498.3,137.2c3.1,27.6,19.4,53.9,43.8,70.6c-13.4-5.5-25.7-13.4-35.9-23c-9.3-8.8-17.2-19.5-18.7-31.6
		c-0.5-3.5-0.3-7.2,1.4-10.3s5.3-5.6,9.2-5.4L498.3,137.2z"/>
	<path class="st8" d="M560.9,92.6c-30.2,23.6-46.2,61.4-41.3,97.4c17.2-8.5,29-24.3,35.5-41s8.5-34.7,10.4-52.4L560.9,92.6z"/>
	<path class="st7" d="M630.2,568.9c-5.6,1.6-11.5,2.1-17.4,2.2c-31,0.8-62.2-9.3-85.7-27.8c-23.4-18.4-39-45-42.6-73
		c-3.4-26.4,4.7-55.2,25.7-73.5c0.8-0.7,1.6-1.4,2.4-2c0.7-0.6,1.5-1.1,2.2-1.7c-12.5-21.7,1.5-49.9,24.2-63.1
		c21.4-12.4,48-14.4,73.5-13.5L630.2,568.9z"/>
	<path class="st8" d="M519.9,397.9c-56.1,0.5-97.1-114.3-87.9-150.8c-7.2,28.5,57.1,132,85,151.1L519.9,397.9z"/>
	<path class="st8" d="M473.7,338.2c23.3-14.4,38.5-39,40-64.6c-14.7,0.7-27.1,11.2-33.1,23.4c-6.1,12.2-6.9,25.9-7.5,39.3
		L473.7,338.2z"/>
	<path class="st7" d="M516.2,671.4c-5.3,16.1-13.3,31.9-26.7,43.4c-13.4,11.5-32.9,18.2-50.8,13.9c-1.9-0.5-3.8-1.1-5.7-1.8
		L419.6,534c32.4-6.1,68.5,10.2,86.6,36.2C526.8,599.7,527.2,637.9,516.2,671.4z"/>
	<path class="st8" d="M533,663.6c5.5,13.3,19.4,22.6,34.1,27.2c14.8,4.6,30.7,5.2,46.3,5.7c-2.8-17.9-16.8-34.1-35.4-40.6
		c-6.9-2.4-14.5-3.6-21.8-2.3s-19.9,5.4-23.1,11.5L533,663.6z"/>
	<path class="st9" d="M809.1,288.4c-39.3-11.4-74.9-33.3-100.8-62.4c-14.6-16.4-26.6-36.9-22.8-57.7c0.6-3.5,1.8-7.1,4.6-9.5
		c2.3-2,5.4-2.9,8.5-3.5c13.5-3,27.8-1.5,41.1,2.6C770.1,196.4,793.8,240.5,809.1,288.4z"/>
	<path class="st10" d="M700.3,114.6c-2.7,19.2-10.7,38.3-21.8,54.8l-0.6,3.5c-28.8-7.5-52.6-29.3-60.7-55.5
		c12.2-1.6,24.6,3.9,33.3,11.8c8.7,7.9,14.5,18.1,20.2,28.1c-11.6-25.8-17.5-53.7-17.6-81.6c7.2,5.1,14.2,10.4,21.1,15.9
		c0,0,0,0,0,0c3.6,13.9,6,28,6.9,42.2c-0.2-11.5,0.6-23.1,2.4-34.5C689.3,104.3,694.9,109.4,700.3,114.6z"/>
	<path class="st9" d="M801,563.2c-16.4,42.5-39.5,81.5-68.2,116c-1.9-19-2.8-38.1-3.1-57c-0.3-17.4,0-35.8,9.4-51
		c9.4-15.2,31.1-25.7,48.4-18.2C792.9,555.3,797.2,559,801,563.2z"/>
	<path class="st10" d="M827.8,381.3c-0.2,0.1-0.4,0.2-0.5,0.3c-10.3,5.8-16.5,17.2-20.8,27.9c-15.4,38.8-19.3,80.5-22.9,121.6
		c-0.1-54.7-0.2-109.3-0.3-164c0-6.5-1.9-15.1-9-15.8c-5.6-0.6-9.8,4.4-12.4,8.9c-17.9,31.4-17.4,68.4-16.1,103.7
		c0.6,16.3,1.3,33,7.9,48.3c6.6,15.2,20.3,28.9,38,31.8l-5.6-5.4c16.8-27.8,32.2-57.5,40.9-88c0,0,0,0,0,0L827.8,381.3z"/>
	<path class="st9" d="M678.4,442.3c-3.4,4.8-8.6,8.3-14.1,11c-12.5,6-27.5,7.7-41.2,4.7l-5.5-78.7c7-5.2,14.6-9.8,22.7-13.5
		c5.3-2.5,11.2-4.6,17.1-3.8c0.9,0.1,1.8,0.3,2.7,0.6c8,2.2,13.5,9.6,16.6,16.9c0.1,0.3,0.3,0.6,0.4,1c3.2,7.9,4.6,16.3,5.5,24.7
		c0.3,2.3,0.5,4.6,0.7,6.8C684.1,422.3,684.6,433.5,678.4,442.3z"/>
	<path class="st10" d="M660.8,377.8c-2.5-26.5,0.5-53.4,8.9-78.9c6,11.1,11,22.8,14.7,34.7c3.7,12,5.6,26.5-3.9,35.5
		c7.1-7.7,18.2-12.3,29.2-12c6.1,5.2-0.3,14.9-8.2,17.5s-16.9,1.9-24.2,5.6c21.9,4.7,41.4,18.2,52.2,36.2
		c-29.9,3.5-61.1-13.9-71.3-39.7L660.8,377.8z"/>
</g>
</svg>
