<?xml version="1.0" encoding="utf-8"?>
<!-- Generator: Adobe Illustrator 19.2.1, SVG Export Plug-In . SVG Version: 6.00 Build 0)  -->
<!DOCTYPE svg PUBLIC "-//W3C//DTD SVG 1.1//EN" "http://www.w3.org/Graphics/SVG/1.1/DTD/svg11.dtd">
<svg version="1.1" id="Livello_1" xmlns="http://www.w3.org/2000/svg" xmlns:xlink="http://www.w3.org/1999/xlink" x="0px" y="0px"
	 viewBox="0 0 828.7 828.7" style="enable-background:new 0 0 828.7 828.7;" xml:space="preserve">
<style type="text/css">
	.st0{fill:#87C9F0;}
	.st1{fill:#BCB21F;}
	.st2{fill:#F9E0A4;}
	.st3{fill:#DBC79D;}
	.st4{fill:#7D4E24;}
	.st5{fill:#926037;}
	.st6{fill:#B07F4A;}
	.st7{fill:#77881C;}
	.st8{fill:#CFDE00;}
	.st9{fill:#AF8400;}
</style>
<g id="Vegetable_little_Garden">
	<path class="st0" d="M828.7,414.3c0,36.8-4.8,72.6-13.8,106.6c-36.5,137.7-142.2,247.2-277.5,289.2c-38.9,12.1-80.2,18.6-123,18.6
		c-15,0-29.8-0.8-44.4-2.4C171,805.1,14.1,643.1,0.9,441.9C0.3,432.8,0,423.6,0,414.3C0,185.5,185.5,0,414.3,0
		S828.7,185.5,828.7,414.3z"/>
	<path class="st1" d="M814.8,520.9c-36.5,137.7-142.2,247.2-277.5,289.2C485.4,820.3,429,826,370,826.3
		C171,805.1,14.1,643.1,0.9,441.9c86.6-52,217.4-85.1,363.7-85.1C575.8,356.8,754.5,425.8,814.8,520.9z"/>
	<g>
		<polygon class="st2" points="84.7,342.8 298,691.5 767.8,541.8 758.2,618.3 288.5,764.8 68.7,411.3 		"/>
		<polygon class="st3" points="84.7,342.8 103.8,333.2 309.2,669.2 767.8,529.1 767.8,541.8 298,691.5 		"/>
		<polygon class="st4" points="102.2,342.8 552.8,231.3 767.8,529.1 299.6,675.6 		"/>
		<polygon class="st5" points="251.6,234.9 436.5,204.6 592.6,308.6 659.5,398.5 418.3,438.3 		"/>
		<path class="st2" d="M248.7,231.3v82.8c0,0,138.5,149.7,152.9,191.1l258-43v-63.7l-241.2,39.8L248.7,231.3z"/>
		<polygon class="st2" points="418.3,170.8 402.1,268.6 478,358.7 614.9,358.7 622.9,264.8 497.1,264.8 		"/>
		<path class="st1" d="M167.5,366.5c-8.8-3.1-17.3-7.1-25.2-12c-8-5-16.4-13.9-12.7-22.5c5.9-1.1,12.2-0.2,17.6,2.4
			c-2.3-5.4-5.1-10.7-6.1-16.5s0.1-12.4,4.6-16.2s12.7-2.8,14.8,2.7c0.5-5.8,1.1-12,4.6-16.7c3.5-4.7,11-6.8,15.3-2.8
			c1.5,1.5,2.4,3.5,3.1,5.5c3.4,9.4,4.1,19.8,2.2,29.6c4.1-5.3,13.6-4.1,17.2,1.6c3.6,5.7,1.7,13.8-3.2,18.3
			c5.5,4.1,6,12.7,2.3,18.4c-3.8,5.7-10.7,8.6-17.6,9.2s-13.6-1-20.3-2.6"/>
		<polygon class="st6" points="429.4,170.8 551.2,160.3 622.9,264.8 488.2,262.2 		"/>
		<path class="st1" d="M230.9,459.4c-6.2,1.1-12.9-1.3-16.9-6.2s-5.2-11.9-2.9-17.7c1.9,0.2,3.8-0.9,4.6-2.6
			c-3.9-4.9-7.9-10-9.5-16.1s-0.1-13.4,5.2-16.8s14-0.2,14.4,6.1c1.5-7,3.8-15.1,10.5-17.8c6.6-2.7,14.4,1.8,17.9,8.1
			c3.4,6.3,3.7,13.8,3.8,20.9c7-5,18.4-2.6,22.3,5.1c3.9,7.7-1.4,18.7-10,19.9c7.7,3.4,8.1,15.3,2.2,21.2s-15.3,6.8-23.5,5.3
			c-8.6-1.6-17.3-6-21.3-13.8c0.1,1.4,0.3,2.7,0.4,4.1"/>
		<path class="st1" d="M327.3,578.2c-6.6,5.4-15.9,7.4-24.2,5.2c-8.3-2.2-15.3-8.6-18.3-16.7c-1.5-4.2-2-9,0.2-12.9
			s7.5-6.1,11.3-3.9c-3.9-5.5-8-12.2-5.5-18.5c0.9-2.2,2.5-4,4.3-5.4c9.9-7.7,26.7-2.8,30.9,9c1.2-8.9,13.7-13.2,21-7.9
			s7.8,17.1,2,24c5.9-0.6,10.6,5,12.3,10.6c4.2,14.3-6.6,31.1-21.3,33.2c-7.8,1.1-17.7-3.9-16.5-11.7"/>
		<path class="st1" d="M496.7,579.6c-10.8,4.1-21.7,7.7-32.8,10.8c-4.6,1.3-10.1,2.2-13.5-1.1c-2.2-2.2-2.6-5.6-2.9-8.7
			c-0.7-6.9,0-15.9,6.6-17.9c-6.7-4.6-12-11.7-13.4-19.7c-1.4-8,1.7-17,8.4-21.6s17-3.8,22.2,2.5c4.8-5.7,11.8-9.4,19.2-10.2
			c6.2-0.7,13,0.9,17,5.7s4,12.9-1,16.6c7.3-0.3,13.9,5.6,15.9,12.5c2.1,7,0.3,14.6-3.4,20.9c-2.7,4.7-6.5,8.8-11.5,10.9
			s-11.1,1.8-15.2-1.7"/>
		<polygon class="st2" points="490.7,121.4 490.7,186.7 532.1,231.3 605.4,231.3 611.7,167.6 541.7,170.8 		"/>
		<path class="st1" d="M616.6,538.7c-9.2,4.1-21.6,1.9-26.8-6.7s0.8-22.4,10.8-22.3c-1.6-7.4,2.9-15.6,10-18.2s15.9,0.9,19.3,7.6
			c7.1-6.4,19.7-5,25.3,2.8s2.7,20.2-5.7,24.8c3.2,1.8,5.8,4.8,6.6,8.4c2.1,8.6-6.6,17.1-15.5,17.4c-8.9,0.3-17-5.2-23.1-11.7"/>
		<path class="st1" d="M718.7,520.8c-2.3-1.5-4.9,1.3-7.1,3.1c-6.7,5.5-17.4-0.4-20.7-8.5c-1.5-3.6-2-8,0.2-11.1
			c2.2-3.2,7.8-3.8,9.7-0.4c-1.2-4.8,4.5-9.4,9.4-8.3s8.1,6,8.8,10.9s-0.6,9.9-1.9,14.7"/>
		<path class="st7" d="M339.5,272.4c-18.9-3.3-32.4-19.7-43-35.6c-2.2-3.3-4.4-6.8-5.1-10.8s0.7-8.5,4.1-10.5
			c6.1-3.6,13.2,2.5,17.4,8.2c8.1,10.9,15.3,22.7,19.1,35.8c-3.1-18.1-1-37,6-54c1.9-4.7,6.8-10,11-7.1c3.6,19.3,1.9,39.6-4.7,58.1
			c3.2-14.2,10.8-27.3,21.5-37.2c3.5-3.2,9.4-6,12.5-2.3c1.3,1.5,1.5,3.7,1.5,5.7c0.1,22.8-18.1,44.4-40.6,48"/>
		<path class="st7" d="M399,358.3c-14.3-10.3-25.8-24.6-32.7-40.8c-2.2-5.2-2.9-13.2,2.6-14.8c4-1.2,7.7,2.4,10,5.8
			c7.6,10.9,12.2,23.8,13.4,37c-1.8-13.4,0.9-27.4,7.8-39c1.1-1.8,2.6-3.8,4.7-4c3.1-0.2,4.9,3.4,5.6,6.5c3,13.1,0.9,27.2-5.6,39
			c2.3-6.7,4.7-13.6,9.2-19.2s11.5-9.5,18.6-8.4s12.9,8.8,10.6,15.5c-1.7,4.9-6.7,7.7-11.4,10c-10.1,5.1-20.3,10.3-30.4,15.4"/>
		<path class="st7" d="M484.6,414.8c-5.9-3.4-11.7-6.8-17.6-10.2c-8.7-5.1-17.7-10.3-24.2-18s-10.3-18.5-7.2-28.1
			c9.7-0.1,18.6,6,24.4,13.9s8.9,17.2,11.9,26.4c1.2-11.1,8.1-21.5,17.9-27c3.6-2,8.7-3.1,11.1,0.2c1,1.3,1.2,3,1.3,4.7
			c0.6,12.8-5.7,25.7-16.2,33.1"/>
		<path class="st7" d="M574.5,398.4c-6.9-7.6-12.3-16.5-15.8-26.2c-0.7-1.8-1.2-4-0.2-5.7c0.9-1.4,2.7-2,4.4-2.1
			c4.1-0.2,8.2,1.8,11.2,4.6s5.3,6.4,7.5,9.9c0.2-6.5,2.7-13.6,8.6-16.3c1.9-0.9,4.3-1.1,5.8,0.3c0.7,0.7,1.1,1.6,1.3,2.6
			c0.9,3.8,0,7.8-1.8,11.3s-4.3,6.4-6.9,9.4c-3.8,4.4-7.8,9-13.1,11.6"/>
		<path class="st8" d="M452.3,165.6c-4.4-16.6-13.1-32.1-24.9-44.4c-1.7-1.8-4-3.7-6.4-3.2c-2.1,0.4-3.5,2.5-3.8,4.6
			c-0.3,2.1,0.3,4.2,1,6.2c4.1,12.1,11,23.2,20,32.3c-8-9.8-21.3-15-33.8-13c-4.7,0.7-10.1,3.4-10.6,8.1c-0.3,3,1.5,5.9,4,7.6
			c2.5,1.7,5.5,2.5,8.4,3c10.3,2.1,20.9,2.6,31.4,1.6c-11.3,0.5-22.4,4.9-31,12.3c-5,4.2-9.3,9.9-9.8,16.4c-0.1,1.5,0,3.2,1.1,4.2
			c1,1,2.4,1.2,3.8,1.3c8.3,0.5,16.7-2.3,23.6-7c6.9-4.7,12.6-11,17.4-17.9c2.7-3.8,5.4-8,9.4-10.4"/>
		<path class="st1" d="M483.5,207.4c2.9-5.4,3.6-11.9,1.9-17.8c-1.3-4.6-4.7-9.3-9.5-9.8c-2.1-0.2-4.1,0.3-6,1.2
			c-5.4,2.5-9.7,8.1-9,14c-1.8-4.5-8.2-4.9-12.8-3.4c-5.9,1.9-11.9,6.7-11.7,13c0.2,4.7,3.9,8.6,8.2,10.5c4.3,1.9,9.1,2.1,13.8,2.3
			c-4.1,0.6-7.1,4.4-8.2,8.4c-1.8,7.1,1.8,15.3,8.3,18.7c6.5,3.4,15.3,1.8,20.1-3.7c-4.6,2.5-5.8,10.1-1.5,13.1
			c3.6,2.5,8.5,1.2,12.4-0.8c6.7-3.3,12.9-8.5,15.1-15.6c2.1-6.8,0.2-14.3-3.6-20.4c-2.3-3.6-5.6-7-9.9-7.4
			c-2.7-0.2-5.9,0.7-7.6-1.4"/>
		<path class="st1" d="M504.8,253.8c-3.1-2.1-7.4-1-10.8,0.9c-2.9,1.6-5.7,4.2-5.9,7.5c-0.1,2.6,1.6,5,3.8,6.4s4.8,2,7.4,2.4
			c4.3,0.7,9.4,0.8,12.1-2.5c-0.7,3.8,1.5,7.7,4.7,9.8c3.2,2.1,7.2,2.8,11,2.9c3.6,0.1,7.2-0.2,10.4-1.8c6.5-3.2,9.7-11.6,7.6-18.5
			c-2.2-6.9-9.2-11.8-16.4-12c2.7-1.8,3.9-5.4,3.4-8.6c-0.5-3.2-2.5-6-4.9-8.2c-4.4-3.9-10.6-5.8-16.3-4.4
			c-5.7,1.4-10.4,6.5-10.8,12.4c-2.8-0.3-5.8-0.2-8.2,1.3c-2.4,1.5-3.8,4.7-2.6,7.3c0.6,1.2,1.6,2.1,2.7,2.8
			c4.8,3.3,11.1,4.2,16.6,2.4"/>
		<polygon class="st9" points="538.5,117.9 490.7,117.9 541.7,170.8 614.9,166.6 567.3,117.9 		"/>
		<path class="st1" d="M567.1,271.9c-7.3-1.1-12.3-9-12.1-16.4c0.1-2.3,0.5-4.6,2.1-6.3c2.2-2.4,5.9-2.7,9-3.8
			c4-1.4,7.7-4.5,11.9-3.7c3.3,0.7,5.7,3.8,6.4,7.1c0.7,3.3-0.1,6.8-1,10c3.9-3.5,9.1-5.7,14.4-5.3c5.2,0.4,10.3,3.5,12.6,8.2
			s1.2,11-2.9,14.4c-2,1.7-4.7,2.6-7.3,3.1c-5.2,0.9-11.5-0.5-14-5.2c-0.8,4.2-5.4,6.5-9.6,7.1c-3.2,0.4-6.6,0.2-9.2-1.7
			c-2.6-1.8-4.1-5.5-2.6-8.4"/>
		<path class="st7" d="M548.5,143.5c-9.2-5.8-13.8-16.7-16.9-27.1c-6.1-20.2-8.7-41.3-7.8-62.4c0.1-3.1,1.7-7.3,4.7-6.6
			c1.1,0.3,1.8,1.1,2.5,2c8.5,10.6,9.5,25.1,10.2,38.6c0.7,13.8,1.4,27.5,2.2,41.3c2.9-16.9,5.7-33.8,10.5-50.3
			c2.8-9.8,6.8-20,15.2-25.7c1.2-0.8,2.5-1.5,3.9-1.5c4.3,0.1,5.4,6,4.9,10.3c-2.9,26-11.3,51.4-24.7,73.9
			c13.6-20.8,27.8-42.3,48.6-55.9c1.9-1.2,4.2-2.5,6.3-1.6c3.2,1.2,3.1,5.7,2.3,9c-6.9,28.8-31.2,52.7-60,59.2"/>
	</g>
</g>
</svg>
