<?xml version="1.0" encoding="utf-8"?>
<!-- Generator: Adobe Illustrator 19.2.1, SVG Export Plug-In . SVG Version: 6.00 Build 0)  -->
<!DOCTYPE svg PUBLIC "-//W3C//DTD SVG 1.1//EN" "http://www.w3.org/Graphics/SVG/1.1/DTD/svg11.dtd">
<svg version="1.1" id="Livello_1" xmlns="http://www.w3.org/2000/svg" xmlns:xlink="http://www.w3.org/1999/xlink" x="0px" y="0px"
	 viewBox="0 0 828.7 828.7" style="enable-background:new 0 0 828.7 828.7;" xml:space="preserve">
<style type="text/css">
	.st0{fill:#87C9F0;}
	.st1{fill:#927F1B;}
	.st2{fill:none;stroke:#FFFFFF;stroke-width:6.5559;stroke-miterlimit:10;}
	.st3{fill:#D9B89C;}
	.st4{fill:#BF8F73;}
	.st5{fill:#BC7F61;}
	.st6{fill:#893B2C;}
	.st7{fill:#730202;}
	.st8{fill:#402F29;}
	.st9{fill:#E76E53;}
	.st10{fill:#C9452F;}
	.st11{fill:#D88F5D;}
	.st12{fill:#A4923B;}
	.st13{fill:#F4164F;}
	.st14{fill:#FFFFFF;}
	.st15{fill:#B2C554;}
	.st16{fill:#8C5042;}
	.st17{fill:#4F7302;}
	.st18{fill:#A20404;}
	.st19{opacity:0.94;}
	.st20{opacity:0.94;fill:#4F7302;enable-background:new    ;}
	.st21{fill:#735E53;}
	.st22{fill:#FFA700;}
	.st23{fill:#FDCF7D;}
	.st24{fill:#65A603;}
	.st25{fill:#EF9E65;}
	.st26{fill:#C00439;}
</style>
<circle class="st0" cx="414.3" cy="414.3" r="414.3"/>
<polygon class="st1" points="567.2,369.3 575.9,392.4 641,392.4 647.4,374.3 "/>
<line class="st2" x1="204.8" y1="60.3" x2="256.8" y2="324.9"/>
<g>
	<polygon class="st3" points="122.9,341.4 270.4,307 749,325 601.5,368.1 	"/>
	<polygon class="st4" points="122.9,341.4 122.9,353.6 599.2,383.1 601.5,368.1 	"/>
	<polygon class="st5" points="601.5,368.1 749,325 749,337.5 599.2,383.1 	"/>
</g>
<g>
	<polygon class="st3" points="117.4,615.9 264.9,581.5 743.5,599.5 596,642.6 	"/>
	<polygon class="st4" points="117.4,615.9 117.4,628.1 593.8,657.6 596,642.6 	"/>
	<polygon class="st5" points="596,642.6 743.5,599.5 743.5,612.1 593.8,657.6 	"/>
</g>
<polygon class="st6" points="229.9,361.4 238.2,383.5 300.4,383.5 306.4,366.2 "/>
<polygon class="st7" points="414.2,371.5 420.2,387.2 464.6,387.2 468.9,374.9 "/>
<polygon class="st8" points="188.8,632.5 200.8,664.3 290.4,664.3 299.1,639.4 "/>
<polygon class="st9" points="346.4,587.7 352.3,612.8 424.4,617.2 432.8,587.7 "/>
<polygon class="st10" points="360.2,641.5 366.1,657.2 410.5,657.2 414.9,644.9 "/>
<polygon class="st11" points="510.4,652.5 520.8,680 598.5,680 606,658.4 "/>
<g>
	<polygon class="st12" points="553.5,296.1 561.2,329.4 656.8,335.2 668,296.1 	"/>
	<g>
		<path class="st13" d="M590.4,279.6c-0.4,2.2-2.3,3.7-4.5,3.7c-0.3,0-0.6,0-0.9-0.1l-9.2-1.8l4.3,8c1.2,2.2,0.4,5-1.9,6.2
			c-0.7,0.4-1.4,0.5-2.2,0.5c-1.6,0-3.2-0.9-4-2.4l-4.4-8.3l-3.4,8.3c-1,2.3-3.6,3.4-6,2.5c-1.8-0.7-2.8-2.4-2.8-4.2
			c0-0.6,0.1-1.2,0.3-1.8l3.6-8.6l-8.6,2.6c-2.4,0.7-5-0.6-5.7-3.1c-0.1-0.4-0.2-0.9-0.2-1.3c0-2,1.3-3.8,3.3-4.4l9-2.7l-7.5-5
			c-2.1-1.4-2.7-4.3-1.3-6.4c0.9-1.3,2.3-2,3.8-2c0.9,0,1.8,0.2,2.5,0.8l8.7,5.8v-10.1c0-2.5,2.1-4.6,4.6-4.6c1.3,0,2.4,0.5,3.2,1.3
			s1.3,2,1.3,3.2v9.4l7-5.7c2-1.6,4.8-1.3,6.4,0.6c0.7,0.9,1,1.9,1,2.9c0,1.3-0.6,2.6-1.7,3.5l-7.2,5.9l8.8,1.8
			C589.2,274.7,590.8,277.1,590.4,279.6z"/>
		
			<ellipse transform="matrix(6.610256e-02 -0.9978 0.9978 6.610256e-02 256.7444 822.0027)" class="st14" cx="567.5" cy="273.8" rx="6.6" ry="6.6"/>
	</g>
	<g>
		<path class="st13" d="M625.5,294.2c-0.4,2.2-2.3,3.7-4.5,3.7c-0.3,0-0.6,0-0.9-0.1l-9.2-1.8l4.3,8c1.2,2.2,0.4,5-1.9,6.2
			c-0.7,0.4-1.4,0.5-2.2,0.5c-1.6,0-3.2-0.9-4-2.4l-4.4-8.3l-3.4,8.3c-1,2.3-3.6,3.4-6,2.5c-1.8-0.7-2.8-2.4-2.8-4.2
			c0-0.6,0.1-1.2,0.3-1.8l3.6-8.6l-8.6,2.6c-2.4,0.7-5-0.6-5.7-3.1c-0.1-0.4-0.2-0.9-0.2-1.3c0-2,1.3-3.8,3.3-4.4l9-2.7l-7.5-5
			c-2.1-1.4-2.7-4.3-1.3-6.4c0.9-1.3,2.3-2,3.8-2c0.9,0,1.8,0.2,2.5,0.8l8.7,5.8v-10.1c0-2.5,2.1-4.6,4.6-4.6c1.3,0,2.4,0.5,3.2,1.3
			s1.3,2,1.3,3.2v9.4l7-5.7c2-1.6,4.8-1.3,6.4,0.6c0.7,0.9,1,1.9,1,2.9c0,1.3-0.6,2.6-1.7,3.5l-7.2,5.9l8.8,1.8
			C624.4,289.3,626,291.7,625.5,294.2z"/>
		
			<ellipse transform="matrix(6.610256e-02 -0.9978 0.9978 6.610256e-02 275.0263 870.7615)" class="st14" cx="602.7" cy="288.5" rx="6.6" ry="6.6"/>
	</g>
	<g>
		<path class="st13" d="M620.4,261.3c-0.4,2.2-2.3,3.7-4.5,3.7c-0.3,0-0.6,0-0.9-0.1l-9.2-1.8l4.3,8c1.2,2.2,0.4,5-1.9,6.2
			c-0.7,0.4-1.4,0.5-2.2,0.5c-1.6,0-3.2-0.9-4-2.4l-4.4-8.3l-3.4,8.3c-1,2.3-3.6,3.4-6,2.5c-1.8-0.7-2.8-2.4-2.8-4.2
			c0-0.6,0.1-1.2,0.3-1.8l3.6-8.6l-8.6,2.6c-2.4,0.7-5-0.6-5.7-3.1c-0.1-0.4-0.2-0.9-0.2-1.3c0-2,1.3-3.8,3.3-4.4l9-2.7l-7.5-5
			c-2.1-1.4-2.7-4.3-1.3-6.4c0.9-1.3,2.3-2,3.8-2c0.9,0,1.8,0.2,2.5,0.8l8.7,5.8v-10.1c0-2.5,2.1-4.6,4.6-4.6c1.3,0,2.4,0.5,3.2,1.3
			s1.3,2,1.3,3.2v9.4l7-5.7c2-1.6,4.8-1.3,6.4,0.6c0.7,0.9,1,1.9,1,2.9c0,1.3-0.6,2.6-1.7,3.5l-7.2,5.9l8.8,1.8
			C619.3,256.4,620.9,258.8,620.4,261.3z"/>
		
			<ellipse transform="matrix(6.610256e-02 -0.9978 0.9978 6.610256e-02 303.02 834.9575)" class="st14" cx="597.6" cy="255.6" rx="6.6" ry="6.6"/>
	</g>
	<g>
		<path class="st13" d="M659.6,293.2c-0.4,2.2-2.3,3.7-4.5,3.7c-0.3,0-0.6,0-0.9-0.1L645,295l4.3,8c1.2,2.2,0.4,5-1.9,6.2
			c-0.7,0.4-1.4,0.5-2.2,0.5c-1.6,0-3.2-0.9-4-2.4l-4.4-8.3l-3.4,8.3c-1,2.3-3.6,3.4-6,2.5c-1.8-0.7-2.8-2.4-2.8-4.2
			c0-0.6,0.1-1.2,0.3-1.8l3.6-8.6l-8.6,2.6c-2.4,0.7-5-0.6-5.7-3.1c-0.1-0.4-0.2-0.9-0.2-1.3c0-2,1.3-3.8,3.3-4.4l9-2.7l-7.5-5
			c-2.1-1.4-2.7-4.3-1.3-6.4c0.9-1.3,2.3-2,3.8-2c0.9,0,1.8,0.2,2.5,0.8l8.7,5.8v-10.1c0-2.5,2.1-4.6,4.6-4.6c1.3,0,2.4,0.5,3.2,1.3
			s1.3,2,1.3,3.2v9.4l7-5.7c2-1.6,4.8-1.3,6.4,0.6c0.7,0.9,1,1.9,1,2.9c0,1.3-0.6,2.6-1.7,3.5l-7.2,5.9l8.8,1.8
			C658.4,288.3,660.1,290.7,659.6,293.2z"/>
		
			<ellipse transform="matrix(6.610256e-02 -0.9978 0.9978 6.610256e-02 307.7229 903.8949)" class="st14" cx="636.7" cy="287.6" rx="6.6" ry="6.6"/>
	</g>
	<g>
		<path class="st13" d="M659.6,266.5c-0.4,2.2-2.3,3.7-4.5,3.7c-0.3,0-0.6,0-0.9-0.1l-9.2-1.8l4.3,8c1.2,2.2,0.4,5-1.9,6.2
			c-0.7,0.4-1.4,0.5-2.2,0.5c-1.6,0-3.2-0.9-4-2.4l-4.4-8.3l-3.4,8.3c-1,2.3-3.6,3.4-6,2.5c-1.8-0.7-2.8-2.4-2.8-4.2
			c0-0.6,0.1-1.2,0.3-1.8l3.6-8.6l-8.6,2.6c-2.4,0.7-5-0.6-5.7-3.1c-0.1-0.4-0.2-0.9-0.2-1.3c0-2,1.3-3.8,3.3-4.4l9-2.7l-7.5-5
			c-2.1-1.4-2.7-4.3-1.3-6.4c0.9-1.3,2.3-2,3.8-2c0.9,0,1.8,0.2,2.5,0.8l8.7,5.8v-10.1c0-2.5,2.1-4.6,4.6-4.6c1.3,0,2.4,0.5,3.2,1.3
			s1.3,2,1.3,3.2v9.4l7-5.7c2-1.6,4.8-1.3,6.4,0.6c0.7,0.9,1,1.9,1,2.9c0,1.3-0.6,2.6-1.7,3.5l-7.2,5.9l8.8,1.8
			C658.4,261.6,660.1,264,659.6,266.5z"/>
		
			<ellipse transform="matrix(6.610256e-02 -0.9978 0.9978 6.610256e-02 334.4728 878.8806)" class="st14" cx="636.8" cy="260.8" rx="6.6" ry="6.6"/>
	</g>
	<g>
		<path class="st13" d="M689.9,284c-0.4,2.2-2.3,3.7-4.5,3.7c-0.3,0-0.6,0-0.9-0.1l-9.2-1.8l4.3,8c1.2,2.2,0.4,5-1.9,6.2
			c-0.7,0.4-1.4,0.5-2.2,0.5c-1.6,0-3.2-0.9-4-2.4l-4.4-8.3l-3.4,8.3c-1,2.3-3.6,3.4-6,2.5c-1.8-0.7-2.8-2.4-2.8-4.2
			c0-0.6,0.1-1.2,0.3-1.8l3.6-8.6l-8.6,2.6c-2.4,0.7-5-0.6-5.7-3.1c-0.1-0.4-0.2-0.9-0.2-1.3c0-2,1.3-3.8,3.3-4.4l9-2.7l-7.5-5
			c-2.1-1.4-2.7-4.3-1.3-6.4c0.9-1.3,2.3-2,3.8-2c0.9,0,1.8,0.2,2.5,0.8l8.7,5.8v-10.1c0-2.5,2.1-4.6,4.6-4.6c1.3,0,2.4,0.5,3.2,1.3
			s1.3,2,1.3,3.2v9.4l7-5.7c2-1.6,4.8-1.3,6.4,0.6c0.7,0.9,1,1.9,1,2.9c0,1.3-0.6,2.6-1.7,3.5l-7.2,5.9l8.8,1.8
			C688.8,279.1,690.4,281.5,689.9,284z"/>
		
			<ellipse transform="matrix(6.610256e-02 -0.9978 0.9978 6.610256e-02 345.3375 925.5432)" class="st14" cx="667.1" cy="278.3" rx="6.6" ry="6.6"/>
	</g>
	<g>
		<path class="st13" d="M587,249.1c-0.4,2.2-2.3,3.7-4.5,3.7c-0.3,0-0.6,0-0.9-0.1l-9.2-1.8l4.3,8c1.2,2.2,0.4,5-1.9,6.2
			c-0.7,0.4-1.4,0.5-2.2,0.5c-1.6,0-3.2-0.9-4-2.4l-4.4-8.3l-3.4,8.3c-1,2.3-3.6,3.4-6,2.5c-1.8-0.7-2.8-2.4-2.8-4.2
			c0-0.6,0.1-1.2,0.3-1.8l3.6-8.6l-8.6,2.6c-2.4,0.7-5-0.6-5.7-3.1c-0.1-0.4-0.2-0.9-0.2-1.3c0-2,1.3-3.8,3.3-4.4l9-2.7l-7.5-5
			c-2.1-1.4-2.7-4.3-1.3-6.4c0.9-1.3,2.3-2,3.8-2c0.9,0,1.8,0.2,2.5,0.8l8.7,5.8v-10.1c0-2.5,2.1-4.6,4.6-4.6c1.3,0,2.4,0.5,3.2,1.3
			s1.3,2,1.3,3.2v9.4l7-5.7c2-1.6,4.8-1.3,6.4,0.6c0.7,0.9,1,1.9,1,2.9c0,1.3-0.6,2.6-1.7,3.5l-7.2,5.9l8.8,1.8
			C585.9,244.3,587.5,246.7,587,249.1z"/>
		
			<ellipse transform="matrix(6.610256e-02 -0.9978 0.9978 6.610256e-02 283.9594 790.1858)" class="st14" cx="564.1" cy="243.4" rx="6.6" ry="6.6"/>
	</g>
	<g>
		<path class="st13" d="M581.3,224.4c-0.4,2.2-2.3,3.7-4.5,3.7c-0.3,0-0.6,0-0.9-0.1l-9.2-1.8l4.3,7.9c1.2,2.2,0.4,5-1.9,6.2
			c-0.7,0.4-1.4,0.5-2.2,0.5c-1.6,0-3.2-0.9-4-2.4l-4.4-8.3l-3.4,8.3c-1,2.3-3.6,3.4-6,2.5c-1.8-0.7-2.8-2.4-2.8-4.2
			c0-0.6,0.1-1.2,0.3-1.8l3.6-8.6l-8.6,2.6c-2.4,0.7-5-0.6-5.7-3.1c-0.1-0.4-0.2-0.9-0.2-1.3c0-2,1.3-3.8,3.3-4.4l9-2.7l-7.5-5
			c-2.1-1.4-2.7-4.3-1.3-6.4c0.9-1.3,2.3-2,3.8-2c0.9,0,1.8,0.2,2.5,0.8l8.7,5.8v-10.1c0-2.5,2.1-4.6,4.6-4.6c1.3,0,2.4,0.5,3.2,1.3
			s1.3,2,1.3,3.2v9.4l7-5.7c2-1.6,4.8-1.3,6.4,0.6c0.7,0.9,1,1.9,1,2.9c0,1.3-0.6,2.6-1.7,3.5l-7.2,5.9l8.8,1.8
			C580.2,219.5,581.8,221.9,581.3,224.4z"/>
		
			<ellipse transform="matrix(6.610256e-02 -0.9978 0.9978 6.610256e-02 303.4788 761.4785)" class="st14" cx="558.5" cy="218.6" rx="6.6" ry="6.6"/>
	</g>
	<g>
		<path class="st13" d="M556.1,255.9c-0.4,2.2-2.3,3.7-4.5,3.7c-0.3,0-0.6,0-0.9-0.1l-9.2-1.8l4.3,8c1.2,2.2,0.4,5-1.9,6.2
			c-0.7,0.4-1.4,0.5-2.2,0.5c-1.6,0-3.2-0.9-4-2.4l-4.4-8.3l-3.4,8.3c-1,2.3-3.6,3.4-6,2.5c-1.8-0.7-2.8-2.4-2.8-4.2
			c0-0.6,0.1-1.2,0.3-1.8l3.6-8.6l-8.6,2.6c-2.4,0.7-5-0.6-5.7-3.1c-0.1-0.4-0.2-0.9-0.2-1.3c0-2,1.3-3.8,3.3-4.4l9-2.7l-7.5-5
			c-2.1-1.4-2.7-4.3-1.3-6.4c0.9-1.3,2.3-2,3.8-2c0.9,0,1.8,0.2,2.5,0.8l8.7,5.8v-10.1c0-2.5,2.1-4.6,4.6-4.6c1.3,0,2.4,0.5,3.2,1.3
			s1.3,2,1.3,3.2v9.4l7-5.7c2-1.6,4.8-1.3,6.4,0.6c0.7,0.9,1,1.9,1,2.9c0,1.3-0.6,2.6-1.7,3.5l-7.2,5.9l8.8,1.8
			C555,251,556.6,253.4,556.1,255.9z"/>
		
			<ellipse transform="matrix(6.610256e-02 -0.9978 0.9978 6.610256e-02 248.3741 765.8419)" class="st14" cx="533.3" cy="250.2" rx="6.6" ry="6.6"/>
	</g>
	<g>
		<path class="st13" d="M617.4,226.5c-0.4,2.2-2.3,3.7-4.5,3.7c-0.3,0-0.6,0-0.9-0.1l-9.2-1.8l4.3,7.9c1.2,2.2,0.4,5-1.9,6.2
			c-0.7,0.4-1.4,0.5-2.2,0.5c-1.6,0-3.2-0.9-4-2.4l-4.4-8.3l-3.4,8.3c-1,2.3-3.6,3.4-6,2.5c-1.8-0.7-2.8-2.4-2.8-4.2
			c0-0.6,0.1-1.2,0.3-1.8l3.6-8.6l-8.6,2.6c-2.4,0.7-5-0.6-5.7-3.1c-0.1-0.4-0.2-0.9-0.2-1.3c0-2,1.3-3.8,3.3-4.4l9-2.7l-7.5-5
			c-2.1-1.4-2.7-4.3-1.3-6.4c0.9-1.3,2.3-2,3.8-2c0.9,0,1.8,0.2,2.5,0.8l8.7,5.8v-10.1c0-2.5,2.1-4.6,4.6-4.6c1.3,0,2.4,0.5,3.2,1.3
			s1.3,2,1.3,3.2v9.4l7-5.7c2-1.6,4.8-1.3,6.4,0.6c0.7,0.9,1,1.9,1,2.9c0,1.3-0.6,2.6-1.7,3.5l-7.2,5.9l8.8,1.8
			C616.2,221.6,617.8,224,617.4,226.5z"/>
		
			<ellipse transform="matrix(6.610256e-02 -0.9978 0.9978 6.610256e-02 334.9925 799.3956)" class="st14" cx="594.5" cy="220.7" rx="6.6" ry="6.6"/>
	</g>
	<g>
		<path class="st13" d="M564.1,289.6c-0.4,2.2-2.3,3.7-4.5,3.7c-0.3,0-0.6,0-0.9-0.1l-9.2-1.8l4.3,8c1.2,2.2,0.4,5-1.9,6.2
			c-0.7,0.4-1.4,0.5-2.2,0.5c-1.6,0-3.2-0.9-4-2.4l-4.4-8.3l-3.4,8.3c-1,2.3-3.6,3.4-6,2.5c-1.8-0.7-2.8-2.4-2.8-4.2
			c0-0.6,0.1-1.2,0.3-1.8l3.6-8.6l-8.6,2.6c-2.4,0.7-5-0.6-5.7-3.1c-0.1-0.4-0.2-0.9-0.2-1.3c0-2,1.3-3.8,3.3-4.4l9-2.7l-7.5-5
			c-2.1-1.4-2.7-4.3-1.3-6.4c0.9-1.3,2.3-2,3.8-2c0.9,0,1.8,0.2,2.5,0.8l8.7,5.8v-10.1c0-2.5,2.1-4.6,4.6-4.6c1.3,0,2.4,0.5,3.2,1.3
			s1.3,2,1.3,3.2v9.4l7-5.7c2-1.6,4.8-1.3,6.4,0.6c0.7,0.9,1,1.9,1,2.9c0,1.3-0.6,2.6-1.7,3.5l-7.2,5.9l8.8,1.8
			C563,284.7,564.6,287.1,564.1,289.6z"/>
		
			<ellipse transform="matrix(6.610256e-02 -0.9978 0.9978 6.610256e-02 222.1898 805.2347)" class="st14" cx="541.3" cy="283.9" rx="6.6" ry="6.6"/>
	</g>
	<g>
		<path class="st13" d="M653,228.8c-0.4,2.2-2.3,3.7-4.5,3.7c-0.3,0-0.6,0-0.9-0.1l-9.2-1.8l4.3,7.9c1.2,2.2,0.4,5-1.9,6.2
			c-0.7,0.4-1.4,0.5-2.2,0.5c-1.6,0-3.2-0.9-4-2.4l-4.4-8.3l-3.4,8.3c-1,2.3-3.6,3.4-6,2.5c-1.8-0.7-2.8-2.4-2.8-4.2
			c0-0.6,0.1-1.2,0.3-1.8l3.6-8.6l-8.6,2.6c-2.4,0.7-5-0.6-5.7-3.1c-0.1-0.4-0.2-0.9-0.2-1.3c0-2,1.3-3.8,3.3-4.4l9-2.7l-7.5-5
			c-2.1-1.4-2.7-4.3-1.3-6.4c0.9-1.3,2.3-2,3.8-2c0.9,0,1.8,0.2,2.5,0.8l8.7,5.8v-10c0-2.5,2.1-4.6,4.6-4.6c1.3,0,2.4,0.5,3.2,1.3
			s1.3,2,1.3,3.2v9.4l7-5.7c2-1.6,4.8-1.3,6.4,0.6c0.7,0.9,1,1.9,1,2.9c0,1.3-0.6,2.6-1.7,3.5l-7.2,5.9l8.8,1.8
			C651.8,223.9,653.5,226.4,653,228.8z"/>
		
			<ellipse transform="matrix(6.610256e-02 -0.9978 0.9978 6.610256e-02 365.7963 837.168)" class="st14" cx="630.1" cy="223.2" rx="6.6" ry="6.6"/>
	</g>
	<g>
		<path class="st13" d="M689.9,249.1c-0.4,2.2-2.3,3.7-4.5,3.7c-0.3,0-0.6,0-0.9-0.1l-9.2-1.8l4.3,8c1.2,2.2,0.4,5-1.9,6.2
			c-0.7,0.4-1.4,0.5-2.2,0.5c-1.6,0-3.2-0.9-4-2.4l-4.4-8.3l-3.4,8.3c-1,2.3-3.6,3.4-6,2.5c-1.8-0.7-2.8-2.4-2.8-4.2
			c0-0.6,0.1-1.2,0.3-1.8l3.6-8.6l-8.6,2.6c-2.4,0.7-5-0.6-5.7-3.1c-0.1-0.4-0.2-0.9-0.2-1.3c0-2,1.3-3.8,3.3-4.4l9-2.7l-7.5-5
			c-2.1-1.4-2.7-4.3-1.3-6.4c0.9-1.3,2.3-2,3.8-2c0.9,0,1.8,0.2,2.5,0.8l8.7,5.8v-10.1c0-2.5,2.1-4.6,4.6-4.6c1.3,0,2.4,0.5,3.2,1.3
			s1.3,2,1.3,3.2v9.4l7-5.7c2-1.6,4.8-1.3,6.4,0.6c0.7,0.9,1,1.9,1,2.9c0,1.3-0.6,2.6-1.7,3.5l-7.2,5.9l8.8,1.8
			C688.8,244.3,690.4,246.7,689.9,249.1z"/>
		
			<ellipse transform="matrix(6.610256e-02 -0.9978 0.9978 6.610256e-02 379.9657 892.9294)" class="st14" cx="667" cy="243.5" rx="6.6" ry="6.6"/>
	</g>
</g>
<line class="st2" x1="205.4" y1="56" x2="160" y2="337.5"/>
<line class="st2" x1="714" y1="325" x2="628.5" y2="59.6"/>
<line class="st2" x1="601.5" y1="361.9" x2="621.4" y2="59.6"/>
<path class="st2" d="M156.7,468.1"/>
<path class="st2" d="M149.1,354.4"/>
<line class="st2" x1="149.1" y1="354.4" x2="149.1" y2="622.4"/>
<line class="st2" x1="256.8" y1="361.9" x2="256.8" y2="588.5"/>
<line class="st2" x1="719.3" y1="346.6" x2="719.3" y2="609.8"/>
<path class="st2" d="M599.2,498.2"/>
<path class="st2" d="M599.2,383.1"/>
<line class="st2" x1="599.2" y1="383.1" x2="601.5" y2="646.7"/>
<g>
	<g>
		<path class="st15" d="M255.8,262.2c-10.7-9.2-31.3-2.8-31.3-2.8s-2.3,20.2,8.3,29.5c10.7,9.2,30.4,3.9,30.4,3.9
			S266.5,271.5,255.8,262.2z"/>
	</g>
	<g>
		<path class="st15" d="M307.8,250.3c-8.9,11.2-30.6,8.8-30.6,8.8s-6.2-19.7,2.6-30.9c8.9-11.2,29.4-9.7,29.4-9.7
			S316.6,239.1,307.8,250.3z"/>
	</g>
	<g>
		<polygon class="st16" points="210.8,294.5 218.9,329.7 319.8,335.8 331.6,294.5 		"/>
		<g>
			<path class="st15" d="M307.6,238.4c10.8-9.3,31.7-2.8,31.7-2.8s2.4,20.5-8.4,29.8c-10.8,9.3-30.7,3.9-30.7,3.9
				S296.8,247.7,307.6,238.4z"/>
		</g>
		<g>
			<path class="st15" d="M230.9,261.7c11.3,8.7,9.2,30.5,9.2,30.5s-19.6,6.5-30.9-2.2s-10.1-29.3-10.1-29.3S219.6,253,230.9,261.7z"
				/>
		</g>
		<g>
			<path class="st15" d="M243.1,238.4c-10.8-9.3-31.7-2.8-31.7-2.8s-2.4,20.5,8.4,29.8s30.7,3.9,30.7,3.9S253.9,247.7,243.1,238.4z"
				/>
		</g>
		<g>
			<path class="st15" d="M289.5,285.5c-8.9,11.2-30.6,8.8-30.6,8.8s-6.2-19.7,2.6-30.9c8.9-11.2,29.4-9.7,29.4-9.7
				S298.4,274.3,289.5,285.5z"/>
		</g>
		<g>
			<path class="st15" d="M287.6,262.3c10.8-9.3,31.7-2.8,31.7-2.8s2.4,20.5-8.4,29.8s-30.7,3.9-30.7,3.9S276.8,271.7,287.6,262.3z"
				/>
		</g>
		<g>
			<path class="st15" d="M266.7,229c-10.7-9.2-31.3-2.8-31.3-2.8s-2.3,20.2,8.3,29.5s30.4,3.9,30.4,3.9S277.4,238.2,266.7,229z"/>
		</g>
		<g>
			<path class="st15" d="M315.9,261.7c-11.3,8.7-9.2,30.5-9.2,30.5s19.6,6.5,30.9-2.2s10.1-29.3,10.1-29.3S327.2,253,315.9,261.7z"
				/>
		</g>
		<g>
			<path class="st15" d="M248.2,221.7c5.3,13.3,26.8,17.2,26.8,17.2s11.6-17.1,6.3-30.3c-5.3-13.3-25.4-17.7-25.4-17.7
				S242.9,208.4,248.2,221.7z"/>
		</g>
	</g>
</g>
<g>
	<g>
		<path class="st17" d="M487.1,313c-5,1.9-11.3-0.5-13.7-5.2c-1.1-2.1-1.5-4.9-0.1-6.9c0.8-1.2,2-1.9,3.2-2.6
			c4.3-2.4,9-3.9,13.4-6.2c4.4-2.2,8.5-5.3,10.8-9.7c-0.3,9.5,8.3,18,6.5,27.3c-0.9,4.3-4.1,8-8.2,9.4c-1.5,0.5-3.2,0.8-4.8,0.5
			C490.7,319.1,487.7,316.3,487.1,313"/>
		<path class="st17" d="M487.4,309.2c-2.3,5.1-5.1,10-8.4,14.5c2-0.1,4.1,0.7,5.5,2.1c2.7-4.9,3.8-10.6,3.1-16.1"/>
	</g>
	<polygon class="st18" points="400.5,317.7 406.3,342.8 478.4,347.2 486.8,317.7 	"/>
	<g>
		<path class="st17" d="M461.5,294.8c-3.8,1.4-8.5-0.4-10.4-4c-0.8-1.6-1.1-3.7-0.1-5.2c0.6-0.9,1.5-1.5,2.5-2
			c3.3-1.8,6.8-3,10.1-4.7s6.5-4,8.2-7.4c-0.3,7.2,6.3,13.6,4.9,20.7c-0.6,3.2-3.1,6.1-6.2,7.1c-1.2,0.4-2.4,0.6-3.6,0.4
			C464.1,299.5,461.9,297.3,461.5,294.8"/>
	</g>
	<g class="st19">
		<path class="st17" d="M405.3,308.5c3.2,1.4,7.2-0.3,8.8-3.8c0.7-1.5,0.9-3.5,0.1-5c-0.5-0.8-1.3-1.4-2.1-1.9
			c-2.7-1.7-5.7-2.9-8.5-4.5s-5.4-3.9-6.9-7c0.2,6.9-5.3,13-4.1,19.8c0.5,3.1,2.6,5.8,5.2,6.8c1,0.4,2,0.6,3.1,0.4
			C403,313,404.9,310.9,405.3,308.5"/>
		<path class="st17" d="M405.2,305.8c1.5,3.7,3.3,7.2,5.4,10.5c-1.3-0.1-2.6,0.5-3.5,1.5c-1.7-3.5-2.4-7.7-2-11.7"/>
	</g>
	<path class="st20" d="M441.1,318c0.5-2.5,1.1-5.1,1.6-7.6c0.1-0.4,0.2-0.9,0.1-1.3c-0.4-1.2-2.1-1.2-3.4-1.4
		c-3.7-0.6-5.5-5.4-4.3-9c1.1-3.6,4.1-6.2,6.9-8.8c3.2-3,6.3-6.3,9.2-9.7c3.6,7.9,5.4,16.6,5.3,25.3c0,0.9-0.1,1.8-0.5,2.6
		c-0.5,0.9-1.6,1.5-2.6,1.8c-2.3,0.8-4.9,1.1-7.3,0.9c-0.4,2.7-1.2,5.3-2.3,7.7C442.9,318.3,442,318.1,441.1,318"/>
	<path class="st20" d="M476,285.3c0.1-0.4,0.2-0.9,0.1-1.3c-0.4-1.2-2.1-1.2-3.4-1.4c-3.7-0.6-5.5-5.4-4.3-9
		c1.1-3.6,4.1-6.2,6.9-8.8c3.2-3,6.3-6.3,9.2-9.7c3.6,7.9,5.4,16.6,5.3,25.3c0,0.9-0.1,1.8-0.5,2.6c-0.5,0.9-1.6,1.5-2.6,1.8
		c-2.3,0.8-4.9,1.1-7.3,0.9"/>
	<path class="st20" d="M426,316.3c-0.1-1.7-0.2-3.4-0.3-5.1c-2.1,0.2-4.3-0.6-5.7-2.2s-2.1-3.8-1.6-5.9c0.9-4.6,6.1-7,8.8-10.9
		c2.3,2.3,4.6,4.7,6.9,7c2.1,2.1,4.3,4.7,3.6,7.6c-0.4,1.9-2.2,3.3-4,4c-1.9,0.6-3.9,0.6-5.8,0.5c-0.5,1.6-1,3.2-1.5,4.8"/>
	<g>
		<path class="st17" d="M412.4,284.6c3.7,3.1,9.6,2.4,13.1-1.5c1.6-1.7,2.6-4.3,2.1-6.5c-0.3-1.3-1.1-2.4-2-3.3
			c-3-3.4-6.5-6.1-9.5-9.4s-5.7-7.3-6.3-12.1c-2.5,9.1-12.3,15.1-13.4,24.4c-0.5,4.3,1.1,8.7,4.2,11.1c1.1,0.9,2.5,1.6,3.9,1.7
			c3,0.4,6.4-1.5,7.9-4.6"/>
	</g>
	<path class="st20" d="M455.1,317.9c-2.1,0.2-4.3-0.6-5.7-2.2s-2.1-3.8-1.6-5.9c0.9-4.6,6.1-7,8.8-10.9c2.3,2.3,4.6,4.7,6.9,7
		c2.1,2.1,4.3,4.7,3.6,7.6c-0.4,1.9-2.2,3.3-4,4c-1.9,0.6-3.9,0.6-5.8,0.5"/>
	<path class="st20" d="M442.4,289.5c-2.1,0.2-4.3-0.6-5.7-2.2s-2.1-3.8-1.6-5.9c0.9-4.6,6.1-7,8.8-10.9c2.3,2.3,4.6,4.7,6.9,7
		c2.1,2.1,4.3,4.7,3.6,7.6c-0.4,1.9-2.2,3.3-4,4c-1.9,0.6-3.9,0.6-5.8,0.5"/>
	<path class="st20" d="M438.7,270c-2.1,0.2-4.3-0.6-5.7-2.2s-2.1-3.8-1.6-5.9c0.9-4.6,6.1-7,8.8-10.9c2.3,2.3,4.6,4.7,6.9,7
		c2.1,2.1,4.3,4.7,3.6,7.6c-0.4,1.9-2.2,3.3-4,4s-3.9,0.6-5.8,0.5"/>
	<path class="st20" d="M457.4,274c-2.1,0.2-4.3-0.6-5.7-2.2s-2.1-3.8-1.6-5.9c0.9-4.6,6.1-7,8.8-10.9c2.3,2.3,4.6,4.7,6.9,7
		c2.1,2.1,4.3,4.7,3.6,7.6c-0.4,1.9-2.2,3.3-4,4c-1.9,0.6-3.9,0.6-5.8,0.5"/>
</g>
<g>
	<polygon class="st21" points="172.8,555.7 182.3,596.7 299.8,603.8 313.5,555.7 	"/>
	<g>
		<path class="st22" d="M195.8,525.7c0,9.5-9.5,17.6-9.5,17.6s-12.4-8.1-12.4-17.6s12.4-16.8,12.4-16.8S195.8,516.2,195.8,525.7z"/>
		<path class="st22" d="M206.2,542.9c-8.3,4.7-20,0.4-20,0.4s0.9-14.8,9.2-19.4s20.8,2.5,20.8,2.5S214.5,538.2,206.2,542.9z"/>
		<path class="st22" d="M196.5,560.5c-8.1-4.9-10.2-17.2-10.2-17.2s13.3-6.5,21.4-1.6c8.1,4.9,8.1,19.3,8.1,19.3
			S204.6,565.4,196.5,560.5z"/>
		<path class="st22" d="M176.4,560.6c0.2-9.5,9.9-17.3,9.9-17.3s12.2,8.4,11.9,17.9c-0.2,9.5-12.8,16.5-12.8,16.5
			S176.1,570.1,176.4,560.6z"/>
		<path class="st22" d="M166.3,543.2c8.4-4.5,20,0.1,20,0.1s-1.3,14.7-9.7,19.2s-20.7-3-20.7-3S157.9,547.7,166.3,543.2z"/>
		<path class="st22" d="M176.5,525.9c8,5.1,9.7,17.4,9.7,17.4s-13.4,6.1-21.5,1s-7.6-19.5-7.6-19.5S168.5,520.8,176.5,525.9z"/>
	</g>
	<g>
		<path class="st22" d="M227.6,495.6c0,7.2-7.2,13.4-7.2,13.4s-9.4-6.1-9.4-13.4s9.4-12.9,9.4-12.9S227.6,488.3,227.6,495.6z"/>
		<path class="st22" d="M235.6,508.7c-6.3,3.6-15.2,0.3-15.2,0.3s0.7-11.3,7-14.8c6.3-3.6,15.8,1.9,15.8,1.9
			S241.9,505.1,235.6,508.7z"/>
		<path class="st22" d="M228.2,522.1c-6.2-3.7-7.8-13.1-7.8-13.1s10.1-4.9,16.3-1.2c6.2,3.7,6.2,14.7,6.2,14.7
			S234.4,525.8,228.2,522.1z"/>
		<path class="st22" d="M212.8,522.2c0.2-7.2,7.6-13.2,7.6-13.2s9.3,6.4,9.1,13.6s-9.8,12.6-9.8,12.6S212.7,529.4,212.8,522.2z"/>
		<path class="st22" d="M205.2,508.9c6.4-3.4,15.2,0.1,15.2,0.1s-1,11.2-7.4,14.6c-6.4,3.4-15.8-2.3-15.8-2.3
			S198.8,512.3,205.2,508.9z"/>
		<path class="st22" d="M213,495.7c6.1,3.9,7.4,13.3,7.4,13.3s-10.3,4.7-16.4,0.8c-6.1-3.9-5.8-14.9-5.8-14.9S206.9,491.8,213,495.7
			z"/>
	</g>
	<g>
		<path class="st23" d="M240.2,533c0,7.2-7.2,13.4-7.2,13.4s-9.4-6.1-9.4-13.4s9.4-12.8,9.4-12.8S240.2,525.7,240.2,533z"/>
		<path class="st23" d="M248.2,546.1c-6.3,3.6-15.2,0.3-15.2,0.3s0.7-11.3,7-14.8s15.8,1.9,15.8,1.9S254.5,542.5,248.2,546.1z"/>
		<path class="st23" d="M240.7,559.5c-6.2-3.7-7.8-13.1-7.8-13.1s10.1-4.9,16.3-1.2s6.2,14.7,6.2,14.7S246.9,563.2,240.7,559.5z"/>
		<path class="st23" d="M225.4,559.6c0.2-7.2,7.6-13.2,7.6-13.2s9.3,6.4,9.1,13.6s-9.8,12.6-9.8,12.6S225.2,566.8,225.4,559.6z"/>
		<path class="st23" d="M217.7,546.3c6.4-3.4,15.2,0.1,15.2,0.1s-1,11.2-7.4,14.6c-6.4,3.4-15.8-2.3-15.8-2.3
			S211.3,549.7,217.7,546.3z"/>
		<path class="st23" d="M225.5,533.1c6.1,3.9,7.4,13.3,7.4,13.3s-10.3,4.7-16.4,0.8s-5.8-14.9-5.8-14.9S219.4,529.2,225.5,533.1z"/>
	</g>
	<g>
		<path class="st23" d="M299.1,541.5c3,3.8,1.8,10,1.8,10s-7.5,0.7-10.5-3c-3-3.8-0.4-10.6-0.4-10.6S296,537.7,299.1,541.5z"/>
		<path class="st23" d="M308.7,544.9c-1.8,4.5-7.8,6.5-7.8,6.5s-4.3-6.1-2.5-10.6s9-5.6,9-5.6S310.4,540.4,308.7,544.9z"/>
		<path class="st23" d="M310.4,555c-4.8,0.7-9.5-3.6-9.5-3.6s3.2-6.8,8-7.4s9.3,5.1,9.3,5.1S315.1,554.3,310.4,555z"/>
		<path class="st23" d="M302.5,561.4c-2.9-3.8-1.6-10-1.6-10s7.5-0.6,10.4,3.3s0.2,10.6,0.2,10.6S305.4,565.3,302.5,561.4z"/>
		<path class="st23" d="M292.9,557.7c1.9-4.4,7.9-6.3,7.9-6.3s4.2,6.2,2.3,10.7c-1.9,4.4-9.2,5.4-9.2,5.4S291,562.2,292.9,557.7z"/>
		<path class="st23" d="M291.5,547.6c4.8-0.5,9.4,3.8,9.4,3.8s-3.4,6.7-8.2,7.2s-9.2-5.3-9.2-5.3S286.7,548.2,291.5,547.6z"/>
	</g>
	<g>
		<path class="st22" d="M268.1,525.7c4.4,5.4,2.6,14.4,2.6,14.4s-10.8,1.1-15.1-4.4s-0.6-15.3-0.6-15.3S263.7,520.3,268.1,525.7z"/>
		<path class="st22" d="M282,530.7c-2.6,6.5-11.2,9.4-11.2,9.4s-6.2-8.9-3.7-15.3s13-8.1,13-8.1S284.5,524.2,282,530.7z"/>
		<path class="st22" d="M284.4,545.3c-6.9,0.9-13.7-5.1-13.7-5.1s4.6-9.8,11.5-10.7s13.5,7.3,13.5,7.3S291.3,544.3,284.4,545.3z"/>
		<path class="st22" d="M273,554.6c-4.2-5.5-2.3-14.5-2.3-14.5s10.8-0.8,15,4.7s0.3,15.3,0.3,15.3S277.2,560.1,273,554.6z"/>
		<path class="st22" d="M259.3,549.2c2.7-6.4,11.5-9.1,11.5-9.1s6,9,3.3,15.4s-13.2,7.8-13.2,7.8S256.5,555.6,259.3,549.2z"/>
		<path class="st22" d="M257.2,534.6c6.9-0.8,13.6,5.5,13.6,5.5s-4.9,9.7-11.8,10.4c-6.9,0.8-13.3-7.7-13.3-7.7
			S250.2,535.4,257.2,534.6z"/>
	</g>
	<g>
		<path class="st22" d="M289.7,505.9c4.4,5.4,2.6,14.4,2.6,14.4s-10.8,1.1-15.1-4.4s-0.6-15.3-0.6-15.3S285.3,500.4,289.7,505.9z"/>
		<path class="st22" d="M303.6,510.9c-2.6,6.5-11.2,9.4-11.2,9.4s-6.2-8.9-3.7-15.3s13-8.1,13-8.1S306.2,504.4,303.6,510.9z"/>
		<path class="st22" d="M306,525.4c-6.9,0.9-13.7-5.1-13.7-5.1s4.6-9.8,11.5-10.7c6.9-0.9,13.5,7.3,13.5,7.3S313,524.4,306,525.4z"
			/>
		<path class="st22" d="M294.6,534.7c-4.2-5.5-2.3-14.5-2.3-14.5s10.8-0.8,15,4.7s0.3,15.3,0.3,15.3S298.8,540.2,294.6,534.7z"/>
		<path class="st22" d="M280.9,529.3c2.7-6.4,11.5-9.1,11.5-9.1s6,9,3.3,15.4s-13.2,7.8-13.2,7.8S278.1,535.8,280.9,529.3z"/>
		<path class="st22" d="M278.8,514.8c6.9-0.8,13.6,5.5,13.6,5.5s-4.9,9.7-11.8,10.4s-13.3-7.7-13.3-7.7S271.9,515.5,278.8,514.8z"/>
	</g>
	<g>
		<path class="st22" d="M261.9,495.6c3.6,4.5,2.2,11.9,2.2,11.9s-8.9,0.9-12.5-3.6s-0.5-12.7-0.5-12.7S258.2,491.1,261.9,495.6z"/>
		<path class="st22" d="M273.3,499.7c-2.1,5.4-9.3,7.8-9.3,7.8s-5.2-7.3-3-12.7c2.1-5.4,10.8-6.7,10.8-6.7S275.4,494.4,273.3,499.7z
			"/>
		<path class="st22" d="M275.4,511.8c-5.7,0.8-11.3-4.3-11.3-4.3s3.8-8.1,9.5-8.9s11.1,6.1,11.1,6.1S281.1,511,275.4,511.8z"/>
		<path class="st22" d="M265.9,519.5c-3.5-4.6-1.9-12-1.9-12s8.9-0.7,12.4,3.9s0.2,12.7,0.2,12.7S269.4,524,265.9,519.5z"/>
		<path class="st22" d="M254.6,515c2.3-5.3,9.5-7.5,9.5-7.5s5,7.4,2.7,12.7s-10.9,6.4-10.9,6.4S252.3,520.3,254.6,515z"/>
		<path class="st22" d="M252.8,503c5.7-0.6,11.2,4.5,11.2,4.5s-4,8-9.8,8.6s-11-6.3-11-6.3S247.1,503.6,252.8,503z"/>
	</g>
</g>
<g>
	<g>
		<path class="st22" d="M283.4,479.3c0,9.5,9.5,17.6,9.5,17.6s12.4-8.1,12.4-17.6s-12.4-16.8-12.4-16.8S283.4,469.8,283.4,479.3z"/>
		<path class="st22" d="M272.9,496.4c8.3,4.7,20,0.4,20,0.4s-0.9-14.8-9.2-19.4c-8.3-4.7-20.8,2.5-20.8,2.5S264.6,491.7,272.9,496.4
			z"/>
		<path class="st22" d="M282.7,514c8.1-4.9,10.2-17.2,10.2-17.2s-13.3-6.5-21.4-1.6s-8.1,19.3-8.1,19.3S274.5,518.9,282.7,514z"/>
		<path class="st22" d="M302.8,514.2c-0.2-9.5-9.9-17.3-9.9-17.3s-12.2,8.4-11.9,17.9c0.2,9.5,12.8,16.5,12.8,16.5
			S303,523.7,302.8,514.2z"/>
		<path class="st22" d="M312.8,496.7c-8.4-4.5-20,0.1-20,0.1s1.3,14.7,9.7,19.2c8.4,4.5,20.7-3,20.7-3S321.2,501.2,312.8,496.7z"/>
		<path class="st22" d="M302.6,479.4c-8,5.1-9.7,17.4-9.7,17.4s13.4,6.1,21.5,1s7.6-19.5,7.6-19.5S310.6,474.3,302.6,479.4z"/>
	</g>
	<g>
		<path class="st22" d="M251.5,449.1c0,7.2,7.2,13.4,7.2,13.4s9.4-6.1,9.4-13.4s-9.4-12.9-9.4-12.9S251.5,441.9,251.5,449.1z"/>
		<path class="st22" d="M243.5,462.2c6.3,3.6,15.2,0.3,15.2,0.3s-0.7-11.3-7-14.8c-6.3-3.6-15.8,1.9-15.8,1.9
			S237.2,458.6,243.5,462.2z"/>
		<path class="st22" d="M250.9,475.6c6.2-3.7,7.8-13.1,7.8-13.1s-10.1-4.9-16.3-1.2c-6.2,3.7-6.2,14.7-6.2,14.7
			S244.7,479.3,250.9,475.6z"/>
		<path class="st22" d="M266.3,475.7c-0.2-7.2-7.6-13.2-7.6-13.2s-9.3,6.4-9.1,13.6s9.8,12.6,9.8,12.6S266.5,483,266.3,475.7z"/>
		<path class="st22" d="M273.9,462.4c-6.4-3.4-15.2,0.1-15.2,0.1s1,11.2,7.4,14.6s15.8-2.3,15.8-2.3S280.3,465.8,273.9,462.4z"/>
		<path class="st22" d="M266.1,449.2c-6.1,3.9-7.4,13.3-7.4,13.3s10.3,4.7,16.4,0.8c6.1-3.9,5.8-14.9,5.8-14.9
			S272.3,445.3,266.1,449.2z"/>
	</g>
	<g>
		<path class="st23" d="M238.9,486.5c0,7.2,7.2,13.4,7.2,13.4s9.4-6.1,9.4-13.4c0-7.2-9.4-12.9-9.4-12.9S238.9,479.3,238.9,486.5z"
			/>
		<path class="st23" d="M230.9,499.6c6.3,3.6,15.2,0.3,15.2,0.3s-0.7-11.3-7-14.8s-15.8,1.9-15.8,1.9S224.6,496,230.9,499.6z"/>
		<path class="st23" d="M238.4,513c6.2-3.7,7.8-13.1,7.8-13.1s-10.1-4.9-16.3-1.2c-6.2,3.7-6.2,14.7-6.2,14.7S232.2,516.7,238.4,513
			z"/>
		<path class="st23" d="M253.7,513.1c-0.2-7.2-7.6-13.2-7.6-13.2s-9.3,6.4-9.1,13.6c0.2,7.2,9.8,12.6,9.8,12.6
			S253.9,520.4,253.7,513.1z"/>
		<path class="st23" d="M261.4,499.8c-6.4-3.4-15.2,0.1-15.2,0.1s1,11.2,7.4,14.6c6.4,3.4,15.8-2.3,15.8-2.3
			S267.8,503.2,261.4,499.8z"/>
		<path class="st23" d="M253.6,486.6c-6.1,3.9-7.4,13.3-7.4,13.3s10.3,4.7,16.4,0.8s5.8-14.9,5.8-14.9S259.7,482.7,253.6,486.6z"/>
	</g>
	<g>
		<path class="st23" d="M180.1,495c-3,3.8-1.8,10-1.8,10s7.5,0.7,10.5-3c3-3.8,0.4-10.6,0.4-10.6S183.1,491.2,180.1,495z"/>
		<path class="st23" d="M170.5,498.5c1.8,4.5,7.8,6.5,7.8,6.5s4.3-6.1,2.5-10.6s-9-5.6-9-5.6S168.7,494,170.5,498.5z"/>
		<path class="st23" d="M168.7,508.5c4.8,0.7,9.5-3.6,9.5-3.6s-3.2-6.8-8-7.4c-4.8-0.7-9.3,5.1-9.3,5.1S164,507.9,168.7,508.5z"/>
		<path class="st23" d="M176.7,515c2.9-3.8,1.6-10,1.6-10s-7.5-0.6-10.4,3.3c-2.9,3.9-0.2,10.6-0.2,10.6S173.7,518.8,176.7,515z"/>
		<path class="st23" d="M186.2,511.3c-1.9-4.4-7.9-6.3-7.9-6.3s-4.2,6.2-2.3,10.7c1.9,4.4,9.2,5.4,9.2,5.4S188.1,515.7,186.2,511.3z
			"/>
		<path class="st23" d="M187.6,501.2c-4.8-0.5-9.4,3.8-9.4,3.8s3.4,6.7,8.2,7.2s9.2-5.3,9.2-5.3S192.4,501.7,187.6,501.2z"/>
	</g>
	<g>
		<path class="st22" d="M211,479.2c-4.4,5.4-2.6,14.4-2.6,14.4s10.8,1.1,15.1-4.4c4.4-5.4,0.6-15.3,0.6-15.3S215.4,473.8,211,479.2z
			"/>
		<path class="st22" d="M197.2,484.2c2.6,6.5,11.2,9.4,11.2,9.4s6.2-8.9,3.7-15.3c-2.6-6.5-13-8.1-13-8.1S194.6,477.8,197.2,484.2z"
			/>
		<path class="st22" d="M194.7,498.8c6.9,0.9,13.7-5.1,13.7-5.1s-4.6-9.8-11.5-10.7c-6.9-0.9-13.5,7.3-13.5,7.3
			S187.8,497.8,194.7,498.8z"/>
		<path class="st22" d="M206.1,508.1c4.2-5.5,2.3-14.5,2.3-14.5s-10.8-0.8-15,4.7s-0.3,15.3-0.3,15.3S201.9,513.6,206.1,508.1z"/>
		<path class="st22" d="M219.9,502.7c-2.7-6.4-11.5-9.1-11.5-9.1s-6,9-3.3,15.4c2.7,6.4,13.2,7.8,13.2,7.8S222.6,509.1,219.9,502.7z
			"/>
		<path class="st22" d="M222,488.1c-6.9-0.8-13.6,5.5-13.6,5.5s4.9,9.7,11.8,10.4s13.3-7.7,13.3-7.7S228.9,488.9,222,488.1z"/>
	</g>
	<g>
		<path class="st22" d="M189.4,459.4c-4.4,5.4-2.6,14.4-2.6,14.4s10.8,1.1,15.1-4.4c4.4-5.4,0.6-15.3,0.6-15.3
			S193.8,453.9,189.4,459.4z"/>
		<path class="st22" d="M175.5,464.4c2.6,6.5,11.2,9.4,11.2,9.4s6.2-8.9,3.7-15.3c-2.6-6.5-13-8.1-13-8.1S173,457.9,175.5,464.4z"/>
		<path class="st22" d="M173.1,478.9c6.9,0.9,13.7-5.1,13.7-5.1s-4.6-9.8-11.5-10.7c-6.9-0.9-13.5,7.3-13.5,7.3
			S166.2,478,173.1,478.9z"/>
		<path class="st22" d="M184.5,488.2c4.2-5.5,2.3-14.5,2.3-14.5s-10.8-0.8-15,4.7s-0.3,15.3-0.3,15.3S180.3,493.8,184.5,488.2z"/>
		<path class="st22" d="M198.2,482.9c-2.7-6.4-11.5-9.1-11.5-9.1s-6,9-3.3,15.4s13.2,7.8,13.2,7.8S201,489.3,198.2,482.9z"/>
		<path class="st22" d="M200.3,468.3c-6.9-0.8-13.6,5.5-13.6,5.5s4.9,9.7,11.8,10.4s13.3-7.7,13.3-7.7S207.3,469.1,200.3,468.3z"/>
	</g>
	<g>
		<path class="st22" d="M217.3,449.1c-3.6,4.5-2.2,11.9-2.2,11.9s8.9,0.9,12.5-3.6s0.5-12.7,0.5-12.7S220.9,444.6,217.3,449.1z"/>
		<path class="st22" d="M205.8,453.3c2.1,5.4,9.3,7.8,9.3,7.8s5.2-7.3,3-12.7c-2.1-5.4-10.8-6.7-10.8-6.7S203.7,447.9,205.8,453.3z"
			/>
		<path class="st22" d="M203.8,465.3c5.7,0.8,11.3-4.3,11.3-4.3s-3.8-8.1-9.5-8.9s-11.1,6.1-11.1,6.1S198,464.5,203.8,465.3z"/>
		<path class="st22" d="M213.2,473c3.5-4.6,1.9-12,1.9-12s-8.9-0.7-12.4,3.9s-0.2,12.7-0.2,12.7S209.7,477.6,213.2,473z"/>
		<path class="st22" d="M224.6,468.6c-2.3-5.3-9.5-7.5-9.5-7.5s-5,7.4-2.7,12.7c2.3,5.3,10.9,6.4,10.9,6.4S226.8,473.8,224.6,468.6z
			"/>
		<path class="st22" d="M226.3,456.5c-5.7-0.6-11.2,4.5-11.2,4.5s4,8,9.8,8.6s11-6.3,11-6.3S232,457.1,226.3,456.5z"/>
	</g>
</g>
<path class="st24" d="M356.6,583.1c0.1,0.8,0.1,1.5,0.2,2.3c0.2,2.4,0.3,4.7,0,7.1s-1.2,4.7-2.9,6.3c-1.1,1.1-2.5,1.8-4,2
	s-3.1-0.3-4.1-1.4c-1.8-1.8-1.6-4.9-0.2-7.1s3.6-3.7,5.7-5.1c1.7-1.1,3.3-2.2,5-3.3c-4.4,2.1-9.3,3.2-14.2,3.1
	c-1.6,0-3.1-0.2-4.6-0.8s-2.8-1.6-3.5-3c-1.1-2.1-0.4-4.9,1.3-6.6c1.7-1.7,4.2-2.5,6.6-2.4s4.7,0.9,6.9,1.9c3.4,1.5,6.6,3.8,8.1,7.2
	c-2.7-3.2-5.3-6.4-7.1-10.1s-2.8-8-1.9-12c0.1-0.6,0.3-1.3,0.7-1.8c0.4-0.6,1.1-1,1.8-1.3c2.3-0.8,4.9-0.1,6.7,1.5
	c1.8,1.6,2.9,3.9,3.3,6.3s0.3,4.8,0,7.2c-0.4,3.6-1.4,7.5-4.1,9.9c1-4,3.1-7.8,6.4-10.3s7.8-3.5,11.7-2.1c1,0.3,1.9,0.8,2.5,1.6
	c1.4,1.7,1,4.3,0.6,6.5c-0.3,1.5-0.6,3-1.5,4.2c-0.8,1.2-2.1,2-3.3,2.8c-1.3,0.8-2.6,1.6-4.1,2.1c-4.2,1.3-8.8-0.5-12.4-3.2
	c-0.1-0.1-0.3-0.2-0.3-0.4s0.2-0.3,0.3-0.2"/>
<path class="st24" d="M392.4,587.2c-4.2,3-10.1,3.4-14.7,1.1c-1.6-0.8-3.2-2.1-3.8-3.8c-1.1-2.8,0.5-6.2,3.2-7.6
	c2.7-1.4,6-1,8.7,0.4s4.7,3.8,6.4,6.2c-2.3-3.4-3.8-7.3-4.6-11.4c-0.4-2.2-0.5-4.4,0.1-6.5s2.4-3.9,4.5-4.3c3.6-0.7,6.7,2.8,8.1,6.3
	c1.6,4,1.9,9.1-1,12.3c-0.3-3.2,1.6-6.3,4.3-8.1s6-2.2,9.2-1.9c2.4,0.2,4.9,1.1,6.1,3.1c1.2,1.9,0.8,4.5-0.5,6.3s-3.3,3-5.4,3.8
	c-4.3,1.5-9.2,1.4-13.4-0.4c5,0.5,9.5,3.9,11.3,8.5c0.5,1.4,0.8,3,0.1,4.2c-0.9,1.6-2.9,2-4.7,2.2c-3.9,0.4-8.1,0.4-11.5-1.7
	c-3.4-2.1-5.4-6.7-3.5-10.1"/>
<path class="st24" d="M380.2,566.5c-1,3.8-2.2,7.7-5,10.4s-7.9,3.5-10.5,0.6c-2.4-2.7-1.4-7.4,1.4-9.7s6.8-2.8,10.4-2.3
	c-3.8-0.6-7.4-2.3-10.3-4.8c-2.3-2-4.3-5.4-2.7-8c1.3-2.1,4.3-2.5,6.5-1.5s3.7,3,5,5.1c1.2,2,2.3,4,3.3,6.2
	c-1.7-3.4-2.2-7.5-1.2-11.2c0.7-2.8,2.6-5.8,5.5-6.3c2.7-0.5,5.5,1.5,6.4,4c0.9,2.6,0.3,5.5-1.1,7.9c-1.5,2.3-3.7,4.1-6,5.6
	c3.4-2,7.5-2.9,11.5-2.6c2.1,0.2,4.5,1.2,4.8,3.2c0.2,1.3-0.6,2.5-1.4,3.4c-2.2,2.7-5.2,5-8.6,5.3s-7.3-2.2-7.4-5.7"/>
<path class="st24" d="M383.6,567.8c-0.3,0.7-0.6,1.4-0.9,2.1c-0.9,2.2-1.8,4.4-3.2,6.3c-1.4,1.9-3.2,3.6-5.4,4.4
	c-1.4,0.5-3,0.5-4.5,0c-1.4-0.5-2.6-1.7-3.1-3.1c-0.8-2.4,0.8-5.1,3-6.5s4.8-1.7,7.4-2c2-0.2,3.9-0.5,5.9-0.7
	c-4.9-0.1-9.7-1.3-14.1-3.6c-1.4-0.7-2.7-1.6-3.8-2.7c-1-1.2-1.8-2.6-1.8-4.2c0-2.4,1.8-4.6,4.1-5.4s4.8-0.3,7,0.8
	c2.1,1.1,3.8,2.9,5.3,4.8c2.3,2.9,4.2,6.4,4,10.1c-1-4-1.9-8.1-1.9-12.2c0-4.1,1.1-8.4,3.7-11.6c0.4-0.5,0.9-1,1.4-1.3
	c0.7-0.3,1.4-0.4,2.2-0.3c2.4,0.3,4.4,2.1,5.4,4.3c0.9,2.2,0.9,4.8,0.2,7.1s-1.9,4.4-3.2,6.4c-2,3-4.6,6.1-8.1,7
	c2.7-3.1,6.3-5.6,10.3-6.3s8.5,0.4,11.4,3.3c0.7,0.7,1.3,1.6,1.5,2.6c0.5,2.2-1,4.3-2.4,6.1c-0.9,1.2-1.9,2.4-3.2,3.1
	c-1.3,0.7-2.8,0.9-4.2,1c-1.5,0.1-3.1,0.3-4.6,0c-4.4-0.7-7.7-4.4-9.6-8.4c-0.1-0.1-0.1-0.3-0.1-0.5s0.3-0.2,0.4,0"/>
<path class="st24" d="M413.9,587.5c-5.1,0.8-10.6-1.5-13.6-5.6c-1.1-1.5-1.9-3.3-1.7-5.1c0.3-3,3.2-5.3,6.2-5.4
	c3-0.1,5.8,1.8,7.6,4.2c1.7,2.5,2.5,5.5,2.9,8.4c-0.5-4.1-0.2-8.3,1-12.2c0.6-2.1,1.5-4.2,3-5.7s3.9-2.5,6-1.9
	c3.6,1,4.7,5.6,4.4,9.2c-0.4,4.3-2.4,9-6.4,10.6c1.2-3,4.3-5,7.4-5.3s6.4,0.7,9.1,2.4c2,1.3,3.9,3.2,4.1,5.5
	c0.2,2.2-1.3,4.4-3.3,5.4c-2,1.1-4.3,1.2-6.5,0.9c-4.5-0.6-8.9-2.9-11.9-6.3c4.2,2.6,6.8,7.7,6.3,12.7c-0.1,1.5-0.6,3-1.8,3.8
	c-1.5,1-3.5,0.5-5.2-0.1c-3.7-1.4-7.4-3.3-9.5-6.7s-1.9-8.4,1.4-10.6"/>
<path class="st24" d="M412.2,563.5c-2.6,2.9-5.4,5.9-9.2,7.1c-3.7,1.2-8.6-0.4-9.6-4.2c-1-3.5,2-7.2,5.6-8.1s7.3,0.6,10.3,2.6
	c-3.1-2.3-5.6-5.4-7-8.9c-1.2-2.8-1.4-6.7,1.2-8.4c2-1.3,4.9-0.3,6.4,1.6c1.5,1.9,2,4.4,2.2,6.8c0.2,2.3,0.3,4.7,0.2,7
	c0-3.9,1.4-7.7,3.9-10.6c1.9-2.2,4.9-4,7.7-3.2c2.6,0.8,4.2,3.8,3.9,6.5c-0.3,2.7-2.2,5.1-4.5,6.5s-5.1,2-7.8,2.3
	c4-0.3,8.1,0.7,11.5,2.9c1.8,1.1,3.5,3.1,2.8,5c-0.4,1.2-1.7,1.9-2.8,2.4c-3.2,1.4-6.9,2.2-10.1,0.9s-5.5-5.2-4.1-8.4"/>
<path class="st24" d="M357.9,565.4c0.1,0.8,0.1,1.5,0.2,2.3c0.2,2.4,0.3,4.7,0,7.1c-0.3,2.3-1.2,4.7-2.9,6.3c-1.1,1.1-2.5,1.8-4,2
	s-3.1-0.3-4.1-1.4c-1.8-1.8-1.6-4.9-0.2-7.1s3.6-3.7,5.7-5.1c1.7-1.1,3.3-2.2,5-3.3c-4.4,2.1-9.3,3.2-14.2,3.1
	c-1.6,0-3.1-0.2-4.6-0.8s-2.8-1.6-3.5-3c-1.1-2.1-0.4-4.9,1.3-6.6c1.7-1.7,4.2-2.5,6.6-2.4s4.7,0.9,6.9,1.9c3.4,1.5,6.6,3.8,8.1,7.2
	c-2.7-3.2-5.3-6.4-7.1-10.1c-1.8-3.7-2.8-8-1.9-12c0.1-0.6,0.3-1.3,0.7-1.8c0.4-0.6,1.1-1,1.8-1.3c2.3-0.8,4.9-0.1,6.7,1.5
	c1.8,1.6,2.9,3.9,3.3,6.3c0.4,2.4,0.3,4.8,0,7.2c-0.4,3.6-1.4,7.5-4.1,9.9c1-4,3.1-7.8,6.4-10.3s7.8-3.5,11.7-2.1
	c1,0.3,1.9,0.8,2.5,1.6c1.4,1.7,1,4.3,0.6,6.5c-0.3,1.5-0.6,3-1.5,4.2c-0.8,1.2-2.1,2-3.3,2.8c-1.3,0.8-2.6,1.6-4.1,2.1
	c-4.2,1.3-8.8-0.5-12.4-3.2c-0.1-0.1-0.3-0.2-0.3-0.4s0.2-0.3,0.3-0.2"/>
<path class="st24" d="M402.6,552.4c-4.2,3-10.1,3.4-14.7,1.1c-1.6-0.8-3.2-2.1-3.8-3.8c-1.1-2.8,0.5-6.2,3.2-7.6
	c2.7-1.4,6-1,8.7,0.4s4.7,3.8,6.4,6.2c-2.3-3.4-3.8-7.3-4.6-11.4c-0.4-2.2-0.5-4.4,0.1-6.5s2.4-3.9,4.5-4.3c3.6-0.7,6.7,2.8,8.1,6.3
	c1.6,4,1.9,9.1-1,12.3c-0.3-3.2,1.6-6.3,4.3-8.1c2.7-1.7,6-2.2,9.2-1.9c2.4,0.2,4.9,1.1,6.1,3.1c1.2,1.9,0.8,4.5-0.5,6.3
	s-3.3,3-5.4,3.8c-4.3,1.5-9.2,1.4-13.4-0.4c5,0.5,9.5,3.9,11.3,8.5c0.5,1.4,0.8,3,0.1,4.2c-0.9,1.6-2.9,2-4.7,2.2
	c-3.9,0.4-8.1,0.4-11.5-1.7c-3.4-2.1-5.4-6.7-3.5-10.1"/>
<path class="st24" d="M381.6,548.7c-1,3.8-2.2,7.7-5,10.4s-7.9,3.5-10.5,0.6c-2.4-2.7-1.4-7.4,1.4-9.7s6.8-2.8,10.4-2.3
	c-3.8-0.6-7.4-2.3-10.3-4.8c-2.3-2-4.3-5.4-2.7-8c1.3-2.1,4.3-2.5,6.5-1.5s3.7,3,5,5.1c1.2,2,2.3,4,3.3,6.2
	c-1.7-3.4-2.2-7.5-1.2-11.2c0.7-2.8,2.6-5.8,5.5-6.3c2.7-0.5,5.5,1.5,6.4,4c0.9,2.6,0.3,5.5-1.1,7.9c-1.5,2.3-3.7,4.1-6,5.6
	c3.4-2,7.5-2.9,11.5-2.6c2.1,0.2,4.5,1.2,4.8,3.2c0.2,1.3-0.6,2.5-1.4,3.4c-2.2,2.7-5.2,5-8.6,5.3s-7.3-2.2-7.4-5.7"/>
<g>
	<polygon class="st25" points="511.4,583.7 519.5,618.9 620.5,625 632.2,583.7 	"/>
	<g>
		<path class="st26" d="M517.9,565.9c64,36.9,34.1,66.8-2.8,2.8c-36.9,64-66.8,34.1-2.8-2.8c-64-36.9-34.1-66.8,2.8-2.8
			C552,499.1,581.9,529,517.9,565.9z"/>
		<path class="st26" d="M516.9,568.5c11.6,73-30.5,68.5-3.9-0.4c-73,11.6-68.5-30.5,0.4-3.9c-11.6-73,30.5-68.5,3.9,0.4
			C590.3,553,585.8,595,516.9,568.5z"/>
	</g>
	<g>
		<path class="st26" d="M517.1,511c46.5,26.8,24.8,48.6-2,2c-26.8,46.5-48.6,24.8-2-2c-46.5-26.8-24.8-48.6,2-2
			C541.9,462.5,563.7,484.2,517.1,511z"/>
		<path class="st26" d="M516.4,512.9c8.4,53-22.2,49.8-2.8-0.3c-53,8.4-49.8-22.2,0.3-2.8c-8.4-53,22.2-49.8,2.8,0.3
			C569.7,501.6,566.5,532.2,516.4,512.9z"/>
	</g>
	<g>
		<path class="st26" d="M600.7,558.4c64,36.9,34.1,66.8-2.8,2.8c-36.9,64-66.8,34.1-2.8-2.8c-64-36.9-34.1-66.8,2.8-2.8
			C634.8,491.6,664.7,521.5,600.7,558.4z"/>
		<path class="st26" d="M599.7,561c11.6,73-30.5,68.5-3.9-0.4c-73,11.6-68.5-30.5,0.4-3.9c-11.6-73,30.5-68.5,3.9,0.4
			C673.1,545.5,668.6,587.6,599.7,561z"/>
	</g>
	<g>
		<path class="st26" d="M536.7,533.6c47.2,27.2,25.1,49.2-2,2c-27.2,47.2-49.2,25.1-2-2c-47.2-27.2-25.1-49.2,2-2
			C561.8,484.4,583.9,506.4,536.7,533.6z"/>
		<path class="st26" d="M535.9,535.5c8.5,53.8-22.5,50.5-2.9-0.3c-53.8,8.5-50.5-22.5,0.3-2.9c-8.5-53.8,22.5-50.5,2.9,0.3
			C590,524.1,586.7,555.1,535.9,535.5z"/>
	</g>
	<g>
		<path class="st26" d="M601,572.6c33.6,19.3,17.9,35-1.5,1.5c-19.3,33.6-35,17.9-1.5-1.5c-33.6-19.3-17.9-35,1.5-1.5
			C618.9,537.6,634.6,553.2,601,572.6z"/>
		<path class="st26" d="M600.5,573.9c6.1,38.3-16,35.9-2.1-0.2c-38.3,6.1-35.9-16,0.2-2.1c-6.1-38.3,16-35.9,2.1,0.2
			C639,565.8,636.6,587.8,600.5,573.9z"/>
	</g>
	<g>
		<path class="st26" d="M580.3,512.3c41.4,23.9,22.1,43.2-1.8,1.8c-23.9,41.4-43.2,22.1-1.8-1.8c-41.4-23.9-22.1-43.2,1.8-1.8
			C602.4,469,621.8,488.4,580.3,512.3z"/>
		<path class="st26" d="M579.7,513.9c7.5,47.2-19.7,44.4-2.5-0.3c-47.2,7.5-44.4-19.7,0.3-2.5c-7.5-47.2,19.7-44.4,2.5,0.3
			C627.2,503.9,624.3,531.2,579.7,513.9z"/>
	</g>
	<g>
		<path class="st26" d="M595.9,516.5c28.8,16.6,15.4,30.1-1.3,1.3c-16.6,28.8-30.1,15.4-1.3-1.3c-28.8-16.6-15.4-30.1,1.3-1.3
			C611.3,486.4,624.7,499.9,595.9,516.5z"/>
		<path class="st26" d="M595.4,517.6c5.2,32.9-13.7,30.9-1.8-0.2c-32.9,5.2-30.9-13.7,0.2-1.8c-5.2-32.9,13.7-30.9,1.8,0.2
			C628.5,510.7,626.5,529.6,595.4,517.6z"/>
	</g>
	<g>
		<path class="st26" d="M616.1,511.3c43.5,25.1,23.2,45.4-1.9,1.9c-25.1,43.5-45.4,23.2-1.9-1.9c-43.5-25.1-23.2-45.4,1.9-1.9
			C639.3,465.9,659.7,486.2,616.1,511.3z"/>
		<path class="st26" d="M615.4,513c7.9,49.6-20.7,46.6-2.7-0.3c-49.6,7.9-46.6-20.7,0.3-2.7c-7.9-49.6,20.7-46.6,2.7,0.3
			C665.4,502.5,662.3,531.1,615.4,513z"/>
	</g>
	<g>
		<path class="st26" d="M556.8,492.2c36.3,20.9,19.3,37.8-1.6,1.6c-20.9,36.3-37.8,19.3-1.6-1.6c-36.3-20.9-19.3-37.8,1.6-1.6
			C576.1,454.4,593.1,471.3,556.8,492.2z"/>
		<path class="st26" d="M556.2,493.6c6.5,41.3-17.3,38.8-2.2-0.2c-41.3,6.5-38.8-17.3,0.2-2.2c-6.5-41.3,17.3-38.8,2.2,0.2
			C597.8,484.9,595.3,508.7,556.2,493.6z"/>
	</g>
</g>
</svg>
