<?xml version="1.0" encoding="iso-8859-1"?>
<!-- Generator: Adobe Illustrator 19.2.1, SVG Export Plug-In . SVG Version: 6.00 Build 0)  -->
<svg version="1.1" xmlns="http://www.w3.org/2000/svg" xmlns:xlink="http://www.w3.org/1999/xlink" x="0px" y="0px"
	 viewBox="0 0 964 964" style="enable-background:new 0 0 964 964;" xml:space="preserve">
<g id="Wellness">
	<g>
		<path style="fill:#B8D7F4;" d="M964,480.775c0,442.999-576.682,648.773-851.169,319.297
			C-23.056,636.962-38.979,390.109,80.195,212C192.921,43.527,402.62-30.508,593.317,11.568C807.355,58.795,964,251.329,964,480.775
			z"/>
		<g>
			<path style="fill:#FACCA9;" d="M489.817,545.312c0,0-0.432,66.48-19.432,74.116c-19.001,7.636-62.149-2.695-78.576,13.027
				s-81.202,147.334-93.725,181.922c0,0-19.864-194.499-15.978-204.382c3.886-9.882,20.296-45.979,16.41-53.31
				c-3.886-7.331-15.69-61.683-16.914-61.234s-5.973,39.529-5.11,46.716c0.864,7.187-39.728,11.525-45.342,6.661
				c-5.614-4.864-23.319-63.259-21.16-65.954c2.159-2.695-2.159-14.711-5.182-5.783c-3.023,8.928-8.637,63.28,0,76.306
				c8.637,13.026,43.183,37.732,46.206,41.775c3.023,4.043,6.477,34.138,6.046,43.122s6.909,188.66,6.046,199.441
				c-0.864,10.781,7.773,56.149,23.751,56.149s80.321-74.116,81.616-85.795c1.295-11.679,7.773-46.716,7.773-46.716
				s175.755-47.614,237.075,2.246l8.637,38.181L648.521,927.4l44.513-15.425l-14.507-147.009c0,0,5.182-116.34,5.182-120.383
				c0-4.043-4.318-17.518-50.956-17.069c-46.638,0.449-85.071,5.39-83.775-15.272c1.295-20.663,7.318-98.513,18.546-122.32
				s14.705-30.18,14.705-30.18S506.658,507.58,489.817,545.312z"/>
			<path style="fill:#DDB28A;" d="M490.896,547.558l-2.002,16.634c0,0,71.52-32.733,79.948-80.194
				C574.813,450.37,490.896,547.558,490.896,547.558z"/>
			<path style="fill:#FACCA9;" d="M344.215,320.487c-6.351,25.34-1.845,53.407,12.078,75.225c3.552,5.567,7.735,10.847,9.833,17.162
				c4.358,13.115-1.115,27.367-1.36,41.242c-0.57,32.347,13.488,51.642,30.925,73.462c10.459,13.088,20.918,18.09,31.378,31.179
				c3.612,4.52,7.547,9.267,12.966,10.929c6.126,1.879,12.617-0.629,18.546-3.099c18.188-7.579,36.377-15.157,54.565-22.736
				c15.629-6.512,31.882-25.156,42.897-38.401c10.475-12.596,14.942-17.832,16.39-34.418c0.355-4.067,0.594-8.313,2.547-11.855
				c1.307-2.37,2.567-6.018,5.191-6.126c11.988-0.497,16.543-9.133,22.004-17.188c6.215-9.169,8.176-25.302,6.18-36.328
				c-1.995-11.025-14.858-19.984-23.931-13.918c7.049-45.281-5.402-93.463-33.327-128.966
				c-28.174-35.819-74.961-58.437-118.056-46.931c-13.309,3.553-25.681,10.08-37.929,16.557c-7.683,4.063-15.441,8.177-22.04,13.944
				c-13.418,11.728-20.805,29.098-27.749,45.836c-5.632,13.575-11.094,29.961-3.294,42.321"/>
			<g>
				<path style="fill:#C8878D;" d="M410.18,461.787c0,0,0.065,0.159,0.186,0.457c0.104,0.301,0.3,0.733,0.467,1.301
					c0.162,0.569,0.402,1.277,0.567,2.088c0.193,0.812,0.347,1.738,0.487,2.758c0.123,1.019,0.209,2.131,0.235,3.312
					c0.011,1.179-0.018,2.428-0.146,3.714c-0.058,0.644-0.131,1.297-0.241,1.953c-0.091,0.66-0.208,1.324-0.359,1.987
					c-0.265,1.335-0.656,2.663-1.073,3.982c-0.466,1.302-0.947,2.603-1.549,3.827c-0.245,0.51-0.488,1.015-0.728,1.515
					c-0.067,0.154-0.098,0.259-0.111,0.255c-0.011,0.006-0.015-0.025-0.04-0.054c-0.007-0.02-0.024-0.034-0.034-0.055l-0.011-0.013
					l-0.006-0.006l-0.003-0.003c-0.084-0.182-0.02-0.043-0.038-0.08l0.043,0.108c-0.126-0.193-0.147-0.114-0.124-0.083
					c0.035,0.053,0.147,0.149,0.313,0.25c0.297,0.19,0.962,0.442,1.384,0.633c0.959,0.408,1.92,0.753,2.814,1.043
					c1.795,0.581,3.381,0.96,4.519,1.204c1.159,0.235,1.821,0.369,1.821,0.369s-0.159,0.065-0.458,0.188
					c-0.301,0.108-0.746,0.29-1.327,0.438c-1.159,0.336-2.875,0.668-4.985,0.668c-1.055-0.003-2.194-0.08-3.411-0.287
					c-0.663-0.121-1.117-0.189-1.924-0.434c-0.382-0.122-0.811-0.297-1.267-0.598c-0.467-0.323-0.923-0.695-1.337-1.435l-0.059-0.1
					l-0.091-0.196l-0.051-0.122c-0.071-0.164-0.119-0.33-0.168-0.5c-0.086-0.333-0.13-0.676-0.131-0.983
					c-0.011-0.631,0.099-1.148,0.217-1.6c0.123-0.452,0.261-0.82,0.396-1.171l0.341-0.87c0.445-1.144,0.868-2.317,1.265-3.498
					c0.799-2.361,1.48-4.765,2.051-7.056c0.571-2.291,1.029-4.473,1.389-6.379c0.349-1.937,0.64-3.552,0.844-4.682
					C410.032,462.465,410.18,461.787,410.18,461.787z"/>
			</g>
			<path style="fill:#FEFEFE;" d="M446.202,517.013c0,0-1.295,26.951-2.591,31.443c-1.296,4.492,35.658-32.857,25.818-49.444
				L446.202,517.013z"/>
			<path style="fill:#BF6079;" d="M470.384,495.452c0,0-22.455,19.764-42.751,23.807s-17.697,7.636-15.542,10.781
				c1.763,2.572,26.061,2.139,44.776-12.606C463.735,512.022,468.475,504.191,470.384,495.452L470.384,495.452z"/>
			<path style="fill:#BF6079;" d="M470.384,511.173c0,0-8.205,22.46-19.001,28.299s-16.41,12.577-12.955,16.171
				c3.455,3.594,14.682-2.695,19.864-9.882C463.475,538.574,470.384,511.173,470.384,511.173z"/>
			<path style="fill:#FEFEFE;" d="M445.77,396.63c0,0,16.41-13.925,33.683-19.315c17.273-5.39,37.299,6.289,37.299,6.289
				s9.04,34.138-20.175,42.224c-29.215,8.085-46.488-10.107-46.488-10.107S442.05,399.564,445.77,396.63z"/>
			<path style="fill:#412020;" d="M450.088,415.72c0.648,0.674,39.081,19.764,62.831,0c0,0-11.875,18.641-31.416,15.048
				C461.964,427.175,450.088,415.72,450.088,415.72z"/>
			<path style="fill:#FEFEFE;" d="M389.821,436.853c0,0,20.186-9.678,9.999-38.876c0,0-30.484-3.55-37.177,4.738
				c0,0,8.412,26.799,4.098,33.714C366.741,436.43,382.409,443.309,389.821,436.853z"/>
			<path style="fill:#412020;" d="M402.803,403.143c0,0-2.375-13.925-27.421-8.984c-25.046,4.941-46.638-12.353-46.638-12.353
				s10.58,21.561,25.91,21.337C369.984,402.918,394.382,397.753,402.803,403.143z"/>
			<path style="fill:#412020;" d="M396.757,432.34c0,0-6.262,18.192-34.115,2.92C362.643,435.26,382.939,442.672,396.757,432.34z"/>
			<ellipse style="fill:#9364CC;" cx="494.891" cy="397.977" rx="21.861" ry="22.74"/>
			<ellipse style="fill:#412020;" cx="496.577" cy="397.977" rx="8.693" ry="9.043"/>
			<path style="fill:#412020;" d="M445.77,396.63c0,0,22.239-33.465,52.036-30.994c29.796,2.471,31.092,8.535,46.206-4.716
				c0,0-4.534,24.481-29.149,25.828c0,0-11.228-8.085-28.069-5.839C469.953,383.154,445.77,396.63,445.77,396.63z"/>
			<ellipse style="fill:#9364CC;" cx="389.821" cy="415.72" rx="12.982" ry="15.074"/>
			<path style="fill:#412020;" d="M395.992,410.213c2.31,2.403,2.31,6.299,0,8.702c-2.31,2.403-6.056,2.403-8.366,0
				c-2.31-2.403-2.31-6.299,0-8.702S393.682,407.81,395.992,410.213z"/>
			<path style="fill:#412020;" d="M391.809,331.048c0,0-9.158-6.588-26.035,18.567c0,0-8.737,17.216-15.15,17.369
				c0,0,10.94,1.198,17.849-8.984S384.629,331.647,391.809,331.048z"/>
			<path style="fill:#D892A9;" d="M363.074,199.884c0,0-63.911,36.609-56.21,81.453c12.46,72.558,69.093,49.558,119.185,18.191
				s50.092-31.367,50.092-31.367S537.8,368.389,584.426,385.616c0.598,0.221,0.94,0.172,1.107-0.041
				c1.898-2.409,5.357-2.786,8.198-1.8c6.956,2.414,15.238,7.733,15.046,19.37c-0.411,24.938-8.062,47.333-28.604,49.906
				c0,0-11.057,9.433-7.739,17.981c3.318,8.548,15.985,0,15.985,0s46.638-37.569,43.183-74.402c0,0,33.971-48.812,16.122-92.533
				c-17.849-43.721,1.152-4.568,1.152-4.568s37.425-57.121,12.091-90.061c0,0,20.565-62.887-52.189-71.87
				c0,0-4.237-20.363-6.54-41.326s-48.941-34.138-54.699-26.353c0,0-8.637-49.71-77.154-29.946s-26.807,38.331-26.807,38.331
				s-79.282,34.985-53.757,61.09c2.554,2.612-0.881-0.976-0.881-0.976s-54.582,36.312-26.297,60.269"/>
			<path style="fill:#BF6079;" d="M367.609,944.193c0,0,9.068-39.08,23.319-77.71c0,0,3.886-15.272-4.75-23.358
				c-8.637-8.085-41.456-64.683-30.66-83.999s29.365-22.46,29.365-22.46s-8.637,9.882-5.182,10.781s128.686-45.817,235.348,10.781
				c0,0,16.41,22.01,9.932,39.978c-6.477,17.968-36.274,68.277-38.001,88.041c-1.727,19.764-9.5,46.267,0,62.437
				C586.979,948.685,458.293,985.968,367.609,944.193z"/>
			<path style="fill:#BF6079;" d="M341.512,216.788c39.365-20.65,87.286-34.597,131.517-24.989
				c-20.229-3.745-40.756-2.174-60.785,2.12C396.486,197.297,348.938,223.72,341.512,216.788z"/>
			<path style="fill:#412020;" d="M453.899,313.679c0,0,3.027-19.764,27.605-12.577c24.578,7.187,32.639,13.176,47.609,10.182
				c0,0-19.786,7.942-47.609-1.797C461.227,302.389,453.899,313.679,453.899,313.679z"/>
			<path style="fill:#BF6079;" d="M533.432,212.911c31.738,10.603,75.458,29.951,85.875,66.855c-1.4,0.349-2.8,0.698-4.199,1.047
				C606.233,244.823,563.622,224.253,533.432,212.911z"/>
			<path style="fill:#BF6079;" d="M626.975,270.74c9.663,7.238,17.185,16.549,18.896,28.788
				C642.448,286.417,625.482,280.493,626.975,270.74z"/>
			<path style="fill:#BF6079;" d="M621.525,357.999c5.205,12.545,10.052,25.21,12.235,38.672c-1.439-0.028-2.878-0.056-4.318-0.084
				C628.598,383.403,625.229,370.647,621.525,357.999z"/>
			<path style="fill:#BF6079;" d="M473.029,122.624c-28.057-0.726-57.413,4.574-82.191,18.751c-0.679-1.32-1.357-2.641-2.036-3.961
				C414.632,124.334,444.584,120.399,473.029,122.624z"/>
			<path style="fill:#BF6079;" d="M550.705,128.463c19.721-1.731,40.037,0.518,58.839,7.034c-0.511,1.4-1.023,2.799-1.534,4.199
				C589.994,131.901,570.184,128.233,550.705,128.463z"/>
			<path style="fill:#BF6079;" d="M444.043,80.849c20.514,9.785,53.673,24.165,70.388,0
				C502.332,111.617,461.784,95.635,444.043,80.849z"/>
		</g>
	</g>
</g>
<g id="Layer_1">
</g>
</svg>
